G04 #@! TF.FileFunction,Legend,Bot*
%FSLAX46Y46*%
G04 Gerber Fmt 4.6, Leading zero omitted, Abs format (unit mm)*
G04 Created by KiCad (PCBNEW 4.0.7-e2-6376~58~ubuntu14.04.1) date Wed May 23 13:57:35 2018*
%MOMM*%
%LPD*%
G01*
G04 APERTURE LIST*
%ADD10C,0.100000*%
%ADD11C,0.150000*%
G04 APERTURE END LIST*
D10*
X150175000Y-64125000D02*
G75*
G03X150175000Y-64125000I-2500000J0D01*
G01*
X205175000Y-64125000D02*
G75*
G03X205175000Y-64125000I-2500000J0D01*
G01*
D11*
X194265476Y-90677381D02*
X194265476Y-89677381D01*
X194265476Y-90153571D02*
X193694047Y-90153571D01*
X193694047Y-90677381D02*
X193694047Y-89677381D01*
X193217857Y-90677381D02*
X193217857Y-89677381D01*
X192741667Y-90677381D02*
X192741667Y-89677381D01*
X192503572Y-89677381D01*
X192360714Y-89725000D01*
X192265476Y-89820238D01*
X192217857Y-89915476D01*
X192170238Y-90105952D01*
X192170238Y-90248810D01*
X192217857Y-90439286D01*
X192265476Y-90534524D01*
X192360714Y-90629762D01*
X192503572Y-90677381D01*
X192741667Y-90677381D01*
X191741667Y-90677381D02*
X191741667Y-89677381D01*
X191503572Y-89677381D01*
X191360714Y-89725000D01*
X191265476Y-89820238D01*
X191217857Y-89915476D01*
X191170238Y-90105952D01*
X191170238Y-90248810D01*
X191217857Y-90439286D01*
X191265476Y-90534524D01*
X191360714Y-90629762D01*
X191503572Y-90677381D01*
X191741667Y-90677381D01*
X190741667Y-90153571D02*
X190408333Y-90153571D01*
X190265476Y-90677381D02*
X190741667Y-90677381D01*
X190741667Y-89677381D01*
X190265476Y-89677381D01*
X189836905Y-90677381D02*
X189836905Y-89677381D01*
X189265476Y-90677381D01*
X189265476Y-89677381D01*
X188075000Y-90391667D02*
X187598809Y-90391667D01*
X188170238Y-90677381D02*
X187836905Y-89677381D01*
X187503571Y-90677381D01*
X186598809Y-90677381D02*
X186932143Y-90201190D01*
X187170238Y-90677381D02*
X187170238Y-89677381D01*
X186789285Y-89677381D01*
X186694047Y-89725000D01*
X186646428Y-89772619D01*
X186598809Y-89867857D01*
X186598809Y-90010714D01*
X186646428Y-90105952D01*
X186694047Y-90153571D01*
X186789285Y-90201190D01*
X187170238Y-90201190D01*
X186170238Y-90153571D02*
X185836904Y-90153571D01*
X185694047Y-90677381D02*
X186170238Y-90677381D01*
X186170238Y-89677381D01*
X185694047Y-89677381D01*
X185313095Y-90391667D02*
X184836904Y-90391667D01*
X185408333Y-90677381D02*
X185075000Y-89677381D01*
X184741666Y-90677381D01*
X196355952Y-90296429D02*
X195594047Y-90296429D01*
X195974999Y-90677381D02*
X195974999Y-89915476D01*
X183555952Y-90296429D02*
X182794047Y-90296429D01*
M02*
