G04 #@! TF.FileFunction,Copper,L2,Bot,Signal*
%FSLAX46Y46*%
G04 Gerber Fmt 4.6, Leading zero omitted, Abs format (unit mm)*
G04 Created by KiCad (PCBNEW 4.0.7-e2-6376~58~ubuntu14.04.1) date Wed Aug  8 15:23:53 2018*
%MOMM*%
%LPD*%
G01*
G04 APERTURE LIST*
%ADD10C,0.100000*%
%ADD11C,0.010000*%
%ADD12C,0.900000*%
%ADD13O,2.000000X3.000000*%
%ADD14C,3.600000*%
%ADD15C,0.600000*%
%ADD16C,1.000000*%
%ADD17C,0.200000*%
%ADD18C,0.300000*%
G04 APERTURE END LIST*
D10*
D11*
G36*
X195941788Y-40543285D02*
X195930357Y-40548434D01*
X195915430Y-40555905D01*
X195906524Y-40560627D01*
X195870902Y-40579888D01*
X195834210Y-40569093D01*
X195817279Y-40564281D01*
X195803144Y-40560573D01*
X195793980Y-40558528D01*
X195792084Y-40558299D01*
X195786658Y-40560550D01*
X195775796Y-40566692D01*
X195761033Y-40575809D01*
X195743903Y-40586983D01*
X195742484Y-40587933D01*
X195723170Y-40600311D01*
X195706482Y-40609894D01*
X195693894Y-40615887D01*
X195687592Y-40617567D01*
X195680244Y-40618124D01*
X195677422Y-40621194D01*
X195678389Y-40628877D01*
X195680679Y-40637262D01*
X195681543Y-40643797D01*
X195681221Y-40654095D01*
X195679592Y-40669034D01*
X195676540Y-40689490D01*
X195671946Y-40716342D01*
X195665691Y-40750467D01*
X195664673Y-40755892D01*
X195658322Y-40789223D01*
X195653123Y-40815294D01*
X195648796Y-40835187D01*
X195645060Y-40849985D01*
X195641634Y-40860772D01*
X195638237Y-40868630D01*
X195634587Y-40874643D01*
X195633487Y-40876138D01*
X195629709Y-40881947D01*
X195626101Y-40889681D01*
X195622382Y-40900367D01*
X195618268Y-40915033D01*
X195613476Y-40934705D01*
X195607724Y-40960410D01*
X195600730Y-40993175D01*
X195598971Y-41001558D01*
X195588142Y-41055921D01*
X195579949Y-41102980D01*
X195574403Y-41142610D01*
X195571516Y-41174688D01*
X195571301Y-41199087D01*
X195573770Y-41215685D01*
X195577508Y-41223071D01*
X195581253Y-41227827D01*
X195582968Y-41232998D01*
X195582684Y-41240756D01*
X195580435Y-41253272D01*
X195578124Y-41264114D01*
X195571745Y-41286193D01*
X195562432Y-41304180D01*
X195548922Y-41319411D01*
X195529953Y-41333220D01*
X195504261Y-41346943D01*
X195496276Y-41350684D01*
X195479485Y-41358924D01*
X195465772Y-41366667D01*
X195456895Y-41372860D01*
X195454514Y-41375657D01*
X195451365Y-41379203D01*
X195443583Y-41382042D01*
X195429852Y-41384510D01*
X195411152Y-41386709D01*
X195392205Y-41388575D01*
X195379823Y-41389324D01*
X195372151Y-41388739D01*
X195367336Y-41386607D01*
X195363523Y-41382711D01*
X195362189Y-41381026D01*
X195358167Y-41376603D01*
X195353220Y-41373726D01*
X195345575Y-41372062D01*
X195333459Y-41371273D01*
X195315097Y-41371024D01*
X195309272Y-41371007D01*
X195288924Y-41371093D01*
X195274475Y-41371811D01*
X195263362Y-41373698D01*
X195253017Y-41377293D01*
X195240875Y-41383135D01*
X195233704Y-41386869D01*
X195217938Y-41395563D01*
X195207594Y-41402907D01*
X195200393Y-41411070D01*
X195194059Y-41422224D01*
X195191877Y-41426706D01*
X195180463Y-41450587D01*
X195131273Y-41453431D01*
X195111181Y-41454640D01*
X195084974Y-41456287D01*
X195054981Y-41458221D01*
X195023533Y-41460292D01*
X194993184Y-41462334D01*
X194966306Y-41464148D01*
X194942062Y-41465747D01*
X194921808Y-41467048D01*
X194906900Y-41467962D01*
X194898694Y-41468403D01*
X194897766Y-41468430D01*
X194892672Y-41472010D01*
X194885204Y-41481627D01*
X194876591Y-41495656D01*
X194874966Y-41498613D01*
X194858683Y-41528760D01*
X194863158Y-41560647D01*
X194865282Y-41576997D01*
X194865821Y-41587202D01*
X194864512Y-41593476D01*
X194861092Y-41598036D01*
X194858441Y-41600424D01*
X194852271Y-41604520D01*
X194844361Y-41606578D01*
X194832367Y-41606927D01*
X194817500Y-41606145D01*
X194801789Y-41605073D01*
X194780076Y-41603594D01*
X194754808Y-41601875D01*
X194728430Y-41600081D01*
X194718017Y-41599374D01*
X194686525Y-41596881D01*
X194661543Y-41594016D01*
X194641115Y-41590483D01*
X194623286Y-41585988D01*
X194617611Y-41584233D01*
X194601636Y-41578876D01*
X194591264Y-41573924D01*
X194585141Y-41567450D01*
X194581913Y-41557527D01*
X194580227Y-41542227D01*
X194579403Y-41529850D01*
X194578257Y-41519796D01*
X194575030Y-41513803D01*
X194567567Y-41509547D01*
X194557150Y-41505848D01*
X194540266Y-41501482D01*
X194522623Y-41498797D01*
X194516555Y-41498439D01*
X194503736Y-41497414D01*
X194496568Y-41494148D01*
X194492717Y-41488422D01*
X194488426Y-41482927D01*
X194479958Y-41477792D01*
X194465831Y-41472284D01*
X194449928Y-41467255D01*
X194421452Y-41459700D01*
X194399400Y-41456196D01*
X194382766Y-41456729D01*
X194370547Y-41461284D01*
X194364841Y-41466023D01*
X194355206Y-41476279D01*
X194260703Y-41473843D01*
X194166200Y-41471408D01*
X194164825Y-41484955D01*
X194164152Y-41489390D01*
X194162497Y-41493275D01*
X194158914Y-41497170D01*
X194152458Y-41501635D01*
X194142182Y-41507230D01*
X194127142Y-41514513D01*
X194106392Y-41524044D01*
X194078987Y-41536383D01*
X194074551Y-41538373D01*
X193985651Y-41578243D01*
X193948859Y-41578388D01*
X193932099Y-41578795D01*
X193918849Y-41579757D01*
X193911169Y-41581097D01*
X193910113Y-41581708D01*
X193908368Y-41587491D01*
X193906191Y-41598496D01*
X193905197Y-41604667D01*
X193902236Y-41624451D01*
X193922777Y-41627225D01*
X193941802Y-41630178D01*
X193954230Y-41633571D01*
X193961904Y-41638496D01*
X193966667Y-41646047D01*
X193969720Y-41655054D01*
X193972717Y-41667351D01*
X193972464Y-41675274D01*
X193968704Y-41682372D01*
X193967630Y-41683842D01*
X193958958Y-41691685D01*
X193946394Y-41699082D01*
X193942097Y-41700949D01*
X193934300Y-41703714D01*
X193926760Y-41705354D01*
X193917724Y-41705865D01*
X193905438Y-41705245D01*
X193888151Y-41703490D01*
X193865963Y-41700828D01*
X193807851Y-41693661D01*
X193766215Y-41734569D01*
X193781201Y-41789929D01*
X193739991Y-41875789D01*
X193727957Y-41900735D01*
X193717035Y-41923136D01*
X193707788Y-41941855D01*
X193700781Y-41955753D01*
X193696579Y-41963694D01*
X193695721Y-41965058D01*
X193691143Y-41964687D01*
X193680843Y-41961809D01*
X193666906Y-41957187D01*
X193651421Y-41951583D01*
X193636474Y-41945761D01*
X193624153Y-41940482D01*
X193616543Y-41936511D01*
X193615570Y-41935764D01*
X193616812Y-41931874D01*
X193622278Y-41924795D01*
X193622462Y-41924591D01*
X193627881Y-41915360D01*
X193633486Y-41900377D01*
X193638241Y-41882497D01*
X193645346Y-41849912D01*
X193629231Y-41828764D01*
X193618925Y-41816167D01*
X193610365Y-41809607D01*
X193600703Y-41808178D01*
X193587093Y-41810975D01*
X193579915Y-41813071D01*
X193568676Y-41816108D01*
X193560371Y-41816583D01*
X193551745Y-41813991D01*
X193539546Y-41807829D01*
X193536909Y-41806403D01*
X193524948Y-41800576D01*
X193516549Y-41797729D01*
X193513634Y-41798349D01*
X193509524Y-41800744D01*
X193497617Y-41802284D01*
X193478547Y-41802893D01*
X193475906Y-41802900D01*
X193438178Y-41802900D01*
X193435396Y-41819365D01*
X193432882Y-41829791D01*
X193428183Y-41835684D01*
X193418687Y-41839677D01*
X193413857Y-41841082D01*
X193404835Y-41843824D01*
X193399095Y-41847084D01*
X193396165Y-41852508D01*
X193395574Y-41861737D01*
X193396847Y-41876416D01*
X193398889Y-41893157D01*
X193400358Y-41907208D01*
X193399814Y-41915797D01*
X193396470Y-41921839D01*
X193389541Y-41928250D01*
X193389395Y-41928373D01*
X193377178Y-41935941D01*
X193366914Y-41936460D01*
X193359448Y-41935938D01*
X193357089Y-41940987D01*
X193357008Y-41943578D01*
X193356386Y-41948952D01*
X193353165Y-41951654D01*
X193345332Y-41952369D01*
X193332667Y-41951882D01*
X193308317Y-41950580D01*
X193284545Y-41988710D01*
X193263483Y-41986215D01*
X193249770Y-41985266D01*
X193240879Y-41987014D01*
X193233389Y-41992220D01*
X193232420Y-41993115D01*
X193224377Y-41999187D01*
X193216221Y-42000278D01*
X193207255Y-41998322D01*
X193193932Y-41996459D01*
X193180940Y-41997509D01*
X193170482Y-42000867D01*
X193164761Y-42005925D01*
X193164703Y-42010035D01*
X193169219Y-42022704D01*
X193169430Y-42029416D01*
X193165351Y-42031494D01*
X193164958Y-42031500D01*
X193159005Y-42035272D01*
X193155644Y-42043142D01*
X193153138Y-42053784D01*
X193151369Y-42060320D01*
X193152130Y-42067195D01*
X193156062Y-42078075D01*
X193158467Y-42083149D01*
X193163547Y-42093530D01*
X193164736Y-42098035D01*
X193162147Y-42098245D01*
X193159486Y-42097240D01*
X193146714Y-42092539D01*
X193139811Y-42091842D01*
X193137134Y-42095250D01*
X193136867Y-42098635D01*
X193135835Y-42104630D01*
X193131097Y-42105087D01*
X193126008Y-42103362D01*
X193114948Y-42099852D01*
X193109276Y-42100738D01*
X193106814Y-42106620D01*
X193106470Y-42108758D01*
X193104808Y-42114387D01*
X193100408Y-42116990D01*
X193090984Y-42117411D01*
X193083950Y-42117083D01*
X193067483Y-42115836D01*
X193051448Y-42114143D01*
X193046789Y-42113515D01*
X193030794Y-42111148D01*
X193041318Y-42134945D01*
X193046615Y-42148558D01*
X193049657Y-42159679D01*
X193049904Y-42164971D01*
X193046821Y-42174824D01*
X193045871Y-42177844D01*
X193043639Y-42180657D01*
X193038601Y-42180349D01*
X193029237Y-42176501D01*
X193015317Y-42169377D01*
X192991633Y-42158840D01*
X192971397Y-42153961D01*
X192955417Y-42154788D01*
X192944503Y-42161372D01*
X192942134Y-42164850D01*
X192936856Y-42172540D01*
X192932778Y-42175433D01*
X192927327Y-42173645D01*
X192916776Y-42168985D01*
X192904919Y-42163211D01*
X192880250Y-42153619D01*
X192847514Y-42145677D01*
X192834476Y-42143346D01*
X192788202Y-42135702D01*
X192727440Y-42081487D01*
X192704237Y-42060839D01*
X192686248Y-42045089D01*
X192672388Y-42033471D01*
X192661572Y-42025224D01*
X192652718Y-42019585D01*
X192644741Y-42015789D01*
X192636558Y-42013075D01*
X192627083Y-42010678D01*
X192626750Y-42010599D01*
X192608222Y-42003712D01*
X192591025Y-41991378D01*
X192586534Y-41987212D01*
X192573910Y-41976913D01*
X192558104Y-41966712D01*
X192540771Y-41957346D01*
X192523564Y-41949548D01*
X192508139Y-41944056D01*
X192496151Y-41941604D01*
X192489253Y-41942927D01*
X192488638Y-41943697D01*
X192484172Y-41947990D01*
X192476298Y-41947835D01*
X192471165Y-41946527D01*
X192461616Y-41943871D01*
X192456535Y-41942615D01*
X192456387Y-41942600D01*
X192455910Y-41946519D01*
X192455540Y-41957023D01*
X192455329Y-41972230D01*
X192455300Y-41980985D01*
X192455166Y-41999094D01*
X192454547Y-42010223D01*
X192453123Y-42015858D01*
X192450573Y-42017484D01*
X192447534Y-42016906D01*
X192441012Y-42017403D01*
X192434703Y-42024290D01*
X192431659Y-42029530D01*
X192424308Y-42040038D01*
X192417342Y-42042906D01*
X192416142Y-42042689D01*
X192410846Y-42041621D01*
X192409310Y-42043327D01*
X192411499Y-42049551D01*
X192415810Y-42058751D01*
X192420079Y-42068598D01*
X192420054Y-42074378D01*
X192415167Y-42079626D01*
X192412068Y-42082099D01*
X192403468Y-42091635D01*
X192395789Y-42104538D01*
X192394443Y-42107621D01*
X192389466Y-42118347D01*
X192383978Y-42123256D01*
X192374880Y-42124593D01*
X192370945Y-42124633D01*
X192360647Y-42123220D01*
X192344549Y-42119361D01*
X192324761Y-42113626D01*
X192303395Y-42106585D01*
X192300950Y-42105724D01*
X192278536Y-42097951D01*
X192262525Y-42092938D01*
X192251441Y-42090356D01*
X192243804Y-42089878D01*
X192238134Y-42091174D01*
X192237207Y-42091572D01*
X192230239Y-42096053D01*
X192230549Y-42100767D01*
X192231485Y-42102014D01*
X192234411Y-42109628D01*
X192229507Y-42115409D01*
X192217266Y-42119089D01*
X192198180Y-42120400D01*
X192197880Y-42120400D01*
X192181401Y-42119849D01*
X192170640Y-42117752D01*
X192162895Y-42113441D01*
X192160194Y-42111097D01*
X192150291Y-42101794D01*
X192141339Y-42110747D01*
X192134847Y-42116372D01*
X192129041Y-42117290D01*
X192120140Y-42113854D01*
X192118150Y-42112911D01*
X192108203Y-42108806D01*
X192101289Y-42109104D01*
X192092976Y-42114216D01*
X192091395Y-42115378D01*
X192082639Y-42121436D01*
X192075742Y-42123893D01*
X192067792Y-42122808D01*
X192055877Y-42118240D01*
X192051094Y-42116199D01*
X192038815Y-42111376D01*
X192030713Y-42110067D01*
X192023361Y-42112067D01*
X192018852Y-42114265D01*
X192013053Y-42116820D01*
X192006749Y-42118111D01*
X191998280Y-42118042D01*
X191985985Y-42116516D01*
X191968203Y-42113435D01*
X191951904Y-42110360D01*
X191897524Y-42099956D01*
X191844841Y-42116589D01*
X191823199Y-42123527D01*
X191808120Y-42128829D01*
X191798068Y-42133315D01*
X191791503Y-42137805D01*
X191786887Y-42143120D01*
X191782946Y-42149612D01*
X191775729Y-42168690D01*
X191773734Y-42184507D01*
X191773132Y-42195925D01*
X191770038Y-42203260D01*
X191762517Y-42209629D01*
X191755359Y-42214110D01*
X191742166Y-42220918D01*
X191733319Y-42222390D01*
X191729865Y-42221225D01*
X191724355Y-42220041D01*
X191719856Y-42224854D01*
X191716921Y-42231096D01*
X191707620Y-42244010D01*
X191696910Y-42249727D01*
X191690313Y-42251507D01*
X191683887Y-42251610D01*
X191675938Y-42249496D01*
X191664772Y-42244628D01*
X191648694Y-42236466D01*
X191638793Y-42231251D01*
X191594861Y-42207999D01*
X191539306Y-42221012D01*
X191483750Y-42234024D01*
X191472208Y-42223082D01*
X191460666Y-42212139D01*
X191451441Y-42223866D01*
X191446858Y-42229249D01*
X191442185Y-42232487D01*
X191435784Y-42233600D01*
X191426019Y-42232608D01*
X191411252Y-42229532D01*
X191390747Y-42224611D01*
X191377045Y-42221344D01*
X191370448Y-42220235D01*
X191369838Y-42221424D01*
X191374098Y-42225050D01*
X191375931Y-42226459D01*
X191385249Y-42231819D01*
X191399590Y-42238100D01*
X191416723Y-42244551D01*
X191434420Y-42250418D01*
X191450451Y-42254950D01*
X191462586Y-42257395D01*
X191467714Y-42257426D01*
X191477128Y-42258179D01*
X191482719Y-42260955D01*
X191487583Y-42266711D01*
X191487507Y-42275127D01*
X191486337Y-42279696D01*
X191484293Y-42288581D01*
X191485901Y-42291506D01*
X191490609Y-42290827D01*
X191498464Y-42287339D01*
X191501000Y-42284989D01*
X191506676Y-42281869D01*
X191511517Y-42281266D01*
X191517243Y-42283062D01*
X191519511Y-42289904D01*
X191519734Y-42295827D01*
X191520169Y-42302235D01*
X191522243Y-42307784D01*
X191527111Y-42313665D01*
X191535929Y-42321071D01*
X191549851Y-42331194D01*
X191562659Y-42340124D01*
X191585496Y-42355267D01*
X191605347Y-42366556D01*
X191625610Y-42375702D01*
X191649682Y-42384415D01*
X191652618Y-42385390D01*
X191680954Y-42395173D01*
X191701587Y-42403318D01*
X191715064Y-42410084D01*
X191721934Y-42415730D01*
X191723112Y-42418704D01*
X191727126Y-42423350D01*
X191738203Y-42430068D01*
X191755317Y-42438425D01*
X191777445Y-42447986D01*
X191803561Y-42458318D01*
X191832641Y-42468989D01*
X191863659Y-42479563D01*
X191877453Y-42484009D01*
X191903203Y-42492344D01*
X191934923Y-42502903D01*
X191970628Y-42515010D01*
X192008335Y-42527985D01*
X192046059Y-42541152D01*
X192081816Y-42553832D01*
X192081960Y-42553884D01*
X192118257Y-42566954D01*
X192147832Y-42577836D01*
X192171977Y-42587087D01*
X192191979Y-42595264D01*
X192209127Y-42602925D01*
X192224710Y-42610626D01*
X192240017Y-42618926D01*
X192256337Y-42628380D01*
X192261875Y-42631676D01*
X192284746Y-42645227D01*
X192308334Y-42659000D01*
X192330188Y-42671576D01*
X192347856Y-42681536D01*
X192351292Y-42683429D01*
X192367366Y-42693166D01*
X192387485Y-42706748D01*
X192409271Y-42722500D01*
X192430347Y-42738747D01*
X192433842Y-42741563D01*
X192456634Y-42760028D01*
X192482855Y-42781210D01*
X192509319Y-42802541D01*
X192532843Y-42821450D01*
X192533617Y-42822072D01*
X192568182Y-42850137D01*
X192596648Y-42874047D01*
X192619825Y-42894543D01*
X192638520Y-42912366D01*
X192653544Y-42928256D01*
X192665705Y-42942954D01*
X192665922Y-42943236D01*
X192675554Y-42955298D01*
X192689407Y-42971928D01*
X192706027Y-42991414D01*
X192723956Y-43012041D01*
X192735626Y-43025254D01*
X192751772Y-43043724D01*
X192765740Y-43060309D01*
X192776616Y-43073876D01*
X192783488Y-43083290D01*
X192785500Y-43087203D01*
X192788453Y-43093075D01*
X192796072Y-43102060D01*
X192803492Y-43109258D01*
X192814148Y-43119593D01*
X192828035Y-43134103D01*
X192842957Y-43150462D01*
X192851117Y-43159759D01*
X192867724Y-43178281D01*
X192886640Y-43198285D01*
X192904667Y-43216423D01*
X192910893Y-43222385D01*
X192925279Y-43236429D01*
X192938353Y-43250137D01*
X192948088Y-43261345D01*
X192950894Y-43265077D01*
X192961306Y-43276321D01*
X192974718Y-43286106D01*
X192977902Y-43287805D01*
X192991462Y-43295628D01*
X193006558Y-43306090D01*
X193013443Y-43311522D01*
X193024894Y-43320037D01*
X193034835Y-43325621D01*
X193039362Y-43326900D01*
X193046172Y-43330004D01*
X193056270Y-43338160D01*
X193067883Y-43349631D01*
X193079235Y-43362684D01*
X193087576Y-43374061D01*
X193094895Y-43382573D01*
X193106127Y-43392915D01*
X193113528Y-43398824D01*
X193123995Y-43407407D01*
X193130939Y-43414519D01*
X193132642Y-43417645D01*
X193136014Y-43422082D01*
X193146086Y-43431582D01*
X193162808Y-43446102D01*
X193186126Y-43465597D01*
X193215989Y-43490026D01*
X193252344Y-43519344D01*
X193295139Y-43553507D01*
X193314667Y-43569010D01*
X193355761Y-43601901D01*
X193390567Y-43630516D01*
X193419711Y-43655465D01*
X193443819Y-43677360D01*
X193463516Y-43696813D01*
X193479427Y-43714435D01*
X193492178Y-43730838D01*
X193502395Y-43746633D01*
X193509106Y-43759127D01*
X193515282Y-43767930D01*
X193524163Y-43771159D01*
X193529695Y-43771400D01*
X193539383Y-43771957D01*
X193542812Y-43775275D01*
X193542184Y-43783823D01*
X193541967Y-43785158D01*
X193542602Y-43797433D01*
X193546994Y-43812204D01*
X193553874Y-43826819D01*
X193561974Y-43838627D01*
X193570024Y-43844974D01*
X193570687Y-43845183D01*
X193579409Y-43846424D01*
X193593241Y-43847282D01*
X193605709Y-43847542D01*
X193632167Y-43847600D01*
X193632167Y-44520174D01*
X193650824Y-44533572D01*
X193663531Y-44544311D01*
X193670863Y-44555534D01*
X193674212Y-44565758D01*
X193679001Y-44579677D01*
X193685700Y-44586342D01*
X193696366Y-44586963D01*
X193706402Y-44584698D01*
X193717383Y-44582527D01*
X193725731Y-44584210D01*
X193735683Y-44590687D01*
X193736629Y-44591406D01*
X193747845Y-44602133D01*
X193758733Y-44615894D01*
X193761938Y-44620918D01*
X193772756Y-44639378D01*
X193799463Y-44636642D01*
X193826170Y-44633905D01*
X193834894Y-44651005D01*
X193840741Y-44660825D01*
X193847689Y-44667370D01*
X193858344Y-44672530D01*
X193870184Y-44676578D01*
X193885927Y-44681430D01*
X193900004Y-44685480D01*
X193908025Y-44687531D01*
X193917266Y-44691770D01*
X193929207Y-44700082D01*
X193937658Y-44707356D01*
X193950419Y-44719017D01*
X193963116Y-44729999D01*
X193969336Y-44735051D01*
X193981544Y-44749354D01*
X193985526Y-44761108D01*
X193991314Y-44776109D01*
X194002064Y-44790934D01*
X194002866Y-44791777D01*
X194011466Y-44801394D01*
X194014947Y-44808533D01*
X194014444Y-44816422D01*
X194013202Y-44821146D01*
X194011390Y-44830331D01*
X194012579Y-44838599D01*
X194017538Y-44848969D01*
X194022352Y-44856985D01*
X194035629Y-44878051D01*
X194046004Y-44893351D01*
X194054795Y-44904461D01*
X194063319Y-44912954D01*
X194072896Y-44920406D01*
X194078871Y-44924485D01*
X194092425Y-44934402D01*
X194100074Y-44942820D01*
X194103599Y-44951798D01*
X194103905Y-44953462D01*
X194105899Y-44965477D01*
X194108608Y-44981539D01*
X194110465Y-44992436D01*
X194112658Y-45010113D01*
X194114120Y-45031357D01*
X194114523Y-45049586D01*
X194112811Y-45074351D01*
X194107604Y-45092316D01*
X194098145Y-45104691D01*
X194083675Y-45112687D01*
X194073142Y-45115694D01*
X194052921Y-45118467D01*
X194035555Y-45116457D01*
X194034622Y-45116214D01*
X194024090Y-45114221D01*
X194015745Y-45115372D01*
X194008375Y-45120726D01*
X194000767Y-45131346D01*
X193991708Y-45148292D01*
X193987050Y-45157817D01*
X193977402Y-45176141D01*
X193966602Y-45194080D01*
X193956688Y-45208294D01*
X193954901Y-45210503D01*
X193940402Y-45228008D01*
X193930587Y-45240865D01*
X193924552Y-45250782D01*
X193921388Y-45259469D01*
X193920189Y-45268635D01*
X193920034Y-45276230D01*
X193920514Y-45287882D01*
X193922597Y-45297683D01*
X193927245Y-45307582D01*
X193935421Y-45319527D01*
X193948087Y-45335467D01*
X193951108Y-45339142D01*
X193963286Y-45356597D01*
X193969909Y-45373738D01*
X193971387Y-45381178D01*
X193975135Y-45396457D01*
X193982091Y-45408972D01*
X193992414Y-45420705D01*
X194010031Y-45438655D01*
X194007882Y-45476036D01*
X194007398Y-45495969D01*
X194008039Y-45515413D01*
X194009662Y-45530833D01*
X194010195Y-45533605D01*
X194012488Y-45547882D01*
X194011379Y-45558788D01*
X194007093Y-45569589D01*
X194002364Y-45583051D01*
X193998583Y-45600124D01*
X193997267Y-45610014D01*
X193996257Y-45624043D01*
X193997194Y-45632723D01*
X194001140Y-45639122D01*
X194009160Y-45646310D01*
X194010121Y-45647103D01*
X194025198Y-45661915D01*
X194035919Y-45677284D01*
X194041208Y-45691387D01*
X194041111Y-45699488D01*
X194036673Y-45709517D01*
X194029144Y-45720774D01*
X194027985Y-45722193D01*
X194019430Y-45737211D01*
X194017401Y-45752074D01*
X194016653Y-45765569D01*
X194014711Y-45783163D01*
X194012479Y-45798075D01*
X194010001Y-45816636D01*
X194010054Y-45832322D01*
X194012774Y-45849829D01*
X194014181Y-45856362D01*
X194018800Y-45889832D01*
X194018783Y-45924050D01*
X194018132Y-45945238D01*
X194019126Y-45962080D01*
X194022250Y-45978616D01*
X194027665Y-45997821D01*
X194032721Y-46016171D01*
X194036532Y-46033439D01*
X194038454Y-46046598D01*
X194038567Y-46049224D01*
X194038290Y-46055287D01*
X194036808Y-46060582D01*
X194033144Y-46066118D01*
X194026321Y-46072906D01*
X194015362Y-46081954D01*
X193999290Y-46094272D01*
X193983523Y-46106091D01*
X193955649Y-46127550D01*
X193934260Y-46145580D01*
X193918532Y-46161035D01*
X193907646Y-46174768D01*
X193900781Y-46187631D01*
X193898482Y-46194422D01*
X193894805Y-46203885D01*
X193888697Y-46208782D01*
X193877154Y-46211513D01*
X193877050Y-46211529D01*
X193860984Y-46216882D01*
X193843982Y-46228494D01*
X193839178Y-46232659D01*
X193828353Y-46241813D01*
X193818689Y-46247919D01*
X193807461Y-46252159D01*
X193791944Y-46255713D01*
X193781568Y-46257631D01*
X193759952Y-46261189D01*
X193737011Y-46264498D01*
X193717216Y-46266917D01*
X193714717Y-46267172D01*
X193690679Y-46270361D01*
X193673856Y-46274818D01*
X193663022Y-46281119D01*
X193656953Y-46289840D01*
X193655356Y-46295132D01*
X193649181Y-46314481D01*
X193638560Y-46333944D01*
X193622523Y-46355027D01*
X193603606Y-46375661D01*
X193588406Y-46390853D01*
X193577054Y-46400838D01*
X193567871Y-46406823D01*
X193559176Y-46410014D01*
X193554464Y-46410942D01*
X193541119Y-46414215D01*
X193521990Y-46420434D01*
X193498914Y-46428857D01*
X193473728Y-46438742D01*
X193448269Y-46449348D01*
X193424374Y-46459933D01*
X193403881Y-46469756D01*
X193389544Y-46477521D01*
X193373600Y-46487709D01*
X193362871Y-46496811D01*
X193354890Y-46507302D01*
X193348794Y-46518421D01*
X193341745Y-46533842D01*
X193336069Y-46548738D01*
X193333703Y-46556933D01*
X193328630Y-46570241D01*
X193320417Y-46583250D01*
X193319251Y-46584641D01*
X193310557Y-46598765D01*
X193303083Y-46620144D01*
X193300066Y-46632189D01*
X193296330Y-46647833D01*
X193292686Y-46659134D01*
X193287768Y-46668323D01*
X193280204Y-46677634D01*
X193268628Y-46689300D01*
X193259966Y-46697614D01*
X193243242Y-46713159D01*
X193221467Y-46732733D01*
X193196155Y-46755018D01*
X193168822Y-46778697D01*
X193140981Y-46802453D01*
X193114149Y-46824969D01*
X193101651Y-46835295D01*
X193075891Y-46852315D01*
X193042738Y-46867037D01*
X193001795Y-46879633D01*
X192995050Y-46881327D01*
X192972556Y-46887187D01*
X192956348Y-46892736D01*
X192944396Y-46899244D01*
X192934667Y-46907980D01*
X192925131Y-46920214D01*
X192919432Y-46928592D01*
X192909793Y-46942502D01*
X192896429Y-46960984D01*
X192880865Y-46981966D01*
X192864627Y-47003379D01*
X192858709Y-47011053D01*
X192839832Y-47036088D01*
X192825544Y-47056818D01*
X192814663Y-47075135D01*
X192806012Y-47092931D01*
X192802664Y-47100942D01*
X192788077Y-47137348D01*
X192793318Y-47178399D01*
X192795638Y-47199582D01*
X192797929Y-47225694D01*
X192799906Y-47253199D01*
X192801139Y-47275309D01*
X192803719Y-47331169D01*
X192789860Y-47346953D01*
X192782631Y-47355667D01*
X192778671Y-47362969D01*
X192777242Y-47371729D01*
X192777606Y-47384816D01*
X192778133Y-47392525D01*
X192778193Y-47419616D01*
X192774370Y-47439016D01*
X192771257Y-47449908D01*
X192770539Y-47457117D01*
X192770964Y-47458208D01*
X192775417Y-47458462D01*
X192788096Y-47458704D01*
X192808762Y-47458936D01*
X192837174Y-47459155D01*
X192873093Y-47459363D01*
X192916277Y-47459559D01*
X192966487Y-47459743D01*
X193023482Y-47459915D01*
X193087023Y-47460074D01*
X193156870Y-47460221D01*
X193232781Y-47460356D01*
X193314518Y-47460478D01*
X193401839Y-47460587D01*
X193494506Y-47460683D01*
X193592277Y-47460766D01*
X193694912Y-47460836D01*
X193802172Y-47460893D01*
X193913816Y-47460936D01*
X194029604Y-47460965D01*
X194149296Y-47460981D01*
X194272651Y-47460983D01*
X194399430Y-47460971D01*
X194529393Y-47460944D01*
X194662299Y-47460904D01*
X194797908Y-47460849D01*
X194935980Y-47460780D01*
X195076275Y-47460696D01*
X195218553Y-47460597D01*
X195362573Y-47460483D01*
X195508096Y-47460354D01*
X195654881Y-47460210D01*
X195802688Y-47460051D01*
X195907609Y-47459929D01*
X197004068Y-47458617D01*
X197004043Y-46437333D01*
X197004017Y-45416050D01*
X197022489Y-45381753D01*
X197040961Y-45347457D01*
X197085989Y-45323837D01*
X197108880Y-45312337D01*
X197126922Y-45304628D01*
X197142360Y-45299881D01*
X197157441Y-45297267D01*
X197158221Y-45297178D01*
X197171772Y-45295173D01*
X197182489Y-45291828D01*
X197191428Y-45286008D01*
X197199642Y-45276580D01*
X197208187Y-45262409D01*
X197218117Y-45242361D01*
X197226816Y-45223433D01*
X197248335Y-45181402D01*
X197272013Y-45145087D01*
X197275798Y-45140107D01*
X197297017Y-45109563D01*
X197310752Y-45081969D01*
X197317223Y-45056769D01*
X197317143Y-45036543D01*
X197314492Y-45016869D01*
X197251779Y-44973743D01*
X197230731Y-44959044D01*
X197211461Y-44945169D01*
X197195345Y-44933140D01*
X197183757Y-44923979D01*
X197178605Y-44919333D01*
X197167686Y-44906228D01*
X197154900Y-44888846D01*
X197141457Y-44869077D01*
X197128565Y-44848809D01*
X197117435Y-44829933D01*
X197109275Y-44814336D01*
X197105661Y-44805366D01*
X197102230Y-44789680D01*
X197099158Y-44768595D01*
X197096607Y-44744371D01*
X197094744Y-44719269D01*
X197093733Y-44695547D01*
X197093738Y-44675465D01*
X197094925Y-44661283D01*
X197095090Y-44660400D01*
X197098489Y-44631449D01*
X197098520Y-44597920D01*
X197095295Y-44562954D01*
X197090637Y-44536897D01*
X197082006Y-44498150D01*
X197091299Y-44453333D01*
X197095667Y-44434475D01*
X197100213Y-44418514D01*
X197104326Y-44407417D01*
X197106795Y-44403440D01*
X197110358Y-44398088D01*
X197111284Y-44388697D01*
X197110105Y-44375224D01*
X197109300Y-44355038D01*
X197111481Y-44336434D01*
X197112044Y-44334148D01*
X197114123Y-44322370D01*
X197115903Y-44304811D01*
X197117155Y-44284156D01*
X197117595Y-44269231D01*
X197118317Y-44222250D01*
X197137562Y-44209550D01*
X197151828Y-44197977D01*
X197162012Y-44183635D01*
X197166818Y-44173566D01*
X197175001Y-44157612D01*
X197184942Y-44142363D01*
X197190552Y-44135466D01*
X197201448Y-44119971D01*
X197208472Y-44100141D01*
X197209572Y-44095250D01*
X197213818Y-44078975D01*
X197219125Y-44064036D01*
X197222685Y-44056650D01*
X197228585Y-44040413D01*
X197230500Y-44021447D01*
X197231308Y-44007139D01*
X197233365Y-43995362D01*
X197234802Y-43991406D01*
X197237558Y-43983519D01*
X197240954Y-43969931D01*
X197244337Y-43953307D01*
X197244948Y-43949892D01*
X197249352Y-43929251D01*
X197254884Y-43910007D01*
X197260909Y-43893828D01*
X197266794Y-43882381D01*
X197271902Y-43877335D01*
X197272594Y-43877233D01*
X197274684Y-43873451D01*
X197275547Y-43863691D01*
X197275297Y-43850338D01*
X197274050Y-43835774D01*
X197271922Y-43822382D01*
X197269519Y-43813733D01*
X197267393Y-43802157D01*
X197266870Y-43783761D01*
X197267874Y-43760021D01*
X197270329Y-43732417D01*
X197274161Y-43702427D01*
X197275747Y-43692051D01*
X197278771Y-43672495D01*
X197280354Y-43659475D01*
X197280462Y-43651177D01*
X197279064Y-43645790D01*
X197276127Y-43641501D01*
X197274826Y-43640029D01*
X197270468Y-43632700D01*
X197267284Y-43620841D01*
X197264911Y-43602846D01*
X197264015Y-43592378D01*
X197262156Y-43573101D01*
X197259766Y-43555318D01*
X197257262Y-43541956D01*
X197256372Y-43538664D01*
X197253507Y-43523194D01*
X197257036Y-43511522D01*
X197267802Y-43501046D01*
X197268851Y-43500288D01*
X197277212Y-43492099D01*
X197281236Y-43483764D01*
X197281300Y-43482849D01*
X197284878Y-43474723D01*
X197289468Y-43472138D01*
X197293501Y-43470089D01*
X197296110Y-43465357D01*
X197297720Y-43456225D01*
X197298756Y-43440981D01*
X197299083Y-43433376D01*
X197299535Y-43416357D01*
X197299493Y-43402541D01*
X197298980Y-43394137D01*
X197298668Y-43392823D01*
X197298015Y-43387243D01*
X197297650Y-43375053D01*
X197297600Y-43358106D01*
X197297853Y-43340144D01*
X197298667Y-43316697D01*
X197300127Y-43299732D01*
X197302520Y-43287268D01*
X197306132Y-43277328D01*
X197307325Y-43274875D01*
X197312314Y-43264204D01*
X197313304Y-43257811D01*
X197310498Y-43252623D01*
X197308928Y-43250822D01*
X197302130Y-43237751D01*
X197299656Y-43220381D01*
X197301337Y-43201591D01*
X197307007Y-43184257D01*
X197313372Y-43174403D01*
X197316587Y-43165859D01*
X197315069Y-43161703D01*
X197313273Y-43154069D01*
X197313051Y-43141597D01*
X197313667Y-43133924D01*
X197314200Y-43116236D01*
X197312600Y-43097005D01*
X197311403Y-43090178D01*
X197309261Y-43076796D01*
X197308924Y-43066522D01*
X197309739Y-43063021D01*
X197311947Y-43054572D01*
X197311783Y-43051637D01*
X197312538Y-43044401D01*
X197315568Y-43032144D01*
X197319316Y-43020230D01*
X197323883Y-43006039D01*
X197325525Y-42997084D01*
X197324411Y-42990723D01*
X197321535Y-42985550D01*
X197315684Y-42970987D01*
X197315586Y-42956082D01*
X197320972Y-42943650D01*
X197325968Y-42939018D01*
X197333090Y-42932658D01*
X197332466Y-42927643D01*
X197332318Y-42927491D01*
X197330321Y-42921477D01*
X197328787Y-42909215D01*
X197327953Y-42892919D01*
X197327867Y-42885508D01*
X197327363Y-42867531D01*
X197326019Y-42852022D01*
X197324087Y-42841510D01*
X197323271Y-42839389D01*
X197321147Y-42831713D01*
X197324986Y-42824236D01*
X197327504Y-42821403D01*
X197334776Y-42810424D01*
X197335723Y-42800797D01*
X197331514Y-42795254D01*
X197328755Y-42789221D01*
X197327719Y-42777167D01*
X197328189Y-42761313D01*
X197329951Y-42743878D01*
X197332786Y-42727084D01*
X197336480Y-42713151D01*
X197340308Y-42704964D01*
X197345379Y-42694825D01*
X197350679Y-42679417D01*
X197355163Y-42661841D01*
X197355647Y-42659477D01*
X197360216Y-42639626D01*
X197365883Y-42619385D01*
X197371430Y-42603110D01*
X197371474Y-42603000D01*
X197376733Y-42586795D01*
X197380150Y-42570620D01*
X197380863Y-42562649D01*
X197385094Y-42542094D01*
X197393598Y-42525235D01*
X197402531Y-42510585D01*
X197411132Y-42496153D01*
X197414651Y-42490100D01*
X197422039Y-42479430D01*
X197429512Y-42471897D01*
X197430835Y-42471039D01*
X197436052Y-42467003D01*
X197434357Y-42462253D01*
X197432143Y-42459685D01*
X197428630Y-42454576D01*
X197428023Y-42448362D01*
X197430354Y-42438276D01*
X197432446Y-42431493D01*
X197438816Y-42416250D01*
X197447114Y-42402246D01*
X197450741Y-42397683D01*
X197458203Y-42387288D01*
X197462705Y-42374448D01*
X197465160Y-42358484D01*
X197467825Y-42340163D01*
X197471613Y-42321639D01*
X197474211Y-42311917D01*
X197477790Y-42298815D01*
X197482200Y-42280432D01*
X197486729Y-42259811D01*
X197488833Y-42249516D01*
X197495051Y-42219911D01*
X197500896Y-42196632D01*
X197507094Y-42177609D01*
X197514371Y-42160771D01*
X197523450Y-42144051D01*
X197528968Y-42134968D01*
X197539067Y-42117772D01*
X197544944Y-42104699D01*
X197547572Y-42093190D01*
X197548000Y-42084899D01*
X197548851Y-42073372D01*
X197551007Y-42066358D01*
X197552383Y-42065367D01*
X197554594Y-42062759D01*
X197552368Y-42057150D01*
X197550494Y-42049790D01*
X197555418Y-42043751D01*
X197556784Y-42042761D01*
X197560501Y-42039679D01*
X197562862Y-42035599D01*
X197564033Y-42028923D01*
X197564178Y-42018055D01*
X197563463Y-42001394D01*
X197562598Y-41986419D01*
X197560675Y-41962585D01*
X197558101Y-41942775D01*
X197555130Y-41928727D01*
X197553400Y-41924046D01*
X197549723Y-41914593D01*
X197551163Y-41909531D01*
X197552234Y-41908733D01*
X197554684Y-41904369D01*
X197552171Y-41895974D01*
X197550225Y-41892009D01*
X197545713Y-41880005D01*
X197546555Y-41869056D01*
X197547659Y-41865561D01*
X197550086Y-41855493D01*
X197549766Y-41848906D01*
X197549702Y-41848795D01*
X197549780Y-41842463D01*
X197551346Y-41839756D01*
X197554725Y-41833037D01*
X197559095Y-41821168D01*
X197562086Y-41811550D01*
X197565731Y-41796530D01*
X197566042Y-41787273D01*
X197563978Y-41782698D01*
X197561700Y-41776272D01*
X197565038Y-41767138D01*
X197566257Y-41765003D01*
X197570653Y-41756301D01*
X197570243Y-41751182D01*
X197567006Y-41747829D01*
X197561932Y-41739613D01*
X197560700Y-41732781D01*
X197558865Y-41723887D01*
X197555988Y-41720054D01*
X197553092Y-41713928D01*
X197552508Y-41702573D01*
X197553900Y-41688801D01*
X197556931Y-41675424D01*
X197561267Y-41665255D01*
X197562774Y-41663248D01*
X197567589Y-41656231D01*
X197568134Y-41648345D01*
X197565815Y-41638841D01*
X197560757Y-41620608D01*
X197558517Y-41608813D01*
X197558992Y-41601950D01*
X197562079Y-41598509D01*
X197563030Y-41598087D01*
X197567248Y-41594336D01*
X197565116Y-41587341D01*
X197560965Y-41573164D01*
X197565000Y-41560444D01*
X197569110Y-41555310D01*
X197573388Y-41550347D01*
X197575294Y-41545554D01*
X197574837Y-41538620D01*
X197572025Y-41527232D01*
X197569248Y-41517433D01*
X197563254Y-41500108D01*
X197556809Y-41487509D01*
X197552372Y-41482480D01*
X197545709Y-41475559D01*
X197543767Y-41470343D01*
X197540524Y-41464881D01*
X197537905Y-41464233D01*
X197533606Y-41460309D01*
X197530272Y-41448356D01*
X197529010Y-41439891D01*
X197526710Y-41425283D01*
X197523995Y-41413419D01*
X197522230Y-41408528D01*
X197521651Y-41402456D01*
X197525605Y-41393225D01*
X197534713Y-41379472D01*
X197536677Y-41376778D01*
X197555263Y-41346008D01*
X197566850Y-41312949D01*
X197571507Y-41285143D01*
X197573547Y-41270656D01*
X197576512Y-41262349D01*
X197581404Y-41257935D01*
X197583906Y-41256829D01*
X197594599Y-41250578D01*
X197596950Y-41243068D01*
X197592865Y-41236091D01*
X197588295Y-41226660D01*
X197586325Y-41213645D01*
X197587032Y-41200590D01*
X197590492Y-41191036D01*
X197591865Y-41189553D01*
X197595662Y-41182799D01*
X197598951Y-41170884D01*
X197600195Y-41163099D01*
X197603197Y-41148170D01*
X197607865Y-41135133D01*
X197610306Y-41130826D01*
X197623530Y-41110302D01*
X197631572Y-41091933D01*
X197635569Y-41072243D01*
X197636651Y-41050425D01*
X197636900Y-41015500D01*
X195948076Y-41015500D01*
X195950743Y-40778433D01*
X195951299Y-40726441D01*
X195951699Y-40682322D01*
X195951934Y-40645482D01*
X195951999Y-40615329D01*
X195951885Y-40591269D01*
X195951585Y-40572710D01*
X195951091Y-40559059D01*
X195950397Y-40549722D01*
X195949495Y-40544108D01*
X195948376Y-40541622D01*
X195947779Y-40541367D01*
X195941788Y-40543285D01*
X195941788Y-40543285D01*
G37*
X195941788Y-40543285D02*
X195930357Y-40548434D01*
X195915430Y-40555905D01*
X195906524Y-40560627D01*
X195870902Y-40579888D01*
X195834210Y-40569093D01*
X195817279Y-40564281D01*
X195803144Y-40560573D01*
X195793980Y-40558528D01*
X195792084Y-40558299D01*
X195786658Y-40560550D01*
X195775796Y-40566692D01*
X195761033Y-40575809D01*
X195743903Y-40586983D01*
X195742484Y-40587933D01*
X195723170Y-40600311D01*
X195706482Y-40609894D01*
X195693894Y-40615887D01*
X195687592Y-40617567D01*
X195680244Y-40618124D01*
X195677422Y-40621194D01*
X195678389Y-40628877D01*
X195680679Y-40637262D01*
X195681543Y-40643797D01*
X195681221Y-40654095D01*
X195679592Y-40669034D01*
X195676540Y-40689490D01*
X195671946Y-40716342D01*
X195665691Y-40750467D01*
X195664673Y-40755892D01*
X195658322Y-40789223D01*
X195653123Y-40815294D01*
X195648796Y-40835187D01*
X195645060Y-40849985D01*
X195641634Y-40860772D01*
X195638237Y-40868630D01*
X195634587Y-40874643D01*
X195633487Y-40876138D01*
X195629709Y-40881947D01*
X195626101Y-40889681D01*
X195622382Y-40900367D01*
X195618268Y-40915033D01*
X195613476Y-40934705D01*
X195607724Y-40960410D01*
X195600730Y-40993175D01*
X195598971Y-41001558D01*
X195588142Y-41055921D01*
X195579949Y-41102980D01*
X195574403Y-41142610D01*
X195571516Y-41174688D01*
X195571301Y-41199087D01*
X195573770Y-41215685D01*
X195577508Y-41223071D01*
X195581253Y-41227827D01*
X195582968Y-41232998D01*
X195582684Y-41240756D01*
X195580435Y-41253272D01*
X195578124Y-41264114D01*
X195571745Y-41286193D01*
X195562432Y-41304180D01*
X195548922Y-41319411D01*
X195529953Y-41333220D01*
X195504261Y-41346943D01*
X195496276Y-41350684D01*
X195479485Y-41358924D01*
X195465772Y-41366667D01*
X195456895Y-41372860D01*
X195454514Y-41375657D01*
X195451365Y-41379203D01*
X195443583Y-41382042D01*
X195429852Y-41384510D01*
X195411152Y-41386709D01*
X195392205Y-41388575D01*
X195379823Y-41389324D01*
X195372151Y-41388739D01*
X195367336Y-41386607D01*
X195363523Y-41382711D01*
X195362189Y-41381026D01*
X195358167Y-41376603D01*
X195353220Y-41373726D01*
X195345575Y-41372062D01*
X195333459Y-41371273D01*
X195315097Y-41371024D01*
X195309272Y-41371007D01*
X195288924Y-41371093D01*
X195274475Y-41371811D01*
X195263362Y-41373698D01*
X195253017Y-41377293D01*
X195240875Y-41383135D01*
X195233704Y-41386869D01*
X195217938Y-41395563D01*
X195207594Y-41402907D01*
X195200393Y-41411070D01*
X195194059Y-41422224D01*
X195191877Y-41426706D01*
X195180463Y-41450587D01*
X195131273Y-41453431D01*
X195111181Y-41454640D01*
X195084974Y-41456287D01*
X195054981Y-41458221D01*
X195023533Y-41460292D01*
X194993184Y-41462334D01*
X194966306Y-41464148D01*
X194942062Y-41465747D01*
X194921808Y-41467048D01*
X194906900Y-41467962D01*
X194898694Y-41468403D01*
X194897766Y-41468430D01*
X194892672Y-41472010D01*
X194885204Y-41481627D01*
X194876591Y-41495656D01*
X194874966Y-41498613D01*
X194858683Y-41528760D01*
X194863158Y-41560647D01*
X194865282Y-41576997D01*
X194865821Y-41587202D01*
X194864512Y-41593476D01*
X194861092Y-41598036D01*
X194858441Y-41600424D01*
X194852271Y-41604520D01*
X194844361Y-41606578D01*
X194832367Y-41606927D01*
X194817500Y-41606145D01*
X194801789Y-41605073D01*
X194780076Y-41603594D01*
X194754808Y-41601875D01*
X194728430Y-41600081D01*
X194718017Y-41599374D01*
X194686525Y-41596881D01*
X194661543Y-41594016D01*
X194641115Y-41590483D01*
X194623286Y-41585988D01*
X194617611Y-41584233D01*
X194601636Y-41578876D01*
X194591264Y-41573924D01*
X194585141Y-41567450D01*
X194581913Y-41557527D01*
X194580227Y-41542227D01*
X194579403Y-41529850D01*
X194578257Y-41519796D01*
X194575030Y-41513803D01*
X194567567Y-41509547D01*
X194557150Y-41505848D01*
X194540266Y-41501482D01*
X194522623Y-41498797D01*
X194516555Y-41498439D01*
X194503736Y-41497414D01*
X194496568Y-41494148D01*
X194492717Y-41488422D01*
X194488426Y-41482927D01*
X194479958Y-41477792D01*
X194465831Y-41472284D01*
X194449928Y-41467255D01*
X194421452Y-41459700D01*
X194399400Y-41456196D01*
X194382766Y-41456729D01*
X194370547Y-41461284D01*
X194364841Y-41466023D01*
X194355206Y-41476279D01*
X194260703Y-41473843D01*
X194166200Y-41471408D01*
X194164825Y-41484955D01*
X194164152Y-41489390D01*
X194162497Y-41493275D01*
X194158914Y-41497170D01*
X194152458Y-41501635D01*
X194142182Y-41507230D01*
X194127142Y-41514513D01*
X194106392Y-41524044D01*
X194078987Y-41536383D01*
X194074551Y-41538373D01*
X193985651Y-41578243D01*
X193948859Y-41578388D01*
X193932099Y-41578795D01*
X193918849Y-41579757D01*
X193911169Y-41581097D01*
X193910113Y-41581708D01*
X193908368Y-41587491D01*
X193906191Y-41598496D01*
X193905197Y-41604667D01*
X193902236Y-41624451D01*
X193922777Y-41627225D01*
X193941802Y-41630178D01*
X193954230Y-41633571D01*
X193961904Y-41638496D01*
X193966667Y-41646047D01*
X193969720Y-41655054D01*
X193972717Y-41667351D01*
X193972464Y-41675274D01*
X193968704Y-41682372D01*
X193967630Y-41683842D01*
X193958958Y-41691685D01*
X193946394Y-41699082D01*
X193942097Y-41700949D01*
X193934300Y-41703714D01*
X193926760Y-41705354D01*
X193917724Y-41705865D01*
X193905438Y-41705245D01*
X193888151Y-41703490D01*
X193865963Y-41700828D01*
X193807851Y-41693661D01*
X193766215Y-41734569D01*
X193781201Y-41789929D01*
X193739991Y-41875789D01*
X193727957Y-41900735D01*
X193717035Y-41923136D01*
X193707788Y-41941855D01*
X193700781Y-41955753D01*
X193696579Y-41963694D01*
X193695721Y-41965058D01*
X193691143Y-41964687D01*
X193680843Y-41961809D01*
X193666906Y-41957187D01*
X193651421Y-41951583D01*
X193636474Y-41945761D01*
X193624153Y-41940482D01*
X193616543Y-41936511D01*
X193615570Y-41935764D01*
X193616812Y-41931874D01*
X193622278Y-41924795D01*
X193622462Y-41924591D01*
X193627881Y-41915360D01*
X193633486Y-41900377D01*
X193638241Y-41882497D01*
X193645346Y-41849912D01*
X193629231Y-41828764D01*
X193618925Y-41816167D01*
X193610365Y-41809607D01*
X193600703Y-41808178D01*
X193587093Y-41810975D01*
X193579915Y-41813071D01*
X193568676Y-41816108D01*
X193560371Y-41816583D01*
X193551745Y-41813991D01*
X193539546Y-41807829D01*
X193536909Y-41806403D01*
X193524948Y-41800576D01*
X193516549Y-41797729D01*
X193513634Y-41798349D01*
X193509524Y-41800744D01*
X193497617Y-41802284D01*
X193478547Y-41802893D01*
X193475906Y-41802900D01*
X193438178Y-41802900D01*
X193435396Y-41819365D01*
X193432882Y-41829791D01*
X193428183Y-41835684D01*
X193418687Y-41839677D01*
X193413857Y-41841082D01*
X193404835Y-41843824D01*
X193399095Y-41847084D01*
X193396165Y-41852508D01*
X193395574Y-41861737D01*
X193396847Y-41876416D01*
X193398889Y-41893157D01*
X193400358Y-41907208D01*
X193399814Y-41915797D01*
X193396470Y-41921839D01*
X193389541Y-41928250D01*
X193389395Y-41928373D01*
X193377178Y-41935941D01*
X193366914Y-41936460D01*
X193359448Y-41935938D01*
X193357089Y-41940987D01*
X193357008Y-41943578D01*
X193356386Y-41948952D01*
X193353165Y-41951654D01*
X193345332Y-41952369D01*
X193332667Y-41951882D01*
X193308317Y-41950580D01*
X193284545Y-41988710D01*
X193263483Y-41986215D01*
X193249770Y-41985266D01*
X193240879Y-41987014D01*
X193233389Y-41992220D01*
X193232420Y-41993115D01*
X193224377Y-41999187D01*
X193216221Y-42000278D01*
X193207255Y-41998322D01*
X193193932Y-41996459D01*
X193180940Y-41997509D01*
X193170482Y-42000867D01*
X193164761Y-42005925D01*
X193164703Y-42010035D01*
X193169219Y-42022704D01*
X193169430Y-42029416D01*
X193165351Y-42031494D01*
X193164958Y-42031500D01*
X193159005Y-42035272D01*
X193155644Y-42043142D01*
X193153138Y-42053784D01*
X193151369Y-42060320D01*
X193152130Y-42067195D01*
X193156062Y-42078075D01*
X193158467Y-42083149D01*
X193163547Y-42093530D01*
X193164736Y-42098035D01*
X193162147Y-42098245D01*
X193159486Y-42097240D01*
X193146714Y-42092539D01*
X193139811Y-42091842D01*
X193137134Y-42095250D01*
X193136867Y-42098635D01*
X193135835Y-42104630D01*
X193131097Y-42105087D01*
X193126008Y-42103362D01*
X193114948Y-42099852D01*
X193109276Y-42100738D01*
X193106814Y-42106620D01*
X193106470Y-42108758D01*
X193104808Y-42114387D01*
X193100408Y-42116990D01*
X193090984Y-42117411D01*
X193083950Y-42117083D01*
X193067483Y-42115836D01*
X193051448Y-42114143D01*
X193046789Y-42113515D01*
X193030794Y-42111148D01*
X193041318Y-42134945D01*
X193046615Y-42148558D01*
X193049657Y-42159679D01*
X193049904Y-42164971D01*
X193046821Y-42174824D01*
X193045871Y-42177844D01*
X193043639Y-42180657D01*
X193038601Y-42180349D01*
X193029237Y-42176501D01*
X193015317Y-42169377D01*
X192991633Y-42158840D01*
X192971397Y-42153961D01*
X192955417Y-42154788D01*
X192944503Y-42161372D01*
X192942134Y-42164850D01*
X192936856Y-42172540D01*
X192932778Y-42175433D01*
X192927327Y-42173645D01*
X192916776Y-42168985D01*
X192904919Y-42163211D01*
X192880250Y-42153619D01*
X192847514Y-42145677D01*
X192834476Y-42143346D01*
X192788202Y-42135702D01*
X192727440Y-42081487D01*
X192704237Y-42060839D01*
X192686248Y-42045089D01*
X192672388Y-42033471D01*
X192661572Y-42025224D01*
X192652718Y-42019585D01*
X192644741Y-42015789D01*
X192636558Y-42013075D01*
X192627083Y-42010678D01*
X192626750Y-42010599D01*
X192608222Y-42003712D01*
X192591025Y-41991378D01*
X192586534Y-41987212D01*
X192573910Y-41976913D01*
X192558104Y-41966712D01*
X192540771Y-41957346D01*
X192523564Y-41949548D01*
X192508139Y-41944056D01*
X192496151Y-41941604D01*
X192489253Y-41942927D01*
X192488638Y-41943697D01*
X192484172Y-41947990D01*
X192476298Y-41947835D01*
X192471165Y-41946527D01*
X192461616Y-41943871D01*
X192456535Y-41942615D01*
X192456387Y-41942600D01*
X192455910Y-41946519D01*
X192455540Y-41957023D01*
X192455329Y-41972230D01*
X192455300Y-41980985D01*
X192455166Y-41999094D01*
X192454547Y-42010223D01*
X192453123Y-42015858D01*
X192450573Y-42017484D01*
X192447534Y-42016906D01*
X192441012Y-42017403D01*
X192434703Y-42024290D01*
X192431659Y-42029530D01*
X192424308Y-42040038D01*
X192417342Y-42042906D01*
X192416142Y-42042689D01*
X192410846Y-42041621D01*
X192409310Y-42043327D01*
X192411499Y-42049551D01*
X192415810Y-42058751D01*
X192420079Y-42068598D01*
X192420054Y-42074378D01*
X192415167Y-42079626D01*
X192412068Y-42082099D01*
X192403468Y-42091635D01*
X192395789Y-42104538D01*
X192394443Y-42107621D01*
X192389466Y-42118347D01*
X192383978Y-42123256D01*
X192374880Y-42124593D01*
X192370945Y-42124633D01*
X192360647Y-42123220D01*
X192344549Y-42119361D01*
X192324761Y-42113626D01*
X192303395Y-42106585D01*
X192300950Y-42105724D01*
X192278536Y-42097951D01*
X192262525Y-42092938D01*
X192251441Y-42090356D01*
X192243804Y-42089878D01*
X192238134Y-42091174D01*
X192237207Y-42091572D01*
X192230239Y-42096053D01*
X192230549Y-42100767D01*
X192231485Y-42102014D01*
X192234411Y-42109628D01*
X192229507Y-42115409D01*
X192217266Y-42119089D01*
X192198180Y-42120400D01*
X192197880Y-42120400D01*
X192181401Y-42119849D01*
X192170640Y-42117752D01*
X192162895Y-42113441D01*
X192160194Y-42111097D01*
X192150291Y-42101794D01*
X192141339Y-42110747D01*
X192134847Y-42116372D01*
X192129041Y-42117290D01*
X192120140Y-42113854D01*
X192118150Y-42112911D01*
X192108203Y-42108806D01*
X192101289Y-42109104D01*
X192092976Y-42114216D01*
X192091395Y-42115378D01*
X192082639Y-42121436D01*
X192075742Y-42123893D01*
X192067792Y-42122808D01*
X192055877Y-42118240D01*
X192051094Y-42116199D01*
X192038815Y-42111376D01*
X192030713Y-42110067D01*
X192023361Y-42112067D01*
X192018852Y-42114265D01*
X192013053Y-42116820D01*
X192006749Y-42118111D01*
X191998280Y-42118042D01*
X191985985Y-42116516D01*
X191968203Y-42113435D01*
X191951904Y-42110360D01*
X191897524Y-42099956D01*
X191844841Y-42116589D01*
X191823199Y-42123527D01*
X191808120Y-42128829D01*
X191798068Y-42133315D01*
X191791503Y-42137805D01*
X191786887Y-42143120D01*
X191782946Y-42149612D01*
X191775729Y-42168690D01*
X191773734Y-42184507D01*
X191773132Y-42195925D01*
X191770038Y-42203260D01*
X191762517Y-42209629D01*
X191755359Y-42214110D01*
X191742166Y-42220918D01*
X191733319Y-42222390D01*
X191729865Y-42221225D01*
X191724355Y-42220041D01*
X191719856Y-42224854D01*
X191716921Y-42231096D01*
X191707620Y-42244010D01*
X191696910Y-42249727D01*
X191690313Y-42251507D01*
X191683887Y-42251610D01*
X191675938Y-42249496D01*
X191664772Y-42244628D01*
X191648694Y-42236466D01*
X191638793Y-42231251D01*
X191594861Y-42207999D01*
X191539306Y-42221012D01*
X191483750Y-42234024D01*
X191472208Y-42223082D01*
X191460666Y-42212139D01*
X191451441Y-42223866D01*
X191446858Y-42229249D01*
X191442185Y-42232487D01*
X191435784Y-42233600D01*
X191426019Y-42232608D01*
X191411252Y-42229532D01*
X191390747Y-42224611D01*
X191377045Y-42221344D01*
X191370448Y-42220235D01*
X191369838Y-42221424D01*
X191374098Y-42225050D01*
X191375931Y-42226459D01*
X191385249Y-42231819D01*
X191399590Y-42238100D01*
X191416723Y-42244551D01*
X191434420Y-42250418D01*
X191450451Y-42254950D01*
X191462586Y-42257395D01*
X191467714Y-42257426D01*
X191477128Y-42258179D01*
X191482719Y-42260955D01*
X191487583Y-42266711D01*
X191487507Y-42275127D01*
X191486337Y-42279696D01*
X191484293Y-42288581D01*
X191485901Y-42291506D01*
X191490609Y-42290827D01*
X191498464Y-42287339D01*
X191501000Y-42284989D01*
X191506676Y-42281869D01*
X191511517Y-42281266D01*
X191517243Y-42283062D01*
X191519511Y-42289904D01*
X191519734Y-42295827D01*
X191520169Y-42302235D01*
X191522243Y-42307784D01*
X191527111Y-42313665D01*
X191535929Y-42321071D01*
X191549851Y-42331194D01*
X191562659Y-42340124D01*
X191585496Y-42355267D01*
X191605347Y-42366556D01*
X191625610Y-42375702D01*
X191649682Y-42384415D01*
X191652618Y-42385390D01*
X191680954Y-42395173D01*
X191701587Y-42403318D01*
X191715064Y-42410084D01*
X191721934Y-42415730D01*
X191723112Y-42418704D01*
X191727126Y-42423350D01*
X191738203Y-42430068D01*
X191755317Y-42438425D01*
X191777445Y-42447986D01*
X191803561Y-42458318D01*
X191832641Y-42468989D01*
X191863659Y-42479563D01*
X191877453Y-42484009D01*
X191903203Y-42492344D01*
X191934923Y-42502903D01*
X191970628Y-42515010D01*
X192008335Y-42527985D01*
X192046059Y-42541152D01*
X192081816Y-42553832D01*
X192081960Y-42553884D01*
X192118257Y-42566954D01*
X192147832Y-42577836D01*
X192171977Y-42587087D01*
X192191979Y-42595264D01*
X192209127Y-42602925D01*
X192224710Y-42610626D01*
X192240017Y-42618926D01*
X192256337Y-42628380D01*
X192261875Y-42631676D01*
X192284746Y-42645227D01*
X192308334Y-42659000D01*
X192330188Y-42671576D01*
X192347856Y-42681536D01*
X192351292Y-42683429D01*
X192367366Y-42693166D01*
X192387485Y-42706748D01*
X192409271Y-42722500D01*
X192430347Y-42738747D01*
X192433842Y-42741563D01*
X192456634Y-42760028D01*
X192482855Y-42781210D01*
X192509319Y-42802541D01*
X192532843Y-42821450D01*
X192533617Y-42822072D01*
X192568182Y-42850137D01*
X192596648Y-42874047D01*
X192619825Y-42894543D01*
X192638520Y-42912366D01*
X192653544Y-42928256D01*
X192665705Y-42942954D01*
X192665922Y-42943236D01*
X192675554Y-42955298D01*
X192689407Y-42971928D01*
X192706027Y-42991414D01*
X192723956Y-43012041D01*
X192735626Y-43025254D01*
X192751772Y-43043724D01*
X192765740Y-43060309D01*
X192776616Y-43073876D01*
X192783488Y-43083290D01*
X192785500Y-43087203D01*
X192788453Y-43093075D01*
X192796072Y-43102060D01*
X192803492Y-43109258D01*
X192814148Y-43119593D01*
X192828035Y-43134103D01*
X192842957Y-43150462D01*
X192851117Y-43159759D01*
X192867724Y-43178281D01*
X192886640Y-43198285D01*
X192904667Y-43216423D01*
X192910893Y-43222385D01*
X192925279Y-43236429D01*
X192938353Y-43250137D01*
X192948088Y-43261345D01*
X192950894Y-43265077D01*
X192961306Y-43276321D01*
X192974718Y-43286106D01*
X192977902Y-43287805D01*
X192991462Y-43295628D01*
X193006558Y-43306090D01*
X193013443Y-43311522D01*
X193024894Y-43320037D01*
X193034835Y-43325621D01*
X193039362Y-43326900D01*
X193046172Y-43330004D01*
X193056270Y-43338160D01*
X193067883Y-43349631D01*
X193079235Y-43362684D01*
X193087576Y-43374061D01*
X193094895Y-43382573D01*
X193106127Y-43392915D01*
X193113528Y-43398824D01*
X193123995Y-43407407D01*
X193130939Y-43414519D01*
X193132642Y-43417645D01*
X193136014Y-43422082D01*
X193146086Y-43431582D01*
X193162808Y-43446102D01*
X193186126Y-43465597D01*
X193215989Y-43490026D01*
X193252344Y-43519344D01*
X193295139Y-43553507D01*
X193314667Y-43569010D01*
X193355761Y-43601901D01*
X193390567Y-43630516D01*
X193419711Y-43655465D01*
X193443819Y-43677360D01*
X193463516Y-43696813D01*
X193479427Y-43714435D01*
X193492178Y-43730838D01*
X193502395Y-43746633D01*
X193509106Y-43759127D01*
X193515282Y-43767930D01*
X193524163Y-43771159D01*
X193529695Y-43771400D01*
X193539383Y-43771957D01*
X193542812Y-43775275D01*
X193542184Y-43783823D01*
X193541967Y-43785158D01*
X193542602Y-43797433D01*
X193546994Y-43812204D01*
X193553874Y-43826819D01*
X193561974Y-43838627D01*
X193570024Y-43844974D01*
X193570687Y-43845183D01*
X193579409Y-43846424D01*
X193593241Y-43847282D01*
X193605709Y-43847542D01*
X193632167Y-43847600D01*
X193632167Y-44520174D01*
X193650824Y-44533572D01*
X193663531Y-44544311D01*
X193670863Y-44555534D01*
X193674212Y-44565758D01*
X193679001Y-44579677D01*
X193685700Y-44586342D01*
X193696366Y-44586963D01*
X193706402Y-44584698D01*
X193717383Y-44582527D01*
X193725731Y-44584210D01*
X193735683Y-44590687D01*
X193736629Y-44591406D01*
X193747845Y-44602133D01*
X193758733Y-44615894D01*
X193761938Y-44620918D01*
X193772756Y-44639378D01*
X193799463Y-44636642D01*
X193826170Y-44633905D01*
X193834894Y-44651005D01*
X193840741Y-44660825D01*
X193847689Y-44667370D01*
X193858344Y-44672530D01*
X193870184Y-44676578D01*
X193885927Y-44681430D01*
X193900004Y-44685480D01*
X193908025Y-44687531D01*
X193917266Y-44691770D01*
X193929207Y-44700082D01*
X193937658Y-44707356D01*
X193950419Y-44719017D01*
X193963116Y-44729999D01*
X193969336Y-44735051D01*
X193981544Y-44749354D01*
X193985526Y-44761108D01*
X193991314Y-44776109D01*
X194002064Y-44790934D01*
X194002866Y-44791777D01*
X194011466Y-44801394D01*
X194014947Y-44808533D01*
X194014444Y-44816422D01*
X194013202Y-44821146D01*
X194011390Y-44830331D01*
X194012579Y-44838599D01*
X194017538Y-44848969D01*
X194022352Y-44856985D01*
X194035629Y-44878051D01*
X194046004Y-44893351D01*
X194054795Y-44904461D01*
X194063319Y-44912954D01*
X194072896Y-44920406D01*
X194078871Y-44924485D01*
X194092425Y-44934402D01*
X194100074Y-44942820D01*
X194103599Y-44951798D01*
X194103905Y-44953462D01*
X194105899Y-44965477D01*
X194108608Y-44981539D01*
X194110465Y-44992436D01*
X194112658Y-45010113D01*
X194114120Y-45031357D01*
X194114523Y-45049586D01*
X194112811Y-45074351D01*
X194107604Y-45092316D01*
X194098145Y-45104691D01*
X194083675Y-45112687D01*
X194073142Y-45115694D01*
X194052921Y-45118467D01*
X194035555Y-45116457D01*
X194034622Y-45116214D01*
X194024090Y-45114221D01*
X194015745Y-45115372D01*
X194008375Y-45120726D01*
X194000767Y-45131346D01*
X193991708Y-45148292D01*
X193987050Y-45157817D01*
X193977402Y-45176141D01*
X193966602Y-45194080D01*
X193956688Y-45208294D01*
X193954901Y-45210503D01*
X193940402Y-45228008D01*
X193930587Y-45240865D01*
X193924552Y-45250782D01*
X193921388Y-45259469D01*
X193920189Y-45268635D01*
X193920034Y-45276230D01*
X193920514Y-45287882D01*
X193922597Y-45297683D01*
X193927245Y-45307582D01*
X193935421Y-45319527D01*
X193948087Y-45335467D01*
X193951108Y-45339142D01*
X193963286Y-45356597D01*
X193969909Y-45373738D01*
X193971387Y-45381178D01*
X193975135Y-45396457D01*
X193982091Y-45408972D01*
X193992414Y-45420705D01*
X194010031Y-45438655D01*
X194007882Y-45476036D01*
X194007398Y-45495969D01*
X194008039Y-45515413D01*
X194009662Y-45530833D01*
X194010195Y-45533605D01*
X194012488Y-45547882D01*
X194011379Y-45558788D01*
X194007093Y-45569589D01*
X194002364Y-45583051D01*
X193998583Y-45600124D01*
X193997267Y-45610014D01*
X193996257Y-45624043D01*
X193997194Y-45632723D01*
X194001140Y-45639122D01*
X194009160Y-45646310D01*
X194010121Y-45647103D01*
X194025198Y-45661915D01*
X194035919Y-45677284D01*
X194041208Y-45691387D01*
X194041111Y-45699488D01*
X194036673Y-45709517D01*
X194029144Y-45720774D01*
X194027985Y-45722193D01*
X194019430Y-45737211D01*
X194017401Y-45752074D01*
X194016653Y-45765569D01*
X194014711Y-45783163D01*
X194012479Y-45798075D01*
X194010001Y-45816636D01*
X194010054Y-45832322D01*
X194012774Y-45849829D01*
X194014181Y-45856362D01*
X194018800Y-45889832D01*
X194018783Y-45924050D01*
X194018132Y-45945238D01*
X194019126Y-45962080D01*
X194022250Y-45978616D01*
X194027665Y-45997821D01*
X194032721Y-46016171D01*
X194036532Y-46033439D01*
X194038454Y-46046598D01*
X194038567Y-46049224D01*
X194038290Y-46055287D01*
X194036808Y-46060582D01*
X194033144Y-46066118D01*
X194026321Y-46072906D01*
X194015362Y-46081954D01*
X193999290Y-46094272D01*
X193983523Y-46106091D01*
X193955649Y-46127550D01*
X193934260Y-46145580D01*
X193918532Y-46161035D01*
X193907646Y-46174768D01*
X193900781Y-46187631D01*
X193898482Y-46194422D01*
X193894805Y-46203885D01*
X193888697Y-46208782D01*
X193877154Y-46211513D01*
X193877050Y-46211529D01*
X193860984Y-46216882D01*
X193843982Y-46228494D01*
X193839178Y-46232659D01*
X193828353Y-46241813D01*
X193818689Y-46247919D01*
X193807461Y-46252159D01*
X193791944Y-46255713D01*
X193781568Y-46257631D01*
X193759952Y-46261189D01*
X193737011Y-46264498D01*
X193717216Y-46266917D01*
X193714717Y-46267172D01*
X193690679Y-46270361D01*
X193673856Y-46274818D01*
X193663022Y-46281119D01*
X193656953Y-46289840D01*
X193655356Y-46295132D01*
X193649181Y-46314481D01*
X193638560Y-46333944D01*
X193622523Y-46355027D01*
X193603606Y-46375661D01*
X193588406Y-46390853D01*
X193577054Y-46400838D01*
X193567871Y-46406823D01*
X193559176Y-46410014D01*
X193554464Y-46410942D01*
X193541119Y-46414215D01*
X193521990Y-46420434D01*
X193498914Y-46428857D01*
X193473728Y-46438742D01*
X193448269Y-46449348D01*
X193424374Y-46459933D01*
X193403881Y-46469756D01*
X193389544Y-46477521D01*
X193373600Y-46487709D01*
X193362871Y-46496811D01*
X193354890Y-46507302D01*
X193348794Y-46518421D01*
X193341745Y-46533842D01*
X193336069Y-46548738D01*
X193333703Y-46556933D01*
X193328630Y-46570241D01*
X193320417Y-46583250D01*
X193319251Y-46584641D01*
X193310557Y-46598765D01*
X193303083Y-46620144D01*
X193300066Y-46632189D01*
X193296330Y-46647833D01*
X193292686Y-46659134D01*
X193287768Y-46668323D01*
X193280204Y-46677634D01*
X193268628Y-46689300D01*
X193259966Y-46697614D01*
X193243242Y-46713159D01*
X193221467Y-46732733D01*
X193196155Y-46755018D01*
X193168822Y-46778697D01*
X193140981Y-46802453D01*
X193114149Y-46824969D01*
X193101651Y-46835295D01*
X193075891Y-46852315D01*
X193042738Y-46867037D01*
X193001795Y-46879633D01*
X192995050Y-46881327D01*
X192972556Y-46887187D01*
X192956348Y-46892736D01*
X192944396Y-46899244D01*
X192934667Y-46907980D01*
X192925131Y-46920214D01*
X192919432Y-46928592D01*
X192909793Y-46942502D01*
X192896429Y-46960984D01*
X192880865Y-46981966D01*
X192864627Y-47003379D01*
X192858709Y-47011053D01*
X192839832Y-47036088D01*
X192825544Y-47056818D01*
X192814663Y-47075135D01*
X192806012Y-47092931D01*
X192802664Y-47100942D01*
X192788077Y-47137348D01*
X192793318Y-47178399D01*
X192795638Y-47199582D01*
X192797929Y-47225694D01*
X192799906Y-47253199D01*
X192801139Y-47275309D01*
X192803719Y-47331169D01*
X192789860Y-47346953D01*
X192782631Y-47355667D01*
X192778671Y-47362969D01*
X192777242Y-47371729D01*
X192777606Y-47384816D01*
X192778133Y-47392525D01*
X192778193Y-47419616D01*
X192774370Y-47439016D01*
X192771257Y-47449908D01*
X192770539Y-47457117D01*
X192770964Y-47458208D01*
X192775417Y-47458462D01*
X192788096Y-47458704D01*
X192808762Y-47458936D01*
X192837174Y-47459155D01*
X192873093Y-47459363D01*
X192916277Y-47459559D01*
X192966487Y-47459743D01*
X193023482Y-47459915D01*
X193087023Y-47460074D01*
X193156870Y-47460221D01*
X193232781Y-47460356D01*
X193314518Y-47460478D01*
X193401839Y-47460587D01*
X193494506Y-47460683D01*
X193592277Y-47460766D01*
X193694912Y-47460836D01*
X193802172Y-47460893D01*
X193913816Y-47460936D01*
X194029604Y-47460965D01*
X194149296Y-47460981D01*
X194272651Y-47460983D01*
X194399430Y-47460971D01*
X194529393Y-47460944D01*
X194662299Y-47460904D01*
X194797908Y-47460849D01*
X194935980Y-47460780D01*
X195076275Y-47460696D01*
X195218553Y-47460597D01*
X195362573Y-47460483D01*
X195508096Y-47460354D01*
X195654881Y-47460210D01*
X195802688Y-47460051D01*
X195907609Y-47459929D01*
X197004068Y-47458617D01*
X197004043Y-46437333D01*
X197004017Y-45416050D01*
X197022489Y-45381753D01*
X197040961Y-45347457D01*
X197085989Y-45323837D01*
X197108880Y-45312337D01*
X197126922Y-45304628D01*
X197142360Y-45299881D01*
X197157441Y-45297267D01*
X197158221Y-45297178D01*
X197171772Y-45295173D01*
X197182489Y-45291828D01*
X197191428Y-45286008D01*
X197199642Y-45276580D01*
X197208187Y-45262409D01*
X197218117Y-45242361D01*
X197226816Y-45223433D01*
X197248335Y-45181402D01*
X197272013Y-45145087D01*
X197275798Y-45140107D01*
X197297017Y-45109563D01*
X197310752Y-45081969D01*
X197317223Y-45056769D01*
X197317143Y-45036543D01*
X197314492Y-45016869D01*
X197251779Y-44973743D01*
X197230731Y-44959044D01*
X197211461Y-44945169D01*
X197195345Y-44933140D01*
X197183757Y-44923979D01*
X197178605Y-44919333D01*
X197167686Y-44906228D01*
X197154900Y-44888846D01*
X197141457Y-44869077D01*
X197128565Y-44848809D01*
X197117435Y-44829933D01*
X197109275Y-44814336D01*
X197105661Y-44805366D01*
X197102230Y-44789680D01*
X197099158Y-44768595D01*
X197096607Y-44744371D01*
X197094744Y-44719269D01*
X197093733Y-44695547D01*
X197093738Y-44675465D01*
X197094925Y-44661283D01*
X197095090Y-44660400D01*
X197098489Y-44631449D01*
X197098520Y-44597920D01*
X197095295Y-44562954D01*
X197090637Y-44536897D01*
X197082006Y-44498150D01*
X197091299Y-44453333D01*
X197095667Y-44434475D01*
X197100213Y-44418514D01*
X197104326Y-44407417D01*
X197106795Y-44403440D01*
X197110358Y-44398088D01*
X197111284Y-44388697D01*
X197110105Y-44375224D01*
X197109300Y-44355038D01*
X197111481Y-44336434D01*
X197112044Y-44334148D01*
X197114123Y-44322370D01*
X197115903Y-44304811D01*
X197117155Y-44284156D01*
X197117595Y-44269231D01*
X197118317Y-44222250D01*
X197137562Y-44209550D01*
X197151828Y-44197977D01*
X197162012Y-44183635D01*
X197166818Y-44173566D01*
X197175001Y-44157612D01*
X197184942Y-44142363D01*
X197190552Y-44135466D01*
X197201448Y-44119971D01*
X197208472Y-44100141D01*
X197209572Y-44095250D01*
X197213818Y-44078975D01*
X197219125Y-44064036D01*
X197222685Y-44056650D01*
X197228585Y-44040413D01*
X197230500Y-44021447D01*
X197231308Y-44007139D01*
X197233365Y-43995362D01*
X197234802Y-43991406D01*
X197237558Y-43983519D01*
X197240954Y-43969931D01*
X197244337Y-43953307D01*
X197244948Y-43949892D01*
X197249352Y-43929251D01*
X197254884Y-43910007D01*
X197260909Y-43893828D01*
X197266794Y-43882381D01*
X197271902Y-43877335D01*
X197272594Y-43877233D01*
X197274684Y-43873451D01*
X197275547Y-43863691D01*
X197275297Y-43850338D01*
X197274050Y-43835774D01*
X197271922Y-43822382D01*
X197269519Y-43813733D01*
X197267393Y-43802157D01*
X197266870Y-43783761D01*
X197267874Y-43760021D01*
X197270329Y-43732417D01*
X197274161Y-43702427D01*
X197275747Y-43692051D01*
X197278771Y-43672495D01*
X197280354Y-43659475D01*
X197280462Y-43651177D01*
X197279064Y-43645790D01*
X197276127Y-43641501D01*
X197274826Y-43640029D01*
X197270468Y-43632700D01*
X197267284Y-43620841D01*
X197264911Y-43602846D01*
X197264015Y-43592378D01*
X197262156Y-43573101D01*
X197259766Y-43555318D01*
X197257262Y-43541956D01*
X197256372Y-43538664D01*
X197253507Y-43523194D01*
X197257036Y-43511522D01*
X197267802Y-43501046D01*
X197268851Y-43500288D01*
X197277212Y-43492099D01*
X197281236Y-43483764D01*
X197281300Y-43482849D01*
X197284878Y-43474723D01*
X197289468Y-43472138D01*
X197293501Y-43470089D01*
X197296110Y-43465357D01*
X197297720Y-43456225D01*
X197298756Y-43440981D01*
X197299083Y-43433376D01*
X197299535Y-43416357D01*
X197299493Y-43402541D01*
X197298980Y-43394137D01*
X197298668Y-43392823D01*
X197298015Y-43387243D01*
X197297650Y-43375053D01*
X197297600Y-43358106D01*
X197297853Y-43340144D01*
X197298667Y-43316697D01*
X197300127Y-43299732D01*
X197302520Y-43287268D01*
X197306132Y-43277328D01*
X197307325Y-43274875D01*
X197312314Y-43264204D01*
X197313304Y-43257811D01*
X197310498Y-43252623D01*
X197308928Y-43250822D01*
X197302130Y-43237751D01*
X197299656Y-43220381D01*
X197301337Y-43201591D01*
X197307007Y-43184257D01*
X197313372Y-43174403D01*
X197316587Y-43165859D01*
X197315069Y-43161703D01*
X197313273Y-43154069D01*
X197313051Y-43141597D01*
X197313667Y-43133924D01*
X197314200Y-43116236D01*
X197312600Y-43097005D01*
X197311403Y-43090178D01*
X197309261Y-43076796D01*
X197308924Y-43066522D01*
X197309739Y-43063021D01*
X197311947Y-43054572D01*
X197311783Y-43051637D01*
X197312538Y-43044401D01*
X197315568Y-43032144D01*
X197319316Y-43020230D01*
X197323883Y-43006039D01*
X197325525Y-42997084D01*
X197324411Y-42990723D01*
X197321535Y-42985550D01*
X197315684Y-42970987D01*
X197315586Y-42956082D01*
X197320972Y-42943650D01*
X197325968Y-42939018D01*
X197333090Y-42932658D01*
X197332466Y-42927643D01*
X197332318Y-42927491D01*
X197330321Y-42921477D01*
X197328787Y-42909215D01*
X197327953Y-42892919D01*
X197327867Y-42885508D01*
X197327363Y-42867531D01*
X197326019Y-42852022D01*
X197324087Y-42841510D01*
X197323271Y-42839389D01*
X197321147Y-42831713D01*
X197324986Y-42824236D01*
X197327504Y-42821403D01*
X197334776Y-42810424D01*
X197335723Y-42800797D01*
X197331514Y-42795254D01*
X197328755Y-42789221D01*
X197327719Y-42777167D01*
X197328189Y-42761313D01*
X197329951Y-42743878D01*
X197332786Y-42727084D01*
X197336480Y-42713151D01*
X197340308Y-42704964D01*
X197345379Y-42694825D01*
X197350679Y-42679417D01*
X197355163Y-42661841D01*
X197355647Y-42659477D01*
X197360216Y-42639626D01*
X197365883Y-42619385D01*
X197371430Y-42603110D01*
X197371474Y-42603000D01*
X197376733Y-42586795D01*
X197380150Y-42570620D01*
X197380863Y-42562649D01*
X197385094Y-42542094D01*
X197393598Y-42525235D01*
X197402531Y-42510585D01*
X197411132Y-42496153D01*
X197414651Y-42490100D01*
X197422039Y-42479430D01*
X197429512Y-42471897D01*
X197430835Y-42471039D01*
X197436052Y-42467003D01*
X197434357Y-42462253D01*
X197432143Y-42459685D01*
X197428630Y-42454576D01*
X197428023Y-42448362D01*
X197430354Y-42438276D01*
X197432446Y-42431493D01*
X197438816Y-42416250D01*
X197447114Y-42402246D01*
X197450741Y-42397683D01*
X197458203Y-42387288D01*
X197462705Y-42374448D01*
X197465160Y-42358484D01*
X197467825Y-42340163D01*
X197471613Y-42321639D01*
X197474211Y-42311917D01*
X197477790Y-42298815D01*
X197482200Y-42280432D01*
X197486729Y-42259811D01*
X197488833Y-42249516D01*
X197495051Y-42219911D01*
X197500896Y-42196632D01*
X197507094Y-42177609D01*
X197514371Y-42160771D01*
X197523450Y-42144051D01*
X197528968Y-42134968D01*
X197539067Y-42117772D01*
X197544944Y-42104699D01*
X197547572Y-42093190D01*
X197548000Y-42084899D01*
X197548851Y-42073372D01*
X197551007Y-42066358D01*
X197552383Y-42065367D01*
X197554594Y-42062759D01*
X197552368Y-42057150D01*
X197550494Y-42049790D01*
X197555418Y-42043751D01*
X197556784Y-42042761D01*
X197560501Y-42039679D01*
X197562862Y-42035599D01*
X197564033Y-42028923D01*
X197564178Y-42018055D01*
X197563463Y-42001394D01*
X197562598Y-41986419D01*
X197560675Y-41962585D01*
X197558101Y-41942775D01*
X197555130Y-41928727D01*
X197553400Y-41924046D01*
X197549723Y-41914593D01*
X197551163Y-41909531D01*
X197552234Y-41908733D01*
X197554684Y-41904369D01*
X197552171Y-41895974D01*
X197550225Y-41892009D01*
X197545713Y-41880005D01*
X197546555Y-41869056D01*
X197547659Y-41865561D01*
X197550086Y-41855493D01*
X197549766Y-41848906D01*
X197549702Y-41848795D01*
X197549780Y-41842463D01*
X197551346Y-41839756D01*
X197554725Y-41833037D01*
X197559095Y-41821168D01*
X197562086Y-41811550D01*
X197565731Y-41796530D01*
X197566042Y-41787273D01*
X197563978Y-41782698D01*
X197561700Y-41776272D01*
X197565038Y-41767138D01*
X197566257Y-41765003D01*
X197570653Y-41756301D01*
X197570243Y-41751182D01*
X197567006Y-41747829D01*
X197561932Y-41739613D01*
X197560700Y-41732781D01*
X197558865Y-41723887D01*
X197555988Y-41720054D01*
X197553092Y-41713928D01*
X197552508Y-41702573D01*
X197553900Y-41688801D01*
X197556931Y-41675424D01*
X197561267Y-41665255D01*
X197562774Y-41663248D01*
X197567589Y-41656231D01*
X197568134Y-41648345D01*
X197565815Y-41638841D01*
X197560757Y-41620608D01*
X197558517Y-41608813D01*
X197558992Y-41601950D01*
X197562079Y-41598509D01*
X197563030Y-41598087D01*
X197567248Y-41594336D01*
X197565116Y-41587341D01*
X197560965Y-41573164D01*
X197565000Y-41560444D01*
X197569110Y-41555310D01*
X197573388Y-41550347D01*
X197575294Y-41545554D01*
X197574837Y-41538620D01*
X197572025Y-41527232D01*
X197569248Y-41517433D01*
X197563254Y-41500108D01*
X197556809Y-41487509D01*
X197552372Y-41482480D01*
X197545709Y-41475559D01*
X197543767Y-41470343D01*
X197540524Y-41464881D01*
X197537905Y-41464233D01*
X197533606Y-41460309D01*
X197530272Y-41448356D01*
X197529010Y-41439891D01*
X197526710Y-41425283D01*
X197523995Y-41413419D01*
X197522230Y-41408528D01*
X197521651Y-41402456D01*
X197525605Y-41393225D01*
X197534713Y-41379472D01*
X197536677Y-41376778D01*
X197555263Y-41346008D01*
X197566850Y-41312949D01*
X197571507Y-41285143D01*
X197573547Y-41270656D01*
X197576512Y-41262349D01*
X197581404Y-41257935D01*
X197583906Y-41256829D01*
X197594599Y-41250578D01*
X197596950Y-41243068D01*
X197592865Y-41236091D01*
X197588295Y-41226660D01*
X197586325Y-41213645D01*
X197587032Y-41200590D01*
X197590492Y-41191036D01*
X197591865Y-41189553D01*
X197595662Y-41182799D01*
X197598951Y-41170884D01*
X197600195Y-41163099D01*
X197603197Y-41148170D01*
X197607865Y-41135133D01*
X197610306Y-41130826D01*
X197623530Y-41110302D01*
X197631572Y-41091933D01*
X197635569Y-41072243D01*
X197636651Y-41050425D01*
X197636900Y-41015500D01*
X195948076Y-41015500D01*
X195950743Y-40778433D01*
X195951299Y-40726441D01*
X195951699Y-40682322D01*
X195951934Y-40645482D01*
X195951999Y-40615329D01*
X195951885Y-40591269D01*
X195951585Y-40572710D01*
X195951091Y-40559059D01*
X195950397Y-40549722D01*
X195949495Y-40544108D01*
X195948376Y-40541622D01*
X195947779Y-40541367D01*
X195941788Y-40543285D01*
D12*
X147800000Y-55400000D03*
X147800000Y-52400000D03*
D13*
X181275000Y-90225000D03*
X197875000Y-90225000D03*
D14*
X202675000Y-64125000D03*
X147675000Y-64125000D03*
D15*
X197000000Y-76250000D03*
X161600000Y-43600000D03*
X170400000Y-43600000D03*
X179600000Y-43600000D03*
X188400000Y-43600000D03*
X189600000Y-45400000D03*
X187400000Y-45400000D03*
X180600000Y-45400000D03*
X178400000Y-45400000D03*
X160400000Y-45400000D03*
X162600000Y-45400000D03*
X169400000Y-45400000D03*
X171600000Y-45400000D03*
X175000000Y-50000000D03*
X173600000Y-46100000D03*
X151500000Y-56100000D03*
X188800000Y-54400000D03*
X187400000Y-48600000D03*
X169400000Y-48600000D03*
X193000000Y-59000000D03*
X194000000Y-55400000D03*
X175000000Y-43200000D03*
X175000000Y-48600000D03*
X162600000Y-48600000D03*
X180600000Y-48600000D03*
X178300000Y-56400000D03*
D16*
X197885867Y-77135867D02*
X197000000Y-76250000D01*
X197885867Y-90227043D02*
X197885867Y-77135867D01*
X175000000Y-48600000D02*
X171600000Y-48600000D01*
X167000000Y-48600000D02*
X162600000Y-48600000D01*
X171600000Y-48600000D02*
X170000000Y-47000000D01*
X170000000Y-47000000D02*
X168600000Y-47000000D01*
X168600000Y-47000000D02*
X167000000Y-48600000D01*
X179400000Y-48600000D02*
X178000000Y-48600000D01*
X178000000Y-48600000D02*
X175000000Y-48600000D01*
X178300000Y-49700000D02*
X178300000Y-48900000D01*
X178300000Y-48900000D02*
X178000000Y-48600000D01*
D17*
X175000000Y-43200000D02*
X175000000Y-48600000D01*
D16*
X180600000Y-48600000D02*
X179400000Y-48600000D01*
X178300000Y-49700000D02*
X178300000Y-56400000D01*
D18*
G36*
X205053761Y-92094154D02*
X144903761Y-92094155D01*
X144903761Y-90275000D01*
X179925000Y-90275000D01*
X179925000Y-90775000D01*
X179960694Y-91037411D01*
X180046896Y-91287816D01*
X180180294Y-91516593D01*
X180355761Y-91714949D01*
X180566553Y-91875262D01*
X180804571Y-91991371D01*
X181014574Y-92049643D01*
X181225000Y-91986510D01*
X181225000Y-90275000D01*
X181325000Y-90275000D01*
X181325000Y-91986510D01*
X181535426Y-92049643D01*
X181745429Y-91991371D01*
X181983447Y-91875262D01*
X182194239Y-91714949D01*
X182369706Y-91516593D01*
X182503104Y-91287816D01*
X182589306Y-91037411D01*
X182625000Y-90775000D01*
X182625000Y-90275000D01*
X181325000Y-90275000D01*
X181225000Y-90275000D01*
X179925000Y-90275000D01*
X144903761Y-90275000D01*
X144903761Y-89675000D01*
X179925000Y-89675000D01*
X179925000Y-90175000D01*
X181225000Y-90175000D01*
X181225000Y-88463490D01*
X181325000Y-88463490D01*
X181325000Y-90175000D01*
X182625000Y-90175000D01*
X182625000Y-89675000D01*
X182589306Y-89412589D01*
X182503104Y-89162184D01*
X182369706Y-88933407D01*
X182194239Y-88735051D01*
X181983447Y-88574738D01*
X181745429Y-88458629D01*
X181535426Y-88400357D01*
X181325000Y-88463490D01*
X181225000Y-88463490D01*
X181014574Y-88400357D01*
X180804571Y-88458629D01*
X180566553Y-88574738D01*
X180355761Y-88735051D01*
X180180294Y-88933407D01*
X180046896Y-89162184D01*
X179960694Y-89412589D01*
X179925000Y-89675000D01*
X144903761Y-89675000D01*
X144903761Y-76241099D01*
X196150046Y-76241099D01*
X196164505Y-76406358D01*
X196210787Y-76565662D01*
X196287130Y-76712943D01*
X196390626Y-76842590D01*
X196398959Y-76851041D01*
X197035867Y-77487949D01*
X197035867Y-88666757D01*
X196930454Y-88751511D01*
X196761097Y-88953344D01*
X196634167Y-89184227D01*
X196554501Y-89435368D01*
X196525132Y-89697200D01*
X196525000Y-89716049D01*
X196525000Y-90733951D01*
X196550711Y-90996167D01*
X196626863Y-91248396D01*
X196750556Y-91481030D01*
X196917080Y-91685207D01*
X197120090Y-91853152D01*
X197351854Y-91978466D01*
X197603545Y-92056378D01*
X197865575Y-92083918D01*
X198127965Y-92060039D01*
X198380719Y-91985649D01*
X198614210Y-91863583D01*
X198819546Y-91698489D01*
X198988903Y-91496656D01*
X199115833Y-91265773D01*
X199195499Y-91014632D01*
X199224868Y-90752800D01*
X199225000Y-90733951D01*
X199225000Y-89716049D01*
X199199289Y-89453833D01*
X199123137Y-89201604D01*
X198999444Y-88968970D01*
X198832920Y-88764793D01*
X198735867Y-88684504D01*
X198735867Y-77135867D01*
X198728207Y-77057743D01*
X198721362Y-76979509D01*
X198720115Y-76975218D01*
X198719679Y-76970768D01*
X198696980Y-76895587D01*
X198675080Y-76820205D01*
X198673023Y-76816237D01*
X198671731Y-76811957D01*
X198634863Y-76742618D01*
X198598737Y-76672924D01*
X198595949Y-76669431D01*
X198593850Y-76665484D01*
X198544218Y-76604629D01*
X198495241Y-76543277D01*
X198489104Y-76537053D01*
X198489002Y-76536928D01*
X198488886Y-76536832D01*
X198486908Y-76534826D01*
X197601041Y-75648959D01*
X197472851Y-75543663D01*
X197326651Y-75465271D01*
X197168009Y-75416769D01*
X197002967Y-75400005D01*
X196837812Y-75415617D01*
X196678835Y-75463010D01*
X196532091Y-75540379D01*
X196403170Y-75644778D01*
X196296982Y-75772229D01*
X196217571Y-75917879D01*
X196167962Y-76076178D01*
X196150046Y-76241099D01*
X144903761Y-76241099D01*
X144903761Y-64305778D01*
X145522174Y-64305778D01*
X145598287Y-64720488D01*
X145753502Y-65112516D01*
X145981906Y-65466930D01*
X146274800Y-65770230D01*
X146621027Y-66010863D01*
X147007399Y-66179665D01*
X147419200Y-66270206D01*
X147840744Y-66279036D01*
X148255975Y-66205819D01*
X148649077Y-66053345D01*
X149005077Y-65827421D01*
X149310414Y-65536652D01*
X149553459Y-65192113D01*
X149724955Y-64806929D01*
X149818368Y-64395770D01*
X149819624Y-64305778D01*
X200522174Y-64305778D01*
X200598287Y-64720488D01*
X200753502Y-65112516D01*
X200981906Y-65466930D01*
X201274800Y-65770230D01*
X201621027Y-66010863D01*
X202007399Y-66179665D01*
X202419200Y-66270206D01*
X202840744Y-66279036D01*
X203255975Y-66205819D01*
X203649077Y-66053345D01*
X204005077Y-65827421D01*
X204310414Y-65536652D01*
X204553459Y-65192113D01*
X204724955Y-64806929D01*
X204818368Y-64395770D01*
X204825092Y-63914182D01*
X204743196Y-63500575D01*
X204582523Y-63110752D01*
X204349192Y-62759562D01*
X204052093Y-62460381D01*
X203702540Y-62224605D01*
X203313849Y-62061214D01*
X202900824Y-61976432D01*
X202479197Y-61973488D01*
X202065029Y-62052495D01*
X201674094Y-62210443D01*
X201321283Y-62441316D01*
X201020035Y-62736320D01*
X200781824Y-63084218D01*
X200615724Y-63471759D01*
X200528061Y-63884182D01*
X200522174Y-64305778D01*
X149819624Y-64305778D01*
X149825092Y-63914182D01*
X149743196Y-63500575D01*
X149582523Y-63110752D01*
X149349192Y-62759562D01*
X149052093Y-62460381D01*
X148702540Y-62224605D01*
X148313849Y-62061214D01*
X147900824Y-61976432D01*
X147479197Y-61973488D01*
X147065029Y-62052495D01*
X146674094Y-62210443D01*
X146321283Y-62441316D01*
X146020035Y-62736320D01*
X145781824Y-63084218D01*
X145615724Y-63471759D01*
X145528061Y-63884182D01*
X145522174Y-64305778D01*
X144903761Y-64305778D01*
X144903761Y-55467266D01*
X146998948Y-55467266D01*
X147027270Y-55621577D01*
X147085024Y-55767448D01*
X147170012Y-55899323D01*
X147278995Y-56012179D01*
X147407824Y-56101717D01*
X147551590Y-56164527D01*
X147704818Y-56198216D01*
X147861672Y-56201502D01*
X148016177Y-56174258D01*
X148162447Y-56117524D01*
X148294912Y-56033459D01*
X148408526Y-55925266D01*
X148498962Y-55797066D01*
X148562774Y-55653741D01*
X148597532Y-55500752D01*
X148600034Y-55321556D01*
X148569561Y-55167656D01*
X148509776Y-55022605D01*
X148422955Y-54891930D01*
X148312407Y-54780607D01*
X148182341Y-54692876D01*
X148037711Y-54632079D01*
X147884027Y-54600533D01*
X147727143Y-54599437D01*
X147573034Y-54628835D01*
X147427570Y-54687607D01*
X147296291Y-54773513D01*
X147184199Y-54883282D01*
X147095562Y-55012732D01*
X147033758Y-55156934D01*
X147001139Y-55310393D01*
X146998948Y-55467266D01*
X144903761Y-55467266D01*
X144903761Y-52467266D01*
X146998948Y-52467266D01*
X147027270Y-52621577D01*
X147085024Y-52767448D01*
X147170012Y-52899323D01*
X147278995Y-53012179D01*
X147407824Y-53101717D01*
X147551590Y-53164527D01*
X147704818Y-53198216D01*
X147861672Y-53201502D01*
X148016177Y-53174258D01*
X148162447Y-53117524D01*
X148294912Y-53033459D01*
X148408526Y-52925266D01*
X148498962Y-52797066D01*
X148562774Y-52653741D01*
X148597532Y-52500752D01*
X148600034Y-52321556D01*
X148569561Y-52167656D01*
X148509776Y-52022605D01*
X148422955Y-51891930D01*
X148312407Y-51780607D01*
X148182341Y-51692876D01*
X148037711Y-51632079D01*
X147884027Y-51600533D01*
X147727143Y-51599437D01*
X147573034Y-51628835D01*
X147427570Y-51687607D01*
X147296291Y-51773513D01*
X147184199Y-51883282D01*
X147095562Y-52012732D01*
X147033758Y-52156934D01*
X147001139Y-52310393D01*
X146998948Y-52467266D01*
X144903761Y-52467266D01*
X144903761Y-48594066D01*
X161750021Y-48594066D01*
X161765056Y-48759274D01*
X161811894Y-48918416D01*
X161888750Y-49065429D01*
X161992698Y-49194714D01*
X162119778Y-49301346D01*
X162265149Y-49381265D01*
X162423275Y-49431425D01*
X162588132Y-49449917D01*
X162600000Y-49450000D01*
X167000000Y-49450000D01*
X167078124Y-49442340D01*
X167156358Y-49435495D01*
X167160649Y-49434248D01*
X167165099Y-49433812D01*
X167240280Y-49411113D01*
X167315662Y-49389213D01*
X167319630Y-49387156D01*
X167323910Y-49385864D01*
X167393249Y-49348996D01*
X167462943Y-49312870D01*
X167466436Y-49310082D01*
X167470383Y-49307983D01*
X167531238Y-49258351D01*
X167592590Y-49209374D01*
X167598814Y-49203237D01*
X167598939Y-49203135D01*
X167599035Y-49203019D01*
X167601041Y-49201041D01*
X168952082Y-47850000D01*
X169647918Y-47850000D01*
X170998959Y-49201041D01*
X171059647Y-49250891D01*
X171119778Y-49301346D01*
X171123693Y-49303498D01*
X171127149Y-49306337D01*
X171196367Y-49343451D01*
X171265149Y-49381265D01*
X171269409Y-49382616D01*
X171273349Y-49384729D01*
X171348477Y-49407698D01*
X171423275Y-49431425D01*
X171427713Y-49431923D01*
X171431992Y-49433231D01*
X171510161Y-49441171D01*
X171588132Y-49449917D01*
X171596866Y-49449978D01*
X171597033Y-49449995D01*
X171597188Y-49449980D01*
X171600000Y-49450000D01*
X177450000Y-49450000D01*
X177450000Y-56400000D01*
X177466188Y-56565099D01*
X177514136Y-56723910D01*
X177592017Y-56870383D01*
X177696865Y-56998939D01*
X177824686Y-57104682D01*
X177970612Y-57183584D01*
X178129084Y-57232639D01*
X178294066Y-57249979D01*
X178459274Y-57234944D01*
X178618416Y-57188106D01*
X178765429Y-57111250D01*
X178894714Y-57007302D01*
X179001346Y-56880222D01*
X179081265Y-56734851D01*
X179131425Y-56576725D01*
X179149917Y-56411868D01*
X179150000Y-56400000D01*
X179150000Y-49450000D01*
X180600000Y-49450000D01*
X180765099Y-49433812D01*
X180923910Y-49385864D01*
X181070383Y-49307983D01*
X181198939Y-49203135D01*
X181304682Y-49075314D01*
X181383584Y-48929388D01*
X181432639Y-48770916D01*
X181449979Y-48605934D01*
X181434944Y-48440726D01*
X181388106Y-48281584D01*
X181311250Y-48134571D01*
X181207302Y-48005286D01*
X181080222Y-47898654D01*
X180934851Y-47818735D01*
X180776725Y-47768575D01*
X180611868Y-47750083D01*
X180600000Y-47750000D01*
X175450000Y-47750000D01*
X175450000Y-43669086D01*
X175494428Y-43626778D01*
X175567906Y-43522616D01*
X175619754Y-43406165D01*
X175647995Y-43281861D01*
X175650028Y-43136264D01*
X175625268Y-43011220D01*
X175576693Y-42893367D01*
X175506151Y-42787193D01*
X175416330Y-42696743D01*
X175310652Y-42625462D01*
X175193140Y-42576065D01*
X175068272Y-42550433D01*
X174940804Y-42549543D01*
X174815590Y-42573429D01*
X174697401Y-42621181D01*
X174590737Y-42690979D01*
X174499662Y-42780166D01*
X174427645Y-42885345D01*
X174377428Y-43002509D01*
X174350925Y-43127195D01*
X174349146Y-43254654D01*
X174372157Y-43380031D01*
X174419082Y-43498551D01*
X174488135Y-43605700D01*
X174550000Y-43669763D01*
X174550000Y-47750000D01*
X171952082Y-47750000D01*
X170601041Y-46398959D01*
X170540353Y-46349109D01*
X170480222Y-46298654D01*
X170476307Y-46296502D01*
X170472851Y-46293663D01*
X170403633Y-46256549D01*
X170334851Y-46218735D01*
X170330591Y-46217384D01*
X170326651Y-46215271D01*
X170251511Y-46192298D01*
X170176725Y-46168575D01*
X170172288Y-46168077D01*
X170168009Y-46166769D01*
X170089834Y-46158828D01*
X170011868Y-46150083D01*
X170003134Y-46150022D01*
X170002967Y-46150005D01*
X170002812Y-46150020D01*
X170000000Y-46150000D01*
X168600000Y-46150000D01*
X168521876Y-46157660D01*
X168443642Y-46164505D01*
X168439351Y-46165752D01*
X168434901Y-46166188D01*
X168359720Y-46188887D01*
X168284338Y-46210787D01*
X168280370Y-46212844D01*
X168276090Y-46214136D01*
X168206751Y-46251004D01*
X168137057Y-46287130D01*
X168133564Y-46289918D01*
X168129617Y-46292017D01*
X168068762Y-46341649D01*
X168007410Y-46390626D01*
X168001186Y-46396763D01*
X168001061Y-46396865D01*
X168000965Y-46396981D01*
X167998959Y-46398959D01*
X166647918Y-47750000D01*
X162600000Y-47750000D01*
X162434901Y-47766188D01*
X162276090Y-47814136D01*
X162129617Y-47892017D01*
X162001061Y-47996865D01*
X161895318Y-48124686D01*
X161816416Y-48270612D01*
X161767361Y-48429084D01*
X161750021Y-48594066D01*
X144903761Y-48594066D01*
X144903761Y-42228025D01*
X191015534Y-42228025D01*
X191016081Y-42232577D01*
X191015701Y-42246165D01*
X191016968Y-42253656D01*
X191017079Y-42261245D01*
X191022695Y-42287578D01*
X191023806Y-42296813D01*
X191024758Y-42299732D01*
X191027252Y-42314480D01*
X191029946Y-42321574D01*
X191031531Y-42329004D01*
X191042229Y-42353915D01*
X191043598Y-42357518D01*
X191045282Y-42362685D01*
X191046145Y-42364225D01*
X191051851Y-42379250D01*
X191055875Y-42385691D01*
X191058871Y-42392667D01*
X191074199Y-42415019D01*
X191078072Y-42421218D01*
X191079143Y-42423130D01*
X191079605Y-42423671D01*
X191088562Y-42438008D01*
X191093759Y-42443543D01*
X191098054Y-42449806D01*
X191117442Y-42468765D01*
X191135987Y-42488516D01*
X191139739Y-42491756D01*
X191143998Y-42495382D01*
X191146288Y-42496974D01*
X191147589Y-42498246D01*
X191150206Y-42499956D01*
X191153838Y-42503457D01*
X191157747Y-42506506D01*
X191159580Y-42507915D01*
X191175681Y-42517956D01*
X191178332Y-42520281D01*
X191182089Y-42522454D01*
X191194641Y-42531678D01*
X191198920Y-42534180D01*
X191208239Y-42539540D01*
X191215686Y-42542904D01*
X191218369Y-42544577D01*
X191224039Y-42546725D01*
X191238302Y-42554977D01*
X191242829Y-42556998D01*
X191257170Y-42563279D01*
X191259104Y-42563909D01*
X191263454Y-42568169D01*
X191267119Y-42570567D01*
X191270316Y-42573548D01*
X191296052Y-42589501D01*
X191321428Y-42606107D01*
X191325487Y-42607747D01*
X191329204Y-42610051D01*
X191330254Y-42610445D01*
X191341078Y-42618316D01*
X191341985Y-42618849D01*
X191342769Y-42619537D01*
X191346815Y-42622401D01*
X191359624Y-42631331D01*
X191361081Y-42632148D01*
X191362362Y-42633221D01*
X191366474Y-42635989D01*
X191389310Y-42651132D01*
X191397875Y-42655676D01*
X191405713Y-42661376D01*
X191410005Y-42663857D01*
X191429855Y-42675146D01*
X191442709Y-42680876D01*
X191454797Y-42688051D01*
X191459300Y-42690123D01*
X191479563Y-42699269D01*
X191490142Y-42702848D01*
X191500138Y-42707788D01*
X191504787Y-42709508D01*
X191528858Y-42718221D01*
X191530921Y-42718747D01*
X191532090Y-42719303D01*
X191532499Y-42719447D01*
X191532595Y-42719492D01*
X191538815Y-42724288D01*
X191543035Y-42726889D01*
X191554112Y-42733607D01*
X191564616Y-42738647D01*
X191567208Y-42740291D01*
X191568347Y-42740732D01*
X191577993Y-42746860D01*
X191582432Y-42749067D01*
X191599545Y-42757424D01*
X191604965Y-42759443D01*
X191609975Y-42762308D01*
X191614511Y-42764306D01*
X191636639Y-42773867D01*
X191639553Y-42774801D01*
X191642252Y-42776235D01*
X191646849Y-42778091D01*
X191672965Y-42788424D01*
X191674864Y-42788968D01*
X191676625Y-42789848D01*
X191681266Y-42791588D01*
X191710346Y-42802259D01*
X191711931Y-42802670D01*
X191713414Y-42803369D01*
X191718095Y-42805001D01*
X191749113Y-42815575D01*
X191749595Y-42815688D01*
X191750047Y-42815892D01*
X191754755Y-42817446D01*
X191768350Y-42821828D01*
X191792493Y-42829643D01*
X191821867Y-42839421D01*
X191855715Y-42850898D01*
X191892246Y-42863468D01*
X191928226Y-42876026D01*
X191962215Y-42888079D01*
X191996867Y-42900557D01*
X192023022Y-42910181D01*
X192041275Y-42917174D01*
X192052385Y-42921716D01*
X192058018Y-42924232D01*
X192061410Y-42925909D01*
X192066387Y-42928608D01*
X192076580Y-42934512D01*
X192080316Y-42936736D01*
X192080360Y-42936757D01*
X192080917Y-42937092D01*
X192103788Y-42950643D01*
X192103867Y-42950680D01*
X192105743Y-42951793D01*
X192129331Y-42965566D01*
X192129411Y-42965603D01*
X192131271Y-42966691D01*
X192153125Y-42979267D01*
X192153201Y-42979301D01*
X192155856Y-42980823D01*
X192173168Y-42990583D01*
X192175969Y-42992279D01*
X192184133Y-42997790D01*
X192196838Y-43006977D01*
X192210599Y-43017585D01*
X192210770Y-43017723D01*
X192233164Y-43035865D01*
X192233189Y-43035881D01*
X192233552Y-43036179D01*
X192259773Y-43057361D01*
X192259795Y-43057375D01*
X192260072Y-43057602D01*
X192286536Y-43078934D01*
X192286568Y-43078955D01*
X192286909Y-43079233D01*
X192310433Y-43098143D01*
X192310439Y-43098147D01*
X192342134Y-43123882D01*
X192364866Y-43142975D01*
X192379670Y-43156066D01*
X192386890Y-43162949D01*
X192387519Y-43163615D01*
X192389976Y-43166584D01*
X192398148Y-43176818D01*
X192398988Y-43177682D01*
X192399647Y-43178681D01*
X192402792Y-43182512D01*
X192416645Y-43199142D01*
X192416685Y-43199182D01*
X192419308Y-43202301D01*
X192435928Y-43221787D01*
X192435988Y-43221845D01*
X192438094Y-43224302D01*
X192456023Y-43244929D01*
X192456086Y-43244989D01*
X192457878Y-43247047D01*
X192469023Y-43259666D01*
X192482347Y-43274908D01*
X192491451Y-43285718D01*
X192494612Y-43289660D01*
X192495602Y-43291016D01*
X192508319Y-43311135D01*
X192511744Y-43314745D01*
X192514514Y-43318867D01*
X192517693Y-43322671D01*
X192525312Y-43331655D01*
X192535944Y-43341959D01*
X192545356Y-43353389D01*
X192548890Y-43356866D01*
X192556310Y-43364064D01*
X192556313Y-43364066D01*
X192556337Y-43364090D01*
X192562248Y-43369823D01*
X192568622Y-43376482D01*
X192578400Y-43387203D01*
X192584310Y-43393936D01*
X192584357Y-43393980D01*
X192586802Y-43396746D01*
X192603410Y-43415268D01*
X192605057Y-43416778D01*
X192606404Y-43418566D01*
X192609785Y-43422191D01*
X192628700Y-43442195D01*
X192630169Y-43443472D01*
X192631378Y-43444996D01*
X192634848Y-43448536D01*
X192652875Y-43466675D01*
X192654358Y-43467901D01*
X192655583Y-43469369D01*
X192659139Y-43472823D01*
X192664148Y-43477619D01*
X192672765Y-43486032D01*
X192675755Y-43489167D01*
X192680072Y-43494138D01*
X192682566Y-43496498D01*
X192687077Y-43502617D01*
X192690419Y-43506278D01*
X192700831Y-43517522D01*
X192712699Y-43528059D01*
X192713991Y-43529467D01*
X192715683Y-43530708D01*
X192724643Y-43538664D01*
X192748090Y-43560159D01*
X192752074Y-43563109D01*
X192765486Y-43572893D01*
X192784121Y-43583876D01*
X192796226Y-43592794D01*
X192798984Y-43594412D01*
X192801611Y-43596394D01*
X192813062Y-43604909D01*
X192823050Y-43610918D01*
X192825719Y-43614023D01*
X192838875Y-43626599D01*
X192850809Y-43640346D01*
X192854432Y-43643729D01*
X192865664Y-43654071D01*
X192873680Y-43660120D01*
X192879894Y-43666335D01*
X192888849Y-43676904D01*
X192892431Y-43680331D01*
X192902503Y-43689831D01*
X192906336Y-43692796D01*
X192909613Y-43696356D01*
X192913333Y-43699633D01*
X192930055Y-43714152D01*
X192930744Y-43714641D01*
X192931326Y-43715250D01*
X192935106Y-43718456D01*
X192958424Y-43737952D01*
X192958485Y-43737994D01*
X192961351Y-43740372D01*
X192991214Y-43764800D01*
X192991281Y-43764845D01*
X192993139Y-43766365D01*
X193029495Y-43795683D01*
X193029563Y-43795728D01*
X193030866Y-43796783D01*
X193073661Y-43830946D01*
X193073702Y-43830973D01*
X193074410Y-43831543D01*
X193093383Y-43846604D01*
X193132134Y-43877621D01*
X193162411Y-43902513D01*
X193184890Y-43921757D01*
X193199652Y-43935163D01*
X193205541Y-43940980D01*
X193206329Y-43941970D01*
X193206744Y-43942589D01*
X193215676Y-43958936D01*
X193218494Y-43963014D01*
X193224670Y-43971817D01*
X193225821Y-43973158D01*
X193226702Y-43974682D01*
X193233350Y-43982271D01*
X193234950Y-43984657D01*
X193238865Y-43988566D01*
X193239202Y-43988951D01*
X193246076Y-44000478D01*
X193249760Y-44007392D01*
X193250131Y-44008269D01*
X193250579Y-44008929D01*
X193258356Y-44023526D01*
X193261131Y-44027634D01*
X193269231Y-44039441D01*
X193277167Y-44048882D01*
X193277167Y-44520174D01*
X193279801Y-44547041D01*
X193281268Y-44573975D01*
X193283175Y-44581447D01*
X193283928Y-44589127D01*
X193291730Y-44614970D01*
X193298401Y-44641108D01*
X193301723Y-44648067D01*
X193303953Y-44655454D01*
X193316625Y-44679286D01*
X193328247Y-44703634D01*
X193332858Y-44709817D01*
X193336480Y-44716628D01*
X193353539Y-44737545D01*
X193369669Y-44759171D01*
X193375391Y-44764338D01*
X193379414Y-44769271D01*
X193381766Y-44773780D01*
X193397730Y-44793674D01*
X193412656Y-44814380D01*
X193417748Y-44819131D01*
X193418054Y-44819560D01*
X193419898Y-44821300D01*
X193425128Y-44827817D01*
X193428618Y-44831338D01*
X193435317Y-44838003D01*
X193452408Y-44851969D01*
X193468451Y-44867104D01*
X193479162Y-44873832D01*
X193488966Y-44881843D01*
X193508444Y-44892223D01*
X193527122Y-44903955D01*
X193538938Y-44908475D01*
X193545318Y-44911875D01*
X193545751Y-44912313D01*
X193552237Y-44916713D01*
X193557982Y-44922038D01*
X193580857Y-44936127D01*
X193603089Y-44951208D01*
X193610301Y-44954262D01*
X193616974Y-44958372D01*
X193642164Y-44967755D01*
X193666888Y-44978224D01*
X193674553Y-44979818D01*
X193678488Y-44981284D01*
X193677123Y-44984574D01*
X193675008Y-44987899D01*
X193672799Y-44992336D01*
X193670459Y-44997120D01*
X193670072Y-44997856D01*
X193667005Y-45001559D01*
X193664435Y-45005364D01*
X193661262Y-45008678D01*
X193658227Y-45012596D01*
X193648412Y-45025453D01*
X193639867Y-45039258D01*
X193629934Y-45052099D01*
X193627327Y-45056316D01*
X193621292Y-45066233D01*
X193614703Y-45079910D01*
X193611946Y-45084364D01*
X193609797Y-45090094D01*
X193607179Y-45095528D01*
X193592717Y-45124645D01*
X193591240Y-45128613D01*
X193591222Y-45128651D01*
X193591212Y-45128688D01*
X193590988Y-45129291D01*
X193587824Y-45137978D01*
X193587389Y-45139670D01*
X193586653Y-45141245D01*
X193578788Y-45173137D01*
X193576603Y-45181642D01*
X193574525Y-45187756D01*
X193573983Y-45191836D01*
X193570579Y-45205081D01*
X193570481Y-45206821D01*
X193570064Y-45208513D01*
X193569387Y-45213424D01*
X193568188Y-45222590D01*
X193567638Y-45239584D01*
X193565399Y-45256436D01*
X193565263Y-45261391D01*
X193565108Y-45268987D01*
X193565763Y-45277438D01*
X193565166Y-45285887D01*
X193565335Y-45290842D01*
X193565815Y-45302494D01*
X193569602Y-45329578D01*
X193572273Y-45356826D01*
X193573270Y-45361682D01*
X193575353Y-45371483D01*
X193576438Y-45374903D01*
X193576909Y-45378458D01*
X193586895Y-45407871D01*
X193596300Y-45437524D01*
X193598030Y-45440672D01*
X193599182Y-45444064D01*
X193601257Y-45448566D01*
X193605905Y-45458465D01*
X193619265Y-45480918D01*
X193631525Y-45503986D01*
X193634296Y-45508097D01*
X193642472Y-45520042D01*
X193645244Y-45523347D01*
X193650142Y-45537268D01*
X193647373Y-45548390D01*
X193646685Y-45553299D01*
X193645369Y-45563189D01*
X193645083Y-45571451D01*
X193643574Y-45579581D01*
X193643183Y-45584523D01*
X193642173Y-45598551D01*
X193642616Y-45615648D01*
X193642600Y-45615755D01*
X193642638Y-45616518D01*
X193642932Y-45627883D01*
X193642810Y-45657212D01*
X193643308Y-45662144D01*
X193644244Y-45670823D01*
X193645701Y-45677819D01*
X193646057Y-45684953D01*
X193652750Y-45711677D01*
X193658367Y-45738652D01*
X193661155Y-45745232D01*
X193661343Y-45745984D01*
X193661292Y-45746188D01*
X193660601Y-45751097D01*
X193658123Y-45769658D01*
X193657365Y-45791329D01*
X193655021Y-45812878D01*
X193655003Y-45817835D01*
X193655056Y-45833521D01*
X193657506Y-45857672D01*
X193658536Y-45881920D01*
X193659263Y-45886823D01*
X193661983Y-45904330D01*
X193662960Y-45908128D01*
X193663788Y-45914124D01*
X193663787Y-45914914D01*
X193662938Y-45915931D01*
X193643992Y-45918444D01*
X193624422Y-45923019D01*
X193604564Y-45925965D01*
X193599763Y-45927200D01*
X193582941Y-45931657D01*
X193573214Y-45935282D01*
X193563083Y-45937543D01*
X193540821Y-45947353D01*
X193518019Y-45955851D01*
X193509178Y-45961298D01*
X193499682Y-45965483D01*
X193495380Y-45967945D01*
X193484546Y-45974246D01*
X193480047Y-45977488D01*
X193475081Y-45979950D01*
X193459679Y-45991796D01*
X193459032Y-45992195D01*
X193458406Y-45992776D01*
X193451988Y-45997712D01*
X193428340Y-46014756D01*
X193424556Y-46018811D01*
X193420163Y-46022190D01*
X193400966Y-46044092D01*
X193381072Y-46065412D01*
X193378146Y-46070127D01*
X193374496Y-46074292D01*
X193371635Y-46078341D01*
X193365566Y-46087062D01*
X193356417Y-46103410D01*
X193356407Y-46103425D01*
X193344029Y-46108283D01*
X193342954Y-46108831D01*
X193341800Y-46109167D01*
X193337211Y-46111041D01*
X193311752Y-46121647D01*
X193310445Y-46122348D01*
X193309034Y-46122793D01*
X193304487Y-46124769D01*
X193280592Y-46135354D01*
X193278108Y-46136759D01*
X193275413Y-46137698D01*
X193270928Y-46139809D01*
X193250435Y-46149632D01*
X193245038Y-46152902D01*
X193239191Y-46155269D01*
X193234815Y-46157599D01*
X193220478Y-46165364D01*
X193211884Y-46171169D01*
X193202591Y-46175738D01*
X193198395Y-46178377D01*
X193182451Y-46188565D01*
X193165566Y-46201842D01*
X193147746Y-46213821D01*
X193143944Y-46217001D01*
X193133214Y-46226103D01*
X193132285Y-46227062D01*
X193131198Y-46227827D01*
X193108180Y-46251946D01*
X193085008Y-46275866D01*
X193084287Y-46276981D01*
X193083364Y-46277948D01*
X193080335Y-46281872D01*
X193072354Y-46292364D01*
X193059788Y-46312740D01*
X193046017Y-46332310D01*
X193043603Y-46336639D01*
X193037508Y-46347758D01*
X193033398Y-46357379D01*
X193028019Y-46366343D01*
X193025926Y-46370836D01*
X193018877Y-46386258D01*
X193015943Y-46394797D01*
X193011810Y-46402818D01*
X193010012Y-46407438D01*
X193007525Y-46413965D01*
X193007126Y-46414497D01*
X192992580Y-46444763D01*
X192978457Y-46473702D01*
X192962621Y-46487644D01*
X192937390Y-46509502D01*
X192911673Y-46531445D01*
X192903458Y-46538339D01*
X192883061Y-46543653D01*
X192872867Y-46547404D01*
X192862271Y-46549753D01*
X192857570Y-46551325D01*
X192841362Y-46556874D01*
X192816375Y-46568261D01*
X192790952Y-46578620D01*
X192786582Y-46580960D01*
X192774630Y-46587468D01*
X192771149Y-46589831D01*
X192767317Y-46591563D01*
X192742514Y-46609268D01*
X192717306Y-46626380D01*
X192714353Y-46629372D01*
X192710927Y-46631817D01*
X192707215Y-46635103D01*
X192697486Y-46643839D01*
X192677947Y-46665179D01*
X192657751Y-46685849D01*
X192654676Y-46689737D01*
X192645140Y-46701970D01*
X192640303Y-46709612D01*
X192634421Y-46716468D01*
X192631604Y-46720547D01*
X192626770Y-46727653D01*
X192620030Y-46737380D01*
X192610028Y-46751212D01*
X192596836Y-46768997D01*
X192582630Y-46787729D01*
X192577592Y-46794262D01*
X192577555Y-46794322D01*
X192575257Y-46797324D01*
X192556380Y-46822359D01*
X192553719Y-46826715D01*
X192550377Y-46830563D01*
X192547535Y-46834624D01*
X192533247Y-46855355D01*
X192528636Y-46863682D01*
X192522896Y-46871268D01*
X192520334Y-46875512D01*
X192509453Y-46893829D01*
X192504201Y-46905035D01*
X192497587Y-46915487D01*
X192495388Y-46919929D01*
X192486738Y-46937725D01*
X192484100Y-46944848D01*
X192480410Y-46951482D01*
X192478466Y-46956042D01*
X192475118Y-46964052D01*
X192475074Y-46964195D01*
X192475008Y-46964318D01*
X192473132Y-46968906D01*
X192458545Y-47005312D01*
X192453423Y-47022903D01*
X192446700Y-47039948D01*
X192443760Y-47056088D01*
X192439175Y-47071833D01*
X192437567Y-47090081D01*
X192434283Y-47108109D01*
X192434534Y-47124510D01*
X192433094Y-47140850D01*
X192435062Y-47159068D01*
X192435342Y-47177385D01*
X192435935Y-47182306D01*
X192440775Y-47220215D01*
X192442334Y-47234451D01*
X192443556Y-47248377D01*
X192439679Y-47257568D01*
X192435161Y-47279438D01*
X192429135Y-47300927D01*
X192428302Y-47305814D01*
X192426873Y-47314574D01*
X192426411Y-47321796D01*
X192425662Y-47325419D01*
X192425586Y-47334672D01*
X192424884Y-47345628D01*
X192422276Y-47376643D01*
X192422379Y-47381599D01*
X192422631Y-47390652D01*
X192418531Y-47409795D01*
X192418005Y-47414725D01*
X192417287Y-47421934D01*
X192417272Y-47431952D01*
X192416690Y-47435518D01*
X192416758Y-47437518D01*
X192415738Y-47445245D01*
X192417216Y-47468207D01*
X192417181Y-47491217D01*
X192418861Y-47499773D01*
X192419030Y-47504762D01*
X192419775Y-47507955D01*
X192420189Y-47514385D01*
X192426099Y-47536620D01*
X192430534Y-47559203D01*
X192433317Y-47565984D01*
X192434775Y-47572233D01*
X192436687Y-47576461D01*
X192437985Y-47581344D01*
X192439751Y-47585976D01*
X192440176Y-47587067D01*
X192449587Y-47605629D01*
X192456838Y-47623299D01*
X192460093Y-47628215D01*
X192463325Y-47635361D01*
X192467925Y-47641802D01*
X192471505Y-47648863D01*
X192486092Y-47667477D01*
X192495090Y-47681066D01*
X192498244Y-47684252D01*
X192503593Y-47691741D01*
X192509357Y-47697166D01*
X192514240Y-47703397D01*
X192534237Y-47720607D01*
X192543835Y-47730302D01*
X192546430Y-47732058D01*
X192554046Y-47739226D01*
X192560751Y-47743426D01*
X192566753Y-47748592D01*
X192590073Y-47761795D01*
X192594079Y-47764304D01*
X192601214Y-47769133D01*
X192602971Y-47769875D01*
X192612760Y-47776007D01*
X192620152Y-47778825D01*
X192627045Y-47782727D01*
X192652484Y-47791148D01*
X192661530Y-47794596D01*
X192665043Y-47796079D01*
X192665870Y-47796250D01*
X192677500Y-47800683D01*
X192685302Y-47802012D01*
X192692819Y-47804500D01*
X192719393Y-47807818D01*
X192745801Y-47812315D01*
X192750748Y-47812632D01*
X192755200Y-47812886D01*
X192758811Y-47812739D01*
X192761569Y-47813083D01*
X192762030Y-47813050D01*
X192763687Y-47813268D01*
X192768642Y-47813397D01*
X192781321Y-47813639D01*
X192781406Y-47813632D01*
X192784111Y-47813682D01*
X192804777Y-47813914D01*
X192804850Y-47813908D01*
X192806026Y-47813925D01*
X192834438Y-47814144D01*
X192834475Y-47814141D01*
X192835118Y-47814149D01*
X192871038Y-47814357D01*
X192871068Y-47814354D01*
X192871482Y-47814359D01*
X192914665Y-47814555D01*
X192914678Y-47814554D01*
X192914976Y-47814557D01*
X192965186Y-47814741D01*
X192965208Y-47814739D01*
X192965416Y-47814741D01*
X193022410Y-47814913D01*
X193022417Y-47814912D01*
X193022594Y-47814914D01*
X193086134Y-47815073D01*
X193086146Y-47815072D01*
X193086276Y-47815073D01*
X193156123Y-47815220D01*
X193156133Y-47815219D01*
X193156239Y-47815220D01*
X193232132Y-47815355D01*
X193232251Y-47815356D01*
X193313988Y-47815478D01*
X193313995Y-47815477D01*
X193314075Y-47815478D01*
X193401396Y-47815587D01*
X193401402Y-47815586D01*
X193401471Y-47815587D01*
X193494138Y-47815683D01*
X193494205Y-47815683D01*
X193591976Y-47815766D01*
X193592035Y-47815766D01*
X193694670Y-47815836D01*
X193694723Y-47815836D01*
X193801983Y-47815893D01*
X193802035Y-47815893D01*
X193913679Y-47815936D01*
X193913727Y-47815936D01*
X194029515Y-47815965D01*
X194029557Y-47815965D01*
X194149249Y-47815981D01*
X194149290Y-47815981D01*
X194272645Y-47815983D01*
X194272685Y-47815983D01*
X194399464Y-47815971D01*
X194399504Y-47815971D01*
X194529467Y-47815944D01*
X194529500Y-47815944D01*
X194662406Y-47815904D01*
X194662443Y-47815904D01*
X194798052Y-47815849D01*
X194798085Y-47815849D01*
X194936157Y-47815780D01*
X194936193Y-47815780D01*
X195076488Y-47815696D01*
X195076522Y-47815696D01*
X195218800Y-47815597D01*
X195218834Y-47815597D01*
X195362854Y-47815483D01*
X195362888Y-47815483D01*
X195508411Y-47815354D01*
X195508444Y-47815354D01*
X195655229Y-47815210D01*
X195655263Y-47815210D01*
X195803070Y-47815051D01*
X195803101Y-47815051D01*
X195908022Y-47814929D01*
X195908034Y-47814929D01*
X197004493Y-47813617D01*
X197037573Y-47810333D01*
X197070597Y-47807327D01*
X197071991Y-47806917D01*
X197073438Y-47806773D01*
X197105240Y-47797130D01*
X197137061Y-47787764D01*
X197138347Y-47787092D01*
X197139741Y-47786669D01*
X197169124Y-47771000D01*
X197198460Y-47755663D01*
X197199589Y-47754755D01*
X197200876Y-47754069D01*
X197226657Y-47732991D01*
X197252454Y-47712249D01*
X197253386Y-47711138D01*
X197254514Y-47710216D01*
X197275686Y-47684560D01*
X197296988Y-47659173D01*
X197297687Y-47657901D01*
X197298614Y-47656778D01*
X197314402Y-47627495D01*
X197330364Y-47598458D01*
X197330803Y-47597076D01*
X197331494Y-47595793D01*
X197341286Y-47564025D01*
X197351312Y-47532417D01*
X197351474Y-47530973D01*
X197351902Y-47529584D01*
X197355335Y-47496543D01*
X197359033Y-47463565D01*
X197359053Y-47460758D01*
X197359062Y-47460670D01*
X197359054Y-47460584D01*
X197359068Y-47458608D01*
X197359043Y-46437324D01*
X197359022Y-45598992D01*
X197361663Y-45597202D01*
X197372012Y-45592004D01*
X197376186Y-45589329D01*
X197385125Y-45583508D01*
X197394503Y-45576003D01*
X197404757Y-45569760D01*
X197421482Y-45554415D01*
X197439221Y-45540220D01*
X197446965Y-45531035D01*
X197455809Y-45522920D01*
X197459092Y-45519206D01*
X197467305Y-45509778D01*
X197480494Y-45491263D01*
X197483878Y-45487249D01*
X197485318Y-45484645D01*
X197501060Y-45464121D01*
X197503650Y-45459894D01*
X197512195Y-45445723D01*
X197517457Y-45434687D01*
X197524072Y-45424402D01*
X197526303Y-45419975D01*
X197536233Y-45399928D01*
X197537190Y-45397402D01*
X197538580Y-45395096D01*
X197540682Y-45390607D01*
X197546240Y-45378515D01*
X197555859Y-45359726D01*
X197563946Y-45347323D01*
X197564492Y-45346699D01*
X197567349Y-45342648D01*
X197588568Y-45312104D01*
X197599937Y-45291751D01*
X197612584Y-45272174D01*
X197614824Y-45267752D01*
X197628559Y-45240159D01*
X197628628Y-45239979D01*
X197628725Y-45239823D01*
X197640857Y-45207888D01*
X197653232Y-45175417D01*
X197653264Y-45175230D01*
X197653330Y-45175056D01*
X197654597Y-45170263D01*
X197661068Y-45145063D01*
X197662318Y-45136991D01*
X197664754Y-45129204D01*
X197667607Y-45102832D01*
X197671669Y-45076595D01*
X197671327Y-45068436D01*
X197672205Y-45060322D01*
X197672220Y-45055365D01*
X197672140Y-45035139D01*
X197670049Y-45014644D01*
X197669591Y-44994054D01*
X197668963Y-44989137D01*
X197666312Y-44969462D01*
X197664735Y-44962779D01*
X197664222Y-44955927D01*
X197656792Y-44929110D01*
X197650404Y-44902030D01*
X197647558Y-44895777D01*
X197645724Y-44889158D01*
X197633230Y-44864301D01*
X197621701Y-44838971D01*
X197617695Y-44833391D01*
X197614610Y-44827253D01*
X197597519Y-44805287D01*
X197581296Y-44782689D01*
X197576284Y-44777994D01*
X197572065Y-44772572D01*
X197551046Y-44754356D01*
X197530730Y-44735326D01*
X197524895Y-44731691D01*
X197519708Y-44727195D01*
X197515644Y-44724358D01*
X197454030Y-44681988D01*
X197450299Y-44679382D01*
X197451067Y-44672843D01*
X197451414Y-44654730D01*
X197453449Y-44636734D01*
X197453489Y-44631777D01*
X197453520Y-44598248D01*
X197452163Y-44584271D01*
X197452440Y-44570255D01*
X197452020Y-44565315D01*
X197448795Y-44530350D01*
X197446415Y-44517954D01*
X197446015Y-44511827D01*
X197448681Y-44505615D01*
X197452798Y-44486297D01*
X197458534Y-44467363D01*
X197460008Y-44452467D01*
X197463123Y-44437853D01*
X197463645Y-44432924D01*
X197464571Y-44423532D01*
X197464580Y-44406272D01*
X197465358Y-44398416D01*
X197464638Y-44391005D01*
X197465134Y-44370713D01*
X197466778Y-44363102D01*
X197466844Y-44362490D01*
X197480222Y-44341011D01*
X197480731Y-44339964D01*
X197480943Y-44339667D01*
X197491839Y-44324173D01*
X197497361Y-44314418D01*
X197504120Y-44305483D01*
X197514389Y-44284340D01*
X197525971Y-44263880D01*
X197529493Y-44253240D01*
X197534388Y-44243161D01*
X197536076Y-44238500D01*
X197543100Y-44218670D01*
X197547557Y-44200666D01*
X197551789Y-44189654D01*
X197552618Y-44186565D01*
X197554615Y-44182537D01*
X197556340Y-44177890D01*
X197562241Y-44161652D01*
X197563941Y-44155017D01*
X197566656Y-44148732D01*
X197572521Y-44121523D01*
X197579435Y-44094536D01*
X197579814Y-44087694D01*
X197581256Y-44081004D01*
X197581789Y-44076076D01*
X197582768Y-44066383D01*
X197585361Y-44056007D01*
X197586150Y-44050683D01*
X197587801Y-44045573D01*
X197588824Y-44040723D01*
X197589881Y-44035530D01*
X197590103Y-44034998D01*
X197592703Y-44030707D01*
X197596822Y-44019400D01*
X197598803Y-44015759D01*
X197600723Y-44009612D01*
X197612830Y-43981535D01*
X197613270Y-43979487D01*
X197614075Y-43977558D01*
X197620535Y-43945673D01*
X197622590Y-43936109D01*
X197624110Y-43930987D01*
X197624432Y-43927538D01*
X197627384Y-43913797D01*
X197627418Y-43911703D01*
X197627833Y-43909654D01*
X197628304Y-43904719D01*
X197629167Y-43894959D01*
X197629009Y-43878447D01*
X197630543Y-43862002D01*
X197630485Y-43857045D01*
X197630235Y-43843693D01*
X197629144Y-43834372D01*
X197629391Y-43824995D01*
X197629003Y-43820053D01*
X197627756Y-43805489D01*
X197625870Y-43795306D01*
X197625395Y-43784964D01*
X197624651Y-43780063D01*
X197623267Y-43771353D01*
X197623329Y-43770661D01*
X197625745Y-43751747D01*
X197626667Y-43745717D01*
X197629601Y-43726745D01*
X197629784Y-43723460D01*
X197630543Y-43720258D01*
X197631176Y-43715341D01*
X197632759Y-43702321D01*
X197633148Y-43685615D01*
X197635224Y-43669051D01*
X197635324Y-43664095D01*
X197635432Y-43655797D01*
X197634566Y-43645606D01*
X197635111Y-43635394D01*
X197631641Y-43611159D01*
X197629569Y-43586762D01*
X197629137Y-43585261D01*
X197634361Y-43573113D01*
X197637881Y-43556654D01*
X197639158Y-43553409D01*
X197640242Y-43547435D01*
X197644823Y-43531870D01*
X197645718Y-43526994D01*
X197647328Y-43517862D01*
X197647975Y-43509446D01*
X197648849Y-43505361D01*
X197648938Y-43499532D01*
X197651532Y-43485239D01*
X197651903Y-43480296D01*
X197652939Y-43465052D01*
X197652881Y-43463102D01*
X197653180Y-43461182D01*
X197653428Y-43456231D01*
X197653755Y-43448626D01*
X197653731Y-43448187D01*
X197653791Y-43447755D01*
X197653958Y-43442801D01*
X197654410Y-43425782D01*
X197654212Y-43422999D01*
X197654513Y-43420235D01*
X197654533Y-43415278D01*
X197654491Y-43401462D01*
X197653704Y-43393679D01*
X197654101Y-43385862D01*
X197653833Y-43380912D01*
X197653320Y-43372507D01*
X197652631Y-43368201D01*
X197652612Y-43361909D01*
X197652765Y-43361167D01*
X197656982Y-43349229D01*
X197658879Y-43336156D01*
X197662339Y-43323424D01*
X197663132Y-43318531D01*
X197664122Y-43312138D01*
X197664610Y-43303426D01*
X197666364Y-43294873D01*
X197666438Y-43284073D01*
X197666933Y-43280663D01*
X197666517Y-43272569D01*
X197666542Y-43268889D01*
X197667993Y-43242962D01*
X197666779Y-43234322D01*
X197666839Y-43225591D01*
X197666641Y-43224554D01*
X197666799Y-43223966D01*
X197668097Y-43204533D01*
X197671056Y-43185274D01*
X197670400Y-43170044D01*
X197671416Y-43154836D01*
X197668914Y-43135517D01*
X197668835Y-43133691D01*
X197669039Y-43126929D01*
X197667849Y-43109350D01*
X197668354Y-43091744D01*
X197668094Y-43088321D01*
X197670974Y-43078777D01*
X197671051Y-43078550D01*
X197671058Y-43078496D01*
X197672133Y-43074934D01*
X197673062Y-43070065D01*
X197674704Y-43061110D01*
X197675487Y-43051762D01*
X197676502Y-43047084D01*
X197676674Y-43037597D01*
X197676856Y-43035425D01*
X197680294Y-43009886D01*
X197679807Y-43002005D01*
X197681300Y-42992617D01*
X197686788Y-42963027D01*
X197686733Y-42958452D01*
X197687452Y-42953928D01*
X197686916Y-42939765D01*
X197687365Y-42936093D01*
X197686287Y-42921536D01*
X197685951Y-42893748D01*
X197685373Y-42888825D01*
X197684749Y-42883810D01*
X197683271Y-42877248D01*
X197684516Y-42864363D01*
X197687551Y-42850107D01*
X197688071Y-42845177D01*
X197689018Y-42835551D01*
X197689023Y-42817709D01*
X197689776Y-42809920D01*
X197689257Y-42804706D01*
X197690296Y-42783389D01*
X197689955Y-42781084D01*
X197693402Y-42771968D01*
X197694661Y-42767174D01*
X197699145Y-42749598D01*
X197699672Y-42746156D01*
X197700456Y-42743926D01*
X197701602Y-42739104D01*
X197701783Y-42738317D01*
X197701920Y-42737895D01*
X197702390Y-42735682D01*
X197704313Y-42727326D01*
X197705080Y-42724587D01*
X197707449Y-42717636D01*
X197707485Y-42717482D01*
X197707574Y-42717286D01*
X197709138Y-42712582D01*
X197714397Y-42696377D01*
X197717273Y-42683274D01*
X197718964Y-42681445D01*
X197730777Y-42662214D01*
X197743882Y-42643824D01*
X197748875Y-42632753D01*
X197755228Y-42622410D01*
X197763082Y-42601248D01*
X197772364Y-42580665D01*
X197775111Y-42568837D01*
X197779335Y-42557455D01*
X197782929Y-42535170D01*
X197786468Y-42519932D01*
X197791534Y-42509415D01*
X197793208Y-42504748D01*
X197797709Y-42491909D01*
X197802437Y-42472546D01*
X197803721Y-42468790D01*
X197804172Y-42465439D01*
X197804894Y-42462485D01*
X197812792Y-42433301D01*
X197813580Y-42428407D01*
X197816035Y-42412442D01*
X197816040Y-42412359D01*
X197816463Y-42409585D01*
X197817518Y-42402335D01*
X197820243Y-42392361D01*
X197820760Y-42389327D01*
X197821805Y-42386440D01*
X197822996Y-42381628D01*
X197827406Y-42363245D01*
X197827536Y-42362308D01*
X197827838Y-42361420D01*
X197828936Y-42356586D01*
X197833465Y-42335965D01*
X197833479Y-42335847D01*
X197833513Y-42335743D01*
X197834540Y-42330893D01*
X197836452Y-42321540D01*
X197839436Y-42307329D01*
X197845180Y-42297549D01*
X197852235Y-42282298D01*
X197860789Y-42267838D01*
X197862853Y-42263331D01*
X197868730Y-42250258D01*
X197873203Y-42236970D01*
X197874269Y-42234667D01*
X197875015Y-42231590D01*
X197879137Y-42219345D01*
X197889898Y-42188552D01*
X197890819Y-42184645D01*
X197890836Y-42184596D01*
X197890842Y-42184549D01*
X197891036Y-42183727D01*
X197893664Y-42172218D01*
X197895530Y-42157579D01*
X197895543Y-42157515D01*
X197898808Y-42150337D01*
X197904565Y-42125902D01*
X197908075Y-42113937D01*
X197910259Y-42107358D01*
X197910449Y-42105843D01*
X197911633Y-42101808D01*
X197912524Y-42096931D01*
X197913695Y-42090255D01*
X197914043Y-42085675D01*
X197914697Y-42082900D01*
X197915093Y-42071868D01*
X197915664Y-42064357D01*
X197918900Y-42038615D01*
X197919001Y-42033659D01*
X197919146Y-42022791D01*
X197918512Y-42015293D01*
X197919029Y-42007788D01*
X197918852Y-42002834D01*
X197918137Y-41986173D01*
X197918115Y-41986019D01*
X197918123Y-41985873D01*
X197917872Y-41980922D01*
X197917007Y-41965947D01*
X197916763Y-41964389D01*
X197916812Y-41962813D01*
X197916448Y-41957869D01*
X197914525Y-41934035D01*
X197913428Y-41927947D01*
X197913320Y-41921763D01*
X197912716Y-41916843D01*
X197910142Y-41897033D01*
X197908437Y-41889650D01*
X197910718Y-41880250D01*
X197914561Y-41853047D01*
X197915521Y-41849635D01*
X197916100Y-41842309D01*
X197920329Y-41813403D01*
X197920383Y-41812080D01*
X197922679Y-41802151D01*
X197922977Y-41792784D01*
X197924606Y-41783546D01*
X197924274Y-41767698D01*
X197925103Y-41761147D01*
X197924334Y-41750120D01*
X197924881Y-41732902D01*
X197924520Y-41727958D01*
X197924110Y-41722839D01*
X197923234Y-41717961D01*
X197923157Y-41714278D01*
X197921216Y-41705451D01*
X197920280Y-41692031D01*
X197920233Y-41691859D01*
X197921368Y-41685649D01*
X197921744Y-41680707D01*
X197922289Y-41672820D01*
X197922083Y-41665660D01*
X197922549Y-41661544D01*
X197921894Y-41653647D01*
X197922975Y-41637737D01*
X197920954Y-41621990D01*
X197924365Y-41610162D01*
X197924962Y-41603174D01*
X197926638Y-41596367D01*
X197927908Y-41568718D01*
X197930267Y-41541130D01*
X197929495Y-41534157D01*
X197929817Y-41527156D01*
X197929525Y-41522208D01*
X197929068Y-41515274D01*
X197924384Y-41486892D01*
X197923623Y-41481088D01*
X197922647Y-41472266D01*
X197922338Y-41471287D01*
X197920640Y-41458338D01*
X197919485Y-41453517D01*
X197916673Y-41442129D01*
X197915478Y-41438750D01*
X197914892Y-41435217D01*
X197913574Y-41430438D01*
X197910797Y-41420639D01*
X197908475Y-41414721D01*
X197913426Y-41406701D01*
X197922001Y-41383753D01*
X197931872Y-41361355D01*
X197933386Y-41356635D01*
X197935737Y-41349126D01*
X197936742Y-41344306D01*
X197937679Y-41341800D01*
X197937881Y-41340562D01*
X197939447Y-41336452D01*
X197944152Y-41308783D01*
X197949885Y-41281302D01*
X197949952Y-41274679D01*
X197951063Y-41268148D01*
X197950533Y-41248557D01*
X197956772Y-41234307D01*
X197956936Y-41233804D01*
X197957190Y-41233347D01*
X197967626Y-41200989D01*
X197978232Y-41168430D01*
X197978295Y-41167907D01*
X197978456Y-41167407D01*
X197979476Y-41162556D01*
X197983473Y-41142866D01*
X197985957Y-41118727D01*
X197989853Y-41094776D01*
X197990133Y-41089827D01*
X197991215Y-41068008D01*
X197990971Y-41062947D01*
X197991572Y-41057913D01*
X197991642Y-41052956D01*
X197991891Y-41018031D01*
X197991888Y-41018003D01*
X197991891Y-41017978D01*
X197988868Y-40984755D01*
X197985622Y-40949031D01*
X197985614Y-40949005D01*
X197985612Y-40948980D01*
X197976621Y-40918430D01*
X197966070Y-40882563D01*
X197966057Y-40882537D01*
X197966050Y-40882515D01*
X197950828Y-40853397D01*
X197933980Y-40821159D01*
X197933963Y-40821138D01*
X197933951Y-40821115D01*
X197913376Y-40795525D01*
X197890575Y-40767157D01*
X197890553Y-40767138D01*
X197890538Y-40767120D01*
X197863116Y-40744110D01*
X197837506Y-40722615D01*
X197837485Y-40722603D01*
X197837463Y-40722585D01*
X197805476Y-40705000D01*
X197776798Y-40689228D01*
X197776772Y-40689220D01*
X197776749Y-40689207D01*
X197742851Y-40678454D01*
X197710760Y-40668269D01*
X197710735Y-40668266D01*
X197710709Y-40668258D01*
X197674814Y-40664232D01*
X197641909Y-40660536D01*
X197641884Y-40660538D01*
X197641857Y-40660535D01*
X197636900Y-40660500D01*
X196306846Y-40660500D01*
X196306927Y-40647746D01*
X196306920Y-40647668D01*
X196306933Y-40646247D01*
X196306998Y-40616094D01*
X196306990Y-40616008D01*
X196306995Y-40613647D01*
X196306881Y-40589587D01*
X196306875Y-40589532D01*
X196306839Y-40585531D01*
X196306539Y-40566972D01*
X196306416Y-40565897D01*
X196306497Y-40564827D01*
X196306353Y-40559872D01*
X196305859Y-40546221D01*
X196305286Y-40541971D01*
X196305447Y-40537691D01*
X196305114Y-40532745D01*
X196304420Y-40523408D01*
X196302256Y-40510947D01*
X196301654Y-40498306D01*
X196300902Y-40493406D01*
X196300000Y-40487792D01*
X196297937Y-40479945D01*
X196297906Y-40479544D01*
X196297507Y-40478123D01*
X196296433Y-40468885D01*
X196293217Y-40458887D01*
X196292567Y-40455146D01*
X196289192Y-40446378D01*
X196288761Y-40445038D01*
X196288034Y-40442270D01*
X196286623Y-40435489D01*
X196285643Y-40433174D01*
X196282386Y-40420785D01*
X196280107Y-40416097D01*
X196279192Y-40412836D01*
X196277028Y-40408565D01*
X196275215Y-40402930D01*
X196273212Y-40398396D01*
X196272094Y-40395910D01*
X196263559Y-40381027D01*
X196259605Y-40371691D01*
X196255769Y-40366037D01*
X196252093Y-40358475D01*
X196250744Y-40356693D01*
X196247876Y-40351033D01*
X196242206Y-40343794D01*
X196237626Y-40335808D01*
X196226908Y-40323493D01*
X196220709Y-40314355D01*
X196213807Y-40307537D01*
X196205153Y-40296489D01*
X196198184Y-40290489D01*
X196192141Y-40283545D01*
X196179976Y-40274121D01*
X196171417Y-40265666D01*
X196162558Y-40259814D01*
X196152650Y-40251283D01*
X196144646Y-40246749D01*
X196137371Y-40241113D01*
X196124520Y-40234687D01*
X196113608Y-40227479D01*
X196102879Y-40223090D01*
X196092366Y-40217135D01*
X196087821Y-40215156D01*
X196087224Y-40214901D01*
X196081051Y-40212951D01*
X196075403Y-40210127D01*
X196062565Y-40206599D01*
X196049482Y-40201247D01*
X196035111Y-40198441D01*
X196021158Y-40194034D01*
X196013926Y-40193232D01*
X196008596Y-40191767D01*
X195996366Y-40190876D01*
X195981482Y-40187970D01*
X195966839Y-40188009D01*
X195952296Y-40186396D01*
X195944264Y-40187080D01*
X195939495Y-40186733D01*
X195928319Y-40188112D01*
X195912199Y-40188155D01*
X195897850Y-40191036D01*
X195883262Y-40192279D01*
X195874809Y-40194714D01*
X195870733Y-40195217D01*
X195867663Y-40196228D01*
X195866473Y-40196367D01*
X195858485Y-40198939D01*
X195844271Y-40201793D01*
X195839539Y-40203271D01*
X195833548Y-40205189D01*
X195832125Y-40205803D01*
X195817608Y-40205477D01*
X195802528Y-40203631D01*
X195800430Y-40203786D01*
X195796226Y-40203324D01*
X195780842Y-40204651D01*
X195765386Y-40204304D01*
X195746395Y-40207623D01*
X195734421Y-40208656D01*
X195733432Y-40208729D01*
X195733367Y-40208747D01*
X195727200Y-40209279D01*
X195712359Y-40213572D01*
X195697136Y-40216232D01*
X195685102Y-40220879D01*
X195679989Y-40221955D01*
X195672846Y-40225000D01*
X195660644Y-40228529D01*
X195656052Y-40230396D01*
X195650626Y-40232647D01*
X195640230Y-40238205D01*
X195632503Y-40241189D01*
X195627619Y-40244278D01*
X195616253Y-40249123D01*
X195611921Y-40251532D01*
X195601059Y-40257674D01*
X195597466Y-40260198D01*
X195593501Y-40262072D01*
X195589265Y-40264647D01*
X195574503Y-40273764D01*
X195572974Y-40274929D01*
X195571251Y-40275796D01*
X195567080Y-40278475D01*
X195551372Y-40288721D01*
X195534663Y-40294348D01*
X195527861Y-40298245D01*
X195520543Y-40301074D01*
X195504791Y-40311046D01*
X195504375Y-40311227D01*
X195503041Y-40312153D01*
X195497847Y-40315441D01*
X195474548Y-40328790D01*
X195468630Y-40333936D01*
X195462002Y-40338132D01*
X195452167Y-40347477D01*
X195447464Y-40350742D01*
X195437762Y-40360779D01*
X195422267Y-40374254D01*
X195418887Y-40377880D01*
X195416065Y-40380950D01*
X195413871Y-40383862D01*
X195411775Y-40385854D01*
X195407004Y-40392601D01*
X195399313Y-40400558D01*
X195387492Y-40418882D01*
X195374379Y-40436290D01*
X195368759Y-40447920D01*
X195361754Y-40458779D01*
X195353720Y-40479043D01*
X195344235Y-40498672D01*
X195340980Y-40511177D01*
X195336219Y-40523186D01*
X195332274Y-40544626D01*
X195326783Y-40565722D01*
X195326019Y-40578619D01*
X195323681Y-40591325D01*
X195323975Y-40613118D01*
X195322686Y-40634885D01*
X195324038Y-40644740D01*
X195322387Y-40654389D01*
X195316620Y-40685853D01*
X195315878Y-40689805D01*
X195309889Y-40721240D01*
X195307603Y-40732704D01*
X195304387Y-40739598D01*
X195301976Y-40746440D01*
X195300186Y-40749888D01*
X195298429Y-40755920D01*
X195292488Y-40768326D01*
X195290825Y-40772996D01*
X195287106Y-40783683D01*
X195285120Y-40791899D01*
X195281948Y-40799723D01*
X195280575Y-40804486D01*
X195276461Y-40819152D01*
X195275819Y-40822766D01*
X195274561Y-40826206D01*
X195273354Y-40831014D01*
X195268562Y-40850686D01*
X195268441Y-40851539D01*
X195268160Y-40852354D01*
X195267044Y-40857184D01*
X195261291Y-40882889D01*
X195261281Y-40882967D01*
X195260545Y-40886302D01*
X195253551Y-40919066D01*
X195253543Y-40919134D01*
X195253296Y-40920273D01*
X195251537Y-40928656D01*
X195251529Y-40928732D01*
X195250811Y-40932205D01*
X195239982Y-40986568D01*
X195239800Y-40988399D01*
X195239288Y-40990154D01*
X195238403Y-40995031D01*
X195234016Y-41020229D01*
X195219939Y-41021025D01*
X195215046Y-41021821D01*
X195203933Y-41023708D01*
X195192654Y-41026780D01*
X195188324Y-41027423D01*
X195181981Y-41029687D01*
X195177860Y-41030810D01*
X195174163Y-41031647D01*
X195168975Y-41032385D01*
X195165436Y-41033624D01*
X195151525Y-41036775D01*
X195146832Y-41038369D01*
X195136486Y-41041964D01*
X195120349Y-41049408D01*
X195103583Y-41055277D01*
X195099101Y-41057395D01*
X195086959Y-41063237D01*
X195084268Y-41064873D01*
X195081332Y-41066006D01*
X195076919Y-41068264D01*
X195069748Y-41071998D01*
X195068263Y-41072966D01*
X195066637Y-41073639D01*
X195062279Y-41076002D01*
X195046513Y-41084696D01*
X195031944Y-41094699D01*
X195016487Y-41103258D01*
X195013758Y-41105166D01*
X195000205Y-41106059D01*
X195000170Y-41106065D01*
X194999701Y-41106093D01*
X194969352Y-41108135D01*
X194969346Y-41108136D01*
X194969279Y-41108140D01*
X194942566Y-41109943D01*
X194919286Y-41111478D01*
X194899643Y-41112740D01*
X194886406Y-41113552D01*
X194879643Y-41113915D01*
X194854434Y-41117762D01*
X194824569Y-41121058D01*
X194821696Y-41121964D01*
X194818714Y-41122344D01*
X194813926Y-41123943D01*
X194811153Y-41124366D01*
X194792925Y-41130956D01*
X194788693Y-41132369D01*
X194758492Y-41141891D01*
X194755854Y-41143335D01*
X194752998Y-41144289D01*
X194747704Y-41147304D01*
X194745996Y-41147922D01*
X194735242Y-41154403D01*
X194729754Y-41157529D01*
X194720731Y-41161428D01*
X194712710Y-41166955D01*
X194697719Y-41175162D01*
X194693645Y-41177983D01*
X194691017Y-41176704D01*
X194686358Y-41175012D01*
X194675941Y-41171313D01*
X194663135Y-41168132D01*
X194650815Y-41163428D01*
X194646025Y-41162153D01*
X194631806Y-41158476D01*
X194613520Y-41148876D01*
X194608915Y-41147043D01*
X194594787Y-41141535D01*
X194585963Y-41139055D01*
X194577584Y-41135333D01*
X194572868Y-41133805D01*
X194556965Y-41128776D01*
X194551217Y-41127560D01*
X194545746Y-41125431D01*
X194540964Y-41124126D01*
X194512488Y-41116571D01*
X194497087Y-41114061D01*
X194482052Y-41109911D01*
X194477162Y-41109099D01*
X194455110Y-41105594D01*
X194424016Y-41103731D01*
X194392987Y-41101254D01*
X194388031Y-41101378D01*
X194371397Y-41101911D01*
X194351084Y-41104562D01*
X194330634Y-41105578D01*
X194316818Y-41109034D01*
X194302696Y-41110877D01*
X194283292Y-41117420D01*
X194276453Y-41119131D01*
X194269851Y-41118961D01*
X194269847Y-41118961D01*
X194175344Y-41116526D01*
X194155318Y-41117970D01*
X194135233Y-41117761D01*
X194120842Y-41120455D01*
X194106240Y-41121508D01*
X194086871Y-41126815D01*
X194067132Y-41130511D01*
X194053540Y-41135948D01*
X194039419Y-41139818D01*
X194021448Y-41148788D01*
X194002805Y-41156246D01*
X193990528Y-41164220D01*
X193977427Y-41170759D01*
X193961539Y-41183049D01*
X193944702Y-41193985D01*
X193934211Y-41204188D01*
X193922626Y-41213150D01*
X193916485Y-41220196D01*
X193906379Y-41224728D01*
X193893142Y-41225689D01*
X193878653Y-41228179D01*
X193877883Y-41228174D01*
X193876942Y-41228354D01*
X193874337Y-41228513D01*
X193868805Y-41228634D01*
X193867446Y-41228934D01*
X193862720Y-41229223D01*
X193857831Y-41230040D01*
X193850151Y-41231380D01*
X193834039Y-41235847D01*
X193824860Y-41237425D01*
X193820318Y-41239164D01*
X193809828Y-41241167D01*
X193807144Y-41242252D01*
X193801153Y-41243575D01*
X193792500Y-41247365D01*
X193783386Y-41249892D01*
X193763493Y-41259896D01*
X193745594Y-41267131D01*
X193742000Y-41269484D01*
X193737689Y-41271372D01*
X193733381Y-41273824D01*
X193732325Y-41274435D01*
X193727032Y-41278232D01*
X193721488Y-41281020D01*
X193706210Y-41292913D01*
X193687626Y-41305078D01*
X193682200Y-41310393D01*
X193676029Y-41314820D01*
X193670532Y-41320685D01*
X193666815Y-41323578D01*
X193656025Y-41336032D01*
X193638131Y-41353561D01*
X193633838Y-41359832D01*
X193628648Y-41365370D01*
X193623609Y-41373451D01*
X193621450Y-41375943D01*
X193614956Y-41387327D01*
X193614309Y-41388364D01*
X193602712Y-41405307D01*
X193590420Y-41413039D01*
X193577067Y-41425653D01*
X193562612Y-41436985D01*
X193559052Y-41440434D01*
X193553916Y-41445480D01*
X193544533Y-41445165D01*
X193539446Y-41444289D01*
X193533858Y-41444428D01*
X193516503Y-41442729D01*
X193505172Y-41443842D01*
X193493795Y-41443459D01*
X193479559Y-41445784D01*
X193470183Y-41446018D01*
X193461785Y-41447900D01*
X193438178Y-41447900D01*
X193434429Y-41448268D01*
X193430684Y-41447980D01*
X193400029Y-41451641D01*
X193369225Y-41454661D01*
X193365620Y-41455750D01*
X193361889Y-41456195D01*
X193332529Y-41465740D01*
X193302898Y-41474686D01*
X193299572Y-41476454D01*
X193295999Y-41477616D01*
X193269034Y-41492692D01*
X193241724Y-41507213D01*
X193238809Y-41509591D01*
X193235526Y-41511426D01*
X193212005Y-41531451D01*
X193188033Y-41551002D01*
X193185632Y-41553904D01*
X193182771Y-41556340D01*
X193163572Y-41580571D01*
X193154005Y-41592136D01*
X193148308Y-41598118D01*
X193128659Y-41617107D01*
X193124456Y-41623159D01*
X193119373Y-41628496D01*
X193104724Y-41651574D01*
X193104189Y-41652345D01*
X193084158Y-41655956D01*
X193080734Y-41657299D01*
X193077140Y-41658024D01*
X193072409Y-41659506D01*
X193061951Y-41662864D01*
X193060583Y-41663456D01*
X193059130Y-41663783D01*
X193028793Y-41677214D01*
X192998367Y-41690382D01*
X192997142Y-41691227D01*
X192995778Y-41691831D01*
X192977386Y-41704748D01*
X192974587Y-41706161D01*
X192967722Y-41711523D01*
X192941337Y-41729725D01*
X192940295Y-41730797D01*
X192939080Y-41731650D01*
X192935343Y-41734907D01*
X192929623Y-41739965D01*
X192925154Y-41744771D01*
X192919985Y-41748808D01*
X192905466Y-41765623D01*
X192900440Y-41761410D01*
X192895705Y-41758171D01*
X192891557Y-41754204D01*
X192887636Y-41751171D01*
X192876820Y-41742924D01*
X192868815Y-41737975D01*
X192868574Y-41737750D01*
X192865725Y-41735980D01*
X192856436Y-41728487D01*
X192852274Y-41725795D01*
X192843420Y-41720156D01*
X192828353Y-41712515D01*
X192824109Y-41709437D01*
X192819791Y-41707447D01*
X192809721Y-41701191D01*
X192805260Y-41699029D01*
X192797283Y-41695233D01*
X192786858Y-41691470D01*
X192781629Y-41688818D01*
X192778682Y-41687990D01*
X192770559Y-41681356D01*
X192766413Y-41678638D01*
X192750607Y-41668437D01*
X192740519Y-41663244D01*
X192731213Y-41656780D01*
X192726868Y-41654392D01*
X192709535Y-41645026D01*
X192700356Y-41641170D01*
X192691808Y-41636079D01*
X192687308Y-41634001D01*
X192670100Y-41626203D01*
X192658403Y-41622226D01*
X192647296Y-41616809D01*
X192642638Y-41615114D01*
X192627213Y-41609622D01*
X192605456Y-41604198D01*
X192584126Y-41597284D01*
X192579277Y-41596257D01*
X192567289Y-41593805D01*
X192561227Y-41593172D01*
X192559987Y-41592863D01*
X192556750Y-41592705D01*
X192535251Y-41590460D01*
X192503232Y-41586675D01*
X192500805Y-41586864D01*
X192498380Y-41586611D01*
X192477036Y-41588569D01*
X192473165Y-41588005D01*
X192453042Y-41589030D01*
X192432487Y-41588405D01*
X192427724Y-41589199D01*
X192422900Y-41589183D01*
X192413288Y-41591054D01*
X192403970Y-41591528D01*
X192384763Y-41596358D01*
X192364145Y-41599794D01*
X192359633Y-41601495D01*
X192354892Y-41602418D01*
X192345638Y-41606197D01*
X192336778Y-41608425D01*
X192319180Y-41616749D01*
X192299317Y-41624239D01*
X192295218Y-41626786D01*
X192290750Y-41628611D01*
X192282254Y-41634216D01*
X192274148Y-41638050D01*
X192258747Y-41649452D01*
X192240472Y-41660810D01*
X192236946Y-41664105D01*
X192232917Y-41666763D01*
X192225552Y-41674029D01*
X192218464Y-41679277D01*
X192205746Y-41693261D01*
X192189851Y-41708115D01*
X192187032Y-41712032D01*
X192183596Y-41715422D01*
X192177707Y-41724092D01*
X192171849Y-41730533D01*
X192163713Y-41744029D01*
X192159031Y-41745099D01*
X192153870Y-41746823D01*
X192147224Y-41747405D01*
X192140445Y-41746930D01*
X192112758Y-41750423D01*
X192084969Y-41752856D01*
X192078445Y-41754752D01*
X192071706Y-41755602D01*
X192067409Y-41757030D01*
X192056871Y-41757544D01*
X192049073Y-41757219D01*
X192018186Y-41755288D01*
X192014498Y-41755781D01*
X192010784Y-41755627D01*
X191997624Y-41757668D01*
X191964233Y-41751280D01*
X191948315Y-41749823D01*
X191932647Y-41746698D01*
X191913910Y-41746673D01*
X191895238Y-41744963D01*
X191879336Y-41746626D01*
X191863364Y-41746604D01*
X191844980Y-41750218D01*
X191826329Y-41752168D01*
X191811057Y-41756886D01*
X191795381Y-41759968D01*
X191790644Y-41761427D01*
X191737961Y-41778060D01*
X191737891Y-41778090D01*
X191736468Y-41778535D01*
X191714826Y-41785473D01*
X191712545Y-41786459D01*
X191710131Y-41787015D01*
X191705443Y-41788626D01*
X191690364Y-41793928D01*
X191679449Y-41799012D01*
X191667986Y-41802659D01*
X191663445Y-41804647D01*
X191653392Y-41809133D01*
X191638282Y-41817734D01*
X191636850Y-41818262D01*
X191632794Y-41820740D01*
X191627558Y-41823179D01*
X191624302Y-41825559D01*
X191601773Y-41837523D01*
X191597662Y-41840292D01*
X191591096Y-41844783D01*
X191584771Y-41850085D01*
X191578027Y-41854206D01*
X191573590Y-41854733D01*
X191559547Y-41854760D01*
X191539265Y-41858816D01*
X191518733Y-41861258D01*
X191515648Y-41861957D01*
X191506443Y-41861270D01*
X191491546Y-41858484D01*
X191471966Y-41858693D01*
X191452451Y-41857234D01*
X191437414Y-41859061D01*
X191422267Y-41859222D01*
X191403106Y-41863228D01*
X191383673Y-41865589D01*
X191380105Y-41866757D01*
X191360180Y-41865384D01*
X191346685Y-41867102D01*
X191333090Y-41867207D01*
X191312411Y-41871467D01*
X191291451Y-41874136D01*
X191278546Y-41878443D01*
X191265232Y-41881186D01*
X191245774Y-41889382D01*
X191225732Y-41896071D01*
X191213909Y-41902803D01*
X191201380Y-41908080D01*
X191183888Y-41919896D01*
X191165524Y-41930353D01*
X191155604Y-41938934D01*
X191151296Y-41941667D01*
X191150402Y-41942518D01*
X191143969Y-41946864D01*
X191129101Y-41961857D01*
X191113122Y-41975678D01*
X191106049Y-41984750D01*
X191101119Y-41989444D01*
X191099578Y-41991628D01*
X191095184Y-41996059D01*
X191083504Y-42013666D01*
X191070522Y-42030317D01*
X191066125Y-42039044D01*
X191061178Y-42046055D01*
X191059462Y-42049909D01*
X191056884Y-42053795D01*
X191054590Y-42058189D01*
X191053980Y-42059378D01*
X191047084Y-42076831D01*
X191039345Y-42092190D01*
X191037200Y-42099903D01*
X191032994Y-42109348D01*
X191031312Y-42116751D01*
X191028521Y-42123814D01*
X191024630Y-42145097D01*
X191020780Y-42158941D01*
X191020307Y-42165175D01*
X191017640Y-42176909D01*
X191017427Y-42184499D01*
X191016062Y-42191969D01*
X191016420Y-42216351D01*
X191015534Y-42228025D01*
X144903761Y-42228025D01*
X144903760Y-36244155D01*
X205053761Y-36244155D01*
X205053761Y-92094154D01*
X205053761Y-92094154D01*
G37*
X205053761Y-92094154D02*
X144903761Y-92094155D01*
X144903761Y-90275000D01*
X179925000Y-90275000D01*
X179925000Y-90775000D01*
X179960694Y-91037411D01*
X180046896Y-91287816D01*
X180180294Y-91516593D01*
X180355761Y-91714949D01*
X180566553Y-91875262D01*
X180804571Y-91991371D01*
X181014574Y-92049643D01*
X181225000Y-91986510D01*
X181225000Y-90275000D01*
X181325000Y-90275000D01*
X181325000Y-91986510D01*
X181535426Y-92049643D01*
X181745429Y-91991371D01*
X181983447Y-91875262D01*
X182194239Y-91714949D01*
X182369706Y-91516593D01*
X182503104Y-91287816D01*
X182589306Y-91037411D01*
X182625000Y-90775000D01*
X182625000Y-90275000D01*
X181325000Y-90275000D01*
X181225000Y-90275000D01*
X179925000Y-90275000D01*
X144903761Y-90275000D01*
X144903761Y-89675000D01*
X179925000Y-89675000D01*
X179925000Y-90175000D01*
X181225000Y-90175000D01*
X181225000Y-88463490D01*
X181325000Y-88463490D01*
X181325000Y-90175000D01*
X182625000Y-90175000D01*
X182625000Y-89675000D01*
X182589306Y-89412589D01*
X182503104Y-89162184D01*
X182369706Y-88933407D01*
X182194239Y-88735051D01*
X181983447Y-88574738D01*
X181745429Y-88458629D01*
X181535426Y-88400357D01*
X181325000Y-88463490D01*
X181225000Y-88463490D01*
X181014574Y-88400357D01*
X180804571Y-88458629D01*
X180566553Y-88574738D01*
X180355761Y-88735051D01*
X180180294Y-88933407D01*
X180046896Y-89162184D01*
X179960694Y-89412589D01*
X179925000Y-89675000D01*
X144903761Y-89675000D01*
X144903761Y-76241099D01*
X196150046Y-76241099D01*
X196164505Y-76406358D01*
X196210787Y-76565662D01*
X196287130Y-76712943D01*
X196390626Y-76842590D01*
X196398959Y-76851041D01*
X197035867Y-77487949D01*
X197035867Y-88666757D01*
X196930454Y-88751511D01*
X196761097Y-88953344D01*
X196634167Y-89184227D01*
X196554501Y-89435368D01*
X196525132Y-89697200D01*
X196525000Y-89716049D01*
X196525000Y-90733951D01*
X196550711Y-90996167D01*
X196626863Y-91248396D01*
X196750556Y-91481030D01*
X196917080Y-91685207D01*
X197120090Y-91853152D01*
X197351854Y-91978466D01*
X197603545Y-92056378D01*
X197865575Y-92083918D01*
X198127965Y-92060039D01*
X198380719Y-91985649D01*
X198614210Y-91863583D01*
X198819546Y-91698489D01*
X198988903Y-91496656D01*
X199115833Y-91265773D01*
X199195499Y-91014632D01*
X199224868Y-90752800D01*
X199225000Y-90733951D01*
X199225000Y-89716049D01*
X199199289Y-89453833D01*
X199123137Y-89201604D01*
X198999444Y-88968970D01*
X198832920Y-88764793D01*
X198735867Y-88684504D01*
X198735867Y-77135867D01*
X198728207Y-77057743D01*
X198721362Y-76979509D01*
X198720115Y-76975218D01*
X198719679Y-76970768D01*
X198696980Y-76895587D01*
X198675080Y-76820205D01*
X198673023Y-76816237D01*
X198671731Y-76811957D01*
X198634863Y-76742618D01*
X198598737Y-76672924D01*
X198595949Y-76669431D01*
X198593850Y-76665484D01*
X198544218Y-76604629D01*
X198495241Y-76543277D01*
X198489104Y-76537053D01*
X198489002Y-76536928D01*
X198488886Y-76536832D01*
X198486908Y-76534826D01*
X197601041Y-75648959D01*
X197472851Y-75543663D01*
X197326651Y-75465271D01*
X197168009Y-75416769D01*
X197002967Y-75400005D01*
X196837812Y-75415617D01*
X196678835Y-75463010D01*
X196532091Y-75540379D01*
X196403170Y-75644778D01*
X196296982Y-75772229D01*
X196217571Y-75917879D01*
X196167962Y-76076178D01*
X196150046Y-76241099D01*
X144903761Y-76241099D01*
X144903761Y-64305778D01*
X145522174Y-64305778D01*
X145598287Y-64720488D01*
X145753502Y-65112516D01*
X145981906Y-65466930D01*
X146274800Y-65770230D01*
X146621027Y-66010863D01*
X147007399Y-66179665D01*
X147419200Y-66270206D01*
X147840744Y-66279036D01*
X148255975Y-66205819D01*
X148649077Y-66053345D01*
X149005077Y-65827421D01*
X149310414Y-65536652D01*
X149553459Y-65192113D01*
X149724955Y-64806929D01*
X149818368Y-64395770D01*
X149819624Y-64305778D01*
X200522174Y-64305778D01*
X200598287Y-64720488D01*
X200753502Y-65112516D01*
X200981906Y-65466930D01*
X201274800Y-65770230D01*
X201621027Y-66010863D01*
X202007399Y-66179665D01*
X202419200Y-66270206D01*
X202840744Y-66279036D01*
X203255975Y-66205819D01*
X203649077Y-66053345D01*
X204005077Y-65827421D01*
X204310414Y-65536652D01*
X204553459Y-65192113D01*
X204724955Y-64806929D01*
X204818368Y-64395770D01*
X204825092Y-63914182D01*
X204743196Y-63500575D01*
X204582523Y-63110752D01*
X204349192Y-62759562D01*
X204052093Y-62460381D01*
X203702540Y-62224605D01*
X203313849Y-62061214D01*
X202900824Y-61976432D01*
X202479197Y-61973488D01*
X202065029Y-62052495D01*
X201674094Y-62210443D01*
X201321283Y-62441316D01*
X201020035Y-62736320D01*
X200781824Y-63084218D01*
X200615724Y-63471759D01*
X200528061Y-63884182D01*
X200522174Y-64305778D01*
X149819624Y-64305778D01*
X149825092Y-63914182D01*
X149743196Y-63500575D01*
X149582523Y-63110752D01*
X149349192Y-62759562D01*
X149052093Y-62460381D01*
X148702540Y-62224605D01*
X148313849Y-62061214D01*
X147900824Y-61976432D01*
X147479197Y-61973488D01*
X147065029Y-62052495D01*
X146674094Y-62210443D01*
X146321283Y-62441316D01*
X146020035Y-62736320D01*
X145781824Y-63084218D01*
X145615724Y-63471759D01*
X145528061Y-63884182D01*
X145522174Y-64305778D01*
X144903761Y-64305778D01*
X144903761Y-55467266D01*
X146998948Y-55467266D01*
X147027270Y-55621577D01*
X147085024Y-55767448D01*
X147170012Y-55899323D01*
X147278995Y-56012179D01*
X147407824Y-56101717D01*
X147551590Y-56164527D01*
X147704818Y-56198216D01*
X147861672Y-56201502D01*
X148016177Y-56174258D01*
X148162447Y-56117524D01*
X148294912Y-56033459D01*
X148408526Y-55925266D01*
X148498962Y-55797066D01*
X148562774Y-55653741D01*
X148597532Y-55500752D01*
X148600034Y-55321556D01*
X148569561Y-55167656D01*
X148509776Y-55022605D01*
X148422955Y-54891930D01*
X148312407Y-54780607D01*
X148182341Y-54692876D01*
X148037711Y-54632079D01*
X147884027Y-54600533D01*
X147727143Y-54599437D01*
X147573034Y-54628835D01*
X147427570Y-54687607D01*
X147296291Y-54773513D01*
X147184199Y-54883282D01*
X147095562Y-55012732D01*
X147033758Y-55156934D01*
X147001139Y-55310393D01*
X146998948Y-55467266D01*
X144903761Y-55467266D01*
X144903761Y-52467266D01*
X146998948Y-52467266D01*
X147027270Y-52621577D01*
X147085024Y-52767448D01*
X147170012Y-52899323D01*
X147278995Y-53012179D01*
X147407824Y-53101717D01*
X147551590Y-53164527D01*
X147704818Y-53198216D01*
X147861672Y-53201502D01*
X148016177Y-53174258D01*
X148162447Y-53117524D01*
X148294912Y-53033459D01*
X148408526Y-52925266D01*
X148498962Y-52797066D01*
X148562774Y-52653741D01*
X148597532Y-52500752D01*
X148600034Y-52321556D01*
X148569561Y-52167656D01*
X148509776Y-52022605D01*
X148422955Y-51891930D01*
X148312407Y-51780607D01*
X148182341Y-51692876D01*
X148037711Y-51632079D01*
X147884027Y-51600533D01*
X147727143Y-51599437D01*
X147573034Y-51628835D01*
X147427570Y-51687607D01*
X147296291Y-51773513D01*
X147184199Y-51883282D01*
X147095562Y-52012732D01*
X147033758Y-52156934D01*
X147001139Y-52310393D01*
X146998948Y-52467266D01*
X144903761Y-52467266D01*
X144903761Y-48594066D01*
X161750021Y-48594066D01*
X161765056Y-48759274D01*
X161811894Y-48918416D01*
X161888750Y-49065429D01*
X161992698Y-49194714D01*
X162119778Y-49301346D01*
X162265149Y-49381265D01*
X162423275Y-49431425D01*
X162588132Y-49449917D01*
X162600000Y-49450000D01*
X167000000Y-49450000D01*
X167078124Y-49442340D01*
X167156358Y-49435495D01*
X167160649Y-49434248D01*
X167165099Y-49433812D01*
X167240280Y-49411113D01*
X167315662Y-49389213D01*
X167319630Y-49387156D01*
X167323910Y-49385864D01*
X167393249Y-49348996D01*
X167462943Y-49312870D01*
X167466436Y-49310082D01*
X167470383Y-49307983D01*
X167531238Y-49258351D01*
X167592590Y-49209374D01*
X167598814Y-49203237D01*
X167598939Y-49203135D01*
X167599035Y-49203019D01*
X167601041Y-49201041D01*
X168952082Y-47850000D01*
X169647918Y-47850000D01*
X170998959Y-49201041D01*
X171059647Y-49250891D01*
X171119778Y-49301346D01*
X171123693Y-49303498D01*
X171127149Y-49306337D01*
X171196367Y-49343451D01*
X171265149Y-49381265D01*
X171269409Y-49382616D01*
X171273349Y-49384729D01*
X171348477Y-49407698D01*
X171423275Y-49431425D01*
X171427713Y-49431923D01*
X171431992Y-49433231D01*
X171510161Y-49441171D01*
X171588132Y-49449917D01*
X171596866Y-49449978D01*
X171597033Y-49449995D01*
X171597188Y-49449980D01*
X171600000Y-49450000D01*
X177450000Y-49450000D01*
X177450000Y-56400000D01*
X177466188Y-56565099D01*
X177514136Y-56723910D01*
X177592017Y-56870383D01*
X177696865Y-56998939D01*
X177824686Y-57104682D01*
X177970612Y-57183584D01*
X178129084Y-57232639D01*
X178294066Y-57249979D01*
X178459274Y-57234944D01*
X178618416Y-57188106D01*
X178765429Y-57111250D01*
X178894714Y-57007302D01*
X179001346Y-56880222D01*
X179081265Y-56734851D01*
X179131425Y-56576725D01*
X179149917Y-56411868D01*
X179150000Y-56400000D01*
X179150000Y-49450000D01*
X180600000Y-49450000D01*
X180765099Y-49433812D01*
X180923910Y-49385864D01*
X181070383Y-49307983D01*
X181198939Y-49203135D01*
X181304682Y-49075314D01*
X181383584Y-48929388D01*
X181432639Y-48770916D01*
X181449979Y-48605934D01*
X181434944Y-48440726D01*
X181388106Y-48281584D01*
X181311250Y-48134571D01*
X181207302Y-48005286D01*
X181080222Y-47898654D01*
X180934851Y-47818735D01*
X180776725Y-47768575D01*
X180611868Y-47750083D01*
X180600000Y-47750000D01*
X175450000Y-47750000D01*
X175450000Y-43669086D01*
X175494428Y-43626778D01*
X175567906Y-43522616D01*
X175619754Y-43406165D01*
X175647995Y-43281861D01*
X175650028Y-43136264D01*
X175625268Y-43011220D01*
X175576693Y-42893367D01*
X175506151Y-42787193D01*
X175416330Y-42696743D01*
X175310652Y-42625462D01*
X175193140Y-42576065D01*
X175068272Y-42550433D01*
X174940804Y-42549543D01*
X174815590Y-42573429D01*
X174697401Y-42621181D01*
X174590737Y-42690979D01*
X174499662Y-42780166D01*
X174427645Y-42885345D01*
X174377428Y-43002509D01*
X174350925Y-43127195D01*
X174349146Y-43254654D01*
X174372157Y-43380031D01*
X174419082Y-43498551D01*
X174488135Y-43605700D01*
X174550000Y-43669763D01*
X174550000Y-47750000D01*
X171952082Y-47750000D01*
X170601041Y-46398959D01*
X170540353Y-46349109D01*
X170480222Y-46298654D01*
X170476307Y-46296502D01*
X170472851Y-46293663D01*
X170403633Y-46256549D01*
X170334851Y-46218735D01*
X170330591Y-46217384D01*
X170326651Y-46215271D01*
X170251511Y-46192298D01*
X170176725Y-46168575D01*
X170172288Y-46168077D01*
X170168009Y-46166769D01*
X170089834Y-46158828D01*
X170011868Y-46150083D01*
X170003134Y-46150022D01*
X170002967Y-46150005D01*
X170002812Y-46150020D01*
X170000000Y-46150000D01*
X168600000Y-46150000D01*
X168521876Y-46157660D01*
X168443642Y-46164505D01*
X168439351Y-46165752D01*
X168434901Y-46166188D01*
X168359720Y-46188887D01*
X168284338Y-46210787D01*
X168280370Y-46212844D01*
X168276090Y-46214136D01*
X168206751Y-46251004D01*
X168137057Y-46287130D01*
X168133564Y-46289918D01*
X168129617Y-46292017D01*
X168068762Y-46341649D01*
X168007410Y-46390626D01*
X168001186Y-46396763D01*
X168001061Y-46396865D01*
X168000965Y-46396981D01*
X167998959Y-46398959D01*
X166647918Y-47750000D01*
X162600000Y-47750000D01*
X162434901Y-47766188D01*
X162276090Y-47814136D01*
X162129617Y-47892017D01*
X162001061Y-47996865D01*
X161895318Y-48124686D01*
X161816416Y-48270612D01*
X161767361Y-48429084D01*
X161750021Y-48594066D01*
X144903761Y-48594066D01*
X144903761Y-42228025D01*
X191015534Y-42228025D01*
X191016081Y-42232577D01*
X191015701Y-42246165D01*
X191016968Y-42253656D01*
X191017079Y-42261245D01*
X191022695Y-42287578D01*
X191023806Y-42296813D01*
X191024758Y-42299732D01*
X191027252Y-42314480D01*
X191029946Y-42321574D01*
X191031531Y-42329004D01*
X191042229Y-42353915D01*
X191043598Y-42357518D01*
X191045282Y-42362685D01*
X191046145Y-42364225D01*
X191051851Y-42379250D01*
X191055875Y-42385691D01*
X191058871Y-42392667D01*
X191074199Y-42415019D01*
X191078072Y-42421218D01*
X191079143Y-42423130D01*
X191079605Y-42423671D01*
X191088562Y-42438008D01*
X191093759Y-42443543D01*
X191098054Y-42449806D01*
X191117442Y-42468765D01*
X191135987Y-42488516D01*
X191139739Y-42491756D01*
X191143998Y-42495382D01*
X191146288Y-42496974D01*
X191147589Y-42498246D01*
X191150206Y-42499956D01*
X191153838Y-42503457D01*
X191157747Y-42506506D01*
X191159580Y-42507915D01*
X191175681Y-42517956D01*
X191178332Y-42520281D01*
X191182089Y-42522454D01*
X191194641Y-42531678D01*
X191198920Y-42534180D01*
X191208239Y-42539540D01*
X191215686Y-42542904D01*
X191218369Y-42544577D01*
X191224039Y-42546725D01*
X191238302Y-42554977D01*
X191242829Y-42556998D01*
X191257170Y-42563279D01*
X191259104Y-42563909D01*
X191263454Y-42568169D01*
X191267119Y-42570567D01*
X191270316Y-42573548D01*
X191296052Y-42589501D01*
X191321428Y-42606107D01*
X191325487Y-42607747D01*
X191329204Y-42610051D01*
X191330254Y-42610445D01*
X191341078Y-42618316D01*
X191341985Y-42618849D01*
X191342769Y-42619537D01*
X191346815Y-42622401D01*
X191359624Y-42631331D01*
X191361081Y-42632148D01*
X191362362Y-42633221D01*
X191366474Y-42635989D01*
X191389310Y-42651132D01*
X191397875Y-42655676D01*
X191405713Y-42661376D01*
X191410005Y-42663857D01*
X191429855Y-42675146D01*
X191442709Y-42680876D01*
X191454797Y-42688051D01*
X191459300Y-42690123D01*
X191479563Y-42699269D01*
X191490142Y-42702848D01*
X191500138Y-42707788D01*
X191504787Y-42709508D01*
X191528858Y-42718221D01*
X191530921Y-42718747D01*
X191532090Y-42719303D01*
X191532499Y-42719447D01*
X191532595Y-42719492D01*
X191538815Y-42724288D01*
X191543035Y-42726889D01*
X191554112Y-42733607D01*
X191564616Y-42738647D01*
X191567208Y-42740291D01*
X191568347Y-42740732D01*
X191577993Y-42746860D01*
X191582432Y-42749067D01*
X191599545Y-42757424D01*
X191604965Y-42759443D01*
X191609975Y-42762308D01*
X191614511Y-42764306D01*
X191636639Y-42773867D01*
X191639553Y-42774801D01*
X191642252Y-42776235D01*
X191646849Y-42778091D01*
X191672965Y-42788424D01*
X191674864Y-42788968D01*
X191676625Y-42789848D01*
X191681266Y-42791588D01*
X191710346Y-42802259D01*
X191711931Y-42802670D01*
X191713414Y-42803369D01*
X191718095Y-42805001D01*
X191749113Y-42815575D01*
X191749595Y-42815688D01*
X191750047Y-42815892D01*
X191754755Y-42817446D01*
X191768350Y-42821828D01*
X191792493Y-42829643D01*
X191821867Y-42839421D01*
X191855715Y-42850898D01*
X191892246Y-42863468D01*
X191928226Y-42876026D01*
X191962215Y-42888079D01*
X191996867Y-42900557D01*
X192023022Y-42910181D01*
X192041275Y-42917174D01*
X192052385Y-42921716D01*
X192058018Y-42924232D01*
X192061410Y-42925909D01*
X192066387Y-42928608D01*
X192076580Y-42934512D01*
X192080316Y-42936736D01*
X192080360Y-42936757D01*
X192080917Y-42937092D01*
X192103788Y-42950643D01*
X192103867Y-42950680D01*
X192105743Y-42951793D01*
X192129331Y-42965566D01*
X192129411Y-42965603D01*
X192131271Y-42966691D01*
X192153125Y-42979267D01*
X192153201Y-42979301D01*
X192155856Y-42980823D01*
X192173168Y-42990583D01*
X192175969Y-42992279D01*
X192184133Y-42997790D01*
X192196838Y-43006977D01*
X192210599Y-43017585D01*
X192210770Y-43017723D01*
X192233164Y-43035865D01*
X192233189Y-43035881D01*
X192233552Y-43036179D01*
X192259773Y-43057361D01*
X192259795Y-43057375D01*
X192260072Y-43057602D01*
X192286536Y-43078934D01*
X192286568Y-43078955D01*
X192286909Y-43079233D01*
X192310433Y-43098143D01*
X192310439Y-43098147D01*
X192342134Y-43123882D01*
X192364866Y-43142975D01*
X192379670Y-43156066D01*
X192386890Y-43162949D01*
X192387519Y-43163615D01*
X192389976Y-43166584D01*
X192398148Y-43176818D01*
X192398988Y-43177682D01*
X192399647Y-43178681D01*
X192402792Y-43182512D01*
X192416645Y-43199142D01*
X192416685Y-43199182D01*
X192419308Y-43202301D01*
X192435928Y-43221787D01*
X192435988Y-43221845D01*
X192438094Y-43224302D01*
X192456023Y-43244929D01*
X192456086Y-43244989D01*
X192457878Y-43247047D01*
X192469023Y-43259666D01*
X192482347Y-43274908D01*
X192491451Y-43285718D01*
X192494612Y-43289660D01*
X192495602Y-43291016D01*
X192508319Y-43311135D01*
X192511744Y-43314745D01*
X192514514Y-43318867D01*
X192517693Y-43322671D01*
X192525312Y-43331655D01*
X192535944Y-43341959D01*
X192545356Y-43353389D01*
X192548890Y-43356866D01*
X192556310Y-43364064D01*
X192556313Y-43364066D01*
X192556337Y-43364090D01*
X192562248Y-43369823D01*
X192568622Y-43376482D01*
X192578400Y-43387203D01*
X192584310Y-43393936D01*
X192584357Y-43393980D01*
X192586802Y-43396746D01*
X192603410Y-43415268D01*
X192605057Y-43416778D01*
X192606404Y-43418566D01*
X192609785Y-43422191D01*
X192628700Y-43442195D01*
X192630169Y-43443472D01*
X192631378Y-43444996D01*
X192634848Y-43448536D01*
X192652875Y-43466675D01*
X192654358Y-43467901D01*
X192655583Y-43469369D01*
X192659139Y-43472823D01*
X192664148Y-43477619D01*
X192672765Y-43486032D01*
X192675755Y-43489167D01*
X192680072Y-43494138D01*
X192682566Y-43496498D01*
X192687077Y-43502617D01*
X192690419Y-43506278D01*
X192700831Y-43517522D01*
X192712699Y-43528059D01*
X192713991Y-43529467D01*
X192715683Y-43530708D01*
X192724643Y-43538664D01*
X192748090Y-43560159D01*
X192752074Y-43563109D01*
X192765486Y-43572893D01*
X192784121Y-43583876D01*
X192796226Y-43592794D01*
X192798984Y-43594412D01*
X192801611Y-43596394D01*
X192813062Y-43604909D01*
X192823050Y-43610918D01*
X192825719Y-43614023D01*
X192838875Y-43626599D01*
X192850809Y-43640346D01*
X192854432Y-43643729D01*
X192865664Y-43654071D01*
X192873680Y-43660120D01*
X192879894Y-43666335D01*
X192888849Y-43676904D01*
X192892431Y-43680331D01*
X192902503Y-43689831D01*
X192906336Y-43692796D01*
X192909613Y-43696356D01*
X192913333Y-43699633D01*
X192930055Y-43714152D01*
X192930744Y-43714641D01*
X192931326Y-43715250D01*
X192935106Y-43718456D01*
X192958424Y-43737952D01*
X192958485Y-43737994D01*
X192961351Y-43740372D01*
X192991214Y-43764800D01*
X192991281Y-43764845D01*
X192993139Y-43766365D01*
X193029495Y-43795683D01*
X193029563Y-43795728D01*
X193030866Y-43796783D01*
X193073661Y-43830946D01*
X193073702Y-43830973D01*
X193074410Y-43831543D01*
X193093383Y-43846604D01*
X193132134Y-43877621D01*
X193162411Y-43902513D01*
X193184890Y-43921757D01*
X193199652Y-43935163D01*
X193205541Y-43940980D01*
X193206329Y-43941970D01*
X193206744Y-43942589D01*
X193215676Y-43958936D01*
X193218494Y-43963014D01*
X193224670Y-43971817D01*
X193225821Y-43973158D01*
X193226702Y-43974682D01*
X193233350Y-43982271D01*
X193234950Y-43984657D01*
X193238865Y-43988566D01*
X193239202Y-43988951D01*
X193246076Y-44000478D01*
X193249760Y-44007392D01*
X193250131Y-44008269D01*
X193250579Y-44008929D01*
X193258356Y-44023526D01*
X193261131Y-44027634D01*
X193269231Y-44039441D01*
X193277167Y-44048882D01*
X193277167Y-44520174D01*
X193279801Y-44547041D01*
X193281268Y-44573975D01*
X193283175Y-44581447D01*
X193283928Y-44589127D01*
X193291730Y-44614970D01*
X193298401Y-44641108D01*
X193301723Y-44648067D01*
X193303953Y-44655454D01*
X193316625Y-44679286D01*
X193328247Y-44703634D01*
X193332858Y-44709817D01*
X193336480Y-44716628D01*
X193353539Y-44737545D01*
X193369669Y-44759171D01*
X193375391Y-44764338D01*
X193379414Y-44769271D01*
X193381766Y-44773780D01*
X193397730Y-44793674D01*
X193412656Y-44814380D01*
X193417748Y-44819131D01*
X193418054Y-44819560D01*
X193419898Y-44821300D01*
X193425128Y-44827817D01*
X193428618Y-44831338D01*
X193435317Y-44838003D01*
X193452408Y-44851969D01*
X193468451Y-44867104D01*
X193479162Y-44873832D01*
X193488966Y-44881843D01*
X193508444Y-44892223D01*
X193527122Y-44903955D01*
X193538938Y-44908475D01*
X193545318Y-44911875D01*
X193545751Y-44912313D01*
X193552237Y-44916713D01*
X193557982Y-44922038D01*
X193580857Y-44936127D01*
X193603089Y-44951208D01*
X193610301Y-44954262D01*
X193616974Y-44958372D01*
X193642164Y-44967755D01*
X193666888Y-44978224D01*
X193674553Y-44979818D01*
X193678488Y-44981284D01*
X193677123Y-44984574D01*
X193675008Y-44987899D01*
X193672799Y-44992336D01*
X193670459Y-44997120D01*
X193670072Y-44997856D01*
X193667005Y-45001559D01*
X193664435Y-45005364D01*
X193661262Y-45008678D01*
X193658227Y-45012596D01*
X193648412Y-45025453D01*
X193639867Y-45039258D01*
X193629934Y-45052099D01*
X193627327Y-45056316D01*
X193621292Y-45066233D01*
X193614703Y-45079910D01*
X193611946Y-45084364D01*
X193609797Y-45090094D01*
X193607179Y-45095528D01*
X193592717Y-45124645D01*
X193591240Y-45128613D01*
X193591222Y-45128651D01*
X193591212Y-45128688D01*
X193590988Y-45129291D01*
X193587824Y-45137978D01*
X193587389Y-45139670D01*
X193586653Y-45141245D01*
X193578788Y-45173137D01*
X193576603Y-45181642D01*
X193574525Y-45187756D01*
X193573983Y-45191836D01*
X193570579Y-45205081D01*
X193570481Y-45206821D01*
X193570064Y-45208513D01*
X193569387Y-45213424D01*
X193568188Y-45222590D01*
X193567638Y-45239584D01*
X193565399Y-45256436D01*
X193565263Y-45261391D01*
X193565108Y-45268987D01*
X193565763Y-45277438D01*
X193565166Y-45285887D01*
X193565335Y-45290842D01*
X193565815Y-45302494D01*
X193569602Y-45329578D01*
X193572273Y-45356826D01*
X193573270Y-45361682D01*
X193575353Y-45371483D01*
X193576438Y-45374903D01*
X193576909Y-45378458D01*
X193586895Y-45407871D01*
X193596300Y-45437524D01*
X193598030Y-45440672D01*
X193599182Y-45444064D01*
X193601257Y-45448566D01*
X193605905Y-45458465D01*
X193619265Y-45480918D01*
X193631525Y-45503986D01*
X193634296Y-45508097D01*
X193642472Y-45520042D01*
X193645244Y-45523347D01*
X193650142Y-45537268D01*
X193647373Y-45548390D01*
X193646685Y-45553299D01*
X193645369Y-45563189D01*
X193645083Y-45571451D01*
X193643574Y-45579581D01*
X193643183Y-45584523D01*
X193642173Y-45598551D01*
X193642616Y-45615648D01*
X193642600Y-45615755D01*
X193642638Y-45616518D01*
X193642932Y-45627883D01*
X193642810Y-45657212D01*
X193643308Y-45662144D01*
X193644244Y-45670823D01*
X193645701Y-45677819D01*
X193646057Y-45684953D01*
X193652750Y-45711677D01*
X193658367Y-45738652D01*
X193661155Y-45745232D01*
X193661343Y-45745984D01*
X193661292Y-45746188D01*
X193660601Y-45751097D01*
X193658123Y-45769658D01*
X193657365Y-45791329D01*
X193655021Y-45812878D01*
X193655003Y-45817835D01*
X193655056Y-45833521D01*
X193657506Y-45857672D01*
X193658536Y-45881920D01*
X193659263Y-45886823D01*
X193661983Y-45904330D01*
X193662960Y-45908128D01*
X193663788Y-45914124D01*
X193663787Y-45914914D01*
X193662938Y-45915931D01*
X193643992Y-45918444D01*
X193624422Y-45923019D01*
X193604564Y-45925965D01*
X193599763Y-45927200D01*
X193582941Y-45931657D01*
X193573214Y-45935282D01*
X193563083Y-45937543D01*
X193540821Y-45947353D01*
X193518019Y-45955851D01*
X193509178Y-45961298D01*
X193499682Y-45965483D01*
X193495380Y-45967945D01*
X193484546Y-45974246D01*
X193480047Y-45977488D01*
X193475081Y-45979950D01*
X193459679Y-45991796D01*
X193459032Y-45992195D01*
X193458406Y-45992776D01*
X193451988Y-45997712D01*
X193428340Y-46014756D01*
X193424556Y-46018811D01*
X193420163Y-46022190D01*
X193400966Y-46044092D01*
X193381072Y-46065412D01*
X193378146Y-46070127D01*
X193374496Y-46074292D01*
X193371635Y-46078341D01*
X193365566Y-46087062D01*
X193356417Y-46103410D01*
X193356407Y-46103425D01*
X193344029Y-46108283D01*
X193342954Y-46108831D01*
X193341800Y-46109167D01*
X193337211Y-46111041D01*
X193311752Y-46121647D01*
X193310445Y-46122348D01*
X193309034Y-46122793D01*
X193304487Y-46124769D01*
X193280592Y-46135354D01*
X193278108Y-46136759D01*
X193275413Y-46137698D01*
X193270928Y-46139809D01*
X193250435Y-46149632D01*
X193245038Y-46152902D01*
X193239191Y-46155269D01*
X193234815Y-46157599D01*
X193220478Y-46165364D01*
X193211884Y-46171169D01*
X193202591Y-46175738D01*
X193198395Y-46178377D01*
X193182451Y-46188565D01*
X193165566Y-46201842D01*
X193147746Y-46213821D01*
X193143944Y-46217001D01*
X193133214Y-46226103D01*
X193132285Y-46227062D01*
X193131198Y-46227827D01*
X193108180Y-46251946D01*
X193085008Y-46275866D01*
X193084287Y-46276981D01*
X193083364Y-46277948D01*
X193080335Y-46281872D01*
X193072354Y-46292364D01*
X193059788Y-46312740D01*
X193046017Y-46332310D01*
X193043603Y-46336639D01*
X193037508Y-46347758D01*
X193033398Y-46357379D01*
X193028019Y-46366343D01*
X193025926Y-46370836D01*
X193018877Y-46386258D01*
X193015943Y-46394797D01*
X193011810Y-46402818D01*
X193010012Y-46407438D01*
X193007525Y-46413965D01*
X193007126Y-46414497D01*
X192992580Y-46444763D01*
X192978457Y-46473702D01*
X192962621Y-46487644D01*
X192937390Y-46509502D01*
X192911673Y-46531445D01*
X192903458Y-46538339D01*
X192883061Y-46543653D01*
X192872867Y-46547404D01*
X192862271Y-46549753D01*
X192857570Y-46551325D01*
X192841362Y-46556874D01*
X192816375Y-46568261D01*
X192790952Y-46578620D01*
X192786582Y-46580960D01*
X192774630Y-46587468D01*
X192771149Y-46589831D01*
X192767317Y-46591563D01*
X192742514Y-46609268D01*
X192717306Y-46626380D01*
X192714353Y-46629372D01*
X192710927Y-46631817D01*
X192707215Y-46635103D01*
X192697486Y-46643839D01*
X192677947Y-46665179D01*
X192657751Y-46685849D01*
X192654676Y-46689737D01*
X192645140Y-46701970D01*
X192640303Y-46709612D01*
X192634421Y-46716468D01*
X192631604Y-46720547D01*
X192626770Y-46727653D01*
X192620030Y-46737380D01*
X192610028Y-46751212D01*
X192596836Y-46768997D01*
X192582630Y-46787729D01*
X192577592Y-46794262D01*
X192577555Y-46794322D01*
X192575257Y-46797324D01*
X192556380Y-46822359D01*
X192553719Y-46826715D01*
X192550377Y-46830563D01*
X192547535Y-46834624D01*
X192533247Y-46855355D01*
X192528636Y-46863682D01*
X192522896Y-46871268D01*
X192520334Y-46875512D01*
X192509453Y-46893829D01*
X192504201Y-46905035D01*
X192497587Y-46915487D01*
X192495388Y-46919929D01*
X192486738Y-46937725D01*
X192484100Y-46944848D01*
X192480410Y-46951482D01*
X192478466Y-46956042D01*
X192475118Y-46964052D01*
X192475074Y-46964195D01*
X192475008Y-46964318D01*
X192473132Y-46968906D01*
X192458545Y-47005312D01*
X192453423Y-47022903D01*
X192446700Y-47039948D01*
X192443760Y-47056088D01*
X192439175Y-47071833D01*
X192437567Y-47090081D01*
X192434283Y-47108109D01*
X192434534Y-47124510D01*
X192433094Y-47140850D01*
X192435062Y-47159068D01*
X192435342Y-47177385D01*
X192435935Y-47182306D01*
X192440775Y-47220215D01*
X192442334Y-47234451D01*
X192443556Y-47248377D01*
X192439679Y-47257568D01*
X192435161Y-47279438D01*
X192429135Y-47300927D01*
X192428302Y-47305814D01*
X192426873Y-47314574D01*
X192426411Y-47321796D01*
X192425662Y-47325419D01*
X192425586Y-47334672D01*
X192424884Y-47345628D01*
X192422276Y-47376643D01*
X192422379Y-47381599D01*
X192422631Y-47390652D01*
X192418531Y-47409795D01*
X192418005Y-47414725D01*
X192417287Y-47421934D01*
X192417272Y-47431952D01*
X192416690Y-47435518D01*
X192416758Y-47437518D01*
X192415738Y-47445245D01*
X192417216Y-47468207D01*
X192417181Y-47491217D01*
X192418861Y-47499773D01*
X192419030Y-47504762D01*
X192419775Y-47507955D01*
X192420189Y-47514385D01*
X192426099Y-47536620D01*
X192430534Y-47559203D01*
X192433317Y-47565984D01*
X192434775Y-47572233D01*
X192436687Y-47576461D01*
X192437985Y-47581344D01*
X192439751Y-47585976D01*
X192440176Y-47587067D01*
X192449587Y-47605629D01*
X192456838Y-47623299D01*
X192460093Y-47628215D01*
X192463325Y-47635361D01*
X192467925Y-47641802D01*
X192471505Y-47648863D01*
X192486092Y-47667477D01*
X192495090Y-47681066D01*
X192498244Y-47684252D01*
X192503593Y-47691741D01*
X192509357Y-47697166D01*
X192514240Y-47703397D01*
X192534237Y-47720607D01*
X192543835Y-47730302D01*
X192546430Y-47732058D01*
X192554046Y-47739226D01*
X192560751Y-47743426D01*
X192566753Y-47748592D01*
X192590073Y-47761795D01*
X192594079Y-47764304D01*
X192601214Y-47769133D01*
X192602971Y-47769875D01*
X192612760Y-47776007D01*
X192620152Y-47778825D01*
X192627045Y-47782727D01*
X192652484Y-47791148D01*
X192661530Y-47794596D01*
X192665043Y-47796079D01*
X192665870Y-47796250D01*
X192677500Y-47800683D01*
X192685302Y-47802012D01*
X192692819Y-47804500D01*
X192719393Y-47807818D01*
X192745801Y-47812315D01*
X192750748Y-47812632D01*
X192755200Y-47812886D01*
X192758811Y-47812739D01*
X192761569Y-47813083D01*
X192762030Y-47813050D01*
X192763687Y-47813268D01*
X192768642Y-47813397D01*
X192781321Y-47813639D01*
X192781406Y-47813632D01*
X192784111Y-47813682D01*
X192804777Y-47813914D01*
X192804850Y-47813908D01*
X192806026Y-47813925D01*
X192834438Y-47814144D01*
X192834475Y-47814141D01*
X192835118Y-47814149D01*
X192871038Y-47814357D01*
X192871068Y-47814354D01*
X192871482Y-47814359D01*
X192914665Y-47814555D01*
X192914678Y-47814554D01*
X192914976Y-47814557D01*
X192965186Y-47814741D01*
X192965208Y-47814739D01*
X192965416Y-47814741D01*
X193022410Y-47814913D01*
X193022417Y-47814912D01*
X193022594Y-47814914D01*
X193086134Y-47815073D01*
X193086146Y-47815072D01*
X193086276Y-47815073D01*
X193156123Y-47815220D01*
X193156133Y-47815219D01*
X193156239Y-47815220D01*
X193232132Y-47815355D01*
X193232251Y-47815356D01*
X193313988Y-47815478D01*
X193313995Y-47815477D01*
X193314075Y-47815478D01*
X193401396Y-47815587D01*
X193401402Y-47815586D01*
X193401471Y-47815587D01*
X193494138Y-47815683D01*
X193494205Y-47815683D01*
X193591976Y-47815766D01*
X193592035Y-47815766D01*
X193694670Y-47815836D01*
X193694723Y-47815836D01*
X193801983Y-47815893D01*
X193802035Y-47815893D01*
X193913679Y-47815936D01*
X193913727Y-47815936D01*
X194029515Y-47815965D01*
X194029557Y-47815965D01*
X194149249Y-47815981D01*
X194149290Y-47815981D01*
X194272645Y-47815983D01*
X194272685Y-47815983D01*
X194399464Y-47815971D01*
X194399504Y-47815971D01*
X194529467Y-47815944D01*
X194529500Y-47815944D01*
X194662406Y-47815904D01*
X194662443Y-47815904D01*
X194798052Y-47815849D01*
X194798085Y-47815849D01*
X194936157Y-47815780D01*
X194936193Y-47815780D01*
X195076488Y-47815696D01*
X195076522Y-47815696D01*
X195218800Y-47815597D01*
X195218834Y-47815597D01*
X195362854Y-47815483D01*
X195362888Y-47815483D01*
X195508411Y-47815354D01*
X195508444Y-47815354D01*
X195655229Y-47815210D01*
X195655263Y-47815210D01*
X195803070Y-47815051D01*
X195803101Y-47815051D01*
X195908022Y-47814929D01*
X195908034Y-47814929D01*
X197004493Y-47813617D01*
X197037573Y-47810333D01*
X197070597Y-47807327D01*
X197071991Y-47806917D01*
X197073438Y-47806773D01*
X197105240Y-47797130D01*
X197137061Y-47787764D01*
X197138347Y-47787092D01*
X197139741Y-47786669D01*
X197169124Y-47771000D01*
X197198460Y-47755663D01*
X197199589Y-47754755D01*
X197200876Y-47754069D01*
X197226657Y-47732991D01*
X197252454Y-47712249D01*
X197253386Y-47711138D01*
X197254514Y-47710216D01*
X197275686Y-47684560D01*
X197296988Y-47659173D01*
X197297687Y-47657901D01*
X197298614Y-47656778D01*
X197314402Y-47627495D01*
X197330364Y-47598458D01*
X197330803Y-47597076D01*
X197331494Y-47595793D01*
X197341286Y-47564025D01*
X197351312Y-47532417D01*
X197351474Y-47530973D01*
X197351902Y-47529584D01*
X197355335Y-47496543D01*
X197359033Y-47463565D01*
X197359053Y-47460758D01*
X197359062Y-47460670D01*
X197359054Y-47460584D01*
X197359068Y-47458608D01*
X197359043Y-46437324D01*
X197359022Y-45598992D01*
X197361663Y-45597202D01*
X197372012Y-45592004D01*
X197376186Y-45589329D01*
X197385125Y-45583508D01*
X197394503Y-45576003D01*
X197404757Y-45569760D01*
X197421482Y-45554415D01*
X197439221Y-45540220D01*
X197446965Y-45531035D01*
X197455809Y-45522920D01*
X197459092Y-45519206D01*
X197467305Y-45509778D01*
X197480494Y-45491263D01*
X197483878Y-45487249D01*
X197485318Y-45484645D01*
X197501060Y-45464121D01*
X197503650Y-45459894D01*
X197512195Y-45445723D01*
X197517457Y-45434687D01*
X197524072Y-45424402D01*
X197526303Y-45419975D01*
X197536233Y-45399928D01*
X197537190Y-45397402D01*
X197538580Y-45395096D01*
X197540682Y-45390607D01*
X197546240Y-45378515D01*
X197555859Y-45359726D01*
X197563946Y-45347323D01*
X197564492Y-45346699D01*
X197567349Y-45342648D01*
X197588568Y-45312104D01*
X197599937Y-45291751D01*
X197612584Y-45272174D01*
X197614824Y-45267752D01*
X197628559Y-45240159D01*
X197628628Y-45239979D01*
X197628725Y-45239823D01*
X197640857Y-45207888D01*
X197653232Y-45175417D01*
X197653264Y-45175230D01*
X197653330Y-45175056D01*
X197654597Y-45170263D01*
X197661068Y-45145063D01*
X197662318Y-45136991D01*
X197664754Y-45129204D01*
X197667607Y-45102832D01*
X197671669Y-45076595D01*
X197671327Y-45068436D01*
X197672205Y-45060322D01*
X197672220Y-45055365D01*
X197672140Y-45035139D01*
X197670049Y-45014644D01*
X197669591Y-44994054D01*
X197668963Y-44989137D01*
X197666312Y-44969462D01*
X197664735Y-44962779D01*
X197664222Y-44955927D01*
X197656792Y-44929110D01*
X197650404Y-44902030D01*
X197647558Y-44895777D01*
X197645724Y-44889158D01*
X197633230Y-44864301D01*
X197621701Y-44838971D01*
X197617695Y-44833391D01*
X197614610Y-44827253D01*
X197597519Y-44805287D01*
X197581296Y-44782689D01*
X197576284Y-44777994D01*
X197572065Y-44772572D01*
X197551046Y-44754356D01*
X197530730Y-44735326D01*
X197524895Y-44731691D01*
X197519708Y-44727195D01*
X197515644Y-44724358D01*
X197454030Y-44681988D01*
X197450299Y-44679382D01*
X197451067Y-44672843D01*
X197451414Y-44654730D01*
X197453449Y-44636734D01*
X197453489Y-44631777D01*
X197453520Y-44598248D01*
X197452163Y-44584271D01*
X197452440Y-44570255D01*
X197452020Y-44565315D01*
X197448795Y-44530350D01*
X197446415Y-44517954D01*
X197446015Y-44511827D01*
X197448681Y-44505615D01*
X197452798Y-44486297D01*
X197458534Y-44467363D01*
X197460008Y-44452467D01*
X197463123Y-44437853D01*
X197463645Y-44432924D01*
X197464571Y-44423532D01*
X197464580Y-44406272D01*
X197465358Y-44398416D01*
X197464638Y-44391005D01*
X197465134Y-44370713D01*
X197466778Y-44363102D01*
X197466844Y-44362490D01*
X197480222Y-44341011D01*
X197480731Y-44339964D01*
X197480943Y-44339667D01*
X197491839Y-44324173D01*
X197497361Y-44314418D01*
X197504120Y-44305483D01*
X197514389Y-44284340D01*
X197525971Y-44263880D01*
X197529493Y-44253240D01*
X197534388Y-44243161D01*
X197536076Y-44238500D01*
X197543100Y-44218670D01*
X197547557Y-44200666D01*
X197551789Y-44189654D01*
X197552618Y-44186565D01*
X197554615Y-44182537D01*
X197556340Y-44177890D01*
X197562241Y-44161652D01*
X197563941Y-44155017D01*
X197566656Y-44148732D01*
X197572521Y-44121523D01*
X197579435Y-44094536D01*
X197579814Y-44087694D01*
X197581256Y-44081004D01*
X197581789Y-44076076D01*
X197582768Y-44066383D01*
X197585361Y-44056007D01*
X197586150Y-44050683D01*
X197587801Y-44045573D01*
X197588824Y-44040723D01*
X197589881Y-44035530D01*
X197590103Y-44034998D01*
X197592703Y-44030707D01*
X197596822Y-44019400D01*
X197598803Y-44015759D01*
X197600723Y-44009612D01*
X197612830Y-43981535D01*
X197613270Y-43979487D01*
X197614075Y-43977558D01*
X197620535Y-43945673D01*
X197622590Y-43936109D01*
X197624110Y-43930987D01*
X197624432Y-43927538D01*
X197627384Y-43913797D01*
X197627418Y-43911703D01*
X197627833Y-43909654D01*
X197628304Y-43904719D01*
X197629167Y-43894959D01*
X197629009Y-43878447D01*
X197630543Y-43862002D01*
X197630485Y-43857045D01*
X197630235Y-43843693D01*
X197629144Y-43834372D01*
X197629391Y-43824995D01*
X197629003Y-43820053D01*
X197627756Y-43805489D01*
X197625870Y-43795306D01*
X197625395Y-43784964D01*
X197624651Y-43780063D01*
X197623267Y-43771353D01*
X197623329Y-43770661D01*
X197625745Y-43751747D01*
X197626667Y-43745717D01*
X197629601Y-43726745D01*
X197629784Y-43723460D01*
X197630543Y-43720258D01*
X197631176Y-43715341D01*
X197632759Y-43702321D01*
X197633148Y-43685615D01*
X197635224Y-43669051D01*
X197635324Y-43664095D01*
X197635432Y-43655797D01*
X197634566Y-43645606D01*
X197635111Y-43635394D01*
X197631641Y-43611159D01*
X197629569Y-43586762D01*
X197629137Y-43585261D01*
X197634361Y-43573113D01*
X197637881Y-43556654D01*
X197639158Y-43553409D01*
X197640242Y-43547435D01*
X197644823Y-43531870D01*
X197645718Y-43526994D01*
X197647328Y-43517862D01*
X197647975Y-43509446D01*
X197648849Y-43505361D01*
X197648938Y-43499532D01*
X197651532Y-43485239D01*
X197651903Y-43480296D01*
X197652939Y-43465052D01*
X197652881Y-43463102D01*
X197653180Y-43461182D01*
X197653428Y-43456231D01*
X197653755Y-43448626D01*
X197653731Y-43448187D01*
X197653791Y-43447755D01*
X197653958Y-43442801D01*
X197654410Y-43425782D01*
X197654212Y-43422999D01*
X197654513Y-43420235D01*
X197654533Y-43415278D01*
X197654491Y-43401462D01*
X197653704Y-43393679D01*
X197654101Y-43385862D01*
X197653833Y-43380912D01*
X197653320Y-43372507D01*
X197652631Y-43368201D01*
X197652612Y-43361909D01*
X197652765Y-43361167D01*
X197656982Y-43349229D01*
X197658879Y-43336156D01*
X197662339Y-43323424D01*
X197663132Y-43318531D01*
X197664122Y-43312138D01*
X197664610Y-43303426D01*
X197666364Y-43294873D01*
X197666438Y-43284073D01*
X197666933Y-43280663D01*
X197666517Y-43272569D01*
X197666542Y-43268889D01*
X197667993Y-43242962D01*
X197666779Y-43234322D01*
X197666839Y-43225591D01*
X197666641Y-43224554D01*
X197666799Y-43223966D01*
X197668097Y-43204533D01*
X197671056Y-43185274D01*
X197670400Y-43170044D01*
X197671416Y-43154836D01*
X197668914Y-43135517D01*
X197668835Y-43133691D01*
X197669039Y-43126929D01*
X197667849Y-43109350D01*
X197668354Y-43091744D01*
X197668094Y-43088321D01*
X197670974Y-43078777D01*
X197671051Y-43078550D01*
X197671058Y-43078496D01*
X197672133Y-43074934D01*
X197673062Y-43070065D01*
X197674704Y-43061110D01*
X197675487Y-43051762D01*
X197676502Y-43047084D01*
X197676674Y-43037597D01*
X197676856Y-43035425D01*
X197680294Y-43009886D01*
X197679807Y-43002005D01*
X197681300Y-42992617D01*
X197686788Y-42963027D01*
X197686733Y-42958452D01*
X197687452Y-42953928D01*
X197686916Y-42939765D01*
X197687365Y-42936093D01*
X197686287Y-42921536D01*
X197685951Y-42893748D01*
X197685373Y-42888825D01*
X197684749Y-42883810D01*
X197683271Y-42877248D01*
X197684516Y-42864363D01*
X197687551Y-42850107D01*
X197688071Y-42845177D01*
X197689018Y-42835551D01*
X197689023Y-42817709D01*
X197689776Y-42809920D01*
X197689257Y-42804706D01*
X197690296Y-42783389D01*
X197689955Y-42781084D01*
X197693402Y-42771968D01*
X197694661Y-42767174D01*
X197699145Y-42749598D01*
X197699672Y-42746156D01*
X197700456Y-42743926D01*
X197701602Y-42739104D01*
X197701783Y-42738317D01*
X197701920Y-42737895D01*
X197702390Y-42735682D01*
X197704313Y-42727326D01*
X197705080Y-42724587D01*
X197707449Y-42717636D01*
X197707485Y-42717482D01*
X197707574Y-42717286D01*
X197709138Y-42712582D01*
X197714397Y-42696377D01*
X197717273Y-42683274D01*
X197718964Y-42681445D01*
X197730777Y-42662214D01*
X197743882Y-42643824D01*
X197748875Y-42632753D01*
X197755228Y-42622410D01*
X197763082Y-42601248D01*
X197772364Y-42580665D01*
X197775111Y-42568837D01*
X197779335Y-42557455D01*
X197782929Y-42535170D01*
X197786468Y-42519932D01*
X197791534Y-42509415D01*
X197793208Y-42504748D01*
X197797709Y-42491909D01*
X197802437Y-42472546D01*
X197803721Y-42468790D01*
X197804172Y-42465439D01*
X197804894Y-42462485D01*
X197812792Y-42433301D01*
X197813580Y-42428407D01*
X197816035Y-42412442D01*
X197816040Y-42412359D01*
X197816463Y-42409585D01*
X197817518Y-42402335D01*
X197820243Y-42392361D01*
X197820760Y-42389327D01*
X197821805Y-42386440D01*
X197822996Y-42381628D01*
X197827406Y-42363245D01*
X197827536Y-42362308D01*
X197827838Y-42361420D01*
X197828936Y-42356586D01*
X197833465Y-42335965D01*
X197833479Y-42335847D01*
X197833513Y-42335743D01*
X197834540Y-42330893D01*
X197836452Y-42321540D01*
X197839436Y-42307329D01*
X197845180Y-42297549D01*
X197852235Y-42282298D01*
X197860789Y-42267838D01*
X197862853Y-42263331D01*
X197868730Y-42250258D01*
X197873203Y-42236970D01*
X197874269Y-42234667D01*
X197875015Y-42231590D01*
X197879137Y-42219345D01*
X197889898Y-42188552D01*
X197890819Y-42184645D01*
X197890836Y-42184596D01*
X197890842Y-42184549D01*
X197891036Y-42183727D01*
X197893664Y-42172218D01*
X197895530Y-42157579D01*
X197895543Y-42157515D01*
X197898808Y-42150337D01*
X197904565Y-42125902D01*
X197908075Y-42113937D01*
X197910259Y-42107358D01*
X197910449Y-42105843D01*
X197911633Y-42101808D01*
X197912524Y-42096931D01*
X197913695Y-42090255D01*
X197914043Y-42085675D01*
X197914697Y-42082900D01*
X197915093Y-42071868D01*
X197915664Y-42064357D01*
X197918900Y-42038615D01*
X197919001Y-42033659D01*
X197919146Y-42022791D01*
X197918512Y-42015293D01*
X197919029Y-42007788D01*
X197918852Y-42002834D01*
X197918137Y-41986173D01*
X197918115Y-41986019D01*
X197918123Y-41985873D01*
X197917872Y-41980922D01*
X197917007Y-41965947D01*
X197916763Y-41964389D01*
X197916812Y-41962813D01*
X197916448Y-41957869D01*
X197914525Y-41934035D01*
X197913428Y-41927947D01*
X197913320Y-41921763D01*
X197912716Y-41916843D01*
X197910142Y-41897033D01*
X197908437Y-41889650D01*
X197910718Y-41880250D01*
X197914561Y-41853047D01*
X197915521Y-41849635D01*
X197916100Y-41842309D01*
X197920329Y-41813403D01*
X197920383Y-41812080D01*
X197922679Y-41802151D01*
X197922977Y-41792784D01*
X197924606Y-41783546D01*
X197924274Y-41767698D01*
X197925103Y-41761147D01*
X197924334Y-41750120D01*
X197924881Y-41732902D01*
X197924520Y-41727958D01*
X197924110Y-41722839D01*
X197923234Y-41717961D01*
X197923157Y-41714278D01*
X197921216Y-41705451D01*
X197920280Y-41692031D01*
X197920233Y-41691859D01*
X197921368Y-41685649D01*
X197921744Y-41680707D01*
X197922289Y-41672820D01*
X197922083Y-41665660D01*
X197922549Y-41661544D01*
X197921894Y-41653647D01*
X197922975Y-41637737D01*
X197920954Y-41621990D01*
X197924365Y-41610162D01*
X197924962Y-41603174D01*
X197926638Y-41596367D01*
X197927908Y-41568718D01*
X197930267Y-41541130D01*
X197929495Y-41534157D01*
X197929817Y-41527156D01*
X197929525Y-41522208D01*
X197929068Y-41515274D01*
X197924384Y-41486892D01*
X197923623Y-41481088D01*
X197922647Y-41472266D01*
X197922338Y-41471287D01*
X197920640Y-41458338D01*
X197919485Y-41453517D01*
X197916673Y-41442129D01*
X197915478Y-41438750D01*
X197914892Y-41435217D01*
X197913574Y-41430438D01*
X197910797Y-41420639D01*
X197908475Y-41414721D01*
X197913426Y-41406701D01*
X197922001Y-41383753D01*
X197931872Y-41361355D01*
X197933386Y-41356635D01*
X197935737Y-41349126D01*
X197936742Y-41344306D01*
X197937679Y-41341800D01*
X197937881Y-41340562D01*
X197939447Y-41336452D01*
X197944152Y-41308783D01*
X197949885Y-41281302D01*
X197949952Y-41274679D01*
X197951063Y-41268148D01*
X197950533Y-41248557D01*
X197956772Y-41234307D01*
X197956936Y-41233804D01*
X197957190Y-41233347D01*
X197967626Y-41200989D01*
X197978232Y-41168430D01*
X197978295Y-41167907D01*
X197978456Y-41167407D01*
X197979476Y-41162556D01*
X197983473Y-41142866D01*
X197985957Y-41118727D01*
X197989853Y-41094776D01*
X197990133Y-41089827D01*
X197991215Y-41068008D01*
X197990971Y-41062947D01*
X197991572Y-41057913D01*
X197991642Y-41052956D01*
X197991891Y-41018031D01*
X197991888Y-41018003D01*
X197991891Y-41017978D01*
X197988868Y-40984755D01*
X197985622Y-40949031D01*
X197985614Y-40949005D01*
X197985612Y-40948980D01*
X197976621Y-40918430D01*
X197966070Y-40882563D01*
X197966057Y-40882537D01*
X197966050Y-40882515D01*
X197950828Y-40853397D01*
X197933980Y-40821159D01*
X197933963Y-40821138D01*
X197933951Y-40821115D01*
X197913376Y-40795525D01*
X197890575Y-40767157D01*
X197890553Y-40767138D01*
X197890538Y-40767120D01*
X197863116Y-40744110D01*
X197837506Y-40722615D01*
X197837485Y-40722603D01*
X197837463Y-40722585D01*
X197805476Y-40705000D01*
X197776798Y-40689228D01*
X197776772Y-40689220D01*
X197776749Y-40689207D01*
X197742851Y-40678454D01*
X197710760Y-40668269D01*
X197710735Y-40668266D01*
X197710709Y-40668258D01*
X197674814Y-40664232D01*
X197641909Y-40660536D01*
X197641884Y-40660538D01*
X197641857Y-40660535D01*
X197636900Y-40660500D01*
X196306846Y-40660500D01*
X196306927Y-40647746D01*
X196306920Y-40647668D01*
X196306933Y-40646247D01*
X196306998Y-40616094D01*
X196306990Y-40616008D01*
X196306995Y-40613647D01*
X196306881Y-40589587D01*
X196306875Y-40589532D01*
X196306839Y-40585531D01*
X196306539Y-40566972D01*
X196306416Y-40565897D01*
X196306497Y-40564827D01*
X196306353Y-40559872D01*
X196305859Y-40546221D01*
X196305286Y-40541971D01*
X196305447Y-40537691D01*
X196305114Y-40532745D01*
X196304420Y-40523408D01*
X196302256Y-40510947D01*
X196301654Y-40498306D01*
X196300902Y-40493406D01*
X196300000Y-40487792D01*
X196297937Y-40479945D01*
X196297906Y-40479544D01*
X196297507Y-40478123D01*
X196296433Y-40468885D01*
X196293217Y-40458887D01*
X196292567Y-40455146D01*
X196289192Y-40446378D01*
X196288761Y-40445038D01*
X196288034Y-40442270D01*
X196286623Y-40435489D01*
X196285643Y-40433174D01*
X196282386Y-40420785D01*
X196280107Y-40416097D01*
X196279192Y-40412836D01*
X196277028Y-40408565D01*
X196275215Y-40402930D01*
X196273212Y-40398396D01*
X196272094Y-40395910D01*
X196263559Y-40381027D01*
X196259605Y-40371691D01*
X196255769Y-40366037D01*
X196252093Y-40358475D01*
X196250744Y-40356693D01*
X196247876Y-40351033D01*
X196242206Y-40343794D01*
X196237626Y-40335808D01*
X196226908Y-40323493D01*
X196220709Y-40314355D01*
X196213807Y-40307537D01*
X196205153Y-40296489D01*
X196198184Y-40290489D01*
X196192141Y-40283545D01*
X196179976Y-40274121D01*
X196171417Y-40265666D01*
X196162558Y-40259814D01*
X196152650Y-40251283D01*
X196144646Y-40246749D01*
X196137371Y-40241113D01*
X196124520Y-40234687D01*
X196113608Y-40227479D01*
X196102879Y-40223090D01*
X196092366Y-40217135D01*
X196087821Y-40215156D01*
X196087224Y-40214901D01*
X196081051Y-40212951D01*
X196075403Y-40210127D01*
X196062565Y-40206599D01*
X196049482Y-40201247D01*
X196035111Y-40198441D01*
X196021158Y-40194034D01*
X196013926Y-40193232D01*
X196008596Y-40191767D01*
X195996366Y-40190876D01*
X195981482Y-40187970D01*
X195966839Y-40188009D01*
X195952296Y-40186396D01*
X195944264Y-40187080D01*
X195939495Y-40186733D01*
X195928319Y-40188112D01*
X195912199Y-40188155D01*
X195897850Y-40191036D01*
X195883262Y-40192279D01*
X195874809Y-40194714D01*
X195870733Y-40195217D01*
X195867663Y-40196228D01*
X195866473Y-40196367D01*
X195858485Y-40198939D01*
X195844271Y-40201793D01*
X195839539Y-40203271D01*
X195833548Y-40205189D01*
X195832125Y-40205803D01*
X195817608Y-40205477D01*
X195802528Y-40203631D01*
X195800430Y-40203786D01*
X195796226Y-40203324D01*
X195780842Y-40204651D01*
X195765386Y-40204304D01*
X195746395Y-40207623D01*
X195734421Y-40208656D01*
X195733432Y-40208729D01*
X195733367Y-40208747D01*
X195727200Y-40209279D01*
X195712359Y-40213572D01*
X195697136Y-40216232D01*
X195685102Y-40220879D01*
X195679989Y-40221955D01*
X195672846Y-40225000D01*
X195660644Y-40228529D01*
X195656052Y-40230396D01*
X195650626Y-40232647D01*
X195640230Y-40238205D01*
X195632503Y-40241189D01*
X195627619Y-40244278D01*
X195616253Y-40249123D01*
X195611921Y-40251532D01*
X195601059Y-40257674D01*
X195597466Y-40260198D01*
X195593501Y-40262072D01*
X195589265Y-40264647D01*
X195574503Y-40273764D01*
X195572974Y-40274929D01*
X195571251Y-40275796D01*
X195567080Y-40278475D01*
X195551372Y-40288721D01*
X195534663Y-40294348D01*
X195527861Y-40298245D01*
X195520543Y-40301074D01*
X195504791Y-40311046D01*
X195504375Y-40311227D01*
X195503041Y-40312153D01*
X195497847Y-40315441D01*
X195474548Y-40328790D01*
X195468630Y-40333936D01*
X195462002Y-40338132D01*
X195452167Y-40347477D01*
X195447464Y-40350742D01*
X195437762Y-40360779D01*
X195422267Y-40374254D01*
X195418887Y-40377880D01*
X195416065Y-40380950D01*
X195413871Y-40383862D01*
X195411775Y-40385854D01*
X195407004Y-40392601D01*
X195399313Y-40400558D01*
X195387492Y-40418882D01*
X195374379Y-40436290D01*
X195368759Y-40447920D01*
X195361754Y-40458779D01*
X195353720Y-40479043D01*
X195344235Y-40498672D01*
X195340980Y-40511177D01*
X195336219Y-40523186D01*
X195332274Y-40544626D01*
X195326783Y-40565722D01*
X195326019Y-40578619D01*
X195323681Y-40591325D01*
X195323975Y-40613118D01*
X195322686Y-40634885D01*
X195324038Y-40644740D01*
X195322387Y-40654389D01*
X195316620Y-40685853D01*
X195315878Y-40689805D01*
X195309889Y-40721240D01*
X195307603Y-40732704D01*
X195304387Y-40739598D01*
X195301976Y-40746440D01*
X195300186Y-40749888D01*
X195298429Y-40755920D01*
X195292488Y-40768326D01*
X195290825Y-40772996D01*
X195287106Y-40783683D01*
X195285120Y-40791899D01*
X195281948Y-40799723D01*
X195280575Y-40804486D01*
X195276461Y-40819152D01*
X195275819Y-40822766D01*
X195274561Y-40826206D01*
X195273354Y-40831014D01*
X195268562Y-40850686D01*
X195268441Y-40851539D01*
X195268160Y-40852354D01*
X195267044Y-40857184D01*
X195261291Y-40882889D01*
X195261281Y-40882967D01*
X195260545Y-40886302D01*
X195253551Y-40919066D01*
X195253543Y-40919134D01*
X195253296Y-40920273D01*
X195251537Y-40928656D01*
X195251529Y-40928732D01*
X195250811Y-40932205D01*
X195239982Y-40986568D01*
X195239800Y-40988399D01*
X195239288Y-40990154D01*
X195238403Y-40995031D01*
X195234016Y-41020229D01*
X195219939Y-41021025D01*
X195215046Y-41021821D01*
X195203933Y-41023708D01*
X195192654Y-41026780D01*
X195188324Y-41027423D01*
X195181981Y-41029687D01*
X195177860Y-41030810D01*
X195174163Y-41031647D01*
X195168975Y-41032385D01*
X195165436Y-41033624D01*
X195151525Y-41036775D01*
X195146832Y-41038369D01*
X195136486Y-41041964D01*
X195120349Y-41049408D01*
X195103583Y-41055277D01*
X195099101Y-41057395D01*
X195086959Y-41063237D01*
X195084268Y-41064873D01*
X195081332Y-41066006D01*
X195076919Y-41068264D01*
X195069748Y-41071998D01*
X195068263Y-41072966D01*
X195066637Y-41073639D01*
X195062279Y-41076002D01*
X195046513Y-41084696D01*
X195031944Y-41094699D01*
X195016487Y-41103258D01*
X195013758Y-41105166D01*
X195000205Y-41106059D01*
X195000170Y-41106065D01*
X194999701Y-41106093D01*
X194969352Y-41108135D01*
X194969346Y-41108136D01*
X194969279Y-41108140D01*
X194942566Y-41109943D01*
X194919286Y-41111478D01*
X194899643Y-41112740D01*
X194886406Y-41113552D01*
X194879643Y-41113915D01*
X194854434Y-41117762D01*
X194824569Y-41121058D01*
X194821696Y-41121964D01*
X194818714Y-41122344D01*
X194813926Y-41123943D01*
X194811153Y-41124366D01*
X194792925Y-41130956D01*
X194788693Y-41132369D01*
X194758492Y-41141891D01*
X194755854Y-41143335D01*
X194752998Y-41144289D01*
X194747704Y-41147304D01*
X194745996Y-41147922D01*
X194735242Y-41154403D01*
X194729754Y-41157529D01*
X194720731Y-41161428D01*
X194712710Y-41166955D01*
X194697719Y-41175162D01*
X194693645Y-41177983D01*
X194691017Y-41176704D01*
X194686358Y-41175012D01*
X194675941Y-41171313D01*
X194663135Y-41168132D01*
X194650815Y-41163428D01*
X194646025Y-41162153D01*
X194631806Y-41158476D01*
X194613520Y-41148876D01*
X194608915Y-41147043D01*
X194594787Y-41141535D01*
X194585963Y-41139055D01*
X194577584Y-41135333D01*
X194572868Y-41133805D01*
X194556965Y-41128776D01*
X194551217Y-41127560D01*
X194545746Y-41125431D01*
X194540964Y-41124126D01*
X194512488Y-41116571D01*
X194497087Y-41114061D01*
X194482052Y-41109911D01*
X194477162Y-41109099D01*
X194455110Y-41105594D01*
X194424016Y-41103731D01*
X194392987Y-41101254D01*
X194388031Y-41101378D01*
X194371397Y-41101911D01*
X194351084Y-41104562D01*
X194330634Y-41105578D01*
X194316818Y-41109034D01*
X194302696Y-41110877D01*
X194283292Y-41117420D01*
X194276453Y-41119131D01*
X194269851Y-41118961D01*
X194269847Y-41118961D01*
X194175344Y-41116526D01*
X194155318Y-41117970D01*
X194135233Y-41117761D01*
X194120842Y-41120455D01*
X194106240Y-41121508D01*
X194086871Y-41126815D01*
X194067132Y-41130511D01*
X194053540Y-41135948D01*
X194039419Y-41139818D01*
X194021448Y-41148788D01*
X194002805Y-41156246D01*
X193990528Y-41164220D01*
X193977427Y-41170759D01*
X193961539Y-41183049D01*
X193944702Y-41193985D01*
X193934211Y-41204188D01*
X193922626Y-41213150D01*
X193916485Y-41220196D01*
X193906379Y-41224728D01*
X193893142Y-41225689D01*
X193878653Y-41228179D01*
X193877883Y-41228174D01*
X193876942Y-41228354D01*
X193874337Y-41228513D01*
X193868805Y-41228634D01*
X193867446Y-41228934D01*
X193862720Y-41229223D01*
X193857831Y-41230040D01*
X193850151Y-41231380D01*
X193834039Y-41235847D01*
X193824860Y-41237425D01*
X193820318Y-41239164D01*
X193809828Y-41241167D01*
X193807144Y-41242252D01*
X193801153Y-41243575D01*
X193792500Y-41247365D01*
X193783386Y-41249892D01*
X193763493Y-41259896D01*
X193745594Y-41267131D01*
X193742000Y-41269484D01*
X193737689Y-41271372D01*
X193733381Y-41273824D01*
X193732325Y-41274435D01*
X193727032Y-41278232D01*
X193721488Y-41281020D01*
X193706210Y-41292913D01*
X193687626Y-41305078D01*
X193682200Y-41310393D01*
X193676029Y-41314820D01*
X193670532Y-41320685D01*
X193666815Y-41323578D01*
X193656025Y-41336032D01*
X193638131Y-41353561D01*
X193633838Y-41359832D01*
X193628648Y-41365370D01*
X193623609Y-41373451D01*
X193621450Y-41375943D01*
X193614956Y-41387327D01*
X193614309Y-41388364D01*
X193602712Y-41405307D01*
X193590420Y-41413039D01*
X193577067Y-41425653D01*
X193562612Y-41436985D01*
X193559052Y-41440434D01*
X193553916Y-41445480D01*
X193544533Y-41445165D01*
X193539446Y-41444289D01*
X193533858Y-41444428D01*
X193516503Y-41442729D01*
X193505172Y-41443842D01*
X193493795Y-41443459D01*
X193479559Y-41445784D01*
X193470183Y-41446018D01*
X193461785Y-41447900D01*
X193438178Y-41447900D01*
X193434429Y-41448268D01*
X193430684Y-41447980D01*
X193400029Y-41451641D01*
X193369225Y-41454661D01*
X193365620Y-41455750D01*
X193361889Y-41456195D01*
X193332529Y-41465740D01*
X193302898Y-41474686D01*
X193299572Y-41476454D01*
X193295999Y-41477616D01*
X193269034Y-41492692D01*
X193241724Y-41507213D01*
X193238809Y-41509591D01*
X193235526Y-41511426D01*
X193212005Y-41531451D01*
X193188033Y-41551002D01*
X193185632Y-41553904D01*
X193182771Y-41556340D01*
X193163572Y-41580571D01*
X193154005Y-41592136D01*
X193148308Y-41598118D01*
X193128659Y-41617107D01*
X193124456Y-41623159D01*
X193119373Y-41628496D01*
X193104724Y-41651574D01*
X193104189Y-41652345D01*
X193084158Y-41655956D01*
X193080734Y-41657299D01*
X193077140Y-41658024D01*
X193072409Y-41659506D01*
X193061951Y-41662864D01*
X193060583Y-41663456D01*
X193059130Y-41663783D01*
X193028793Y-41677214D01*
X192998367Y-41690382D01*
X192997142Y-41691227D01*
X192995778Y-41691831D01*
X192977386Y-41704748D01*
X192974587Y-41706161D01*
X192967722Y-41711523D01*
X192941337Y-41729725D01*
X192940295Y-41730797D01*
X192939080Y-41731650D01*
X192935343Y-41734907D01*
X192929623Y-41739965D01*
X192925154Y-41744771D01*
X192919985Y-41748808D01*
X192905466Y-41765623D01*
X192900440Y-41761410D01*
X192895705Y-41758171D01*
X192891557Y-41754204D01*
X192887636Y-41751171D01*
X192876820Y-41742924D01*
X192868815Y-41737975D01*
X192868574Y-41737750D01*
X192865725Y-41735980D01*
X192856436Y-41728487D01*
X192852274Y-41725795D01*
X192843420Y-41720156D01*
X192828353Y-41712515D01*
X192824109Y-41709437D01*
X192819791Y-41707447D01*
X192809721Y-41701191D01*
X192805260Y-41699029D01*
X192797283Y-41695233D01*
X192786858Y-41691470D01*
X192781629Y-41688818D01*
X192778682Y-41687990D01*
X192770559Y-41681356D01*
X192766413Y-41678638D01*
X192750607Y-41668437D01*
X192740519Y-41663244D01*
X192731213Y-41656780D01*
X192726868Y-41654392D01*
X192709535Y-41645026D01*
X192700356Y-41641170D01*
X192691808Y-41636079D01*
X192687308Y-41634001D01*
X192670100Y-41626203D01*
X192658403Y-41622226D01*
X192647296Y-41616809D01*
X192642638Y-41615114D01*
X192627213Y-41609622D01*
X192605456Y-41604198D01*
X192584126Y-41597284D01*
X192579277Y-41596257D01*
X192567289Y-41593805D01*
X192561227Y-41593172D01*
X192559987Y-41592863D01*
X192556750Y-41592705D01*
X192535251Y-41590460D01*
X192503232Y-41586675D01*
X192500805Y-41586864D01*
X192498380Y-41586611D01*
X192477036Y-41588569D01*
X192473165Y-41588005D01*
X192453042Y-41589030D01*
X192432487Y-41588405D01*
X192427724Y-41589199D01*
X192422900Y-41589183D01*
X192413288Y-41591054D01*
X192403970Y-41591528D01*
X192384763Y-41596358D01*
X192364145Y-41599794D01*
X192359633Y-41601495D01*
X192354892Y-41602418D01*
X192345638Y-41606197D01*
X192336778Y-41608425D01*
X192319180Y-41616749D01*
X192299317Y-41624239D01*
X192295218Y-41626786D01*
X192290750Y-41628611D01*
X192282254Y-41634216D01*
X192274148Y-41638050D01*
X192258747Y-41649452D01*
X192240472Y-41660810D01*
X192236946Y-41664105D01*
X192232917Y-41666763D01*
X192225552Y-41674029D01*
X192218464Y-41679277D01*
X192205746Y-41693261D01*
X192189851Y-41708115D01*
X192187032Y-41712032D01*
X192183596Y-41715422D01*
X192177707Y-41724092D01*
X192171849Y-41730533D01*
X192163713Y-41744029D01*
X192159031Y-41745099D01*
X192153870Y-41746823D01*
X192147224Y-41747405D01*
X192140445Y-41746930D01*
X192112758Y-41750423D01*
X192084969Y-41752856D01*
X192078445Y-41754752D01*
X192071706Y-41755602D01*
X192067409Y-41757030D01*
X192056871Y-41757544D01*
X192049073Y-41757219D01*
X192018186Y-41755288D01*
X192014498Y-41755781D01*
X192010784Y-41755627D01*
X191997624Y-41757668D01*
X191964233Y-41751280D01*
X191948315Y-41749823D01*
X191932647Y-41746698D01*
X191913910Y-41746673D01*
X191895238Y-41744963D01*
X191879336Y-41746626D01*
X191863364Y-41746604D01*
X191844980Y-41750218D01*
X191826329Y-41752168D01*
X191811057Y-41756886D01*
X191795381Y-41759968D01*
X191790644Y-41761427D01*
X191737961Y-41778060D01*
X191737891Y-41778090D01*
X191736468Y-41778535D01*
X191714826Y-41785473D01*
X191712545Y-41786459D01*
X191710131Y-41787015D01*
X191705443Y-41788626D01*
X191690364Y-41793928D01*
X191679449Y-41799012D01*
X191667986Y-41802659D01*
X191663445Y-41804647D01*
X191653392Y-41809133D01*
X191638282Y-41817734D01*
X191636850Y-41818262D01*
X191632794Y-41820740D01*
X191627558Y-41823179D01*
X191624302Y-41825559D01*
X191601773Y-41837523D01*
X191597662Y-41840292D01*
X191591096Y-41844783D01*
X191584771Y-41850085D01*
X191578027Y-41854206D01*
X191573590Y-41854733D01*
X191559547Y-41854760D01*
X191539265Y-41858816D01*
X191518733Y-41861258D01*
X191515648Y-41861957D01*
X191506443Y-41861270D01*
X191491546Y-41858484D01*
X191471966Y-41858693D01*
X191452451Y-41857234D01*
X191437414Y-41859061D01*
X191422267Y-41859222D01*
X191403106Y-41863228D01*
X191383673Y-41865589D01*
X191380105Y-41866757D01*
X191360180Y-41865384D01*
X191346685Y-41867102D01*
X191333090Y-41867207D01*
X191312411Y-41871467D01*
X191291451Y-41874136D01*
X191278546Y-41878443D01*
X191265232Y-41881186D01*
X191245774Y-41889382D01*
X191225732Y-41896071D01*
X191213909Y-41902803D01*
X191201380Y-41908080D01*
X191183888Y-41919896D01*
X191165524Y-41930353D01*
X191155604Y-41938934D01*
X191151296Y-41941667D01*
X191150402Y-41942518D01*
X191143969Y-41946864D01*
X191129101Y-41961857D01*
X191113122Y-41975678D01*
X191106049Y-41984750D01*
X191101119Y-41989444D01*
X191099578Y-41991628D01*
X191095184Y-41996059D01*
X191083504Y-42013666D01*
X191070522Y-42030317D01*
X191066125Y-42039044D01*
X191061178Y-42046055D01*
X191059462Y-42049909D01*
X191056884Y-42053795D01*
X191054590Y-42058189D01*
X191053980Y-42059378D01*
X191047084Y-42076831D01*
X191039345Y-42092190D01*
X191037200Y-42099903D01*
X191032994Y-42109348D01*
X191031312Y-42116751D01*
X191028521Y-42123814D01*
X191024630Y-42145097D01*
X191020780Y-42158941D01*
X191020307Y-42165175D01*
X191017640Y-42176909D01*
X191017427Y-42184499D01*
X191016062Y-42191969D01*
X191016420Y-42216351D01*
X191015534Y-42228025D01*
X144903761Y-42228025D01*
X144903760Y-36244155D01*
X205053761Y-36244155D01*
X205053761Y-92094154D01*
M02*
