G04 #@! TF.FileFunction,Copper,L1,Top,Signal*
%FSLAX46Y46*%
G04 Gerber Fmt 4.6, Leading zero omitted, Abs format (unit mm)*
G04 Created by KiCad (PCBNEW 4.0.7-e2-6376~58~ubuntu14.04.1) date Wed May 23 13:57:35 2018*
%MOMM*%
%LPD*%
G01*
G04 APERTURE LIST*
%ADD10C,0.100000*%
%ADD11C,0.190000*%
%ADD12C,0.280000*%
%ADD13C,0.010000*%
%ADD14O,2.000000X3.000000*%
%ADD15C,3.600000*%
%ADD16R,0.800000X0.500000*%
%ADD17R,0.500000X0.800000*%
%ADD18R,2.300000X1.500000*%
%ADD19R,1.000000X1.200000*%
%ADD20R,1.200000X1.000000*%
%ADD21R,1.500000X0.450000*%
%ADD22R,1.750000X2.500000*%
%ADD23R,0.600000X1.700000*%
%ADD24R,1.000000X2.700000*%
%ADD25R,2.000000X0.700000*%
%ADD26R,0.800000X1.200000*%
%ADD27C,0.900000*%
%ADD28C,0.600000*%
%ADD29C,1.000000*%
%ADD30C,0.200000*%
G04 APERTURE END LIST*
D10*
D11*
X184316667Y-38011667D02*
X184000000Y-37631667D01*
X183746667Y-38011667D02*
X183746667Y-37125000D01*
X184126667Y-37125000D01*
X184253333Y-37188333D01*
X184316667Y-37315000D01*
X184316667Y-37441667D01*
X184253333Y-37568333D01*
X184126667Y-37631667D01*
X183746667Y-37631667D01*
X184000000Y-36681667D02*
X183683333Y-36745000D01*
X183366667Y-36935000D01*
X183176667Y-37251667D01*
X183113333Y-37568333D01*
X183176667Y-37885000D01*
X183366667Y-38201667D01*
X183683333Y-38391667D01*
X184000000Y-38455000D01*
X184316667Y-38391667D01*
X184633333Y-38201667D01*
X184823333Y-37885000D01*
X184886667Y-37568333D01*
X184823333Y-37251667D01*
X184633333Y-36935000D01*
X184316667Y-36745000D01*
X184000000Y-36681667D01*
D12*
X167142856Y-40004762D02*
X167142856Y-38004762D01*
X168285714Y-40004762D01*
X168285714Y-38004762D01*
X169999999Y-39909524D02*
X169809523Y-40004762D01*
X169428571Y-40004762D01*
X169238094Y-39909524D01*
X169142856Y-39719048D01*
X169142856Y-38957143D01*
X169238094Y-38766667D01*
X169428571Y-38671429D01*
X169809523Y-38671429D01*
X169999999Y-38766667D01*
X170095237Y-38957143D01*
X170095237Y-39147619D01*
X169142856Y-39338095D01*
X171809523Y-38671429D02*
X171809523Y-40004762D01*
X170952380Y-38671429D02*
X170952380Y-39719048D01*
X171047619Y-39909524D01*
X171238095Y-40004762D01*
X171523809Y-40004762D01*
X171714285Y-39909524D01*
X171809523Y-39814286D01*
X172761904Y-40004762D02*
X172761904Y-38671429D01*
X172761904Y-39052381D02*
X172857143Y-38861905D01*
X172952381Y-38766667D01*
X173142857Y-38671429D01*
X173333333Y-38671429D01*
X174285714Y-40004762D02*
X174095238Y-39909524D01*
X173999999Y-39814286D01*
X173904761Y-39623810D01*
X173904761Y-39052381D01*
X173999999Y-38861905D01*
X174095238Y-38766667D01*
X174285714Y-38671429D01*
X174571428Y-38671429D01*
X174761904Y-38766667D01*
X174857142Y-38861905D01*
X174952380Y-39052381D01*
X174952380Y-39623810D01*
X174857142Y-39814286D01*
X174761904Y-39909524D01*
X174571428Y-40004762D01*
X174285714Y-40004762D01*
X176476190Y-38957143D02*
X176761904Y-39052381D01*
X176857143Y-39147619D01*
X176952381Y-39338095D01*
X176952381Y-39623810D01*
X176857143Y-39814286D01*
X176761904Y-39909524D01*
X176571428Y-40004762D01*
X175809523Y-40004762D01*
X175809523Y-38004762D01*
X176476190Y-38004762D01*
X176666666Y-38100000D01*
X176761904Y-38195238D01*
X176857143Y-38385714D01*
X176857143Y-38576190D01*
X176761904Y-38766667D01*
X176666666Y-38861905D01*
X176476190Y-38957143D01*
X175809523Y-38957143D01*
X177619047Y-38671429D02*
X178095238Y-40004762D01*
X178571428Y-38671429D02*
X178095238Y-40004762D01*
X177904762Y-40480952D01*
X177809523Y-40576190D01*
X177619047Y-40671429D01*
X179047619Y-38671429D02*
X179809524Y-38671429D01*
X179333333Y-38004762D02*
X179333333Y-39719048D01*
X179428572Y-39909524D01*
X179619048Y-40004762D01*
X179809524Y-40004762D01*
X181238095Y-39909524D02*
X181047619Y-40004762D01*
X180666667Y-40004762D01*
X180476190Y-39909524D01*
X180380952Y-39719048D01*
X180380952Y-38957143D01*
X180476190Y-38766667D01*
X180666667Y-38671429D01*
X181047619Y-38671429D01*
X181238095Y-38766667D01*
X181333333Y-38957143D01*
X181333333Y-39147619D01*
X180380952Y-39338095D01*
X182095238Y-39909524D02*
X182285715Y-40004762D01*
X182666667Y-40004762D01*
X182857143Y-39909524D01*
X182952381Y-39719048D01*
X182952381Y-39623810D01*
X182857143Y-39433333D01*
X182666667Y-39338095D01*
X182380953Y-39338095D01*
X182190476Y-39242857D01*
X182095238Y-39052381D01*
X182095238Y-38957143D01*
X182190476Y-38766667D01*
X182380953Y-38671429D01*
X182666667Y-38671429D01*
X182857143Y-38766667D01*
D13*
G36*
X171067702Y-56631550D02*
X171134723Y-56635755D01*
X171525714Y-56704671D01*
X171907529Y-56853017D01*
X172259441Y-57067271D01*
X172560724Y-57333915D01*
X172790650Y-57639427D01*
X172851704Y-57755763D01*
X172893624Y-57850579D01*
X172924804Y-57940700D01*
X172946837Y-58042776D01*
X172961317Y-58173462D01*
X172969837Y-58349407D01*
X172973991Y-58587264D01*
X172975373Y-58903686D01*
X172975503Y-59049300D01*
X172976716Y-59360124D01*
X172979816Y-59633257D01*
X172984462Y-59853586D01*
X172990315Y-60005996D01*
X172997033Y-60075376D01*
X172998655Y-60078000D01*
X173046605Y-60050369D01*
X173159737Y-59975325D01*
X173320651Y-59864641D01*
X173493955Y-59742860D01*
X173781659Y-59543231D01*
X174006667Y-59399157D01*
X174185434Y-59302495D01*
X174334416Y-59245100D01*
X174470068Y-59218831D01*
X174561476Y-59214589D01*
X174715539Y-59225676D01*
X174853948Y-59264884D01*
X174985624Y-59341562D01*
X175119488Y-59465063D01*
X175264461Y-59644735D01*
X175429465Y-59889931D01*
X175623420Y-60210000D01*
X175794462Y-60506940D01*
X175955354Y-60788156D01*
X176085316Y-61017125D01*
X176187723Y-61208947D01*
X176265950Y-61378723D01*
X176323372Y-61541554D01*
X176363364Y-61712539D01*
X176389300Y-61906778D01*
X176404557Y-62139372D01*
X176412508Y-62425422D01*
X176416529Y-62780026D01*
X176419995Y-63218286D01*
X176420843Y-63309483D01*
X176436686Y-64940767D01*
X177046621Y-65098599D01*
X177686685Y-65296521D01*
X178233849Y-65535072D01*
X178688422Y-65814452D01*
X179050714Y-66134864D01*
X179321035Y-66496509D01*
X179388600Y-66621863D01*
X179554600Y-66958847D01*
X179585740Y-69885333D01*
X180195144Y-69312366D01*
X180470150Y-69056821D01*
X180686200Y-68865290D01*
X180855939Y-68729703D01*
X180992012Y-68641992D01*
X181107066Y-68594088D01*
X181213744Y-68577923D01*
X181324693Y-68585428D01*
X181332600Y-68586579D01*
X181572353Y-68651333D01*
X181870830Y-68777708D01*
X182214374Y-68956031D01*
X182589326Y-69176625D01*
X182982026Y-69429818D01*
X183378815Y-69705934D01*
X183766036Y-69995299D01*
X184130029Y-70288238D01*
X184457136Y-70575076D01*
X184733697Y-70846139D01*
X184946055Y-71091753D01*
X185022896Y-71200445D01*
X185168000Y-71426291D01*
X185168000Y-72889545D01*
X185168794Y-73263319D01*
X185171040Y-73601844D01*
X185174530Y-73892446D01*
X185179058Y-74122455D01*
X185184417Y-74279197D01*
X185190400Y-74350001D01*
X185191880Y-74352800D01*
X185245653Y-74331371D01*
X185364584Y-74275005D01*
X185523663Y-74195583D01*
X185534780Y-74189914D01*
X185873156Y-74053355D01*
X186182690Y-74000215D01*
X186454882Y-74029243D01*
X186681229Y-74139187D01*
X186853232Y-74328796D01*
X186886951Y-74388907D01*
X187015940Y-74675309D01*
X187149478Y-75025827D01*
X187275432Y-75404356D01*
X187381667Y-75774792D01*
X187447494Y-76056801D01*
X187478786Y-76220928D01*
X187504797Y-76380291D01*
X187525923Y-76545656D01*
X187542565Y-76727789D01*
X187555120Y-76937455D01*
X187563987Y-77185421D01*
X187569564Y-77482453D01*
X187572250Y-77839316D01*
X187572442Y-78266776D01*
X187570540Y-78775599D01*
X187567454Y-79298514D01*
X187555600Y-81120028D01*
X187187300Y-81500069D01*
X186737636Y-81933357D01*
X186264841Y-82324869D01*
X185749561Y-82688242D01*
X185172442Y-83037109D01*
X184514129Y-83385108D01*
X184505836Y-83389245D01*
X183630654Y-83782185D01*
X182732533Y-84102381D01*
X181825275Y-84346877D01*
X180922677Y-84512720D01*
X180038539Y-84596953D01*
X179186661Y-84596622D01*
X178945000Y-84580064D01*
X178028363Y-84466661D01*
X177113456Y-84281038D01*
X176195638Y-84020923D01*
X175270267Y-83684046D01*
X174332702Y-83268138D01*
X173378303Y-82770927D01*
X173317600Y-82734800D01*
X180556862Y-82734800D01*
X180631301Y-82721837D01*
X180782385Y-82686432D01*
X180988998Y-82633805D01*
X181230024Y-82569178D01*
X181260440Y-82560813D01*
X182166161Y-82283503D01*
X183007666Y-81969849D01*
X183779135Y-81623063D01*
X184474744Y-81246354D01*
X185088672Y-80842934D01*
X185615096Y-80416011D01*
X186048194Y-79968796D01*
X186119529Y-79881699D01*
X186500452Y-79337118D01*
X186784712Y-78779504D01*
X186977223Y-78198119D01*
X187047660Y-77852744D01*
X187074151Y-77627604D01*
X187072135Y-77421451D01*
X187036679Y-77210665D01*
X186962850Y-76971622D01*
X186845712Y-76680703D01*
X186764777Y-76498272D01*
X186653665Y-76267064D01*
X186559585Y-76115591D01*
X186465867Y-76027742D01*
X186355843Y-75987402D01*
X186226971Y-75978400D01*
X186072387Y-75991273D01*
X185900561Y-76032720D01*
X185704302Y-76106979D01*
X185476423Y-76218290D01*
X185209733Y-76370891D01*
X184897044Y-76569023D01*
X184531166Y-76816923D01*
X184104911Y-77118832D01*
X183611089Y-77478988D01*
X183333277Y-77684699D01*
X183004268Y-77928331D01*
X182695646Y-78155008D01*
X182418312Y-78356865D01*
X182183164Y-78526041D01*
X182001102Y-78654672D01*
X181883025Y-78734896D01*
X181847780Y-78756342D01*
X181702560Y-78831517D01*
X181831848Y-78967058D01*
X181937071Y-79101827D01*
X182013361Y-79240932D01*
X182015168Y-79245607D01*
X182039392Y-79365641D01*
X182056686Y-79564003D01*
X182067242Y-79818458D01*
X182071253Y-80106767D01*
X182068914Y-80406697D01*
X182060416Y-80696010D01*
X182045953Y-80952471D01*
X182025719Y-81153843D01*
X181999907Y-81277890D01*
X181997452Y-81284179D01*
X181904639Y-81436189D01*
X181737876Y-81634423D01*
X181507499Y-81868368D01*
X181223842Y-82127513D01*
X180906216Y-82394106D01*
X180742308Y-82531447D01*
X180621813Y-82642297D01*
X180557683Y-82714024D01*
X180556862Y-82734800D01*
X173317600Y-82734800D01*
X172402428Y-82190144D01*
X171400435Y-81523519D01*
X171122048Y-81320072D01*
X174776964Y-81320072D01*
X174788576Y-81445322D01*
X174895125Y-81579045D01*
X175091092Y-81714523D01*
X175109546Y-81724735D01*
X175359588Y-81808844D01*
X175631442Y-81798487D01*
X175929109Y-81693026D01*
X176161871Y-81557709D01*
X176330588Y-81435598D01*
X176547007Y-81264551D01*
X176785264Y-81065708D01*
X177019497Y-80860208D01*
X177058146Y-80825136D01*
X177460971Y-80458336D01*
X177799621Y-80153351D01*
X178084546Y-79903046D01*
X178326196Y-79700290D01*
X178535024Y-79537950D01*
X178721478Y-79408895D01*
X178896011Y-79305990D01*
X179069071Y-79222104D01*
X179251111Y-79150105D01*
X179452579Y-79082860D01*
X179683928Y-79013236D01*
X179734709Y-78998396D01*
X180394604Y-78806000D01*
X180391030Y-77496728D01*
X180390382Y-77094778D01*
X180391529Y-76780438D01*
X180395421Y-76539721D01*
X180403007Y-76358641D01*
X180415236Y-76223211D01*
X180433057Y-76119443D01*
X180457420Y-76033352D01*
X180489273Y-75950951D01*
X180497191Y-75932369D01*
X180654788Y-75671097D01*
X180890921Y-75417315D01*
X181183470Y-75192311D01*
X181389673Y-75073455D01*
X181585915Y-74963810D01*
X181812446Y-74821919D01*
X182018400Y-74679799D01*
X182216757Y-74521205D01*
X182464129Y-74303973D01*
X182742446Y-74045771D01*
X183033641Y-73764267D01*
X183319647Y-73477127D01*
X183582394Y-73202022D01*
X183803814Y-72956617D01*
X183910114Y-72829989D01*
X184216470Y-72450179D01*
X183824200Y-72080134D01*
X183542178Y-71833859D01*
X183217046Y-71582623D01*
X182866266Y-71337149D01*
X182507303Y-71108161D01*
X182157618Y-70906381D01*
X181834675Y-70742534D01*
X181555937Y-70627342D01*
X181377323Y-70577580D01*
X181322277Y-70571252D01*
X181265228Y-70577538D01*
X181198583Y-70602643D01*
X181114743Y-70652777D01*
X181006113Y-70734145D01*
X180865098Y-70852955D01*
X180684100Y-71015416D01*
X180455525Y-71227735D01*
X180171775Y-71496118D01*
X179825256Y-71826775D01*
X179688123Y-71957997D01*
X179409364Y-72224779D01*
X179140978Y-72481502D01*
X178895866Y-72715836D01*
X178686931Y-72915449D01*
X178527073Y-73068011D01*
X178437000Y-73153781D01*
X178306101Y-73278839D01*
X178245700Y-73341116D01*
X178252577Y-73347746D01*
X178323510Y-73305862D01*
X178386200Y-73266290D01*
X178718759Y-73092615D01*
X179027055Y-73012573D01*
X179323091Y-73024893D01*
X179618868Y-73128301D01*
X179630800Y-73134282D01*
X179776513Y-73215606D01*
X179890673Y-73303248D01*
X179976696Y-73409962D01*
X180037999Y-73548505D01*
X180077998Y-73731632D01*
X180100111Y-73972100D01*
X180107753Y-74282664D01*
X180104342Y-74676079D01*
X180100051Y-74886200D01*
X180074826Y-76003800D01*
X177441956Y-78611332D01*
X177011529Y-79038549D01*
X176602124Y-79446708D01*
X176219518Y-79829940D01*
X175869486Y-80182372D01*
X175557805Y-80498136D01*
X175290249Y-80771360D01*
X175072595Y-80996173D01*
X174910619Y-81166706D01*
X174810095Y-81277087D01*
X174776964Y-81320072D01*
X171122048Y-81320072D01*
X170367685Y-80768781D01*
X169299534Y-79923659D01*
X169115200Y-79771752D01*
X168817093Y-79515334D01*
X168469347Y-79200580D01*
X168086269Y-78841705D01*
X167682166Y-78452925D01*
X167271347Y-78048452D01*
X166868120Y-77642503D01*
X166486793Y-77249290D01*
X166141672Y-76883029D01*
X165847067Y-76557933D01*
X165654842Y-76334000D01*
X165584043Y-76243960D01*
X167981262Y-76243960D01*
X167982538Y-76245803D01*
X168473065Y-76867227D01*
X168941236Y-77390820D01*
X169388190Y-77817597D01*
X169815067Y-78148573D01*
X170223004Y-78384762D01*
X170509513Y-78497917D01*
X170734748Y-78542613D01*
X171019541Y-78562600D01*
X171324984Y-78558194D01*
X171612164Y-78529712D01*
X171811079Y-78487334D01*
X171988609Y-78430286D01*
X172161717Y-78363798D01*
X172336917Y-78282939D01*
X172520724Y-78182773D01*
X172719652Y-78058369D01*
X172940217Y-77904791D01*
X173188931Y-77717108D01*
X173472311Y-77490385D01*
X173796870Y-77219688D01*
X174169123Y-76900086D01*
X174595585Y-76526643D01*
X175082771Y-76094427D01*
X175637193Y-75598504D01*
X175699183Y-75542886D01*
X176067065Y-75212663D01*
X176363650Y-74945819D01*
X176593222Y-74737838D01*
X176760063Y-74584202D01*
X176868458Y-74480391D01*
X176922690Y-74421889D01*
X176927042Y-74404178D01*
X176885798Y-74422739D01*
X176803242Y-74473055D01*
X176683657Y-74550608D01*
X176567507Y-74627051D01*
X176005885Y-74956039D01*
X175437983Y-75210057D01*
X174878249Y-75384001D01*
X174341130Y-75472767D01*
X174144400Y-75483132D01*
X173807829Y-75469549D01*
X173549491Y-75411345D01*
X173354192Y-75303828D01*
X173257062Y-75209111D01*
X173212856Y-75154107D01*
X173180149Y-75098961D01*
X173157208Y-75028303D01*
X173142303Y-74926764D01*
X173133700Y-74778974D01*
X173129668Y-74569563D01*
X173128474Y-74283164D01*
X173128400Y-74067478D01*
X173129893Y-73686958D01*
X173138192Y-73389775D01*
X173159025Y-73157670D01*
X173198118Y-72972386D01*
X173261199Y-72815664D01*
X173353997Y-72669248D01*
X173482238Y-72514879D01*
X173651650Y-72334299D01*
X173682003Y-72302746D01*
X173831855Y-72153105D01*
X173995561Y-72002743D01*
X174181812Y-71845262D01*
X174399300Y-71674269D01*
X174656717Y-71483367D01*
X174962755Y-71266162D01*
X175326106Y-71016257D01*
X175755460Y-70727258D01*
X176259510Y-70392769D01*
X176435090Y-70276999D01*
X176794195Y-70039107D01*
X177134295Y-69811148D01*
X177443985Y-69600966D01*
X177711860Y-69416406D01*
X177926512Y-69265313D01*
X178076538Y-69155531D01*
X178142328Y-69102753D01*
X178259665Y-68976598D01*
X178403463Y-68792700D01*
X178550355Y-68581860D01*
X178616869Y-68477252D01*
X178887462Y-68036005D01*
X178678542Y-67850605D01*
X178344959Y-67607953D01*
X177920103Y-67388432D01*
X177412391Y-67195578D01*
X176830243Y-67032926D01*
X176618070Y-66985389D01*
X176279307Y-66925911D01*
X175958874Y-66898289D01*
X175645179Y-66905958D01*
X175326629Y-66952350D01*
X174991631Y-67040899D01*
X174628595Y-67175036D01*
X174225926Y-67358195D01*
X173772033Y-67593809D01*
X173255324Y-67885312D01*
X172927238Y-68078393D01*
X172635382Y-68250784D01*
X172337768Y-68424205D01*
X172059857Y-68583981D01*
X171827109Y-68715436D01*
X171713020Y-68778247D01*
X171288241Y-69008123D01*
X172119420Y-69026591D01*
X172438887Y-69035076D01*
X172675844Y-69045790D01*
X172849381Y-69061091D01*
X172978589Y-69083340D01*
X173082558Y-69114894D01*
X173179200Y-69157531D01*
X173298604Y-69219292D01*
X173389320Y-69281167D01*
X173455127Y-69357310D01*
X173499800Y-69461878D01*
X173527118Y-69609029D01*
X173540856Y-69812917D01*
X173544793Y-70087699D01*
X173542704Y-70447532D01*
X173542030Y-70517400D01*
X173532045Y-71533400D01*
X173368322Y-71678610D01*
X173289599Y-71743009D01*
X173140204Y-71860103D01*
X172930812Y-72021718D01*
X172672097Y-72219679D01*
X172374736Y-72445812D01*
X172049404Y-72691943D01*
X171782200Y-72893219D01*
X171318943Y-73242011D01*
X170926172Y-73539122D01*
X170592754Y-73793382D01*
X170307558Y-74013618D01*
X170059453Y-74208659D01*
X169837306Y-74387334D01*
X169629988Y-74558472D01*
X169426365Y-74730900D01*
X169215307Y-74913447D01*
X169028667Y-75077069D01*
X168707965Y-75367368D01*
X168437933Y-75628037D01*
X168224408Y-75852553D01*
X168073229Y-76034394D01*
X167990234Y-76167038D01*
X167981262Y-76243960D01*
X165584043Y-76243960D01*
X164686817Y-75102901D01*
X163798149Y-73839592D01*
X162976792Y-72525567D01*
X162210698Y-71142320D01*
X161974329Y-70680200D01*
X161495199Y-69725400D01*
X161495208Y-69693691D01*
X164326318Y-69693691D01*
X164390766Y-70054745D01*
X164510874Y-70601313D01*
X164668111Y-71117918D01*
X164855504Y-71587483D01*
X165066078Y-71992931D01*
X165292860Y-72317186D01*
X165334041Y-72364697D01*
X165472419Y-72510229D01*
X165578347Y-72583983D01*
X165683598Y-72592907D01*
X165819946Y-72543948D01*
X165922610Y-72493388D01*
X166065898Y-72405329D01*
X166261232Y-72259549D01*
X166512333Y-72052891D01*
X166822925Y-71782198D01*
X167196732Y-71444312D01*
X167602123Y-71069104D01*
X167882069Y-70809904D01*
X168164394Y-70552382D01*
X168431944Y-70311902D01*
X168667565Y-70103831D01*
X168854102Y-69943533D01*
X168915998Y-69892266D01*
X169329951Y-69555624D01*
X169006675Y-69495519D01*
X168601925Y-69395989D01*
X168254311Y-69261377D01*
X167976412Y-69098297D01*
X167780805Y-68913359D01*
X167720085Y-68819246D01*
X167692263Y-68740017D01*
X167671279Y-68615783D01*
X167656214Y-68433700D01*
X167646149Y-68180923D01*
X167640163Y-67844606D01*
X167638696Y-67682503D01*
X167638458Y-67371886D01*
X167642042Y-67094011D01*
X167648924Y-66865673D01*
X167658581Y-66703666D01*
X167670488Y-66624784D01*
X167671772Y-66622131D01*
X167659416Y-66615454D01*
X167587084Y-66665013D01*
X167486514Y-66746651D01*
X167281591Y-66916482D01*
X167060451Y-67090290D01*
X166805703Y-67281115D01*
X166499951Y-67501998D01*
X166143400Y-67753661D01*
X165723181Y-68067349D01*
X165338967Y-68392133D01*
X165003873Y-68715142D01*
X164731016Y-69023503D01*
X164533514Y-69304346D01*
X164497346Y-69368945D01*
X164326318Y-69693691D01*
X161495208Y-69693691D01*
X161496080Y-66921000D01*
X161497155Y-66378988D01*
X161499919Y-65853648D01*
X161504199Y-65356353D01*
X161509818Y-64898480D01*
X161516602Y-64491404D01*
X161517399Y-64456006D01*
X162144993Y-64456006D01*
X162184718Y-64685350D01*
X162289176Y-64886810D01*
X162424874Y-65048151D01*
X162698163Y-65269046D01*
X162998283Y-65395803D01*
X163314289Y-65426445D01*
X163635238Y-65358991D01*
X163782900Y-65293762D01*
X164020016Y-65156035D01*
X164282807Y-64973943D01*
X164579249Y-64740894D01*
X164917317Y-64450301D01*
X165304988Y-64095574D01*
X165750236Y-63670124D01*
X165761340Y-63659336D01*
X166119073Y-63315053D01*
X166416692Y-63037187D01*
X166663748Y-62818198D01*
X166869791Y-62650547D01*
X167044372Y-62526694D01*
X167197039Y-62439100D01*
X167337344Y-62380224D01*
X167409421Y-62358231D01*
X167715386Y-62325145D01*
X168009328Y-62389553D01*
X168282131Y-62547392D01*
X168524681Y-62794598D01*
X168589287Y-62884244D01*
X168749174Y-63121873D01*
X168725371Y-64178036D01*
X168716946Y-64532487D01*
X168708496Y-64801461D01*
X168698037Y-65001060D01*
X168683589Y-65147389D01*
X168663167Y-65256551D01*
X168634790Y-65344650D01*
X168596475Y-65427788D01*
X168563941Y-65489320D01*
X168426315Y-65744441D01*
X168834257Y-65497620D01*
X169070110Y-65360180D01*
X169349931Y-65204920D01*
X169626119Y-65058036D01*
X169724800Y-65007554D01*
X170031838Y-64855760D01*
X170342626Y-64708706D01*
X170669089Y-64561443D01*
X171023152Y-64409019D01*
X171416741Y-64246483D01*
X171861781Y-64068886D01*
X172370197Y-63871276D01*
X172953915Y-63648703D01*
X173433200Y-63468080D01*
X173901814Y-63287431D01*
X174342132Y-63108574D01*
X174740705Y-62937475D01*
X175084088Y-62780100D01*
X175358831Y-62642416D01*
X175551490Y-62530388D01*
X175561021Y-62524022D01*
X175583900Y-62485805D01*
X175571589Y-62413241D01*
X175518332Y-62291320D01*
X175418370Y-62105032D01*
X175362463Y-62006413D01*
X175177841Y-61696415D01*
X175024651Y-61470120D01*
X174894312Y-61317838D01*
X174778250Y-61229882D01*
X174667884Y-61196562D01*
X174644614Y-61195600D01*
X174567033Y-61200112D01*
X174486688Y-61218225D01*
X174391641Y-61256800D01*
X174269957Y-61322696D01*
X174109699Y-61422777D01*
X173898930Y-61563903D01*
X173625714Y-61752936D01*
X173400266Y-61910869D01*
X173073926Y-62137570D01*
X172794914Y-62323649D01*
X172542481Y-62480144D01*
X172295879Y-62618093D01*
X172034360Y-62748537D01*
X171737174Y-62882514D01*
X171383575Y-63031064D01*
X171012259Y-63181407D01*
X170595510Y-63343419D01*
X170258639Y-63461670D01*
X169990864Y-63538266D01*
X169781404Y-63575308D01*
X169619476Y-63574900D01*
X169494301Y-63539145D01*
X169420000Y-63491985D01*
X169293000Y-63389096D01*
X169275779Y-62311709D01*
X169272107Y-61979712D01*
X169271760Y-61672313D01*
X169274517Y-61407600D01*
X169280158Y-61203663D01*
X169288464Y-61078590D01*
X169290984Y-61061475D01*
X169343089Y-60902380D01*
X169443876Y-60753575D01*
X169604235Y-60605759D01*
X169835059Y-60449635D01*
X170147236Y-60275901D01*
X170305126Y-60195497D01*
X170722606Y-59983157D01*
X171065372Y-59799114D01*
X171352358Y-59632264D01*
X171602500Y-59471506D01*
X171834733Y-59305734D01*
X171877342Y-59273556D01*
X172175685Y-59046454D01*
X172055142Y-58954529D01*
X171893856Y-58860285D01*
X171670349Y-58765238D01*
X171422975Y-58682353D01*
X171190087Y-58624597D01*
X171020600Y-58604799D01*
X170846407Y-58616867D01*
X170691600Y-58646819D01*
X170662348Y-58656455D01*
X170597838Y-58702131D01*
X170469234Y-58811465D01*
X170284805Y-58976798D01*
X170052821Y-59190471D01*
X169781551Y-59444827D01*
X169479265Y-59732205D01*
X169154232Y-60044948D01*
X168969941Y-60223847D01*
X168469713Y-60710118D01*
X168034652Y-61131037D01*
X167657927Y-61492941D01*
X167332709Y-61802168D01*
X167052170Y-62065055D01*
X166809481Y-62287938D01*
X166597812Y-62477155D01*
X166410335Y-62639044D01*
X166240220Y-62779941D01*
X166080639Y-62906183D01*
X166073273Y-62911870D01*
X165892840Y-63048236D01*
X165763847Y-63132995D01*
X165658463Y-63178092D01*
X165548860Y-63195471D01*
X165408741Y-63197100D01*
X165059761Y-63154497D01*
X164729974Y-63044046D01*
X164451408Y-62877605D01*
X164380326Y-62816365D01*
X164187600Y-62633731D01*
X164187600Y-61758032D01*
X164184988Y-61446285D01*
X164177582Y-61193871D01*
X164166026Y-61012486D01*
X164150965Y-60913823D01*
X164140302Y-60899266D01*
X164057466Y-60948527D01*
X163919136Y-61050744D01*
X163744418Y-61189899D01*
X163552417Y-61349974D01*
X163362240Y-61514950D01*
X163192991Y-61668808D01*
X163063776Y-61795531D01*
X163037315Y-61824032D01*
X162770872Y-62187110D01*
X162544040Y-62636073D01*
X162360200Y-63161884D01*
X162222732Y-63755508D01*
X162160582Y-64167400D01*
X162144993Y-64456006D01*
X161517399Y-64456006D01*
X161524375Y-64146498D01*
X161532964Y-63875138D01*
X161542191Y-63688700D01*
X161546663Y-63634000D01*
X161613051Y-63122734D01*
X161706619Y-62593344D01*
X161821908Y-62067496D01*
X161953457Y-61566854D01*
X162095807Y-61113084D01*
X162243498Y-60727850D01*
X162321203Y-60560600D01*
X162477378Y-60313961D01*
X162711862Y-60029506D01*
X163012870Y-59716387D01*
X163368619Y-59383752D01*
X163767324Y-59040753D01*
X164197200Y-58696539D01*
X164646464Y-58360261D01*
X165103331Y-58041070D01*
X165556017Y-57748115D01*
X165992737Y-57490546D01*
X166401708Y-57277515D01*
X166738661Y-57130523D01*
X167079723Y-57021868D01*
X167375460Y-56974120D01*
X167615505Y-56987441D01*
X167789490Y-57061996D01*
X167841512Y-57113050D01*
X167879856Y-57168744D01*
X167907603Y-57234333D01*
X167926450Y-57326176D01*
X167938091Y-57460630D01*
X167944221Y-57654057D01*
X167946536Y-57922814D01*
X167946800Y-58129050D01*
X167948798Y-58415657D01*
X167954343Y-58663367D01*
X167962754Y-58855861D01*
X167973353Y-58976818D01*
X167983475Y-59011200D01*
X168027136Y-58976667D01*
X168133690Y-58878774D01*
X168294264Y-58726075D01*
X168499983Y-58527124D01*
X168741972Y-58290478D01*
X169011359Y-58024691D01*
X169164575Y-57872578D01*
X169503207Y-57536321D01*
X169780473Y-57265043D01*
X170007025Y-57052055D01*
X170193516Y-56890671D01*
X170350598Y-56774203D01*
X170488923Y-56695964D01*
X170619144Y-56649266D01*
X170751912Y-56627423D01*
X170897881Y-56623747D01*
X171067702Y-56631550D01*
X171067702Y-56631550D01*
G37*
X171067702Y-56631550D02*
X171134723Y-56635755D01*
X171525714Y-56704671D01*
X171907529Y-56853017D01*
X172259441Y-57067271D01*
X172560724Y-57333915D01*
X172790650Y-57639427D01*
X172851704Y-57755763D01*
X172893624Y-57850579D01*
X172924804Y-57940700D01*
X172946837Y-58042776D01*
X172961317Y-58173462D01*
X172969837Y-58349407D01*
X172973991Y-58587264D01*
X172975373Y-58903686D01*
X172975503Y-59049300D01*
X172976716Y-59360124D01*
X172979816Y-59633257D01*
X172984462Y-59853586D01*
X172990315Y-60005996D01*
X172997033Y-60075376D01*
X172998655Y-60078000D01*
X173046605Y-60050369D01*
X173159737Y-59975325D01*
X173320651Y-59864641D01*
X173493955Y-59742860D01*
X173781659Y-59543231D01*
X174006667Y-59399157D01*
X174185434Y-59302495D01*
X174334416Y-59245100D01*
X174470068Y-59218831D01*
X174561476Y-59214589D01*
X174715539Y-59225676D01*
X174853948Y-59264884D01*
X174985624Y-59341562D01*
X175119488Y-59465063D01*
X175264461Y-59644735D01*
X175429465Y-59889931D01*
X175623420Y-60210000D01*
X175794462Y-60506940D01*
X175955354Y-60788156D01*
X176085316Y-61017125D01*
X176187723Y-61208947D01*
X176265950Y-61378723D01*
X176323372Y-61541554D01*
X176363364Y-61712539D01*
X176389300Y-61906778D01*
X176404557Y-62139372D01*
X176412508Y-62425422D01*
X176416529Y-62780026D01*
X176419995Y-63218286D01*
X176420843Y-63309483D01*
X176436686Y-64940767D01*
X177046621Y-65098599D01*
X177686685Y-65296521D01*
X178233849Y-65535072D01*
X178688422Y-65814452D01*
X179050714Y-66134864D01*
X179321035Y-66496509D01*
X179388600Y-66621863D01*
X179554600Y-66958847D01*
X179585740Y-69885333D01*
X180195144Y-69312366D01*
X180470150Y-69056821D01*
X180686200Y-68865290D01*
X180855939Y-68729703D01*
X180992012Y-68641992D01*
X181107066Y-68594088D01*
X181213744Y-68577923D01*
X181324693Y-68585428D01*
X181332600Y-68586579D01*
X181572353Y-68651333D01*
X181870830Y-68777708D01*
X182214374Y-68956031D01*
X182589326Y-69176625D01*
X182982026Y-69429818D01*
X183378815Y-69705934D01*
X183766036Y-69995299D01*
X184130029Y-70288238D01*
X184457136Y-70575076D01*
X184733697Y-70846139D01*
X184946055Y-71091753D01*
X185022896Y-71200445D01*
X185168000Y-71426291D01*
X185168000Y-72889545D01*
X185168794Y-73263319D01*
X185171040Y-73601844D01*
X185174530Y-73892446D01*
X185179058Y-74122455D01*
X185184417Y-74279197D01*
X185190400Y-74350001D01*
X185191880Y-74352800D01*
X185245653Y-74331371D01*
X185364584Y-74275005D01*
X185523663Y-74195583D01*
X185534780Y-74189914D01*
X185873156Y-74053355D01*
X186182690Y-74000215D01*
X186454882Y-74029243D01*
X186681229Y-74139187D01*
X186853232Y-74328796D01*
X186886951Y-74388907D01*
X187015940Y-74675309D01*
X187149478Y-75025827D01*
X187275432Y-75404356D01*
X187381667Y-75774792D01*
X187447494Y-76056801D01*
X187478786Y-76220928D01*
X187504797Y-76380291D01*
X187525923Y-76545656D01*
X187542565Y-76727789D01*
X187555120Y-76937455D01*
X187563987Y-77185421D01*
X187569564Y-77482453D01*
X187572250Y-77839316D01*
X187572442Y-78266776D01*
X187570540Y-78775599D01*
X187567454Y-79298514D01*
X187555600Y-81120028D01*
X187187300Y-81500069D01*
X186737636Y-81933357D01*
X186264841Y-82324869D01*
X185749561Y-82688242D01*
X185172442Y-83037109D01*
X184514129Y-83385108D01*
X184505836Y-83389245D01*
X183630654Y-83782185D01*
X182732533Y-84102381D01*
X181825275Y-84346877D01*
X180922677Y-84512720D01*
X180038539Y-84596953D01*
X179186661Y-84596622D01*
X178945000Y-84580064D01*
X178028363Y-84466661D01*
X177113456Y-84281038D01*
X176195638Y-84020923D01*
X175270267Y-83684046D01*
X174332702Y-83268138D01*
X173378303Y-82770927D01*
X173317600Y-82734800D01*
X180556862Y-82734800D01*
X180631301Y-82721837D01*
X180782385Y-82686432D01*
X180988998Y-82633805D01*
X181230024Y-82569178D01*
X181260440Y-82560813D01*
X182166161Y-82283503D01*
X183007666Y-81969849D01*
X183779135Y-81623063D01*
X184474744Y-81246354D01*
X185088672Y-80842934D01*
X185615096Y-80416011D01*
X186048194Y-79968796D01*
X186119529Y-79881699D01*
X186500452Y-79337118D01*
X186784712Y-78779504D01*
X186977223Y-78198119D01*
X187047660Y-77852744D01*
X187074151Y-77627604D01*
X187072135Y-77421451D01*
X187036679Y-77210665D01*
X186962850Y-76971622D01*
X186845712Y-76680703D01*
X186764777Y-76498272D01*
X186653665Y-76267064D01*
X186559585Y-76115591D01*
X186465867Y-76027742D01*
X186355843Y-75987402D01*
X186226971Y-75978400D01*
X186072387Y-75991273D01*
X185900561Y-76032720D01*
X185704302Y-76106979D01*
X185476423Y-76218290D01*
X185209733Y-76370891D01*
X184897044Y-76569023D01*
X184531166Y-76816923D01*
X184104911Y-77118832D01*
X183611089Y-77478988D01*
X183333277Y-77684699D01*
X183004268Y-77928331D01*
X182695646Y-78155008D01*
X182418312Y-78356865D01*
X182183164Y-78526041D01*
X182001102Y-78654672D01*
X181883025Y-78734896D01*
X181847780Y-78756342D01*
X181702560Y-78831517D01*
X181831848Y-78967058D01*
X181937071Y-79101827D01*
X182013361Y-79240932D01*
X182015168Y-79245607D01*
X182039392Y-79365641D01*
X182056686Y-79564003D01*
X182067242Y-79818458D01*
X182071253Y-80106767D01*
X182068914Y-80406697D01*
X182060416Y-80696010D01*
X182045953Y-80952471D01*
X182025719Y-81153843D01*
X181999907Y-81277890D01*
X181997452Y-81284179D01*
X181904639Y-81436189D01*
X181737876Y-81634423D01*
X181507499Y-81868368D01*
X181223842Y-82127513D01*
X180906216Y-82394106D01*
X180742308Y-82531447D01*
X180621813Y-82642297D01*
X180557683Y-82714024D01*
X180556862Y-82734800D01*
X173317600Y-82734800D01*
X172402428Y-82190144D01*
X171400435Y-81523519D01*
X171122048Y-81320072D01*
X174776964Y-81320072D01*
X174788576Y-81445322D01*
X174895125Y-81579045D01*
X175091092Y-81714523D01*
X175109546Y-81724735D01*
X175359588Y-81808844D01*
X175631442Y-81798487D01*
X175929109Y-81693026D01*
X176161871Y-81557709D01*
X176330588Y-81435598D01*
X176547007Y-81264551D01*
X176785264Y-81065708D01*
X177019497Y-80860208D01*
X177058146Y-80825136D01*
X177460971Y-80458336D01*
X177799621Y-80153351D01*
X178084546Y-79903046D01*
X178326196Y-79700290D01*
X178535024Y-79537950D01*
X178721478Y-79408895D01*
X178896011Y-79305990D01*
X179069071Y-79222104D01*
X179251111Y-79150105D01*
X179452579Y-79082860D01*
X179683928Y-79013236D01*
X179734709Y-78998396D01*
X180394604Y-78806000D01*
X180391030Y-77496728D01*
X180390382Y-77094778D01*
X180391529Y-76780438D01*
X180395421Y-76539721D01*
X180403007Y-76358641D01*
X180415236Y-76223211D01*
X180433057Y-76119443D01*
X180457420Y-76033352D01*
X180489273Y-75950951D01*
X180497191Y-75932369D01*
X180654788Y-75671097D01*
X180890921Y-75417315D01*
X181183470Y-75192311D01*
X181389673Y-75073455D01*
X181585915Y-74963810D01*
X181812446Y-74821919D01*
X182018400Y-74679799D01*
X182216757Y-74521205D01*
X182464129Y-74303973D01*
X182742446Y-74045771D01*
X183033641Y-73764267D01*
X183319647Y-73477127D01*
X183582394Y-73202022D01*
X183803814Y-72956617D01*
X183910114Y-72829989D01*
X184216470Y-72450179D01*
X183824200Y-72080134D01*
X183542178Y-71833859D01*
X183217046Y-71582623D01*
X182866266Y-71337149D01*
X182507303Y-71108161D01*
X182157618Y-70906381D01*
X181834675Y-70742534D01*
X181555937Y-70627342D01*
X181377323Y-70577580D01*
X181322277Y-70571252D01*
X181265228Y-70577538D01*
X181198583Y-70602643D01*
X181114743Y-70652777D01*
X181006113Y-70734145D01*
X180865098Y-70852955D01*
X180684100Y-71015416D01*
X180455525Y-71227735D01*
X180171775Y-71496118D01*
X179825256Y-71826775D01*
X179688123Y-71957997D01*
X179409364Y-72224779D01*
X179140978Y-72481502D01*
X178895866Y-72715836D01*
X178686931Y-72915449D01*
X178527073Y-73068011D01*
X178437000Y-73153781D01*
X178306101Y-73278839D01*
X178245700Y-73341116D01*
X178252577Y-73347746D01*
X178323510Y-73305862D01*
X178386200Y-73266290D01*
X178718759Y-73092615D01*
X179027055Y-73012573D01*
X179323091Y-73024893D01*
X179618868Y-73128301D01*
X179630800Y-73134282D01*
X179776513Y-73215606D01*
X179890673Y-73303248D01*
X179976696Y-73409962D01*
X180037999Y-73548505D01*
X180077998Y-73731632D01*
X180100111Y-73972100D01*
X180107753Y-74282664D01*
X180104342Y-74676079D01*
X180100051Y-74886200D01*
X180074826Y-76003800D01*
X177441956Y-78611332D01*
X177011529Y-79038549D01*
X176602124Y-79446708D01*
X176219518Y-79829940D01*
X175869486Y-80182372D01*
X175557805Y-80498136D01*
X175290249Y-80771360D01*
X175072595Y-80996173D01*
X174910619Y-81166706D01*
X174810095Y-81277087D01*
X174776964Y-81320072D01*
X171122048Y-81320072D01*
X170367685Y-80768781D01*
X169299534Y-79923659D01*
X169115200Y-79771752D01*
X168817093Y-79515334D01*
X168469347Y-79200580D01*
X168086269Y-78841705D01*
X167682166Y-78452925D01*
X167271347Y-78048452D01*
X166868120Y-77642503D01*
X166486793Y-77249290D01*
X166141672Y-76883029D01*
X165847067Y-76557933D01*
X165654842Y-76334000D01*
X165584043Y-76243960D01*
X167981262Y-76243960D01*
X167982538Y-76245803D01*
X168473065Y-76867227D01*
X168941236Y-77390820D01*
X169388190Y-77817597D01*
X169815067Y-78148573D01*
X170223004Y-78384762D01*
X170509513Y-78497917D01*
X170734748Y-78542613D01*
X171019541Y-78562600D01*
X171324984Y-78558194D01*
X171612164Y-78529712D01*
X171811079Y-78487334D01*
X171988609Y-78430286D01*
X172161717Y-78363798D01*
X172336917Y-78282939D01*
X172520724Y-78182773D01*
X172719652Y-78058369D01*
X172940217Y-77904791D01*
X173188931Y-77717108D01*
X173472311Y-77490385D01*
X173796870Y-77219688D01*
X174169123Y-76900086D01*
X174595585Y-76526643D01*
X175082771Y-76094427D01*
X175637193Y-75598504D01*
X175699183Y-75542886D01*
X176067065Y-75212663D01*
X176363650Y-74945819D01*
X176593222Y-74737838D01*
X176760063Y-74584202D01*
X176868458Y-74480391D01*
X176922690Y-74421889D01*
X176927042Y-74404178D01*
X176885798Y-74422739D01*
X176803242Y-74473055D01*
X176683657Y-74550608D01*
X176567507Y-74627051D01*
X176005885Y-74956039D01*
X175437983Y-75210057D01*
X174878249Y-75384001D01*
X174341130Y-75472767D01*
X174144400Y-75483132D01*
X173807829Y-75469549D01*
X173549491Y-75411345D01*
X173354192Y-75303828D01*
X173257062Y-75209111D01*
X173212856Y-75154107D01*
X173180149Y-75098961D01*
X173157208Y-75028303D01*
X173142303Y-74926764D01*
X173133700Y-74778974D01*
X173129668Y-74569563D01*
X173128474Y-74283164D01*
X173128400Y-74067478D01*
X173129893Y-73686958D01*
X173138192Y-73389775D01*
X173159025Y-73157670D01*
X173198118Y-72972386D01*
X173261199Y-72815664D01*
X173353997Y-72669248D01*
X173482238Y-72514879D01*
X173651650Y-72334299D01*
X173682003Y-72302746D01*
X173831855Y-72153105D01*
X173995561Y-72002743D01*
X174181812Y-71845262D01*
X174399300Y-71674269D01*
X174656717Y-71483367D01*
X174962755Y-71266162D01*
X175326106Y-71016257D01*
X175755460Y-70727258D01*
X176259510Y-70392769D01*
X176435090Y-70276999D01*
X176794195Y-70039107D01*
X177134295Y-69811148D01*
X177443985Y-69600966D01*
X177711860Y-69416406D01*
X177926512Y-69265313D01*
X178076538Y-69155531D01*
X178142328Y-69102753D01*
X178259665Y-68976598D01*
X178403463Y-68792700D01*
X178550355Y-68581860D01*
X178616869Y-68477252D01*
X178887462Y-68036005D01*
X178678542Y-67850605D01*
X178344959Y-67607953D01*
X177920103Y-67388432D01*
X177412391Y-67195578D01*
X176830243Y-67032926D01*
X176618070Y-66985389D01*
X176279307Y-66925911D01*
X175958874Y-66898289D01*
X175645179Y-66905958D01*
X175326629Y-66952350D01*
X174991631Y-67040899D01*
X174628595Y-67175036D01*
X174225926Y-67358195D01*
X173772033Y-67593809D01*
X173255324Y-67885312D01*
X172927238Y-68078393D01*
X172635382Y-68250784D01*
X172337768Y-68424205D01*
X172059857Y-68583981D01*
X171827109Y-68715436D01*
X171713020Y-68778247D01*
X171288241Y-69008123D01*
X172119420Y-69026591D01*
X172438887Y-69035076D01*
X172675844Y-69045790D01*
X172849381Y-69061091D01*
X172978589Y-69083340D01*
X173082558Y-69114894D01*
X173179200Y-69157531D01*
X173298604Y-69219292D01*
X173389320Y-69281167D01*
X173455127Y-69357310D01*
X173499800Y-69461878D01*
X173527118Y-69609029D01*
X173540856Y-69812917D01*
X173544793Y-70087699D01*
X173542704Y-70447532D01*
X173542030Y-70517400D01*
X173532045Y-71533400D01*
X173368322Y-71678610D01*
X173289599Y-71743009D01*
X173140204Y-71860103D01*
X172930812Y-72021718D01*
X172672097Y-72219679D01*
X172374736Y-72445812D01*
X172049404Y-72691943D01*
X171782200Y-72893219D01*
X171318943Y-73242011D01*
X170926172Y-73539122D01*
X170592754Y-73793382D01*
X170307558Y-74013618D01*
X170059453Y-74208659D01*
X169837306Y-74387334D01*
X169629988Y-74558472D01*
X169426365Y-74730900D01*
X169215307Y-74913447D01*
X169028667Y-75077069D01*
X168707965Y-75367368D01*
X168437933Y-75628037D01*
X168224408Y-75852553D01*
X168073229Y-76034394D01*
X167990234Y-76167038D01*
X167981262Y-76243960D01*
X165584043Y-76243960D01*
X164686817Y-75102901D01*
X163798149Y-73839592D01*
X162976792Y-72525567D01*
X162210698Y-71142320D01*
X161974329Y-70680200D01*
X161495199Y-69725400D01*
X161495208Y-69693691D01*
X164326318Y-69693691D01*
X164390766Y-70054745D01*
X164510874Y-70601313D01*
X164668111Y-71117918D01*
X164855504Y-71587483D01*
X165066078Y-71992931D01*
X165292860Y-72317186D01*
X165334041Y-72364697D01*
X165472419Y-72510229D01*
X165578347Y-72583983D01*
X165683598Y-72592907D01*
X165819946Y-72543948D01*
X165922610Y-72493388D01*
X166065898Y-72405329D01*
X166261232Y-72259549D01*
X166512333Y-72052891D01*
X166822925Y-71782198D01*
X167196732Y-71444312D01*
X167602123Y-71069104D01*
X167882069Y-70809904D01*
X168164394Y-70552382D01*
X168431944Y-70311902D01*
X168667565Y-70103831D01*
X168854102Y-69943533D01*
X168915998Y-69892266D01*
X169329951Y-69555624D01*
X169006675Y-69495519D01*
X168601925Y-69395989D01*
X168254311Y-69261377D01*
X167976412Y-69098297D01*
X167780805Y-68913359D01*
X167720085Y-68819246D01*
X167692263Y-68740017D01*
X167671279Y-68615783D01*
X167656214Y-68433700D01*
X167646149Y-68180923D01*
X167640163Y-67844606D01*
X167638696Y-67682503D01*
X167638458Y-67371886D01*
X167642042Y-67094011D01*
X167648924Y-66865673D01*
X167658581Y-66703666D01*
X167670488Y-66624784D01*
X167671772Y-66622131D01*
X167659416Y-66615454D01*
X167587084Y-66665013D01*
X167486514Y-66746651D01*
X167281591Y-66916482D01*
X167060451Y-67090290D01*
X166805703Y-67281115D01*
X166499951Y-67501998D01*
X166143400Y-67753661D01*
X165723181Y-68067349D01*
X165338967Y-68392133D01*
X165003873Y-68715142D01*
X164731016Y-69023503D01*
X164533514Y-69304346D01*
X164497346Y-69368945D01*
X164326318Y-69693691D01*
X161495208Y-69693691D01*
X161496080Y-66921000D01*
X161497155Y-66378988D01*
X161499919Y-65853648D01*
X161504199Y-65356353D01*
X161509818Y-64898480D01*
X161516602Y-64491404D01*
X161517399Y-64456006D01*
X162144993Y-64456006D01*
X162184718Y-64685350D01*
X162289176Y-64886810D01*
X162424874Y-65048151D01*
X162698163Y-65269046D01*
X162998283Y-65395803D01*
X163314289Y-65426445D01*
X163635238Y-65358991D01*
X163782900Y-65293762D01*
X164020016Y-65156035D01*
X164282807Y-64973943D01*
X164579249Y-64740894D01*
X164917317Y-64450301D01*
X165304988Y-64095574D01*
X165750236Y-63670124D01*
X165761340Y-63659336D01*
X166119073Y-63315053D01*
X166416692Y-63037187D01*
X166663748Y-62818198D01*
X166869791Y-62650547D01*
X167044372Y-62526694D01*
X167197039Y-62439100D01*
X167337344Y-62380224D01*
X167409421Y-62358231D01*
X167715386Y-62325145D01*
X168009328Y-62389553D01*
X168282131Y-62547392D01*
X168524681Y-62794598D01*
X168589287Y-62884244D01*
X168749174Y-63121873D01*
X168725371Y-64178036D01*
X168716946Y-64532487D01*
X168708496Y-64801461D01*
X168698037Y-65001060D01*
X168683589Y-65147389D01*
X168663167Y-65256551D01*
X168634790Y-65344650D01*
X168596475Y-65427788D01*
X168563941Y-65489320D01*
X168426315Y-65744441D01*
X168834257Y-65497620D01*
X169070110Y-65360180D01*
X169349931Y-65204920D01*
X169626119Y-65058036D01*
X169724800Y-65007554D01*
X170031838Y-64855760D01*
X170342626Y-64708706D01*
X170669089Y-64561443D01*
X171023152Y-64409019D01*
X171416741Y-64246483D01*
X171861781Y-64068886D01*
X172370197Y-63871276D01*
X172953915Y-63648703D01*
X173433200Y-63468080D01*
X173901814Y-63287431D01*
X174342132Y-63108574D01*
X174740705Y-62937475D01*
X175084088Y-62780100D01*
X175358831Y-62642416D01*
X175551490Y-62530388D01*
X175561021Y-62524022D01*
X175583900Y-62485805D01*
X175571589Y-62413241D01*
X175518332Y-62291320D01*
X175418370Y-62105032D01*
X175362463Y-62006413D01*
X175177841Y-61696415D01*
X175024651Y-61470120D01*
X174894312Y-61317838D01*
X174778250Y-61229882D01*
X174667884Y-61196562D01*
X174644614Y-61195600D01*
X174567033Y-61200112D01*
X174486688Y-61218225D01*
X174391641Y-61256800D01*
X174269957Y-61322696D01*
X174109699Y-61422777D01*
X173898930Y-61563903D01*
X173625714Y-61752936D01*
X173400266Y-61910869D01*
X173073926Y-62137570D01*
X172794914Y-62323649D01*
X172542481Y-62480144D01*
X172295879Y-62618093D01*
X172034360Y-62748537D01*
X171737174Y-62882514D01*
X171383575Y-63031064D01*
X171012259Y-63181407D01*
X170595510Y-63343419D01*
X170258639Y-63461670D01*
X169990864Y-63538266D01*
X169781404Y-63575308D01*
X169619476Y-63574900D01*
X169494301Y-63539145D01*
X169420000Y-63491985D01*
X169293000Y-63389096D01*
X169275779Y-62311709D01*
X169272107Y-61979712D01*
X169271760Y-61672313D01*
X169274517Y-61407600D01*
X169280158Y-61203663D01*
X169288464Y-61078590D01*
X169290984Y-61061475D01*
X169343089Y-60902380D01*
X169443876Y-60753575D01*
X169604235Y-60605759D01*
X169835059Y-60449635D01*
X170147236Y-60275901D01*
X170305126Y-60195497D01*
X170722606Y-59983157D01*
X171065372Y-59799114D01*
X171352358Y-59632264D01*
X171602500Y-59471506D01*
X171834733Y-59305734D01*
X171877342Y-59273556D01*
X172175685Y-59046454D01*
X172055142Y-58954529D01*
X171893856Y-58860285D01*
X171670349Y-58765238D01*
X171422975Y-58682353D01*
X171190087Y-58624597D01*
X171020600Y-58604799D01*
X170846407Y-58616867D01*
X170691600Y-58646819D01*
X170662348Y-58656455D01*
X170597838Y-58702131D01*
X170469234Y-58811465D01*
X170284805Y-58976798D01*
X170052821Y-59190471D01*
X169781551Y-59444827D01*
X169479265Y-59732205D01*
X169154232Y-60044948D01*
X168969941Y-60223847D01*
X168469713Y-60710118D01*
X168034652Y-61131037D01*
X167657927Y-61492941D01*
X167332709Y-61802168D01*
X167052170Y-62065055D01*
X166809481Y-62287938D01*
X166597812Y-62477155D01*
X166410335Y-62639044D01*
X166240220Y-62779941D01*
X166080639Y-62906183D01*
X166073273Y-62911870D01*
X165892840Y-63048236D01*
X165763847Y-63132995D01*
X165658463Y-63178092D01*
X165548860Y-63195471D01*
X165408741Y-63197100D01*
X165059761Y-63154497D01*
X164729974Y-63044046D01*
X164451408Y-62877605D01*
X164380326Y-62816365D01*
X164187600Y-62633731D01*
X164187600Y-61758032D01*
X164184988Y-61446285D01*
X164177582Y-61193871D01*
X164166026Y-61012486D01*
X164150965Y-60913823D01*
X164140302Y-60899266D01*
X164057466Y-60948527D01*
X163919136Y-61050744D01*
X163744418Y-61189899D01*
X163552417Y-61349974D01*
X163362240Y-61514950D01*
X163192991Y-61668808D01*
X163063776Y-61795531D01*
X163037315Y-61824032D01*
X162770872Y-62187110D01*
X162544040Y-62636073D01*
X162360200Y-63161884D01*
X162222732Y-63755508D01*
X162160582Y-64167400D01*
X162144993Y-64456006D01*
X161517399Y-64456006D01*
X161524375Y-64146498D01*
X161532964Y-63875138D01*
X161542191Y-63688700D01*
X161546663Y-63634000D01*
X161613051Y-63122734D01*
X161706619Y-62593344D01*
X161821908Y-62067496D01*
X161953457Y-61566854D01*
X162095807Y-61113084D01*
X162243498Y-60727850D01*
X162321203Y-60560600D01*
X162477378Y-60313961D01*
X162711862Y-60029506D01*
X163012870Y-59716387D01*
X163368619Y-59383752D01*
X163767324Y-59040753D01*
X164197200Y-58696539D01*
X164646464Y-58360261D01*
X165103331Y-58041070D01*
X165556017Y-57748115D01*
X165992737Y-57490546D01*
X166401708Y-57277515D01*
X166738661Y-57130523D01*
X167079723Y-57021868D01*
X167375460Y-56974120D01*
X167615505Y-56987441D01*
X167789490Y-57061996D01*
X167841512Y-57113050D01*
X167879856Y-57168744D01*
X167907603Y-57234333D01*
X167926450Y-57326176D01*
X167938091Y-57460630D01*
X167944221Y-57654057D01*
X167946536Y-57922814D01*
X167946800Y-58129050D01*
X167948798Y-58415657D01*
X167954343Y-58663367D01*
X167962754Y-58855861D01*
X167973353Y-58976818D01*
X167983475Y-59011200D01*
X168027136Y-58976667D01*
X168133690Y-58878774D01*
X168294264Y-58726075D01*
X168499983Y-58527124D01*
X168741972Y-58290478D01*
X169011359Y-58024691D01*
X169164575Y-57872578D01*
X169503207Y-57536321D01*
X169780473Y-57265043D01*
X170007025Y-57052055D01*
X170193516Y-56890671D01*
X170350598Y-56774203D01*
X170488923Y-56695964D01*
X170619144Y-56649266D01*
X170751912Y-56627423D01*
X170897881Y-56623747D01*
X171067702Y-56631550D01*
D14*
X181275000Y-90225000D03*
X197875000Y-90225000D03*
D15*
X202675000Y-64125000D03*
X147675000Y-64125000D03*
D16*
X174400000Y-44500000D03*
X175600000Y-44500000D03*
D17*
X175000000Y-46400000D03*
X175000000Y-47600000D03*
D18*
X195000000Y-69050000D03*
X195000000Y-72550000D03*
D19*
X195000000Y-58000000D03*
X193000000Y-58000000D03*
D20*
X190000000Y-56400000D03*
X190000000Y-54400000D03*
D21*
X192200000Y-54450000D03*
X192200000Y-55400000D03*
X192200000Y-56350000D03*
X195800000Y-56350000D03*
X195800000Y-55400000D03*
X195800000Y-54450000D03*
D22*
X194000000Y-55400000D03*
D23*
X166000000Y-48600000D03*
X164750000Y-48600000D03*
X167250000Y-48600000D03*
X168500000Y-48600000D03*
D24*
X161500000Y-45550000D03*
X170500000Y-45550000D03*
D23*
X163500000Y-48600000D03*
D16*
X172400000Y-47000000D03*
X173600000Y-47000000D03*
X172400000Y-49000000D03*
X173600000Y-49000000D03*
X172400000Y-48000000D03*
X173600000Y-48000000D03*
D23*
X184000000Y-48600000D03*
X182750000Y-48600000D03*
X185250000Y-48600000D03*
X186500000Y-48600000D03*
D24*
X179500000Y-45550000D03*
X188500000Y-45550000D03*
D23*
X181500000Y-48600000D03*
D16*
X177600000Y-47000000D03*
X176400000Y-47000000D03*
X177600000Y-48000000D03*
X176400000Y-48000000D03*
X177600000Y-49000000D03*
X176400000Y-49000000D03*
D25*
X149800000Y-54650000D03*
X149800000Y-56150000D03*
X149800000Y-51650000D03*
D26*
X148800000Y-50200000D03*
X146800000Y-50200000D03*
X148800000Y-57600000D03*
X146800000Y-57600000D03*
D27*
X147800000Y-55400000D03*
X147800000Y-52400000D03*
D28*
X197000000Y-76250000D03*
X175000000Y-50000000D03*
X173600000Y-46100000D03*
X151500000Y-56100000D03*
X188800000Y-54400000D03*
X187400000Y-48600000D03*
X169400000Y-48600000D03*
X193000000Y-59000000D03*
X194000000Y-55400000D03*
X175000000Y-43200000D03*
X175000000Y-48600000D03*
X162600000Y-48600000D03*
X180600000Y-48600000D03*
X178300000Y-56400000D03*
D29*
X195000000Y-72550000D02*
X195000000Y-74250000D01*
X195000000Y-74250000D02*
X196000000Y-75250000D01*
X196000000Y-75250000D02*
X197000000Y-76250000D01*
D30*
X175000000Y-49600000D02*
X175000000Y-50000000D01*
X176400000Y-47000000D02*
X176400000Y-48000000D01*
X175000000Y-47600000D02*
X176000000Y-47600000D01*
X176000000Y-47600000D02*
X176400000Y-48000000D01*
X173600000Y-47000000D02*
X173600000Y-46100000D01*
X173600000Y-49000000D02*
X174400000Y-49000000D01*
X174400000Y-49000000D02*
X175000000Y-49600000D01*
X173600000Y-47000000D02*
X174400000Y-47000000D01*
X174400000Y-47000000D02*
X175000000Y-47600000D01*
X149800000Y-56150000D02*
X151450000Y-56150000D01*
X151450000Y-56150000D02*
X151500000Y-56100000D01*
D29*
X190000000Y-54400000D02*
X188800000Y-54400000D01*
X186500000Y-48600000D02*
X187400000Y-48600000D01*
X168500000Y-48600000D02*
X169400000Y-48600000D01*
X193000000Y-58000000D02*
X193000000Y-59000000D01*
X194000000Y-55400000D02*
X194000000Y-54964998D01*
X194000000Y-54964998D02*
X193234992Y-54199990D01*
X193234992Y-54199990D02*
X191702940Y-54199990D01*
X191702940Y-54199990D02*
X191502930Y-54400000D01*
X191502930Y-54400000D02*
X190000000Y-54400000D01*
X193000000Y-58000000D02*
X193650001Y-57349999D01*
X193650001Y-57349999D02*
X193650001Y-55749999D01*
X193650001Y-55749999D02*
X194000000Y-55400000D01*
D30*
X175000000Y-45000000D02*
X175000000Y-46400000D01*
X174450000Y-45000000D02*
X175000000Y-45000000D01*
X174400000Y-44500000D02*
X174400000Y-44950000D01*
X174400000Y-44950000D02*
X174450000Y-45000000D01*
X171050000Y-50200000D02*
X167050000Y-50200000D01*
X167050000Y-50200000D02*
X166000000Y-49150000D01*
X166000000Y-49150000D02*
X166000000Y-48600000D01*
X172400000Y-49000000D02*
X172250000Y-49000000D01*
X172250000Y-49000000D02*
X171050000Y-50200000D01*
X166000000Y-48159998D02*
X166000000Y-48600000D01*
X171400000Y-47400000D02*
X165400000Y-47400000D01*
X165400000Y-47400000D02*
X164750000Y-48050000D01*
X164750000Y-48050000D02*
X164750000Y-48600000D01*
X172400000Y-47000000D02*
X171800000Y-47000000D01*
X171800000Y-47000000D02*
X171400000Y-47400000D01*
X167250000Y-49150000D02*
X167250000Y-48600000D01*
X172400000Y-48000000D02*
X172250000Y-48000000D01*
X172250000Y-48000000D02*
X170499999Y-49750001D01*
X170499999Y-49750001D02*
X167850001Y-49750001D01*
X167850001Y-49750001D02*
X167250000Y-49150000D01*
X175000000Y-44000000D02*
X175000000Y-43200000D01*
X175550000Y-44000000D02*
X175000000Y-44000000D01*
X175600000Y-44500000D02*
X175600000Y-44050000D01*
X175600000Y-44050000D02*
X175550000Y-44000000D01*
X176400000Y-49000000D02*
X175400000Y-49000000D01*
X175400000Y-49000000D02*
X175000000Y-48600000D01*
X173600000Y-48000000D02*
X173750000Y-48000000D01*
X173750000Y-48000000D02*
X174350000Y-48600000D01*
X174350000Y-48600000D02*
X175000000Y-48600000D01*
D29*
X162600000Y-48600000D02*
X163500000Y-48600000D01*
X181500000Y-48600000D02*
X180600000Y-48600000D01*
X190000000Y-56400000D02*
X178300000Y-56400000D01*
X192200000Y-56350000D02*
X192200000Y-55400000D01*
X190000000Y-56400000D02*
X192150000Y-56400000D01*
X192150000Y-56400000D02*
X192200000Y-56350000D01*
X189900000Y-56400000D02*
X190000000Y-56400000D01*
D30*
X194975000Y-53200000D02*
X151200000Y-53200000D01*
X151200000Y-53200000D02*
X149800000Y-54600000D01*
X149800000Y-54600000D02*
X149800000Y-54650000D01*
X194975000Y-53200000D02*
X195800000Y-54025000D01*
X195800000Y-54025000D02*
X195800000Y-54450000D01*
X195800000Y-54450000D02*
X195800000Y-54200000D01*
X195800000Y-56350000D02*
X196325000Y-56350000D01*
X196325000Y-56350000D02*
X196900000Y-55775000D01*
X196900000Y-55775000D02*
X196900000Y-54034998D01*
X196900000Y-54034998D02*
X195665002Y-52800000D01*
X195665002Y-52800000D02*
X151200000Y-52800000D01*
X151200000Y-52800000D02*
X150050000Y-51650000D01*
X150050000Y-51650000D02*
X149800000Y-51650000D01*
X150450000Y-51650000D02*
X149800000Y-51650000D01*
D29*
X195000000Y-61200000D02*
X195000000Y-68600000D01*
X195000000Y-58000000D02*
X195000000Y-61200000D01*
X195800000Y-56350000D02*
X195800000Y-57200000D01*
X195800000Y-57200000D02*
X195000000Y-58000000D01*
D30*
X180400000Y-49800000D02*
X183350000Y-49800000D01*
X183350000Y-49800000D02*
X184000000Y-49150000D01*
X184000000Y-49150000D02*
X184000000Y-48600000D01*
X178600000Y-48000000D02*
X180400000Y-49800000D01*
X177600000Y-48000000D02*
X178600000Y-48000000D01*
X178600000Y-47400000D02*
X182100000Y-47400000D01*
X182100000Y-47400000D02*
X182750000Y-48050000D01*
X182750000Y-48050000D02*
X182750000Y-48600000D01*
X177600000Y-47000000D02*
X178200000Y-47000000D01*
X178200000Y-47000000D02*
X178600000Y-47400000D01*
X179400000Y-50200000D02*
X184200000Y-50200000D01*
X184200000Y-50200000D02*
X185250000Y-49150000D01*
X185250000Y-49150000D02*
X185250000Y-48600000D01*
X177600000Y-49000000D02*
X178200000Y-49000000D01*
X178200000Y-49000000D02*
X179400000Y-50200000D01*
M02*
