G04 #@! TF.FileFunction,Soldermask,Top*
%FSLAX46Y46*%
G04 Gerber Fmt 4.6, Leading zero omitted, Abs format (unit mm)*
G04 Created by KiCad (PCBNEW 4.0.7-e2-6376~58~ubuntu14.04.1) date Wed Aug  8 15:23:53 2018*
%MOMM*%
%LPD*%
G01*
G04 APERTURE LIST*
%ADD10C,0.100000*%
%ADD11C,0.190000*%
%ADD12C,0.280000*%
%ADD13C,0.010000*%
%ADD14R,1.500000X0.450000*%
%ADD15R,1.750000X2.500000*%
%ADD16R,0.800000X0.500000*%
%ADD17R,0.600000X1.700000*%
%ADD18R,1.000000X2.700000*%
%ADD19R,2.300000X1.500000*%
%ADD20R,0.500000X0.800000*%
%ADD21R,2.000000X0.700000*%
%ADD22R,0.800000X1.200000*%
%ADD23C,0.900000*%
%ADD24R,1.200000X0.750000*%
%ADD25R,0.750000X1.200000*%
%ADD26O,2.000000X3.000000*%
%ADD27C,3.600000*%
G04 APERTURE END LIST*
D10*
D11*
X184316667Y-38011667D02*
X184000000Y-37631667D01*
X183746667Y-38011667D02*
X183746667Y-37125000D01*
X184126667Y-37125000D01*
X184253333Y-37188333D01*
X184316667Y-37315000D01*
X184316667Y-37441667D01*
X184253333Y-37568333D01*
X184126667Y-37631667D01*
X183746667Y-37631667D01*
X184000000Y-36681667D02*
X183683333Y-36745000D01*
X183366667Y-36935000D01*
X183176667Y-37251667D01*
X183113333Y-37568333D01*
X183176667Y-37885000D01*
X183366667Y-38201667D01*
X183683333Y-38391667D01*
X184000000Y-38455000D01*
X184316667Y-38391667D01*
X184633333Y-38201667D01*
X184823333Y-37885000D01*
X184886667Y-37568333D01*
X184823333Y-37251667D01*
X184633333Y-36935000D01*
X184316667Y-36745000D01*
X184000000Y-36681667D01*
D12*
X167142856Y-40004762D02*
X167142856Y-38004762D01*
X168285714Y-40004762D01*
X168285714Y-38004762D01*
X169999999Y-39909524D02*
X169809523Y-40004762D01*
X169428571Y-40004762D01*
X169238094Y-39909524D01*
X169142856Y-39719048D01*
X169142856Y-38957143D01*
X169238094Y-38766667D01*
X169428571Y-38671429D01*
X169809523Y-38671429D01*
X169999999Y-38766667D01*
X170095237Y-38957143D01*
X170095237Y-39147619D01*
X169142856Y-39338095D01*
X171809523Y-38671429D02*
X171809523Y-40004762D01*
X170952380Y-38671429D02*
X170952380Y-39719048D01*
X171047619Y-39909524D01*
X171238095Y-40004762D01*
X171523809Y-40004762D01*
X171714285Y-39909524D01*
X171809523Y-39814286D01*
X172761904Y-40004762D02*
X172761904Y-38671429D01*
X172761904Y-39052381D02*
X172857143Y-38861905D01*
X172952381Y-38766667D01*
X173142857Y-38671429D01*
X173333333Y-38671429D01*
X174285714Y-40004762D02*
X174095238Y-39909524D01*
X173999999Y-39814286D01*
X173904761Y-39623810D01*
X173904761Y-39052381D01*
X173999999Y-38861905D01*
X174095238Y-38766667D01*
X174285714Y-38671429D01*
X174571428Y-38671429D01*
X174761904Y-38766667D01*
X174857142Y-38861905D01*
X174952380Y-39052381D01*
X174952380Y-39623810D01*
X174857142Y-39814286D01*
X174761904Y-39909524D01*
X174571428Y-40004762D01*
X174285714Y-40004762D01*
X176476190Y-38957143D02*
X176761904Y-39052381D01*
X176857143Y-39147619D01*
X176952381Y-39338095D01*
X176952381Y-39623810D01*
X176857143Y-39814286D01*
X176761904Y-39909524D01*
X176571428Y-40004762D01*
X175809523Y-40004762D01*
X175809523Y-38004762D01*
X176476190Y-38004762D01*
X176666666Y-38100000D01*
X176761904Y-38195238D01*
X176857143Y-38385714D01*
X176857143Y-38576190D01*
X176761904Y-38766667D01*
X176666666Y-38861905D01*
X176476190Y-38957143D01*
X175809523Y-38957143D01*
X177619047Y-38671429D02*
X178095238Y-40004762D01*
X178571428Y-38671429D02*
X178095238Y-40004762D01*
X177904762Y-40480952D01*
X177809523Y-40576190D01*
X177619047Y-40671429D01*
X179047619Y-38671429D02*
X179809524Y-38671429D01*
X179333333Y-38004762D02*
X179333333Y-39719048D01*
X179428572Y-39909524D01*
X179619048Y-40004762D01*
X179809524Y-40004762D01*
X181238095Y-39909524D02*
X181047619Y-40004762D01*
X180666667Y-40004762D01*
X180476190Y-39909524D01*
X180380952Y-39719048D01*
X180380952Y-38957143D01*
X180476190Y-38766667D01*
X180666667Y-38671429D01*
X181047619Y-38671429D01*
X181238095Y-38766667D01*
X181333333Y-38957143D01*
X181333333Y-39147619D01*
X180380952Y-39338095D01*
X182095238Y-39909524D02*
X182285715Y-40004762D01*
X182666667Y-40004762D01*
X182857143Y-39909524D01*
X182952381Y-39719048D01*
X182952381Y-39623810D01*
X182857143Y-39433333D01*
X182666667Y-39338095D01*
X182380953Y-39338095D01*
X182190476Y-39242857D01*
X182095238Y-39052381D01*
X182095238Y-38957143D01*
X182190476Y-38766667D01*
X182380953Y-38671429D01*
X182666667Y-38671429D01*
X182857143Y-38766667D01*
D13*
G36*
X171067702Y-56631550D02*
X171134723Y-56635755D01*
X171525714Y-56704671D01*
X171907529Y-56853017D01*
X172259441Y-57067271D01*
X172560724Y-57333915D01*
X172790650Y-57639427D01*
X172851704Y-57755763D01*
X172893624Y-57850579D01*
X172924804Y-57940700D01*
X172946837Y-58042776D01*
X172961317Y-58173462D01*
X172969837Y-58349407D01*
X172973991Y-58587264D01*
X172975373Y-58903686D01*
X172975503Y-59049300D01*
X172976716Y-59360124D01*
X172979816Y-59633257D01*
X172984462Y-59853586D01*
X172990315Y-60005996D01*
X172997033Y-60075376D01*
X172998655Y-60077999D01*
X173046605Y-60050369D01*
X173159737Y-59975325D01*
X173320651Y-59864641D01*
X173493955Y-59742860D01*
X173781659Y-59543231D01*
X174006667Y-59399157D01*
X174185434Y-59302495D01*
X174334416Y-59245100D01*
X174470068Y-59218831D01*
X174561476Y-59214589D01*
X174715539Y-59225676D01*
X174853948Y-59264884D01*
X174985624Y-59341562D01*
X175119488Y-59465063D01*
X175264461Y-59644735D01*
X175429465Y-59889931D01*
X175623420Y-60210000D01*
X175794462Y-60506940D01*
X175955354Y-60788156D01*
X176085316Y-61017125D01*
X176187723Y-61208947D01*
X176265950Y-61378723D01*
X176323372Y-61541554D01*
X176363364Y-61712539D01*
X176389300Y-61906778D01*
X176404557Y-62139372D01*
X176412508Y-62425422D01*
X176416529Y-62780026D01*
X176419995Y-63218286D01*
X176420843Y-63309483D01*
X176436686Y-64940767D01*
X177046621Y-65098599D01*
X177686685Y-65296521D01*
X178233849Y-65535072D01*
X178688422Y-65814452D01*
X179050714Y-66134864D01*
X179321035Y-66496509D01*
X179388600Y-66621863D01*
X179554600Y-66958847D01*
X179585740Y-69885333D01*
X180195144Y-69312366D01*
X180470150Y-69056821D01*
X180686200Y-68865290D01*
X180855939Y-68729703D01*
X180992012Y-68641992D01*
X181107066Y-68594088D01*
X181213744Y-68577923D01*
X181324693Y-68585428D01*
X181332600Y-68586579D01*
X181572353Y-68651333D01*
X181870830Y-68777708D01*
X182214374Y-68956031D01*
X182589326Y-69176625D01*
X182982026Y-69429818D01*
X183378815Y-69705934D01*
X183766036Y-69995299D01*
X184130029Y-70288238D01*
X184457136Y-70575076D01*
X184733697Y-70846139D01*
X184946055Y-71091753D01*
X185022896Y-71200445D01*
X185168000Y-71426291D01*
X185168000Y-72889545D01*
X185168794Y-73263319D01*
X185171040Y-73601844D01*
X185174530Y-73892446D01*
X185179058Y-74122455D01*
X185184417Y-74279197D01*
X185190400Y-74350001D01*
X185191880Y-74352800D01*
X185245653Y-74331371D01*
X185364584Y-74275005D01*
X185523663Y-74195583D01*
X185534780Y-74189914D01*
X185873156Y-74053355D01*
X186182690Y-74000215D01*
X186454882Y-74029243D01*
X186681229Y-74139187D01*
X186853232Y-74328796D01*
X186886951Y-74388907D01*
X187015656Y-74674696D01*
X187149495Y-75025975D01*
X187276796Y-75408033D01*
X187385888Y-75786159D01*
X187456341Y-76082201D01*
X187482905Y-76215070D01*
X187504768Y-76340877D01*
X187522342Y-76470765D01*
X187536039Y-76615881D01*
X187546272Y-76787368D01*
X187553454Y-76996371D01*
X187557996Y-77254035D01*
X187560312Y-77571504D01*
X187560815Y-77959925D01*
X187559916Y-78430440D01*
X187558570Y-78843858D01*
X187555638Y-79429904D01*
X187551238Y-79920308D01*
X187545194Y-80321018D01*
X187537330Y-80637982D01*
X187527470Y-80877149D01*
X187515441Y-81044468D01*
X187501065Y-81145888D01*
X187489628Y-81180658D01*
X187470716Y-81195434D01*
X187455025Y-81161745D01*
X187441960Y-81070880D01*
X187430926Y-80914128D01*
X187421328Y-80682779D01*
X187412571Y-80368123D01*
X187404060Y-79961448D01*
X187403200Y-79915400D01*
X187395289Y-79508925D01*
X187387929Y-79194794D01*
X187380361Y-78963761D01*
X187371828Y-78806578D01*
X187361568Y-78713998D01*
X187348825Y-78676773D01*
X187332839Y-78685658D01*
X187312850Y-78731405D01*
X187307319Y-78747000D01*
X187053435Y-79327814D01*
X186704176Y-79887364D01*
X186264485Y-80420486D01*
X185739301Y-80922016D01*
X185133567Y-81386789D01*
X184452225Y-81809642D01*
X184294457Y-81895582D01*
X183507337Y-82273904D01*
X182628274Y-82621006D01*
X181662577Y-82935084D01*
X180615554Y-83214330D01*
X180027049Y-83348110D01*
X179853181Y-83380293D01*
X179740907Y-83382626D01*
X179654149Y-83353242D01*
X179609737Y-83326513D01*
X179510728Y-83266964D01*
X179454787Y-83242800D01*
X179444849Y-83290513D01*
X179436540Y-83421313D01*
X179430593Y-83616690D01*
X179427743Y-83858135D01*
X179427600Y-83928600D01*
X179425992Y-84209589D01*
X179420074Y-84403801D01*
X179408203Y-84526022D01*
X179388735Y-84591040D01*
X179360028Y-84613643D01*
X179351400Y-84614400D01*
X179324164Y-84601217D01*
X179303644Y-84553205D01*
X179288677Y-84457670D01*
X179278105Y-84301915D01*
X179270765Y-84073246D01*
X179265498Y-83758967D01*
X179264328Y-83661900D01*
X179260312Y-83242927D01*
X179259468Y-82910520D01*
X179262603Y-82649673D01*
X179267968Y-82511265D01*
X179732400Y-82511265D01*
X179746842Y-82726730D01*
X179795533Y-82849870D01*
X179886518Y-82884437D01*
X180027844Y-82834179D01*
X180182202Y-82734800D01*
X180556862Y-82734800D01*
X180631301Y-82721837D01*
X180782385Y-82686432D01*
X180988998Y-82633805D01*
X181230024Y-82569178D01*
X181260440Y-82560813D01*
X182166161Y-82283503D01*
X183007666Y-81969849D01*
X183779135Y-81623063D01*
X184474744Y-81246354D01*
X185088672Y-80842934D01*
X185615096Y-80416011D01*
X186048194Y-79968796D01*
X186119529Y-79881699D01*
X186500452Y-79337118D01*
X186784712Y-78779504D01*
X186977223Y-78198119D01*
X187047660Y-77852744D01*
X187074151Y-77627604D01*
X187072135Y-77421451D01*
X187036679Y-77210665D01*
X186962850Y-76971622D01*
X186845712Y-76680703D01*
X186764777Y-76498272D01*
X186653665Y-76267064D01*
X186559585Y-76115591D01*
X186465867Y-76027742D01*
X186355843Y-75987402D01*
X186226971Y-75978400D01*
X186072387Y-75991273D01*
X185900561Y-76032720D01*
X185704302Y-76106979D01*
X185476423Y-76218290D01*
X185209733Y-76370891D01*
X184897044Y-76569023D01*
X184531166Y-76816923D01*
X184104911Y-77118832D01*
X183611089Y-77478988D01*
X183333277Y-77684699D01*
X183004268Y-77928331D01*
X182695646Y-78155008D01*
X182418312Y-78356865D01*
X182183164Y-78526041D01*
X182001102Y-78654672D01*
X181883025Y-78734896D01*
X181847780Y-78756342D01*
X181702560Y-78831517D01*
X181831848Y-78967058D01*
X181937071Y-79101827D01*
X182013361Y-79240932D01*
X182015168Y-79245607D01*
X182039392Y-79365641D01*
X182056686Y-79564003D01*
X182067242Y-79818458D01*
X182071253Y-80106767D01*
X182068914Y-80406697D01*
X182060416Y-80696010D01*
X182045953Y-80952471D01*
X182025719Y-81153843D01*
X181999907Y-81277890D01*
X181997452Y-81284179D01*
X181904639Y-81436189D01*
X181737876Y-81634423D01*
X181507499Y-81868368D01*
X181223842Y-82127513D01*
X180906216Y-82394106D01*
X180742308Y-82531447D01*
X180621813Y-82642297D01*
X180557683Y-82714024D01*
X180556862Y-82734800D01*
X180182202Y-82734800D01*
X180194678Y-82726768D01*
X180442928Y-82541120D01*
X180709974Y-82328812D01*
X180977752Y-82105464D01*
X181228198Y-81886691D01*
X181443247Y-81688111D01*
X181604836Y-81525341D01*
X181665888Y-81454836D01*
X181866000Y-81201676D01*
X181866000Y-79980656D01*
X181553526Y-80269951D01*
X181386124Y-80418215D01*
X181166904Y-80602920D01*
X180925371Y-80799607D01*
X180709690Y-80969443D01*
X180494510Y-81142451D01*
X180295945Y-81314538D01*
X180135410Y-81466344D01*
X180034319Y-81578510D01*
X180031063Y-81582932D01*
X179877719Y-81860289D01*
X179772753Y-82183456D01*
X179732440Y-82501851D01*
X179732400Y-82511265D01*
X179267968Y-82511265D01*
X179270523Y-82445380D01*
X179284034Y-82282635D01*
X179303943Y-82146431D01*
X179331056Y-82021762D01*
X179357790Y-81922644D01*
X179421511Y-81723651D01*
X179497044Y-81547357D01*
X179594632Y-81381976D01*
X179724518Y-81215723D01*
X179896946Y-81036812D01*
X180122158Y-80833457D01*
X180410399Y-80593872D01*
X180742593Y-80329325D01*
X181073147Y-80058967D01*
X181317556Y-79834113D01*
X181478130Y-79650278D01*
X181557176Y-79502979D01*
X181557004Y-79387732D01*
X181479922Y-79300054D01*
X181328238Y-79235461D01*
X181308627Y-79229984D01*
X181097448Y-79203742D01*
X180820430Y-79222945D01*
X180470830Y-79288665D01*
X180041903Y-79401976D01*
X179834000Y-79464789D01*
X179587057Y-79542758D01*
X179381326Y-79613087D01*
X179203468Y-79684579D01*
X179040144Y-79766033D01*
X178878015Y-79866251D01*
X178703744Y-79994033D01*
X178503990Y-80158181D01*
X178265416Y-80367495D01*
X177974684Y-80630776D01*
X177736319Y-80848849D01*
X177315788Y-81228313D01*
X176955669Y-81539316D01*
X176647039Y-81787664D01*
X176380978Y-81979161D01*
X176148565Y-82119614D01*
X175940879Y-82214829D01*
X175748997Y-82270610D01*
X175564000Y-82292763D01*
X175516000Y-82293731D01*
X175151696Y-82246197D01*
X174820513Y-82102656D01*
X174522655Y-81863219D01*
X174340714Y-81647678D01*
X174195200Y-81449556D01*
X174195200Y-82325011D01*
X174193565Y-82655910D01*
X174188128Y-82896038D01*
X174178085Y-83056182D01*
X174162636Y-83147126D01*
X174140978Y-83179657D01*
X174131700Y-83179210D01*
X174112496Y-83149553D01*
X174097273Y-83069094D01*
X174085670Y-82929195D01*
X174077324Y-82721220D01*
X174071874Y-82436531D01*
X174068957Y-82066493D01*
X174068200Y-81663677D01*
X174068200Y-81320072D01*
X174776964Y-81320072D01*
X174788576Y-81445322D01*
X174895125Y-81579045D01*
X175091092Y-81714523D01*
X175109546Y-81724735D01*
X175359588Y-81808844D01*
X175631442Y-81798487D01*
X175929109Y-81693026D01*
X176161871Y-81557709D01*
X176330588Y-81435598D01*
X176547007Y-81264551D01*
X176785264Y-81065708D01*
X177019497Y-80860208D01*
X177058146Y-80825136D01*
X177460971Y-80458336D01*
X177799621Y-80153351D01*
X178084546Y-79903046D01*
X178326196Y-79700290D01*
X178535024Y-79537950D01*
X178721478Y-79408895D01*
X178896011Y-79305990D01*
X179069071Y-79222104D01*
X179251111Y-79150105D01*
X179452579Y-79082860D01*
X179683928Y-79013236D01*
X179734709Y-78998396D01*
X180394604Y-78806000D01*
X180391030Y-77496728D01*
X180390498Y-77166449D01*
X180545200Y-77166449D01*
X180545200Y-78753230D01*
X181052712Y-78745192D01*
X181560224Y-78737155D01*
X181929012Y-78492053D01*
X182076289Y-78390511D01*
X182287602Y-78239810D01*
X182546076Y-78052239D01*
X182834836Y-77840091D01*
X183137008Y-77615655D01*
X183302874Y-77491380D01*
X183877059Y-77065944D01*
X184381676Y-76706368D01*
X184822324Y-76410150D01*
X185204599Y-76174790D01*
X185534096Y-75997788D01*
X185816414Y-75876644D01*
X186057149Y-75808856D01*
X186261897Y-75791925D01*
X186436255Y-75823350D01*
X186585820Y-75900630D01*
X186680434Y-75982379D01*
X186793688Y-76076268D01*
X186876909Y-76088708D01*
X186895756Y-76079655D01*
X186932571Y-76043200D01*
X186942310Y-75979740D01*
X186924077Y-75865334D01*
X186881206Y-75692152D01*
X186816863Y-75481137D01*
X186725997Y-75225724D01*
X186625702Y-74973274D01*
X186600812Y-74915381D01*
X186503060Y-74702441D01*
X186427813Y-74567758D01*
X186363069Y-74494028D01*
X186296825Y-74463946D01*
X186286485Y-74462195D01*
X186157243Y-74459603D01*
X186009098Y-74489361D01*
X185835779Y-74555614D01*
X185631015Y-74662505D01*
X185388534Y-74814180D01*
X185102067Y-75014783D01*
X184765343Y-75268458D01*
X184372090Y-75579351D01*
X183916038Y-75951604D01*
X183466200Y-76326181D01*
X183035961Y-76683110D01*
X182671432Y-76976200D01*
X182364055Y-77210941D01*
X182105272Y-77392827D01*
X181886528Y-77527350D01*
X181699264Y-77620003D01*
X181534922Y-77676277D01*
X181384947Y-77701666D01*
X181318820Y-77704484D01*
X181198034Y-77697409D01*
X181098175Y-77664366D01*
X180990543Y-77589798D01*
X180846436Y-77458148D01*
X180823520Y-77436024D01*
X180545200Y-77166449D01*
X180390498Y-77166449D01*
X180390382Y-77094778D01*
X180391529Y-76780438D01*
X180395421Y-76539721D01*
X180399182Y-76449931D01*
X180851115Y-76449931D01*
X180878238Y-76625574D01*
X180951640Y-76817007D01*
X181055600Y-76999081D01*
X181174396Y-77146653D01*
X181292306Y-77234576D01*
X181350341Y-77248400D01*
X181434785Y-77224149D01*
X181568762Y-77162121D01*
X181658336Y-77113088D01*
X181792584Y-77030875D01*
X181941939Y-76930090D01*
X182116071Y-76803237D01*
X182324647Y-76642817D01*
X182577338Y-76441333D01*
X182883812Y-76191285D01*
X183253739Y-75885177D01*
X183415588Y-75750405D01*
X183696615Y-75517601D01*
X183971748Y-75292448D01*
X184224737Y-75088038D01*
X184439330Y-74917463D01*
X184599277Y-74793814D01*
X184646008Y-74759200D01*
X184961838Y-74530600D01*
X184960331Y-73362200D01*
X184958835Y-72980336D01*
X184955111Y-72691029D01*
X184948636Y-72485251D01*
X184938889Y-72353974D01*
X184925347Y-72288167D01*
X184907488Y-72278804D01*
X184898312Y-72289945D01*
X184617665Y-72698722D01*
X184281478Y-73127193D01*
X183903780Y-73561627D01*
X183498603Y-73988297D01*
X183079977Y-74393474D01*
X182661933Y-74763429D01*
X182258501Y-75084433D01*
X181883713Y-75342756D01*
X181631941Y-75486056D01*
X181306659Y-75687060D01*
X181064094Y-75916545D01*
X180910347Y-76166979D01*
X180851523Y-76430828D01*
X180851115Y-76449931D01*
X180399182Y-76449931D01*
X180403007Y-76358641D01*
X180415236Y-76223211D01*
X180433057Y-76119443D01*
X180457420Y-76033352D01*
X180489273Y-75950951D01*
X180497191Y-75932369D01*
X180654788Y-75671097D01*
X180890921Y-75417315D01*
X181183470Y-75192311D01*
X181389673Y-75073455D01*
X181585915Y-74963810D01*
X181812446Y-74821919D01*
X182018400Y-74679799D01*
X182216757Y-74521205D01*
X182464129Y-74303973D01*
X182742446Y-74045771D01*
X183033641Y-73764267D01*
X183319647Y-73477127D01*
X183582394Y-73202022D01*
X183803814Y-72956617D01*
X183910114Y-72829989D01*
X184216470Y-72450179D01*
X183824200Y-72080134D01*
X183542178Y-71833859D01*
X183217046Y-71582623D01*
X182866266Y-71337149D01*
X182507303Y-71108161D01*
X182157618Y-70906381D01*
X181834675Y-70742534D01*
X181555937Y-70627342D01*
X181377323Y-70577580D01*
X181322277Y-70571252D01*
X181265228Y-70577538D01*
X181198583Y-70602643D01*
X181114743Y-70652777D01*
X181006113Y-70734145D01*
X180865098Y-70852955D01*
X180684100Y-71015416D01*
X180455525Y-71227735D01*
X180171775Y-71496118D01*
X179825256Y-71826775D01*
X179688123Y-71957997D01*
X179409364Y-72224779D01*
X179140978Y-72481502D01*
X178895866Y-72715836D01*
X178686931Y-72915449D01*
X178527073Y-73068011D01*
X178437000Y-73153781D01*
X178306101Y-73278839D01*
X178245700Y-73341116D01*
X178252577Y-73347746D01*
X178323510Y-73305862D01*
X178386200Y-73266290D01*
X178718759Y-73092615D01*
X179027055Y-73012573D01*
X179323091Y-73024893D01*
X179618868Y-73128301D01*
X179630800Y-73134282D01*
X179776513Y-73215606D01*
X179890673Y-73303248D01*
X179976696Y-73409962D01*
X180037999Y-73548505D01*
X180077998Y-73731632D01*
X180100111Y-73972100D01*
X180107753Y-74282664D01*
X180104342Y-74676079D01*
X180100051Y-74886200D01*
X180074826Y-76003800D01*
X177441956Y-78611332D01*
X177011529Y-79038549D01*
X176602124Y-79446708D01*
X176219518Y-79829940D01*
X175869486Y-80182372D01*
X175557805Y-80498136D01*
X175290249Y-80771360D01*
X175072595Y-80996173D01*
X174910619Y-81166706D01*
X174810095Y-81277087D01*
X174776964Y-81320072D01*
X174068200Y-81320072D01*
X174068200Y-80800241D01*
X174522970Y-80800241D01*
X174546755Y-80944100D01*
X174584333Y-81073836D01*
X174610773Y-81149949D01*
X174616258Y-81158441D01*
X174653184Y-81123364D01*
X174756626Y-81022372D01*
X174920920Y-80861055D01*
X175140401Y-80644999D01*
X175409405Y-80379792D01*
X175722267Y-80071022D01*
X176073323Y-79724277D01*
X176456907Y-79345144D01*
X176867356Y-78939210D01*
X177281348Y-78529541D01*
X179935697Y-75902200D01*
X179935648Y-75256263D01*
X179935600Y-74610326D01*
X179491100Y-75074446D01*
X179350028Y-75219367D01*
X179147989Y-75423565D01*
X178896718Y-75675345D01*
X178607949Y-75963014D01*
X178293418Y-76274876D01*
X177964860Y-76599239D01*
X177675000Y-76884206D01*
X177071133Y-77478252D01*
X176539537Y-78004674D01*
X176078382Y-78465358D01*
X175685840Y-78862191D01*
X175360081Y-79197060D01*
X175099275Y-79471851D01*
X174901593Y-79688451D01*
X174765206Y-79848745D01*
X174688284Y-79954622D01*
X174676157Y-79976836D01*
X174581234Y-80242220D01*
X174528359Y-80530236D01*
X174522970Y-80800241D01*
X174068200Y-80800241D01*
X174068200Y-80169400D01*
X174235897Y-79815246D01*
X174271834Y-79743208D01*
X174313506Y-79670495D01*
X174366227Y-79591467D01*
X174435311Y-79500485D01*
X174526073Y-79391909D01*
X174643827Y-79260101D01*
X174793886Y-79099419D01*
X174981565Y-78904226D01*
X175212178Y-78668882D01*
X175491040Y-78387748D01*
X175823464Y-78055184D01*
X176214765Y-77665550D01*
X176670257Y-77213208D01*
X176940586Y-76945046D01*
X177456763Y-76432719D01*
X177905091Y-75986360D01*
X178290148Y-75600686D01*
X178616511Y-75270412D01*
X178888759Y-74990255D01*
X179111469Y-74754931D01*
X179289219Y-74559155D01*
X179426588Y-74397643D01*
X179528152Y-74265113D01*
X179598491Y-74156278D01*
X179642180Y-74065857D01*
X179663800Y-73988564D01*
X179667926Y-73919116D01*
X179659138Y-73852229D01*
X179650957Y-73816599D01*
X179570329Y-73680567D01*
X179421190Y-73568138D01*
X179236592Y-73500210D01*
X179133476Y-73489389D01*
X179037726Y-73496786D01*
X178934043Y-73522303D01*
X178816308Y-73570611D01*
X178678400Y-73646383D01*
X178514201Y-73754290D01*
X178317590Y-73899004D01*
X178082449Y-74085195D01*
X177802657Y-74317536D01*
X177472094Y-74600699D01*
X177084642Y-74939353D01*
X176634179Y-75338172D01*
X176174980Y-75747807D01*
X175599276Y-76261755D01*
X175092253Y-76711977D01*
X174647601Y-77103294D01*
X174259008Y-77440527D01*
X173920164Y-77728499D01*
X173624759Y-77972031D01*
X173366481Y-78175945D01*
X173139020Y-78345060D01*
X172936065Y-78484201D01*
X172751306Y-78598187D01*
X172578431Y-78691840D01*
X172411130Y-78769982D01*
X172243093Y-78837435D01*
X172068008Y-78899019D01*
X172037035Y-78909269D01*
X171642911Y-79004261D01*
X171222049Y-79046087D01*
X170807868Y-79034324D01*
X170433788Y-78968548D01*
X170314097Y-78931107D01*
X169951992Y-78777140D01*
X169598964Y-78575599D01*
X169245650Y-78318518D01*
X168882688Y-77997930D01*
X168500717Y-77605870D01*
X168090375Y-77134369D01*
X167837538Y-76823681D01*
X167375295Y-76243960D01*
X167981262Y-76243960D01*
X167982538Y-76245803D01*
X168473065Y-76867227D01*
X168941236Y-77390820D01*
X169388190Y-77817597D01*
X169815067Y-78148573D01*
X170223004Y-78384762D01*
X170509513Y-78497917D01*
X170734748Y-78542613D01*
X171019541Y-78562600D01*
X171324984Y-78558194D01*
X171612164Y-78529712D01*
X171811079Y-78487334D01*
X171988609Y-78430286D01*
X172161717Y-78363798D01*
X172336917Y-78282939D01*
X172520724Y-78182773D01*
X172719652Y-78058369D01*
X172940217Y-77904791D01*
X173188931Y-77717108D01*
X173472311Y-77490385D01*
X173796870Y-77219688D01*
X174169123Y-76900086D01*
X174595585Y-76526643D01*
X175082771Y-76094427D01*
X175637193Y-75598504D01*
X175699183Y-75542886D01*
X176067065Y-75212663D01*
X176363650Y-74945819D01*
X176593222Y-74737838D01*
X176760063Y-74584202D01*
X176868458Y-74480391D01*
X176922690Y-74421889D01*
X176927042Y-74404178D01*
X176885798Y-74422739D01*
X176803242Y-74473055D01*
X176683657Y-74550608D01*
X176567507Y-74627051D01*
X176005885Y-74956039D01*
X175437983Y-75210057D01*
X174878249Y-75384001D01*
X174341130Y-75472767D01*
X174144400Y-75483132D01*
X173807829Y-75469549D01*
X173549491Y-75411345D01*
X173354192Y-75303828D01*
X173257062Y-75209111D01*
X173212856Y-75154107D01*
X173180149Y-75098961D01*
X173157208Y-75028303D01*
X173142303Y-74926764D01*
X173133700Y-74778974D01*
X173129668Y-74569563D01*
X173128500Y-74289300D01*
X173281548Y-74289300D01*
X173286752Y-74598330D01*
X173305351Y-74824064D01*
X173343168Y-74984525D01*
X173406025Y-75097735D01*
X173499748Y-75181714D01*
X173586306Y-75232483D01*
X173775021Y-75289587D01*
X174035381Y-75310349D01*
X174344686Y-75296134D01*
X174680237Y-75248307D01*
X175019336Y-75168232D01*
X175109600Y-75140927D01*
X175436587Y-75023926D01*
X175766786Y-74878130D01*
X176106729Y-74698636D01*
X176462946Y-74480540D01*
X176841971Y-74218940D01*
X177250333Y-73908932D01*
X177694564Y-73545613D01*
X178181197Y-73124080D01*
X178716762Y-72639431D01*
X179307791Y-72086762D01*
X179783200Y-71632558D01*
X180134173Y-71296062D01*
X180421045Y-71024639D01*
X180651722Y-70811686D01*
X180834111Y-70650603D01*
X180976118Y-70534787D01*
X181085652Y-70457636D01*
X181170619Y-70412549D01*
X181238925Y-70392924D01*
X181270702Y-70390589D01*
X181475399Y-70422661D01*
X181741287Y-70513861D01*
X182053815Y-70655599D01*
X182398432Y-70839286D01*
X182760586Y-71056333D01*
X183125726Y-71298151D01*
X183479301Y-71556150D01*
X183806759Y-71821740D01*
X184016852Y-72011571D01*
X184173394Y-72156926D01*
X184279784Y-72229743D01*
X184358861Y-72225903D01*
X184433462Y-72141289D01*
X184526425Y-71971785D01*
X184555858Y-71914400D01*
X184641234Y-71738880D01*
X184678587Y-71612437D01*
X184662507Y-71505355D01*
X184587586Y-71387918D01*
X184448415Y-71230409D01*
X184427184Y-71207452D01*
X184196853Y-70977609D01*
X183917427Y-70729246D01*
X183601504Y-70470902D01*
X183261678Y-70211118D01*
X182910545Y-69958433D01*
X182560701Y-69721386D01*
X182224741Y-69508517D01*
X181915262Y-69328366D01*
X181644858Y-69189471D01*
X181426126Y-69100373D01*
X181273889Y-69069600D01*
X181240722Y-69070093D01*
X181207963Y-69075692D01*
X181168626Y-69092577D01*
X181115726Y-69126928D01*
X181042278Y-69184924D01*
X180941295Y-69272747D01*
X180805794Y-69396575D01*
X180628787Y-69562588D01*
X180403291Y-69776967D01*
X180122318Y-70045892D01*
X179778886Y-70375541D01*
X179558923Y-70586815D01*
X178869310Y-71236169D01*
X178235561Y-71805414D01*
X177654419Y-72297066D01*
X177122626Y-72713643D01*
X176636925Y-73057662D01*
X176194060Y-73331642D01*
X175790773Y-73538099D01*
X175677090Y-73587216D01*
X175180132Y-73766691D01*
X174715953Y-73883805D01*
X174294774Y-73937437D01*
X173926815Y-73926468D01*
X173622299Y-73849778D01*
X173556109Y-73819612D01*
X173416739Y-73749936D01*
X173320549Y-73703794D01*
X173293500Y-73692612D01*
X173288608Y-73740018D01*
X173284722Y-73869191D01*
X173282238Y-74060300D01*
X173281548Y-74289300D01*
X173128500Y-74289300D01*
X173128474Y-74283164D01*
X173128400Y-74067478D01*
X173129893Y-73686958D01*
X173138192Y-73389775D01*
X173151237Y-73244433D01*
X173616489Y-73244433D01*
X173644328Y-73320953D01*
X173797954Y-73428614D01*
X174028646Y-73480387D01*
X174328151Y-73475550D01*
X174688214Y-73413377D01*
X174690777Y-73412773D01*
X175053060Y-73312655D01*
X175410483Y-73181844D01*
X175771655Y-73014652D01*
X176145181Y-72805396D01*
X176539669Y-72548387D01*
X176963724Y-72237942D01*
X177425954Y-71868373D01*
X177934964Y-71433995D01*
X178499362Y-70929122D01*
X178627500Y-70811986D01*
X179376800Y-70124739D01*
X179376800Y-68133692D01*
X179068707Y-68639746D01*
X178947810Y-68835518D01*
X178836671Y-69004701D01*
X178725891Y-69155311D01*
X178606073Y-69295365D01*
X178467816Y-69432879D01*
X178301722Y-69575869D01*
X178098392Y-69732352D01*
X177848428Y-69910345D01*
X177542430Y-70117865D01*
X177171000Y-70362927D01*
X176724738Y-70653548D01*
X176653236Y-70699962D01*
X176304470Y-70927919D01*
X175956677Y-71158178D01*
X175626780Y-71379317D01*
X175331705Y-71579916D01*
X175088376Y-71748554D01*
X174913957Y-71873632D01*
X174533640Y-72168330D01*
X174212322Y-72444093D01*
X173954976Y-72695254D01*
X173766573Y-72916143D01*
X173652087Y-73101092D01*
X173616489Y-73244433D01*
X173151237Y-73244433D01*
X173159025Y-73157670D01*
X173198118Y-72972386D01*
X173261199Y-72815664D01*
X173353997Y-72669248D01*
X173482238Y-72514879D01*
X173651650Y-72334299D01*
X173682003Y-72302746D01*
X173831855Y-72153105D01*
X173995561Y-72002743D01*
X174181812Y-71845262D01*
X174399300Y-71674269D01*
X174656717Y-71483367D01*
X174962755Y-71266162D01*
X175326106Y-71016257D01*
X175755460Y-70727258D01*
X176259510Y-70392769D01*
X176435090Y-70276999D01*
X176794195Y-70039107D01*
X177134295Y-69811148D01*
X177443985Y-69600966D01*
X177711860Y-69416406D01*
X177926512Y-69265313D01*
X178076538Y-69155531D01*
X178142328Y-69102753D01*
X178259665Y-68976598D01*
X178403463Y-68792700D01*
X178550355Y-68581860D01*
X178616869Y-68477252D01*
X178887462Y-68036005D01*
X178678542Y-67850605D01*
X178344959Y-67607953D01*
X177920103Y-67388432D01*
X177412391Y-67195578D01*
X176830243Y-67032926D01*
X176618070Y-66985389D01*
X176279307Y-66925911D01*
X175958874Y-66898289D01*
X175645179Y-66905958D01*
X175326629Y-66952350D01*
X174991631Y-67040899D01*
X174628595Y-67175036D01*
X174225926Y-67358195D01*
X173772033Y-67593809D01*
X173255324Y-67885312D01*
X172927238Y-68078393D01*
X172635382Y-68250784D01*
X172337768Y-68424205D01*
X172059857Y-68583981D01*
X171827109Y-68715436D01*
X171713020Y-68778247D01*
X171288241Y-69008123D01*
X172119420Y-69026591D01*
X172438887Y-69035076D01*
X172675844Y-69045790D01*
X172849381Y-69061091D01*
X172978589Y-69083340D01*
X173082558Y-69114894D01*
X173179200Y-69157531D01*
X173298604Y-69219292D01*
X173389320Y-69281167D01*
X173455127Y-69357310D01*
X173499800Y-69461878D01*
X173527118Y-69609029D01*
X173540856Y-69812917D01*
X173544793Y-70087699D01*
X173542704Y-70447532D01*
X173542030Y-70517400D01*
X173532045Y-71533400D01*
X173368322Y-71678610D01*
X173289599Y-71743009D01*
X173140204Y-71860103D01*
X172930812Y-72021718D01*
X172672097Y-72219679D01*
X172374736Y-72445812D01*
X172049404Y-72691943D01*
X171782200Y-72893219D01*
X171318943Y-73242011D01*
X170926172Y-73539122D01*
X170592754Y-73793382D01*
X170307558Y-74013618D01*
X170059453Y-74208659D01*
X169837306Y-74387334D01*
X169629988Y-74558472D01*
X169426365Y-74730900D01*
X169215307Y-74913447D01*
X169028667Y-75077069D01*
X168707965Y-75367368D01*
X168437933Y-75628037D01*
X168224408Y-75852553D01*
X168073229Y-76034394D01*
X167990234Y-76167038D01*
X167981262Y-76243960D01*
X167375295Y-76243960D01*
X167235600Y-76068763D01*
X167235600Y-78026146D01*
X167129647Y-77930261D01*
X167097030Y-77897209D01*
X167072120Y-77856139D01*
X167054096Y-77794413D01*
X167042136Y-77699396D01*
X167035418Y-77558450D01*
X167033120Y-77358941D01*
X167034420Y-77088231D01*
X167038496Y-76733684D01*
X167040747Y-76563487D01*
X167054255Y-75556772D01*
X167553178Y-75556772D01*
X167599867Y-75740752D01*
X167696872Y-75895839D01*
X167804752Y-76032986D01*
X168305011Y-75526037D01*
X168538324Y-75297828D01*
X168818328Y-75036560D01*
X169112102Y-74772302D01*
X169386730Y-74535122D01*
X169423737Y-74504157D01*
X169624556Y-74340604D01*
X169890499Y-74129498D01*
X170204994Y-73883691D01*
X170551472Y-73616035D01*
X170913361Y-73339383D01*
X171274092Y-73066586D01*
X171369402Y-72995064D01*
X171708855Y-72740142D01*
X172038296Y-72491531D01*
X172344590Y-72259234D01*
X172614600Y-72053253D01*
X172835192Y-71883592D01*
X172993229Y-71760253D01*
X173039500Y-71723288D01*
X173382400Y-71445672D01*
X173382400Y-70133804D01*
X173039500Y-70424715D01*
X172910812Y-70529576D01*
X172714064Y-70684293D01*
X172462933Y-70878375D01*
X172171098Y-71101333D01*
X171852237Y-71342678D01*
X171520028Y-71591921D01*
X171426600Y-71661607D01*
X170749883Y-72170839D01*
X170154274Y-72630445D01*
X169634813Y-73044790D01*
X169186543Y-73418243D01*
X168804506Y-73755171D01*
X168483745Y-74059940D01*
X168219299Y-74336919D01*
X168006213Y-74590474D01*
X167845040Y-74816408D01*
X167673699Y-75109644D01*
X167577100Y-75351417D01*
X167553178Y-75556772D01*
X167054255Y-75556772D01*
X167057800Y-75292600D01*
X167214636Y-74962400D01*
X167340077Y-74724248D01*
X167493331Y-74483813D01*
X167680012Y-74235843D01*
X167905735Y-73975086D01*
X168176111Y-73696290D01*
X168496755Y-73394204D01*
X168873281Y-73063577D01*
X169311301Y-72699155D01*
X169816430Y-72295689D01*
X170394280Y-71847926D01*
X171050465Y-71350615D01*
X171175923Y-71256487D01*
X171644221Y-70904210D01*
X172035431Y-70606630D01*
X172355026Y-70359236D01*
X172608479Y-70157515D01*
X172801266Y-69996955D01*
X172938860Y-69873042D01*
X173026735Y-69781265D01*
X173070366Y-69717111D01*
X173077600Y-69688853D01*
X173058327Y-69626103D01*
X172993510Y-69578284D01*
X172872648Y-69543674D01*
X172685242Y-69520554D01*
X172420793Y-69507204D01*
X172068801Y-69501904D01*
X171934600Y-69501628D01*
X171359218Y-69511459D01*
X170876945Y-69541208D01*
X170481096Y-69591727D01*
X170164983Y-69663867D01*
X169923185Y-69757839D01*
X169765862Y-69848010D01*
X169580742Y-69974716D01*
X169360644Y-70143924D01*
X169098387Y-70361602D01*
X168786790Y-70633716D01*
X168418672Y-70966232D01*
X167986851Y-71365118D01*
X167970564Y-71380291D01*
X167500808Y-71811910D01*
X167093114Y-72172441D01*
X166741291Y-72466056D01*
X166439151Y-72696928D01*
X166180503Y-72869232D01*
X165959159Y-72987140D01*
X165768927Y-73054825D01*
X165603618Y-73076460D01*
X165476958Y-73061488D01*
X165370559Y-73007003D01*
X165222622Y-72893981D01*
X165057336Y-72741365D01*
X165021463Y-72704789D01*
X164721489Y-72328425D01*
X164459011Y-71863509D01*
X164237894Y-71317361D01*
X164161425Y-71076200D01*
X164097361Y-70863289D01*
X164039280Y-70678544D01*
X163996142Y-70550128D01*
X163983645Y-70517400D01*
X163972959Y-70540790D01*
X163963112Y-70656970D01*
X163954354Y-70857131D01*
X163946933Y-71132463D01*
X163941100Y-71474157D01*
X163937103Y-71873405D01*
X163935422Y-72219200D01*
X163933754Y-72695468D01*
X163931405Y-73079143D01*
X163927938Y-73379229D01*
X163922917Y-73604731D01*
X163915906Y-73764656D01*
X163906469Y-73868009D01*
X163894168Y-73923795D01*
X163878568Y-73941020D01*
X163859232Y-73928689D01*
X163852963Y-73921000D01*
X163834170Y-73845448D01*
X163818444Y-73679988D01*
X163805701Y-73436260D01*
X163795856Y-73125909D01*
X163788824Y-72760574D01*
X163784523Y-72351900D01*
X163782866Y-71911527D01*
X163783770Y-71451099D01*
X163787151Y-70982257D01*
X163792924Y-70516643D01*
X163801005Y-70065900D01*
X163810046Y-69693691D01*
X164326318Y-69693691D01*
X164390766Y-70054745D01*
X164510874Y-70601313D01*
X164668111Y-71117918D01*
X164855504Y-71587483D01*
X165066078Y-71992931D01*
X165292860Y-72317186D01*
X165334041Y-72364697D01*
X165472419Y-72510229D01*
X165578347Y-72583983D01*
X165683598Y-72592907D01*
X165819946Y-72543948D01*
X165922610Y-72493388D01*
X166065898Y-72405329D01*
X166261232Y-72259549D01*
X166512333Y-72052891D01*
X166822925Y-71782198D01*
X167196732Y-71444312D01*
X167602123Y-71069104D01*
X167882069Y-70809904D01*
X168164394Y-70552382D01*
X168431944Y-70311902D01*
X168667565Y-70103831D01*
X168854102Y-69943533D01*
X168915998Y-69892266D01*
X169329951Y-69555624D01*
X169006675Y-69495519D01*
X168601925Y-69395989D01*
X168254311Y-69261377D01*
X167976412Y-69098297D01*
X167780805Y-68913359D01*
X167720085Y-68819246D01*
X167692263Y-68740017D01*
X167671279Y-68615783D01*
X167656214Y-68433700D01*
X167646149Y-68180923D01*
X167640163Y-67844606D01*
X167638696Y-67682503D01*
X167638467Y-67382675D01*
X167794400Y-67382675D01*
X167794400Y-68019039D01*
X167795412Y-68284922D01*
X167800799Y-68470177D01*
X167814084Y-68595776D01*
X167838791Y-68682688D01*
X167878444Y-68751884D01*
X167928017Y-68814199D01*
X168116662Y-68979854D01*
X168379885Y-69129305D01*
X168690693Y-69248831D01*
X168881611Y-69298924D01*
X169185132Y-69352989D01*
X169428159Y-69364759D01*
X169642930Y-69333454D01*
X169817499Y-69276308D01*
X170010341Y-69212152D01*
X170241797Y-69151423D01*
X170390879Y-69120461D01*
X170648607Y-69053404D01*
X170966844Y-68932350D01*
X171349826Y-68755269D01*
X171801791Y-68520132D01*
X172326978Y-68224910D01*
X172621378Y-68052339D01*
X173156784Y-67739219D01*
X173620058Y-67479118D01*
X174022649Y-67267290D01*
X174376009Y-67098992D01*
X174691588Y-66969479D01*
X174980835Y-66874006D01*
X175255200Y-66807830D01*
X175526135Y-66766205D01*
X175774229Y-66745934D01*
X175997261Y-66737635D01*
X176185019Y-66742047D01*
X176369783Y-66762999D01*
X176583829Y-66804318D01*
X176859438Y-66869836D01*
X176896325Y-66879041D01*
X177375505Y-67008406D01*
X177772850Y-67138517D01*
X178107835Y-67277814D01*
X178399934Y-67434739D01*
X178668621Y-67617733D01*
X178754472Y-67684483D01*
X178970345Y-67857157D01*
X179024774Y-67714078D01*
X179069152Y-67507778D01*
X179075019Y-67259389D01*
X179044145Y-67018203D01*
X178994233Y-66863674D01*
X178799163Y-66560728D01*
X178516324Y-66277445D01*
X178159164Y-66024701D01*
X177741135Y-65813372D01*
X177649600Y-65776330D01*
X177325700Y-65664093D01*
X176959303Y-65559035D01*
X176586464Y-65469970D01*
X176243238Y-65405711D01*
X176023159Y-65378788D01*
X175735355Y-65373920D01*
X175434179Y-65407673D01*
X175109868Y-65483729D01*
X174752659Y-65605770D01*
X174352789Y-65777478D01*
X173900495Y-66002535D01*
X173386014Y-66284622D01*
X172950600Y-66537528D01*
X172433318Y-66840501D01*
X171988237Y-67093226D01*
X171602885Y-67301610D01*
X171264787Y-67471555D01*
X170961471Y-67608966D01*
X170680464Y-67719747D01*
X170409293Y-67809803D01*
X170135485Y-67885037D01*
X170070108Y-67901037D01*
X169571135Y-67982415D01*
X169099400Y-67983831D01*
X168666094Y-67907183D01*
X168282407Y-67754368D01*
X167981205Y-67546692D01*
X167794400Y-67382675D01*
X167638467Y-67382675D01*
X167638458Y-67371886D01*
X167642042Y-67094011D01*
X167648687Y-66873519D01*
X168099200Y-66873519D01*
X168148646Y-67038172D01*
X168291608Y-67193979D01*
X168520022Y-67334054D01*
X168745818Y-67425756D01*
X169025280Y-67504818D01*
X169284500Y-67537124D01*
X169558362Y-67523293D01*
X169881750Y-67463943D01*
X169953400Y-67447156D01*
X170495844Y-67281297D01*
X171085374Y-67032861D01*
X171725383Y-66700388D01*
X171844767Y-66632336D01*
X172109648Y-66479426D01*
X172428186Y-66295519D01*
X172766053Y-66100434D01*
X173088927Y-65913989D01*
X173192865Y-65853965D01*
X173756000Y-65543387D01*
X174257733Y-65299263D01*
X174709712Y-65117434D01*
X175123587Y-64993744D01*
X175511007Y-64924033D01*
X175854326Y-64904000D01*
X176227200Y-64904000D01*
X176227200Y-62578897D01*
X176045984Y-62744884D01*
X175854241Y-62889289D01*
X175572220Y-63056226D01*
X175207779Y-63241926D01*
X174768777Y-63442624D01*
X174263074Y-63654552D01*
X173698528Y-63873943D01*
X173661800Y-63887693D01*
X172847802Y-64195550D01*
X172122929Y-64478018D01*
X171478942Y-64738743D01*
X170907603Y-64981367D01*
X170400673Y-65209536D01*
X169949913Y-65426892D01*
X169547084Y-65637081D01*
X169183948Y-65843745D01*
X169035967Y-65933664D01*
X168726368Y-66142669D01*
X168467409Y-66351729D01*
X168269573Y-66550326D01*
X168143343Y-66727943D01*
X168099200Y-66873519D01*
X167648687Y-66873519D01*
X167648924Y-66865673D01*
X167658581Y-66703666D01*
X167670488Y-66624784D01*
X167671772Y-66622131D01*
X167659416Y-66615454D01*
X167587084Y-66665013D01*
X167486514Y-66746651D01*
X167281591Y-66916482D01*
X167060451Y-67090290D01*
X166805703Y-67281115D01*
X166499951Y-67501998D01*
X166143400Y-67753661D01*
X165723181Y-68067349D01*
X165338967Y-68392133D01*
X165003873Y-68715142D01*
X164731016Y-69023503D01*
X164533514Y-69304346D01*
X164497346Y-69368945D01*
X164326318Y-69693691D01*
X163810046Y-69693691D01*
X163811310Y-69641670D01*
X163823754Y-69255594D01*
X163834317Y-69010587D01*
X164289200Y-69010587D01*
X164289200Y-69339533D01*
X164539122Y-68983656D01*
X164708120Y-68766011D01*
X164912349Y-68535541D01*
X165108011Y-68341629D01*
X165110622Y-68339282D01*
X165256087Y-68216781D01*
X165465116Y-68051489D01*
X165717836Y-67858584D01*
X165994374Y-67653247D01*
X166262766Y-67459261D01*
X166826542Y-67041879D01*
X167304283Y-66653037D01*
X167704831Y-66284928D01*
X168037026Y-65929746D01*
X168149927Y-65793091D01*
X168322261Y-65564899D01*
X168438232Y-65372106D01*
X168508638Y-65182844D01*
X168544279Y-64965240D01*
X168555954Y-64687426D01*
X168556400Y-64593526D01*
X168556400Y-64076589D01*
X168383088Y-64303569D01*
X168233358Y-64476187D01*
X168018431Y-64692225D01*
X167755872Y-64936168D01*
X167463241Y-65192499D01*
X167158104Y-65445703D01*
X166858021Y-65680263D01*
X166662907Y-65823260D01*
X166433816Y-65987649D01*
X166207740Y-66153258D01*
X166012623Y-66299431D01*
X165889400Y-66395039D01*
X165371630Y-66851386D01*
X164955127Y-67310071D01*
X164639574Y-67771612D01*
X164424653Y-68236527D01*
X164310049Y-68705334D01*
X164289200Y-69010587D01*
X163834317Y-69010587D01*
X163838253Y-68919316D01*
X163854722Y-68644477D01*
X163873077Y-68442719D01*
X163893235Y-68325686D01*
X163893499Y-68324804D01*
X164047078Y-67901558D01*
X164247630Y-67503443D01*
X164503431Y-67120597D01*
X164822759Y-66743153D01*
X165213890Y-66361247D01*
X165685102Y-65965015D01*
X166197891Y-65578312D01*
X166738460Y-65173298D01*
X167201857Y-64796411D01*
X167585603Y-64450208D01*
X167887223Y-64137248D01*
X168104237Y-63860089D01*
X168234169Y-63621290D01*
X168274690Y-63433528D01*
X168228610Y-63221843D01*
X168106211Y-63024535D01*
X167931254Y-62873490D01*
X167817893Y-62820570D01*
X167702780Y-62796047D01*
X167582523Y-62802525D01*
X167448552Y-62845826D01*
X167292297Y-62931768D01*
X167105187Y-63066172D01*
X166878652Y-63254858D01*
X166604123Y-63503645D01*
X166273028Y-63818353D01*
X166096925Y-63989241D01*
X165643718Y-64423832D01*
X165247121Y-64787700D01*
X164898385Y-65087911D01*
X164588764Y-65331531D01*
X164309512Y-65525628D01*
X164051881Y-65677266D01*
X163933600Y-65736918D01*
X163556746Y-65865206D01*
X163173257Y-65898659D01*
X162799284Y-65836830D01*
X162627948Y-65773197D01*
X162422882Y-65650891D01*
X162196610Y-65465983D01*
X161977573Y-65244510D01*
X161794215Y-65012514D01*
X161789520Y-65005600D01*
X161770415Y-64981797D01*
X161754329Y-64976839D01*
X161740976Y-64998426D01*
X161730070Y-65054258D01*
X161721324Y-65152035D01*
X161714452Y-65299457D01*
X161709168Y-65504225D01*
X161705184Y-65774039D01*
X161702216Y-66116599D01*
X161699976Y-66539605D01*
X161698178Y-67050757D01*
X161696952Y-67494800D01*
X161695388Y-68076605D01*
X161693752Y-68564347D01*
X161691723Y-68965561D01*
X161688980Y-69287782D01*
X161685201Y-69538547D01*
X161680064Y-69725390D01*
X161673248Y-69855849D01*
X161664432Y-69937457D01*
X161653295Y-69977752D01*
X161639514Y-69984269D01*
X161622768Y-69964544D01*
X161602736Y-69926112D01*
X161594020Y-69907800D01*
X161573179Y-69859171D01*
X161555577Y-69802930D01*
X161540939Y-69730585D01*
X161528992Y-69633641D01*
X161519461Y-69503604D01*
X161512074Y-69331981D01*
X161506556Y-69110277D01*
X161502633Y-68829998D01*
X161500031Y-68482651D01*
X161498478Y-68059742D01*
X161497698Y-67552776D01*
X161497419Y-66953261D01*
X161497412Y-66910600D01*
X161498237Y-66369534D01*
X161500774Y-65845103D01*
X161504851Y-65348710D01*
X161510297Y-64891762D01*
X161516941Y-64485662D01*
X161517602Y-64456006D01*
X162144993Y-64456006D01*
X162184718Y-64685350D01*
X162289176Y-64886810D01*
X162424874Y-65048151D01*
X162698163Y-65269046D01*
X162998283Y-65395803D01*
X163314289Y-65426445D01*
X163635238Y-65358991D01*
X163782900Y-65293762D01*
X164020016Y-65156035D01*
X164282807Y-64973943D01*
X164579249Y-64740894D01*
X164917317Y-64450301D01*
X165304988Y-64095574D01*
X165750236Y-63670124D01*
X165761340Y-63659336D01*
X166119073Y-63315053D01*
X166416692Y-63037187D01*
X166663748Y-62818198D01*
X166869791Y-62650547D01*
X167044372Y-62526694D01*
X167197039Y-62439100D01*
X167337344Y-62380224D01*
X167409421Y-62358231D01*
X167715386Y-62325145D01*
X168009328Y-62389553D01*
X168282131Y-62547392D01*
X168524681Y-62794598D01*
X168589287Y-62884244D01*
X168749174Y-63121873D01*
X168725371Y-64178036D01*
X168716946Y-64532487D01*
X168708496Y-64801461D01*
X168698037Y-65001060D01*
X168683589Y-65147389D01*
X168663167Y-65256551D01*
X168634790Y-65344650D01*
X168596475Y-65427788D01*
X168563941Y-65489320D01*
X168426315Y-65744441D01*
X168834257Y-65497620D01*
X169070110Y-65360180D01*
X169349931Y-65204920D01*
X169626119Y-65058036D01*
X169724800Y-65007554D01*
X170031838Y-64855760D01*
X170342626Y-64708706D01*
X170669089Y-64561443D01*
X171023152Y-64409019D01*
X171416741Y-64246483D01*
X171861781Y-64068886D01*
X172370197Y-63871276D01*
X172953915Y-63648703D01*
X173433200Y-63468080D01*
X173901814Y-63287431D01*
X174342132Y-63108574D01*
X174740705Y-62937475D01*
X175084088Y-62780100D01*
X175358831Y-62642416D01*
X175551490Y-62530388D01*
X175561021Y-62524022D01*
X175583900Y-62485805D01*
X175571589Y-62413241D01*
X175518332Y-62291320D01*
X175418370Y-62105032D01*
X175362463Y-62006413D01*
X175177841Y-61696415D01*
X175024651Y-61470120D01*
X174894312Y-61317838D01*
X174778250Y-61229882D01*
X174667884Y-61196562D01*
X174644614Y-61195600D01*
X174567033Y-61200112D01*
X174486688Y-61218225D01*
X174391641Y-61256800D01*
X174269957Y-61322696D01*
X174109699Y-61422777D01*
X173898930Y-61563903D01*
X173625714Y-61752936D01*
X173400266Y-61910869D01*
X173073926Y-62137570D01*
X172794914Y-62323649D01*
X172542481Y-62480144D01*
X172295879Y-62618093D01*
X172034360Y-62748537D01*
X171737174Y-62882514D01*
X171383575Y-63031064D01*
X171012259Y-63181407D01*
X170595510Y-63343419D01*
X170258639Y-63461670D01*
X169990864Y-63538266D01*
X169781404Y-63575308D01*
X169619476Y-63574900D01*
X169494301Y-63539145D01*
X169420000Y-63491985D01*
X169293000Y-63389096D01*
X169280020Y-62577004D01*
X169470800Y-62577004D01*
X169474256Y-62906804D01*
X169485064Y-63143512D01*
X169503886Y-63295416D01*
X169531380Y-63370806D01*
X169534300Y-63374118D01*
X169603657Y-63411513D01*
X169716165Y-63418005D01*
X169880606Y-63391350D01*
X170105762Y-63329301D01*
X170400416Y-63229614D01*
X170773349Y-63090042D01*
X171014470Y-62995678D01*
X171417170Y-62834321D01*
X171746751Y-62695854D01*
X172025493Y-62568206D01*
X172275674Y-62439305D01*
X172519571Y-62297082D01*
X172779463Y-62129464D01*
X173077628Y-61924383D01*
X173357000Y-61726435D01*
X173697970Y-61486024D01*
X173970260Y-61302007D01*
X174185544Y-61168603D01*
X174355497Y-61080034D01*
X174491794Y-61030518D01*
X174606111Y-61014277D01*
X174710121Y-61025530D01*
X174751043Y-61036312D01*
X174889329Y-61094470D01*
X175017512Y-61189913D01*
X175148038Y-61336655D01*
X175293354Y-61548713D01*
X175465906Y-61840100D01*
X175467719Y-61843300D01*
X175579654Y-62035702D01*
X175675003Y-62189995D01*
X175742083Y-62287848D01*
X175767203Y-62313200D01*
X175845477Y-62268071D01*
X175898143Y-62150545D01*
X175921607Y-61987408D01*
X175912280Y-61805448D01*
X175866568Y-61631452D01*
X175860542Y-61617090D01*
X175800628Y-61494850D01*
X175702628Y-61311903D01*
X175576828Y-61085888D01*
X175433517Y-60834446D01*
X175282982Y-60575215D01*
X175135509Y-60325836D01*
X175001387Y-60103948D01*
X174890903Y-59927191D01*
X174814344Y-59813204D01*
X174792604Y-59785900D01*
X174694435Y-59706694D01*
X174585441Y-59681319D01*
X174448862Y-59713324D01*
X174267940Y-59806256D01*
X174058751Y-59941243D01*
X173856110Y-60079056D01*
X173602803Y-60251563D01*
X173332047Y-60436133D01*
X173091306Y-60600404D01*
X172761123Y-60820392D01*
X172471813Y-60998285D01*
X172194983Y-61148535D01*
X171902240Y-61285597D01*
X171565193Y-61423926D01*
X171211355Y-61557460D01*
X170799553Y-61704849D01*
X170466877Y-61813243D01*
X170199760Y-61885248D01*
X169984635Y-61923470D01*
X169807934Y-61930515D01*
X169656091Y-61908987D01*
X169551719Y-61876181D01*
X169519911Y-61873880D01*
X169497624Y-61904943D01*
X169483214Y-61983592D01*
X169475040Y-62124048D01*
X169471460Y-62340535D01*
X169470800Y-62577004D01*
X169280020Y-62577004D01*
X169275779Y-62311709D01*
X169272107Y-61979712D01*
X169271760Y-61672313D01*
X169274517Y-61407600D01*
X169278562Y-61261349D01*
X169775600Y-61261349D01*
X169775600Y-61463751D01*
X170019573Y-61434856D01*
X170154138Y-61406581D01*
X170359185Y-61348366D01*
X170610732Y-61267678D01*
X170884798Y-61171985D01*
X170997473Y-61130384D01*
X171407391Y-60972559D01*
X171741846Y-60833920D01*
X172022641Y-60704284D01*
X172271575Y-60573465D01*
X172510449Y-60431280D01*
X172556900Y-60401882D01*
X172823600Y-60231661D01*
X172823600Y-59003012D01*
X172571505Y-59278844D01*
X172351421Y-59494440D01*
X172081881Y-59710556D01*
X171751689Y-59934682D01*
X171349653Y-60174307D01*
X170864577Y-60436921D01*
X170758046Y-60492123D01*
X170491421Y-60631078D01*
X170251779Y-60759092D01*
X170055720Y-60867052D01*
X169919841Y-60945845D01*
X169864500Y-60982698D01*
X169794693Y-61104930D01*
X169775600Y-61261349D01*
X169278562Y-61261349D01*
X169280158Y-61203663D01*
X169288464Y-61078590D01*
X169290984Y-61061475D01*
X169343089Y-60902380D01*
X169443876Y-60753575D01*
X169604235Y-60605759D01*
X169835059Y-60449635D01*
X170147236Y-60275901D01*
X170305126Y-60195497D01*
X170722606Y-59983157D01*
X171065372Y-59799114D01*
X171352358Y-59632264D01*
X171602500Y-59471506D01*
X171834733Y-59305734D01*
X171877342Y-59273556D01*
X172175685Y-59046454D01*
X172055142Y-58954529D01*
X171893856Y-58860285D01*
X171670349Y-58765238D01*
X171422975Y-58682353D01*
X171190087Y-58624597D01*
X171020600Y-58604799D01*
X170846407Y-58616867D01*
X170691600Y-58646819D01*
X170662348Y-58656455D01*
X170597838Y-58702131D01*
X170469234Y-58811465D01*
X170284805Y-58976798D01*
X170052821Y-59190471D01*
X169781551Y-59444827D01*
X169479265Y-59732205D01*
X169154232Y-60044948D01*
X168969941Y-60223847D01*
X168469713Y-60710118D01*
X168034652Y-61131037D01*
X167657927Y-61492941D01*
X167332709Y-61802168D01*
X167052170Y-62065055D01*
X166809481Y-62287938D01*
X166597812Y-62477155D01*
X166410335Y-62639044D01*
X166240220Y-62779941D01*
X166080639Y-62906183D01*
X166073273Y-62911870D01*
X165892840Y-63048236D01*
X165763847Y-63132995D01*
X165658463Y-63178092D01*
X165548860Y-63195471D01*
X165408741Y-63197100D01*
X165059761Y-63154497D01*
X164729974Y-63044046D01*
X164451408Y-62877605D01*
X164380326Y-62816365D01*
X164187600Y-62633731D01*
X164187600Y-61758032D01*
X164184988Y-61446285D01*
X164178972Y-61241229D01*
X164390800Y-61241229D01*
X164390800Y-61920759D01*
X164391730Y-62196626D01*
X164396425Y-62389761D01*
X164407742Y-62519028D01*
X164428536Y-62603290D01*
X164461663Y-62661410D01*
X164509980Y-62712253D01*
X164510752Y-62712979D01*
X164697865Y-62840009D01*
X164946300Y-62942731D01*
X165216307Y-63007186D01*
X165390771Y-63022023D01*
X165521216Y-63018608D01*
X165626367Y-62997385D01*
X165732928Y-62946009D01*
X165867601Y-62852129D01*
X166025771Y-62728376D01*
X166244520Y-62550092D01*
X166478811Y-62350721D01*
X166735272Y-62124043D01*
X167020527Y-61863838D01*
X167341205Y-61563885D01*
X167703929Y-61217966D01*
X168115328Y-60819858D01*
X168582026Y-60363343D01*
X169110651Y-59842199D01*
X169301075Y-59653731D01*
X170426751Y-58538688D01*
X170731647Y-58475856D01*
X171004710Y-58441492D01*
X171269408Y-58459709D01*
X171553378Y-58535379D01*
X171884262Y-58673372D01*
X171903186Y-58682304D01*
X172113443Y-58775724D01*
X172255324Y-58815139D01*
X172348880Y-58796580D01*
X172414160Y-58716077D01*
X172471155Y-58569837D01*
X172506412Y-58308143D01*
X172451501Y-58037755D01*
X172314412Y-57776206D01*
X172103132Y-57541030D01*
X171948533Y-57422817D01*
X171606055Y-57233366D01*
X171269976Y-57118411D01*
X170956061Y-57081482D01*
X170680074Y-57126111D01*
X170658552Y-57133899D01*
X170592525Y-57180477D01*
X170463222Y-57290902D01*
X170279207Y-57457180D01*
X170049045Y-57671314D01*
X169781301Y-57925309D01*
X169484539Y-58211169D01*
X169167323Y-58520898D01*
X169066895Y-58619799D01*
X168473015Y-59202869D01*
X167944839Y-59714924D01*
X167478699Y-60159184D01*
X167070931Y-60538869D01*
X166717871Y-60857199D01*
X166415852Y-61117392D01*
X166161210Y-61322670D01*
X165950280Y-61476251D01*
X165779397Y-61581355D01*
X165644895Y-61641202D01*
X165618811Y-61648880D01*
X165360965Y-61670723D01*
X165071240Y-61620795D01*
X164780463Y-61507264D01*
X164556125Y-61367329D01*
X164390800Y-61241229D01*
X164178972Y-61241229D01*
X164177582Y-61193871D01*
X164166026Y-61012486D01*
X164150965Y-60913823D01*
X164140302Y-60899266D01*
X164057466Y-60948527D01*
X163919136Y-61050744D01*
X163744418Y-61189899D01*
X163552417Y-61349974D01*
X163362240Y-61514950D01*
X163192991Y-61668808D01*
X163063776Y-61795531D01*
X163037315Y-61824032D01*
X162770872Y-62187110D01*
X162544040Y-62636073D01*
X162360200Y-63161884D01*
X162222732Y-63755508D01*
X162160582Y-64167400D01*
X162144993Y-64456006D01*
X161517602Y-64456006D01*
X161524610Y-64141816D01*
X161533135Y-63871629D01*
X161542343Y-63686505D01*
X161546663Y-63634000D01*
X161613051Y-63122734D01*
X161635363Y-62996493D01*
X162127914Y-62996493D01*
X162135589Y-63033119D01*
X162155497Y-63060903D01*
X162175139Y-63060566D01*
X162202746Y-63017176D01*
X162246551Y-62915804D01*
X162314786Y-62741520D01*
X162357339Y-62630949D01*
X162515219Y-62282924D01*
X162715804Y-61960350D01*
X162970796Y-61649837D01*
X163291901Y-61337992D01*
X163690822Y-61011424D01*
X163925440Y-60836751D01*
X163979876Y-60794263D01*
X164695600Y-60794263D01*
X164741623Y-60901011D01*
X164862764Y-61008377D01*
X165033625Y-61102155D01*
X165228811Y-61168141D01*
X165406800Y-61192072D01*
X165493144Y-61183984D01*
X165585917Y-61149910D01*
X165701960Y-61079495D01*
X165858110Y-60962384D01*
X166071209Y-60788222D01*
X166092600Y-60770362D01*
X166320010Y-60574798D01*
X166589439Y-60334570D01*
X166870999Y-60076790D01*
X167134798Y-59828568D01*
X167198413Y-59767370D01*
X167796227Y-59189000D01*
X167795313Y-58511666D01*
X167791928Y-58264475D01*
X167783289Y-58060268D01*
X167770609Y-57917053D01*
X167755101Y-57852837D01*
X167750846Y-57851266D01*
X167699006Y-57895352D01*
X167600587Y-57997074D01*
X167474655Y-58136522D01*
X167442795Y-58173000D01*
X167244547Y-58387101D01*
X166971675Y-58659231D01*
X166629354Y-58984535D01*
X166222761Y-59358156D01*
X165757074Y-59775240D01*
X165394272Y-60094330D01*
X165156216Y-60307078D01*
X164957075Y-60494532D01*
X164807322Y-60646199D01*
X164717433Y-60751585D01*
X164695600Y-60794263D01*
X163979876Y-60794263D01*
X164080260Y-60715913D01*
X164200783Y-60605981D01*
X164263520Y-60528627D01*
X164266096Y-60522427D01*
X164310796Y-60466400D01*
X164421829Y-60353074D01*
X164589056Y-60192039D01*
X164802333Y-59992885D01*
X165051520Y-59765200D01*
X165326476Y-59518576D01*
X165346746Y-59500566D01*
X165706044Y-59177893D01*
X166050677Y-58861468D01*
X166372711Y-58559124D01*
X166664210Y-58278692D01*
X166917237Y-58028006D01*
X167123857Y-57814897D01*
X167276134Y-57647197D01*
X167366133Y-57532740D01*
X167388000Y-57485913D01*
X167346603Y-57450706D01*
X167230471Y-57463145D01*
X167051689Y-57518109D01*
X166822342Y-57610474D01*
X166554516Y-57735118D01*
X166260296Y-57886916D01*
X165951767Y-58060748D01*
X165762400Y-58174983D01*
X165394626Y-58413601D01*
X165007958Y-58683830D01*
X164615485Y-58974894D01*
X164230294Y-59276017D01*
X163865473Y-59576425D01*
X163534111Y-59865342D01*
X163249297Y-60131992D01*
X163024118Y-60365599D01*
X162872369Y-60554351D01*
X162777077Y-60715218D01*
X162673096Y-60922646D01*
X162596340Y-61099230D01*
X162518241Y-61315724D01*
X162436946Y-61574975D01*
X162356846Y-61858556D01*
X162282330Y-62148042D01*
X162217789Y-62425005D01*
X162167612Y-62671019D01*
X162136190Y-62867658D01*
X162127914Y-62996493D01*
X161635363Y-62996493D01*
X161706619Y-62593344D01*
X161821908Y-62067496D01*
X161953457Y-61566854D01*
X162095807Y-61113084D01*
X162243498Y-60727850D01*
X162321203Y-60560600D01*
X162477378Y-60313961D01*
X162711862Y-60029506D01*
X163012870Y-59716387D01*
X163368619Y-59383752D01*
X163767324Y-59040753D01*
X164197200Y-58696539D01*
X164646464Y-58360261D01*
X165103331Y-58041070D01*
X165556017Y-57748115D01*
X165992737Y-57490546D01*
X166401708Y-57277515D01*
X166738661Y-57130523D01*
X167079723Y-57021868D01*
X167375460Y-56974120D01*
X167615505Y-56987441D01*
X167789490Y-57061996D01*
X167841512Y-57113050D01*
X167879856Y-57168744D01*
X167907603Y-57234333D01*
X167926450Y-57326176D01*
X167938091Y-57460630D01*
X167944221Y-57654057D01*
X167946536Y-57922814D01*
X167946800Y-58129050D01*
X167948798Y-58415657D01*
X167954343Y-58663367D01*
X167962754Y-58855861D01*
X167973353Y-58976818D01*
X167983475Y-59011200D01*
X168027136Y-58976667D01*
X168133690Y-58878774D01*
X168294264Y-58726075D01*
X168499983Y-58527124D01*
X168741972Y-58290478D01*
X169011359Y-58024691D01*
X169164575Y-57872578D01*
X169503207Y-57536321D01*
X169780473Y-57265043D01*
X170007025Y-57052055D01*
X170193516Y-56890671D01*
X170350598Y-56774203D01*
X170488923Y-56695964D01*
X170619144Y-56649266D01*
X170751912Y-56627423D01*
X170897881Y-56623747D01*
X171067702Y-56631550D01*
X171067702Y-56631550D01*
G37*
X171067702Y-56631550D02*
X171134723Y-56635755D01*
X171525714Y-56704671D01*
X171907529Y-56853017D01*
X172259441Y-57067271D01*
X172560724Y-57333915D01*
X172790650Y-57639427D01*
X172851704Y-57755763D01*
X172893624Y-57850579D01*
X172924804Y-57940700D01*
X172946837Y-58042776D01*
X172961317Y-58173462D01*
X172969837Y-58349407D01*
X172973991Y-58587264D01*
X172975373Y-58903686D01*
X172975503Y-59049300D01*
X172976716Y-59360124D01*
X172979816Y-59633257D01*
X172984462Y-59853586D01*
X172990315Y-60005996D01*
X172997033Y-60075376D01*
X172998655Y-60077999D01*
X173046605Y-60050369D01*
X173159737Y-59975325D01*
X173320651Y-59864641D01*
X173493955Y-59742860D01*
X173781659Y-59543231D01*
X174006667Y-59399157D01*
X174185434Y-59302495D01*
X174334416Y-59245100D01*
X174470068Y-59218831D01*
X174561476Y-59214589D01*
X174715539Y-59225676D01*
X174853948Y-59264884D01*
X174985624Y-59341562D01*
X175119488Y-59465063D01*
X175264461Y-59644735D01*
X175429465Y-59889931D01*
X175623420Y-60210000D01*
X175794462Y-60506940D01*
X175955354Y-60788156D01*
X176085316Y-61017125D01*
X176187723Y-61208947D01*
X176265950Y-61378723D01*
X176323372Y-61541554D01*
X176363364Y-61712539D01*
X176389300Y-61906778D01*
X176404557Y-62139372D01*
X176412508Y-62425422D01*
X176416529Y-62780026D01*
X176419995Y-63218286D01*
X176420843Y-63309483D01*
X176436686Y-64940767D01*
X177046621Y-65098599D01*
X177686685Y-65296521D01*
X178233849Y-65535072D01*
X178688422Y-65814452D01*
X179050714Y-66134864D01*
X179321035Y-66496509D01*
X179388600Y-66621863D01*
X179554600Y-66958847D01*
X179585740Y-69885333D01*
X180195144Y-69312366D01*
X180470150Y-69056821D01*
X180686200Y-68865290D01*
X180855939Y-68729703D01*
X180992012Y-68641992D01*
X181107066Y-68594088D01*
X181213744Y-68577923D01*
X181324693Y-68585428D01*
X181332600Y-68586579D01*
X181572353Y-68651333D01*
X181870830Y-68777708D01*
X182214374Y-68956031D01*
X182589326Y-69176625D01*
X182982026Y-69429818D01*
X183378815Y-69705934D01*
X183766036Y-69995299D01*
X184130029Y-70288238D01*
X184457136Y-70575076D01*
X184733697Y-70846139D01*
X184946055Y-71091753D01*
X185022896Y-71200445D01*
X185168000Y-71426291D01*
X185168000Y-72889545D01*
X185168794Y-73263319D01*
X185171040Y-73601844D01*
X185174530Y-73892446D01*
X185179058Y-74122455D01*
X185184417Y-74279197D01*
X185190400Y-74350001D01*
X185191880Y-74352800D01*
X185245653Y-74331371D01*
X185364584Y-74275005D01*
X185523663Y-74195583D01*
X185534780Y-74189914D01*
X185873156Y-74053355D01*
X186182690Y-74000215D01*
X186454882Y-74029243D01*
X186681229Y-74139187D01*
X186853232Y-74328796D01*
X186886951Y-74388907D01*
X187015656Y-74674696D01*
X187149495Y-75025975D01*
X187276796Y-75408033D01*
X187385888Y-75786159D01*
X187456341Y-76082201D01*
X187482905Y-76215070D01*
X187504768Y-76340877D01*
X187522342Y-76470765D01*
X187536039Y-76615881D01*
X187546272Y-76787368D01*
X187553454Y-76996371D01*
X187557996Y-77254035D01*
X187560312Y-77571504D01*
X187560815Y-77959925D01*
X187559916Y-78430440D01*
X187558570Y-78843858D01*
X187555638Y-79429904D01*
X187551238Y-79920308D01*
X187545194Y-80321018D01*
X187537330Y-80637982D01*
X187527470Y-80877149D01*
X187515441Y-81044468D01*
X187501065Y-81145888D01*
X187489628Y-81180658D01*
X187470716Y-81195434D01*
X187455025Y-81161745D01*
X187441960Y-81070880D01*
X187430926Y-80914128D01*
X187421328Y-80682779D01*
X187412571Y-80368123D01*
X187404060Y-79961448D01*
X187403200Y-79915400D01*
X187395289Y-79508925D01*
X187387929Y-79194794D01*
X187380361Y-78963761D01*
X187371828Y-78806578D01*
X187361568Y-78713998D01*
X187348825Y-78676773D01*
X187332839Y-78685658D01*
X187312850Y-78731405D01*
X187307319Y-78747000D01*
X187053435Y-79327814D01*
X186704176Y-79887364D01*
X186264485Y-80420486D01*
X185739301Y-80922016D01*
X185133567Y-81386789D01*
X184452225Y-81809642D01*
X184294457Y-81895582D01*
X183507337Y-82273904D01*
X182628274Y-82621006D01*
X181662577Y-82935084D01*
X180615554Y-83214330D01*
X180027049Y-83348110D01*
X179853181Y-83380293D01*
X179740907Y-83382626D01*
X179654149Y-83353242D01*
X179609737Y-83326513D01*
X179510728Y-83266964D01*
X179454787Y-83242800D01*
X179444849Y-83290513D01*
X179436540Y-83421313D01*
X179430593Y-83616690D01*
X179427743Y-83858135D01*
X179427600Y-83928600D01*
X179425992Y-84209589D01*
X179420074Y-84403801D01*
X179408203Y-84526022D01*
X179388735Y-84591040D01*
X179360028Y-84613643D01*
X179351400Y-84614400D01*
X179324164Y-84601217D01*
X179303644Y-84553205D01*
X179288677Y-84457670D01*
X179278105Y-84301915D01*
X179270765Y-84073246D01*
X179265498Y-83758967D01*
X179264328Y-83661900D01*
X179260312Y-83242927D01*
X179259468Y-82910520D01*
X179262603Y-82649673D01*
X179267968Y-82511265D01*
X179732400Y-82511265D01*
X179746842Y-82726730D01*
X179795533Y-82849870D01*
X179886518Y-82884437D01*
X180027844Y-82834179D01*
X180182202Y-82734800D01*
X180556862Y-82734800D01*
X180631301Y-82721837D01*
X180782385Y-82686432D01*
X180988998Y-82633805D01*
X181230024Y-82569178D01*
X181260440Y-82560813D01*
X182166161Y-82283503D01*
X183007666Y-81969849D01*
X183779135Y-81623063D01*
X184474744Y-81246354D01*
X185088672Y-80842934D01*
X185615096Y-80416011D01*
X186048194Y-79968796D01*
X186119529Y-79881699D01*
X186500452Y-79337118D01*
X186784712Y-78779504D01*
X186977223Y-78198119D01*
X187047660Y-77852744D01*
X187074151Y-77627604D01*
X187072135Y-77421451D01*
X187036679Y-77210665D01*
X186962850Y-76971622D01*
X186845712Y-76680703D01*
X186764777Y-76498272D01*
X186653665Y-76267064D01*
X186559585Y-76115591D01*
X186465867Y-76027742D01*
X186355843Y-75987402D01*
X186226971Y-75978400D01*
X186072387Y-75991273D01*
X185900561Y-76032720D01*
X185704302Y-76106979D01*
X185476423Y-76218290D01*
X185209733Y-76370891D01*
X184897044Y-76569023D01*
X184531166Y-76816923D01*
X184104911Y-77118832D01*
X183611089Y-77478988D01*
X183333277Y-77684699D01*
X183004268Y-77928331D01*
X182695646Y-78155008D01*
X182418312Y-78356865D01*
X182183164Y-78526041D01*
X182001102Y-78654672D01*
X181883025Y-78734896D01*
X181847780Y-78756342D01*
X181702560Y-78831517D01*
X181831848Y-78967058D01*
X181937071Y-79101827D01*
X182013361Y-79240932D01*
X182015168Y-79245607D01*
X182039392Y-79365641D01*
X182056686Y-79564003D01*
X182067242Y-79818458D01*
X182071253Y-80106767D01*
X182068914Y-80406697D01*
X182060416Y-80696010D01*
X182045953Y-80952471D01*
X182025719Y-81153843D01*
X181999907Y-81277890D01*
X181997452Y-81284179D01*
X181904639Y-81436189D01*
X181737876Y-81634423D01*
X181507499Y-81868368D01*
X181223842Y-82127513D01*
X180906216Y-82394106D01*
X180742308Y-82531447D01*
X180621813Y-82642297D01*
X180557683Y-82714024D01*
X180556862Y-82734800D01*
X180182202Y-82734800D01*
X180194678Y-82726768D01*
X180442928Y-82541120D01*
X180709974Y-82328812D01*
X180977752Y-82105464D01*
X181228198Y-81886691D01*
X181443247Y-81688111D01*
X181604836Y-81525341D01*
X181665888Y-81454836D01*
X181866000Y-81201676D01*
X181866000Y-79980656D01*
X181553526Y-80269951D01*
X181386124Y-80418215D01*
X181166904Y-80602920D01*
X180925371Y-80799607D01*
X180709690Y-80969443D01*
X180494510Y-81142451D01*
X180295945Y-81314538D01*
X180135410Y-81466344D01*
X180034319Y-81578510D01*
X180031063Y-81582932D01*
X179877719Y-81860289D01*
X179772753Y-82183456D01*
X179732440Y-82501851D01*
X179732400Y-82511265D01*
X179267968Y-82511265D01*
X179270523Y-82445380D01*
X179284034Y-82282635D01*
X179303943Y-82146431D01*
X179331056Y-82021762D01*
X179357790Y-81922644D01*
X179421511Y-81723651D01*
X179497044Y-81547357D01*
X179594632Y-81381976D01*
X179724518Y-81215723D01*
X179896946Y-81036812D01*
X180122158Y-80833457D01*
X180410399Y-80593872D01*
X180742593Y-80329325D01*
X181073147Y-80058967D01*
X181317556Y-79834113D01*
X181478130Y-79650278D01*
X181557176Y-79502979D01*
X181557004Y-79387732D01*
X181479922Y-79300054D01*
X181328238Y-79235461D01*
X181308627Y-79229984D01*
X181097448Y-79203742D01*
X180820430Y-79222945D01*
X180470830Y-79288665D01*
X180041903Y-79401976D01*
X179834000Y-79464789D01*
X179587057Y-79542758D01*
X179381326Y-79613087D01*
X179203468Y-79684579D01*
X179040144Y-79766033D01*
X178878015Y-79866251D01*
X178703744Y-79994033D01*
X178503990Y-80158181D01*
X178265416Y-80367495D01*
X177974684Y-80630776D01*
X177736319Y-80848849D01*
X177315788Y-81228313D01*
X176955669Y-81539316D01*
X176647039Y-81787664D01*
X176380978Y-81979161D01*
X176148565Y-82119614D01*
X175940879Y-82214829D01*
X175748997Y-82270610D01*
X175564000Y-82292763D01*
X175516000Y-82293731D01*
X175151696Y-82246197D01*
X174820513Y-82102656D01*
X174522655Y-81863219D01*
X174340714Y-81647678D01*
X174195200Y-81449556D01*
X174195200Y-82325011D01*
X174193565Y-82655910D01*
X174188128Y-82896038D01*
X174178085Y-83056182D01*
X174162636Y-83147126D01*
X174140978Y-83179657D01*
X174131700Y-83179210D01*
X174112496Y-83149553D01*
X174097273Y-83069094D01*
X174085670Y-82929195D01*
X174077324Y-82721220D01*
X174071874Y-82436531D01*
X174068957Y-82066493D01*
X174068200Y-81663677D01*
X174068200Y-81320072D01*
X174776964Y-81320072D01*
X174788576Y-81445322D01*
X174895125Y-81579045D01*
X175091092Y-81714523D01*
X175109546Y-81724735D01*
X175359588Y-81808844D01*
X175631442Y-81798487D01*
X175929109Y-81693026D01*
X176161871Y-81557709D01*
X176330588Y-81435598D01*
X176547007Y-81264551D01*
X176785264Y-81065708D01*
X177019497Y-80860208D01*
X177058146Y-80825136D01*
X177460971Y-80458336D01*
X177799621Y-80153351D01*
X178084546Y-79903046D01*
X178326196Y-79700290D01*
X178535024Y-79537950D01*
X178721478Y-79408895D01*
X178896011Y-79305990D01*
X179069071Y-79222104D01*
X179251111Y-79150105D01*
X179452579Y-79082860D01*
X179683928Y-79013236D01*
X179734709Y-78998396D01*
X180394604Y-78806000D01*
X180391030Y-77496728D01*
X180390498Y-77166449D01*
X180545200Y-77166449D01*
X180545200Y-78753230D01*
X181052712Y-78745192D01*
X181560224Y-78737155D01*
X181929012Y-78492053D01*
X182076289Y-78390511D01*
X182287602Y-78239810D01*
X182546076Y-78052239D01*
X182834836Y-77840091D01*
X183137008Y-77615655D01*
X183302874Y-77491380D01*
X183877059Y-77065944D01*
X184381676Y-76706368D01*
X184822324Y-76410150D01*
X185204599Y-76174790D01*
X185534096Y-75997788D01*
X185816414Y-75876644D01*
X186057149Y-75808856D01*
X186261897Y-75791925D01*
X186436255Y-75823350D01*
X186585820Y-75900630D01*
X186680434Y-75982379D01*
X186793688Y-76076268D01*
X186876909Y-76088708D01*
X186895756Y-76079655D01*
X186932571Y-76043200D01*
X186942310Y-75979740D01*
X186924077Y-75865334D01*
X186881206Y-75692152D01*
X186816863Y-75481137D01*
X186725997Y-75225724D01*
X186625702Y-74973274D01*
X186600812Y-74915381D01*
X186503060Y-74702441D01*
X186427813Y-74567758D01*
X186363069Y-74494028D01*
X186296825Y-74463946D01*
X186286485Y-74462195D01*
X186157243Y-74459603D01*
X186009098Y-74489361D01*
X185835779Y-74555614D01*
X185631015Y-74662505D01*
X185388534Y-74814180D01*
X185102067Y-75014783D01*
X184765343Y-75268458D01*
X184372090Y-75579351D01*
X183916038Y-75951604D01*
X183466200Y-76326181D01*
X183035961Y-76683110D01*
X182671432Y-76976200D01*
X182364055Y-77210941D01*
X182105272Y-77392827D01*
X181886528Y-77527350D01*
X181699264Y-77620003D01*
X181534922Y-77676277D01*
X181384947Y-77701666D01*
X181318820Y-77704484D01*
X181198034Y-77697409D01*
X181098175Y-77664366D01*
X180990543Y-77589798D01*
X180846436Y-77458148D01*
X180823520Y-77436024D01*
X180545200Y-77166449D01*
X180390498Y-77166449D01*
X180390382Y-77094778D01*
X180391529Y-76780438D01*
X180395421Y-76539721D01*
X180399182Y-76449931D01*
X180851115Y-76449931D01*
X180878238Y-76625574D01*
X180951640Y-76817007D01*
X181055600Y-76999081D01*
X181174396Y-77146653D01*
X181292306Y-77234576D01*
X181350341Y-77248400D01*
X181434785Y-77224149D01*
X181568762Y-77162121D01*
X181658336Y-77113088D01*
X181792584Y-77030875D01*
X181941939Y-76930090D01*
X182116071Y-76803237D01*
X182324647Y-76642817D01*
X182577338Y-76441333D01*
X182883812Y-76191285D01*
X183253739Y-75885177D01*
X183415588Y-75750405D01*
X183696615Y-75517601D01*
X183971748Y-75292448D01*
X184224737Y-75088038D01*
X184439330Y-74917463D01*
X184599277Y-74793814D01*
X184646008Y-74759200D01*
X184961838Y-74530600D01*
X184960331Y-73362200D01*
X184958835Y-72980336D01*
X184955111Y-72691029D01*
X184948636Y-72485251D01*
X184938889Y-72353974D01*
X184925347Y-72288167D01*
X184907488Y-72278804D01*
X184898312Y-72289945D01*
X184617665Y-72698722D01*
X184281478Y-73127193D01*
X183903780Y-73561627D01*
X183498603Y-73988297D01*
X183079977Y-74393474D01*
X182661933Y-74763429D01*
X182258501Y-75084433D01*
X181883713Y-75342756D01*
X181631941Y-75486056D01*
X181306659Y-75687060D01*
X181064094Y-75916545D01*
X180910347Y-76166979D01*
X180851523Y-76430828D01*
X180851115Y-76449931D01*
X180399182Y-76449931D01*
X180403007Y-76358641D01*
X180415236Y-76223211D01*
X180433057Y-76119443D01*
X180457420Y-76033352D01*
X180489273Y-75950951D01*
X180497191Y-75932369D01*
X180654788Y-75671097D01*
X180890921Y-75417315D01*
X181183470Y-75192311D01*
X181389673Y-75073455D01*
X181585915Y-74963810D01*
X181812446Y-74821919D01*
X182018400Y-74679799D01*
X182216757Y-74521205D01*
X182464129Y-74303973D01*
X182742446Y-74045771D01*
X183033641Y-73764267D01*
X183319647Y-73477127D01*
X183582394Y-73202022D01*
X183803814Y-72956617D01*
X183910114Y-72829989D01*
X184216470Y-72450179D01*
X183824200Y-72080134D01*
X183542178Y-71833859D01*
X183217046Y-71582623D01*
X182866266Y-71337149D01*
X182507303Y-71108161D01*
X182157618Y-70906381D01*
X181834675Y-70742534D01*
X181555937Y-70627342D01*
X181377323Y-70577580D01*
X181322277Y-70571252D01*
X181265228Y-70577538D01*
X181198583Y-70602643D01*
X181114743Y-70652777D01*
X181006113Y-70734145D01*
X180865098Y-70852955D01*
X180684100Y-71015416D01*
X180455525Y-71227735D01*
X180171775Y-71496118D01*
X179825256Y-71826775D01*
X179688123Y-71957997D01*
X179409364Y-72224779D01*
X179140978Y-72481502D01*
X178895866Y-72715836D01*
X178686931Y-72915449D01*
X178527073Y-73068011D01*
X178437000Y-73153781D01*
X178306101Y-73278839D01*
X178245700Y-73341116D01*
X178252577Y-73347746D01*
X178323510Y-73305862D01*
X178386200Y-73266290D01*
X178718759Y-73092615D01*
X179027055Y-73012573D01*
X179323091Y-73024893D01*
X179618868Y-73128301D01*
X179630800Y-73134282D01*
X179776513Y-73215606D01*
X179890673Y-73303248D01*
X179976696Y-73409962D01*
X180037999Y-73548505D01*
X180077998Y-73731632D01*
X180100111Y-73972100D01*
X180107753Y-74282664D01*
X180104342Y-74676079D01*
X180100051Y-74886200D01*
X180074826Y-76003800D01*
X177441956Y-78611332D01*
X177011529Y-79038549D01*
X176602124Y-79446708D01*
X176219518Y-79829940D01*
X175869486Y-80182372D01*
X175557805Y-80498136D01*
X175290249Y-80771360D01*
X175072595Y-80996173D01*
X174910619Y-81166706D01*
X174810095Y-81277087D01*
X174776964Y-81320072D01*
X174068200Y-81320072D01*
X174068200Y-80800241D01*
X174522970Y-80800241D01*
X174546755Y-80944100D01*
X174584333Y-81073836D01*
X174610773Y-81149949D01*
X174616258Y-81158441D01*
X174653184Y-81123364D01*
X174756626Y-81022372D01*
X174920920Y-80861055D01*
X175140401Y-80644999D01*
X175409405Y-80379792D01*
X175722267Y-80071022D01*
X176073323Y-79724277D01*
X176456907Y-79345144D01*
X176867356Y-78939210D01*
X177281348Y-78529541D01*
X179935697Y-75902200D01*
X179935648Y-75256263D01*
X179935600Y-74610326D01*
X179491100Y-75074446D01*
X179350028Y-75219367D01*
X179147989Y-75423565D01*
X178896718Y-75675345D01*
X178607949Y-75963014D01*
X178293418Y-76274876D01*
X177964860Y-76599239D01*
X177675000Y-76884206D01*
X177071133Y-77478252D01*
X176539537Y-78004674D01*
X176078382Y-78465358D01*
X175685840Y-78862191D01*
X175360081Y-79197060D01*
X175099275Y-79471851D01*
X174901593Y-79688451D01*
X174765206Y-79848745D01*
X174688284Y-79954622D01*
X174676157Y-79976836D01*
X174581234Y-80242220D01*
X174528359Y-80530236D01*
X174522970Y-80800241D01*
X174068200Y-80800241D01*
X174068200Y-80169400D01*
X174235897Y-79815246D01*
X174271834Y-79743208D01*
X174313506Y-79670495D01*
X174366227Y-79591467D01*
X174435311Y-79500485D01*
X174526073Y-79391909D01*
X174643827Y-79260101D01*
X174793886Y-79099419D01*
X174981565Y-78904226D01*
X175212178Y-78668882D01*
X175491040Y-78387748D01*
X175823464Y-78055184D01*
X176214765Y-77665550D01*
X176670257Y-77213208D01*
X176940586Y-76945046D01*
X177456763Y-76432719D01*
X177905091Y-75986360D01*
X178290148Y-75600686D01*
X178616511Y-75270412D01*
X178888759Y-74990255D01*
X179111469Y-74754931D01*
X179289219Y-74559155D01*
X179426588Y-74397643D01*
X179528152Y-74265113D01*
X179598491Y-74156278D01*
X179642180Y-74065857D01*
X179663800Y-73988564D01*
X179667926Y-73919116D01*
X179659138Y-73852229D01*
X179650957Y-73816599D01*
X179570329Y-73680567D01*
X179421190Y-73568138D01*
X179236592Y-73500210D01*
X179133476Y-73489389D01*
X179037726Y-73496786D01*
X178934043Y-73522303D01*
X178816308Y-73570611D01*
X178678400Y-73646383D01*
X178514201Y-73754290D01*
X178317590Y-73899004D01*
X178082449Y-74085195D01*
X177802657Y-74317536D01*
X177472094Y-74600699D01*
X177084642Y-74939353D01*
X176634179Y-75338172D01*
X176174980Y-75747807D01*
X175599276Y-76261755D01*
X175092253Y-76711977D01*
X174647601Y-77103294D01*
X174259008Y-77440527D01*
X173920164Y-77728499D01*
X173624759Y-77972031D01*
X173366481Y-78175945D01*
X173139020Y-78345060D01*
X172936065Y-78484201D01*
X172751306Y-78598187D01*
X172578431Y-78691840D01*
X172411130Y-78769982D01*
X172243093Y-78837435D01*
X172068008Y-78899019D01*
X172037035Y-78909269D01*
X171642911Y-79004261D01*
X171222049Y-79046087D01*
X170807868Y-79034324D01*
X170433788Y-78968548D01*
X170314097Y-78931107D01*
X169951992Y-78777140D01*
X169598964Y-78575599D01*
X169245650Y-78318518D01*
X168882688Y-77997930D01*
X168500717Y-77605870D01*
X168090375Y-77134369D01*
X167837538Y-76823681D01*
X167375295Y-76243960D01*
X167981262Y-76243960D01*
X167982538Y-76245803D01*
X168473065Y-76867227D01*
X168941236Y-77390820D01*
X169388190Y-77817597D01*
X169815067Y-78148573D01*
X170223004Y-78384762D01*
X170509513Y-78497917D01*
X170734748Y-78542613D01*
X171019541Y-78562600D01*
X171324984Y-78558194D01*
X171612164Y-78529712D01*
X171811079Y-78487334D01*
X171988609Y-78430286D01*
X172161717Y-78363798D01*
X172336917Y-78282939D01*
X172520724Y-78182773D01*
X172719652Y-78058369D01*
X172940217Y-77904791D01*
X173188931Y-77717108D01*
X173472311Y-77490385D01*
X173796870Y-77219688D01*
X174169123Y-76900086D01*
X174595585Y-76526643D01*
X175082771Y-76094427D01*
X175637193Y-75598504D01*
X175699183Y-75542886D01*
X176067065Y-75212663D01*
X176363650Y-74945819D01*
X176593222Y-74737838D01*
X176760063Y-74584202D01*
X176868458Y-74480391D01*
X176922690Y-74421889D01*
X176927042Y-74404178D01*
X176885798Y-74422739D01*
X176803242Y-74473055D01*
X176683657Y-74550608D01*
X176567507Y-74627051D01*
X176005885Y-74956039D01*
X175437983Y-75210057D01*
X174878249Y-75384001D01*
X174341130Y-75472767D01*
X174144400Y-75483132D01*
X173807829Y-75469549D01*
X173549491Y-75411345D01*
X173354192Y-75303828D01*
X173257062Y-75209111D01*
X173212856Y-75154107D01*
X173180149Y-75098961D01*
X173157208Y-75028303D01*
X173142303Y-74926764D01*
X173133700Y-74778974D01*
X173129668Y-74569563D01*
X173128500Y-74289300D01*
X173281548Y-74289300D01*
X173286752Y-74598330D01*
X173305351Y-74824064D01*
X173343168Y-74984525D01*
X173406025Y-75097735D01*
X173499748Y-75181714D01*
X173586306Y-75232483D01*
X173775021Y-75289587D01*
X174035381Y-75310349D01*
X174344686Y-75296134D01*
X174680237Y-75248307D01*
X175019336Y-75168232D01*
X175109600Y-75140927D01*
X175436587Y-75023926D01*
X175766786Y-74878130D01*
X176106729Y-74698636D01*
X176462946Y-74480540D01*
X176841971Y-74218940D01*
X177250333Y-73908932D01*
X177694564Y-73545613D01*
X178181197Y-73124080D01*
X178716762Y-72639431D01*
X179307791Y-72086762D01*
X179783200Y-71632558D01*
X180134173Y-71296062D01*
X180421045Y-71024639D01*
X180651722Y-70811686D01*
X180834111Y-70650603D01*
X180976118Y-70534787D01*
X181085652Y-70457636D01*
X181170619Y-70412549D01*
X181238925Y-70392924D01*
X181270702Y-70390589D01*
X181475399Y-70422661D01*
X181741287Y-70513861D01*
X182053815Y-70655599D01*
X182398432Y-70839286D01*
X182760586Y-71056333D01*
X183125726Y-71298151D01*
X183479301Y-71556150D01*
X183806759Y-71821740D01*
X184016852Y-72011571D01*
X184173394Y-72156926D01*
X184279784Y-72229743D01*
X184358861Y-72225903D01*
X184433462Y-72141289D01*
X184526425Y-71971785D01*
X184555858Y-71914400D01*
X184641234Y-71738880D01*
X184678587Y-71612437D01*
X184662507Y-71505355D01*
X184587586Y-71387918D01*
X184448415Y-71230409D01*
X184427184Y-71207452D01*
X184196853Y-70977609D01*
X183917427Y-70729246D01*
X183601504Y-70470902D01*
X183261678Y-70211118D01*
X182910545Y-69958433D01*
X182560701Y-69721386D01*
X182224741Y-69508517D01*
X181915262Y-69328366D01*
X181644858Y-69189471D01*
X181426126Y-69100373D01*
X181273889Y-69069600D01*
X181240722Y-69070093D01*
X181207963Y-69075692D01*
X181168626Y-69092577D01*
X181115726Y-69126928D01*
X181042278Y-69184924D01*
X180941295Y-69272747D01*
X180805794Y-69396575D01*
X180628787Y-69562588D01*
X180403291Y-69776967D01*
X180122318Y-70045892D01*
X179778886Y-70375541D01*
X179558923Y-70586815D01*
X178869310Y-71236169D01*
X178235561Y-71805414D01*
X177654419Y-72297066D01*
X177122626Y-72713643D01*
X176636925Y-73057662D01*
X176194060Y-73331642D01*
X175790773Y-73538099D01*
X175677090Y-73587216D01*
X175180132Y-73766691D01*
X174715953Y-73883805D01*
X174294774Y-73937437D01*
X173926815Y-73926468D01*
X173622299Y-73849778D01*
X173556109Y-73819612D01*
X173416739Y-73749936D01*
X173320549Y-73703794D01*
X173293500Y-73692612D01*
X173288608Y-73740018D01*
X173284722Y-73869191D01*
X173282238Y-74060300D01*
X173281548Y-74289300D01*
X173128500Y-74289300D01*
X173128474Y-74283164D01*
X173128400Y-74067478D01*
X173129893Y-73686958D01*
X173138192Y-73389775D01*
X173151237Y-73244433D01*
X173616489Y-73244433D01*
X173644328Y-73320953D01*
X173797954Y-73428614D01*
X174028646Y-73480387D01*
X174328151Y-73475550D01*
X174688214Y-73413377D01*
X174690777Y-73412773D01*
X175053060Y-73312655D01*
X175410483Y-73181844D01*
X175771655Y-73014652D01*
X176145181Y-72805396D01*
X176539669Y-72548387D01*
X176963724Y-72237942D01*
X177425954Y-71868373D01*
X177934964Y-71433995D01*
X178499362Y-70929122D01*
X178627500Y-70811986D01*
X179376800Y-70124739D01*
X179376800Y-68133692D01*
X179068707Y-68639746D01*
X178947810Y-68835518D01*
X178836671Y-69004701D01*
X178725891Y-69155311D01*
X178606073Y-69295365D01*
X178467816Y-69432879D01*
X178301722Y-69575869D01*
X178098392Y-69732352D01*
X177848428Y-69910345D01*
X177542430Y-70117865D01*
X177171000Y-70362927D01*
X176724738Y-70653548D01*
X176653236Y-70699962D01*
X176304470Y-70927919D01*
X175956677Y-71158178D01*
X175626780Y-71379317D01*
X175331705Y-71579916D01*
X175088376Y-71748554D01*
X174913957Y-71873632D01*
X174533640Y-72168330D01*
X174212322Y-72444093D01*
X173954976Y-72695254D01*
X173766573Y-72916143D01*
X173652087Y-73101092D01*
X173616489Y-73244433D01*
X173151237Y-73244433D01*
X173159025Y-73157670D01*
X173198118Y-72972386D01*
X173261199Y-72815664D01*
X173353997Y-72669248D01*
X173482238Y-72514879D01*
X173651650Y-72334299D01*
X173682003Y-72302746D01*
X173831855Y-72153105D01*
X173995561Y-72002743D01*
X174181812Y-71845262D01*
X174399300Y-71674269D01*
X174656717Y-71483367D01*
X174962755Y-71266162D01*
X175326106Y-71016257D01*
X175755460Y-70727258D01*
X176259510Y-70392769D01*
X176435090Y-70276999D01*
X176794195Y-70039107D01*
X177134295Y-69811148D01*
X177443985Y-69600966D01*
X177711860Y-69416406D01*
X177926512Y-69265313D01*
X178076538Y-69155531D01*
X178142328Y-69102753D01*
X178259665Y-68976598D01*
X178403463Y-68792700D01*
X178550355Y-68581860D01*
X178616869Y-68477252D01*
X178887462Y-68036005D01*
X178678542Y-67850605D01*
X178344959Y-67607953D01*
X177920103Y-67388432D01*
X177412391Y-67195578D01*
X176830243Y-67032926D01*
X176618070Y-66985389D01*
X176279307Y-66925911D01*
X175958874Y-66898289D01*
X175645179Y-66905958D01*
X175326629Y-66952350D01*
X174991631Y-67040899D01*
X174628595Y-67175036D01*
X174225926Y-67358195D01*
X173772033Y-67593809D01*
X173255324Y-67885312D01*
X172927238Y-68078393D01*
X172635382Y-68250784D01*
X172337768Y-68424205D01*
X172059857Y-68583981D01*
X171827109Y-68715436D01*
X171713020Y-68778247D01*
X171288241Y-69008123D01*
X172119420Y-69026591D01*
X172438887Y-69035076D01*
X172675844Y-69045790D01*
X172849381Y-69061091D01*
X172978589Y-69083340D01*
X173082558Y-69114894D01*
X173179200Y-69157531D01*
X173298604Y-69219292D01*
X173389320Y-69281167D01*
X173455127Y-69357310D01*
X173499800Y-69461878D01*
X173527118Y-69609029D01*
X173540856Y-69812917D01*
X173544793Y-70087699D01*
X173542704Y-70447532D01*
X173542030Y-70517400D01*
X173532045Y-71533400D01*
X173368322Y-71678610D01*
X173289599Y-71743009D01*
X173140204Y-71860103D01*
X172930812Y-72021718D01*
X172672097Y-72219679D01*
X172374736Y-72445812D01*
X172049404Y-72691943D01*
X171782200Y-72893219D01*
X171318943Y-73242011D01*
X170926172Y-73539122D01*
X170592754Y-73793382D01*
X170307558Y-74013618D01*
X170059453Y-74208659D01*
X169837306Y-74387334D01*
X169629988Y-74558472D01*
X169426365Y-74730900D01*
X169215307Y-74913447D01*
X169028667Y-75077069D01*
X168707965Y-75367368D01*
X168437933Y-75628037D01*
X168224408Y-75852553D01*
X168073229Y-76034394D01*
X167990234Y-76167038D01*
X167981262Y-76243960D01*
X167375295Y-76243960D01*
X167235600Y-76068763D01*
X167235600Y-78026146D01*
X167129647Y-77930261D01*
X167097030Y-77897209D01*
X167072120Y-77856139D01*
X167054096Y-77794413D01*
X167042136Y-77699396D01*
X167035418Y-77558450D01*
X167033120Y-77358941D01*
X167034420Y-77088231D01*
X167038496Y-76733684D01*
X167040747Y-76563487D01*
X167054255Y-75556772D01*
X167553178Y-75556772D01*
X167599867Y-75740752D01*
X167696872Y-75895839D01*
X167804752Y-76032986D01*
X168305011Y-75526037D01*
X168538324Y-75297828D01*
X168818328Y-75036560D01*
X169112102Y-74772302D01*
X169386730Y-74535122D01*
X169423737Y-74504157D01*
X169624556Y-74340604D01*
X169890499Y-74129498D01*
X170204994Y-73883691D01*
X170551472Y-73616035D01*
X170913361Y-73339383D01*
X171274092Y-73066586D01*
X171369402Y-72995064D01*
X171708855Y-72740142D01*
X172038296Y-72491531D01*
X172344590Y-72259234D01*
X172614600Y-72053253D01*
X172835192Y-71883592D01*
X172993229Y-71760253D01*
X173039500Y-71723288D01*
X173382400Y-71445672D01*
X173382400Y-70133804D01*
X173039500Y-70424715D01*
X172910812Y-70529576D01*
X172714064Y-70684293D01*
X172462933Y-70878375D01*
X172171098Y-71101333D01*
X171852237Y-71342678D01*
X171520028Y-71591921D01*
X171426600Y-71661607D01*
X170749883Y-72170839D01*
X170154274Y-72630445D01*
X169634813Y-73044790D01*
X169186543Y-73418243D01*
X168804506Y-73755171D01*
X168483745Y-74059940D01*
X168219299Y-74336919D01*
X168006213Y-74590474D01*
X167845040Y-74816408D01*
X167673699Y-75109644D01*
X167577100Y-75351417D01*
X167553178Y-75556772D01*
X167054255Y-75556772D01*
X167057800Y-75292600D01*
X167214636Y-74962400D01*
X167340077Y-74724248D01*
X167493331Y-74483813D01*
X167680012Y-74235843D01*
X167905735Y-73975086D01*
X168176111Y-73696290D01*
X168496755Y-73394204D01*
X168873281Y-73063577D01*
X169311301Y-72699155D01*
X169816430Y-72295689D01*
X170394280Y-71847926D01*
X171050465Y-71350615D01*
X171175923Y-71256487D01*
X171644221Y-70904210D01*
X172035431Y-70606630D01*
X172355026Y-70359236D01*
X172608479Y-70157515D01*
X172801266Y-69996955D01*
X172938860Y-69873042D01*
X173026735Y-69781265D01*
X173070366Y-69717111D01*
X173077600Y-69688853D01*
X173058327Y-69626103D01*
X172993510Y-69578284D01*
X172872648Y-69543674D01*
X172685242Y-69520554D01*
X172420793Y-69507204D01*
X172068801Y-69501904D01*
X171934600Y-69501628D01*
X171359218Y-69511459D01*
X170876945Y-69541208D01*
X170481096Y-69591727D01*
X170164983Y-69663867D01*
X169923185Y-69757839D01*
X169765862Y-69848010D01*
X169580742Y-69974716D01*
X169360644Y-70143924D01*
X169098387Y-70361602D01*
X168786790Y-70633716D01*
X168418672Y-70966232D01*
X167986851Y-71365118D01*
X167970564Y-71380291D01*
X167500808Y-71811910D01*
X167093114Y-72172441D01*
X166741291Y-72466056D01*
X166439151Y-72696928D01*
X166180503Y-72869232D01*
X165959159Y-72987140D01*
X165768927Y-73054825D01*
X165603618Y-73076460D01*
X165476958Y-73061488D01*
X165370559Y-73007003D01*
X165222622Y-72893981D01*
X165057336Y-72741365D01*
X165021463Y-72704789D01*
X164721489Y-72328425D01*
X164459011Y-71863509D01*
X164237894Y-71317361D01*
X164161425Y-71076200D01*
X164097361Y-70863289D01*
X164039280Y-70678544D01*
X163996142Y-70550128D01*
X163983645Y-70517400D01*
X163972959Y-70540790D01*
X163963112Y-70656970D01*
X163954354Y-70857131D01*
X163946933Y-71132463D01*
X163941100Y-71474157D01*
X163937103Y-71873405D01*
X163935422Y-72219200D01*
X163933754Y-72695468D01*
X163931405Y-73079143D01*
X163927938Y-73379229D01*
X163922917Y-73604731D01*
X163915906Y-73764656D01*
X163906469Y-73868009D01*
X163894168Y-73923795D01*
X163878568Y-73941020D01*
X163859232Y-73928689D01*
X163852963Y-73921000D01*
X163834170Y-73845448D01*
X163818444Y-73679988D01*
X163805701Y-73436260D01*
X163795856Y-73125909D01*
X163788824Y-72760574D01*
X163784523Y-72351900D01*
X163782866Y-71911527D01*
X163783770Y-71451099D01*
X163787151Y-70982257D01*
X163792924Y-70516643D01*
X163801005Y-70065900D01*
X163810046Y-69693691D01*
X164326318Y-69693691D01*
X164390766Y-70054745D01*
X164510874Y-70601313D01*
X164668111Y-71117918D01*
X164855504Y-71587483D01*
X165066078Y-71992931D01*
X165292860Y-72317186D01*
X165334041Y-72364697D01*
X165472419Y-72510229D01*
X165578347Y-72583983D01*
X165683598Y-72592907D01*
X165819946Y-72543948D01*
X165922610Y-72493388D01*
X166065898Y-72405329D01*
X166261232Y-72259549D01*
X166512333Y-72052891D01*
X166822925Y-71782198D01*
X167196732Y-71444312D01*
X167602123Y-71069104D01*
X167882069Y-70809904D01*
X168164394Y-70552382D01*
X168431944Y-70311902D01*
X168667565Y-70103831D01*
X168854102Y-69943533D01*
X168915998Y-69892266D01*
X169329951Y-69555624D01*
X169006675Y-69495519D01*
X168601925Y-69395989D01*
X168254311Y-69261377D01*
X167976412Y-69098297D01*
X167780805Y-68913359D01*
X167720085Y-68819246D01*
X167692263Y-68740017D01*
X167671279Y-68615783D01*
X167656214Y-68433700D01*
X167646149Y-68180923D01*
X167640163Y-67844606D01*
X167638696Y-67682503D01*
X167638467Y-67382675D01*
X167794400Y-67382675D01*
X167794400Y-68019039D01*
X167795412Y-68284922D01*
X167800799Y-68470177D01*
X167814084Y-68595776D01*
X167838791Y-68682688D01*
X167878444Y-68751884D01*
X167928017Y-68814199D01*
X168116662Y-68979854D01*
X168379885Y-69129305D01*
X168690693Y-69248831D01*
X168881611Y-69298924D01*
X169185132Y-69352989D01*
X169428159Y-69364759D01*
X169642930Y-69333454D01*
X169817499Y-69276308D01*
X170010341Y-69212152D01*
X170241797Y-69151423D01*
X170390879Y-69120461D01*
X170648607Y-69053404D01*
X170966844Y-68932350D01*
X171349826Y-68755269D01*
X171801791Y-68520132D01*
X172326978Y-68224910D01*
X172621378Y-68052339D01*
X173156784Y-67739219D01*
X173620058Y-67479118D01*
X174022649Y-67267290D01*
X174376009Y-67098992D01*
X174691588Y-66969479D01*
X174980835Y-66874006D01*
X175255200Y-66807830D01*
X175526135Y-66766205D01*
X175774229Y-66745934D01*
X175997261Y-66737635D01*
X176185019Y-66742047D01*
X176369783Y-66762999D01*
X176583829Y-66804318D01*
X176859438Y-66869836D01*
X176896325Y-66879041D01*
X177375505Y-67008406D01*
X177772850Y-67138517D01*
X178107835Y-67277814D01*
X178399934Y-67434739D01*
X178668621Y-67617733D01*
X178754472Y-67684483D01*
X178970345Y-67857157D01*
X179024774Y-67714078D01*
X179069152Y-67507778D01*
X179075019Y-67259389D01*
X179044145Y-67018203D01*
X178994233Y-66863674D01*
X178799163Y-66560728D01*
X178516324Y-66277445D01*
X178159164Y-66024701D01*
X177741135Y-65813372D01*
X177649600Y-65776330D01*
X177325700Y-65664093D01*
X176959303Y-65559035D01*
X176586464Y-65469970D01*
X176243238Y-65405711D01*
X176023159Y-65378788D01*
X175735355Y-65373920D01*
X175434179Y-65407673D01*
X175109868Y-65483729D01*
X174752659Y-65605770D01*
X174352789Y-65777478D01*
X173900495Y-66002535D01*
X173386014Y-66284622D01*
X172950600Y-66537528D01*
X172433318Y-66840501D01*
X171988237Y-67093226D01*
X171602885Y-67301610D01*
X171264787Y-67471555D01*
X170961471Y-67608966D01*
X170680464Y-67719747D01*
X170409293Y-67809803D01*
X170135485Y-67885037D01*
X170070108Y-67901037D01*
X169571135Y-67982415D01*
X169099400Y-67983831D01*
X168666094Y-67907183D01*
X168282407Y-67754368D01*
X167981205Y-67546692D01*
X167794400Y-67382675D01*
X167638467Y-67382675D01*
X167638458Y-67371886D01*
X167642042Y-67094011D01*
X167648687Y-66873519D01*
X168099200Y-66873519D01*
X168148646Y-67038172D01*
X168291608Y-67193979D01*
X168520022Y-67334054D01*
X168745818Y-67425756D01*
X169025280Y-67504818D01*
X169284500Y-67537124D01*
X169558362Y-67523293D01*
X169881750Y-67463943D01*
X169953400Y-67447156D01*
X170495844Y-67281297D01*
X171085374Y-67032861D01*
X171725383Y-66700388D01*
X171844767Y-66632336D01*
X172109648Y-66479426D01*
X172428186Y-66295519D01*
X172766053Y-66100434D01*
X173088927Y-65913989D01*
X173192865Y-65853965D01*
X173756000Y-65543387D01*
X174257733Y-65299263D01*
X174709712Y-65117434D01*
X175123587Y-64993744D01*
X175511007Y-64924033D01*
X175854326Y-64904000D01*
X176227200Y-64904000D01*
X176227200Y-62578897D01*
X176045984Y-62744884D01*
X175854241Y-62889289D01*
X175572220Y-63056226D01*
X175207779Y-63241926D01*
X174768777Y-63442624D01*
X174263074Y-63654552D01*
X173698528Y-63873943D01*
X173661800Y-63887693D01*
X172847802Y-64195550D01*
X172122929Y-64478018D01*
X171478942Y-64738743D01*
X170907603Y-64981367D01*
X170400673Y-65209536D01*
X169949913Y-65426892D01*
X169547084Y-65637081D01*
X169183948Y-65843745D01*
X169035967Y-65933664D01*
X168726368Y-66142669D01*
X168467409Y-66351729D01*
X168269573Y-66550326D01*
X168143343Y-66727943D01*
X168099200Y-66873519D01*
X167648687Y-66873519D01*
X167648924Y-66865673D01*
X167658581Y-66703666D01*
X167670488Y-66624784D01*
X167671772Y-66622131D01*
X167659416Y-66615454D01*
X167587084Y-66665013D01*
X167486514Y-66746651D01*
X167281591Y-66916482D01*
X167060451Y-67090290D01*
X166805703Y-67281115D01*
X166499951Y-67501998D01*
X166143400Y-67753661D01*
X165723181Y-68067349D01*
X165338967Y-68392133D01*
X165003873Y-68715142D01*
X164731016Y-69023503D01*
X164533514Y-69304346D01*
X164497346Y-69368945D01*
X164326318Y-69693691D01*
X163810046Y-69693691D01*
X163811310Y-69641670D01*
X163823754Y-69255594D01*
X163834317Y-69010587D01*
X164289200Y-69010587D01*
X164289200Y-69339533D01*
X164539122Y-68983656D01*
X164708120Y-68766011D01*
X164912349Y-68535541D01*
X165108011Y-68341629D01*
X165110622Y-68339282D01*
X165256087Y-68216781D01*
X165465116Y-68051489D01*
X165717836Y-67858584D01*
X165994374Y-67653247D01*
X166262766Y-67459261D01*
X166826542Y-67041879D01*
X167304283Y-66653037D01*
X167704831Y-66284928D01*
X168037026Y-65929746D01*
X168149927Y-65793091D01*
X168322261Y-65564899D01*
X168438232Y-65372106D01*
X168508638Y-65182844D01*
X168544279Y-64965240D01*
X168555954Y-64687426D01*
X168556400Y-64593526D01*
X168556400Y-64076589D01*
X168383088Y-64303569D01*
X168233358Y-64476187D01*
X168018431Y-64692225D01*
X167755872Y-64936168D01*
X167463241Y-65192499D01*
X167158104Y-65445703D01*
X166858021Y-65680263D01*
X166662907Y-65823260D01*
X166433816Y-65987649D01*
X166207740Y-66153258D01*
X166012623Y-66299431D01*
X165889400Y-66395039D01*
X165371630Y-66851386D01*
X164955127Y-67310071D01*
X164639574Y-67771612D01*
X164424653Y-68236527D01*
X164310049Y-68705334D01*
X164289200Y-69010587D01*
X163834317Y-69010587D01*
X163838253Y-68919316D01*
X163854722Y-68644477D01*
X163873077Y-68442719D01*
X163893235Y-68325686D01*
X163893499Y-68324804D01*
X164047078Y-67901558D01*
X164247630Y-67503443D01*
X164503431Y-67120597D01*
X164822759Y-66743153D01*
X165213890Y-66361247D01*
X165685102Y-65965015D01*
X166197891Y-65578312D01*
X166738460Y-65173298D01*
X167201857Y-64796411D01*
X167585603Y-64450208D01*
X167887223Y-64137248D01*
X168104237Y-63860089D01*
X168234169Y-63621290D01*
X168274690Y-63433528D01*
X168228610Y-63221843D01*
X168106211Y-63024535D01*
X167931254Y-62873490D01*
X167817893Y-62820570D01*
X167702780Y-62796047D01*
X167582523Y-62802525D01*
X167448552Y-62845826D01*
X167292297Y-62931768D01*
X167105187Y-63066172D01*
X166878652Y-63254858D01*
X166604123Y-63503645D01*
X166273028Y-63818353D01*
X166096925Y-63989241D01*
X165643718Y-64423832D01*
X165247121Y-64787700D01*
X164898385Y-65087911D01*
X164588764Y-65331531D01*
X164309512Y-65525628D01*
X164051881Y-65677266D01*
X163933600Y-65736918D01*
X163556746Y-65865206D01*
X163173257Y-65898659D01*
X162799284Y-65836830D01*
X162627948Y-65773197D01*
X162422882Y-65650891D01*
X162196610Y-65465983D01*
X161977573Y-65244510D01*
X161794215Y-65012514D01*
X161789520Y-65005600D01*
X161770415Y-64981797D01*
X161754329Y-64976839D01*
X161740976Y-64998426D01*
X161730070Y-65054258D01*
X161721324Y-65152035D01*
X161714452Y-65299457D01*
X161709168Y-65504225D01*
X161705184Y-65774039D01*
X161702216Y-66116599D01*
X161699976Y-66539605D01*
X161698178Y-67050757D01*
X161696952Y-67494800D01*
X161695388Y-68076605D01*
X161693752Y-68564347D01*
X161691723Y-68965561D01*
X161688980Y-69287782D01*
X161685201Y-69538547D01*
X161680064Y-69725390D01*
X161673248Y-69855849D01*
X161664432Y-69937457D01*
X161653295Y-69977752D01*
X161639514Y-69984269D01*
X161622768Y-69964544D01*
X161602736Y-69926112D01*
X161594020Y-69907800D01*
X161573179Y-69859171D01*
X161555577Y-69802930D01*
X161540939Y-69730585D01*
X161528992Y-69633641D01*
X161519461Y-69503604D01*
X161512074Y-69331981D01*
X161506556Y-69110277D01*
X161502633Y-68829998D01*
X161500031Y-68482651D01*
X161498478Y-68059742D01*
X161497698Y-67552776D01*
X161497419Y-66953261D01*
X161497412Y-66910600D01*
X161498237Y-66369534D01*
X161500774Y-65845103D01*
X161504851Y-65348710D01*
X161510297Y-64891762D01*
X161516941Y-64485662D01*
X161517602Y-64456006D01*
X162144993Y-64456006D01*
X162184718Y-64685350D01*
X162289176Y-64886810D01*
X162424874Y-65048151D01*
X162698163Y-65269046D01*
X162998283Y-65395803D01*
X163314289Y-65426445D01*
X163635238Y-65358991D01*
X163782900Y-65293762D01*
X164020016Y-65156035D01*
X164282807Y-64973943D01*
X164579249Y-64740894D01*
X164917317Y-64450301D01*
X165304988Y-64095574D01*
X165750236Y-63670124D01*
X165761340Y-63659336D01*
X166119073Y-63315053D01*
X166416692Y-63037187D01*
X166663748Y-62818198D01*
X166869791Y-62650547D01*
X167044372Y-62526694D01*
X167197039Y-62439100D01*
X167337344Y-62380224D01*
X167409421Y-62358231D01*
X167715386Y-62325145D01*
X168009328Y-62389553D01*
X168282131Y-62547392D01*
X168524681Y-62794598D01*
X168589287Y-62884244D01*
X168749174Y-63121873D01*
X168725371Y-64178036D01*
X168716946Y-64532487D01*
X168708496Y-64801461D01*
X168698037Y-65001060D01*
X168683589Y-65147389D01*
X168663167Y-65256551D01*
X168634790Y-65344650D01*
X168596475Y-65427788D01*
X168563941Y-65489320D01*
X168426315Y-65744441D01*
X168834257Y-65497620D01*
X169070110Y-65360180D01*
X169349931Y-65204920D01*
X169626119Y-65058036D01*
X169724800Y-65007554D01*
X170031838Y-64855760D01*
X170342626Y-64708706D01*
X170669089Y-64561443D01*
X171023152Y-64409019D01*
X171416741Y-64246483D01*
X171861781Y-64068886D01*
X172370197Y-63871276D01*
X172953915Y-63648703D01*
X173433200Y-63468080D01*
X173901814Y-63287431D01*
X174342132Y-63108574D01*
X174740705Y-62937475D01*
X175084088Y-62780100D01*
X175358831Y-62642416D01*
X175551490Y-62530388D01*
X175561021Y-62524022D01*
X175583900Y-62485805D01*
X175571589Y-62413241D01*
X175518332Y-62291320D01*
X175418370Y-62105032D01*
X175362463Y-62006413D01*
X175177841Y-61696415D01*
X175024651Y-61470120D01*
X174894312Y-61317838D01*
X174778250Y-61229882D01*
X174667884Y-61196562D01*
X174644614Y-61195600D01*
X174567033Y-61200112D01*
X174486688Y-61218225D01*
X174391641Y-61256800D01*
X174269957Y-61322696D01*
X174109699Y-61422777D01*
X173898930Y-61563903D01*
X173625714Y-61752936D01*
X173400266Y-61910869D01*
X173073926Y-62137570D01*
X172794914Y-62323649D01*
X172542481Y-62480144D01*
X172295879Y-62618093D01*
X172034360Y-62748537D01*
X171737174Y-62882514D01*
X171383575Y-63031064D01*
X171012259Y-63181407D01*
X170595510Y-63343419D01*
X170258639Y-63461670D01*
X169990864Y-63538266D01*
X169781404Y-63575308D01*
X169619476Y-63574900D01*
X169494301Y-63539145D01*
X169420000Y-63491985D01*
X169293000Y-63389096D01*
X169280020Y-62577004D01*
X169470800Y-62577004D01*
X169474256Y-62906804D01*
X169485064Y-63143512D01*
X169503886Y-63295416D01*
X169531380Y-63370806D01*
X169534300Y-63374118D01*
X169603657Y-63411513D01*
X169716165Y-63418005D01*
X169880606Y-63391350D01*
X170105762Y-63329301D01*
X170400416Y-63229614D01*
X170773349Y-63090042D01*
X171014470Y-62995678D01*
X171417170Y-62834321D01*
X171746751Y-62695854D01*
X172025493Y-62568206D01*
X172275674Y-62439305D01*
X172519571Y-62297082D01*
X172779463Y-62129464D01*
X173077628Y-61924383D01*
X173357000Y-61726435D01*
X173697970Y-61486024D01*
X173970260Y-61302007D01*
X174185544Y-61168603D01*
X174355497Y-61080034D01*
X174491794Y-61030518D01*
X174606111Y-61014277D01*
X174710121Y-61025530D01*
X174751043Y-61036312D01*
X174889329Y-61094470D01*
X175017512Y-61189913D01*
X175148038Y-61336655D01*
X175293354Y-61548713D01*
X175465906Y-61840100D01*
X175467719Y-61843300D01*
X175579654Y-62035702D01*
X175675003Y-62189995D01*
X175742083Y-62287848D01*
X175767203Y-62313200D01*
X175845477Y-62268071D01*
X175898143Y-62150545D01*
X175921607Y-61987408D01*
X175912280Y-61805448D01*
X175866568Y-61631452D01*
X175860542Y-61617090D01*
X175800628Y-61494850D01*
X175702628Y-61311903D01*
X175576828Y-61085888D01*
X175433517Y-60834446D01*
X175282982Y-60575215D01*
X175135509Y-60325836D01*
X175001387Y-60103948D01*
X174890903Y-59927191D01*
X174814344Y-59813204D01*
X174792604Y-59785900D01*
X174694435Y-59706694D01*
X174585441Y-59681319D01*
X174448862Y-59713324D01*
X174267940Y-59806256D01*
X174058751Y-59941243D01*
X173856110Y-60079056D01*
X173602803Y-60251563D01*
X173332047Y-60436133D01*
X173091306Y-60600404D01*
X172761123Y-60820392D01*
X172471813Y-60998285D01*
X172194983Y-61148535D01*
X171902240Y-61285597D01*
X171565193Y-61423926D01*
X171211355Y-61557460D01*
X170799553Y-61704849D01*
X170466877Y-61813243D01*
X170199760Y-61885248D01*
X169984635Y-61923470D01*
X169807934Y-61930515D01*
X169656091Y-61908987D01*
X169551719Y-61876181D01*
X169519911Y-61873880D01*
X169497624Y-61904943D01*
X169483214Y-61983592D01*
X169475040Y-62124048D01*
X169471460Y-62340535D01*
X169470800Y-62577004D01*
X169280020Y-62577004D01*
X169275779Y-62311709D01*
X169272107Y-61979712D01*
X169271760Y-61672313D01*
X169274517Y-61407600D01*
X169278562Y-61261349D01*
X169775600Y-61261349D01*
X169775600Y-61463751D01*
X170019573Y-61434856D01*
X170154138Y-61406581D01*
X170359185Y-61348366D01*
X170610732Y-61267678D01*
X170884798Y-61171985D01*
X170997473Y-61130384D01*
X171407391Y-60972559D01*
X171741846Y-60833920D01*
X172022641Y-60704284D01*
X172271575Y-60573465D01*
X172510449Y-60431280D01*
X172556900Y-60401882D01*
X172823600Y-60231661D01*
X172823600Y-59003012D01*
X172571505Y-59278844D01*
X172351421Y-59494440D01*
X172081881Y-59710556D01*
X171751689Y-59934682D01*
X171349653Y-60174307D01*
X170864577Y-60436921D01*
X170758046Y-60492123D01*
X170491421Y-60631078D01*
X170251779Y-60759092D01*
X170055720Y-60867052D01*
X169919841Y-60945845D01*
X169864500Y-60982698D01*
X169794693Y-61104930D01*
X169775600Y-61261349D01*
X169278562Y-61261349D01*
X169280158Y-61203663D01*
X169288464Y-61078590D01*
X169290984Y-61061475D01*
X169343089Y-60902380D01*
X169443876Y-60753575D01*
X169604235Y-60605759D01*
X169835059Y-60449635D01*
X170147236Y-60275901D01*
X170305126Y-60195497D01*
X170722606Y-59983157D01*
X171065372Y-59799114D01*
X171352358Y-59632264D01*
X171602500Y-59471506D01*
X171834733Y-59305734D01*
X171877342Y-59273556D01*
X172175685Y-59046454D01*
X172055142Y-58954529D01*
X171893856Y-58860285D01*
X171670349Y-58765238D01*
X171422975Y-58682353D01*
X171190087Y-58624597D01*
X171020600Y-58604799D01*
X170846407Y-58616867D01*
X170691600Y-58646819D01*
X170662348Y-58656455D01*
X170597838Y-58702131D01*
X170469234Y-58811465D01*
X170284805Y-58976798D01*
X170052821Y-59190471D01*
X169781551Y-59444827D01*
X169479265Y-59732205D01*
X169154232Y-60044948D01*
X168969941Y-60223847D01*
X168469713Y-60710118D01*
X168034652Y-61131037D01*
X167657927Y-61492941D01*
X167332709Y-61802168D01*
X167052170Y-62065055D01*
X166809481Y-62287938D01*
X166597812Y-62477155D01*
X166410335Y-62639044D01*
X166240220Y-62779941D01*
X166080639Y-62906183D01*
X166073273Y-62911870D01*
X165892840Y-63048236D01*
X165763847Y-63132995D01*
X165658463Y-63178092D01*
X165548860Y-63195471D01*
X165408741Y-63197100D01*
X165059761Y-63154497D01*
X164729974Y-63044046D01*
X164451408Y-62877605D01*
X164380326Y-62816365D01*
X164187600Y-62633731D01*
X164187600Y-61758032D01*
X164184988Y-61446285D01*
X164178972Y-61241229D01*
X164390800Y-61241229D01*
X164390800Y-61920759D01*
X164391730Y-62196626D01*
X164396425Y-62389761D01*
X164407742Y-62519028D01*
X164428536Y-62603290D01*
X164461663Y-62661410D01*
X164509980Y-62712253D01*
X164510752Y-62712979D01*
X164697865Y-62840009D01*
X164946300Y-62942731D01*
X165216307Y-63007186D01*
X165390771Y-63022023D01*
X165521216Y-63018608D01*
X165626367Y-62997385D01*
X165732928Y-62946009D01*
X165867601Y-62852129D01*
X166025771Y-62728376D01*
X166244520Y-62550092D01*
X166478811Y-62350721D01*
X166735272Y-62124043D01*
X167020527Y-61863838D01*
X167341205Y-61563885D01*
X167703929Y-61217966D01*
X168115328Y-60819858D01*
X168582026Y-60363343D01*
X169110651Y-59842199D01*
X169301075Y-59653731D01*
X170426751Y-58538688D01*
X170731647Y-58475856D01*
X171004710Y-58441492D01*
X171269408Y-58459709D01*
X171553378Y-58535379D01*
X171884262Y-58673372D01*
X171903186Y-58682304D01*
X172113443Y-58775724D01*
X172255324Y-58815139D01*
X172348880Y-58796580D01*
X172414160Y-58716077D01*
X172471155Y-58569837D01*
X172506412Y-58308143D01*
X172451501Y-58037755D01*
X172314412Y-57776206D01*
X172103132Y-57541030D01*
X171948533Y-57422817D01*
X171606055Y-57233366D01*
X171269976Y-57118411D01*
X170956061Y-57081482D01*
X170680074Y-57126111D01*
X170658552Y-57133899D01*
X170592525Y-57180477D01*
X170463222Y-57290902D01*
X170279207Y-57457180D01*
X170049045Y-57671314D01*
X169781301Y-57925309D01*
X169484539Y-58211169D01*
X169167323Y-58520898D01*
X169066895Y-58619799D01*
X168473015Y-59202869D01*
X167944839Y-59714924D01*
X167478699Y-60159184D01*
X167070931Y-60538869D01*
X166717871Y-60857199D01*
X166415852Y-61117392D01*
X166161210Y-61322670D01*
X165950280Y-61476251D01*
X165779397Y-61581355D01*
X165644895Y-61641202D01*
X165618811Y-61648880D01*
X165360965Y-61670723D01*
X165071240Y-61620795D01*
X164780463Y-61507264D01*
X164556125Y-61367329D01*
X164390800Y-61241229D01*
X164178972Y-61241229D01*
X164177582Y-61193871D01*
X164166026Y-61012486D01*
X164150965Y-60913823D01*
X164140302Y-60899266D01*
X164057466Y-60948527D01*
X163919136Y-61050744D01*
X163744418Y-61189899D01*
X163552417Y-61349974D01*
X163362240Y-61514950D01*
X163192991Y-61668808D01*
X163063776Y-61795531D01*
X163037315Y-61824032D01*
X162770872Y-62187110D01*
X162544040Y-62636073D01*
X162360200Y-63161884D01*
X162222732Y-63755508D01*
X162160582Y-64167400D01*
X162144993Y-64456006D01*
X161517602Y-64456006D01*
X161524610Y-64141816D01*
X161533135Y-63871629D01*
X161542343Y-63686505D01*
X161546663Y-63634000D01*
X161613051Y-63122734D01*
X161635363Y-62996493D01*
X162127914Y-62996493D01*
X162135589Y-63033119D01*
X162155497Y-63060903D01*
X162175139Y-63060566D01*
X162202746Y-63017176D01*
X162246551Y-62915804D01*
X162314786Y-62741520D01*
X162357339Y-62630949D01*
X162515219Y-62282924D01*
X162715804Y-61960350D01*
X162970796Y-61649837D01*
X163291901Y-61337992D01*
X163690822Y-61011424D01*
X163925440Y-60836751D01*
X163979876Y-60794263D01*
X164695600Y-60794263D01*
X164741623Y-60901011D01*
X164862764Y-61008377D01*
X165033625Y-61102155D01*
X165228811Y-61168141D01*
X165406800Y-61192072D01*
X165493144Y-61183984D01*
X165585917Y-61149910D01*
X165701960Y-61079495D01*
X165858110Y-60962384D01*
X166071209Y-60788222D01*
X166092600Y-60770362D01*
X166320010Y-60574798D01*
X166589439Y-60334570D01*
X166870999Y-60076790D01*
X167134798Y-59828568D01*
X167198413Y-59767370D01*
X167796227Y-59189000D01*
X167795313Y-58511666D01*
X167791928Y-58264475D01*
X167783289Y-58060268D01*
X167770609Y-57917053D01*
X167755101Y-57852837D01*
X167750846Y-57851266D01*
X167699006Y-57895352D01*
X167600587Y-57997074D01*
X167474655Y-58136522D01*
X167442795Y-58173000D01*
X167244547Y-58387101D01*
X166971675Y-58659231D01*
X166629354Y-58984535D01*
X166222761Y-59358156D01*
X165757074Y-59775240D01*
X165394272Y-60094330D01*
X165156216Y-60307078D01*
X164957075Y-60494532D01*
X164807322Y-60646199D01*
X164717433Y-60751585D01*
X164695600Y-60794263D01*
X163979876Y-60794263D01*
X164080260Y-60715913D01*
X164200783Y-60605981D01*
X164263520Y-60528627D01*
X164266096Y-60522427D01*
X164310796Y-60466400D01*
X164421829Y-60353074D01*
X164589056Y-60192039D01*
X164802333Y-59992885D01*
X165051520Y-59765200D01*
X165326476Y-59518576D01*
X165346746Y-59500566D01*
X165706044Y-59177893D01*
X166050677Y-58861468D01*
X166372711Y-58559124D01*
X166664210Y-58278692D01*
X166917237Y-58028006D01*
X167123857Y-57814897D01*
X167276134Y-57647197D01*
X167366133Y-57532740D01*
X167388000Y-57485913D01*
X167346603Y-57450706D01*
X167230471Y-57463145D01*
X167051689Y-57518109D01*
X166822342Y-57610474D01*
X166554516Y-57735118D01*
X166260296Y-57886916D01*
X165951767Y-58060748D01*
X165762400Y-58174983D01*
X165394626Y-58413601D01*
X165007958Y-58683830D01*
X164615485Y-58974894D01*
X164230294Y-59276017D01*
X163865473Y-59576425D01*
X163534111Y-59865342D01*
X163249297Y-60131992D01*
X163024118Y-60365599D01*
X162872369Y-60554351D01*
X162777077Y-60715218D01*
X162673096Y-60922646D01*
X162596340Y-61099230D01*
X162518241Y-61315724D01*
X162436946Y-61574975D01*
X162356846Y-61858556D01*
X162282330Y-62148042D01*
X162217789Y-62425005D01*
X162167612Y-62671019D01*
X162136190Y-62867658D01*
X162127914Y-62996493D01*
X161635363Y-62996493D01*
X161706619Y-62593344D01*
X161821908Y-62067496D01*
X161953457Y-61566854D01*
X162095807Y-61113084D01*
X162243498Y-60727850D01*
X162321203Y-60560600D01*
X162477378Y-60313961D01*
X162711862Y-60029506D01*
X163012870Y-59716387D01*
X163368619Y-59383752D01*
X163767324Y-59040753D01*
X164197200Y-58696539D01*
X164646464Y-58360261D01*
X165103331Y-58041070D01*
X165556017Y-57748115D01*
X165992737Y-57490546D01*
X166401708Y-57277515D01*
X166738661Y-57130523D01*
X167079723Y-57021868D01*
X167375460Y-56974120D01*
X167615505Y-56987441D01*
X167789490Y-57061996D01*
X167841512Y-57113050D01*
X167879856Y-57168744D01*
X167907603Y-57234333D01*
X167926450Y-57326176D01*
X167938091Y-57460630D01*
X167944221Y-57654057D01*
X167946536Y-57922814D01*
X167946800Y-58129050D01*
X167948798Y-58415657D01*
X167954343Y-58663367D01*
X167962754Y-58855861D01*
X167973353Y-58976818D01*
X167983475Y-59011200D01*
X168027136Y-58976667D01*
X168133690Y-58878774D01*
X168294264Y-58726075D01*
X168499983Y-58527124D01*
X168741972Y-58290478D01*
X169011359Y-58024691D01*
X169164575Y-57872578D01*
X169503207Y-57536321D01*
X169780473Y-57265043D01*
X170007025Y-57052055D01*
X170193516Y-56890671D01*
X170350598Y-56774203D01*
X170488923Y-56695964D01*
X170619144Y-56649266D01*
X170751912Y-56627423D01*
X170897881Y-56623747D01*
X171067702Y-56631550D01*
D14*
X192200000Y-54450000D03*
X192200000Y-55400000D03*
X192200000Y-56350000D03*
X195800000Y-56350000D03*
X195800000Y-55400000D03*
X195800000Y-54450000D03*
D15*
X194000000Y-55400000D03*
D16*
X177600000Y-49000000D03*
X176400000Y-49000000D03*
X177600000Y-48000000D03*
X176400000Y-48000000D03*
X177600000Y-47000000D03*
X176400000Y-47000000D03*
D17*
X184000000Y-48600000D03*
X182750000Y-48600000D03*
X185250000Y-48600000D03*
X186500000Y-48600000D03*
D18*
X179500000Y-45550000D03*
X188500000Y-45550000D03*
D17*
X181500000Y-48600000D03*
D16*
X172400000Y-48000000D03*
X173600000Y-48000000D03*
X172400000Y-49000000D03*
X173600000Y-49000000D03*
X172400000Y-47000000D03*
X173600000Y-47000000D03*
D17*
X166000000Y-48600000D03*
X164750000Y-48600000D03*
X167250000Y-48600000D03*
X168500000Y-48600000D03*
D18*
X161500000Y-45550000D03*
X170500000Y-45550000D03*
D17*
X163500000Y-48600000D03*
D19*
X195000000Y-69050000D03*
X195000000Y-72550000D03*
D20*
X175000000Y-46400000D03*
X175000000Y-47600000D03*
D16*
X174400000Y-44500000D03*
X175600000Y-44500000D03*
D21*
X149800000Y-54650000D03*
X149800000Y-56150000D03*
X149800000Y-51650000D03*
D22*
X148800000Y-50200000D03*
X146800000Y-50200000D03*
X148800000Y-57600000D03*
X146800000Y-57600000D03*
D23*
X147800000Y-55400000D03*
X147800000Y-52400000D03*
D24*
X194950000Y-58000000D03*
X193050000Y-58000000D03*
D25*
X190000000Y-56350000D03*
X190000000Y-54450000D03*
D26*
X181275000Y-90225000D03*
X197875000Y-90225000D03*
D27*
X202675000Y-64125000D03*
X147675000Y-64125000D03*
M02*
