G04 #@! TF.FileFunction,Copper,L1,Top,Signal*
%FSLAX46Y46*%
G04 Gerber Fmt 4.6, Leading zero omitted, Abs format (unit mm)*
G04 Created by KiCad (PCBNEW 4.0.7-e2-6376~58~ubuntu14.04.1) date Wed Aug  8 15:23:53 2018*
%MOMM*%
%LPD*%
G01*
G04 APERTURE LIST*
%ADD10C,0.100000*%
%ADD11C,0.190000*%
%ADD12C,0.280000*%
%ADD13C,0.010000*%
%ADD14R,1.500000X0.450000*%
%ADD15R,1.750000X2.500000*%
%ADD16R,0.800000X0.500000*%
%ADD17R,0.600000X1.700000*%
%ADD18R,1.000000X2.700000*%
%ADD19R,2.300000X1.500000*%
%ADD20R,0.500000X0.800000*%
%ADD21R,2.000000X0.700000*%
%ADD22R,0.800000X1.200000*%
%ADD23C,0.900000*%
%ADD24R,1.200000X0.750000*%
%ADD25R,0.750000X1.200000*%
%ADD26O,2.000000X3.000000*%
%ADD27C,3.600000*%
%ADD28C,0.600000*%
%ADD29C,1.000000*%
%ADD30C,0.200000*%
G04 APERTURE END LIST*
D10*
D11*
X184316667Y-38011667D02*
X184000000Y-37631667D01*
X183746667Y-38011667D02*
X183746667Y-37125000D01*
X184126667Y-37125000D01*
X184253333Y-37188333D01*
X184316667Y-37315000D01*
X184316667Y-37441667D01*
X184253333Y-37568333D01*
X184126667Y-37631667D01*
X183746667Y-37631667D01*
X184000000Y-36681667D02*
X183683333Y-36745000D01*
X183366667Y-36935000D01*
X183176667Y-37251667D01*
X183113333Y-37568333D01*
X183176667Y-37885000D01*
X183366667Y-38201667D01*
X183683333Y-38391667D01*
X184000000Y-38455000D01*
X184316667Y-38391667D01*
X184633333Y-38201667D01*
X184823333Y-37885000D01*
X184886667Y-37568333D01*
X184823333Y-37251667D01*
X184633333Y-36935000D01*
X184316667Y-36745000D01*
X184000000Y-36681667D01*
D12*
X167142856Y-40004762D02*
X167142856Y-38004762D01*
X168285714Y-40004762D01*
X168285714Y-38004762D01*
X169999999Y-39909524D02*
X169809523Y-40004762D01*
X169428571Y-40004762D01*
X169238094Y-39909524D01*
X169142856Y-39719048D01*
X169142856Y-38957143D01*
X169238094Y-38766667D01*
X169428571Y-38671429D01*
X169809523Y-38671429D01*
X169999999Y-38766667D01*
X170095237Y-38957143D01*
X170095237Y-39147619D01*
X169142856Y-39338095D01*
X171809523Y-38671429D02*
X171809523Y-40004762D01*
X170952380Y-38671429D02*
X170952380Y-39719048D01*
X171047619Y-39909524D01*
X171238095Y-40004762D01*
X171523809Y-40004762D01*
X171714285Y-39909524D01*
X171809523Y-39814286D01*
X172761904Y-40004762D02*
X172761904Y-38671429D01*
X172761904Y-39052381D02*
X172857143Y-38861905D01*
X172952381Y-38766667D01*
X173142857Y-38671429D01*
X173333333Y-38671429D01*
X174285714Y-40004762D02*
X174095238Y-39909524D01*
X173999999Y-39814286D01*
X173904761Y-39623810D01*
X173904761Y-39052381D01*
X173999999Y-38861905D01*
X174095238Y-38766667D01*
X174285714Y-38671429D01*
X174571428Y-38671429D01*
X174761904Y-38766667D01*
X174857142Y-38861905D01*
X174952380Y-39052381D01*
X174952380Y-39623810D01*
X174857142Y-39814286D01*
X174761904Y-39909524D01*
X174571428Y-40004762D01*
X174285714Y-40004762D01*
X176476190Y-38957143D02*
X176761904Y-39052381D01*
X176857143Y-39147619D01*
X176952381Y-39338095D01*
X176952381Y-39623810D01*
X176857143Y-39814286D01*
X176761904Y-39909524D01*
X176571428Y-40004762D01*
X175809523Y-40004762D01*
X175809523Y-38004762D01*
X176476190Y-38004762D01*
X176666666Y-38100000D01*
X176761904Y-38195238D01*
X176857143Y-38385714D01*
X176857143Y-38576190D01*
X176761904Y-38766667D01*
X176666666Y-38861905D01*
X176476190Y-38957143D01*
X175809523Y-38957143D01*
X177619047Y-38671429D02*
X178095238Y-40004762D01*
X178571428Y-38671429D02*
X178095238Y-40004762D01*
X177904762Y-40480952D01*
X177809523Y-40576190D01*
X177619047Y-40671429D01*
X179047619Y-38671429D02*
X179809524Y-38671429D01*
X179333333Y-38004762D02*
X179333333Y-39719048D01*
X179428572Y-39909524D01*
X179619048Y-40004762D01*
X179809524Y-40004762D01*
X181238095Y-39909524D02*
X181047619Y-40004762D01*
X180666667Y-40004762D01*
X180476190Y-39909524D01*
X180380952Y-39719048D01*
X180380952Y-38957143D01*
X180476190Y-38766667D01*
X180666667Y-38671429D01*
X181047619Y-38671429D01*
X181238095Y-38766667D01*
X181333333Y-38957143D01*
X181333333Y-39147619D01*
X180380952Y-39338095D01*
X182095238Y-39909524D02*
X182285715Y-40004762D01*
X182666667Y-40004762D01*
X182857143Y-39909524D01*
X182952381Y-39719048D01*
X182952381Y-39623810D01*
X182857143Y-39433333D01*
X182666667Y-39338095D01*
X182380953Y-39338095D01*
X182190476Y-39242857D01*
X182095238Y-39052381D01*
X182095238Y-38957143D01*
X182190476Y-38766667D01*
X182380953Y-38671429D01*
X182666667Y-38671429D01*
X182857143Y-38766667D01*
D13*
G36*
X171067702Y-56631550D02*
X171134723Y-56635755D01*
X171525714Y-56704671D01*
X171907529Y-56853017D01*
X172259441Y-57067271D01*
X172560724Y-57333915D01*
X172790650Y-57639427D01*
X172851704Y-57755763D01*
X172893624Y-57850579D01*
X172924804Y-57940700D01*
X172946837Y-58042776D01*
X172961317Y-58173462D01*
X172969837Y-58349407D01*
X172973991Y-58587264D01*
X172975373Y-58903686D01*
X172975503Y-59049300D01*
X172976716Y-59360124D01*
X172979816Y-59633257D01*
X172984462Y-59853586D01*
X172990315Y-60005996D01*
X172997033Y-60075376D01*
X172998655Y-60078000D01*
X173046605Y-60050369D01*
X173159737Y-59975325D01*
X173320651Y-59864641D01*
X173493955Y-59742860D01*
X173781659Y-59543231D01*
X174006667Y-59399157D01*
X174185434Y-59302495D01*
X174334416Y-59245100D01*
X174470068Y-59218831D01*
X174561476Y-59214589D01*
X174715539Y-59225676D01*
X174853948Y-59264884D01*
X174985624Y-59341562D01*
X175119488Y-59465063D01*
X175264461Y-59644735D01*
X175429465Y-59889931D01*
X175623420Y-60210000D01*
X175794462Y-60506940D01*
X175955354Y-60788156D01*
X176085316Y-61017125D01*
X176187723Y-61208947D01*
X176265950Y-61378723D01*
X176323372Y-61541554D01*
X176363364Y-61712539D01*
X176389300Y-61906778D01*
X176404557Y-62139372D01*
X176412508Y-62425422D01*
X176416529Y-62780026D01*
X176419995Y-63218286D01*
X176420843Y-63309483D01*
X176436686Y-64940767D01*
X177046621Y-65098599D01*
X177686685Y-65296521D01*
X178233849Y-65535072D01*
X178688422Y-65814452D01*
X179050714Y-66134864D01*
X179321035Y-66496509D01*
X179388600Y-66621863D01*
X179554600Y-66958847D01*
X179585740Y-69885333D01*
X180195144Y-69312366D01*
X180470150Y-69056821D01*
X180686200Y-68865290D01*
X180855939Y-68729703D01*
X180992012Y-68641992D01*
X181107066Y-68594088D01*
X181213744Y-68577923D01*
X181324693Y-68585428D01*
X181332600Y-68586579D01*
X181572353Y-68651333D01*
X181870830Y-68777708D01*
X182214374Y-68956031D01*
X182589326Y-69176625D01*
X182982026Y-69429818D01*
X183378815Y-69705934D01*
X183766036Y-69995299D01*
X184130029Y-70288238D01*
X184457136Y-70575076D01*
X184733697Y-70846139D01*
X184946055Y-71091753D01*
X185022896Y-71200445D01*
X185168000Y-71426291D01*
X185168000Y-72889545D01*
X185168794Y-73263319D01*
X185171040Y-73601844D01*
X185174530Y-73892446D01*
X185179058Y-74122455D01*
X185184417Y-74279197D01*
X185190400Y-74350001D01*
X185191880Y-74352800D01*
X185245653Y-74331371D01*
X185364584Y-74275005D01*
X185523663Y-74195583D01*
X185534780Y-74189914D01*
X185873156Y-74053355D01*
X186182690Y-74000215D01*
X186454882Y-74029243D01*
X186681229Y-74139187D01*
X186853232Y-74328796D01*
X186886951Y-74388907D01*
X187015940Y-74675309D01*
X187149478Y-75025827D01*
X187275432Y-75404356D01*
X187381667Y-75774792D01*
X187447494Y-76056801D01*
X187478786Y-76220928D01*
X187504797Y-76380291D01*
X187525923Y-76545656D01*
X187542565Y-76727789D01*
X187555120Y-76937455D01*
X187563987Y-77185421D01*
X187569564Y-77482453D01*
X187572250Y-77839316D01*
X187572442Y-78266776D01*
X187570540Y-78775599D01*
X187567454Y-79298514D01*
X187555600Y-81120028D01*
X187187300Y-81500069D01*
X186737636Y-81933357D01*
X186264841Y-82324869D01*
X185749561Y-82688242D01*
X185172442Y-83037109D01*
X184514129Y-83385108D01*
X184505836Y-83389245D01*
X183630654Y-83782185D01*
X182732533Y-84102381D01*
X181825275Y-84346877D01*
X180922677Y-84512720D01*
X180038539Y-84596953D01*
X179186661Y-84596622D01*
X178945000Y-84580064D01*
X178028363Y-84466661D01*
X177113456Y-84281038D01*
X176195638Y-84020923D01*
X175270267Y-83684046D01*
X174332702Y-83268138D01*
X173378303Y-82770927D01*
X173317600Y-82734800D01*
X180556862Y-82734800D01*
X180631301Y-82721837D01*
X180782385Y-82686432D01*
X180988998Y-82633805D01*
X181230024Y-82569178D01*
X181260440Y-82560813D01*
X182166161Y-82283503D01*
X183007666Y-81969849D01*
X183779135Y-81623063D01*
X184474744Y-81246354D01*
X185088672Y-80842934D01*
X185615096Y-80416011D01*
X186048194Y-79968796D01*
X186119529Y-79881699D01*
X186500452Y-79337118D01*
X186784712Y-78779504D01*
X186977223Y-78198119D01*
X187047660Y-77852744D01*
X187074151Y-77627604D01*
X187072135Y-77421451D01*
X187036679Y-77210665D01*
X186962850Y-76971622D01*
X186845712Y-76680703D01*
X186764777Y-76498272D01*
X186653665Y-76267064D01*
X186559585Y-76115591D01*
X186465867Y-76027742D01*
X186355843Y-75987402D01*
X186226971Y-75978400D01*
X186072387Y-75991273D01*
X185900561Y-76032720D01*
X185704302Y-76106979D01*
X185476423Y-76218290D01*
X185209733Y-76370891D01*
X184897044Y-76569023D01*
X184531166Y-76816923D01*
X184104911Y-77118832D01*
X183611089Y-77478988D01*
X183333277Y-77684699D01*
X183004268Y-77928331D01*
X182695646Y-78155008D01*
X182418312Y-78356865D01*
X182183164Y-78526041D01*
X182001102Y-78654672D01*
X181883025Y-78734896D01*
X181847780Y-78756342D01*
X181702560Y-78831517D01*
X181831848Y-78967058D01*
X181937071Y-79101827D01*
X182013361Y-79240932D01*
X182015168Y-79245607D01*
X182039392Y-79365641D01*
X182056686Y-79564003D01*
X182067242Y-79818458D01*
X182071253Y-80106767D01*
X182068914Y-80406697D01*
X182060416Y-80696010D01*
X182045953Y-80952471D01*
X182025719Y-81153843D01*
X181999907Y-81277890D01*
X181997452Y-81284179D01*
X181904639Y-81436189D01*
X181737876Y-81634423D01*
X181507499Y-81868368D01*
X181223842Y-82127513D01*
X180906216Y-82394106D01*
X180742308Y-82531447D01*
X180621813Y-82642297D01*
X180557683Y-82714024D01*
X180556862Y-82734800D01*
X173317600Y-82734800D01*
X172402428Y-82190144D01*
X171400435Y-81523519D01*
X171122048Y-81320072D01*
X174776964Y-81320072D01*
X174788576Y-81445322D01*
X174895125Y-81579045D01*
X175091092Y-81714523D01*
X175109546Y-81724735D01*
X175359588Y-81808844D01*
X175631442Y-81798487D01*
X175929109Y-81693026D01*
X176161871Y-81557709D01*
X176330588Y-81435598D01*
X176547007Y-81264551D01*
X176785264Y-81065708D01*
X177019497Y-80860208D01*
X177058146Y-80825136D01*
X177460971Y-80458336D01*
X177799621Y-80153351D01*
X178084546Y-79903046D01*
X178326196Y-79700290D01*
X178535024Y-79537950D01*
X178721478Y-79408895D01*
X178896011Y-79305990D01*
X179069071Y-79222104D01*
X179251111Y-79150105D01*
X179452579Y-79082860D01*
X179683928Y-79013236D01*
X179734709Y-78998396D01*
X180394604Y-78806000D01*
X180391030Y-77496728D01*
X180390382Y-77094778D01*
X180391529Y-76780438D01*
X180395421Y-76539721D01*
X180403007Y-76358641D01*
X180415236Y-76223211D01*
X180433057Y-76119443D01*
X180457420Y-76033352D01*
X180489273Y-75950951D01*
X180497191Y-75932369D01*
X180654788Y-75671097D01*
X180890921Y-75417315D01*
X181183470Y-75192311D01*
X181389673Y-75073455D01*
X181585915Y-74963810D01*
X181812446Y-74821919D01*
X182018400Y-74679799D01*
X182216757Y-74521205D01*
X182464129Y-74303973D01*
X182742446Y-74045771D01*
X183033641Y-73764267D01*
X183319647Y-73477127D01*
X183582394Y-73202022D01*
X183803814Y-72956617D01*
X183910114Y-72829989D01*
X184216470Y-72450179D01*
X183824200Y-72080134D01*
X183542178Y-71833859D01*
X183217046Y-71582623D01*
X182866266Y-71337149D01*
X182507303Y-71108161D01*
X182157618Y-70906381D01*
X181834675Y-70742534D01*
X181555937Y-70627342D01*
X181377323Y-70577580D01*
X181322277Y-70571252D01*
X181265228Y-70577538D01*
X181198583Y-70602643D01*
X181114743Y-70652777D01*
X181006113Y-70734145D01*
X180865098Y-70852955D01*
X180684100Y-71015416D01*
X180455525Y-71227735D01*
X180171775Y-71496118D01*
X179825256Y-71826775D01*
X179688123Y-71957997D01*
X179409364Y-72224779D01*
X179140978Y-72481502D01*
X178895866Y-72715836D01*
X178686931Y-72915449D01*
X178527073Y-73068011D01*
X178437000Y-73153781D01*
X178306101Y-73278839D01*
X178245700Y-73341116D01*
X178252577Y-73347746D01*
X178323510Y-73305862D01*
X178386200Y-73266290D01*
X178718759Y-73092615D01*
X179027055Y-73012573D01*
X179323091Y-73024893D01*
X179618868Y-73128301D01*
X179630800Y-73134282D01*
X179776513Y-73215606D01*
X179890673Y-73303248D01*
X179976696Y-73409962D01*
X180037999Y-73548505D01*
X180077998Y-73731632D01*
X180100111Y-73972100D01*
X180107753Y-74282664D01*
X180104342Y-74676079D01*
X180100051Y-74886200D01*
X180074826Y-76003800D01*
X177441956Y-78611332D01*
X177011529Y-79038549D01*
X176602124Y-79446708D01*
X176219518Y-79829940D01*
X175869486Y-80182372D01*
X175557805Y-80498136D01*
X175290249Y-80771360D01*
X175072595Y-80996173D01*
X174910619Y-81166706D01*
X174810095Y-81277087D01*
X174776964Y-81320072D01*
X171122048Y-81320072D01*
X170367685Y-80768781D01*
X169299534Y-79923659D01*
X169115200Y-79771752D01*
X168817093Y-79515334D01*
X168469347Y-79200580D01*
X168086269Y-78841705D01*
X167682166Y-78452925D01*
X167271347Y-78048452D01*
X166868120Y-77642503D01*
X166486793Y-77249290D01*
X166141672Y-76883029D01*
X165847067Y-76557933D01*
X165654842Y-76334000D01*
X165584043Y-76243960D01*
X167981262Y-76243960D01*
X167982538Y-76245803D01*
X168473065Y-76867227D01*
X168941236Y-77390820D01*
X169388190Y-77817597D01*
X169815067Y-78148573D01*
X170223004Y-78384762D01*
X170509513Y-78497917D01*
X170734748Y-78542613D01*
X171019541Y-78562600D01*
X171324984Y-78558194D01*
X171612164Y-78529712D01*
X171811079Y-78487334D01*
X171988609Y-78430286D01*
X172161717Y-78363798D01*
X172336917Y-78282939D01*
X172520724Y-78182773D01*
X172719652Y-78058369D01*
X172940217Y-77904791D01*
X173188931Y-77717108D01*
X173472311Y-77490385D01*
X173796870Y-77219688D01*
X174169123Y-76900086D01*
X174595585Y-76526643D01*
X175082771Y-76094427D01*
X175637193Y-75598504D01*
X175699183Y-75542886D01*
X176067065Y-75212663D01*
X176363650Y-74945819D01*
X176593222Y-74737838D01*
X176760063Y-74584202D01*
X176868458Y-74480391D01*
X176922690Y-74421889D01*
X176927042Y-74404178D01*
X176885798Y-74422739D01*
X176803242Y-74473055D01*
X176683657Y-74550608D01*
X176567507Y-74627051D01*
X176005885Y-74956039D01*
X175437983Y-75210057D01*
X174878249Y-75384001D01*
X174341130Y-75472767D01*
X174144400Y-75483132D01*
X173807829Y-75469549D01*
X173549491Y-75411345D01*
X173354192Y-75303828D01*
X173257062Y-75209111D01*
X173212856Y-75154107D01*
X173180149Y-75098961D01*
X173157208Y-75028303D01*
X173142303Y-74926764D01*
X173133700Y-74778974D01*
X173129668Y-74569563D01*
X173128474Y-74283164D01*
X173128400Y-74067478D01*
X173129893Y-73686958D01*
X173138192Y-73389775D01*
X173159025Y-73157670D01*
X173198118Y-72972386D01*
X173261199Y-72815664D01*
X173353997Y-72669248D01*
X173482238Y-72514879D01*
X173651650Y-72334299D01*
X173682003Y-72302746D01*
X173831855Y-72153105D01*
X173995561Y-72002743D01*
X174181812Y-71845262D01*
X174399300Y-71674269D01*
X174656717Y-71483367D01*
X174962755Y-71266162D01*
X175326106Y-71016257D01*
X175755460Y-70727258D01*
X176259510Y-70392769D01*
X176435090Y-70276999D01*
X176794195Y-70039107D01*
X177134295Y-69811148D01*
X177443985Y-69600966D01*
X177711860Y-69416406D01*
X177926512Y-69265313D01*
X178076538Y-69155531D01*
X178142328Y-69102753D01*
X178259665Y-68976598D01*
X178403463Y-68792700D01*
X178550355Y-68581860D01*
X178616869Y-68477252D01*
X178887462Y-68036005D01*
X178678542Y-67850605D01*
X178344959Y-67607953D01*
X177920103Y-67388432D01*
X177412391Y-67195578D01*
X176830243Y-67032926D01*
X176618070Y-66985389D01*
X176279307Y-66925911D01*
X175958874Y-66898289D01*
X175645179Y-66905958D01*
X175326629Y-66952350D01*
X174991631Y-67040899D01*
X174628595Y-67175036D01*
X174225926Y-67358195D01*
X173772033Y-67593809D01*
X173255324Y-67885312D01*
X172927238Y-68078393D01*
X172635382Y-68250784D01*
X172337768Y-68424205D01*
X172059857Y-68583981D01*
X171827109Y-68715436D01*
X171713020Y-68778247D01*
X171288241Y-69008123D01*
X172119420Y-69026591D01*
X172438887Y-69035076D01*
X172675844Y-69045790D01*
X172849381Y-69061091D01*
X172978589Y-69083340D01*
X173082558Y-69114894D01*
X173179200Y-69157531D01*
X173298604Y-69219292D01*
X173389320Y-69281167D01*
X173455127Y-69357310D01*
X173499800Y-69461878D01*
X173527118Y-69609029D01*
X173540856Y-69812917D01*
X173544793Y-70087699D01*
X173542704Y-70447532D01*
X173542030Y-70517400D01*
X173532045Y-71533400D01*
X173368322Y-71678610D01*
X173289599Y-71743009D01*
X173140204Y-71860103D01*
X172930812Y-72021718D01*
X172672097Y-72219679D01*
X172374736Y-72445812D01*
X172049404Y-72691943D01*
X171782200Y-72893219D01*
X171318943Y-73242011D01*
X170926172Y-73539122D01*
X170592754Y-73793382D01*
X170307558Y-74013618D01*
X170059453Y-74208659D01*
X169837306Y-74387334D01*
X169629988Y-74558472D01*
X169426365Y-74730900D01*
X169215307Y-74913447D01*
X169028667Y-75077069D01*
X168707965Y-75367368D01*
X168437933Y-75628037D01*
X168224408Y-75852553D01*
X168073229Y-76034394D01*
X167990234Y-76167038D01*
X167981262Y-76243960D01*
X165584043Y-76243960D01*
X164686817Y-75102901D01*
X163798149Y-73839592D01*
X162976792Y-72525567D01*
X162210698Y-71142320D01*
X161974329Y-70680200D01*
X161495199Y-69725400D01*
X161495208Y-69693691D01*
X164326318Y-69693691D01*
X164390766Y-70054745D01*
X164510874Y-70601313D01*
X164668111Y-71117918D01*
X164855504Y-71587483D01*
X165066078Y-71992931D01*
X165292860Y-72317186D01*
X165334041Y-72364697D01*
X165472419Y-72510229D01*
X165578347Y-72583983D01*
X165683598Y-72592907D01*
X165819946Y-72543948D01*
X165922610Y-72493388D01*
X166065898Y-72405329D01*
X166261232Y-72259549D01*
X166512333Y-72052891D01*
X166822925Y-71782198D01*
X167196732Y-71444312D01*
X167602123Y-71069104D01*
X167882069Y-70809904D01*
X168164394Y-70552382D01*
X168431944Y-70311902D01*
X168667565Y-70103831D01*
X168854102Y-69943533D01*
X168915998Y-69892266D01*
X169329951Y-69555624D01*
X169006675Y-69495519D01*
X168601925Y-69395989D01*
X168254311Y-69261377D01*
X167976412Y-69098297D01*
X167780805Y-68913359D01*
X167720085Y-68819246D01*
X167692263Y-68740017D01*
X167671279Y-68615783D01*
X167656214Y-68433700D01*
X167646149Y-68180923D01*
X167640163Y-67844606D01*
X167638696Y-67682503D01*
X167638458Y-67371886D01*
X167642042Y-67094011D01*
X167648924Y-66865673D01*
X167658581Y-66703666D01*
X167670488Y-66624784D01*
X167671772Y-66622131D01*
X167659416Y-66615454D01*
X167587084Y-66665013D01*
X167486514Y-66746651D01*
X167281591Y-66916482D01*
X167060451Y-67090290D01*
X166805703Y-67281115D01*
X166499951Y-67501998D01*
X166143400Y-67753661D01*
X165723181Y-68067349D01*
X165338967Y-68392133D01*
X165003873Y-68715142D01*
X164731016Y-69023503D01*
X164533514Y-69304346D01*
X164497346Y-69368945D01*
X164326318Y-69693691D01*
X161495208Y-69693691D01*
X161496080Y-66921000D01*
X161497155Y-66378988D01*
X161499919Y-65853648D01*
X161504199Y-65356353D01*
X161509818Y-64898480D01*
X161516602Y-64491404D01*
X161517399Y-64456006D01*
X162144993Y-64456006D01*
X162184718Y-64685350D01*
X162289176Y-64886810D01*
X162424874Y-65048151D01*
X162698163Y-65269046D01*
X162998283Y-65395803D01*
X163314289Y-65426445D01*
X163635238Y-65358991D01*
X163782900Y-65293762D01*
X164020016Y-65156035D01*
X164282807Y-64973943D01*
X164579249Y-64740894D01*
X164917317Y-64450301D01*
X165304988Y-64095574D01*
X165750236Y-63670124D01*
X165761340Y-63659336D01*
X166119073Y-63315053D01*
X166416692Y-63037187D01*
X166663748Y-62818198D01*
X166869791Y-62650547D01*
X167044372Y-62526694D01*
X167197039Y-62439100D01*
X167337344Y-62380224D01*
X167409421Y-62358231D01*
X167715386Y-62325145D01*
X168009328Y-62389553D01*
X168282131Y-62547392D01*
X168524681Y-62794598D01*
X168589287Y-62884244D01*
X168749174Y-63121873D01*
X168725371Y-64178036D01*
X168716946Y-64532487D01*
X168708496Y-64801461D01*
X168698037Y-65001060D01*
X168683589Y-65147389D01*
X168663167Y-65256551D01*
X168634790Y-65344650D01*
X168596475Y-65427788D01*
X168563941Y-65489320D01*
X168426315Y-65744441D01*
X168834257Y-65497620D01*
X169070110Y-65360180D01*
X169349931Y-65204920D01*
X169626119Y-65058036D01*
X169724800Y-65007554D01*
X170031838Y-64855760D01*
X170342626Y-64708706D01*
X170669089Y-64561443D01*
X171023152Y-64409019D01*
X171416741Y-64246483D01*
X171861781Y-64068886D01*
X172370197Y-63871276D01*
X172953915Y-63648703D01*
X173433200Y-63468080D01*
X173901814Y-63287431D01*
X174342132Y-63108574D01*
X174740705Y-62937475D01*
X175084088Y-62780100D01*
X175358831Y-62642416D01*
X175551490Y-62530388D01*
X175561021Y-62524022D01*
X175583900Y-62485805D01*
X175571589Y-62413241D01*
X175518332Y-62291320D01*
X175418370Y-62105032D01*
X175362463Y-62006413D01*
X175177841Y-61696415D01*
X175024651Y-61470120D01*
X174894312Y-61317838D01*
X174778250Y-61229882D01*
X174667884Y-61196562D01*
X174644614Y-61195600D01*
X174567033Y-61200112D01*
X174486688Y-61218225D01*
X174391641Y-61256800D01*
X174269957Y-61322696D01*
X174109699Y-61422777D01*
X173898930Y-61563903D01*
X173625714Y-61752936D01*
X173400266Y-61910869D01*
X173073926Y-62137570D01*
X172794914Y-62323649D01*
X172542481Y-62480144D01*
X172295879Y-62618093D01*
X172034360Y-62748537D01*
X171737174Y-62882514D01*
X171383575Y-63031064D01*
X171012259Y-63181407D01*
X170595510Y-63343419D01*
X170258639Y-63461670D01*
X169990864Y-63538266D01*
X169781404Y-63575308D01*
X169619476Y-63574900D01*
X169494301Y-63539145D01*
X169420000Y-63491985D01*
X169293000Y-63389096D01*
X169275779Y-62311709D01*
X169272107Y-61979712D01*
X169271760Y-61672313D01*
X169274517Y-61407600D01*
X169280158Y-61203663D01*
X169288464Y-61078590D01*
X169290984Y-61061475D01*
X169343089Y-60902380D01*
X169443876Y-60753575D01*
X169604235Y-60605759D01*
X169835059Y-60449635D01*
X170147236Y-60275901D01*
X170305126Y-60195497D01*
X170722606Y-59983157D01*
X171065372Y-59799114D01*
X171352358Y-59632264D01*
X171602500Y-59471506D01*
X171834733Y-59305734D01*
X171877342Y-59273556D01*
X172175685Y-59046454D01*
X172055142Y-58954529D01*
X171893856Y-58860285D01*
X171670349Y-58765238D01*
X171422975Y-58682353D01*
X171190087Y-58624597D01*
X171020600Y-58604799D01*
X170846407Y-58616867D01*
X170691600Y-58646819D01*
X170662348Y-58656455D01*
X170597838Y-58702131D01*
X170469234Y-58811465D01*
X170284805Y-58976798D01*
X170052821Y-59190471D01*
X169781551Y-59444827D01*
X169479265Y-59732205D01*
X169154232Y-60044948D01*
X168969941Y-60223847D01*
X168469713Y-60710118D01*
X168034652Y-61131037D01*
X167657927Y-61492941D01*
X167332709Y-61802168D01*
X167052170Y-62065055D01*
X166809481Y-62287938D01*
X166597812Y-62477155D01*
X166410335Y-62639044D01*
X166240220Y-62779941D01*
X166080639Y-62906183D01*
X166073273Y-62911870D01*
X165892840Y-63048236D01*
X165763847Y-63132995D01*
X165658463Y-63178092D01*
X165548860Y-63195471D01*
X165408741Y-63197100D01*
X165059761Y-63154497D01*
X164729974Y-63044046D01*
X164451408Y-62877605D01*
X164380326Y-62816365D01*
X164187600Y-62633731D01*
X164187600Y-61758032D01*
X164184988Y-61446285D01*
X164177582Y-61193871D01*
X164166026Y-61012486D01*
X164150965Y-60913823D01*
X164140302Y-60899266D01*
X164057466Y-60948527D01*
X163919136Y-61050744D01*
X163744418Y-61189899D01*
X163552417Y-61349974D01*
X163362240Y-61514950D01*
X163192991Y-61668808D01*
X163063776Y-61795531D01*
X163037315Y-61824032D01*
X162770872Y-62187110D01*
X162544040Y-62636073D01*
X162360200Y-63161884D01*
X162222732Y-63755508D01*
X162160582Y-64167400D01*
X162144993Y-64456006D01*
X161517399Y-64456006D01*
X161524375Y-64146498D01*
X161532964Y-63875138D01*
X161542191Y-63688700D01*
X161546663Y-63634000D01*
X161613051Y-63122734D01*
X161706619Y-62593344D01*
X161821908Y-62067496D01*
X161953457Y-61566854D01*
X162095807Y-61113084D01*
X162243498Y-60727850D01*
X162321203Y-60560600D01*
X162477378Y-60313961D01*
X162711862Y-60029506D01*
X163012870Y-59716387D01*
X163368619Y-59383752D01*
X163767324Y-59040753D01*
X164197200Y-58696539D01*
X164646464Y-58360261D01*
X165103331Y-58041070D01*
X165556017Y-57748115D01*
X165992737Y-57490546D01*
X166401708Y-57277515D01*
X166738661Y-57130523D01*
X167079723Y-57021868D01*
X167375460Y-56974120D01*
X167615505Y-56987441D01*
X167789490Y-57061996D01*
X167841512Y-57113050D01*
X167879856Y-57168744D01*
X167907603Y-57234333D01*
X167926450Y-57326176D01*
X167938091Y-57460630D01*
X167944221Y-57654057D01*
X167946536Y-57922814D01*
X167946800Y-58129050D01*
X167948798Y-58415657D01*
X167954343Y-58663367D01*
X167962754Y-58855861D01*
X167973353Y-58976818D01*
X167983475Y-59011200D01*
X168027136Y-58976667D01*
X168133690Y-58878774D01*
X168294264Y-58726075D01*
X168499983Y-58527124D01*
X168741972Y-58290478D01*
X169011359Y-58024691D01*
X169164575Y-57872578D01*
X169503207Y-57536321D01*
X169780473Y-57265043D01*
X170007025Y-57052055D01*
X170193516Y-56890671D01*
X170350598Y-56774203D01*
X170488923Y-56695964D01*
X170619144Y-56649266D01*
X170751912Y-56627423D01*
X170897881Y-56623747D01*
X171067702Y-56631550D01*
X171067702Y-56631550D01*
G37*
X171067702Y-56631550D02*
X171134723Y-56635755D01*
X171525714Y-56704671D01*
X171907529Y-56853017D01*
X172259441Y-57067271D01*
X172560724Y-57333915D01*
X172790650Y-57639427D01*
X172851704Y-57755763D01*
X172893624Y-57850579D01*
X172924804Y-57940700D01*
X172946837Y-58042776D01*
X172961317Y-58173462D01*
X172969837Y-58349407D01*
X172973991Y-58587264D01*
X172975373Y-58903686D01*
X172975503Y-59049300D01*
X172976716Y-59360124D01*
X172979816Y-59633257D01*
X172984462Y-59853586D01*
X172990315Y-60005996D01*
X172997033Y-60075376D01*
X172998655Y-60078000D01*
X173046605Y-60050369D01*
X173159737Y-59975325D01*
X173320651Y-59864641D01*
X173493955Y-59742860D01*
X173781659Y-59543231D01*
X174006667Y-59399157D01*
X174185434Y-59302495D01*
X174334416Y-59245100D01*
X174470068Y-59218831D01*
X174561476Y-59214589D01*
X174715539Y-59225676D01*
X174853948Y-59264884D01*
X174985624Y-59341562D01*
X175119488Y-59465063D01*
X175264461Y-59644735D01*
X175429465Y-59889931D01*
X175623420Y-60210000D01*
X175794462Y-60506940D01*
X175955354Y-60788156D01*
X176085316Y-61017125D01*
X176187723Y-61208947D01*
X176265950Y-61378723D01*
X176323372Y-61541554D01*
X176363364Y-61712539D01*
X176389300Y-61906778D01*
X176404557Y-62139372D01*
X176412508Y-62425422D01*
X176416529Y-62780026D01*
X176419995Y-63218286D01*
X176420843Y-63309483D01*
X176436686Y-64940767D01*
X177046621Y-65098599D01*
X177686685Y-65296521D01*
X178233849Y-65535072D01*
X178688422Y-65814452D01*
X179050714Y-66134864D01*
X179321035Y-66496509D01*
X179388600Y-66621863D01*
X179554600Y-66958847D01*
X179585740Y-69885333D01*
X180195144Y-69312366D01*
X180470150Y-69056821D01*
X180686200Y-68865290D01*
X180855939Y-68729703D01*
X180992012Y-68641992D01*
X181107066Y-68594088D01*
X181213744Y-68577923D01*
X181324693Y-68585428D01*
X181332600Y-68586579D01*
X181572353Y-68651333D01*
X181870830Y-68777708D01*
X182214374Y-68956031D01*
X182589326Y-69176625D01*
X182982026Y-69429818D01*
X183378815Y-69705934D01*
X183766036Y-69995299D01*
X184130029Y-70288238D01*
X184457136Y-70575076D01*
X184733697Y-70846139D01*
X184946055Y-71091753D01*
X185022896Y-71200445D01*
X185168000Y-71426291D01*
X185168000Y-72889545D01*
X185168794Y-73263319D01*
X185171040Y-73601844D01*
X185174530Y-73892446D01*
X185179058Y-74122455D01*
X185184417Y-74279197D01*
X185190400Y-74350001D01*
X185191880Y-74352800D01*
X185245653Y-74331371D01*
X185364584Y-74275005D01*
X185523663Y-74195583D01*
X185534780Y-74189914D01*
X185873156Y-74053355D01*
X186182690Y-74000215D01*
X186454882Y-74029243D01*
X186681229Y-74139187D01*
X186853232Y-74328796D01*
X186886951Y-74388907D01*
X187015940Y-74675309D01*
X187149478Y-75025827D01*
X187275432Y-75404356D01*
X187381667Y-75774792D01*
X187447494Y-76056801D01*
X187478786Y-76220928D01*
X187504797Y-76380291D01*
X187525923Y-76545656D01*
X187542565Y-76727789D01*
X187555120Y-76937455D01*
X187563987Y-77185421D01*
X187569564Y-77482453D01*
X187572250Y-77839316D01*
X187572442Y-78266776D01*
X187570540Y-78775599D01*
X187567454Y-79298514D01*
X187555600Y-81120028D01*
X187187300Y-81500069D01*
X186737636Y-81933357D01*
X186264841Y-82324869D01*
X185749561Y-82688242D01*
X185172442Y-83037109D01*
X184514129Y-83385108D01*
X184505836Y-83389245D01*
X183630654Y-83782185D01*
X182732533Y-84102381D01*
X181825275Y-84346877D01*
X180922677Y-84512720D01*
X180038539Y-84596953D01*
X179186661Y-84596622D01*
X178945000Y-84580064D01*
X178028363Y-84466661D01*
X177113456Y-84281038D01*
X176195638Y-84020923D01*
X175270267Y-83684046D01*
X174332702Y-83268138D01*
X173378303Y-82770927D01*
X173317600Y-82734800D01*
X180556862Y-82734800D01*
X180631301Y-82721837D01*
X180782385Y-82686432D01*
X180988998Y-82633805D01*
X181230024Y-82569178D01*
X181260440Y-82560813D01*
X182166161Y-82283503D01*
X183007666Y-81969849D01*
X183779135Y-81623063D01*
X184474744Y-81246354D01*
X185088672Y-80842934D01*
X185615096Y-80416011D01*
X186048194Y-79968796D01*
X186119529Y-79881699D01*
X186500452Y-79337118D01*
X186784712Y-78779504D01*
X186977223Y-78198119D01*
X187047660Y-77852744D01*
X187074151Y-77627604D01*
X187072135Y-77421451D01*
X187036679Y-77210665D01*
X186962850Y-76971622D01*
X186845712Y-76680703D01*
X186764777Y-76498272D01*
X186653665Y-76267064D01*
X186559585Y-76115591D01*
X186465867Y-76027742D01*
X186355843Y-75987402D01*
X186226971Y-75978400D01*
X186072387Y-75991273D01*
X185900561Y-76032720D01*
X185704302Y-76106979D01*
X185476423Y-76218290D01*
X185209733Y-76370891D01*
X184897044Y-76569023D01*
X184531166Y-76816923D01*
X184104911Y-77118832D01*
X183611089Y-77478988D01*
X183333277Y-77684699D01*
X183004268Y-77928331D01*
X182695646Y-78155008D01*
X182418312Y-78356865D01*
X182183164Y-78526041D01*
X182001102Y-78654672D01*
X181883025Y-78734896D01*
X181847780Y-78756342D01*
X181702560Y-78831517D01*
X181831848Y-78967058D01*
X181937071Y-79101827D01*
X182013361Y-79240932D01*
X182015168Y-79245607D01*
X182039392Y-79365641D01*
X182056686Y-79564003D01*
X182067242Y-79818458D01*
X182071253Y-80106767D01*
X182068914Y-80406697D01*
X182060416Y-80696010D01*
X182045953Y-80952471D01*
X182025719Y-81153843D01*
X181999907Y-81277890D01*
X181997452Y-81284179D01*
X181904639Y-81436189D01*
X181737876Y-81634423D01*
X181507499Y-81868368D01*
X181223842Y-82127513D01*
X180906216Y-82394106D01*
X180742308Y-82531447D01*
X180621813Y-82642297D01*
X180557683Y-82714024D01*
X180556862Y-82734800D01*
X173317600Y-82734800D01*
X172402428Y-82190144D01*
X171400435Y-81523519D01*
X171122048Y-81320072D01*
X174776964Y-81320072D01*
X174788576Y-81445322D01*
X174895125Y-81579045D01*
X175091092Y-81714523D01*
X175109546Y-81724735D01*
X175359588Y-81808844D01*
X175631442Y-81798487D01*
X175929109Y-81693026D01*
X176161871Y-81557709D01*
X176330588Y-81435598D01*
X176547007Y-81264551D01*
X176785264Y-81065708D01*
X177019497Y-80860208D01*
X177058146Y-80825136D01*
X177460971Y-80458336D01*
X177799621Y-80153351D01*
X178084546Y-79903046D01*
X178326196Y-79700290D01*
X178535024Y-79537950D01*
X178721478Y-79408895D01*
X178896011Y-79305990D01*
X179069071Y-79222104D01*
X179251111Y-79150105D01*
X179452579Y-79082860D01*
X179683928Y-79013236D01*
X179734709Y-78998396D01*
X180394604Y-78806000D01*
X180391030Y-77496728D01*
X180390382Y-77094778D01*
X180391529Y-76780438D01*
X180395421Y-76539721D01*
X180403007Y-76358641D01*
X180415236Y-76223211D01*
X180433057Y-76119443D01*
X180457420Y-76033352D01*
X180489273Y-75950951D01*
X180497191Y-75932369D01*
X180654788Y-75671097D01*
X180890921Y-75417315D01*
X181183470Y-75192311D01*
X181389673Y-75073455D01*
X181585915Y-74963810D01*
X181812446Y-74821919D01*
X182018400Y-74679799D01*
X182216757Y-74521205D01*
X182464129Y-74303973D01*
X182742446Y-74045771D01*
X183033641Y-73764267D01*
X183319647Y-73477127D01*
X183582394Y-73202022D01*
X183803814Y-72956617D01*
X183910114Y-72829989D01*
X184216470Y-72450179D01*
X183824200Y-72080134D01*
X183542178Y-71833859D01*
X183217046Y-71582623D01*
X182866266Y-71337149D01*
X182507303Y-71108161D01*
X182157618Y-70906381D01*
X181834675Y-70742534D01*
X181555937Y-70627342D01*
X181377323Y-70577580D01*
X181322277Y-70571252D01*
X181265228Y-70577538D01*
X181198583Y-70602643D01*
X181114743Y-70652777D01*
X181006113Y-70734145D01*
X180865098Y-70852955D01*
X180684100Y-71015416D01*
X180455525Y-71227735D01*
X180171775Y-71496118D01*
X179825256Y-71826775D01*
X179688123Y-71957997D01*
X179409364Y-72224779D01*
X179140978Y-72481502D01*
X178895866Y-72715836D01*
X178686931Y-72915449D01*
X178527073Y-73068011D01*
X178437000Y-73153781D01*
X178306101Y-73278839D01*
X178245700Y-73341116D01*
X178252577Y-73347746D01*
X178323510Y-73305862D01*
X178386200Y-73266290D01*
X178718759Y-73092615D01*
X179027055Y-73012573D01*
X179323091Y-73024893D01*
X179618868Y-73128301D01*
X179630800Y-73134282D01*
X179776513Y-73215606D01*
X179890673Y-73303248D01*
X179976696Y-73409962D01*
X180037999Y-73548505D01*
X180077998Y-73731632D01*
X180100111Y-73972100D01*
X180107753Y-74282664D01*
X180104342Y-74676079D01*
X180100051Y-74886200D01*
X180074826Y-76003800D01*
X177441956Y-78611332D01*
X177011529Y-79038549D01*
X176602124Y-79446708D01*
X176219518Y-79829940D01*
X175869486Y-80182372D01*
X175557805Y-80498136D01*
X175290249Y-80771360D01*
X175072595Y-80996173D01*
X174910619Y-81166706D01*
X174810095Y-81277087D01*
X174776964Y-81320072D01*
X171122048Y-81320072D01*
X170367685Y-80768781D01*
X169299534Y-79923659D01*
X169115200Y-79771752D01*
X168817093Y-79515334D01*
X168469347Y-79200580D01*
X168086269Y-78841705D01*
X167682166Y-78452925D01*
X167271347Y-78048452D01*
X166868120Y-77642503D01*
X166486793Y-77249290D01*
X166141672Y-76883029D01*
X165847067Y-76557933D01*
X165654842Y-76334000D01*
X165584043Y-76243960D01*
X167981262Y-76243960D01*
X167982538Y-76245803D01*
X168473065Y-76867227D01*
X168941236Y-77390820D01*
X169388190Y-77817597D01*
X169815067Y-78148573D01*
X170223004Y-78384762D01*
X170509513Y-78497917D01*
X170734748Y-78542613D01*
X171019541Y-78562600D01*
X171324984Y-78558194D01*
X171612164Y-78529712D01*
X171811079Y-78487334D01*
X171988609Y-78430286D01*
X172161717Y-78363798D01*
X172336917Y-78282939D01*
X172520724Y-78182773D01*
X172719652Y-78058369D01*
X172940217Y-77904791D01*
X173188931Y-77717108D01*
X173472311Y-77490385D01*
X173796870Y-77219688D01*
X174169123Y-76900086D01*
X174595585Y-76526643D01*
X175082771Y-76094427D01*
X175637193Y-75598504D01*
X175699183Y-75542886D01*
X176067065Y-75212663D01*
X176363650Y-74945819D01*
X176593222Y-74737838D01*
X176760063Y-74584202D01*
X176868458Y-74480391D01*
X176922690Y-74421889D01*
X176927042Y-74404178D01*
X176885798Y-74422739D01*
X176803242Y-74473055D01*
X176683657Y-74550608D01*
X176567507Y-74627051D01*
X176005885Y-74956039D01*
X175437983Y-75210057D01*
X174878249Y-75384001D01*
X174341130Y-75472767D01*
X174144400Y-75483132D01*
X173807829Y-75469549D01*
X173549491Y-75411345D01*
X173354192Y-75303828D01*
X173257062Y-75209111D01*
X173212856Y-75154107D01*
X173180149Y-75098961D01*
X173157208Y-75028303D01*
X173142303Y-74926764D01*
X173133700Y-74778974D01*
X173129668Y-74569563D01*
X173128474Y-74283164D01*
X173128400Y-74067478D01*
X173129893Y-73686958D01*
X173138192Y-73389775D01*
X173159025Y-73157670D01*
X173198118Y-72972386D01*
X173261199Y-72815664D01*
X173353997Y-72669248D01*
X173482238Y-72514879D01*
X173651650Y-72334299D01*
X173682003Y-72302746D01*
X173831855Y-72153105D01*
X173995561Y-72002743D01*
X174181812Y-71845262D01*
X174399300Y-71674269D01*
X174656717Y-71483367D01*
X174962755Y-71266162D01*
X175326106Y-71016257D01*
X175755460Y-70727258D01*
X176259510Y-70392769D01*
X176435090Y-70276999D01*
X176794195Y-70039107D01*
X177134295Y-69811148D01*
X177443985Y-69600966D01*
X177711860Y-69416406D01*
X177926512Y-69265313D01*
X178076538Y-69155531D01*
X178142328Y-69102753D01*
X178259665Y-68976598D01*
X178403463Y-68792700D01*
X178550355Y-68581860D01*
X178616869Y-68477252D01*
X178887462Y-68036005D01*
X178678542Y-67850605D01*
X178344959Y-67607953D01*
X177920103Y-67388432D01*
X177412391Y-67195578D01*
X176830243Y-67032926D01*
X176618070Y-66985389D01*
X176279307Y-66925911D01*
X175958874Y-66898289D01*
X175645179Y-66905958D01*
X175326629Y-66952350D01*
X174991631Y-67040899D01*
X174628595Y-67175036D01*
X174225926Y-67358195D01*
X173772033Y-67593809D01*
X173255324Y-67885312D01*
X172927238Y-68078393D01*
X172635382Y-68250784D01*
X172337768Y-68424205D01*
X172059857Y-68583981D01*
X171827109Y-68715436D01*
X171713020Y-68778247D01*
X171288241Y-69008123D01*
X172119420Y-69026591D01*
X172438887Y-69035076D01*
X172675844Y-69045790D01*
X172849381Y-69061091D01*
X172978589Y-69083340D01*
X173082558Y-69114894D01*
X173179200Y-69157531D01*
X173298604Y-69219292D01*
X173389320Y-69281167D01*
X173455127Y-69357310D01*
X173499800Y-69461878D01*
X173527118Y-69609029D01*
X173540856Y-69812917D01*
X173544793Y-70087699D01*
X173542704Y-70447532D01*
X173542030Y-70517400D01*
X173532045Y-71533400D01*
X173368322Y-71678610D01*
X173289599Y-71743009D01*
X173140204Y-71860103D01*
X172930812Y-72021718D01*
X172672097Y-72219679D01*
X172374736Y-72445812D01*
X172049404Y-72691943D01*
X171782200Y-72893219D01*
X171318943Y-73242011D01*
X170926172Y-73539122D01*
X170592754Y-73793382D01*
X170307558Y-74013618D01*
X170059453Y-74208659D01*
X169837306Y-74387334D01*
X169629988Y-74558472D01*
X169426365Y-74730900D01*
X169215307Y-74913447D01*
X169028667Y-75077069D01*
X168707965Y-75367368D01*
X168437933Y-75628037D01*
X168224408Y-75852553D01*
X168073229Y-76034394D01*
X167990234Y-76167038D01*
X167981262Y-76243960D01*
X165584043Y-76243960D01*
X164686817Y-75102901D01*
X163798149Y-73839592D01*
X162976792Y-72525567D01*
X162210698Y-71142320D01*
X161974329Y-70680200D01*
X161495199Y-69725400D01*
X161495208Y-69693691D01*
X164326318Y-69693691D01*
X164390766Y-70054745D01*
X164510874Y-70601313D01*
X164668111Y-71117918D01*
X164855504Y-71587483D01*
X165066078Y-71992931D01*
X165292860Y-72317186D01*
X165334041Y-72364697D01*
X165472419Y-72510229D01*
X165578347Y-72583983D01*
X165683598Y-72592907D01*
X165819946Y-72543948D01*
X165922610Y-72493388D01*
X166065898Y-72405329D01*
X166261232Y-72259549D01*
X166512333Y-72052891D01*
X166822925Y-71782198D01*
X167196732Y-71444312D01*
X167602123Y-71069104D01*
X167882069Y-70809904D01*
X168164394Y-70552382D01*
X168431944Y-70311902D01*
X168667565Y-70103831D01*
X168854102Y-69943533D01*
X168915998Y-69892266D01*
X169329951Y-69555624D01*
X169006675Y-69495519D01*
X168601925Y-69395989D01*
X168254311Y-69261377D01*
X167976412Y-69098297D01*
X167780805Y-68913359D01*
X167720085Y-68819246D01*
X167692263Y-68740017D01*
X167671279Y-68615783D01*
X167656214Y-68433700D01*
X167646149Y-68180923D01*
X167640163Y-67844606D01*
X167638696Y-67682503D01*
X167638458Y-67371886D01*
X167642042Y-67094011D01*
X167648924Y-66865673D01*
X167658581Y-66703666D01*
X167670488Y-66624784D01*
X167671772Y-66622131D01*
X167659416Y-66615454D01*
X167587084Y-66665013D01*
X167486514Y-66746651D01*
X167281591Y-66916482D01*
X167060451Y-67090290D01*
X166805703Y-67281115D01*
X166499951Y-67501998D01*
X166143400Y-67753661D01*
X165723181Y-68067349D01*
X165338967Y-68392133D01*
X165003873Y-68715142D01*
X164731016Y-69023503D01*
X164533514Y-69304346D01*
X164497346Y-69368945D01*
X164326318Y-69693691D01*
X161495208Y-69693691D01*
X161496080Y-66921000D01*
X161497155Y-66378988D01*
X161499919Y-65853648D01*
X161504199Y-65356353D01*
X161509818Y-64898480D01*
X161516602Y-64491404D01*
X161517399Y-64456006D01*
X162144993Y-64456006D01*
X162184718Y-64685350D01*
X162289176Y-64886810D01*
X162424874Y-65048151D01*
X162698163Y-65269046D01*
X162998283Y-65395803D01*
X163314289Y-65426445D01*
X163635238Y-65358991D01*
X163782900Y-65293762D01*
X164020016Y-65156035D01*
X164282807Y-64973943D01*
X164579249Y-64740894D01*
X164917317Y-64450301D01*
X165304988Y-64095574D01*
X165750236Y-63670124D01*
X165761340Y-63659336D01*
X166119073Y-63315053D01*
X166416692Y-63037187D01*
X166663748Y-62818198D01*
X166869791Y-62650547D01*
X167044372Y-62526694D01*
X167197039Y-62439100D01*
X167337344Y-62380224D01*
X167409421Y-62358231D01*
X167715386Y-62325145D01*
X168009328Y-62389553D01*
X168282131Y-62547392D01*
X168524681Y-62794598D01*
X168589287Y-62884244D01*
X168749174Y-63121873D01*
X168725371Y-64178036D01*
X168716946Y-64532487D01*
X168708496Y-64801461D01*
X168698037Y-65001060D01*
X168683589Y-65147389D01*
X168663167Y-65256551D01*
X168634790Y-65344650D01*
X168596475Y-65427788D01*
X168563941Y-65489320D01*
X168426315Y-65744441D01*
X168834257Y-65497620D01*
X169070110Y-65360180D01*
X169349931Y-65204920D01*
X169626119Y-65058036D01*
X169724800Y-65007554D01*
X170031838Y-64855760D01*
X170342626Y-64708706D01*
X170669089Y-64561443D01*
X171023152Y-64409019D01*
X171416741Y-64246483D01*
X171861781Y-64068886D01*
X172370197Y-63871276D01*
X172953915Y-63648703D01*
X173433200Y-63468080D01*
X173901814Y-63287431D01*
X174342132Y-63108574D01*
X174740705Y-62937475D01*
X175084088Y-62780100D01*
X175358831Y-62642416D01*
X175551490Y-62530388D01*
X175561021Y-62524022D01*
X175583900Y-62485805D01*
X175571589Y-62413241D01*
X175518332Y-62291320D01*
X175418370Y-62105032D01*
X175362463Y-62006413D01*
X175177841Y-61696415D01*
X175024651Y-61470120D01*
X174894312Y-61317838D01*
X174778250Y-61229882D01*
X174667884Y-61196562D01*
X174644614Y-61195600D01*
X174567033Y-61200112D01*
X174486688Y-61218225D01*
X174391641Y-61256800D01*
X174269957Y-61322696D01*
X174109699Y-61422777D01*
X173898930Y-61563903D01*
X173625714Y-61752936D01*
X173400266Y-61910869D01*
X173073926Y-62137570D01*
X172794914Y-62323649D01*
X172542481Y-62480144D01*
X172295879Y-62618093D01*
X172034360Y-62748537D01*
X171737174Y-62882514D01*
X171383575Y-63031064D01*
X171012259Y-63181407D01*
X170595510Y-63343419D01*
X170258639Y-63461670D01*
X169990864Y-63538266D01*
X169781404Y-63575308D01*
X169619476Y-63574900D01*
X169494301Y-63539145D01*
X169420000Y-63491985D01*
X169293000Y-63389096D01*
X169275779Y-62311709D01*
X169272107Y-61979712D01*
X169271760Y-61672313D01*
X169274517Y-61407600D01*
X169280158Y-61203663D01*
X169288464Y-61078590D01*
X169290984Y-61061475D01*
X169343089Y-60902380D01*
X169443876Y-60753575D01*
X169604235Y-60605759D01*
X169835059Y-60449635D01*
X170147236Y-60275901D01*
X170305126Y-60195497D01*
X170722606Y-59983157D01*
X171065372Y-59799114D01*
X171352358Y-59632264D01*
X171602500Y-59471506D01*
X171834733Y-59305734D01*
X171877342Y-59273556D01*
X172175685Y-59046454D01*
X172055142Y-58954529D01*
X171893856Y-58860285D01*
X171670349Y-58765238D01*
X171422975Y-58682353D01*
X171190087Y-58624597D01*
X171020600Y-58604799D01*
X170846407Y-58616867D01*
X170691600Y-58646819D01*
X170662348Y-58656455D01*
X170597838Y-58702131D01*
X170469234Y-58811465D01*
X170284805Y-58976798D01*
X170052821Y-59190471D01*
X169781551Y-59444827D01*
X169479265Y-59732205D01*
X169154232Y-60044948D01*
X168969941Y-60223847D01*
X168469713Y-60710118D01*
X168034652Y-61131037D01*
X167657927Y-61492941D01*
X167332709Y-61802168D01*
X167052170Y-62065055D01*
X166809481Y-62287938D01*
X166597812Y-62477155D01*
X166410335Y-62639044D01*
X166240220Y-62779941D01*
X166080639Y-62906183D01*
X166073273Y-62911870D01*
X165892840Y-63048236D01*
X165763847Y-63132995D01*
X165658463Y-63178092D01*
X165548860Y-63195471D01*
X165408741Y-63197100D01*
X165059761Y-63154497D01*
X164729974Y-63044046D01*
X164451408Y-62877605D01*
X164380326Y-62816365D01*
X164187600Y-62633731D01*
X164187600Y-61758032D01*
X164184988Y-61446285D01*
X164177582Y-61193871D01*
X164166026Y-61012486D01*
X164150965Y-60913823D01*
X164140302Y-60899266D01*
X164057466Y-60948527D01*
X163919136Y-61050744D01*
X163744418Y-61189899D01*
X163552417Y-61349974D01*
X163362240Y-61514950D01*
X163192991Y-61668808D01*
X163063776Y-61795531D01*
X163037315Y-61824032D01*
X162770872Y-62187110D01*
X162544040Y-62636073D01*
X162360200Y-63161884D01*
X162222732Y-63755508D01*
X162160582Y-64167400D01*
X162144993Y-64456006D01*
X161517399Y-64456006D01*
X161524375Y-64146498D01*
X161532964Y-63875138D01*
X161542191Y-63688700D01*
X161546663Y-63634000D01*
X161613051Y-63122734D01*
X161706619Y-62593344D01*
X161821908Y-62067496D01*
X161953457Y-61566854D01*
X162095807Y-61113084D01*
X162243498Y-60727850D01*
X162321203Y-60560600D01*
X162477378Y-60313961D01*
X162711862Y-60029506D01*
X163012870Y-59716387D01*
X163368619Y-59383752D01*
X163767324Y-59040753D01*
X164197200Y-58696539D01*
X164646464Y-58360261D01*
X165103331Y-58041070D01*
X165556017Y-57748115D01*
X165992737Y-57490546D01*
X166401708Y-57277515D01*
X166738661Y-57130523D01*
X167079723Y-57021868D01*
X167375460Y-56974120D01*
X167615505Y-56987441D01*
X167789490Y-57061996D01*
X167841512Y-57113050D01*
X167879856Y-57168744D01*
X167907603Y-57234333D01*
X167926450Y-57326176D01*
X167938091Y-57460630D01*
X167944221Y-57654057D01*
X167946536Y-57922814D01*
X167946800Y-58129050D01*
X167948798Y-58415657D01*
X167954343Y-58663367D01*
X167962754Y-58855861D01*
X167973353Y-58976818D01*
X167983475Y-59011200D01*
X168027136Y-58976667D01*
X168133690Y-58878774D01*
X168294264Y-58726075D01*
X168499983Y-58527124D01*
X168741972Y-58290478D01*
X169011359Y-58024691D01*
X169164575Y-57872578D01*
X169503207Y-57536321D01*
X169780473Y-57265043D01*
X170007025Y-57052055D01*
X170193516Y-56890671D01*
X170350598Y-56774203D01*
X170488923Y-56695964D01*
X170619144Y-56649266D01*
X170751912Y-56627423D01*
X170897881Y-56623747D01*
X171067702Y-56631550D01*
D14*
X192200000Y-54450000D03*
X192200000Y-55400000D03*
X192200000Y-56350000D03*
X195800000Y-56350000D03*
X195800000Y-55400000D03*
X195800000Y-54450000D03*
D15*
X194000000Y-55400000D03*
D16*
X177600000Y-49000000D03*
X176400000Y-49000000D03*
X177600000Y-48000000D03*
X176400000Y-48000000D03*
X177600000Y-47000000D03*
X176400000Y-47000000D03*
D17*
X184000000Y-48600000D03*
X182750000Y-48600000D03*
X185250000Y-48600000D03*
X186500000Y-48600000D03*
D18*
X179500000Y-45550000D03*
X188500000Y-45550000D03*
D17*
X181500000Y-48600000D03*
D16*
X172400000Y-48000000D03*
X173600000Y-48000000D03*
X172400000Y-49000000D03*
X173600000Y-49000000D03*
X172400000Y-47000000D03*
X173600000Y-47000000D03*
D17*
X166000000Y-48600000D03*
X164750000Y-48600000D03*
X167250000Y-48600000D03*
X168500000Y-48600000D03*
D18*
X161500000Y-45550000D03*
X170500000Y-45550000D03*
D17*
X163500000Y-48600000D03*
D19*
X195000000Y-69050000D03*
X195000000Y-72550000D03*
D20*
X175000000Y-46400000D03*
X175000000Y-47600000D03*
D16*
X174400000Y-44500000D03*
X175600000Y-44500000D03*
D21*
X149800000Y-54650000D03*
X149800000Y-56150000D03*
X149800000Y-51650000D03*
D22*
X148800000Y-50200000D03*
X146800000Y-50200000D03*
X148800000Y-57600000D03*
X146800000Y-57600000D03*
D23*
X147800000Y-55400000D03*
X147800000Y-52400000D03*
D24*
X194950000Y-58000000D03*
X193050000Y-58000000D03*
D25*
X190000000Y-56350000D03*
X190000000Y-54450000D03*
D26*
X181275000Y-90225000D03*
X197875000Y-90225000D03*
D27*
X202675000Y-64125000D03*
X147675000Y-64125000D03*
D28*
X197000000Y-76250000D03*
X161600000Y-43600000D03*
X170400000Y-43600000D03*
X179600000Y-43600000D03*
X188400000Y-43600000D03*
X189600000Y-45400000D03*
X187400000Y-45400000D03*
X180600000Y-45400000D03*
X178400000Y-45400000D03*
X160400000Y-45400000D03*
X162600000Y-45400000D03*
X169400000Y-45400000D03*
X171600000Y-45400000D03*
X175000000Y-50000000D03*
X173600000Y-46100000D03*
X151500000Y-56100000D03*
X188800000Y-54400000D03*
X187400000Y-48600000D03*
X169400000Y-48600000D03*
X193000000Y-59000000D03*
X194000000Y-55400000D03*
X175000000Y-43200000D03*
X175000000Y-48600000D03*
X162600000Y-48600000D03*
X180600000Y-48600000D03*
X178300000Y-56400000D03*
D29*
X195000000Y-72550000D02*
X195000000Y-74250000D01*
X195000000Y-74250000D02*
X196000000Y-75250000D01*
X196000000Y-75250000D02*
X197000000Y-76250000D01*
D30*
X161500000Y-45550000D02*
X161500000Y-43700000D01*
X161500000Y-43700000D02*
X161600000Y-43600000D01*
X170500000Y-45550000D02*
X170500000Y-43700000D01*
X170500000Y-43700000D02*
X170400000Y-43600000D01*
X179500000Y-45550000D02*
X179500000Y-43700000D01*
X179500000Y-43700000D02*
X179600000Y-43600000D01*
X188500000Y-45550000D02*
X188500000Y-43700000D01*
X188500000Y-43700000D02*
X188400000Y-43600000D01*
X188500000Y-45550000D02*
X189450000Y-45550000D01*
X189450000Y-45550000D02*
X189600000Y-45400000D01*
X188500000Y-45550000D02*
X187550000Y-45550000D01*
X187550000Y-45550000D02*
X187400000Y-45400000D01*
X179500000Y-45550000D02*
X180450000Y-45550000D01*
X180450000Y-45550000D02*
X180600000Y-45400000D01*
X179500000Y-45550000D02*
X178550000Y-45550000D01*
X178550000Y-45550000D02*
X178400000Y-45400000D01*
X161500000Y-45550000D02*
X160550000Y-45550000D01*
X160550000Y-45550000D02*
X160400000Y-45400000D01*
X161500000Y-45550000D02*
X162450000Y-45550000D01*
X162450000Y-45550000D02*
X162600000Y-45400000D01*
X170500000Y-45550000D02*
X169550000Y-45550000D01*
X169550000Y-45550000D02*
X169400000Y-45400000D01*
X170500000Y-45550000D02*
X171450000Y-45550000D01*
X171450000Y-45550000D02*
X171600000Y-45400000D01*
X170500000Y-45550000D02*
X171350000Y-45550000D01*
X175000000Y-49600000D02*
X175000000Y-50000000D01*
X176400000Y-47000000D02*
X176400000Y-48000000D01*
X175000000Y-47600000D02*
X176000000Y-47600000D01*
X176000000Y-47600000D02*
X176400000Y-48000000D01*
X173600000Y-47000000D02*
X173600000Y-46100000D01*
X173600000Y-49000000D02*
X174400000Y-49000000D01*
X174400000Y-49000000D02*
X175000000Y-49600000D01*
X173600000Y-47000000D02*
X174400000Y-47000000D01*
X174400000Y-47000000D02*
X175000000Y-47600000D01*
X149800000Y-56150000D02*
X151450000Y-56150000D01*
X151450000Y-56150000D02*
X151500000Y-56100000D01*
D29*
X190000000Y-54400000D02*
X188800000Y-54400000D01*
X186500000Y-48600000D02*
X187400000Y-48600000D01*
X168500000Y-48600000D02*
X169400000Y-48600000D01*
X193000000Y-58000000D02*
X193000000Y-59000000D01*
X194000000Y-55400000D02*
X194000000Y-54964998D01*
X194000000Y-54964998D02*
X193234992Y-54199990D01*
X193234992Y-54199990D02*
X191702940Y-54199990D01*
X191702940Y-54199990D02*
X191502930Y-54400000D01*
X191502930Y-54400000D02*
X190000000Y-54400000D01*
X193000000Y-58000000D02*
X193650001Y-57349999D01*
X193650001Y-57349999D02*
X193650001Y-55749999D01*
X193650001Y-55749999D02*
X194000000Y-55400000D01*
D30*
X175000000Y-45000000D02*
X175000000Y-46400000D01*
X174450000Y-45000000D02*
X175000000Y-45000000D01*
X174400000Y-44500000D02*
X174400000Y-44950000D01*
X174400000Y-44950000D02*
X174450000Y-45000000D01*
X171050000Y-50200000D02*
X167050000Y-50200000D01*
X167050000Y-50200000D02*
X166000000Y-49150000D01*
X166000000Y-49150000D02*
X166000000Y-48600000D01*
X172400000Y-49000000D02*
X172250000Y-49000000D01*
X172250000Y-49000000D02*
X171050000Y-50200000D01*
X166000000Y-48159998D02*
X166000000Y-48600000D01*
X171400000Y-47400000D02*
X165400000Y-47400000D01*
X165400000Y-47400000D02*
X164750000Y-48050000D01*
X164750000Y-48050000D02*
X164750000Y-48600000D01*
X172400000Y-47000000D02*
X171800000Y-47000000D01*
X171800000Y-47000000D02*
X171400000Y-47400000D01*
X167250000Y-49150000D02*
X167250000Y-48600000D01*
X172400000Y-48000000D02*
X172250000Y-48000000D01*
X172250000Y-48000000D02*
X170499999Y-49750001D01*
X170499999Y-49750001D02*
X167850001Y-49750001D01*
X167850001Y-49750001D02*
X167250000Y-49150000D01*
X175000000Y-44000000D02*
X175000000Y-43200000D01*
X175550000Y-44000000D02*
X175000000Y-44000000D01*
X175600000Y-44500000D02*
X175600000Y-44050000D01*
X175600000Y-44050000D02*
X175550000Y-44000000D01*
X176400000Y-49000000D02*
X175400000Y-49000000D01*
X175400000Y-49000000D02*
X175000000Y-48600000D01*
X173600000Y-48000000D02*
X173750000Y-48000000D01*
X173750000Y-48000000D02*
X174350000Y-48600000D01*
X174350000Y-48600000D02*
X175000000Y-48600000D01*
D29*
X162600000Y-48600000D02*
X163500000Y-48600000D01*
X181500000Y-48600000D02*
X180600000Y-48600000D01*
X190000000Y-56400000D02*
X178300000Y-56400000D01*
X192200000Y-56350000D02*
X192200000Y-55400000D01*
X190000000Y-56400000D02*
X192150000Y-56400000D01*
X192150000Y-56400000D02*
X192200000Y-56350000D01*
X189900000Y-56400000D02*
X190000000Y-56400000D01*
D30*
X194975000Y-53200000D02*
X151200000Y-53200000D01*
X151200000Y-53200000D02*
X149800000Y-54600000D01*
X149800000Y-54600000D02*
X149800000Y-54650000D01*
X194975000Y-53200000D02*
X195800000Y-54025000D01*
X195800000Y-54025000D02*
X195800000Y-54450000D01*
X195800000Y-54450000D02*
X195800000Y-54200000D01*
X195800000Y-56350000D02*
X196325000Y-56350000D01*
X196325000Y-56350000D02*
X196900000Y-55775000D01*
X196900000Y-55775000D02*
X196900000Y-54034998D01*
X196900000Y-54034998D02*
X195665002Y-52800000D01*
X195665002Y-52800000D02*
X151200000Y-52800000D01*
X151200000Y-52800000D02*
X150050000Y-51650000D01*
X150050000Y-51650000D02*
X149800000Y-51650000D01*
X150450000Y-51650000D02*
X149800000Y-51650000D01*
D29*
X195000000Y-61200000D02*
X195000000Y-68600000D01*
X195000000Y-58000000D02*
X195000000Y-61200000D01*
X195800000Y-56350000D02*
X195800000Y-57200000D01*
X195800000Y-57200000D02*
X195000000Y-58000000D01*
D30*
X180400000Y-49800000D02*
X183350000Y-49800000D01*
X183350000Y-49800000D02*
X184000000Y-49150000D01*
X184000000Y-49150000D02*
X184000000Y-48600000D01*
X178600000Y-48000000D02*
X180400000Y-49800000D01*
X177600000Y-48000000D02*
X178600000Y-48000000D01*
X178600000Y-47400000D02*
X182100000Y-47400000D01*
X182100000Y-47400000D02*
X182750000Y-48050000D01*
X182750000Y-48050000D02*
X182750000Y-48600000D01*
X177600000Y-47000000D02*
X178200000Y-47000000D01*
X178200000Y-47000000D02*
X178600000Y-47400000D01*
X179400000Y-50200000D02*
X184200000Y-50200000D01*
X184200000Y-50200000D02*
X185250000Y-49150000D01*
X185250000Y-49150000D02*
X185250000Y-48600000D01*
X177600000Y-49000000D02*
X178200000Y-49000000D01*
X178200000Y-49000000D02*
X179400000Y-50200000D01*
G36*
X165400000Y-41000000D02*
X165406839Y-41036346D01*
X165428319Y-41069727D01*
X165461094Y-41092121D01*
X165500000Y-41100000D01*
X166366666Y-41100000D01*
X166366666Y-41140000D01*
X183633334Y-41140000D01*
X183633334Y-41100000D01*
X186000000Y-41100000D01*
X186036346Y-41093161D01*
X186069727Y-41071681D01*
X186092121Y-41038906D01*
X186100000Y-41000000D01*
X186100000Y-36194155D01*
X205103761Y-36194155D01*
X205103761Y-53900000D01*
X197275330Y-53900000D01*
X197271394Y-53886451D01*
X197270426Y-53884583D01*
X197269818Y-53882570D01*
X197252469Y-53849940D01*
X197235468Y-53817143D01*
X197234156Y-53815500D01*
X197233168Y-53813641D01*
X197209798Y-53784987D01*
X197186764Y-53756132D01*
X197183876Y-53753202D01*
X197183828Y-53753144D01*
X197183774Y-53753099D01*
X197182843Y-53752155D01*
X195947845Y-52517157D01*
X195919260Y-52493677D01*
X195890989Y-52469955D01*
X195889147Y-52468942D01*
X195887520Y-52467606D01*
X195854949Y-52450142D01*
X195822579Y-52432346D01*
X195820573Y-52431710D01*
X195818720Y-52430716D01*
X195783423Y-52419925D01*
X195748167Y-52408741D01*
X195746073Y-52408506D01*
X195744064Y-52407892D01*
X195707315Y-52404159D01*
X195670587Y-52400039D01*
X195666480Y-52400010D01*
X195666398Y-52400002D01*
X195666322Y-52400009D01*
X195665002Y-52400000D01*
X151365685Y-52400000D01*
X151077135Y-52111449D01*
X151089516Y-52083982D01*
X151101451Y-52000000D01*
X151101451Y-51300000D01*
X151097641Y-51252226D01*
X151072548Y-51171197D01*
X151025874Y-51100366D01*
X150961315Y-51045343D01*
X150883982Y-51010484D01*
X150800000Y-50998549D01*
X149422923Y-50998549D01*
X149454657Y-50961315D01*
X149489516Y-50883982D01*
X149501451Y-50800000D01*
X149501451Y-49600000D01*
X149497641Y-49552226D01*
X149472548Y-49471197D01*
X149425874Y-49400366D01*
X149361315Y-49345343D01*
X149283982Y-49310484D01*
X149200000Y-49298549D01*
X148400000Y-49298549D01*
X148352226Y-49302359D01*
X148271197Y-49327452D01*
X148200366Y-49374126D01*
X148145343Y-49438685D01*
X148110484Y-49516018D01*
X148098549Y-49600000D01*
X148098549Y-50800000D01*
X148102359Y-50847774D01*
X148127452Y-50928803D01*
X148174126Y-50999634D01*
X148238685Y-51054657D01*
X148316018Y-51089516D01*
X148400000Y-51101451D01*
X148577077Y-51101451D01*
X148545343Y-51138685D01*
X148510484Y-51216018D01*
X148498549Y-51300000D01*
X148498549Y-52000000D01*
X148502359Y-52047774D01*
X148527452Y-52128803D01*
X148574126Y-52199634D01*
X148638685Y-52254657D01*
X148716018Y-52289516D01*
X148800000Y-52301451D01*
X150135765Y-52301451D01*
X150834314Y-53000000D01*
X149934314Y-53900000D01*
X144853760Y-53900000D01*
X144853760Y-52463062D01*
X147049014Y-52463062D01*
X147075565Y-52607728D01*
X147129710Y-52744482D01*
X147209386Y-52868115D01*
X147311558Y-52973917D01*
X147432335Y-53057859D01*
X147567116Y-53116744D01*
X147710767Y-53148328D01*
X147857818Y-53151408D01*
X148002666Y-53125867D01*
X148139794Y-53072679D01*
X148263980Y-52993868D01*
X148370493Y-52892437D01*
X148455277Y-52772249D01*
X148515100Y-52637882D01*
X148547686Y-52494455D01*
X148550032Y-52326459D01*
X148521464Y-52182177D01*
X148465415Y-52046193D01*
X148384021Y-51923684D01*
X148280381Y-51819319D01*
X148158444Y-51737071D01*
X148022854Y-51680075D01*
X147878776Y-51650499D01*
X147731697Y-51649473D01*
X147587219Y-51677033D01*
X147450847Y-51732131D01*
X147327773Y-51812668D01*
X147222687Y-51915577D01*
X147139590Y-52036936D01*
X147081648Y-52172125D01*
X147051068Y-52315994D01*
X147049014Y-52463062D01*
X144853760Y-52463062D01*
X144853760Y-49600000D01*
X146098549Y-49600000D01*
X146098549Y-50800000D01*
X146102359Y-50847774D01*
X146127452Y-50928803D01*
X146174126Y-50999634D01*
X146238685Y-51054657D01*
X146316018Y-51089516D01*
X146400000Y-51101451D01*
X147200000Y-51101451D01*
X147247774Y-51097641D01*
X147328803Y-51072548D01*
X147399634Y-51025874D01*
X147454657Y-50961315D01*
X147489516Y-50883982D01*
X147501451Y-50800000D01*
X147501451Y-49600000D01*
X147497641Y-49552226D01*
X147472548Y-49471197D01*
X147425874Y-49400366D01*
X147361315Y-49345343D01*
X147283982Y-49310484D01*
X147200000Y-49298549D01*
X146400000Y-49298549D01*
X146352226Y-49302359D01*
X146271197Y-49327452D01*
X146200366Y-49374126D01*
X146145343Y-49438685D01*
X146110484Y-49516018D01*
X146098549Y-49600000D01*
X144853760Y-49600000D01*
X144853760Y-48594415D01*
X161800019Y-48594415D01*
X161814170Y-48749905D01*
X161858253Y-48899685D01*
X161930589Y-49038051D01*
X162028422Y-49159731D01*
X162148026Y-49260091D01*
X162284846Y-49335308D01*
X162433671Y-49382518D01*
X162588830Y-49399922D01*
X162600000Y-49400000D01*
X162898549Y-49400000D01*
X162898549Y-49450000D01*
X162902359Y-49497774D01*
X162927452Y-49578803D01*
X162974126Y-49649634D01*
X163038685Y-49704657D01*
X163116018Y-49739516D01*
X163200000Y-49751451D01*
X163800000Y-49751451D01*
X163847774Y-49747641D01*
X163928803Y-49722548D01*
X163999634Y-49675874D01*
X164054657Y-49611315D01*
X164089516Y-49533982D01*
X164101451Y-49450000D01*
X164101451Y-49122032D01*
X164148549Y-49065100D01*
X164148549Y-49450000D01*
X164152359Y-49497774D01*
X164177452Y-49578803D01*
X164224126Y-49649634D01*
X164288685Y-49704657D01*
X164366018Y-49739516D01*
X164450000Y-49751451D01*
X165050000Y-49751451D01*
X165097774Y-49747641D01*
X165178803Y-49722548D01*
X165249634Y-49675874D01*
X165304657Y-49611315D01*
X165339516Y-49533982D01*
X165351451Y-49450000D01*
X165351451Y-48014235D01*
X165398549Y-47967137D01*
X165398549Y-49450000D01*
X165402359Y-49497774D01*
X165427452Y-49578803D01*
X165474126Y-49649634D01*
X165538685Y-49704657D01*
X165616018Y-49739516D01*
X165700000Y-49751451D01*
X166035765Y-49751451D01*
X166767157Y-50482843D01*
X166795742Y-50506323D01*
X166824013Y-50530045D01*
X166825855Y-50531058D01*
X166827482Y-50532394D01*
X166860053Y-50549858D01*
X166892423Y-50567654D01*
X166894429Y-50568290D01*
X166896282Y-50569284D01*
X166931579Y-50580075D01*
X166966835Y-50591259D01*
X166968929Y-50591494D01*
X166970938Y-50592108D01*
X167007642Y-50595836D01*
X167044415Y-50599961D01*
X167048533Y-50599990D01*
X167048604Y-50599997D01*
X167048670Y-50599991D01*
X167050000Y-50600000D01*
X171050000Y-50600000D01*
X171086784Y-50596393D01*
X171123580Y-50593174D01*
X171125599Y-50592587D01*
X171127694Y-50592382D01*
X171163077Y-50581699D01*
X171198547Y-50571394D01*
X171200415Y-50570426D01*
X171202428Y-50569818D01*
X171235058Y-50552469D01*
X171267855Y-50535468D01*
X171269498Y-50534156D01*
X171271357Y-50533168D01*
X171300011Y-50509798D01*
X171328866Y-50486764D01*
X171331796Y-50483876D01*
X171331854Y-50483828D01*
X171331899Y-50483774D01*
X171332843Y-50482843D01*
X172264235Y-49551451D01*
X172800000Y-49551451D01*
X172847774Y-49547641D01*
X172928803Y-49522548D01*
X172999634Y-49475874D01*
X173000543Y-49474807D01*
X173008761Y-49483025D01*
X173057897Y-49515857D01*
X173112494Y-49538471D01*
X173170453Y-49550000D01*
X173325000Y-49550000D01*
X173400000Y-49475000D01*
X173400000Y-49125000D01*
X173800000Y-49125000D01*
X173800000Y-49475000D01*
X173875000Y-49550000D01*
X174029547Y-49550000D01*
X174087506Y-49538471D01*
X174142103Y-49515857D01*
X174191239Y-49483025D01*
X174233025Y-49441239D01*
X174265856Y-49392104D01*
X174288471Y-49337507D01*
X174300000Y-49279548D01*
X174300000Y-49200000D01*
X174225000Y-49125000D01*
X173800000Y-49125000D01*
X173400000Y-49125000D01*
X173200000Y-49125000D01*
X173200000Y-48875000D01*
X173400000Y-48875000D01*
X173400000Y-48750000D01*
X173800000Y-48750000D01*
X173800000Y-48875000D01*
X174059314Y-48875000D01*
X174067157Y-48882843D01*
X174095742Y-48906323D01*
X174124013Y-48930045D01*
X174125855Y-48931058D01*
X174127482Y-48932394D01*
X174160053Y-48949858D01*
X174192423Y-48967654D01*
X174194429Y-48968290D01*
X174196282Y-48969284D01*
X174231579Y-48980075D01*
X174266835Y-48991259D01*
X174268929Y-48991494D01*
X174270938Y-48992108D01*
X174307642Y-48995836D01*
X174344415Y-48999961D01*
X174348533Y-48999990D01*
X174348604Y-48999997D01*
X174348670Y-48999991D01*
X174350000Y-49000000D01*
X174552142Y-49000000D01*
X174609247Y-49059134D01*
X174705868Y-49126287D01*
X174813693Y-49173395D01*
X174928614Y-49198662D01*
X175035209Y-49200895D01*
X175117157Y-49282842D01*
X175145712Y-49306298D01*
X175174013Y-49330045D01*
X175175855Y-49331058D01*
X175177482Y-49332394D01*
X175210018Y-49349839D01*
X175242423Y-49367654D01*
X175244433Y-49368292D01*
X175246282Y-49369283D01*
X175281546Y-49380064D01*
X175316835Y-49391259D01*
X175318928Y-49391494D01*
X175320937Y-49392108D01*
X175357647Y-49395837D01*
X175394415Y-49399961D01*
X175398533Y-49399990D01*
X175398604Y-49399997D01*
X175398670Y-49399991D01*
X175400000Y-49400000D01*
X175741420Y-49400000D01*
X175774126Y-49449634D01*
X175838685Y-49504657D01*
X175916018Y-49539516D01*
X176000000Y-49551451D01*
X176800000Y-49551451D01*
X176847774Y-49547641D01*
X176928803Y-49522548D01*
X176999634Y-49475874D01*
X177001855Y-49473268D01*
X177038685Y-49504657D01*
X177116018Y-49539516D01*
X177200000Y-49551451D01*
X178000000Y-49551451D01*
X178047774Y-49547641D01*
X178128803Y-49522548D01*
X178145717Y-49511403D01*
X179117157Y-50482843D01*
X179145742Y-50506323D01*
X179174013Y-50530045D01*
X179175855Y-50531058D01*
X179177482Y-50532394D01*
X179210018Y-50549839D01*
X179242423Y-50567654D01*
X179244433Y-50568292D01*
X179246282Y-50569283D01*
X179281546Y-50580064D01*
X179316835Y-50591259D01*
X179318928Y-50591494D01*
X179320937Y-50592108D01*
X179357647Y-50595837D01*
X179394415Y-50599961D01*
X179398533Y-50599990D01*
X179398604Y-50599997D01*
X179398670Y-50599991D01*
X179400000Y-50600000D01*
X184200000Y-50600000D01*
X184236784Y-50596393D01*
X184273580Y-50593174D01*
X184275599Y-50592587D01*
X184277694Y-50592382D01*
X184313077Y-50581699D01*
X184348547Y-50571394D01*
X184350415Y-50570426D01*
X184352428Y-50569818D01*
X184385058Y-50552469D01*
X184417855Y-50535468D01*
X184419498Y-50534156D01*
X184421357Y-50533168D01*
X184450011Y-50509798D01*
X184478866Y-50486764D01*
X184481796Y-50483876D01*
X184481854Y-50483828D01*
X184481899Y-50483774D01*
X184482843Y-50482843D01*
X185214235Y-49751451D01*
X185550000Y-49751451D01*
X185597774Y-49747641D01*
X185678803Y-49722548D01*
X185749634Y-49675874D01*
X185804657Y-49611315D01*
X185839516Y-49533982D01*
X185851451Y-49450000D01*
X185851451Y-49075000D01*
X185900000Y-49075000D01*
X185900000Y-49479548D01*
X185911529Y-49537507D01*
X185934144Y-49592104D01*
X185966975Y-49641239D01*
X186008761Y-49683025D01*
X186057897Y-49715857D01*
X186112494Y-49738471D01*
X186170453Y-49750000D01*
X186275000Y-49750000D01*
X186350000Y-49675000D01*
X186350000Y-49000000D01*
X186650000Y-49000000D01*
X186650000Y-49675000D01*
X186725000Y-49750000D01*
X186829547Y-49750000D01*
X186887506Y-49738471D01*
X186942103Y-49715857D01*
X186991239Y-49683025D01*
X187033025Y-49641239D01*
X187065856Y-49592104D01*
X187088471Y-49537507D01*
X187100000Y-49479548D01*
X187100000Y-49075000D01*
X187025000Y-49000000D01*
X186650000Y-49000000D01*
X186350000Y-49000000D01*
X185975000Y-49000000D01*
X185900000Y-49075000D01*
X185851451Y-49075000D01*
X185851451Y-47750000D01*
X185849095Y-47720452D01*
X185900000Y-47720452D01*
X185900000Y-48125000D01*
X185975000Y-48200000D01*
X186350000Y-48200000D01*
X186350000Y-47525000D01*
X186650000Y-47525000D01*
X186650000Y-48200000D01*
X187025000Y-48200000D01*
X187100000Y-48125000D01*
X187100000Y-47720452D01*
X187088471Y-47662493D01*
X187065856Y-47607896D01*
X187033025Y-47558761D01*
X186991239Y-47516975D01*
X186942103Y-47484143D01*
X186887506Y-47461529D01*
X186829547Y-47450000D01*
X186725000Y-47450000D01*
X186650000Y-47525000D01*
X186350000Y-47525000D01*
X186275000Y-47450000D01*
X186170453Y-47450000D01*
X186112494Y-47461529D01*
X186057897Y-47484143D01*
X186008761Y-47516975D01*
X185966975Y-47558761D01*
X185934144Y-47607896D01*
X185911529Y-47662493D01*
X185900000Y-47720452D01*
X185849095Y-47720452D01*
X185847641Y-47702226D01*
X185822548Y-47621197D01*
X185775874Y-47550366D01*
X185711315Y-47495343D01*
X185633982Y-47460484D01*
X185550000Y-47448549D01*
X184950000Y-47448549D01*
X184902226Y-47452359D01*
X184821197Y-47477452D01*
X184750366Y-47524126D01*
X184695343Y-47588685D01*
X184660484Y-47666018D01*
X184648549Y-47750000D01*
X184648549Y-49185765D01*
X184601451Y-49232863D01*
X184601451Y-47750000D01*
X184597641Y-47702226D01*
X184572548Y-47621197D01*
X184525874Y-47550366D01*
X184461315Y-47495343D01*
X184383982Y-47460484D01*
X184300000Y-47448549D01*
X183700000Y-47448549D01*
X183652226Y-47452359D01*
X183571197Y-47477452D01*
X183500366Y-47524126D01*
X183445343Y-47588685D01*
X183410484Y-47666018D01*
X183398549Y-47750000D01*
X183398549Y-49185765D01*
X183351451Y-49232863D01*
X183351451Y-47750000D01*
X183347641Y-47702226D01*
X183322548Y-47621197D01*
X183275874Y-47550366D01*
X183211315Y-47495343D01*
X183133982Y-47460484D01*
X183050000Y-47448549D01*
X182714235Y-47448549D01*
X182382843Y-47117157D01*
X182354258Y-47093677D01*
X182325987Y-47069955D01*
X182324145Y-47068942D01*
X182322518Y-47067606D01*
X182289947Y-47050142D01*
X182257577Y-47032346D01*
X182255571Y-47031710D01*
X182253718Y-47030716D01*
X182218421Y-47019925D01*
X182183165Y-47008741D01*
X182181071Y-47008506D01*
X182179062Y-47007892D01*
X182142313Y-47004159D01*
X182105585Y-47000039D01*
X182101478Y-47000010D01*
X182101396Y-47000002D01*
X182101320Y-47000009D01*
X182100000Y-47000000D01*
X180283296Y-47000000D01*
X180288471Y-46987507D01*
X180300000Y-46929548D01*
X180300000Y-46025000D01*
X187700000Y-46025000D01*
X187700000Y-46929548D01*
X187711529Y-46987507D01*
X187734144Y-47042104D01*
X187766975Y-47091239D01*
X187808761Y-47133025D01*
X187857897Y-47165857D01*
X187912494Y-47188471D01*
X187970453Y-47200000D01*
X188175000Y-47200000D01*
X188250000Y-47125000D01*
X188250000Y-45950000D01*
X188750000Y-45950000D01*
X188750000Y-47125000D01*
X188825000Y-47200000D01*
X189029547Y-47200000D01*
X189087506Y-47188471D01*
X189142103Y-47165857D01*
X189191239Y-47133025D01*
X189233025Y-47091239D01*
X189265856Y-47042104D01*
X189288471Y-46987507D01*
X189300000Y-46929548D01*
X189300000Y-46025000D01*
X189225000Y-45950000D01*
X188750000Y-45950000D01*
X188250000Y-45950000D01*
X187775000Y-45950000D01*
X187700000Y-46025000D01*
X180300000Y-46025000D01*
X180225000Y-45950000D01*
X179750000Y-45950000D01*
X179750000Y-45970000D01*
X179250000Y-45970000D01*
X179250000Y-45950000D01*
X178775000Y-45950000D01*
X178700000Y-46025000D01*
X178700000Y-46929548D01*
X178701184Y-46935498D01*
X178482843Y-46717157D01*
X178454258Y-46693677D01*
X178425987Y-46669955D01*
X178424145Y-46668942D01*
X178422518Y-46667606D01*
X178389947Y-46650142D01*
X178357577Y-46632346D01*
X178355571Y-46631710D01*
X178353718Y-46630716D01*
X178318421Y-46619925D01*
X178283165Y-46608741D01*
X178281071Y-46608506D01*
X178279062Y-46607892D01*
X178262684Y-46606228D01*
X178225874Y-46550366D01*
X178161315Y-46495343D01*
X178083982Y-46460484D01*
X178000000Y-46448549D01*
X177200000Y-46448549D01*
X177152226Y-46452359D01*
X177071197Y-46477452D01*
X177000366Y-46524126D01*
X176999457Y-46525193D01*
X176991239Y-46516975D01*
X176942103Y-46484143D01*
X176887506Y-46461529D01*
X176829547Y-46450000D01*
X176675000Y-46450000D01*
X176600000Y-46525000D01*
X176600000Y-46875000D01*
X176800000Y-46875000D01*
X176800000Y-47125000D01*
X176600000Y-47125000D01*
X176600000Y-47475000D01*
X176625000Y-47500000D01*
X176600000Y-47525000D01*
X176600000Y-47875000D01*
X176800000Y-47875000D01*
X176800000Y-48125000D01*
X176600000Y-48125000D01*
X176600000Y-48250000D01*
X176200000Y-48250000D01*
X176200000Y-48125000D01*
X175775000Y-48125000D01*
X175700000Y-48200000D01*
X175700000Y-48279548D01*
X175711529Y-48337507D01*
X175734144Y-48392104D01*
X175766975Y-48441239D01*
X175808761Y-48483025D01*
X175835562Y-48500933D01*
X175800366Y-48524126D01*
X175745343Y-48588685D01*
X175740243Y-48600000D01*
X175599204Y-48600000D01*
X175600026Y-48541167D01*
X175577171Y-48425742D01*
X175532332Y-48316954D01*
X175467216Y-48218948D01*
X175461287Y-48212977D01*
X175483025Y-48191239D01*
X175515857Y-48142103D01*
X175538471Y-48087506D01*
X175550000Y-48029547D01*
X175550000Y-47875000D01*
X175475000Y-47800000D01*
X175125000Y-47800000D01*
X175125000Y-48000000D01*
X175005764Y-48000000D01*
X174945357Y-47999578D01*
X174943145Y-48000000D01*
X174875000Y-48000000D01*
X174875000Y-47800000D01*
X174525000Y-47800000D01*
X174450000Y-47875000D01*
X174450000Y-48029547D01*
X174461529Y-48087506D01*
X174484143Y-48142103D01*
X174516975Y-48191239D01*
X174525736Y-48200000D01*
X174515686Y-48200000D01*
X174301451Y-47985765D01*
X174301451Y-47750000D01*
X174297641Y-47702226D01*
X174272548Y-47621197D01*
X174225874Y-47550366D01*
X174166364Y-47499646D01*
X174191239Y-47483025D01*
X174233025Y-47441239D01*
X174265856Y-47392104D01*
X174288471Y-47337507D01*
X174300000Y-47279548D01*
X174300000Y-47200000D01*
X174225000Y-47125000D01*
X173800000Y-47125000D01*
X173800000Y-47250000D01*
X173400000Y-47250000D01*
X173400000Y-47125000D01*
X173200000Y-47125000D01*
X173200000Y-46875000D01*
X173400000Y-46875000D01*
X173400000Y-46525000D01*
X173800000Y-46525000D01*
X173800000Y-46875000D01*
X174225000Y-46875000D01*
X174300000Y-46800000D01*
X174300000Y-46720452D01*
X174288471Y-46662493D01*
X174265856Y-46607896D01*
X174233025Y-46558761D01*
X174191239Y-46516975D01*
X174142103Y-46484143D01*
X174087506Y-46461529D01*
X174029547Y-46450000D01*
X173875000Y-46450000D01*
X173800000Y-46525000D01*
X173400000Y-46525000D01*
X173325000Y-46450000D01*
X173170453Y-46450000D01*
X173112494Y-46461529D01*
X173057897Y-46484143D01*
X173008761Y-46516975D01*
X172998608Y-46527128D01*
X172961315Y-46495343D01*
X172883982Y-46460484D01*
X172800000Y-46448549D01*
X172000000Y-46448549D01*
X171952226Y-46452359D01*
X171871197Y-46477452D01*
X171800366Y-46524126D01*
X171745343Y-46588685D01*
X171737607Y-46605847D01*
X171726420Y-46606826D01*
X171724401Y-46607413D01*
X171722306Y-46607618D01*
X171686923Y-46618301D01*
X171651453Y-46628606D01*
X171649585Y-46629574D01*
X171647572Y-46630182D01*
X171614963Y-46647521D01*
X171582144Y-46664532D01*
X171580499Y-46665845D01*
X171578643Y-46666832D01*
X171550011Y-46690184D01*
X171521134Y-46713236D01*
X171518209Y-46716121D01*
X171518146Y-46716172D01*
X171518098Y-46716230D01*
X171517157Y-46717158D01*
X171298816Y-46935498D01*
X171300000Y-46929548D01*
X171300000Y-46025000D01*
X171225000Y-45950000D01*
X170750000Y-45950000D01*
X170750000Y-45970000D01*
X170250000Y-45970000D01*
X170250000Y-45950000D01*
X169775000Y-45950000D01*
X169700000Y-46025000D01*
X169700000Y-46929548D01*
X169711529Y-46987507D01*
X169716704Y-47000000D01*
X165400000Y-47000000D01*
X165363216Y-47003607D01*
X165326420Y-47006826D01*
X165324401Y-47007413D01*
X165322306Y-47007618D01*
X165286970Y-47018287D01*
X165251453Y-47028605D01*
X165249581Y-47029576D01*
X165247572Y-47030182D01*
X165215017Y-47047492D01*
X165182145Y-47064531D01*
X165180498Y-47065845D01*
X165178643Y-47066832D01*
X165150016Y-47090179D01*
X165121134Y-47113236D01*
X165118204Y-47116124D01*
X165118146Y-47116172D01*
X165118101Y-47116226D01*
X165117157Y-47117157D01*
X164785765Y-47448549D01*
X164450000Y-47448549D01*
X164402226Y-47452359D01*
X164321197Y-47477452D01*
X164250366Y-47524126D01*
X164195343Y-47588685D01*
X164160484Y-47666018D01*
X164148549Y-47750000D01*
X164148549Y-48136002D01*
X164101451Y-48077424D01*
X164101451Y-47750000D01*
X164097641Y-47702226D01*
X164072548Y-47621197D01*
X164025874Y-47550366D01*
X163961315Y-47495343D01*
X163883982Y-47460484D01*
X163800000Y-47448549D01*
X163200000Y-47448549D01*
X163152226Y-47452359D01*
X163071197Y-47477452D01*
X163000366Y-47524126D01*
X162945343Y-47588685D01*
X162910484Y-47666018D01*
X162898549Y-47750000D01*
X162898549Y-47800000D01*
X162600000Y-47800000D01*
X162444613Y-47815236D01*
X162295144Y-47860363D01*
X162157287Y-47933663D01*
X162036293Y-48032343D01*
X161936770Y-48152646D01*
X161862509Y-48289988D01*
X161816340Y-48439138D01*
X161800019Y-48594415D01*
X144853760Y-48594415D01*
X144853760Y-46025000D01*
X160700000Y-46025000D01*
X160700000Y-46929548D01*
X160711529Y-46987507D01*
X160734144Y-47042104D01*
X160766975Y-47091239D01*
X160808761Y-47133025D01*
X160857897Y-47165857D01*
X160912494Y-47188471D01*
X160970453Y-47200000D01*
X161175000Y-47200000D01*
X161250000Y-47125000D01*
X161250000Y-45950000D01*
X161750000Y-45950000D01*
X161750000Y-47125000D01*
X161825000Y-47200000D01*
X162029547Y-47200000D01*
X162087506Y-47188471D01*
X162142103Y-47165857D01*
X162191239Y-47133025D01*
X162233025Y-47091239D01*
X162265856Y-47042104D01*
X162288471Y-46987507D01*
X162300000Y-46929548D01*
X162300000Y-46025000D01*
X162225000Y-45950000D01*
X161750000Y-45950000D01*
X161250000Y-45950000D01*
X160775000Y-45950000D01*
X160700000Y-46025000D01*
X144853760Y-46025000D01*
X144853760Y-44170452D01*
X160700000Y-44170452D01*
X160700000Y-45075000D01*
X160775000Y-45150000D01*
X161250000Y-45150000D01*
X161250000Y-43975000D01*
X161750000Y-43975000D01*
X161750000Y-45150000D01*
X162225000Y-45150000D01*
X162300000Y-45075000D01*
X162300000Y-44170452D01*
X169700000Y-44170452D01*
X169700000Y-45075000D01*
X169775000Y-45150000D01*
X170250000Y-45150000D01*
X170250000Y-43975000D01*
X170750000Y-43975000D01*
X170750000Y-45150000D01*
X171225000Y-45150000D01*
X171300000Y-45075000D01*
X171300000Y-44250000D01*
X173698549Y-44250000D01*
X173698549Y-44750000D01*
X173702359Y-44797774D01*
X173727452Y-44878803D01*
X173774126Y-44949634D01*
X173838685Y-45004657D01*
X173916018Y-45039516D01*
X174000000Y-45051451D01*
X174014791Y-45051451D01*
X174018301Y-45063077D01*
X174028606Y-45098547D01*
X174029574Y-45100415D01*
X174030182Y-45102428D01*
X174047531Y-45135058D01*
X174064532Y-45167855D01*
X174065844Y-45169498D01*
X174066832Y-45171357D01*
X174090202Y-45200011D01*
X174113236Y-45228866D01*
X174116124Y-45231796D01*
X174116172Y-45231854D01*
X174116226Y-45231899D01*
X174117157Y-45232843D01*
X174167158Y-45282843D01*
X174195718Y-45306302D01*
X174224013Y-45330045D01*
X174225855Y-45331058D01*
X174227482Y-45332394D01*
X174260053Y-45349858D01*
X174292423Y-45367654D01*
X174294429Y-45368290D01*
X174296282Y-45369284D01*
X174331620Y-45380088D01*
X174366835Y-45391259D01*
X174368924Y-45391493D01*
X174370938Y-45392109D01*
X174407737Y-45395847D01*
X174444415Y-45399961D01*
X174448522Y-45399990D01*
X174448604Y-45399998D01*
X174448680Y-45399991D01*
X174450000Y-45400000D01*
X174600000Y-45400000D01*
X174600000Y-45741420D01*
X174550366Y-45774126D01*
X174495343Y-45838685D01*
X174460484Y-45916018D01*
X174448549Y-46000000D01*
X174448549Y-46800000D01*
X174452359Y-46847774D01*
X174477452Y-46928803D01*
X174524126Y-46999634D01*
X174525193Y-47000543D01*
X174516975Y-47008761D01*
X174484143Y-47057897D01*
X174461529Y-47112494D01*
X174450000Y-47170453D01*
X174450000Y-47325000D01*
X174525000Y-47400000D01*
X174875000Y-47400000D01*
X174875000Y-47200000D01*
X175125000Y-47200000D01*
X175125000Y-47400000D01*
X175475000Y-47400000D01*
X175550000Y-47325000D01*
X175550000Y-47200000D01*
X175700000Y-47200000D01*
X175700000Y-47279548D01*
X175711529Y-47337507D01*
X175734144Y-47392104D01*
X175766975Y-47441239D01*
X175808761Y-47483025D01*
X175834166Y-47500000D01*
X175808761Y-47516975D01*
X175766975Y-47558761D01*
X175734144Y-47607896D01*
X175711529Y-47662493D01*
X175700000Y-47720452D01*
X175700000Y-47800000D01*
X175775000Y-47875000D01*
X176200000Y-47875000D01*
X176200000Y-47525000D01*
X176175000Y-47500000D01*
X176200000Y-47475000D01*
X176200000Y-47125000D01*
X175775000Y-47125000D01*
X175700000Y-47200000D01*
X175550000Y-47200000D01*
X175550000Y-47170453D01*
X175538471Y-47112494D01*
X175515857Y-47057897D01*
X175483025Y-47008761D01*
X175472872Y-46998608D01*
X175504657Y-46961315D01*
X175539516Y-46883982D01*
X175551451Y-46800000D01*
X175551451Y-46720452D01*
X175700000Y-46720452D01*
X175700000Y-46800000D01*
X175775000Y-46875000D01*
X176200000Y-46875000D01*
X176200000Y-46525000D01*
X176125000Y-46450000D01*
X175970453Y-46450000D01*
X175912494Y-46461529D01*
X175857897Y-46484143D01*
X175808761Y-46516975D01*
X175766975Y-46558761D01*
X175734144Y-46607896D01*
X175711529Y-46662493D01*
X175700000Y-46720452D01*
X175551451Y-46720452D01*
X175551451Y-46000000D01*
X175547641Y-45952226D01*
X175522548Y-45871197D01*
X175475874Y-45800366D01*
X175411315Y-45745343D01*
X175400000Y-45740243D01*
X175400000Y-45051451D01*
X176000000Y-45051451D01*
X176047774Y-45047641D01*
X176128803Y-45022548D01*
X176199634Y-44975874D01*
X176254657Y-44911315D01*
X176289516Y-44833982D01*
X176301451Y-44750000D01*
X176301451Y-44250000D01*
X176297641Y-44202226D01*
X176287802Y-44170452D01*
X178700000Y-44170452D01*
X178700000Y-45075000D01*
X178775000Y-45150000D01*
X179250000Y-45150000D01*
X179250000Y-43975000D01*
X179750000Y-43975000D01*
X179750000Y-45150000D01*
X180225000Y-45150000D01*
X180300000Y-45075000D01*
X180300000Y-44170452D01*
X187700000Y-44170452D01*
X187700000Y-45075000D01*
X187775000Y-45150000D01*
X188250000Y-45150000D01*
X188250000Y-43975000D01*
X188750000Y-43975000D01*
X188750000Y-45150000D01*
X189225000Y-45150000D01*
X189300000Y-45075000D01*
X189300000Y-44170452D01*
X189288471Y-44112493D01*
X189265856Y-44057896D01*
X189233025Y-44008761D01*
X189191239Y-43966975D01*
X189142103Y-43934143D01*
X189087506Y-43911529D01*
X189029547Y-43900000D01*
X188825000Y-43900000D01*
X188750000Y-43975000D01*
X188250000Y-43975000D01*
X188175000Y-43900000D01*
X187970453Y-43900000D01*
X187912494Y-43911529D01*
X187857897Y-43934143D01*
X187808761Y-43966975D01*
X187766975Y-44008761D01*
X187734144Y-44057896D01*
X187711529Y-44112493D01*
X187700000Y-44170452D01*
X180300000Y-44170452D01*
X180288471Y-44112493D01*
X180265856Y-44057896D01*
X180233025Y-44008761D01*
X180191239Y-43966975D01*
X180142103Y-43934143D01*
X180087506Y-43911529D01*
X180029547Y-43900000D01*
X179825000Y-43900000D01*
X179750000Y-43975000D01*
X179250000Y-43975000D01*
X179175000Y-43900000D01*
X178970453Y-43900000D01*
X178912494Y-43911529D01*
X178857897Y-43934143D01*
X178808761Y-43966975D01*
X178766975Y-44008761D01*
X178734144Y-44057896D01*
X178711529Y-44112493D01*
X178700000Y-44170452D01*
X176287802Y-44170452D01*
X176272548Y-44121197D01*
X176225874Y-44050366D01*
X176161315Y-43995343D01*
X176083982Y-43960484D01*
X176000000Y-43948549D01*
X175985209Y-43948549D01*
X175981713Y-43936970D01*
X175971395Y-43901453D01*
X175970424Y-43899581D01*
X175969818Y-43897572D01*
X175952508Y-43865017D01*
X175935469Y-43832145D01*
X175934154Y-43830498D01*
X175933168Y-43828643D01*
X175909845Y-43800047D01*
X175886765Y-43771134D01*
X175883878Y-43768207D01*
X175883828Y-43768146D01*
X175883771Y-43768099D01*
X175882843Y-43767158D01*
X175832843Y-43717157D01*
X175804258Y-43693677D01*
X175775987Y-43669955D01*
X175774145Y-43668942D01*
X175772518Y-43667606D01*
X175739947Y-43650142D01*
X175707577Y-43632346D01*
X175705571Y-43631710D01*
X175703718Y-43630716D01*
X175668421Y-43619925D01*
X175633165Y-43608741D01*
X175631071Y-43608506D01*
X175629062Y-43607892D01*
X175592313Y-43604159D01*
X175555585Y-43600039D01*
X175551478Y-43600010D01*
X175551396Y-43600002D01*
X175551320Y-43600009D01*
X175550000Y-43600000D01*
X175450041Y-43600000D01*
X175456395Y-43593949D01*
X175524221Y-43497799D01*
X175572080Y-43390306D01*
X175598149Y-43275564D01*
X175600026Y-43141167D01*
X175577171Y-43025742D01*
X175532332Y-42916954D01*
X175467216Y-42818948D01*
X175384305Y-42735455D01*
X175286755Y-42669657D01*
X175178283Y-42624060D01*
X175063021Y-42600400D01*
X174945357Y-42599578D01*
X174829775Y-42621627D01*
X174720677Y-42665705D01*
X174622219Y-42730135D01*
X174538150Y-42812461D01*
X174471672Y-42909549D01*
X174425318Y-43017700D01*
X174400854Y-43132795D01*
X174399211Y-43250450D01*
X174420452Y-43366183D01*
X174463768Y-43475586D01*
X174527509Y-43574492D01*
X174600000Y-43649558D01*
X174600000Y-43948549D01*
X174000000Y-43948549D01*
X173952226Y-43952359D01*
X173871197Y-43977452D01*
X173800366Y-44024126D01*
X173745343Y-44088685D01*
X173710484Y-44166018D01*
X173698549Y-44250000D01*
X171300000Y-44250000D01*
X171300000Y-44170452D01*
X171288471Y-44112493D01*
X171265856Y-44057896D01*
X171233025Y-44008761D01*
X171191239Y-43966975D01*
X171142103Y-43934143D01*
X171087506Y-43911529D01*
X171029547Y-43900000D01*
X170825000Y-43900000D01*
X170750000Y-43975000D01*
X170250000Y-43975000D01*
X170175000Y-43900000D01*
X169970453Y-43900000D01*
X169912494Y-43911529D01*
X169857897Y-43934143D01*
X169808761Y-43966975D01*
X169766975Y-44008761D01*
X169734144Y-44057896D01*
X169711529Y-44112493D01*
X169700000Y-44170452D01*
X162300000Y-44170452D01*
X162288471Y-44112493D01*
X162265856Y-44057896D01*
X162233025Y-44008761D01*
X162191239Y-43966975D01*
X162142103Y-43934143D01*
X162087506Y-43911529D01*
X162029547Y-43900000D01*
X161825000Y-43900000D01*
X161750000Y-43975000D01*
X161250000Y-43975000D01*
X161175000Y-43900000D01*
X160970453Y-43900000D01*
X160912494Y-43911529D01*
X160857897Y-43934143D01*
X160808761Y-43966975D01*
X160766975Y-44008761D01*
X160734144Y-44057896D01*
X160711529Y-44112493D01*
X160700000Y-44170452D01*
X144853760Y-44170452D01*
X144853760Y-36194155D01*
X165400000Y-36194155D01*
X165400000Y-41000000D01*
X165400000Y-41000000D01*
G37*
X165400000Y-41000000D02*
X165406839Y-41036346D01*
X165428319Y-41069727D01*
X165461094Y-41092121D01*
X165500000Y-41100000D01*
X166366666Y-41100000D01*
X166366666Y-41140000D01*
X183633334Y-41140000D01*
X183633334Y-41100000D01*
X186000000Y-41100000D01*
X186036346Y-41093161D01*
X186069727Y-41071681D01*
X186092121Y-41038906D01*
X186100000Y-41000000D01*
X186100000Y-36194155D01*
X205103761Y-36194155D01*
X205103761Y-53900000D01*
X197275330Y-53900000D01*
X197271394Y-53886451D01*
X197270426Y-53884583D01*
X197269818Y-53882570D01*
X197252469Y-53849940D01*
X197235468Y-53817143D01*
X197234156Y-53815500D01*
X197233168Y-53813641D01*
X197209798Y-53784987D01*
X197186764Y-53756132D01*
X197183876Y-53753202D01*
X197183828Y-53753144D01*
X197183774Y-53753099D01*
X197182843Y-53752155D01*
X195947845Y-52517157D01*
X195919260Y-52493677D01*
X195890989Y-52469955D01*
X195889147Y-52468942D01*
X195887520Y-52467606D01*
X195854949Y-52450142D01*
X195822579Y-52432346D01*
X195820573Y-52431710D01*
X195818720Y-52430716D01*
X195783423Y-52419925D01*
X195748167Y-52408741D01*
X195746073Y-52408506D01*
X195744064Y-52407892D01*
X195707315Y-52404159D01*
X195670587Y-52400039D01*
X195666480Y-52400010D01*
X195666398Y-52400002D01*
X195666322Y-52400009D01*
X195665002Y-52400000D01*
X151365685Y-52400000D01*
X151077135Y-52111449D01*
X151089516Y-52083982D01*
X151101451Y-52000000D01*
X151101451Y-51300000D01*
X151097641Y-51252226D01*
X151072548Y-51171197D01*
X151025874Y-51100366D01*
X150961315Y-51045343D01*
X150883982Y-51010484D01*
X150800000Y-50998549D01*
X149422923Y-50998549D01*
X149454657Y-50961315D01*
X149489516Y-50883982D01*
X149501451Y-50800000D01*
X149501451Y-49600000D01*
X149497641Y-49552226D01*
X149472548Y-49471197D01*
X149425874Y-49400366D01*
X149361315Y-49345343D01*
X149283982Y-49310484D01*
X149200000Y-49298549D01*
X148400000Y-49298549D01*
X148352226Y-49302359D01*
X148271197Y-49327452D01*
X148200366Y-49374126D01*
X148145343Y-49438685D01*
X148110484Y-49516018D01*
X148098549Y-49600000D01*
X148098549Y-50800000D01*
X148102359Y-50847774D01*
X148127452Y-50928803D01*
X148174126Y-50999634D01*
X148238685Y-51054657D01*
X148316018Y-51089516D01*
X148400000Y-51101451D01*
X148577077Y-51101451D01*
X148545343Y-51138685D01*
X148510484Y-51216018D01*
X148498549Y-51300000D01*
X148498549Y-52000000D01*
X148502359Y-52047774D01*
X148527452Y-52128803D01*
X148574126Y-52199634D01*
X148638685Y-52254657D01*
X148716018Y-52289516D01*
X148800000Y-52301451D01*
X150135765Y-52301451D01*
X150834314Y-53000000D01*
X149934314Y-53900000D01*
X144853760Y-53900000D01*
X144853760Y-52463062D01*
X147049014Y-52463062D01*
X147075565Y-52607728D01*
X147129710Y-52744482D01*
X147209386Y-52868115D01*
X147311558Y-52973917D01*
X147432335Y-53057859D01*
X147567116Y-53116744D01*
X147710767Y-53148328D01*
X147857818Y-53151408D01*
X148002666Y-53125867D01*
X148139794Y-53072679D01*
X148263980Y-52993868D01*
X148370493Y-52892437D01*
X148455277Y-52772249D01*
X148515100Y-52637882D01*
X148547686Y-52494455D01*
X148550032Y-52326459D01*
X148521464Y-52182177D01*
X148465415Y-52046193D01*
X148384021Y-51923684D01*
X148280381Y-51819319D01*
X148158444Y-51737071D01*
X148022854Y-51680075D01*
X147878776Y-51650499D01*
X147731697Y-51649473D01*
X147587219Y-51677033D01*
X147450847Y-51732131D01*
X147327773Y-51812668D01*
X147222687Y-51915577D01*
X147139590Y-52036936D01*
X147081648Y-52172125D01*
X147051068Y-52315994D01*
X147049014Y-52463062D01*
X144853760Y-52463062D01*
X144853760Y-49600000D01*
X146098549Y-49600000D01*
X146098549Y-50800000D01*
X146102359Y-50847774D01*
X146127452Y-50928803D01*
X146174126Y-50999634D01*
X146238685Y-51054657D01*
X146316018Y-51089516D01*
X146400000Y-51101451D01*
X147200000Y-51101451D01*
X147247774Y-51097641D01*
X147328803Y-51072548D01*
X147399634Y-51025874D01*
X147454657Y-50961315D01*
X147489516Y-50883982D01*
X147501451Y-50800000D01*
X147501451Y-49600000D01*
X147497641Y-49552226D01*
X147472548Y-49471197D01*
X147425874Y-49400366D01*
X147361315Y-49345343D01*
X147283982Y-49310484D01*
X147200000Y-49298549D01*
X146400000Y-49298549D01*
X146352226Y-49302359D01*
X146271197Y-49327452D01*
X146200366Y-49374126D01*
X146145343Y-49438685D01*
X146110484Y-49516018D01*
X146098549Y-49600000D01*
X144853760Y-49600000D01*
X144853760Y-48594415D01*
X161800019Y-48594415D01*
X161814170Y-48749905D01*
X161858253Y-48899685D01*
X161930589Y-49038051D01*
X162028422Y-49159731D01*
X162148026Y-49260091D01*
X162284846Y-49335308D01*
X162433671Y-49382518D01*
X162588830Y-49399922D01*
X162600000Y-49400000D01*
X162898549Y-49400000D01*
X162898549Y-49450000D01*
X162902359Y-49497774D01*
X162927452Y-49578803D01*
X162974126Y-49649634D01*
X163038685Y-49704657D01*
X163116018Y-49739516D01*
X163200000Y-49751451D01*
X163800000Y-49751451D01*
X163847774Y-49747641D01*
X163928803Y-49722548D01*
X163999634Y-49675874D01*
X164054657Y-49611315D01*
X164089516Y-49533982D01*
X164101451Y-49450000D01*
X164101451Y-49122032D01*
X164148549Y-49065100D01*
X164148549Y-49450000D01*
X164152359Y-49497774D01*
X164177452Y-49578803D01*
X164224126Y-49649634D01*
X164288685Y-49704657D01*
X164366018Y-49739516D01*
X164450000Y-49751451D01*
X165050000Y-49751451D01*
X165097774Y-49747641D01*
X165178803Y-49722548D01*
X165249634Y-49675874D01*
X165304657Y-49611315D01*
X165339516Y-49533982D01*
X165351451Y-49450000D01*
X165351451Y-48014235D01*
X165398549Y-47967137D01*
X165398549Y-49450000D01*
X165402359Y-49497774D01*
X165427452Y-49578803D01*
X165474126Y-49649634D01*
X165538685Y-49704657D01*
X165616018Y-49739516D01*
X165700000Y-49751451D01*
X166035765Y-49751451D01*
X166767157Y-50482843D01*
X166795742Y-50506323D01*
X166824013Y-50530045D01*
X166825855Y-50531058D01*
X166827482Y-50532394D01*
X166860053Y-50549858D01*
X166892423Y-50567654D01*
X166894429Y-50568290D01*
X166896282Y-50569284D01*
X166931579Y-50580075D01*
X166966835Y-50591259D01*
X166968929Y-50591494D01*
X166970938Y-50592108D01*
X167007642Y-50595836D01*
X167044415Y-50599961D01*
X167048533Y-50599990D01*
X167048604Y-50599997D01*
X167048670Y-50599991D01*
X167050000Y-50600000D01*
X171050000Y-50600000D01*
X171086784Y-50596393D01*
X171123580Y-50593174D01*
X171125599Y-50592587D01*
X171127694Y-50592382D01*
X171163077Y-50581699D01*
X171198547Y-50571394D01*
X171200415Y-50570426D01*
X171202428Y-50569818D01*
X171235058Y-50552469D01*
X171267855Y-50535468D01*
X171269498Y-50534156D01*
X171271357Y-50533168D01*
X171300011Y-50509798D01*
X171328866Y-50486764D01*
X171331796Y-50483876D01*
X171331854Y-50483828D01*
X171331899Y-50483774D01*
X171332843Y-50482843D01*
X172264235Y-49551451D01*
X172800000Y-49551451D01*
X172847774Y-49547641D01*
X172928803Y-49522548D01*
X172999634Y-49475874D01*
X173000543Y-49474807D01*
X173008761Y-49483025D01*
X173057897Y-49515857D01*
X173112494Y-49538471D01*
X173170453Y-49550000D01*
X173325000Y-49550000D01*
X173400000Y-49475000D01*
X173400000Y-49125000D01*
X173800000Y-49125000D01*
X173800000Y-49475000D01*
X173875000Y-49550000D01*
X174029547Y-49550000D01*
X174087506Y-49538471D01*
X174142103Y-49515857D01*
X174191239Y-49483025D01*
X174233025Y-49441239D01*
X174265856Y-49392104D01*
X174288471Y-49337507D01*
X174300000Y-49279548D01*
X174300000Y-49200000D01*
X174225000Y-49125000D01*
X173800000Y-49125000D01*
X173400000Y-49125000D01*
X173200000Y-49125000D01*
X173200000Y-48875000D01*
X173400000Y-48875000D01*
X173400000Y-48750000D01*
X173800000Y-48750000D01*
X173800000Y-48875000D01*
X174059314Y-48875000D01*
X174067157Y-48882843D01*
X174095742Y-48906323D01*
X174124013Y-48930045D01*
X174125855Y-48931058D01*
X174127482Y-48932394D01*
X174160053Y-48949858D01*
X174192423Y-48967654D01*
X174194429Y-48968290D01*
X174196282Y-48969284D01*
X174231579Y-48980075D01*
X174266835Y-48991259D01*
X174268929Y-48991494D01*
X174270938Y-48992108D01*
X174307642Y-48995836D01*
X174344415Y-48999961D01*
X174348533Y-48999990D01*
X174348604Y-48999997D01*
X174348670Y-48999991D01*
X174350000Y-49000000D01*
X174552142Y-49000000D01*
X174609247Y-49059134D01*
X174705868Y-49126287D01*
X174813693Y-49173395D01*
X174928614Y-49198662D01*
X175035209Y-49200895D01*
X175117157Y-49282842D01*
X175145712Y-49306298D01*
X175174013Y-49330045D01*
X175175855Y-49331058D01*
X175177482Y-49332394D01*
X175210018Y-49349839D01*
X175242423Y-49367654D01*
X175244433Y-49368292D01*
X175246282Y-49369283D01*
X175281546Y-49380064D01*
X175316835Y-49391259D01*
X175318928Y-49391494D01*
X175320937Y-49392108D01*
X175357647Y-49395837D01*
X175394415Y-49399961D01*
X175398533Y-49399990D01*
X175398604Y-49399997D01*
X175398670Y-49399991D01*
X175400000Y-49400000D01*
X175741420Y-49400000D01*
X175774126Y-49449634D01*
X175838685Y-49504657D01*
X175916018Y-49539516D01*
X176000000Y-49551451D01*
X176800000Y-49551451D01*
X176847774Y-49547641D01*
X176928803Y-49522548D01*
X176999634Y-49475874D01*
X177001855Y-49473268D01*
X177038685Y-49504657D01*
X177116018Y-49539516D01*
X177200000Y-49551451D01*
X178000000Y-49551451D01*
X178047774Y-49547641D01*
X178128803Y-49522548D01*
X178145717Y-49511403D01*
X179117157Y-50482843D01*
X179145742Y-50506323D01*
X179174013Y-50530045D01*
X179175855Y-50531058D01*
X179177482Y-50532394D01*
X179210018Y-50549839D01*
X179242423Y-50567654D01*
X179244433Y-50568292D01*
X179246282Y-50569283D01*
X179281546Y-50580064D01*
X179316835Y-50591259D01*
X179318928Y-50591494D01*
X179320937Y-50592108D01*
X179357647Y-50595837D01*
X179394415Y-50599961D01*
X179398533Y-50599990D01*
X179398604Y-50599997D01*
X179398670Y-50599991D01*
X179400000Y-50600000D01*
X184200000Y-50600000D01*
X184236784Y-50596393D01*
X184273580Y-50593174D01*
X184275599Y-50592587D01*
X184277694Y-50592382D01*
X184313077Y-50581699D01*
X184348547Y-50571394D01*
X184350415Y-50570426D01*
X184352428Y-50569818D01*
X184385058Y-50552469D01*
X184417855Y-50535468D01*
X184419498Y-50534156D01*
X184421357Y-50533168D01*
X184450011Y-50509798D01*
X184478866Y-50486764D01*
X184481796Y-50483876D01*
X184481854Y-50483828D01*
X184481899Y-50483774D01*
X184482843Y-50482843D01*
X185214235Y-49751451D01*
X185550000Y-49751451D01*
X185597774Y-49747641D01*
X185678803Y-49722548D01*
X185749634Y-49675874D01*
X185804657Y-49611315D01*
X185839516Y-49533982D01*
X185851451Y-49450000D01*
X185851451Y-49075000D01*
X185900000Y-49075000D01*
X185900000Y-49479548D01*
X185911529Y-49537507D01*
X185934144Y-49592104D01*
X185966975Y-49641239D01*
X186008761Y-49683025D01*
X186057897Y-49715857D01*
X186112494Y-49738471D01*
X186170453Y-49750000D01*
X186275000Y-49750000D01*
X186350000Y-49675000D01*
X186350000Y-49000000D01*
X186650000Y-49000000D01*
X186650000Y-49675000D01*
X186725000Y-49750000D01*
X186829547Y-49750000D01*
X186887506Y-49738471D01*
X186942103Y-49715857D01*
X186991239Y-49683025D01*
X187033025Y-49641239D01*
X187065856Y-49592104D01*
X187088471Y-49537507D01*
X187100000Y-49479548D01*
X187100000Y-49075000D01*
X187025000Y-49000000D01*
X186650000Y-49000000D01*
X186350000Y-49000000D01*
X185975000Y-49000000D01*
X185900000Y-49075000D01*
X185851451Y-49075000D01*
X185851451Y-47750000D01*
X185849095Y-47720452D01*
X185900000Y-47720452D01*
X185900000Y-48125000D01*
X185975000Y-48200000D01*
X186350000Y-48200000D01*
X186350000Y-47525000D01*
X186650000Y-47525000D01*
X186650000Y-48200000D01*
X187025000Y-48200000D01*
X187100000Y-48125000D01*
X187100000Y-47720452D01*
X187088471Y-47662493D01*
X187065856Y-47607896D01*
X187033025Y-47558761D01*
X186991239Y-47516975D01*
X186942103Y-47484143D01*
X186887506Y-47461529D01*
X186829547Y-47450000D01*
X186725000Y-47450000D01*
X186650000Y-47525000D01*
X186350000Y-47525000D01*
X186275000Y-47450000D01*
X186170453Y-47450000D01*
X186112494Y-47461529D01*
X186057897Y-47484143D01*
X186008761Y-47516975D01*
X185966975Y-47558761D01*
X185934144Y-47607896D01*
X185911529Y-47662493D01*
X185900000Y-47720452D01*
X185849095Y-47720452D01*
X185847641Y-47702226D01*
X185822548Y-47621197D01*
X185775874Y-47550366D01*
X185711315Y-47495343D01*
X185633982Y-47460484D01*
X185550000Y-47448549D01*
X184950000Y-47448549D01*
X184902226Y-47452359D01*
X184821197Y-47477452D01*
X184750366Y-47524126D01*
X184695343Y-47588685D01*
X184660484Y-47666018D01*
X184648549Y-47750000D01*
X184648549Y-49185765D01*
X184601451Y-49232863D01*
X184601451Y-47750000D01*
X184597641Y-47702226D01*
X184572548Y-47621197D01*
X184525874Y-47550366D01*
X184461315Y-47495343D01*
X184383982Y-47460484D01*
X184300000Y-47448549D01*
X183700000Y-47448549D01*
X183652226Y-47452359D01*
X183571197Y-47477452D01*
X183500366Y-47524126D01*
X183445343Y-47588685D01*
X183410484Y-47666018D01*
X183398549Y-47750000D01*
X183398549Y-49185765D01*
X183351451Y-49232863D01*
X183351451Y-47750000D01*
X183347641Y-47702226D01*
X183322548Y-47621197D01*
X183275874Y-47550366D01*
X183211315Y-47495343D01*
X183133982Y-47460484D01*
X183050000Y-47448549D01*
X182714235Y-47448549D01*
X182382843Y-47117157D01*
X182354258Y-47093677D01*
X182325987Y-47069955D01*
X182324145Y-47068942D01*
X182322518Y-47067606D01*
X182289947Y-47050142D01*
X182257577Y-47032346D01*
X182255571Y-47031710D01*
X182253718Y-47030716D01*
X182218421Y-47019925D01*
X182183165Y-47008741D01*
X182181071Y-47008506D01*
X182179062Y-47007892D01*
X182142313Y-47004159D01*
X182105585Y-47000039D01*
X182101478Y-47000010D01*
X182101396Y-47000002D01*
X182101320Y-47000009D01*
X182100000Y-47000000D01*
X180283296Y-47000000D01*
X180288471Y-46987507D01*
X180300000Y-46929548D01*
X180300000Y-46025000D01*
X187700000Y-46025000D01*
X187700000Y-46929548D01*
X187711529Y-46987507D01*
X187734144Y-47042104D01*
X187766975Y-47091239D01*
X187808761Y-47133025D01*
X187857897Y-47165857D01*
X187912494Y-47188471D01*
X187970453Y-47200000D01*
X188175000Y-47200000D01*
X188250000Y-47125000D01*
X188250000Y-45950000D01*
X188750000Y-45950000D01*
X188750000Y-47125000D01*
X188825000Y-47200000D01*
X189029547Y-47200000D01*
X189087506Y-47188471D01*
X189142103Y-47165857D01*
X189191239Y-47133025D01*
X189233025Y-47091239D01*
X189265856Y-47042104D01*
X189288471Y-46987507D01*
X189300000Y-46929548D01*
X189300000Y-46025000D01*
X189225000Y-45950000D01*
X188750000Y-45950000D01*
X188250000Y-45950000D01*
X187775000Y-45950000D01*
X187700000Y-46025000D01*
X180300000Y-46025000D01*
X180225000Y-45950000D01*
X179750000Y-45950000D01*
X179750000Y-45970000D01*
X179250000Y-45970000D01*
X179250000Y-45950000D01*
X178775000Y-45950000D01*
X178700000Y-46025000D01*
X178700000Y-46929548D01*
X178701184Y-46935498D01*
X178482843Y-46717157D01*
X178454258Y-46693677D01*
X178425987Y-46669955D01*
X178424145Y-46668942D01*
X178422518Y-46667606D01*
X178389947Y-46650142D01*
X178357577Y-46632346D01*
X178355571Y-46631710D01*
X178353718Y-46630716D01*
X178318421Y-46619925D01*
X178283165Y-46608741D01*
X178281071Y-46608506D01*
X178279062Y-46607892D01*
X178262684Y-46606228D01*
X178225874Y-46550366D01*
X178161315Y-46495343D01*
X178083982Y-46460484D01*
X178000000Y-46448549D01*
X177200000Y-46448549D01*
X177152226Y-46452359D01*
X177071197Y-46477452D01*
X177000366Y-46524126D01*
X176999457Y-46525193D01*
X176991239Y-46516975D01*
X176942103Y-46484143D01*
X176887506Y-46461529D01*
X176829547Y-46450000D01*
X176675000Y-46450000D01*
X176600000Y-46525000D01*
X176600000Y-46875000D01*
X176800000Y-46875000D01*
X176800000Y-47125000D01*
X176600000Y-47125000D01*
X176600000Y-47475000D01*
X176625000Y-47500000D01*
X176600000Y-47525000D01*
X176600000Y-47875000D01*
X176800000Y-47875000D01*
X176800000Y-48125000D01*
X176600000Y-48125000D01*
X176600000Y-48250000D01*
X176200000Y-48250000D01*
X176200000Y-48125000D01*
X175775000Y-48125000D01*
X175700000Y-48200000D01*
X175700000Y-48279548D01*
X175711529Y-48337507D01*
X175734144Y-48392104D01*
X175766975Y-48441239D01*
X175808761Y-48483025D01*
X175835562Y-48500933D01*
X175800366Y-48524126D01*
X175745343Y-48588685D01*
X175740243Y-48600000D01*
X175599204Y-48600000D01*
X175600026Y-48541167D01*
X175577171Y-48425742D01*
X175532332Y-48316954D01*
X175467216Y-48218948D01*
X175461287Y-48212977D01*
X175483025Y-48191239D01*
X175515857Y-48142103D01*
X175538471Y-48087506D01*
X175550000Y-48029547D01*
X175550000Y-47875000D01*
X175475000Y-47800000D01*
X175125000Y-47800000D01*
X175125000Y-48000000D01*
X175005764Y-48000000D01*
X174945357Y-47999578D01*
X174943145Y-48000000D01*
X174875000Y-48000000D01*
X174875000Y-47800000D01*
X174525000Y-47800000D01*
X174450000Y-47875000D01*
X174450000Y-48029547D01*
X174461529Y-48087506D01*
X174484143Y-48142103D01*
X174516975Y-48191239D01*
X174525736Y-48200000D01*
X174515686Y-48200000D01*
X174301451Y-47985765D01*
X174301451Y-47750000D01*
X174297641Y-47702226D01*
X174272548Y-47621197D01*
X174225874Y-47550366D01*
X174166364Y-47499646D01*
X174191239Y-47483025D01*
X174233025Y-47441239D01*
X174265856Y-47392104D01*
X174288471Y-47337507D01*
X174300000Y-47279548D01*
X174300000Y-47200000D01*
X174225000Y-47125000D01*
X173800000Y-47125000D01*
X173800000Y-47250000D01*
X173400000Y-47250000D01*
X173400000Y-47125000D01*
X173200000Y-47125000D01*
X173200000Y-46875000D01*
X173400000Y-46875000D01*
X173400000Y-46525000D01*
X173800000Y-46525000D01*
X173800000Y-46875000D01*
X174225000Y-46875000D01*
X174300000Y-46800000D01*
X174300000Y-46720452D01*
X174288471Y-46662493D01*
X174265856Y-46607896D01*
X174233025Y-46558761D01*
X174191239Y-46516975D01*
X174142103Y-46484143D01*
X174087506Y-46461529D01*
X174029547Y-46450000D01*
X173875000Y-46450000D01*
X173800000Y-46525000D01*
X173400000Y-46525000D01*
X173325000Y-46450000D01*
X173170453Y-46450000D01*
X173112494Y-46461529D01*
X173057897Y-46484143D01*
X173008761Y-46516975D01*
X172998608Y-46527128D01*
X172961315Y-46495343D01*
X172883982Y-46460484D01*
X172800000Y-46448549D01*
X172000000Y-46448549D01*
X171952226Y-46452359D01*
X171871197Y-46477452D01*
X171800366Y-46524126D01*
X171745343Y-46588685D01*
X171737607Y-46605847D01*
X171726420Y-46606826D01*
X171724401Y-46607413D01*
X171722306Y-46607618D01*
X171686923Y-46618301D01*
X171651453Y-46628606D01*
X171649585Y-46629574D01*
X171647572Y-46630182D01*
X171614963Y-46647521D01*
X171582144Y-46664532D01*
X171580499Y-46665845D01*
X171578643Y-46666832D01*
X171550011Y-46690184D01*
X171521134Y-46713236D01*
X171518209Y-46716121D01*
X171518146Y-46716172D01*
X171518098Y-46716230D01*
X171517157Y-46717158D01*
X171298816Y-46935498D01*
X171300000Y-46929548D01*
X171300000Y-46025000D01*
X171225000Y-45950000D01*
X170750000Y-45950000D01*
X170750000Y-45970000D01*
X170250000Y-45970000D01*
X170250000Y-45950000D01*
X169775000Y-45950000D01*
X169700000Y-46025000D01*
X169700000Y-46929548D01*
X169711529Y-46987507D01*
X169716704Y-47000000D01*
X165400000Y-47000000D01*
X165363216Y-47003607D01*
X165326420Y-47006826D01*
X165324401Y-47007413D01*
X165322306Y-47007618D01*
X165286970Y-47018287D01*
X165251453Y-47028605D01*
X165249581Y-47029576D01*
X165247572Y-47030182D01*
X165215017Y-47047492D01*
X165182145Y-47064531D01*
X165180498Y-47065845D01*
X165178643Y-47066832D01*
X165150016Y-47090179D01*
X165121134Y-47113236D01*
X165118204Y-47116124D01*
X165118146Y-47116172D01*
X165118101Y-47116226D01*
X165117157Y-47117157D01*
X164785765Y-47448549D01*
X164450000Y-47448549D01*
X164402226Y-47452359D01*
X164321197Y-47477452D01*
X164250366Y-47524126D01*
X164195343Y-47588685D01*
X164160484Y-47666018D01*
X164148549Y-47750000D01*
X164148549Y-48136002D01*
X164101451Y-48077424D01*
X164101451Y-47750000D01*
X164097641Y-47702226D01*
X164072548Y-47621197D01*
X164025874Y-47550366D01*
X163961315Y-47495343D01*
X163883982Y-47460484D01*
X163800000Y-47448549D01*
X163200000Y-47448549D01*
X163152226Y-47452359D01*
X163071197Y-47477452D01*
X163000366Y-47524126D01*
X162945343Y-47588685D01*
X162910484Y-47666018D01*
X162898549Y-47750000D01*
X162898549Y-47800000D01*
X162600000Y-47800000D01*
X162444613Y-47815236D01*
X162295144Y-47860363D01*
X162157287Y-47933663D01*
X162036293Y-48032343D01*
X161936770Y-48152646D01*
X161862509Y-48289988D01*
X161816340Y-48439138D01*
X161800019Y-48594415D01*
X144853760Y-48594415D01*
X144853760Y-46025000D01*
X160700000Y-46025000D01*
X160700000Y-46929548D01*
X160711529Y-46987507D01*
X160734144Y-47042104D01*
X160766975Y-47091239D01*
X160808761Y-47133025D01*
X160857897Y-47165857D01*
X160912494Y-47188471D01*
X160970453Y-47200000D01*
X161175000Y-47200000D01*
X161250000Y-47125000D01*
X161250000Y-45950000D01*
X161750000Y-45950000D01*
X161750000Y-47125000D01*
X161825000Y-47200000D01*
X162029547Y-47200000D01*
X162087506Y-47188471D01*
X162142103Y-47165857D01*
X162191239Y-47133025D01*
X162233025Y-47091239D01*
X162265856Y-47042104D01*
X162288471Y-46987507D01*
X162300000Y-46929548D01*
X162300000Y-46025000D01*
X162225000Y-45950000D01*
X161750000Y-45950000D01*
X161250000Y-45950000D01*
X160775000Y-45950000D01*
X160700000Y-46025000D01*
X144853760Y-46025000D01*
X144853760Y-44170452D01*
X160700000Y-44170452D01*
X160700000Y-45075000D01*
X160775000Y-45150000D01*
X161250000Y-45150000D01*
X161250000Y-43975000D01*
X161750000Y-43975000D01*
X161750000Y-45150000D01*
X162225000Y-45150000D01*
X162300000Y-45075000D01*
X162300000Y-44170452D01*
X169700000Y-44170452D01*
X169700000Y-45075000D01*
X169775000Y-45150000D01*
X170250000Y-45150000D01*
X170250000Y-43975000D01*
X170750000Y-43975000D01*
X170750000Y-45150000D01*
X171225000Y-45150000D01*
X171300000Y-45075000D01*
X171300000Y-44250000D01*
X173698549Y-44250000D01*
X173698549Y-44750000D01*
X173702359Y-44797774D01*
X173727452Y-44878803D01*
X173774126Y-44949634D01*
X173838685Y-45004657D01*
X173916018Y-45039516D01*
X174000000Y-45051451D01*
X174014791Y-45051451D01*
X174018301Y-45063077D01*
X174028606Y-45098547D01*
X174029574Y-45100415D01*
X174030182Y-45102428D01*
X174047531Y-45135058D01*
X174064532Y-45167855D01*
X174065844Y-45169498D01*
X174066832Y-45171357D01*
X174090202Y-45200011D01*
X174113236Y-45228866D01*
X174116124Y-45231796D01*
X174116172Y-45231854D01*
X174116226Y-45231899D01*
X174117157Y-45232843D01*
X174167158Y-45282843D01*
X174195718Y-45306302D01*
X174224013Y-45330045D01*
X174225855Y-45331058D01*
X174227482Y-45332394D01*
X174260053Y-45349858D01*
X174292423Y-45367654D01*
X174294429Y-45368290D01*
X174296282Y-45369284D01*
X174331620Y-45380088D01*
X174366835Y-45391259D01*
X174368924Y-45391493D01*
X174370938Y-45392109D01*
X174407737Y-45395847D01*
X174444415Y-45399961D01*
X174448522Y-45399990D01*
X174448604Y-45399998D01*
X174448680Y-45399991D01*
X174450000Y-45400000D01*
X174600000Y-45400000D01*
X174600000Y-45741420D01*
X174550366Y-45774126D01*
X174495343Y-45838685D01*
X174460484Y-45916018D01*
X174448549Y-46000000D01*
X174448549Y-46800000D01*
X174452359Y-46847774D01*
X174477452Y-46928803D01*
X174524126Y-46999634D01*
X174525193Y-47000543D01*
X174516975Y-47008761D01*
X174484143Y-47057897D01*
X174461529Y-47112494D01*
X174450000Y-47170453D01*
X174450000Y-47325000D01*
X174525000Y-47400000D01*
X174875000Y-47400000D01*
X174875000Y-47200000D01*
X175125000Y-47200000D01*
X175125000Y-47400000D01*
X175475000Y-47400000D01*
X175550000Y-47325000D01*
X175550000Y-47200000D01*
X175700000Y-47200000D01*
X175700000Y-47279548D01*
X175711529Y-47337507D01*
X175734144Y-47392104D01*
X175766975Y-47441239D01*
X175808761Y-47483025D01*
X175834166Y-47500000D01*
X175808761Y-47516975D01*
X175766975Y-47558761D01*
X175734144Y-47607896D01*
X175711529Y-47662493D01*
X175700000Y-47720452D01*
X175700000Y-47800000D01*
X175775000Y-47875000D01*
X176200000Y-47875000D01*
X176200000Y-47525000D01*
X176175000Y-47500000D01*
X176200000Y-47475000D01*
X176200000Y-47125000D01*
X175775000Y-47125000D01*
X175700000Y-47200000D01*
X175550000Y-47200000D01*
X175550000Y-47170453D01*
X175538471Y-47112494D01*
X175515857Y-47057897D01*
X175483025Y-47008761D01*
X175472872Y-46998608D01*
X175504657Y-46961315D01*
X175539516Y-46883982D01*
X175551451Y-46800000D01*
X175551451Y-46720452D01*
X175700000Y-46720452D01*
X175700000Y-46800000D01*
X175775000Y-46875000D01*
X176200000Y-46875000D01*
X176200000Y-46525000D01*
X176125000Y-46450000D01*
X175970453Y-46450000D01*
X175912494Y-46461529D01*
X175857897Y-46484143D01*
X175808761Y-46516975D01*
X175766975Y-46558761D01*
X175734144Y-46607896D01*
X175711529Y-46662493D01*
X175700000Y-46720452D01*
X175551451Y-46720452D01*
X175551451Y-46000000D01*
X175547641Y-45952226D01*
X175522548Y-45871197D01*
X175475874Y-45800366D01*
X175411315Y-45745343D01*
X175400000Y-45740243D01*
X175400000Y-45051451D01*
X176000000Y-45051451D01*
X176047774Y-45047641D01*
X176128803Y-45022548D01*
X176199634Y-44975874D01*
X176254657Y-44911315D01*
X176289516Y-44833982D01*
X176301451Y-44750000D01*
X176301451Y-44250000D01*
X176297641Y-44202226D01*
X176287802Y-44170452D01*
X178700000Y-44170452D01*
X178700000Y-45075000D01*
X178775000Y-45150000D01*
X179250000Y-45150000D01*
X179250000Y-43975000D01*
X179750000Y-43975000D01*
X179750000Y-45150000D01*
X180225000Y-45150000D01*
X180300000Y-45075000D01*
X180300000Y-44170452D01*
X187700000Y-44170452D01*
X187700000Y-45075000D01*
X187775000Y-45150000D01*
X188250000Y-45150000D01*
X188250000Y-43975000D01*
X188750000Y-43975000D01*
X188750000Y-45150000D01*
X189225000Y-45150000D01*
X189300000Y-45075000D01*
X189300000Y-44170452D01*
X189288471Y-44112493D01*
X189265856Y-44057896D01*
X189233025Y-44008761D01*
X189191239Y-43966975D01*
X189142103Y-43934143D01*
X189087506Y-43911529D01*
X189029547Y-43900000D01*
X188825000Y-43900000D01*
X188750000Y-43975000D01*
X188250000Y-43975000D01*
X188175000Y-43900000D01*
X187970453Y-43900000D01*
X187912494Y-43911529D01*
X187857897Y-43934143D01*
X187808761Y-43966975D01*
X187766975Y-44008761D01*
X187734144Y-44057896D01*
X187711529Y-44112493D01*
X187700000Y-44170452D01*
X180300000Y-44170452D01*
X180288471Y-44112493D01*
X180265856Y-44057896D01*
X180233025Y-44008761D01*
X180191239Y-43966975D01*
X180142103Y-43934143D01*
X180087506Y-43911529D01*
X180029547Y-43900000D01*
X179825000Y-43900000D01*
X179750000Y-43975000D01*
X179250000Y-43975000D01*
X179175000Y-43900000D01*
X178970453Y-43900000D01*
X178912494Y-43911529D01*
X178857897Y-43934143D01*
X178808761Y-43966975D01*
X178766975Y-44008761D01*
X178734144Y-44057896D01*
X178711529Y-44112493D01*
X178700000Y-44170452D01*
X176287802Y-44170452D01*
X176272548Y-44121197D01*
X176225874Y-44050366D01*
X176161315Y-43995343D01*
X176083982Y-43960484D01*
X176000000Y-43948549D01*
X175985209Y-43948549D01*
X175981713Y-43936970D01*
X175971395Y-43901453D01*
X175970424Y-43899581D01*
X175969818Y-43897572D01*
X175952508Y-43865017D01*
X175935469Y-43832145D01*
X175934154Y-43830498D01*
X175933168Y-43828643D01*
X175909845Y-43800047D01*
X175886765Y-43771134D01*
X175883878Y-43768207D01*
X175883828Y-43768146D01*
X175883771Y-43768099D01*
X175882843Y-43767158D01*
X175832843Y-43717157D01*
X175804258Y-43693677D01*
X175775987Y-43669955D01*
X175774145Y-43668942D01*
X175772518Y-43667606D01*
X175739947Y-43650142D01*
X175707577Y-43632346D01*
X175705571Y-43631710D01*
X175703718Y-43630716D01*
X175668421Y-43619925D01*
X175633165Y-43608741D01*
X175631071Y-43608506D01*
X175629062Y-43607892D01*
X175592313Y-43604159D01*
X175555585Y-43600039D01*
X175551478Y-43600010D01*
X175551396Y-43600002D01*
X175551320Y-43600009D01*
X175550000Y-43600000D01*
X175450041Y-43600000D01*
X175456395Y-43593949D01*
X175524221Y-43497799D01*
X175572080Y-43390306D01*
X175598149Y-43275564D01*
X175600026Y-43141167D01*
X175577171Y-43025742D01*
X175532332Y-42916954D01*
X175467216Y-42818948D01*
X175384305Y-42735455D01*
X175286755Y-42669657D01*
X175178283Y-42624060D01*
X175063021Y-42600400D01*
X174945357Y-42599578D01*
X174829775Y-42621627D01*
X174720677Y-42665705D01*
X174622219Y-42730135D01*
X174538150Y-42812461D01*
X174471672Y-42909549D01*
X174425318Y-43017700D01*
X174400854Y-43132795D01*
X174399211Y-43250450D01*
X174420452Y-43366183D01*
X174463768Y-43475586D01*
X174527509Y-43574492D01*
X174600000Y-43649558D01*
X174600000Y-43948549D01*
X174000000Y-43948549D01*
X173952226Y-43952359D01*
X173871197Y-43977452D01*
X173800366Y-44024126D01*
X173745343Y-44088685D01*
X173710484Y-44166018D01*
X173698549Y-44250000D01*
X171300000Y-44250000D01*
X171300000Y-44170452D01*
X171288471Y-44112493D01*
X171265856Y-44057896D01*
X171233025Y-44008761D01*
X171191239Y-43966975D01*
X171142103Y-43934143D01*
X171087506Y-43911529D01*
X171029547Y-43900000D01*
X170825000Y-43900000D01*
X170750000Y-43975000D01*
X170250000Y-43975000D01*
X170175000Y-43900000D01*
X169970453Y-43900000D01*
X169912494Y-43911529D01*
X169857897Y-43934143D01*
X169808761Y-43966975D01*
X169766975Y-44008761D01*
X169734144Y-44057896D01*
X169711529Y-44112493D01*
X169700000Y-44170452D01*
X162300000Y-44170452D01*
X162288471Y-44112493D01*
X162265856Y-44057896D01*
X162233025Y-44008761D01*
X162191239Y-43966975D01*
X162142103Y-43934143D01*
X162087506Y-43911529D01*
X162029547Y-43900000D01*
X161825000Y-43900000D01*
X161750000Y-43975000D01*
X161250000Y-43975000D01*
X161175000Y-43900000D01*
X160970453Y-43900000D01*
X160912494Y-43911529D01*
X160857897Y-43934143D01*
X160808761Y-43966975D01*
X160766975Y-44008761D01*
X160734144Y-44057896D01*
X160711529Y-44112493D01*
X160700000Y-44170452D01*
X144853760Y-44170452D01*
X144853760Y-36194155D01*
X165400000Y-36194155D01*
X165400000Y-41000000D01*
G36*
X171710484Y-47666018D02*
X171698549Y-47750000D01*
X171698549Y-47985765D01*
X170334313Y-49350001D01*
X169100000Y-49350001D01*
X169100000Y-49075000D01*
X169025000Y-49000000D01*
X168650000Y-49000000D01*
X168650000Y-49020000D01*
X168350000Y-49020000D01*
X168350000Y-49000000D01*
X167975000Y-49000000D01*
X167900000Y-49075000D01*
X167900000Y-49234315D01*
X167851451Y-49185766D01*
X167851451Y-47800000D01*
X167900000Y-47800000D01*
X167900000Y-48125000D01*
X167975000Y-48200000D01*
X168350000Y-48200000D01*
X168350000Y-48180000D01*
X168650000Y-48180000D01*
X168650000Y-48200000D01*
X169025000Y-48200000D01*
X169100000Y-48125000D01*
X169100000Y-47800000D01*
X171400000Y-47800000D01*
X171436784Y-47796393D01*
X171473580Y-47793174D01*
X171475599Y-47792587D01*
X171477694Y-47792382D01*
X171513077Y-47781699D01*
X171548547Y-47771394D01*
X171550415Y-47770426D01*
X171552428Y-47769818D01*
X171585058Y-47752469D01*
X171617855Y-47735468D01*
X171619498Y-47734156D01*
X171621357Y-47733168D01*
X171650011Y-47709798D01*
X171678866Y-47686764D01*
X171681796Y-47683876D01*
X171681854Y-47683828D01*
X171681899Y-47683774D01*
X171682843Y-47682843D01*
X171719361Y-47646325D01*
X171710484Y-47666018D01*
X171710484Y-47666018D01*
G37*
X171710484Y-47666018D02*
X171698549Y-47750000D01*
X171698549Y-47985765D01*
X170334313Y-49350001D01*
X169100000Y-49350001D01*
X169100000Y-49075000D01*
X169025000Y-49000000D01*
X168650000Y-49000000D01*
X168650000Y-49020000D01*
X168350000Y-49020000D01*
X168350000Y-49000000D01*
X167975000Y-49000000D01*
X167900000Y-49075000D01*
X167900000Y-49234315D01*
X167851451Y-49185766D01*
X167851451Y-47800000D01*
X167900000Y-47800000D01*
X167900000Y-48125000D01*
X167975000Y-48200000D01*
X168350000Y-48200000D01*
X168350000Y-48180000D01*
X168650000Y-48180000D01*
X168650000Y-48200000D01*
X169025000Y-48200000D01*
X169100000Y-48125000D01*
X169100000Y-47800000D01*
X171400000Y-47800000D01*
X171436784Y-47796393D01*
X171473580Y-47793174D01*
X171475599Y-47792587D01*
X171477694Y-47792382D01*
X171513077Y-47781699D01*
X171548547Y-47771394D01*
X171550415Y-47770426D01*
X171552428Y-47769818D01*
X171585058Y-47752469D01*
X171617855Y-47735468D01*
X171619498Y-47734156D01*
X171621357Y-47733168D01*
X171650011Y-47709798D01*
X171678866Y-47686764D01*
X171681796Y-47683876D01*
X171681854Y-47683828D01*
X171681899Y-47683774D01*
X171682843Y-47682843D01*
X171719361Y-47646325D01*
X171710484Y-47666018D01*
M02*
