G04 #@! TF.FileFunction,Other,Fab,Top*
%FSLAX46Y46*%
G04 Gerber Fmt 4.6, Leading zero omitted, Abs format (unit mm)*
G04 Created by KiCad (PCBNEW 4.0.7-e2-6376~58~ubuntu14.04.1) date Wed May 23 13:57:35 2018*
%MOMM*%
%LPD*%
G01*
G04 APERTURE LIST*
%ADD10C,0.100000*%
%ADD11C,0.200000*%
%ADD12C,0.300000*%
%ADD13C,0.150000*%
G04 APERTURE END LIST*
D10*
D11*
X146500000Y-93000000D02*
X141500000Y-93000000D01*
X144000000Y-90500000D02*
X144000000Y-95500000D01*
X190000000Y-40000000D02*
X188000000Y-40000000D01*
X190000000Y-38000000D02*
X190000000Y-38000000D01*
X190000000Y-40000000D02*
X190000000Y-38000000D01*
X179000000Y-29000000D02*
X190000000Y-40000000D01*
X141000000Y-29000000D02*
X179000000Y-29000000D01*
X138000000Y-32000000D02*
X141000000Y-29000000D01*
X126000000Y-44000000D02*
X138000000Y-32000000D01*
X142000000Y-66000000D02*
X142000000Y-66000000D01*
X144000000Y-64000000D02*
X142000000Y-66000000D01*
X142000000Y-62000000D02*
X142000000Y-62000000D01*
X144000000Y-64000000D02*
X142000000Y-62000000D01*
X90000000Y-64000000D02*
X144000000Y-64000000D01*
D12*
X88857142Y-60403571D02*
X88857142Y-58903571D01*
X89571428Y-60403571D02*
X89571428Y-58903571D01*
X90428571Y-60403571D01*
X90428571Y-58903571D01*
X91071428Y-60332143D02*
X91285714Y-60403571D01*
X91642857Y-60403571D01*
X91785714Y-60332143D01*
X91857143Y-60260714D01*
X91928571Y-60117857D01*
X91928571Y-59975000D01*
X91857143Y-59832143D01*
X91785714Y-59760714D01*
X91642857Y-59689286D01*
X91357143Y-59617857D01*
X91214285Y-59546429D01*
X91142857Y-59475000D01*
X91071428Y-59332143D01*
X91071428Y-59189286D01*
X91142857Y-59046429D01*
X91214285Y-58975000D01*
X91357143Y-58903571D01*
X91714285Y-58903571D01*
X91928571Y-58975000D01*
X92357142Y-58903571D02*
X93214285Y-58903571D01*
X92785714Y-60403571D02*
X92785714Y-58903571D01*
X93642856Y-59975000D02*
X94357142Y-59975000D01*
X93499999Y-60403571D02*
X93999999Y-58903571D01*
X94499999Y-60403571D01*
X95714285Y-60403571D02*
X94999999Y-60403571D01*
X94999999Y-58903571D01*
X96928571Y-60403571D02*
X96214285Y-60403571D01*
X96214285Y-58903571D01*
X98357142Y-58903571D02*
X99214285Y-58903571D01*
X98785714Y-60403571D02*
X98785714Y-58903571D01*
X99571428Y-58903571D02*
X99928571Y-60403571D01*
X100214285Y-59332143D01*
X100499999Y-60403571D01*
X100857142Y-58903571D01*
X101714285Y-58903571D02*
X101999999Y-58903571D01*
X102142857Y-58975000D01*
X102285714Y-59117857D01*
X102357142Y-59403571D01*
X102357142Y-59903571D01*
X102285714Y-60189286D01*
X102142857Y-60332143D01*
X101999999Y-60403571D01*
X101714285Y-60403571D01*
X101571428Y-60332143D01*
X101428571Y-60189286D01*
X101357142Y-59903571D01*
X101357142Y-59403571D01*
X101428571Y-59117857D01*
X101571428Y-58975000D01*
X101714285Y-58903571D01*
X104142857Y-60403571D02*
X104142857Y-58903571D01*
X105000000Y-60403571D01*
X105000000Y-58903571D01*
X106000000Y-59689286D02*
X106000000Y-60403571D01*
X105500000Y-58903571D02*
X106000000Y-59689286D01*
X106500000Y-58903571D01*
X107714286Y-60403571D02*
X107000000Y-60403571D01*
X107000000Y-58903571D01*
X108500000Y-58903571D02*
X108785714Y-58903571D01*
X108928572Y-58975000D01*
X109071429Y-59117857D01*
X109142857Y-59403571D01*
X109142857Y-59903571D01*
X109071429Y-60189286D01*
X108928572Y-60332143D01*
X108785714Y-60403571D01*
X108500000Y-60403571D01*
X108357143Y-60332143D01*
X108214286Y-60189286D01*
X108142857Y-59903571D01*
X108142857Y-59403571D01*
X108214286Y-59117857D01*
X108357143Y-58975000D01*
X108500000Y-58903571D01*
X109785715Y-60403571D02*
X109785715Y-58903571D01*
X110642858Y-60403571D01*
X110642858Y-58903571D01*
X113357144Y-60403571D02*
X112857144Y-59689286D01*
X112500001Y-60403571D02*
X112500001Y-58903571D01*
X113071429Y-58903571D01*
X113214287Y-58975000D01*
X113285715Y-59046429D01*
X113357144Y-59189286D01*
X113357144Y-59403571D01*
X113285715Y-59546429D01*
X113214287Y-59617857D01*
X113071429Y-59689286D01*
X112500001Y-59689286D01*
X114000001Y-60403571D02*
X114000001Y-58903571D01*
X114500001Y-58903571D02*
X115000001Y-60403571D01*
X115500001Y-58903571D01*
X116000001Y-59617857D02*
X116500001Y-59617857D01*
X116714287Y-60403571D02*
X116000001Y-60403571D01*
X116000001Y-58903571D01*
X116714287Y-58903571D01*
X117142858Y-58903571D02*
X118000001Y-58903571D01*
X117571430Y-60403571D02*
X117571430Y-58903571D01*
X118428572Y-60332143D02*
X118642858Y-60403571D01*
X119000001Y-60403571D01*
X119142858Y-60332143D01*
X119214287Y-60260714D01*
X119285715Y-60117857D01*
X119285715Y-59975000D01*
X119214287Y-59832143D01*
X119142858Y-59760714D01*
X119000001Y-59689286D01*
X118714287Y-59617857D01*
X118571429Y-59546429D01*
X118500001Y-59475000D01*
X118428572Y-59332143D01*
X118428572Y-59189286D01*
X118500001Y-59046429D01*
X118571429Y-58975000D01*
X118714287Y-58903571D01*
X119071429Y-58903571D01*
X119285715Y-58975000D01*
X121071429Y-60403571D02*
X121071429Y-58903571D01*
X121642857Y-58903571D01*
X121785715Y-58975000D01*
X121857143Y-59046429D01*
X121928572Y-59189286D01*
X121928572Y-59403571D01*
X121857143Y-59546429D01*
X121785715Y-59617857D01*
X121642857Y-59689286D01*
X121071429Y-59689286D01*
X123428572Y-60403571D02*
X122928572Y-59689286D01*
X122571429Y-60403571D02*
X122571429Y-58903571D01*
X123142857Y-58903571D01*
X123285715Y-58975000D01*
X123357143Y-59046429D01*
X123428572Y-59189286D01*
X123428572Y-59403571D01*
X123357143Y-59546429D01*
X123285715Y-59617857D01*
X123142857Y-59689286D01*
X122571429Y-59689286D01*
X124071429Y-60403571D02*
X124071429Y-58903571D01*
X125071429Y-58903571D02*
X125357143Y-58903571D01*
X125500001Y-58975000D01*
X125642858Y-59117857D01*
X125714286Y-59403571D01*
X125714286Y-59903571D01*
X125642858Y-60189286D01*
X125500001Y-60332143D01*
X125357143Y-60403571D01*
X125071429Y-60403571D01*
X124928572Y-60332143D01*
X124785715Y-60189286D01*
X124714286Y-59903571D01*
X124714286Y-59403571D01*
X124785715Y-59117857D01*
X124928572Y-58975000D01*
X125071429Y-58903571D01*
X127214287Y-60403571D02*
X126714287Y-59689286D01*
X126357144Y-60403571D02*
X126357144Y-58903571D01*
X126928572Y-58903571D01*
X127071430Y-58975000D01*
X127142858Y-59046429D01*
X127214287Y-59189286D01*
X127214287Y-59403571D01*
X127142858Y-59546429D01*
X127071430Y-59617857D01*
X126928572Y-59689286D01*
X126357144Y-59689286D01*
X91392857Y-61453571D02*
X92250000Y-61453571D01*
X91821429Y-62953571D02*
X91821429Y-61453571D01*
X93035714Y-61453571D02*
X93321428Y-61453571D01*
X93464286Y-61525000D01*
X93607143Y-61667857D01*
X93678571Y-61953571D01*
X93678571Y-62453571D01*
X93607143Y-62739286D01*
X93464286Y-62882143D01*
X93321428Y-62953571D01*
X93035714Y-62953571D01*
X92892857Y-62882143D01*
X92750000Y-62739286D01*
X92678571Y-62453571D01*
X92678571Y-61953571D01*
X92750000Y-61667857D01*
X92892857Y-61525000D01*
X93035714Y-61453571D01*
X95392857Y-62882143D02*
X95607143Y-62953571D01*
X95964286Y-62953571D01*
X96107143Y-62882143D01*
X96178572Y-62810714D01*
X96250000Y-62667857D01*
X96250000Y-62525000D01*
X96178572Y-62382143D01*
X96107143Y-62310714D01*
X95964286Y-62239286D01*
X95678572Y-62167857D01*
X95535714Y-62096429D01*
X95464286Y-62025000D01*
X95392857Y-61882143D01*
X95392857Y-61739286D01*
X95464286Y-61596429D01*
X95535714Y-61525000D01*
X95678572Y-61453571D01*
X96035714Y-61453571D01*
X96250000Y-61525000D01*
X97178571Y-61453571D02*
X97464285Y-61453571D01*
X97607143Y-61525000D01*
X97750000Y-61667857D01*
X97821428Y-61953571D01*
X97821428Y-62453571D01*
X97750000Y-62739286D01*
X97607143Y-62882143D01*
X97464285Y-62953571D01*
X97178571Y-62953571D01*
X97035714Y-62882143D01*
X96892857Y-62739286D01*
X96821428Y-62453571D01*
X96821428Y-61953571D01*
X96892857Y-61667857D01*
X97035714Y-61525000D01*
X97178571Y-61453571D01*
X99178572Y-62953571D02*
X98464286Y-62953571D01*
X98464286Y-61453571D01*
X99678572Y-62953571D02*
X99678572Y-61453571D01*
X100035715Y-61453571D01*
X100250000Y-61525000D01*
X100392858Y-61667857D01*
X100464286Y-61810714D01*
X100535715Y-62096429D01*
X100535715Y-62310714D01*
X100464286Y-62596429D01*
X100392858Y-62739286D01*
X100250000Y-62882143D01*
X100035715Y-62953571D01*
X99678572Y-62953571D01*
X101178572Y-62167857D02*
X101678572Y-62167857D01*
X101892858Y-62953571D02*
X101178572Y-62953571D01*
X101178572Y-61453571D01*
X101892858Y-61453571D01*
X103392858Y-62953571D02*
X102892858Y-62239286D01*
X102535715Y-62953571D02*
X102535715Y-61453571D01*
X103107143Y-61453571D01*
X103250001Y-61525000D01*
X103321429Y-61596429D01*
X103392858Y-61739286D01*
X103392858Y-61953571D01*
X103321429Y-62096429D01*
X103250001Y-62167857D01*
X103107143Y-62239286D01*
X102535715Y-62239286D01*
X104035715Y-62953571D02*
X104035715Y-61453571D01*
X104750001Y-62953571D02*
X104750001Y-61453571D01*
X105607144Y-62953571D01*
X105607144Y-61453571D01*
X107107144Y-61525000D02*
X106964287Y-61453571D01*
X106750001Y-61453571D01*
X106535716Y-61525000D01*
X106392858Y-61667857D01*
X106321430Y-61810714D01*
X106250001Y-62096429D01*
X106250001Y-62310714D01*
X106321430Y-62596429D01*
X106392858Y-62739286D01*
X106535716Y-62882143D01*
X106750001Y-62953571D01*
X106892858Y-62953571D01*
X107107144Y-62882143D01*
X107178573Y-62810714D01*
X107178573Y-62310714D01*
X106892858Y-62310714D01*
X109464287Y-62167857D02*
X109678573Y-62239286D01*
X109750001Y-62310714D01*
X109821430Y-62453571D01*
X109821430Y-62667857D01*
X109750001Y-62810714D01*
X109678573Y-62882143D01*
X109535715Y-62953571D01*
X108964287Y-62953571D01*
X108964287Y-61453571D01*
X109464287Y-61453571D01*
X109607144Y-61525000D01*
X109678573Y-61596429D01*
X109750001Y-61739286D01*
X109750001Y-61882143D01*
X109678573Y-62025000D01*
X109607144Y-62096429D01*
X109464287Y-62167857D01*
X108964287Y-62167857D01*
X110392858Y-62525000D02*
X111107144Y-62525000D01*
X110250001Y-62953571D02*
X110750001Y-61453571D01*
X111250001Y-62953571D01*
X111535715Y-61453571D02*
X112392858Y-61453571D01*
X111964287Y-62953571D02*
X111964287Y-61453571D01*
X112678572Y-61453571D02*
X113535715Y-61453571D01*
X113107144Y-62953571D02*
X113107144Y-61453571D01*
X114035715Y-62167857D02*
X114535715Y-62167857D01*
X114750001Y-62953571D02*
X114035715Y-62953571D01*
X114035715Y-61453571D01*
X114750001Y-61453571D01*
X116250001Y-62953571D02*
X115750001Y-62239286D01*
X115392858Y-62953571D02*
X115392858Y-61453571D01*
X115964286Y-61453571D01*
X116107144Y-61525000D01*
X116178572Y-61596429D01*
X116250001Y-61739286D01*
X116250001Y-61953571D01*
X116178572Y-62096429D01*
X116107144Y-62167857D01*
X115964286Y-62239286D01*
X115392858Y-62239286D01*
X117178572Y-62239286D02*
X117178572Y-62953571D01*
X116678572Y-61453571D02*
X117178572Y-62239286D01*
X117678572Y-61453571D01*
X119321429Y-62953571D02*
X119321429Y-61453571D01*
X119892857Y-61453571D01*
X120035715Y-61525000D01*
X120107143Y-61596429D01*
X120178572Y-61739286D01*
X120178572Y-61953571D01*
X120107143Y-62096429D01*
X120035715Y-62167857D01*
X119892857Y-62239286D01*
X119321429Y-62239286D01*
X120750000Y-62525000D02*
X121464286Y-62525000D01*
X120607143Y-62953571D02*
X121107143Y-61453571D01*
X121607143Y-62953571D01*
X122964286Y-62810714D02*
X122892857Y-62882143D01*
X122678571Y-62953571D01*
X122535714Y-62953571D01*
X122321429Y-62882143D01*
X122178571Y-62739286D01*
X122107143Y-62596429D01*
X122035714Y-62310714D01*
X122035714Y-62096429D01*
X122107143Y-61810714D01*
X122178571Y-61667857D01*
X122321429Y-61525000D01*
X122535714Y-61453571D01*
X122678571Y-61453571D01*
X122892857Y-61525000D01*
X122964286Y-61596429D01*
X123607143Y-62953571D02*
X123607143Y-61453571D01*
X124464286Y-62953571D02*
X123821429Y-62096429D01*
X124464286Y-61453571D02*
X123607143Y-62310714D01*
D11*
X217000000Y-26000000D02*
X217000000Y-97000000D01*
X147000000Y-86000000D02*
X147000000Y-86000000D01*
X147000000Y-82000000D02*
X147000000Y-82000000D01*
X147000000Y-46000000D02*
X147000000Y-46000000D01*
X149000000Y-44000000D02*
X147000000Y-46000000D01*
X147000000Y-42000000D02*
X147000000Y-42000000D01*
X149000000Y-44000000D02*
X147000000Y-42000000D01*
X79000000Y-44000000D02*
X149000000Y-44000000D01*
D12*
X79642856Y-40403571D02*
X79642856Y-38903571D01*
X80357142Y-40403571D02*
X80357142Y-38903571D01*
X81214285Y-40403571D01*
X81214285Y-38903571D01*
X81857142Y-40332143D02*
X82071428Y-40403571D01*
X82428571Y-40403571D01*
X82571428Y-40332143D01*
X82642857Y-40260714D01*
X82714285Y-40117857D01*
X82714285Y-39975000D01*
X82642857Y-39832143D01*
X82571428Y-39760714D01*
X82428571Y-39689286D01*
X82142857Y-39617857D01*
X81999999Y-39546429D01*
X81928571Y-39475000D01*
X81857142Y-39332143D01*
X81857142Y-39189286D01*
X81928571Y-39046429D01*
X81999999Y-38975000D01*
X82142857Y-38903571D01*
X82499999Y-38903571D01*
X82714285Y-38975000D01*
X83142856Y-38903571D02*
X83999999Y-38903571D01*
X83571428Y-40403571D02*
X83571428Y-38903571D01*
X84428570Y-39975000D02*
X85142856Y-39975000D01*
X84285713Y-40403571D02*
X84785713Y-38903571D01*
X85285713Y-40403571D01*
X86499999Y-40403571D02*
X85785713Y-40403571D01*
X85785713Y-38903571D01*
X87714285Y-40403571D02*
X86999999Y-40403571D01*
X86999999Y-38903571D01*
X89857142Y-39617857D02*
X89357142Y-39617857D01*
X89357142Y-40403571D02*
X89357142Y-38903571D01*
X90071428Y-38903571D01*
X90928570Y-38903571D02*
X91214284Y-38903571D01*
X91357142Y-38975000D01*
X91499999Y-39117857D01*
X91571427Y-39403571D01*
X91571427Y-39903571D01*
X91499999Y-40189286D01*
X91357142Y-40332143D01*
X91214284Y-40403571D01*
X90928570Y-40403571D01*
X90785713Y-40332143D01*
X90642856Y-40189286D01*
X90571427Y-39903571D01*
X90571427Y-39403571D01*
X90642856Y-39117857D01*
X90785713Y-38975000D01*
X90928570Y-38903571D01*
X92214285Y-38903571D02*
X92214285Y-40117857D01*
X92285713Y-40260714D01*
X92357142Y-40332143D01*
X92499999Y-40403571D01*
X92785713Y-40403571D01*
X92928571Y-40332143D01*
X92999999Y-40260714D01*
X93071428Y-40117857D01*
X93071428Y-38903571D01*
X94642857Y-40403571D02*
X94142857Y-39689286D01*
X93785714Y-40403571D02*
X93785714Y-38903571D01*
X94357142Y-38903571D01*
X94500000Y-38975000D01*
X94571428Y-39046429D01*
X94642857Y-39189286D01*
X94642857Y-39403571D01*
X94571428Y-39546429D01*
X94500000Y-39617857D01*
X94357142Y-39689286D01*
X93785714Y-39689286D01*
X96428571Y-40403571D02*
X96428571Y-38903571D01*
X96999999Y-38903571D01*
X97142857Y-38975000D01*
X97214285Y-39046429D01*
X97285714Y-39189286D01*
X97285714Y-39403571D01*
X97214285Y-39546429D01*
X97142857Y-39617857D01*
X96999999Y-39689286D01*
X96428571Y-39689286D01*
X98214285Y-38903571D02*
X98499999Y-38903571D01*
X98642857Y-38975000D01*
X98785714Y-39117857D01*
X98857142Y-39403571D01*
X98857142Y-39903571D01*
X98785714Y-40189286D01*
X98642857Y-40332143D01*
X98499999Y-40403571D01*
X98214285Y-40403571D01*
X98071428Y-40332143D01*
X97928571Y-40189286D01*
X97857142Y-39903571D01*
X97857142Y-39403571D01*
X97928571Y-39117857D01*
X98071428Y-38975000D01*
X98214285Y-38903571D01*
X100214286Y-40403571D02*
X99500000Y-40403571D01*
X99500000Y-38903571D01*
X101000000Y-39689286D02*
X101000000Y-40403571D01*
X100500000Y-38903571D02*
X101000000Y-39689286D01*
X101500000Y-38903571D01*
X102000000Y-38903571D02*
X102000000Y-40117857D01*
X102071428Y-40260714D01*
X102142857Y-40332143D01*
X102285714Y-40403571D01*
X102571428Y-40403571D01*
X102714286Y-40332143D01*
X102785714Y-40260714D01*
X102857143Y-40117857D01*
X102857143Y-38903571D01*
X104428572Y-40403571D02*
X103928572Y-39689286D01*
X103571429Y-40403571D02*
X103571429Y-38903571D01*
X104142857Y-38903571D01*
X104285715Y-38975000D01*
X104357143Y-39046429D01*
X104428572Y-39189286D01*
X104428572Y-39403571D01*
X104357143Y-39546429D01*
X104285715Y-39617857D01*
X104142857Y-39689286D01*
X103571429Y-39689286D01*
X105071429Y-39617857D02*
X105571429Y-39617857D01*
X105785715Y-40403571D02*
X105071429Y-40403571D01*
X105071429Y-38903571D01*
X105785715Y-38903571D01*
X106214286Y-38903571D02*
X107071429Y-38903571D01*
X106642858Y-40403571D02*
X106642858Y-38903571D01*
X107571429Y-40403571D02*
X107571429Y-38903571D01*
X107571429Y-39617857D02*
X108428572Y-39617857D01*
X108428572Y-40403571D02*
X108428572Y-38903571D01*
X109071429Y-39975000D02*
X109785715Y-39975000D01*
X108928572Y-40403571D02*
X109428572Y-38903571D01*
X109928572Y-40403571D01*
X110428572Y-40403571D02*
X110428572Y-38903571D01*
X111285715Y-40403571D01*
X111285715Y-38903571D01*
X112000001Y-39617857D02*
X112500001Y-39617857D01*
X112714287Y-40403571D02*
X112000001Y-40403571D01*
X112000001Y-38903571D01*
X112714287Y-38903571D01*
X115000001Y-39617857D02*
X115214287Y-39689286D01*
X115285715Y-39760714D01*
X115357144Y-39903571D01*
X115357144Y-40117857D01*
X115285715Y-40260714D01*
X115214287Y-40332143D01*
X115071429Y-40403571D01*
X114500001Y-40403571D01*
X114500001Y-38903571D01*
X115000001Y-38903571D01*
X115142858Y-38975000D01*
X115214287Y-39046429D01*
X115285715Y-39189286D01*
X115285715Y-39332143D01*
X115214287Y-39475000D01*
X115142858Y-39546429D01*
X115000001Y-39617857D01*
X114500001Y-39617857D01*
X116000001Y-38903571D02*
X116000001Y-40117857D01*
X116071429Y-40260714D01*
X116142858Y-40332143D01*
X116285715Y-40403571D01*
X116571429Y-40403571D01*
X116714287Y-40332143D01*
X116785715Y-40260714D01*
X116857144Y-40117857D01*
X116857144Y-38903571D01*
X117571430Y-40403571D02*
X117571430Y-38903571D01*
X118071430Y-39975000D01*
X118571430Y-38903571D01*
X118571430Y-40403571D01*
X119785716Y-39617857D02*
X120000002Y-39689286D01*
X120071430Y-39760714D01*
X120142859Y-39903571D01*
X120142859Y-40117857D01*
X120071430Y-40260714D01*
X120000002Y-40332143D01*
X119857144Y-40403571D01*
X119285716Y-40403571D01*
X119285716Y-38903571D01*
X119785716Y-38903571D01*
X119928573Y-38975000D01*
X120000002Y-39046429D01*
X120071430Y-39189286D01*
X120071430Y-39332143D01*
X120000002Y-39475000D01*
X119928573Y-39546429D01*
X119785716Y-39617857D01*
X119285716Y-39617857D01*
X120785716Y-39617857D02*
X121285716Y-39617857D01*
X121500002Y-40403571D02*
X120785716Y-40403571D01*
X120785716Y-38903571D01*
X121500002Y-38903571D01*
X123000002Y-40403571D02*
X122500002Y-39689286D01*
X122142859Y-40403571D02*
X122142859Y-38903571D01*
X122714287Y-38903571D01*
X122857145Y-38975000D01*
X122928573Y-39046429D01*
X123000002Y-39189286D01*
X123000002Y-39403571D01*
X122928573Y-39546429D01*
X122857145Y-39617857D01*
X122714287Y-39689286D01*
X122142859Y-39689286D01*
X123571430Y-40332143D02*
X123785716Y-40403571D01*
X124142859Y-40403571D01*
X124285716Y-40332143D01*
X124357145Y-40260714D01*
X124428573Y-40117857D01*
X124428573Y-39975000D01*
X124357145Y-39832143D01*
X124285716Y-39760714D01*
X124142859Y-39689286D01*
X123857145Y-39617857D01*
X123714287Y-39546429D01*
X123642859Y-39475000D01*
X123571430Y-39332143D01*
X123571430Y-39189286D01*
X123642859Y-39046429D01*
X123714287Y-38975000D01*
X123857145Y-38903571D01*
X124214287Y-38903571D01*
X124428573Y-38975000D01*
X81428571Y-42953571D02*
X81428571Y-41453571D01*
X82142857Y-42953571D02*
X82142857Y-41453571D01*
X83000000Y-42953571D01*
X83000000Y-41453571D01*
X85357143Y-42167857D02*
X84857143Y-42167857D01*
X84857143Y-42953571D02*
X84857143Y-41453571D01*
X85571429Y-41453571D01*
X86428571Y-41453571D02*
X86714285Y-41453571D01*
X86857143Y-41525000D01*
X87000000Y-41667857D01*
X87071428Y-41953571D01*
X87071428Y-42453571D01*
X87000000Y-42739286D01*
X86857143Y-42882143D01*
X86714285Y-42953571D01*
X86428571Y-42953571D01*
X86285714Y-42882143D01*
X86142857Y-42739286D01*
X86071428Y-42453571D01*
X86071428Y-41953571D01*
X86142857Y-41667857D01*
X86285714Y-41525000D01*
X86428571Y-41453571D01*
X87714286Y-41453571D02*
X87714286Y-42667857D01*
X87785714Y-42810714D01*
X87857143Y-42882143D01*
X88000000Y-42953571D01*
X88285714Y-42953571D01*
X88428572Y-42882143D01*
X88500000Y-42810714D01*
X88571429Y-42667857D01*
X88571429Y-41453571D01*
X90142858Y-42953571D02*
X89642858Y-42239286D01*
X89285715Y-42953571D02*
X89285715Y-41453571D01*
X89857143Y-41453571D01*
X90000001Y-41525000D01*
X90071429Y-41596429D01*
X90142858Y-41739286D01*
X90142858Y-41953571D01*
X90071429Y-42096429D01*
X90000001Y-42167857D01*
X89857143Y-42239286D01*
X89285715Y-42239286D01*
X92714286Y-42953571D02*
X91857143Y-42953571D01*
X92285715Y-42953571D02*
X92285715Y-41453571D01*
X92142858Y-41667857D01*
X92000000Y-41810714D01*
X91857143Y-41882143D01*
X93642857Y-41453571D02*
X93785714Y-41453571D01*
X93928571Y-41525000D01*
X94000000Y-41596429D01*
X94071429Y-41739286D01*
X94142857Y-42025000D01*
X94142857Y-42382143D01*
X94071429Y-42667857D01*
X94000000Y-42810714D01*
X93928571Y-42882143D01*
X93785714Y-42953571D01*
X93642857Y-42953571D01*
X93500000Y-42882143D01*
X93428571Y-42810714D01*
X93357143Y-42667857D01*
X93285714Y-42382143D01*
X93285714Y-42025000D01*
X93357143Y-41739286D01*
X93428571Y-41596429D01*
X93500000Y-41525000D01*
X93642857Y-41453571D01*
X94785714Y-42953571D02*
X94785714Y-41453571D01*
X95285714Y-42525000D01*
X95785714Y-41453571D01*
X95785714Y-42953571D01*
X96500000Y-42953571D02*
X96500000Y-41453571D01*
X97000000Y-42525000D01*
X97500000Y-41453571D01*
X97500000Y-42953571D01*
X99285714Y-42882143D02*
X99500000Y-42953571D01*
X99857143Y-42953571D01*
X100000000Y-42882143D01*
X100071429Y-42810714D01*
X100142857Y-42667857D01*
X100142857Y-42525000D01*
X100071429Y-42382143D01*
X100000000Y-42310714D01*
X99857143Y-42239286D01*
X99571429Y-42167857D01*
X99428571Y-42096429D01*
X99357143Y-42025000D01*
X99285714Y-41882143D01*
X99285714Y-41739286D01*
X99357143Y-41596429D01*
X99428571Y-41525000D01*
X99571429Y-41453571D01*
X99928571Y-41453571D01*
X100142857Y-41525000D01*
X100785714Y-42953571D02*
X100785714Y-41453571D01*
X102214286Y-42953571D02*
X101500000Y-42953571D01*
X101500000Y-41453571D01*
X102714286Y-42953571D02*
X102714286Y-41453571D01*
X103571429Y-42953571D02*
X102928572Y-42096429D01*
X103571429Y-41453571D02*
X102714286Y-42310714D01*
X104142857Y-42882143D02*
X104357143Y-42953571D01*
X104714286Y-42953571D01*
X104857143Y-42882143D01*
X104928572Y-42810714D01*
X105000000Y-42667857D01*
X105000000Y-42525000D01*
X104928572Y-42382143D01*
X104857143Y-42310714D01*
X104714286Y-42239286D01*
X104428572Y-42167857D01*
X104285714Y-42096429D01*
X104214286Y-42025000D01*
X104142857Y-41882143D01*
X104142857Y-41739286D01*
X104214286Y-41596429D01*
X104285714Y-41525000D01*
X104428572Y-41453571D01*
X104785714Y-41453571D01*
X105000000Y-41525000D01*
X106500000Y-42810714D02*
X106428571Y-42882143D01*
X106214285Y-42953571D01*
X106071428Y-42953571D01*
X105857143Y-42882143D01*
X105714285Y-42739286D01*
X105642857Y-42596429D01*
X105571428Y-42310714D01*
X105571428Y-42096429D01*
X105642857Y-41810714D01*
X105714285Y-41667857D01*
X105857143Y-41525000D01*
X106071428Y-41453571D01*
X106214285Y-41453571D01*
X106428571Y-41525000D01*
X106500000Y-41596429D01*
X108000000Y-42953571D02*
X107500000Y-42239286D01*
X107142857Y-42953571D02*
X107142857Y-41453571D01*
X107714285Y-41453571D01*
X107857143Y-41525000D01*
X107928571Y-41596429D01*
X108000000Y-41739286D01*
X108000000Y-41953571D01*
X107928571Y-42096429D01*
X107857143Y-42167857D01*
X107714285Y-42239286D01*
X107142857Y-42239286D01*
X108642857Y-42167857D02*
X109142857Y-42167857D01*
X109357143Y-42953571D02*
X108642857Y-42953571D01*
X108642857Y-41453571D01*
X109357143Y-41453571D01*
X110000000Y-42167857D02*
X110500000Y-42167857D01*
X110714286Y-42953571D02*
X110000000Y-42953571D01*
X110000000Y-41453571D01*
X110714286Y-41453571D01*
X111357143Y-42953571D02*
X111357143Y-41453571D01*
X112214286Y-42953571D01*
X112214286Y-41453571D01*
X114928572Y-42810714D02*
X114857143Y-42882143D01*
X114642857Y-42953571D01*
X114500000Y-42953571D01*
X114285715Y-42882143D01*
X114142857Y-42739286D01*
X114071429Y-42596429D01*
X114000000Y-42310714D01*
X114000000Y-42096429D01*
X114071429Y-41810714D01*
X114142857Y-41667857D01*
X114285715Y-41525000D01*
X114500000Y-41453571D01*
X114642857Y-41453571D01*
X114857143Y-41525000D01*
X114928572Y-41596429D01*
X115571429Y-42953571D02*
X115571429Y-41453571D01*
X117142858Y-42953571D02*
X116642858Y-42239286D01*
X116285715Y-42953571D02*
X116285715Y-41453571D01*
X116857143Y-41453571D01*
X117000001Y-41525000D01*
X117071429Y-41596429D01*
X117142858Y-41739286D01*
X117142858Y-41953571D01*
X117071429Y-42096429D01*
X117000001Y-42167857D01*
X116857143Y-42239286D01*
X116285715Y-42239286D01*
X118642858Y-42810714D02*
X118571429Y-42882143D01*
X118357143Y-42953571D01*
X118214286Y-42953571D01*
X118000001Y-42882143D01*
X117857143Y-42739286D01*
X117785715Y-42596429D01*
X117714286Y-42310714D01*
X117714286Y-42096429D01*
X117785715Y-41810714D01*
X117857143Y-41667857D01*
X118000001Y-41525000D01*
X118214286Y-41453571D01*
X118357143Y-41453571D01*
X118571429Y-41525000D01*
X118642858Y-41596429D01*
X120000001Y-42953571D02*
X119285715Y-42953571D01*
X119285715Y-41453571D01*
X120500001Y-42167857D02*
X121000001Y-42167857D01*
X121214287Y-42953571D02*
X120500001Y-42953571D01*
X120500001Y-41453571D01*
X121214287Y-41453571D01*
X121785715Y-42882143D02*
X122000001Y-42953571D01*
X122357144Y-42953571D01*
X122500001Y-42882143D01*
X122571430Y-42810714D01*
X122642858Y-42667857D01*
X122642858Y-42525000D01*
X122571430Y-42382143D01*
X122500001Y-42310714D01*
X122357144Y-42239286D01*
X122071430Y-42167857D01*
X121928572Y-42096429D01*
X121857144Y-42025000D01*
X121785715Y-41882143D01*
X121785715Y-41739286D01*
X121857144Y-41596429D01*
X121928572Y-41525000D01*
X122071430Y-41453571D01*
X122428572Y-41453571D01*
X122642858Y-41525000D01*
D11*
X145000000Y-94000000D02*
X147000000Y-94000000D01*
X145000000Y-94000000D02*
X145000000Y-96000000D01*
X187000000Y-102000000D02*
X187000000Y-102000000D01*
X153000000Y-102000000D02*
X187000000Y-102000000D01*
X145000000Y-94000000D02*
X153000000Y-102000000D01*
D12*
X154428570Y-100535714D02*
X154357141Y-100607143D01*
X154142855Y-100678571D01*
X153999998Y-100678571D01*
X153785713Y-100607143D01*
X153642855Y-100464286D01*
X153571427Y-100321429D01*
X153499998Y-100035714D01*
X153499998Y-99821429D01*
X153571427Y-99535714D01*
X153642855Y-99392857D01*
X153785713Y-99250000D01*
X153999998Y-99178571D01*
X154142855Y-99178571D01*
X154357141Y-99250000D01*
X154428570Y-99321429D01*
X155357141Y-99178571D02*
X155642855Y-99178571D01*
X155785713Y-99250000D01*
X155928570Y-99392857D01*
X155999998Y-99678571D01*
X155999998Y-100178571D01*
X155928570Y-100464286D01*
X155785713Y-100607143D01*
X155642855Y-100678571D01*
X155357141Y-100678571D01*
X155214284Y-100607143D01*
X155071427Y-100464286D01*
X154999998Y-100178571D01*
X154999998Y-99678571D01*
X155071427Y-99392857D01*
X155214284Y-99250000D01*
X155357141Y-99178571D01*
X156642856Y-100678571D02*
X156642856Y-99178571D01*
X157142856Y-100250000D01*
X157642856Y-99178571D01*
X157642856Y-100678571D01*
X158357142Y-100678571D02*
X158357142Y-99178571D01*
X158928570Y-99178571D01*
X159071428Y-99250000D01*
X159142856Y-99321429D01*
X159214285Y-99464286D01*
X159214285Y-99678571D01*
X159142856Y-99821429D01*
X159071428Y-99892857D01*
X158928570Y-99964286D01*
X158357142Y-99964286D01*
X160142856Y-99178571D02*
X160428570Y-99178571D01*
X160571428Y-99250000D01*
X160714285Y-99392857D01*
X160785713Y-99678571D01*
X160785713Y-100178571D01*
X160714285Y-100464286D01*
X160571428Y-100607143D01*
X160428570Y-100678571D01*
X160142856Y-100678571D01*
X159999999Y-100607143D01*
X159857142Y-100464286D01*
X159785713Y-100178571D01*
X159785713Y-99678571D01*
X159857142Y-99392857D01*
X159999999Y-99250000D01*
X160142856Y-99178571D01*
X161428571Y-100678571D02*
X161428571Y-99178571D01*
X162285714Y-100678571D01*
X162285714Y-99178571D01*
X163000000Y-99892857D02*
X163500000Y-99892857D01*
X163714286Y-100678571D02*
X163000000Y-100678571D01*
X163000000Y-99178571D01*
X163714286Y-99178571D01*
X164357143Y-100678571D02*
X164357143Y-99178571D01*
X165214286Y-100678571D01*
X165214286Y-99178571D01*
X165714286Y-99178571D02*
X166571429Y-99178571D01*
X166142858Y-100678571D02*
X166142858Y-99178571D01*
X168214286Y-100678571D02*
X168214286Y-99178571D01*
X168785714Y-99178571D01*
X168928572Y-99250000D01*
X169000000Y-99321429D01*
X169071429Y-99464286D01*
X169071429Y-99678571D01*
X169000000Y-99821429D01*
X168928572Y-99892857D01*
X168785714Y-99964286D01*
X168214286Y-99964286D01*
X170000000Y-99178571D02*
X170285714Y-99178571D01*
X170428572Y-99250000D01*
X170571429Y-99392857D01*
X170642857Y-99678571D01*
X170642857Y-100178571D01*
X170571429Y-100464286D01*
X170428572Y-100607143D01*
X170285714Y-100678571D01*
X170000000Y-100678571D01*
X169857143Y-100607143D01*
X169714286Y-100464286D01*
X169642857Y-100178571D01*
X169642857Y-99678571D01*
X169714286Y-99392857D01*
X169857143Y-99250000D01*
X170000000Y-99178571D01*
X171214286Y-100607143D02*
X171428572Y-100678571D01*
X171785715Y-100678571D01*
X171928572Y-100607143D01*
X172000001Y-100535714D01*
X172071429Y-100392857D01*
X172071429Y-100250000D01*
X172000001Y-100107143D01*
X171928572Y-100035714D01*
X171785715Y-99964286D01*
X171500001Y-99892857D01*
X171357143Y-99821429D01*
X171285715Y-99750000D01*
X171214286Y-99607143D01*
X171214286Y-99464286D01*
X171285715Y-99321429D01*
X171357143Y-99250000D01*
X171500001Y-99178571D01*
X171857143Y-99178571D01*
X172071429Y-99250000D01*
X172714286Y-100678571D02*
X172714286Y-99178571D01*
X173214286Y-99178571D02*
X174071429Y-99178571D01*
X173642858Y-100678571D02*
X173642858Y-99178571D01*
X174571429Y-100678571D02*
X174571429Y-99178571D01*
X175571429Y-99178571D02*
X175857143Y-99178571D01*
X176000001Y-99250000D01*
X176142858Y-99392857D01*
X176214286Y-99678571D01*
X176214286Y-100178571D01*
X176142858Y-100464286D01*
X176000001Y-100607143D01*
X175857143Y-100678571D01*
X175571429Y-100678571D01*
X175428572Y-100607143D01*
X175285715Y-100464286D01*
X175214286Y-100178571D01*
X175214286Y-99678571D01*
X175285715Y-99392857D01*
X175428572Y-99250000D01*
X175571429Y-99178571D01*
X176857144Y-100678571D02*
X176857144Y-99178571D01*
X177714287Y-100678571D01*
X177714287Y-99178571D01*
X179857144Y-99178571D02*
X180142858Y-99178571D01*
X180285716Y-99250000D01*
X180428573Y-99392857D01*
X180500001Y-99678571D01*
X180500001Y-100178571D01*
X180428573Y-100464286D01*
X180285716Y-100607143D01*
X180142858Y-100678571D01*
X179857144Y-100678571D01*
X179714287Y-100607143D01*
X179571430Y-100464286D01*
X179500001Y-100178571D01*
X179500001Y-99678571D01*
X179571430Y-99392857D01*
X179714287Y-99250000D01*
X179857144Y-99178571D01*
X182000002Y-100678571D02*
X181500002Y-99964286D01*
X181142859Y-100678571D02*
X181142859Y-99178571D01*
X181714287Y-99178571D01*
X181857145Y-99250000D01*
X181928573Y-99321429D01*
X182000002Y-99464286D01*
X182000002Y-99678571D01*
X181928573Y-99821429D01*
X181857145Y-99892857D01*
X181714287Y-99964286D01*
X181142859Y-99964286D01*
X182642859Y-100678571D02*
X182642859Y-99178571D01*
X184142859Y-99250000D02*
X184000002Y-99178571D01*
X183785716Y-99178571D01*
X183571431Y-99250000D01*
X183428573Y-99392857D01*
X183357145Y-99535714D01*
X183285716Y-99821429D01*
X183285716Y-100035714D01*
X183357145Y-100321429D01*
X183428573Y-100464286D01*
X183571431Y-100607143D01*
X183785716Y-100678571D01*
X183928573Y-100678571D01*
X184142859Y-100607143D01*
X184214288Y-100535714D01*
X184214288Y-100035714D01*
X183928573Y-100035714D01*
X184857145Y-100678571D02*
X184857145Y-99178571D01*
X185571431Y-100678571D02*
X185571431Y-99178571D01*
X186428574Y-100678571D01*
X186428574Y-99178571D01*
D11*
X188000000Y-95000000D02*
X196000000Y-103000000D01*
X211000000Y-103000000D02*
X196000000Y-103000000D01*
X217000000Y-97000000D02*
X211000000Y-103000000D01*
X207000000Y-83000000D02*
X209000000Y-83000000D01*
X207000000Y-83000000D02*
X207000000Y-85000000D01*
X207000000Y-83000000D02*
X207000000Y-83000000D01*
X212000000Y-88000000D02*
X207000000Y-83000000D01*
X212000000Y-97000000D02*
X212000000Y-88000000D01*
X203000000Y-106000000D02*
X212000000Y-97000000D01*
X126000000Y-106000000D02*
X203000000Y-106000000D01*
X143000000Y-91000000D02*
X143000000Y-91000000D01*
X143000000Y-89000000D02*
X143000000Y-91000000D01*
X141000000Y-89000000D02*
X141000000Y-89000000D01*
X143000000Y-89000000D02*
X141000000Y-89000000D01*
X126000000Y-106000000D02*
X143000000Y-89000000D01*
X93000000Y-106000000D02*
X126000000Y-106000000D01*
D12*
X95250000Y-104678571D02*
X94750000Y-103964286D01*
X94392857Y-104678571D02*
X94392857Y-103178571D01*
X94964285Y-103178571D01*
X95107143Y-103250000D01*
X95178571Y-103321429D01*
X95250000Y-103464286D01*
X95250000Y-103678571D01*
X95178571Y-103821429D01*
X95107143Y-103892857D01*
X94964285Y-103964286D01*
X94392857Y-103964286D01*
X96178571Y-103178571D02*
X96464285Y-103178571D01*
X96607143Y-103250000D01*
X96750000Y-103392857D01*
X96821428Y-103678571D01*
X96821428Y-104178571D01*
X96750000Y-104464286D01*
X96607143Y-104607143D01*
X96464285Y-104678571D01*
X96178571Y-104678571D01*
X96035714Y-104607143D01*
X95892857Y-104464286D01*
X95821428Y-104178571D01*
X95821428Y-103678571D01*
X95892857Y-103392857D01*
X96035714Y-103250000D01*
X96178571Y-103178571D01*
X97464286Y-103178571D02*
X97464286Y-104392857D01*
X97535714Y-104535714D01*
X97607143Y-104607143D01*
X97750000Y-104678571D01*
X98035714Y-104678571D01*
X98178572Y-104607143D01*
X98250000Y-104535714D01*
X98321429Y-104392857D01*
X98321429Y-103178571D01*
X98821429Y-103178571D02*
X99678572Y-103178571D01*
X99250001Y-104678571D02*
X99250001Y-103178571D01*
X100178572Y-103892857D02*
X100678572Y-103892857D01*
X100892858Y-104678571D02*
X100178572Y-104678571D01*
X100178572Y-103178571D01*
X100892858Y-103178571D01*
X102464286Y-103178571D02*
X103321429Y-103178571D01*
X102892858Y-104678571D02*
X102892858Y-103178571D01*
X103678572Y-103178571D02*
X104035715Y-104678571D01*
X104321429Y-103607143D01*
X104607143Y-104678571D01*
X104964286Y-103178571D01*
X105821429Y-103178571D02*
X106107143Y-103178571D01*
X106250001Y-103250000D01*
X106392858Y-103392857D01*
X106464286Y-103678571D01*
X106464286Y-104178571D01*
X106392858Y-104464286D01*
X106250001Y-104607143D01*
X106107143Y-104678571D01*
X105821429Y-104678571D01*
X105678572Y-104607143D01*
X105535715Y-104464286D01*
X105464286Y-104178571D01*
X105464286Y-103678571D01*
X105535715Y-103392857D01*
X105678572Y-103250000D01*
X105821429Y-103178571D01*
X108178572Y-104607143D02*
X108392858Y-104678571D01*
X108750001Y-104678571D01*
X108892858Y-104607143D01*
X108964287Y-104535714D01*
X109035715Y-104392857D01*
X109035715Y-104250000D01*
X108964287Y-104107143D01*
X108892858Y-104035714D01*
X108750001Y-103964286D01*
X108464287Y-103892857D01*
X108321429Y-103821429D01*
X108250001Y-103750000D01*
X108178572Y-103607143D01*
X108178572Y-103464286D01*
X108250001Y-103321429D01*
X108321429Y-103250000D01*
X108464287Y-103178571D01*
X108821429Y-103178571D01*
X109035715Y-103250000D01*
X109678572Y-104678571D02*
X109678572Y-103178571D01*
X110392858Y-104678571D02*
X110392858Y-103178571D01*
X110750001Y-103178571D01*
X110964286Y-103250000D01*
X111107144Y-103392857D01*
X111178572Y-103535714D01*
X111250001Y-103821429D01*
X111250001Y-104035714D01*
X111178572Y-104321429D01*
X111107144Y-104464286D01*
X110964286Y-104607143D01*
X110750001Y-104678571D01*
X110392858Y-104678571D01*
X111892858Y-103892857D02*
X112392858Y-103892857D01*
X112607144Y-104678571D02*
X111892858Y-104678571D01*
X111892858Y-103178571D01*
X112607144Y-103178571D01*
X113178572Y-104607143D02*
X113392858Y-104678571D01*
X113750001Y-104678571D01*
X113892858Y-104607143D01*
X113964287Y-104535714D01*
X114035715Y-104392857D01*
X114035715Y-104250000D01*
X113964287Y-104107143D01*
X113892858Y-104035714D01*
X113750001Y-103964286D01*
X113464287Y-103892857D01*
X113321429Y-103821429D01*
X113250001Y-103750000D01*
X113178572Y-103607143D01*
X113178572Y-103464286D01*
X113250001Y-103321429D01*
X113321429Y-103250000D01*
X113464287Y-103178571D01*
X113821429Y-103178571D01*
X114035715Y-103250000D01*
X116107143Y-103178571D02*
X116392857Y-103178571D01*
X116535715Y-103250000D01*
X116678572Y-103392857D01*
X116750000Y-103678571D01*
X116750000Y-104178571D01*
X116678572Y-104464286D01*
X116535715Y-104607143D01*
X116392857Y-104678571D01*
X116107143Y-104678571D01*
X115964286Y-104607143D01*
X115821429Y-104464286D01*
X115750000Y-104178571D01*
X115750000Y-103678571D01*
X115821429Y-103392857D01*
X115964286Y-103250000D01*
X116107143Y-103178571D01*
X117892858Y-103892857D02*
X117392858Y-103892857D01*
X117392858Y-104678571D02*
X117392858Y-103178571D01*
X118107144Y-103178571D01*
X119821429Y-104678571D02*
X119821429Y-103178571D01*
X120392857Y-103178571D01*
X120535715Y-103250000D01*
X120607143Y-103321429D01*
X120678572Y-103464286D01*
X120678572Y-103678571D01*
X120607143Y-103821429D01*
X120535715Y-103892857D01*
X120392857Y-103964286D01*
X119821429Y-103964286D01*
X122178572Y-104535714D02*
X122107143Y-104607143D01*
X121892857Y-104678571D01*
X121750000Y-104678571D01*
X121535715Y-104607143D01*
X121392857Y-104464286D01*
X121321429Y-104321429D01*
X121250000Y-104035714D01*
X121250000Y-103821429D01*
X121321429Y-103535714D01*
X121392857Y-103392857D01*
X121535715Y-103250000D01*
X121750000Y-103178571D01*
X121892857Y-103178571D01*
X122107143Y-103250000D01*
X122178572Y-103321429D01*
X123321429Y-103892857D02*
X123535715Y-103964286D01*
X123607143Y-104035714D01*
X123678572Y-104178571D01*
X123678572Y-104392857D01*
X123607143Y-104535714D01*
X123535715Y-104607143D01*
X123392857Y-104678571D01*
X122821429Y-104678571D01*
X122821429Y-103178571D01*
X123321429Y-103178571D01*
X123464286Y-103250000D01*
X123535715Y-103321429D01*
X123607143Y-103464286D01*
X123607143Y-103607143D01*
X123535715Y-103750000D01*
X123464286Y-103821429D01*
X123321429Y-103892857D01*
X122821429Y-103892857D01*
D11*
X190000000Y-95000000D02*
X190000000Y-95000000D01*
X188000000Y-95000000D02*
X190000000Y-95000000D01*
X188000000Y-97000000D02*
X188000000Y-97000000D01*
X188000000Y-95000000D02*
X188000000Y-97000000D01*
X197000000Y-34000000D02*
X197000000Y-34000000D01*
X195000000Y-34000000D02*
X197000000Y-34000000D01*
X195000000Y-32000000D02*
X195000000Y-32000000D01*
X195000000Y-34000000D02*
X195000000Y-32000000D01*
X203000000Y-26000000D02*
X195000000Y-34000000D01*
X253000000Y-26000000D02*
X203000000Y-26000000D01*
D12*
X218500000Y-23178571D02*
X219000000Y-24678571D01*
X219500000Y-23178571D01*
X220000000Y-24107143D02*
X221142857Y-24107143D01*
X221785714Y-24607143D02*
X222000000Y-24678571D01*
X222357143Y-24678571D01*
X222500000Y-24607143D01*
X222571429Y-24535714D01*
X222642857Y-24392857D01*
X222642857Y-24250000D01*
X222571429Y-24107143D01*
X222500000Y-24035714D01*
X222357143Y-23964286D01*
X222071429Y-23892857D01*
X221928571Y-23821429D01*
X221857143Y-23750000D01*
X221785714Y-23607143D01*
X221785714Y-23464286D01*
X221857143Y-23321429D01*
X221928571Y-23250000D01*
X222071429Y-23178571D01*
X222428571Y-23178571D01*
X222642857Y-23250000D01*
X224142857Y-24535714D02*
X224071428Y-24607143D01*
X223857142Y-24678571D01*
X223714285Y-24678571D01*
X223500000Y-24607143D01*
X223357142Y-24464286D01*
X223285714Y-24321429D01*
X223214285Y-24035714D01*
X223214285Y-23821429D01*
X223285714Y-23535714D01*
X223357142Y-23392857D01*
X223500000Y-23250000D01*
X223714285Y-23178571D01*
X223857142Y-23178571D01*
X224071428Y-23250000D01*
X224142857Y-23321429D01*
X225071428Y-23178571D02*
X225357142Y-23178571D01*
X225500000Y-23250000D01*
X225642857Y-23392857D01*
X225714285Y-23678571D01*
X225714285Y-24178571D01*
X225642857Y-24464286D01*
X225500000Y-24607143D01*
X225357142Y-24678571D01*
X225071428Y-24678571D01*
X224928571Y-24607143D01*
X224785714Y-24464286D01*
X224714285Y-24178571D01*
X224714285Y-23678571D01*
X224785714Y-23392857D01*
X224928571Y-23250000D01*
X225071428Y-23178571D01*
X227214286Y-24678571D02*
X226714286Y-23964286D01*
X226357143Y-24678571D02*
X226357143Y-23178571D01*
X226928571Y-23178571D01*
X227071429Y-23250000D01*
X227142857Y-23321429D01*
X227214286Y-23464286D01*
X227214286Y-23678571D01*
X227142857Y-23821429D01*
X227071429Y-23892857D01*
X226928571Y-23964286D01*
X226357143Y-23964286D01*
X227857143Y-23892857D02*
X228357143Y-23892857D01*
X228571429Y-24678571D02*
X227857143Y-24678571D01*
X227857143Y-23178571D01*
X228571429Y-23178571D01*
X230142857Y-23178571D02*
X231000000Y-23178571D01*
X230571429Y-24678571D02*
X230571429Y-23178571D01*
X231357143Y-23178571D02*
X231714286Y-24678571D01*
X232000000Y-23607143D01*
X232285714Y-24678571D01*
X232642857Y-23178571D01*
X233500000Y-23178571D02*
X233785714Y-23178571D01*
X233928572Y-23250000D01*
X234071429Y-23392857D01*
X234142857Y-23678571D01*
X234142857Y-24178571D01*
X234071429Y-24464286D01*
X233928572Y-24607143D01*
X233785714Y-24678571D01*
X233500000Y-24678571D01*
X233357143Y-24607143D01*
X233214286Y-24464286D01*
X233142857Y-24178571D01*
X233142857Y-23678571D01*
X233214286Y-23392857D01*
X233357143Y-23250000D01*
X233500000Y-23178571D01*
X235857143Y-24607143D02*
X236071429Y-24678571D01*
X236428572Y-24678571D01*
X236571429Y-24607143D01*
X236642858Y-24535714D01*
X236714286Y-24392857D01*
X236714286Y-24250000D01*
X236642858Y-24107143D01*
X236571429Y-24035714D01*
X236428572Y-23964286D01*
X236142858Y-23892857D01*
X236000000Y-23821429D01*
X235928572Y-23750000D01*
X235857143Y-23607143D01*
X235857143Y-23464286D01*
X235928572Y-23321429D01*
X236000000Y-23250000D01*
X236142858Y-23178571D01*
X236500000Y-23178571D01*
X236714286Y-23250000D01*
X237357143Y-24678571D02*
X237357143Y-23178571D01*
X238071429Y-24678571D02*
X238071429Y-23178571D01*
X238428572Y-23178571D01*
X238642857Y-23250000D01*
X238785715Y-23392857D01*
X238857143Y-23535714D01*
X238928572Y-23821429D01*
X238928572Y-24035714D01*
X238857143Y-24321429D01*
X238785715Y-24464286D01*
X238642857Y-24607143D01*
X238428572Y-24678571D01*
X238071429Y-24678571D01*
X239571429Y-23892857D02*
X240071429Y-23892857D01*
X240285715Y-24678571D02*
X239571429Y-24678571D01*
X239571429Y-23178571D01*
X240285715Y-23178571D01*
X240857143Y-24607143D02*
X241071429Y-24678571D01*
X241428572Y-24678571D01*
X241571429Y-24607143D01*
X241642858Y-24535714D01*
X241714286Y-24392857D01*
X241714286Y-24250000D01*
X241642858Y-24107143D01*
X241571429Y-24035714D01*
X241428572Y-23964286D01*
X241142858Y-23892857D01*
X241000000Y-23821429D01*
X240928572Y-23750000D01*
X240857143Y-23607143D01*
X240857143Y-23464286D01*
X240928572Y-23321429D01*
X241000000Y-23250000D01*
X241142858Y-23178571D01*
X241500000Y-23178571D01*
X241714286Y-23250000D01*
X243785714Y-23178571D02*
X244071428Y-23178571D01*
X244214286Y-23250000D01*
X244357143Y-23392857D01*
X244428571Y-23678571D01*
X244428571Y-24178571D01*
X244357143Y-24464286D01*
X244214286Y-24607143D01*
X244071428Y-24678571D01*
X243785714Y-24678571D01*
X243642857Y-24607143D01*
X243500000Y-24464286D01*
X243428571Y-24178571D01*
X243428571Y-23678571D01*
X243500000Y-23392857D01*
X243642857Y-23250000D01*
X243785714Y-23178571D01*
X245571429Y-23892857D02*
X245071429Y-23892857D01*
X245071429Y-24678571D02*
X245071429Y-23178571D01*
X245785715Y-23178571D01*
X247500000Y-24678571D02*
X247500000Y-23178571D01*
X248071428Y-23178571D01*
X248214286Y-23250000D01*
X248285714Y-23321429D01*
X248357143Y-23464286D01*
X248357143Y-23678571D01*
X248285714Y-23821429D01*
X248214286Y-23892857D01*
X248071428Y-23964286D01*
X247500000Y-23964286D01*
X249857143Y-24535714D02*
X249785714Y-24607143D01*
X249571428Y-24678571D01*
X249428571Y-24678571D01*
X249214286Y-24607143D01*
X249071428Y-24464286D01*
X249000000Y-24321429D01*
X248928571Y-24035714D01*
X248928571Y-23821429D01*
X249000000Y-23535714D01*
X249071428Y-23392857D01*
X249214286Y-23250000D01*
X249428571Y-23178571D01*
X249571428Y-23178571D01*
X249785714Y-23250000D01*
X249857143Y-23321429D01*
X251000000Y-23892857D02*
X251214286Y-23964286D01*
X251285714Y-24035714D01*
X251357143Y-24178571D01*
X251357143Y-24392857D01*
X251285714Y-24535714D01*
X251214286Y-24607143D01*
X251071428Y-24678571D01*
X250500000Y-24678571D01*
X250500000Y-23178571D01*
X251000000Y-23178571D01*
X251142857Y-23250000D01*
X251214286Y-23321429D01*
X251285714Y-23464286D01*
X251285714Y-23607143D01*
X251214286Y-23750000D01*
X251142857Y-23821429D01*
X251000000Y-23892857D01*
X250500000Y-23892857D01*
X133357143Y-126928571D02*
X133357143Y-125428571D01*
X134214286Y-126928571D01*
X134214286Y-125428571D01*
X135214286Y-125428571D02*
X135500000Y-125428571D01*
X135642858Y-125500000D01*
X135785715Y-125642857D01*
X135857143Y-125928571D01*
X135857143Y-126428571D01*
X135785715Y-126714286D01*
X135642858Y-126857143D01*
X135500000Y-126928571D01*
X135214286Y-126928571D01*
X135071429Y-126857143D01*
X134928572Y-126714286D01*
X134857143Y-126428571D01*
X134857143Y-125928571D01*
X134928572Y-125642857D01*
X135071429Y-125500000D01*
X135214286Y-125428571D01*
X136285715Y-125428571D02*
X137142858Y-125428571D01*
X136714287Y-126928571D02*
X136714287Y-125428571D01*
X137642858Y-126142857D02*
X138142858Y-126142857D01*
X138357144Y-126928571D02*
X137642858Y-126928571D01*
X137642858Y-125428571D01*
X138357144Y-125428571D01*
X138928572Y-126857143D02*
X139142858Y-126928571D01*
X139500001Y-126928571D01*
X139642858Y-126857143D01*
X139714287Y-126785714D01*
X139785715Y-126642857D01*
X139785715Y-126500000D01*
X139714287Y-126357143D01*
X139642858Y-126285714D01*
X139500001Y-126214286D01*
X139214287Y-126142857D01*
X139071429Y-126071429D01*
X139000001Y-126000000D01*
X138928572Y-125857143D01*
X138928572Y-125714286D01*
X139000001Y-125571429D01*
X139071429Y-125500000D01*
X139214287Y-125428571D01*
X139571429Y-125428571D01*
X139785715Y-125500000D01*
X140428572Y-126785714D02*
X140500000Y-126857143D01*
X140428572Y-126928571D01*
X140357143Y-126857143D01*
X140428572Y-126785714D01*
X140428572Y-126928571D01*
X140428572Y-126000000D02*
X140500000Y-126071429D01*
X140428572Y-126142857D01*
X140357143Y-126071429D01*
X140428572Y-126000000D01*
X140428572Y-126142857D01*
X134142857Y-129478571D02*
X133285714Y-129478571D01*
X133714286Y-129478571D02*
X133714286Y-127978571D01*
X133571429Y-128192857D01*
X133428571Y-128335714D01*
X133285714Y-128407143D01*
X134785714Y-129335714D02*
X134857142Y-129407143D01*
X134785714Y-129478571D01*
X134714285Y-129407143D01*
X134785714Y-129335714D01*
X134785714Y-129478571D01*
X137142857Y-128692857D02*
X136642857Y-128692857D01*
X136642857Y-129478571D02*
X136642857Y-127978571D01*
X137357143Y-127978571D01*
X138214285Y-127978571D02*
X138499999Y-127978571D01*
X138642857Y-128050000D01*
X138785714Y-128192857D01*
X138857142Y-128478571D01*
X138857142Y-128978571D01*
X138785714Y-129264286D01*
X138642857Y-129407143D01*
X138499999Y-129478571D01*
X138214285Y-129478571D01*
X138071428Y-129407143D01*
X137928571Y-129264286D01*
X137857142Y-128978571D01*
X137857142Y-128478571D01*
X137928571Y-128192857D01*
X138071428Y-128050000D01*
X138214285Y-127978571D01*
X139785714Y-127978571D02*
X140071428Y-127978571D01*
X140214286Y-128050000D01*
X140357143Y-128192857D01*
X140428571Y-128478571D01*
X140428571Y-128978571D01*
X140357143Y-129264286D01*
X140214286Y-129407143D01*
X140071428Y-129478571D01*
X139785714Y-129478571D01*
X139642857Y-129407143D01*
X139500000Y-129264286D01*
X139428571Y-128978571D01*
X139428571Y-128478571D01*
X139500000Y-128192857D01*
X139642857Y-128050000D01*
X139785714Y-127978571D01*
X140857143Y-127978571D02*
X141714286Y-127978571D01*
X141285715Y-129478571D02*
X141285715Y-127978571D01*
X142214286Y-129478571D02*
X142214286Y-127978571D01*
X142785714Y-127978571D01*
X142928572Y-128050000D01*
X143000000Y-128121429D01*
X143071429Y-128264286D01*
X143071429Y-128478571D01*
X143000000Y-128621429D01*
X142928572Y-128692857D01*
X142785714Y-128764286D01*
X142214286Y-128764286D01*
X144571429Y-129478571D02*
X144071429Y-128764286D01*
X143714286Y-129478571D02*
X143714286Y-127978571D01*
X144285714Y-127978571D01*
X144428572Y-128050000D01*
X144500000Y-128121429D01*
X144571429Y-128264286D01*
X144571429Y-128478571D01*
X144500000Y-128621429D01*
X144428572Y-128692857D01*
X144285714Y-128764286D01*
X143714286Y-128764286D01*
X145214286Y-129478571D02*
X145214286Y-127978571D01*
X145928572Y-129478571D02*
X145928572Y-127978571D01*
X146785715Y-129478571D01*
X146785715Y-127978571D01*
X147285715Y-127978571D02*
X148142858Y-127978571D01*
X147714287Y-129478571D02*
X147714287Y-127978571D01*
X148571429Y-129407143D02*
X148785715Y-129478571D01*
X149142858Y-129478571D01*
X149285715Y-129407143D01*
X149357144Y-129335714D01*
X149428572Y-129192857D01*
X149428572Y-129050000D01*
X149357144Y-128907143D01*
X149285715Y-128835714D01*
X149142858Y-128764286D01*
X148857144Y-128692857D01*
X148714286Y-128621429D01*
X148642858Y-128550000D01*
X148571429Y-128407143D01*
X148571429Y-128264286D01*
X148642858Y-128121429D01*
X148714286Y-128050000D01*
X148857144Y-127978571D01*
X149214286Y-127978571D01*
X149428572Y-128050000D01*
X151500000Y-127978571D02*
X151785714Y-127978571D01*
X151928572Y-128050000D01*
X152071429Y-128192857D01*
X152142857Y-128478571D01*
X152142857Y-128978571D01*
X152071429Y-129264286D01*
X151928572Y-129407143D01*
X151785714Y-129478571D01*
X151500000Y-129478571D01*
X151357143Y-129407143D01*
X151214286Y-129264286D01*
X151142857Y-128978571D01*
X151142857Y-128478571D01*
X151214286Y-128192857D01*
X151357143Y-128050000D01*
X151500000Y-127978571D01*
X153642858Y-129478571D02*
X153142858Y-128764286D01*
X152785715Y-129478571D02*
X152785715Y-127978571D01*
X153357143Y-127978571D01*
X153500001Y-128050000D01*
X153571429Y-128121429D01*
X153642858Y-128264286D01*
X153642858Y-128478571D01*
X153571429Y-128621429D01*
X153500001Y-128692857D01*
X153357143Y-128764286D01*
X152785715Y-128764286D01*
X154285715Y-129478571D02*
X154285715Y-127978571D01*
X155000001Y-128692857D02*
X155500001Y-128692857D01*
X155714287Y-129478571D02*
X155000001Y-129478571D01*
X155000001Y-127978571D01*
X155714287Y-127978571D01*
X156357144Y-129478571D02*
X156357144Y-127978571D01*
X157214287Y-129478571D01*
X157214287Y-127978571D01*
X157714287Y-127978571D02*
X158571430Y-127978571D01*
X158142859Y-129478571D02*
X158142859Y-127978571D01*
X159071430Y-128692857D02*
X159571430Y-128692857D01*
X159785716Y-129478571D02*
X159071430Y-129478571D01*
X159071430Y-127978571D01*
X159785716Y-127978571D01*
X160428573Y-129478571D02*
X160428573Y-127978571D01*
X160785716Y-127978571D01*
X161000001Y-128050000D01*
X161142859Y-128192857D01*
X161214287Y-128335714D01*
X161285716Y-128621429D01*
X161285716Y-128835714D01*
X161214287Y-129121429D01*
X161142859Y-129264286D01*
X161000001Y-129407143D01*
X160785716Y-129478571D01*
X160428573Y-129478571D01*
X163071430Y-129478571D02*
X163071430Y-127978571D01*
X163642858Y-127978571D01*
X163785716Y-128050000D01*
X163857144Y-128121429D01*
X163928573Y-128264286D01*
X163928573Y-128478571D01*
X163857144Y-128621429D01*
X163785716Y-128692857D01*
X163642858Y-128764286D01*
X163071430Y-128764286D01*
X164571430Y-128692857D02*
X165071430Y-128692857D01*
X165285716Y-129478571D02*
X164571430Y-129478571D01*
X164571430Y-127978571D01*
X165285716Y-127978571D01*
X166785716Y-129478571D02*
X166285716Y-128764286D01*
X165928573Y-129478571D02*
X165928573Y-127978571D01*
X166500001Y-127978571D01*
X166642859Y-128050000D01*
X166714287Y-128121429D01*
X166785716Y-128264286D01*
X166785716Y-128478571D01*
X166714287Y-128621429D01*
X166642859Y-128692857D01*
X166500001Y-128764286D01*
X165928573Y-128764286D01*
X168571430Y-129478571D02*
X168571430Y-127978571D01*
X169285716Y-129478571D02*
X169285716Y-127978571D01*
X169857144Y-127978571D01*
X170000002Y-128050000D01*
X170071430Y-128121429D01*
X170142859Y-128264286D01*
X170142859Y-128478571D01*
X170071430Y-128621429D01*
X170000002Y-128692857D01*
X169857144Y-128764286D01*
X169285716Y-128764286D01*
X171642859Y-129335714D02*
X171571430Y-129407143D01*
X171357144Y-129478571D01*
X171214287Y-129478571D01*
X171000002Y-129407143D01*
X170857144Y-129264286D01*
X170785716Y-129121429D01*
X170714287Y-128835714D01*
X170714287Y-128621429D01*
X170785716Y-128335714D01*
X170857144Y-128192857D01*
X171000002Y-128050000D01*
X171214287Y-127978571D01*
X171357144Y-127978571D01*
X171571430Y-128050000D01*
X171642859Y-128121429D01*
X172285716Y-128907143D02*
X173428573Y-128907143D01*
X174000002Y-127978571D02*
X175000002Y-127978571D01*
X174357145Y-129478571D01*
X175428573Y-127978571D02*
X176357144Y-127978571D01*
X175857144Y-128550000D01*
X176071430Y-128550000D01*
X176214287Y-128621429D01*
X176285716Y-128692857D01*
X176357144Y-128835714D01*
X176357144Y-129192857D01*
X176285716Y-129335714D01*
X176214287Y-129407143D01*
X176071430Y-129478571D01*
X175642858Y-129478571D01*
X175500001Y-129407143D01*
X175428573Y-129335714D01*
X177714287Y-127978571D02*
X177000001Y-127978571D01*
X176928572Y-128692857D01*
X177000001Y-128621429D01*
X177142858Y-128550000D01*
X177500001Y-128550000D01*
X177642858Y-128621429D01*
X177714287Y-128692857D01*
X177785715Y-128835714D01*
X177785715Y-129192857D01*
X177714287Y-129335714D01*
X177642858Y-129407143D01*
X177500001Y-129478571D01*
X177142858Y-129478571D01*
X177000001Y-129407143D01*
X176928572Y-129335714D01*
X179214286Y-129478571D02*
X178357143Y-129478571D01*
X178785715Y-129478571D02*
X178785715Y-127978571D01*
X178642858Y-128192857D01*
X178500000Y-128335714D01*
X178357143Y-128407143D01*
X180357143Y-128692857D02*
X179857143Y-128692857D01*
X179857143Y-129478571D02*
X179857143Y-127978571D01*
X180571429Y-127978571D01*
X182000000Y-129335714D02*
X181928571Y-129407143D01*
X181714285Y-129478571D01*
X181571428Y-129478571D01*
X181357143Y-129407143D01*
X181214285Y-129264286D01*
X181142857Y-129121429D01*
X181071428Y-128835714D01*
X181071428Y-128621429D01*
X181142857Y-128335714D01*
X181214285Y-128192857D01*
X181357143Y-128050000D01*
X181571428Y-127978571D01*
X181714285Y-127978571D01*
X181928571Y-128050000D01*
X182000000Y-128121429D01*
X184500000Y-129478571D02*
X183785714Y-129478571D01*
X183785714Y-127978571D01*
X185000000Y-128692857D02*
X185500000Y-128692857D01*
X185714286Y-129478571D02*
X185000000Y-129478571D01*
X185000000Y-127978571D01*
X185714286Y-127978571D01*
X186142857Y-127978571D02*
X186642857Y-129478571D01*
X187142857Y-127978571D01*
X187642857Y-128692857D02*
X188142857Y-128692857D01*
X188357143Y-129478571D02*
X187642857Y-129478571D01*
X187642857Y-127978571D01*
X188357143Y-127978571D01*
X189714286Y-129478571D02*
X189000000Y-129478571D01*
X189000000Y-127978571D01*
X191857143Y-128692857D02*
X192071429Y-128764286D01*
X192142857Y-128835714D01*
X192214286Y-128978571D01*
X192214286Y-129192857D01*
X192142857Y-129335714D01*
X192071429Y-129407143D01*
X191928571Y-129478571D01*
X191357143Y-129478571D01*
X191357143Y-127978571D01*
X191857143Y-127978571D01*
X192000000Y-128050000D01*
X192071429Y-128121429D01*
X192142857Y-128264286D01*
X192142857Y-128407143D01*
X192071429Y-128550000D01*
X192000000Y-128621429D01*
X191857143Y-128692857D01*
X191357143Y-128692857D01*
X194428571Y-130050000D02*
X194357143Y-129978571D01*
X194214286Y-129764286D01*
X194142857Y-129621429D01*
X194071428Y-129407143D01*
X194000000Y-129050000D01*
X194000000Y-128764286D01*
X194071428Y-128407143D01*
X194142857Y-128192857D01*
X194214286Y-128050000D01*
X194357143Y-127835714D01*
X194428571Y-127764286D01*
X195000000Y-129478571D02*
X195000000Y-127978571D01*
X195571428Y-127978571D01*
X195714286Y-128050000D01*
X195785714Y-128121429D01*
X195857143Y-128264286D01*
X195857143Y-128478571D01*
X195785714Y-128621429D01*
X195714286Y-128692857D01*
X195571428Y-128764286D01*
X195000000Y-128764286D01*
X196500000Y-129478571D02*
X196500000Y-127978571D01*
X197214286Y-129478571D02*
X197214286Y-127978571D01*
X198071429Y-129478571D01*
X198071429Y-127978571D01*
X200714286Y-129478571D02*
X199857143Y-129478571D01*
X200285715Y-129478571D02*
X200285715Y-127978571D01*
X200142858Y-128192857D01*
X200000000Y-128335714D01*
X199857143Y-128407143D01*
X202500000Y-129478571D02*
X202500000Y-127978571D01*
X203214286Y-129478571D02*
X203214286Y-127978571D01*
X204071429Y-129478571D01*
X204071429Y-127978571D01*
X206642858Y-129478571D02*
X205928572Y-129478571D01*
X205928572Y-127978571D01*
X207428572Y-127978571D02*
X207714286Y-127978571D01*
X207857144Y-128050000D01*
X208000001Y-128192857D01*
X208071429Y-128478571D01*
X208071429Y-128978571D01*
X208000001Y-129264286D01*
X207857144Y-129407143D01*
X207714286Y-129478571D01*
X207428572Y-129478571D01*
X207285715Y-129407143D01*
X207142858Y-129264286D01*
X207071429Y-128978571D01*
X207071429Y-128478571D01*
X207142858Y-128192857D01*
X207285715Y-128050000D01*
X207428572Y-127978571D01*
X208571430Y-127978571D02*
X208928573Y-129478571D01*
X209214287Y-128407143D01*
X209500001Y-129478571D01*
X209857144Y-127978571D01*
X210428573Y-128692857D02*
X210928573Y-128692857D01*
X211142859Y-129478571D02*
X210428573Y-129478571D01*
X210428573Y-127978571D01*
X211142859Y-127978571D01*
X212642859Y-129478571D02*
X212142859Y-128764286D01*
X211785716Y-129478571D02*
X211785716Y-127978571D01*
X212357144Y-127978571D01*
X212500002Y-128050000D01*
X212571430Y-128121429D01*
X212642859Y-128264286D01*
X212642859Y-128478571D01*
X212571430Y-128621429D01*
X212500002Y-128692857D01*
X212357144Y-128764286D01*
X211785716Y-128764286D01*
X215142859Y-129478571D02*
X214428573Y-129478571D01*
X214428573Y-127978571D01*
X215642859Y-128692857D02*
X216142859Y-128692857D01*
X216357145Y-129478571D02*
X215642859Y-129478571D01*
X215642859Y-127978571D01*
X216357145Y-127978571D01*
X217500002Y-128692857D02*
X217000002Y-128692857D01*
X217000002Y-129478571D02*
X217000002Y-127978571D01*
X217714288Y-127978571D01*
X218071430Y-127978571D02*
X218928573Y-127978571D01*
X218500002Y-129478571D02*
X218500002Y-127978571D01*
X219285716Y-130050000D02*
X219357144Y-129978571D01*
X219500001Y-129764286D01*
X219571430Y-129621429D01*
X219642859Y-129407143D01*
X219714287Y-129050000D01*
X219714287Y-128764286D01*
X219642859Y-128407143D01*
X219571430Y-128192857D01*
X219500001Y-128050000D01*
X219357144Y-127835714D01*
X219285716Y-127764286D01*
X133285714Y-130671429D02*
X133357143Y-130600000D01*
X133500000Y-130528571D01*
X133857143Y-130528571D01*
X134000000Y-130600000D01*
X134071429Y-130671429D01*
X134142857Y-130814286D01*
X134142857Y-130957143D01*
X134071429Y-131171429D01*
X133214286Y-132028571D01*
X134142857Y-132028571D01*
X134785714Y-131885714D02*
X134857142Y-131957143D01*
X134785714Y-132028571D01*
X134714285Y-131957143D01*
X134785714Y-131885714D01*
X134785714Y-132028571D01*
X137500000Y-131885714D02*
X137428571Y-131957143D01*
X137214285Y-132028571D01*
X137071428Y-132028571D01*
X136857143Y-131957143D01*
X136714285Y-131814286D01*
X136642857Y-131671429D01*
X136571428Y-131385714D01*
X136571428Y-131171429D01*
X136642857Y-130885714D01*
X136714285Y-130742857D01*
X136857143Y-130600000D01*
X137071428Y-130528571D01*
X137214285Y-130528571D01*
X137428571Y-130600000D01*
X137500000Y-130671429D01*
X138428571Y-130528571D02*
X138714285Y-130528571D01*
X138857143Y-130600000D01*
X139000000Y-130742857D01*
X139071428Y-131028571D01*
X139071428Y-131528571D01*
X139000000Y-131814286D01*
X138857143Y-131957143D01*
X138714285Y-132028571D01*
X138428571Y-132028571D01*
X138285714Y-131957143D01*
X138142857Y-131814286D01*
X138071428Y-131528571D01*
X138071428Y-131028571D01*
X138142857Y-130742857D01*
X138285714Y-130600000D01*
X138428571Y-130528571D01*
X139714286Y-132028571D02*
X139714286Y-130528571D01*
X140214286Y-131600000D01*
X140714286Y-130528571D01*
X140714286Y-132028571D01*
X141428572Y-132028571D02*
X141428572Y-130528571D01*
X142000000Y-130528571D01*
X142142858Y-130600000D01*
X142214286Y-130671429D01*
X142285715Y-130814286D01*
X142285715Y-131028571D01*
X142214286Y-131171429D01*
X142142858Y-131242857D01*
X142000000Y-131314286D01*
X141428572Y-131314286D01*
X143214286Y-130528571D02*
X143500000Y-130528571D01*
X143642858Y-130600000D01*
X143785715Y-130742857D01*
X143857143Y-131028571D01*
X143857143Y-131528571D01*
X143785715Y-131814286D01*
X143642858Y-131957143D01*
X143500000Y-132028571D01*
X143214286Y-132028571D01*
X143071429Y-131957143D01*
X142928572Y-131814286D01*
X142857143Y-131528571D01*
X142857143Y-131028571D01*
X142928572Y-130742857D01*
X143071429Y-130600000D01*
X143214286Y-130528571D01*
X144500001Y-132028571D02*
X144500001Y-130528571D01*
X145357144Y-132028571D01*
X145357144Y-130528571D01*
X146071430Y-131242857D02*
X146571430Y-131242857D01*
X146785716Y-132028571D02*
X146071430Y-132028571D01*
X146071430Y-130528571D01*
X146785716Y-130528571D01*
X147428573Y-132028571D02*
X147428573Y-130528571D01*
X148285716Y-132028571D01*
X148285716Y-130528571D01*
X148785716Y-130528571D02*
X149642859Y-130528571D01*
X149214288Y-132028571D02*
X149214288Y-130528571D01*
X151571430Y-130528571D02*
X151857144Y-130528571D01*
X152000002Y-130600000D01*
X152142859Y-130742857D01*
X152214287Y-131028571D01*
X152214287Y-131528571D01*
X152142859Y-131814286D01*
X152000002Y-131957143D01*
X151857144Y-132028571D01*
X151571430Y-132028571D01*
X151428573Y-131957143D01*
X151285716Y-131814286D01*
X151214287Y-131528571D01*
X151214287Y-131028571D01*
X151285716Y-130742857D01*
X151428573Y-130600000D01*
X151571430Y-130528571D01*
X153714288Y-132028571D02*
X153214288Y-131314286D01*
X152857145Y-132028571D02*
X152857145Y-130528571D01*
X153428573Y-130528571D01*
X153571431Y-130600000D01*
X153642859Y-130671429D01*
X153714288Y-130814286D01*
X153714288Y-131028571D01*
X153642859Y-131171429D01*
X153571431Y-131242857D01*
X153428573Y-131314286D01*
X152857145Y-131314286D01*
X154357145Y-132028571D02*
X154357145Y-130528571D01*
X155071431Y-131242857D02*
X155571431Y-131242857D01*
X155785717Y-132028571D02*
X155071431Y-132028571D01*
X155071431Y-130528571D01*
X155785717Y-130528571D01*
X156428574Y-132028571D02*
X156428574Y-130528571D01*
X157285717Y-132028571D01*
X157285717Y-130528571D01*
X157785717Y-130528571D02*
X158642860Y-130528571D01*
X158214289Y-132028571D02*
X158214289Y-130528571D01*
X159071431Y-131600000D02*
X159785717Y-131600000D01*
X158928574Y-132028571D02*
X159428574Y-130528571D01*
X159928574Y-132028571D01*
X160214288Y-130528571D02*
X161071431Y-130528571D01*
X160642860Y-132028571D02*
X160642860Y-130528571D01*
X161571431Y-132028571D02*
X161571431Y-130528571D01*
X162571431Y-130528571D02*
X162857145Y-130528571D01*
X163000003Y-130600000D01*
X163142860Y-130742857D01*
X163214288Y-131028571D01*
X163214288Y-131528571D01*
X163142860Y-131814286D01*
X163000003Y-131957143D01*
X162857145Y-132028571D01*
X162571431Y-132028571D01*
X162428574Y-131957143D01*
X162285717Y-131814286D01*
X162214288Y-131528571D01*
X162214288Y-131028571D01*
X162285717Y-130742857D01*
X162428574Y-130600000D01*
X162571431Y-130528571D01*
X163857146Y-132028571D02*
X163857146Y-130528571D01*
X164714289Y-132028571D01*
X164714289Y-130528571D01*
X166571432Y-132028571D02*
X166571432Y-130528571D01*
X167285718Y-132028571D02*
X167285718Y-130528571D01*
X168142861Y-132028571D01*
X168142861Y-130528571D01*
X170000004Y-132028571D02*
X170000004Y-130528571D01*
X170357147Y-130528571D01*
X170571432Y-130600000D01*
X170714290Y-130742857D01*
X170785718Y-130885714D01*
X170857147Y-131171429D01*
X170857147Y-131385714D01*
X170785718Y-131671429D01*
X170714290Y-131814286D01*
X170571432Y-131957143D01*
X170357147Y-132028571D01*
X170000004Y-132028571D01*
X171500004Y-131242857D02*
X172000004Y-131242857D01*
X172214290Y-132028571D02*
X171500004Y-132028571D01*
X171500004Y-130528571D01*
X172214290Y-130528571D01*
X173642861Y-130600000D02*
X173500004Y-130528571D01*
X173285718Y-130528571D01*
X173071433Y-130600000D01*
X172928575Y-130742857D01*
X172857147Y-130885714D01*
X172785718Y-131171429D01*
X172785718Y-131385714D01*
X172857147Y-131671429D01*
X172928575Y-131814286D01*
X173071433Y-131957143D01*
X173285718Y-132028571D01*
X173428575Y-132028571D01*
X173642861Y-131957143D01*
X173714290Y-131885714D01*
X173714290Y-131385714D01*
X173428575Y-131385714D01*
X175214290Y-132028571D02*
X174714290Y-131314286D01*
X174357147Y-132028571D02*
X174357147Y-130528571D01*
X174928575Y-130528571D01*
X175071433Y-130600000D01*
X175142861Y-130671429D01*
X175214290Y-130814286D01*
X175214290Y-131028571D01*
X175142861Y-131171429D01*
X175071433Y-131242857D01*
X174928575Y-131314286D01*
X174357147Y-131314286D01*
X175857147Y-131242857D02*
X176357147Y-131242857D01*
X176571433Y-132028571D02*
X175857147Y-132028571D01*
X175857147Y-130528571D01*
X176571433Y-130528571D01*
X177214290Y-131242857D02*
X177714290Y-131242857D01*
X177928576Y-132028571D02*
X177214290Y-132028571D01*
X177214290Y-130528571D01*
X177928576Y-130528571D01*
X178500004Y-131957143D02*
X178714290Y-132028571D01*
X179071433Y-132028571D01*
X179214290Y-131957143D01*
X179285719Y-131885714D01*
X179357147Y-131742857D01*
X179357147Y-131600000D01*
X179285719Y-131457143D01*
X179214290Y-131385714D01*
X179071433Y-131314286D01*
X178785719Y-131242857D01*
X178642861Y-131171429D01*
X178571433Y-131100000D01*
X178500004Y-130957143D01*
X178500004Y-130814286D01*
X178571433Y-130671429D01*
X178642861Y-130600000D01*
X178785719Y-130528571D01*
X179142861Y-130528571D01*
X179357147Y-130600000D01*
X182000004Y-131885714D02*
X181928575Y-131957143D01*
X181714289Y-132028571D01*
X181571432Y-132028571D01*
X181357147Y-131957143D01*
X181214289Y-131814286D01*
X181142861Y-131671429D01*
X181071432Y-131385714D01*
X181071432Y-131171429D01*
X181142861Y-130885714D01*
X181214289Y-130742857D01*
X181357147Y-130600000D01*
X181571432Y-130528571D01*
X181714289Y-130528571D01*
X181928575Y-130600000D01*
X182000004Y-130671429D01*
X182928575Y-130528571D02*
X183214289Y-130528571D01*
X183357147Y-130600000D01*
X183500004Y-130742857D01*
X183571432Y-131028571D01*
X183571432Y-131528571D01*
X183500004Y-131814286D01*
X183357147Y-131957143D01*
X183214289Y-132028571D01*
X182928575Y-132028571D01*
X182785718Y-131957143D01*
X182642861Y-131814286D01*
X182571432Y-131528571D01*
X182571432Y-131028571D01*
X182642861Y-130742857D01*
X182785718Y-130600000D01*
X182928575Y-130528571D01*
X184214290Y-130528571D02*
X184214290Y-131742857D01*
X184285718Y-131885714D01*
X184357147Y-131957143D01*
X184500004Y-132028571D01*
X184785718Y-132028571D01*
X184928576Y-131957143D01*
X185000004Y-131885714D01*
X185071433Y-131742857D01*
X185071433Y-130528571D01*
X185785719Y-132028571D02*
X185785719Y-130528571D01*
X186642862Y-132028571D01*
X186642862Y-130528571D01*
X187142862Y-130528571D02*
X188000005Y-130528571D01*
X187571434Y-132028571D02*
X187571434Y-130528571D01*
X188500005Y-131242857D02*
X189000005Y-131242857D01*
X189214291Y-132028571D02*
X188500005Y-132028571D01*
X188500005Y-130528571D01*
X189214291Y-130528571D01*
X190714291Y-132028571D02*
X190214291Y-131314286D01*
X189857148Y-132028571D02*
X189857148Y-130528571D01*
X190428576Y-130528571D01*
X190571434Y-130600000D01*
X190642862Y-130671429D01*
X190714291Y-130814286D01*
X190714291Y-131028571D01*
X190642862Y-131171429D01*
X190571434Y-131242857D01*
X190428576Y-131314286D01*
X189857148Y-131314286D01*
X191357148Y-131457143D02*
X192500005Y-131457143D01*
X194071434Y-131885714D02*
X194000005Y-131957143D01*
X193785719Y-132028571D01*
X193642862Y-132028571D01*
X193428577Y-131957143D01*
X193285719Y-131814286D01*
X193214291Y-131671429D01*
X193142862Y-131385714D01*
X193142862Y-131171429D01*
X193214291Y-130885714D01*
X193285719Y-130742857D01*
X193428577Y-130600000D01*
X193642862Y-130528571D01*
X193785719Y-130528571D01*
X194000005Y-130600000D01*
X194071434Y-130671429D01*
X195428577Y-132028571D02*
X194714291Y-132028571D01*
X194714291Y-130528571D01*
X196214291Y-130528571D02*
X196500005Y-130528571D01*
X196642863Y-130600000D01*
X196785720Y-130742857D01*
X196857148Y-131028571D01*
X196857148Y-131528571D01*
X196785720Y-131814286D01*
X196642863Y-131957143D01*
X196500005Y-132028571D01*
X196214291Y-132028571D01*
X196071434Y-131957143D01*
X195928577Y-131814286D01*
X195857148Y-131528571D01*
X195857148Y-131028571D01*
X195928577Y-130742857D01*
X196071434Y-130600000D01*
X196214291Y-130528571D01*
X198357149Y-131885714D02*
X198285720Y-131957143D01*
X198071434Y-132028571D01*
X197928577Y-132028571D01*
X197714292Y-131957143D01*
X197571434Y-131814286D01*
X197500006Y-131671429D01*
X197428577Y-131385714D01*
X197428577Y-131171429D01*
X197500006Y-130885714D01*
X197571434Y-130742857D01*
X197714292Y-130600000D01*
X197928577Y-130528571D01*
X198071434Y-130528571D01*
X198285720Y-130600000D01*
X198357149Y-130671429D01*
X199000006Y-132028571D02*
X199000006Y-130528571D01*
X199857149Y-132028571D02*
X199214292Y-131171429D01*
X199857149Y-130528571D02*
X199000006Y-131385714D01*
X200357149Y-130528571D02*
X200714292Y-132028571D01*
X201000006Y-130957143D01*
X201285720Y-132028571D01*
X201642863Y-130528571D01*
X202214292Y-132028571D02*
X202214292Y-130528571D01*
X202857149Y-131957143D02*
X203071435Y-132028571D01*
X203428578Y-132028571D01*
X203571435Y-131957143D01*
X203642864Y-131885714D01*
X203714292Y-131742857D01*
X203714292Y-131600000D01*
X203642864Y-131457143D01*
X203571435Y-131385714D01*
X203428578Y-131314286D01*
X203142864Y-131242857D01*
X203000006Y-131171429D01*
X202928578Y-131100000D01*
X202857149Y-130957143D01*
X202857149Y-130814286D01*
X202928578Y-130671429D01*
X203000006Y-130600000D01*
X203142864Y-130528571D01*
X203500006Y-130528571D01*
X203714292Y-130600000D01*
X204357149Y-131242857D02*
X204857149Y-131242857D01*
X205071435Y-132028571D02*
X204357149Y-132028571D01*
X204357149Y-130528571D01*
X205071435Y-130528571D01*
X133214286Y-133078571D02*
X134142857Y-133078571D01*
X133642857Y-133650000D01*
X133857143Y-133650000D01*
X134000000Y-133721429D01*
X134071429Y-133792857D01*
X134142857Y-133935714D01*
X134142857Y-134292857D01*
X134071429Y-134435714D01*
X134000000Y-134507143D01*
X133857143Y-134578571D01*
X133428571Y-134578571D01*
X133285714Y-134507143D01*
X133214286Y-134435714D01*
X134785714Y-134435714D02*
X134857142Y-134507143D01*
X134785714Y-134578571D01*
X134714285Y-134507143D01*
X134785714Y-134435714D01*
X134785714Y-134578571D01*
X137500000Y-134435714D02*
X137428571Y-134507143D01*
X137214285Y-134578571D01*
X137071428Y-134578571D01*
X136857143Y-134507143D01*
X136714285Y-134364286D01*
X136642857Y-134221429D01*
X136571428Y-133935714D01*
X136571428Y-133721429D01*
X136642857Y-133435714D01*
X136714285Y-133292857D01*
X136857143Y-133150000D01*
X137071428Y-133078571D01*
X137214285Y-133078571D01*
X137428571Y-133150000D01*
X137500000Y-133221429D01*
X138428571Y-133078571D02*
X138714285Y-133078571D01*
X138857143Y-133150000D01*
X139000000Y-133292857D01*
X139071428Y-133578571D01*
X139071428Y-134078571D01*
X139000000Y-134364286D01*
X138857143Y-134507143D01*
X138714285Y-134578571D01*
X138428571Y-134578571D01*
X138285714Y-134507143D01*
X138142857Y-134364286D01*
X138071428Y-134078571D01*
X138071428Y-133578571D01*
X138142857Y-133292857D01*
X138285714Y-133150000D01*
X138428571Y-133078571D01*
X139714286Y-134578571D02*
X139714286Y-133078571D01*
X140214286Y-134150000D01*
X140714286Y-133078571D01*
X140714286Y-134578571D01*
X141428572Y-134578571D02*
X141428572Y-133078571D01*
X142000000Y-133078571D01*
X142142858Y-133150000D01*
X142214286Y-133221429D01*
X142285715Y-133364286D01*
X142285715Y-133578571D01*
X142214286Y-133721429D01*
X142142858Y-133792857D01*
X142000000Y-133864286D01*
X141428572Y-133864286D01*
X143214286Y-133078571D02*
X143500000Y-133078571D01*
X143642858Y-133150000D01*
X143785715Y-133292857D01*
X143857143Y-133578571D01*
X143857143Y-134078571D01*
X143785715Y-134364286D01*
X143642858Y-134507143D01*
X143500000Y-134578571D01*
X143214286Y-134578571D01*
X143071429Y-134507143D01*
X142928572Y-134364286D01*
X142857143Y-134078571D01*
X142857143Y-133578571D01*
X142928572Y-133292857D01*
X143071429Y-133150000D01*
X143214286Y-133078571D01*
X144500001Y-134578571D02*
X144500001Y-133078571D01*
X145357144Y-134578571D01*
X145357144Y-133078571D01*
X146071430Y-133792857D02*
X146571430Y-133792857D01*
X146785716Y-134578571D02*
X146071430Y-134578571D01*
X146071430Y-133078571D01*
X146785716Y-133078571D01*
X147428573Y-134578571D02*
X147428573Y-133078571D01*
X148285716Y-134578571D01*
X148285716Y-133078571D01*
X148785716Y-133078571D02*
X149642859Y-133078571D01*
X149214288Y-134578571D02*
X149214288Y-133078571D01*
X150071430Y-134507143D02*
X150285716Y-134578571D01*
X150642859Y-134578571D01*
X150785716Y-134507143D01*
X150857145Y-134435714D01*
X150928573Y-134292857D01*
X150928573Y-134150000D01*
X150857145Y-134007143D01*
X150785716Y-133935714D01*
X150642859Y-133864286D01*
X150357145Y-133792857D01*
X150214287Y-133721429D01*
X150142859Y-133650000D01*
X150071430Y-133507143D01*
X150071430Y-133364286D01*
X150142859Y-133221429D01*
X150214287Y-133150000D01*
X150357145Y-133078571D01*
X150714287Y-133078571D01*
X150928573Y-133150000D01*
X152642858Y-134150000D02*
X153357144Y-134150000D01*
X152500001Y-134578571D02*
X153000001Y-133078571D01*
X153500001Y-134578571D01*
X154857144Y-134578571D02*
X154357144Y-133864286D01*
X154000001Y-134578571D02*
X154000001Y-133078571D01*
X154571429Y-133078571D01*
X154714287Y-133150000D01*
X154785715Y-133221429D01*
X154857144Y-133364286D01*
X154857144Y-133578571D01*
X154785715Y-133721429D01*
X154714287Y-133792857D01*
X154571429Y-133864286D01*
X154000001Y-133864286D01*
X155500001Y-133792857D02*
X156000001Y-133792857D01*
X156214287Y-134578571D02*
X155500001Y-134578571D01*
X155500001Y-133078571D01*
X156214287Y-133078571D01*
X158000001Y-134578571D02*
X158000001Y-133078571D01*
X158500001Y-134150000D01*
X159000001Y-133078571D01*
X159000001Y-134578571D01*
X160000001Y-133078571D02*
X160285715Y-133078571D01*
X160428573Y-133150000D01*
X160571430Y-133292857D01*
X160642858Y-133578571D01*
X160642858Y-134078571D01*
X160571430Y-134364286D01*
X160428573Y-134507143D01*
X160285715Y-134578571D01*
X160000001Y-134578571D01*
X159857144Y-134507143D01*
X159714287Y-134364286D01*
X159642858Y-134078571D01*
X159642858Y-133578571D01*
X159714287Y-133292857D01*
X159857144Y-133150000D01*
X160000001Y-133078571D01*
X161285716Y-133078571D02*
X161285716Y-134292857D01*
X161357144Y-134435714D01*
X161428573Y-134507143D01*
X161571430Y-134578571D01*
X161857144Y-134578571D01*
X162000002Y-134507143D01*
X162071430Y-134435714D01*
X162142859Y-134292857D01*
X162142859Y-133078571D01*
X162857145Y-134578571D02*
X162857145Y-133078571D01*
X163714288Y-134578571D01*
X163714288Y-133078571D01*
X164214288Y-133078571D02*
X165071431Y-133078571D01*
X164642860Y-134578571D02*
X164642860Y-133078571D01*
X165571431Y-133792857D02*
X166071431Y-133792857D01*
X166285717Y-134578571D02*
X165571431Y-134578571D01*
X165571431Y-133078571D01*
X166285717Y-133078571D01*
X166928574Y-134578571D02*
X166928574Y-133078571D01*
X167285717Y-133078571D01*
X167500002Y-133150000D01*
X167642860Y-133292857D01*
X167714288Y-133435714D01*
X167785717Y-133721429D01*
X167785717Y-133935714D01*
X167714288Y-134221429D01*
X167642860Y-134364286D01*
X167500002Y-134507143D01*
X167285717Y-134578571D01*
X166928574Y-134578571D01*
X169857145Y-133078571D02*
X170142859Y-133078571D01*
X170285717Y-133150000D01*
X170428574Y-133292857D01*
X170500002Y-133578571D01*
X170500002Y-134078571D01*
X170428574Y-134364286D01*
X170285717Y-134507143D01*
X170142859Y-134578571D01*
X169857145Y-134578571D01*
X169714288Y-134507143D01*
X169571431Y-134364286D01*
X169500002Y-134078571D01*
X169500002Y-133578571D01*
X169571431Y-133292857D01*
X169714288Y-133150000D01*
X169857145Y-133078571D01*
X171142860Y-134578571D02*
X171142860Y-133078571D01*
X172000003Y-134578571D01*
X172000003Y-133078571D01*
X174357146Y-133792857D02*
X173857146Y-133792857D01*
X173857146Y-134578571D02*
X173857146Y-133078571D01*
X174571432Y-133078571D01*
X175142860Y-134435714D02*
X175214288Y-134507143D01*
X175142860Y-134578571D01*
X175071431Y-134507143D01*
X175142860Y-134435714D01*
X175142860Y-134578571D01*
X176714289Y-134435714D02*
X176642860Y-134507143D01*
X176428574Y-134578571D01*
X176285717Y-134578571D01*
X176071432Y-134507143D01*
X175928574Y-134364286D01*
X175857146Y-134221429D01*
X175785717Y-133935714D01*
X175785717Y-133721429D01*
X175857146Y-133435714D01*
X175928574Y-133292857D01*
X176071432Y-133150000D01*
X176285717Y-133078571D01*
X176428574Y-133078571D01*
X176642860Y-133150000D01*
X176714289Y-133221429D01*
X177357146Y-133078571D02*
X177357146Y-134292857D01*
X177428574Y-134435714D01*
X177500003Y-134507143D01*
X177642860Y-134578571D01*
X177928574Y-134578571D01*
X178071432Y-134507143D01*
X178142860Y-134435714D01*
X178214289Y-134292857D01*
X178214289Y-133078571D01*
X180785718Y-134578571D02*
X180071432Y-134578571D01*
X180071432Y-133078571D01*
X181214289Y-134150000D02*
X181928575Y-134150000D01*
X181071432Y-134578571D02*
X181571432Y-133078571D01*
X182071432Y-134578571D01*
X182857146Y-133864286D02*
X182857146Y-134578571D01*
X182357146Y-133078571D02*
X182857146Y-133864286D01*
X183357146Y-133078571D01*
X183857146Y-133792857D02*
X184357146Y-133792857D01*
X184571432Y-134578571D02*
X183857146Y-134578571D01*
X183857146Y-133078571D01*
X184571432Y-133078571D01*
X186071432Y-134578571D02*
X185571432Y-133864286D01*
X185214289Y-134578571D02*
X185214289Y-133078571D01*
X185785717Y-133078571D01*
X185928575Y-133150000D01*
X186000003Y-133221429D01*
X186071432Y-133364286D01*
X186071432Y-133578571D01*
X186000003Y-133721429D01*
X185928575Y-133792857D01*
X185785717Y-133864286D01*
X185214289Y-133864286D01*
X188142860Y-133078571D02*
X188428574Y-133078571D01*
X188571432Y-133150000D01*
X188714289Y-133292857D01*
X188785717Y-133578571D01*
X188785717Y-134078571D01*
X188714289Y-134364286D01*
X188571432Y-134507143D01*
X188428574Y-134578571D01*
X188142860Y-134578571D01*
X188000003Y-134507143D01*
X187857146Y-134364286D01*
X187785717Y-134078571D01*
X187785717Y-133578571D01*
X187857146Y-133292857D01*
X188000003Y-133150000D01*
X188142860Y-133078571D01*
X189428575Y-134578571D02*
X189428575Y-133078571D01*
X190285718Y-134578571D01*
X190285718Y-133078571D01*
X191714290Y-134578571D02*
X191000004Y-134578571D01*
X191000004Y-133078571D01*
X192500004Y-133864286D02*
X192500004Y-134578571D01*
X192000004Y-133078571D02*
X192500004Y-133864286D01*
X193000004Y-133078571D01*
X134000000Y-136128571D02*
X134000000Y-137128571D01*
X133642857Y-135557143D02*
X133285714Y-136628571D01*
X134214286Y-136628571D01*
X134785714Y-136985714D02*
X134857142Y-137057143D01*
X134785714Y-137128571D01*
X134714285Y-137057143D01*
X134785714Y-136985714D01*
X134785714Y-137128571D01*
X136642857Y-137128571D02*
X136642857Y-135628571D01*
X137214285Y-135628571D01*
X137357143Y-135700000D01*
X137428571Y-135771429D01*
X137500000Y-135914286D01*
X137500000Y-136128571D01*
X137428571Y-136271429D01*
X137357143Y-136342857D01*
X137214285Y-136414286D01*
X136642857Y-136414286D01*
X139000000Y-136985714D02*
X138928571Y-137057143D01*
X138714285Y-137128571D01*
X138571428Y-137128571D01*
X138357143Y-137057143D01*
X138214285Y-136914286D01*
X138142857Y-136771429D01*
X138071428Y-136485714D01*
X138071428Y-136271429D01*
X138142857Y-135985714D01*
X138214285Y-135842857D01*
X138357143Y-135700000D01*
X138571428Y-135628571D01*
X138714285Y-135628571D01*
X138928571Y-135700000D01*
X139000000Y-135771429D01*
X140142857Y-136342857D02*
X140357143Y-136414286D01*
X140428571Y-136485714D01*
X140500000Y-136628571D01*
X140500000Y-136842857D01*
X140428571Y-136985714D01*
X140357143Y-137057143D01*
X140214285Y-137128571D01*
X139642857Y-137128571D01*
X139642857Y-135628571D01*
X140142857Y-135628571D01*
X140285714Y-135700000D01*
X140357143Y-135771429D01*
X140428571Y-135914286D01*
X140428571Y-136057143D01*
X140357143Y-136200000D01*
X140285714Y-136271429D01*
X140142857Y-136342857D01*
X139642857Y-136342857D01*
X142285714Y-137128571D02*
X142285714Y-135628571D01*
X142928571Y-137057143D02*
X143142857Y-137128571D01*
X143500000Y-137128571D01*
X143642857Y-137057143D01*
X143714286Y-136985714D01*
X143785714Y-136842857D01*
X143785714Y-136700000D01*
X143714286Y-136557143D01*
X143642857Y-136485714D01*
X143500000Y-136414286D01*
X143214286Y-136342857D01*
X143071428Y-136271429D01*
X143000000Y-136200000D01*
X142928571Y-136057143D01*
X142928571Y-135914286D01*
X143000000Y-135771429D01*
X143071428Y-135700000D01*
X143214286Y-135628571D01*
X143571428Y-135628571D01*
X143785714Y-135700000D01*
X146357142Y-137128571D02*
X145499999Y-137128571D01*
X145928571Y-137128571D02*
X145928571Y-135628571D01*
X145785714Y-135842857D01*
X145642856Y-135985714D01*
X145499999Y-136057143D01*
X146999999Y-136985714D02*
X147071427Y-137057143D01*
X146999999Y-137128571D01*
X146928570Y-137057143D01*
X146999999Y-136985714D01*
X146999999Y-137128571D01*
X148357142Y-135628571D02*
X148071428Y-135628571D01*
X147928571Y-135700000D01*
X147857142Y-135771429D01*
X147714285Y-135985714D01*
X147642856Y-136271429D01*
X147642856Y-136842857D01*
X147714285Y-136985714D01*
X147785713Y-137057143D01*
X147928571Y-137128571D01*
X148214285Y-137128571D01*
X148357142Y-137057143D01*
X148428571Y-136985714D01*
X148499999Y-136842857D01*
X148499999Y-136485714D01*
X148428571Y-136342857D01*
X148357142Y-136271429D01*
X148214285Y-136200000D01*
X147928571Y-136200000D01*
X147785713Y-136271429D01*
X147714285Y-136342857D01*
X147642856Y-136485714D01*
X149142856Y-137128571D02*
X149142856Y-136128571D01*
X149142856Y-136271429D02*
X149214284Y-136200000D01*
X149357142Y-136128571D01*
X149571427Y-136128571D01*
X149714284Y-136200000D01*
X149785713Y-136342857D01*
X149785713Y-137128571D01*
X149785713Y-136342857D02*
X149857142Y-136200000D01*
X149999999Y-136128571D01*
X150214284Y-136128571D01*
X150357142Y-136200000D01*
X150428570Y-136342857D01*
X150428570Y-137128571D01*
X151142856Y-137128571D02*
X151142856Y-136128571D01*
X151142856Y-136271429D02*
X151214284Y-136200000D01*
X151357142Y-136128571D01*
X151571427Y-136128571D01*
X151714284Y-136200000D01*
X151785713Y-136342857D01*
X151785713Y-137128571D01*
X151785713Y-136342857D02*
X151857142Y-136200000D01*
X151999999Y-136128571D01*
X152214284Y-136128571D01*
X152357142Y-136200000D01*
X152428570Y-136342857D01*
X152428570Y-137128571D01*
X154785713Y-136342857D02*
X154285713Y-136342857D01*
X154285713Y-137128571D02*
X154285713Y-135628571D01*
X154999999Y-135628571D01*
X156428570Y-137128571D02*
X155928570Y-136414286D01*
X155571427Y-137128571D02*
X155571427Y-135628571D01*
X156142855Y-135628571D01*
X156285713Y-135700000D01*
X156357141Y-135771429D01*
X156428570Y-135914286D01*
X156428570Y-136128571D01*
X156357141Y-136271429D01*
X156285713Y-136342857D01*
X156142855Y-136414286D01*
X155571427Y-136414286D01*
X157714284Y-136128571D02*
X157714284Y-137128571D01*
X157357141Y-135557143D02*
X156999998Y-136628571D01*
X157928570Y-136628571D01*
X160499998Y-137128571D02*
X159999998Y-136414286D01*
X159642855Y-137128571D02*
X159642855Y-135628571D01*
X160214283Y-135628571D01*
X160357141Y-135700000D01*
X160428569Y-135771429D01*
X160499998Y-135914286D01*
X160499998Y-136128571D01*
X160428569Y-136271429D01*
X160357141Y-136342857D01*
X160214283Y-136414286D01*
X159642855Y-136414286D01*
X161071426Y-136700000D02*
X161785712Y-136700000D01*
X160928569Y-137128571D02*
X161428569Y-135628571D01*
X161928569Y-137128571D01*
X162214283Y-135628571D02*
X163071426Y-135628571D01*
X162642855Y-137128571D02*
X162642855Y-135628571D01*
X163571426Y-136342857D02*
X164071426Y-136342857D01*
X164285712Y-137128571D02*
X163571426Y-137128571D01*
X163571426Y-135628571D01*
X164285712Y-135628571D01*
X164928569Y-137128571D02*
X164928569Y-135628571D01*
X165285712Y-135628571D01*
X165499997Y-135700000D01*
X165642855Y-135842857D01*
X165714283Y-135985714D01*
X165785712Y-136271429D01*
X165785712Y-136485714D01*
X165714283Y-136771429D01*
X165642855Y-136914286D01*
X165499997Y-137057143D01*
X165285712Y-137128571D01*
X164928569Y-137128571D01*
X168071426Y-136342857D02*
X167571426Y-136342857D01*
X167571426Y-137128571D02*
X167571426Y-135628571D01*
X168285712Y-135628571D01*
X169142854Y-135628571D02*
X169428568Y-135628571D01*
X169571426Y-135700000D01*
X169714283Y-135842857D01*
X169785711Y-136128571D01*
X169785711Y-136628571D01*
X169714283Y-136914286D01*
X169571426Y-137057143D01*
X169428568Y-137128571D01*
X169142854Y-137128571D01*
X168999997Y-137057143D01*
X168857140Y-136914286D01*
X168785711Y-136628571D01*
X168785711Y-136128571D01*
X168857140Y-135842857D01*
X168999997Y-135700000D01*
X169142854Y-135628571D01*
X171285712Y-137128571D02*
X170785712Y-136414286D01*
X170428569Y-137128571D02*
X170428569Y-135628571D01*
X170999997Y-135628571D01*
X171142855Y-135700000D01*
X171214283Y-135771429D01*
X171285712Y-135914286D01*
X171285712Y-136128571D01*
X171214283Y-136271429D01*
X171142855Y-136342857D01*
X170999997Y-136414286D01*
X170428569Y-136414286D01*
X173928569Y-137128571D02*
X173428569Y-136414286D01*
X173071426Y-137128571D02*
X173071426Y-135628571D01*
X173642854Y-135628571D01*
X173785712Y-135700000D01*
X173857140Y-135771429D01*
X173928569Y-135914286D01*
X173928569Y-136128571D01*
X173857140Y-136271429D01*
X173785712Y-136342857D01*
X173642854Y-136414286D01*
X173071426Y-136414286D01*
X174857140Y-135628571D02*
X175142854Y-135628571D01*
X175285712Y-135700000D01*
X175428569Y-135842857D01*
X175499997Y-136128571D01*
X175499997Y-136628571D01*
X175428569Y-136914286D01*
X175285712Y-137057143D01*
X175142854Y-137128571D01*
X174857140Y-137128571D01*
X174714283Y-137057143D01*
X174571426Y-136914286D01*
X174499997Y-136628571D01*
X174499997Y-136128571D01*
X174571426Y-135842857D01*
X174714283Y-135700000D01*
X174857140Y-135628571D01*
X176142855Y-137128571D02*
X176142855Y-135628571D01*
X176142855Y-136342857D02*
X176999998Y-136342857D01*
X176999998Y-137128571D02*
X176999998Y-135628571D01*
X177642855Y-137057143D02*
X177857141Y-137128571D01*
X178214284Y-137128571D01*
X178357141Y-137057143D01*
X178428570Y-136985714D01*
X178499998Y-136842857D01*
X178499998Y-136700000D01*
X178428570Y-136557143D01*
X178357141Y-136485714D01*
X178214284Y-136414286D01*
X177928570Y-136342857D01*
X177785712Y-136271429D01*
X177714284Y-136200000D01*
X177642855Y-136057143D01*
X177642855Y-135914286D01*
X177714284Y-135771429D01*
X177785712Y-135700000D01*
X177928570Y-135628571D01*
X178285712Y-135628571D01*
X178499998Y-135700000D01*
X181142855Y-137128571D02*
X180642855Y-136414286D01*
X180285712Y-137128571D02*
X180285712Y-135628571D01*
X180857140Y-135628571D01*
X180999998Y-135700000D01*
X181071426Y-135771429D01*
X181142855Y-135914286D01*
X181142855Y-136128571D01*
X181071426Y-136271429D01*
X180999998Y-136342857D01*
X180857140Y-136414286D01*
X180285712Y-136414286D01*
X181785712Y-136342857D02*
X182285712Y-136342857D01*
X182499998Y-137128571D02*
X181785712Y-137128571D01*
X181785712Y-135628571D01*
X182499998Y-135628571D01*
X183642855Y-136342857D02*
X183142855Y-136342857D01*
X183142855Y-137128571D02*
X183142855Y-135628571D01*
X183857141Y-135628571D01*
X185142855Y-137128571D02*
X184428569Y-137128571D01*
X184428569Y-135628571D01*
X185928569Y-135628571D02*
X186214283Y-135628571D01*
X186357141Y-135700000D01*
X186499998Y-135842857D01*
X186571426Y-136128571D01*
X186571426Y-136628571D01*
X186499998Y-136914286D01*
X186357141Y-137057143D01*
X186214283Y-137128571D01*
X185928569Y-137128571D01*
X185785712Y-137057143D01*
X185642855Y-136914286D01*
X185571426Y-136628571D01*
X185571426Y-136128571D01*
X185642855Y-135842857D01*
X185785712Y-135700000D01*
X185928569Y-135628571D01*
X187071427Y-135628571D02*
X187428570Y-137128571D01*
X187714284Y-136057143D01*
X187999998Y-137128571D01*
X188357141Y-135628571D01*
X188999998Y-137057143D02*
X188999998Y-137128571D01*
X188928570Y-137271429D01*
X188857141Y-137342857D01*
X191571427Y-137128571D02*
X190714284Y-137128571D01*
X191142856Y-137128571D02*
X191142856Y-135628571D01*
X190999999Y-135842857D01*
X190857141Y-135985714D01*
X190714284Y-136057143D01*
X192499998Y-135628571D02*
X192785712Y-135628571D01*
X192928570Y-135700000D01*
X193071427Y-135842857D01*
X193142855Y-136128571D01*
X193142855Y-136628571D01*
X193071427Y-136914286D01*
X192928570Y-137057143D01*
X192785712Y-137128571D01*
X192499998Y-137128571D01*
X192357141Y-137057143D01*
X192214284Y-136914286D01*
X192142855Y-136628571D01*
X192142855Y-136128571D01*
X192214284Y-135842857D01*
X192357141Y-135700000D01*
X192499998Y-135628571D01*
X193642856Y-135628571D02*
X194642856Y-135628571D01*
X193642856Y-137128571D01*
X194642856Y-137128571D01*
X197214284Y-136985714D02*
X197142855Y-137057143D01*
X196928569Y-137128571D01*
X196785712Y-137128571D01*
X196571427Y-137057143D01*
X196428569Y-136914286D01*
X196357141Y-136771429D01*
X196285712Y-136485714D01*
X196285712Y-136271429D01*
X196357141Y-135985714D01*
X196428569Y-135842857D01*
X196571427Y-135700000D01*
X196785712Y-135628571D01*
X196928569Y-135628571D01*
X197142855Y-135700000D01*
X197214284Y-135771429D01*
X198142855Y-135628571D02*
X198428569Y-135628571D01*
X198571427Y-135700000D01*
X198714284Y-135842857D01*
X198785712Y-136128571D01*
X198785712Y-136628571D01*
X198714284Y-136914286D01*
X198571427Y-137057143D01*
X198428569Y-137128571D01*
X198142855Y-137128571D01*
X197999998Y-137057143D01*
X197857141Y-136914286D01*
X197785712Y-136628571D01*
X197785712Y-136128571D01*
X197857141Y-135842857D01*
X197999998Y-135700000D01*
X198142855Y-135628571D01*
X199428570Y-137128571D02*
X199428570Y-135628571D01*
X199999998Y-135628571D01*
X200142856Y-135700000D01*
X200214284Y-135771429D01*
X200285713Y-135914286D01*
X200285713Y-136128571D01*
X200214284Y-136271429D01*
X200142856Y-136342857D01*
X199999998Y-136414286D01*
X199428570Y-136414286D01*
X200928570Y-137128571D02*
X200928570Y-135628571D01*
X201499998Y-135628571D01*
X201642856Y-135700000D01*
X201714284Y-135771429D01*
X201785713Y-135914286D01*
X201785713Y-136128571D01*
X201714284Y-136271429D01*
X201642856Y-136342857D01*
X201499998Y-136414286D01*
X200928570Y-136414286D01*
X202428570Y-136342857D02*
X202928570Y-136342857D01*
X203142856Y-137128571D02*
X202428570Y-137128571D01*
X202428570Y-135628571D01*
X203142856Y-135628571D01*
X204642856Y-137128571D02*
X204142856Y-136414286D01*
X203785713Y-137128571D02*
X203785713Y-135628571D01*
X204357141Y-135628571D01*
X204499999Y-135700000D01*
X204571427Y-135771429D01*
X204642856Y-135914286D01*
X204642856Y-136128571D01*
X204571427Y-136271429D01*
X204499999Y-136342857D01*
X204357141Y-136414286D01*
X203785713Y-136414286D01*
X205357141Y-137057143D02*
X205357141Y-137128571D01*
X205285713Y-137271429D01*
X205214284Y-137342857D01*
X207142856Y-136342857D02*
X207642856Y-136342857D01*
X207857142Y-137128571D02*
X207142856Y-137128571D01*
X207142856Y-135628571D01*
X207857142Y-135628571D01*
X208499999Y-137128571D02*
X208499999Y-135628571D01*
X209357142Y-137128571D01*
X209357142Y-135628571D01*
X210071428Y-137128571D02*
X210071428Y-135628571D01*
X211571428Y-135700000D02*
X211428571Y-135628571D01*
X211214285Y-135628571D01*
X211000000Y-135700000D01*
X210857142Y-135842857D01*
X210785714Y-135985714D01*
X210714285Y-136271429D01*
X210714285Y-136485714D01*
X210785714Y-136771429D01*
X210857142Y-136914286D01*
X211000000Y-137057143D01*
X211214285Y-137128571D01*
X211357142Y-137128571D01*
X211571428Y-137057143D01*
X211642857Y-136985714D01*
X211642857Y-136485714D01*
X211357142Y-136485714D01*
X213928571Y-136342857D02*
X213428571Y-136342857D01*
X213428571Y-137128571D02*
X213428571Y-135628571D01*
X214142857Y-135628571D01*
X214714285Y-137128571D02*
X214714285Y-135628571D01*
X215428571Y-137128571D02*
X215428571Y-135628571D01*
X216285714Y-137128571D01*
X216285714Y-135628571D01*
X217000000Y-137128571D02*
X217000000Y-135628571D01*
X217642857Y-137057143D02*
X217857143Y-137128571D01*
X218214286Y-137128571D01*
X218357143Y-137057143D01*
X218428572Y-136985714D01*
X218500000Y-136842857D01*
X218500000Y-136700000D01*
X218428572Y-136557143D01*
X218357143Y-136485714D01*
X218214286Y-136414286D01*
X217928572Y-136342857D01*
X217785714Y-136271429D01*
X217714286Y-136200000D01*
X217642857Y-136057143D01*
X217642857Y-135914286D01*
X217714286Y-135771429D01*
X217785714Y-135700000D01*
X217928572Y-135628571D01*
X218285714Y-135628571D01*
X218500000Y-135700000D01*
X219142857Y-137128571D02*
X219142857Y-135628571D01*
X219142857Y-136342857D02*
X220000000Y-136342857D01*
X220000000Y-137128571D02*
X220000000Y-135628571D01*
X134071429Y-138178571D02*
X133357143Y-138178571D01*
X133285714Y-138892857D01*
X133357143Y-138821429D01*
X133500000Y-138750000D01*
X133857143Y-138750000D01*
X134000000Y-138821429D01*
X134071429Y-138892857D01*
X134142857Y-139035714D01*
X134142857Y-139392857D01*
X134071429Y-139535714D01*
X134000000Y-139607143D01*
X133857143Y-139678571D01*
X133500000Y-139678571D01*
X133357143Y-139607143D01*
X133285714Y-139535714D01*
X134785714Y-139535714D02*
X134857142Y-139607143D01*
X134785714Y-139678571D01*
X134714285Y-139607143D01*
X134785714Y-139535714D01*
X134785714Y-139678571D01*
X136642857Y-139678571D02*
X136642857Y-138178571D01*
X137142857Y-139250000D01*
X137642857Y-138178571D01*
X137642857Y-139678571D01*
X138285714Y-139250000D02*
X139000000Y-139250000D01*
X138142857Y-139678571D02*
X138642857Y-138178571D01*
X139142857Y-139678571D01*
X139428571Y-138178571D02*
X140285714Y-138178571D01*
X139857143Y-139678571D02*
X139857143Y-138178571D01*
X140571428Y-138178571D02*
X141428571Y-138178571D01*
X141000000Y-139678571D02*
X141000000Y-138178571D01*
X141928571Y-138892857D02*
X142428571Y-138892857D01*
X142642857Y-139678571D02*
X141928571Y-139678571D01*
X141928571Y-138178571D01*
X142642857Y-138178571D01*
X144928571Y-138892857D02*
X145142857Y-138964286D01*
X145214285Y-139035714D01*
X145285714Y-139178571D01*
X145285714Y-139392857D01*
X145214285Y-139535714D01*
X145142857Y-139607143D01*
X144999999Y-139678571D01*
X144428571Y-139678571D01*
X144428571Y-138178571D01*
X144928571Y-138178571D01*
X145071428Y-138250000D01*
X145142857Y-138321429D01*
X145214285Y-138464286D01*
X145214285Y-138607143D01*
X145142857Y-138750000D01*
X145071428Y-138821429D01*
X144928571Y-138892857D01*
X144428571Y-138892857D01*
X146642857Y-139678571D02*
X145928571Y-139678571D01*
X145928571Y-138178571D01*
X147071428Y-139250000D02*
X147785714Y-139250000D01*
X146928571Y-139678571D02*
X147428571Y-138178571D01*
X147928571Y-139678571D01*
X149285714Y-139535714D02*
X149214285Y-139607143D01*
X148999999Y-139678571D01*
X148857142Y-139678571D01*
X148642857Y-139607143D01*
X148499999Y-139464286D01*
X148428571Y-139321429D01*
X148357142Y-139035714D01*
X148357142Y-138821429D01*
X148428571Y-138535714D01*
X148499999Y-138392857D01*
X148642857Y-138250000D01*
X148857142Y-138178571D01*
X148999999Y-138178571D01*
X149214285Y-138250000D01*
X149285714Y-138321429D01*
X149928571Y-139678571D02*
X149928571Y-138178571D01*
X150785714Y-139678571D02*
X150142857Y-138821429D01*
X150785714Y-138178571D02*
X149928571Y-139035714D01*
X152499999Y-139607143D02*
X152714285Y-139678571D01*
X153071428Y-139678571D01*
X153214285Y-139607143D01*
X153285714Y-139535714D01*
X153357142Y-139392857D01*
X153357142Y-139250000D01*
X153285714Y-139107143D01*
X153214285Y-139035714D01*
X153071428Y-138964286D01*
X152785714Y-138892857D01*
X152642856Y-138821429D01*
X152571428Y-138750000D01*
X152499999Y-138607143D01*
X152499999Y-138464286D01*
X152571428Y-138321429D01*
X152642856Y-138250000D01*
X152785714Y-138178571D01*
X153142856Y-138178571D01*
X153357142Y-138250000D01*
X154285713Y-138178571D02*
X154571427Y-138178571D01*
X154714285Y-138250000D01*
X154857142Y-138392857D01*
X154928570Y-138678571D01*
X154928570Y-139178571D01*
X154857142Y-139464286D01*
X154714285Y-139607143D01*
X154571427Y-139678571D01*
X154285713Y-139678571D01*
X154142856Y-139607143D01*
X153999999Y-139464286D01*
X153928570Y-139178571D01*
X153928570Y-138678571D01*
X153999999Y-138392857D01*
X154142856Y-138250000D01*
X154285713Y-138178571D01*
X156285714Y-139678571D02*
X155571428Y-139678571D01*
X155571428Y-138178571D01*
X156785714Y-139678571D02*
X156785714Y-138178571D01*
X157142857Y-138178571D01*
X157357142Y-138250000D01*
X157500000Y-138392857D01*
X157571428Y-138535714D01*
X157642857Y-138821429D01*
X157642857Y-139035714D01*
X157571428Y-139321429D01*
X157500000Y-139464286D01*
X157357142Y-139607143D01*
X157142857Y-139678571D01*
X156785714Y-139678571D01*
X158285714Y-138892857D02*
X158785714Y-138892857D01*
X159000000Y-139678571D02*
X158285714Y-139678571D01*
X158285714Y-138178571D01*
X159000000Y-138178571D01*
X160500000Y-139678571D02*
X160000000Y-138964286D01*
X159642857Y-139678571D02*
X159642857Y-138178571D01*
X160214285Y-138178571D01*
X160357143Y-138250000D01*
X160428571Y-138321429D01*
X160500000Y-138464286D01*
X160500000Y-138678571D01*
X160428571Y-138821429D01*
X160357143Y-138892857D01*
X160214285Y-138964286D01*
X159642857Y-138964286D01*
X162285714Y-139678571D02*
X162285714Y-138178571D01*
X162785714Y-139250000D01*
X163285714Y-138178571D01*
X163285714Y-139678571D01*
X163928571Y-139250000D02*
X164642857Y-139250000D01*
X163785714Y-139678571D02*
X164285714Y-138178571D01*
X164785714Y-139678571D01*
X165214285Y-139607143D02*
X165428571Y-139678571D01*
X165785714Y-139678571D01*
X165928571Y-139607143D01*
X166000000Y-139535714D01*
X166071428Y-139392857D01*
X166071428Y-139250000D01*
X166000000Y-139107143D01*
X165928571Y-139035714D01*
X165785714Y-138964286D01*
X165500000Y-138892857D01*
X165357142Y-138821429D01*
X165285714Y-138750000D01*
X165214285Y-138607143D01*
X165214285Y-138464286D01*
X165285714Y-138321429D01*
X165357142Y-138250000D01*
X165500000Y-138178571D01*
X165857142Y-138178571D01*
X166071428Y-138250000D01*
X166714285Y-139678571D02*
X166714285Y-138178571D01*
X167571428Y-139678571D02*
X166928571Y-138821429D01*
X167571428Y-138178571D02*
X166714285Y-139035714D01*
X169214285Y-138178571D02*
X169571428Y-139678571D01*
X169857142Y-138607143D01*
X170142856Y-139678571D01*
X170499999Y-138178571D01*
X171071428Y-139678571D02*
X171071428Y-138178571D01*
X171571428Y-138178571D02*
X172428571Y-138178571D01*
X172000000Y-139678571D02*
X172000000Y-138178571D01*
X172928571Y-139678571D02*
X172928571Y-138178571D01*
X172928571Y-138892857D02*
X173785714Y-138892857D01*
X173785714Y-139678571D02*
X173785714Y-138178571D01*
X175500000Y-138178571D02*
X175857143Y-139678571D01*
X176142857Y-138607143D01*
X176428571Y-139678571D01*
X176785714Y-138178571D01*
X177357143Y-139678571D02*
X177357143Y-138178571D01*
X177357143Y-138892857D02*
X178214286Y-138892857D01*
X178214286Y-139678571D02*
X178214286Y-138178571D01*
X178928572Y-139678571D02*
X178928572Y-138178571D01*
X179428572Y-138178571D02*
X180285715Y-138178571D01*
X179857144Y-139678571D02*
X179857144Y-138178571D01*
X180785715Y-138892857D02*
X181285715Y-138892857D01*
X181500001Y-139678571D02*
X180785715Y-139678571D01*
X180785715Y-138178571D01*
X181500001Y-138178571D01*
X183214286Y-139607143D02*
X183428572Y-139678571D01*
X183785715Y-139678571D01*
X183928572Y-139607143D01*
X184000001Y-139535714D01*
X184071429Y-139392857D01*
X184071429Y-139250000D01*
X184000001Y-139107143D01*
X183928572Y-139035714D01*
X183785715Y-138964286D01*
X183500001Y-138892857D01*
X183357143Y-138821429D01*
X183285715Y-138750000D01*
X183214286Y-138607143D01*
X183214286Y-138464286D01*
X183285715Y-138321429D01*
X183357143Y-138250000D01*
X183500001Y-138178571D01*
X183857143Y-138178571D01*
X184071429Y-138250000D01*
X184714286Y-139678571D02*
X184714286Y-138178571D01*
X186142858Y-139678571D02*
X185428572Y-139678571D01*
X185428572Y-138178571D01*
X186642858Y-139678571D02*
X186642858Y-138178571D01*
X187500001Y-139678571D02*
X186857144Y-138821429D01*
X187500001Y-138178571D02*
X186642858Y-139035714D01*
X188071429Y-139607143D02*
X188285715Y-139678571D01*
X188642858Y-139678571D01*
X188785715Y-139607143D01*
X188857144Y-139535714D01*
X188928572Y-139392857D01*
X188928572Y-139250000D01*
X188857144Y-139107143D01*
X188785715Y-139035714D01*
X188642858Y-138964286D01*
X188357144Y-138892857D01*
X188214286Y-138821429D01*
X188142858Y-138750000D01*
X188071429Y-138607143D01*
X188071429Y-138464286D01*
X188142858Y-138321429D01*
X188214286Y-138250000D01*
X188357144Y-138178571D01*
X188714286Y-138178571D01*
X188928572Y-138250000D01*
X190428572Y-139535714D02*
X190357143Y-139607143D01*
X190142857Y-139678571D01*
X190000000Y-139678571D01*
X189785715Y-139607143D01*
X189642857Y-139464286D01*
X189571429Y-139321429D01*
X189500000Y-139035714D01*
X189500000Y-138821429D01*
X189571429Y-138535714D01*
X189642857Y-138392857D01*
X189785715Y-138250000D01*
X190000000Y-138178571D01*
X190142857Y-138178571D01*
X190357143Y-138250000D01*
X190428572Y-138321429D01*
X191928572Y-139678571D02*
X191428572Y-138964286D01*
X191071429Y-139678571D02*
X191071429Y-138178571D01*
X191642857Y-138178571D01*
X191785715Y-138250000D01*
X191857143Y-138321429D01*
X191928572Y-138464286D01*
X191928572Y-138678571D01*
X191857143Y-138821429D01*
X191785715Y-138892857D01*
X191642857Y-138964286D01*
X191071429Y-138964286D01*
X192571429Y-138892857D02*
X193071429Y-138892857D01*
X193285715Y-139678571D02*
X192571429Y-139678571D01*
X192571429Y-138178571D01*
X193285715Y-138178571D01*
X193928572Y-138892857D02*
X194428572Y-138892857D01*
X194642858Y-139678571D02*
X193928572Y-139678571D01*
X193928572Y-138178571D01*
X194642858Y-138178571D01*
X195285715Y-139678571D02*
X195285715Y-138178571D01*
X196142858Y-139678571D01*
X196142858Y-138178571D01*
X134000000Y-140728571D02*
X133714286Y-140728571D01*
X133571429Y-140800000D01*
X133500000Y-140871429D01*
X133357143Y-141085714D01*
X133285714Y-141371429D01*
X133285714Y-141942857D01*
X133357143Y-142085714D01*
X133428571Y-142157143D01*
X133571429Y-142228571D01*
X133857143Y-142228571D01*
X134000000Y-142157143D01*
X134071429Y-142085714D01*
X134142857Y-141942857D01*
X134142857Y-141585714D01*
X134071429Y-141442857D01*
X134000000Y-141371429D01*
X133857143Y-141300000D01*
X133571429Y-141300000D01*
X133428571Y-141371429D01*
X133357143Y-141442857D01*
X133285714Y-141585714D01*
X134785714Y-142085714D02*
X134857142Y-142157143D01*
X134785714Y-142228571D01*
X134714285Y-142157143D01*
X134785714Y-142085714D01*
X134785714Y-142228571D01*
X136571428Y-142157143D02*
X136785714Y-142228571D01*
X137142857Y-142228571D01*
X137285714Y-142157143D01*
X137357143Y-142085714D01*
X137428571Y-141942857D01*
X137428571Y-141800000D01*
X137357143Y-141657143D01*
X137285714Y-141585714D01*
X137142857Y-141514286D01*
X136857143Y-141442857D01*
X136714285Y-141371429D01*
X136642857Y-141300000D01*
X136571428Y-141157143D01*
X136571428Y-141014286D01*
X136642857Y-140871429D01*
X136714285Y-140800000D01*
X136857143Y-140728571D01*
X137214285Y-140728571D01*
X137428571Y-140800000D01*
X138357142Y-140728571D02*
X138642856Y-140728571D01*
X138785714Y-140800000D01*
X138928571Y-140942857D01*
X138999999Y-141228571D01*
X138999999Y-141728571D01*
X138928571Y-142014286D01*
X138785714Y-142157143D01*
X138642856Y-142228571D01*
X138357142Y-142228571D01*
X138214285Y-142157143D01*
X138071428Y-142014286D01*
X137999999Y-141728571D01*
X137999999Y-141228571D01*
X138071428Y-140942857D01*
X138214285Y-140800000D01*
X138357142Y-140728571D01*
X140357143Y-142228571D02*
X139642857Y-142228571D01*
X139642857Y-140728571D01*
X140857143Y-142228571D02*
X140857143Y-140728571D01*
X141214286Y-140728571D01*
X141428571Y-140800000D01*
X141571429Y-140942857D01*
X141642857Y-141085714D01*
X141714286Y-141371429D01*
X141714286Y-141585714D01*
X141642857Y-141871429D01*
X141571429Y-142014286D01*
X141428571Y-142157143D01*
X141214286Y-142228571D01*
X140857143Y-142228571D01*
X142357143Y-141442857D02*
X142857143Y-141442857D01*
X143071429Y-142228571D02*
X142357143Y-142228571D01*
X142357143Y-140728571D01*
X143071429Y-140728571D01*
X144571429Y-142228571D02*
X144071429Y-141514286D01*
X143714286Y-142228571D02*
X143714286Y-140728571D01*
X144285714Y-140728571D01*
X144428572Y-140800000D01*
X144500000Y-140871429D01*
X144571429Y-141014286D01*
X144571429Y-141228571D01*
X144500000Y-141371429D01*
X144428572Y-141442857D01*
X144285714Y-141514286D01*
X143714286Y-141514286D01*
X146357143Y-142228571D02*
X146357143Y-140728571D01*
X146928571Y-140728571D01*
X147071429Y-140800000D01*
X147142857Y-140871429D01*
X147214286Y-141014286D01*
X147214286Y-141228571D01*
X147142857Y-141371429D01*
X147071429Y-141442857D01*
X146928571Y-141514286D01*
X146357143Y-141514286D01*
X147785714Y-141800000D02*
X148500000Y-141800000D01*
X147642857Y-142228571D02*
X148142857Y-140728571D01*
X148642857Y-142228571D01*
X149071428Y-142157143D02*
X149285714Y-142228571D01*
X149642857Y-142228571D01*
X149785714Y-142157143D01*
X149857143Y-142085714D01*
X149928571Y-141942857D01*
X149928571Y-141800000D01*
X149857143Y-141657143D01*
X149785714Y-141585714D01*
X149642857Y-141514286D01*
X149357143Y-141442857D01*
X149214285Y-141371429D01*
X149142857Y-141300000D01*
X149071428Y-141157143D01*
X149071428Y-141014286D01*
X149142857Y-140871429D01*
X149214285Y-140800000D01*
X149357143Y-140728571D01*
X149714285Y-140728571D01*
X149928571Y-140800000D01*
X150357142Y-140728571D02*
X151214285Y-140728571D01*
X150785714Y-142228571D02*
X150785714Y-140728571D01*
X151714285Y-141442857D02*
X152214285Y-141442857D01*
X152428571Y-142228571D02*
X151714285Y-142228571D01*
X151714285Y-140728571D01*
X152428571Y-140728571D01*
X154214285Y-142228571D02*
X154214285Y-140728571D01*
X154714285Y-141800000D01*
X155214285Y-140728571D01*
X155214285Y-142228571D01*
X155928571Y-140728571D02*
X155928571Y-141942857D01*
X155999999Y-142085714D01*
X156071428Y-142157143D01*
X156214285Y-142228571D01*
X156499999Y-142228571D01*
X156642857Y-142157143D01*
X156714285Y-142085714D01*
X156785714Y-141942857D01*
X156785714Y-140728571D01*
X157428571Y-142157143D02*
X157642857Y-142228571D01*
X158000000Y-142228571D01*
X158142857Y-142157143D01*
X158214286Y-142085714D01*
X158285714Y-141942857D01*
X158285714Y-141800000D01*
X158214286Y-141657143D01*
X158142857Y-141585714D01*
X158000000Y-141514286D01*
X157714286Y-141442857D01*
X157571428Y-141371429D01*
X157500000Y-141300000D01*
X157428571Y-141157143D01*
X157428571Y-141014286D01*
X157500000Y-140871429D01*
X157571428Y-140800000D01*
X157714286Y-140728571D01*
X158071428Y-140728571D01*
X158285714Y-140800000D01*
X158714285Y-140728571D02*
X159571428Y-140728571D01*
X159142857Y-142228571D02*
X159142857Y-140728571D01*
X161714285Y-141442857D02*
X161928571Y-141514286D01*
X161999999Y-141585714D01*
X162071428Y-141728571D01*
X162071428Y-141942857D01*
X161999999Y-142085714D01*
X161928571Y-142157143D01*
X161785713Y-142228571D01*
X161214285Y-142228571D01*
X161214285Y-140728571D01*
X161714285Y-140728571D01*
X161857142Y-140800000D01*
X161928571Y-140871429D01*
X161999999Y-141014286D01*
X161999999Y-141157143D01*
X161928571Y-141300000D01*
X161857142Y-141371429D01*
X161714285Y-141442857D01*
X161214285Y-141442857D01*
X162714285Y-141442857D02*
X163214285Y-141442857D01*
X163428571Y-142228571D02*
X162714285Y-142228571D01*
X162714285Y-140728571D01*
X163428571Y-140728571D01*
X166071428Y-142228571D02*
X165571428Y-141514286D01*
X165214285Y-142228571D02*
X165214285Y-140728571D01*
X165785713Y-140728571D01*
X165928571Y-140800000D01*
X165999999Y-140871429D01*
X166071428Y-141014286D01*
X166071428Y-141228571D01*
X165999999Y-141371429D01*
X165928571Y-141442857D01*
X165785713Y-141514286D01*
X165214285Y-141514286D01*
X166999999Y-140728571D02*
X167285713Y-140728571D01*
X167428571Y-140800000D01*
X167571428Y-140942857D01*
X167642856Y-141228571D01*
X167642856Y-141728571D01*
X167571428Y-142014286D01*
X167428571Y-142157143D01*
X167285713Y-142228571D01*
X166999999Y-142228571D01*
X166857142Y-142157143D01*
X166714285Y-142014286D01*
X166642856Y-141728571D01*
X166642856Y-141228571D01*
X166714285Y-140942857D01*
X166857142Y-140800000D01*
X166999999Y-140728571D01*
X168285714Y-142228571D02*
X168285714Y-140728571D01*
X168285714Y-141442857D02*
X169142857Y-141442857D01*
X169142857Y-142228571D02*
X169142857Y-140728571D01*
X169785714Y-142157143D02*
X170000000Y-142228571D01*
X170357143Y-142228571D01*
X170500000Y-142157143D01*
X170571429Y-142085714D01*
X170642857Y-141942857D01*
X170642857Y-141800000D01*
X170571429Y-141657143D01*
X170500000Y-141585714D01*
X170357143Y-141514286D01*
X170071429Y-141442857D01*
X169928571Y-141371429D01*
X169857143Y-141300000D01*
X169785714Y-141157143D01*
X169785714Y-141014286D01*
X169857143Y-140871429D01*
X169928571Y-140800000D01*
X170071429Y-140728571D01*
X170428571Y-140728571D01*
X170642857Y-140800000D01*
X173285714Y-142085714D02*
X173214285Y-142157143D01*
X172999999Y-142228571D01*
X172857142Y-142228571D01*
X172642857Y-142157143D01*
X172499999Y-142014286D01*
X172428571Y-141871429D01*
X172357142Y-141585714D01*
X172357142Y-141371429D01*
X172428571Y-141085714D01*
X172499999Y-140942857D01*
X172642857Y-140800000D01*
X172857142Y-140728571D01*
X172999999Y-140728571D01*
X173214285Y-140800000D01*
X173285714Y-140871429D01*
X174214285Y-140728571D02*
X174499999Y-140728571D01*
X174642857Y-140800000D01*
X174785714Y-140942857D01*
X174857142Y-141228571D01*
X174857142Y-141728571D01*
X174785714Y-142014286D01*
X174642857Y-142157143D01*
X174499999Y-142228571D01*
X174214285Y-142228571D01*
X174071428Y-142157143D01*
X173928571Y-142014286D01*
X173857142Y-141728571D01*
X173857142Y-141228571D01*
X173928571Y-140942857D01*
X174071428Y-140800000D01*
X174214285Y-140728571D01*
X175500000Y-142228571D02*
X175500000Y-140728571D01*
X176000000Y-141800000D01*
X176500000Y-140728571D01*
X176500000Y-142228571D01*
X177214286Y-142228571D02*
X177214286Y-140728571D01*
X177785714Y-140728571D01*
X177928572Y-140800000D01*
X178000000Y-140871429D01*
X178071429Y-141014286D01*
X178071429Y-141228571D01*
X178000000Y-141371429D01*
X177928572Y-141442857D01*
X177785714Y-141514286D01*
X177214286Y-141514286D01*
X179428572Y-142228571D02*
X178714286Y-142228571D01*
X178714286Y-140728571D01*
X179928572Y-142228571D02*
X179928572Y-140728571D01*
X180571429Y-141800000D02*
X181285715Y-141800000D01*
X180428572Y-142228571D02*
X180928572Y-140728571D01*
X181428572Y-142228571D01*
X181928572Y-142228571D02*
X181928572Y-140728571D01*
X182785715Y-142228571D01*
X182785715Y-140728571D01*
X183285715Y-140728571D02*
X184142858Y-140728571D01*
X183714287Y-142228571D02*
X183714287Y-140728571D01*
X186214286Y-142800000D02*
X186142858Y-142728571D01*
X186000001Y-142514286D01*
X185928572Y-142371429D01*
X185857143Y-142157143D01*
X185785715Y-141800000D01*
X185785715Y-141514286D01*
X185857143Y-141157143D01*
X185928572Y-140942857D01*
X186000001Y-140800000D01*
X186142858Y-140585714D01*
X186214286Y-140514286D01*
X187500001Y-142228571D02*
X186785715Y-142228571D01*
X186785715Y-140728571D01*
X188000001Y-141442857D02*
X188500001Y-141442857D01*
X188714287Y-142228571D02*
X188000001Y-142228571D01*
X188000001Y-140728571D01*
X188714287Y-140728571D01*
X189285715Y-141800000D02*
X190000001Y-141800000D01*
X189142858Y-142228571D02*
X189642858Y-140728571D01*
X190142858Y-142228571D01*
X190642858Y-142228571D02*
X190642858Y-140728571D01*
X191000001Y-140728571D01*
X191214286Y-140800000D01*
X191357144Y-140942857D01*
X191428572Y-141085714D01*
X191500001Y-141371429D01*
X191500001Y-141585714D01*
X191428572Y-141871429D01*
X191357144Y-142014286D01*
X191214286Y-142157143D01*
X191000001Y-142228571D01*
X190642858Y-142228571D01*
X192142858Y-141657143D02*
X193285715Y-141657143D01*
X194500001Y-141442857D02*
X194000001Y-141442857D01*
X194000001Y-142228571D02*
X194000001Y-140728571D01*
X194714287Y-140728571D01*
X196142858Y-142228571D02*
X195642858Y-141514286D01*
X195285715Y-142228571D02*
X195285715Y-140728571D01*
X195857143Y-140728571D01*
X196000001Y-140800000D01*
X196071429Y-140871429D01*
X196142858Y-141014286D01*
X196142858Y-141228571D01*
X196071429Y-141371429D01*
X196000001Y-141442857D01*
X195857143Y-141514286D01*
X195285715Y-141514286D01*
X196785715Y-141442857D02*
X197285715Y-141442857D01*
X197500001Y-142228571D02*
X196785715Y-142228571D01*
X196785715Y-140728571D01*
X197500001Y-140728571D01*
X198142858Y-141442857D02*
X198642858Y-141442857D01*
X198857144Y-142228571D02*
X198142858Y-142228571D01*
X198142858Y-140728571D01*
X198857144Y-140728571D01*
X199357144Y-142800000D02*
X199428572Y-142728571D01*
X199571429Y-142514286D01*
X199642858Y-142371429D01*
X199714287Y-142157143D01*
X199785715Y-141800000D01*
X199785715Y-141514286D01*
X199714287Y-141157143D01*
X199642858Y-140942857D01*
X199571429Y-140800000D01*
X199428572Y-140585714D01*
X199357144Y-140514286D01*
X133214286Y-143278571D02*
X134214286Y-143278571D01*
X133571429Y-144778571D01*
X134785714Y-144635714D02*
X134857142Y-144707143D01*
X134785714Y-144778571D01*
X134714285Y-144707143D01*
X134785714Y-144635714D01*
X134785714Y-144778571D01*
X136642857Y-144778571D02*
X136642857Y-143278571D01*
X137500000Y-144778571D01*
X137500000Y-143278571D01*
X138500000Y-143278571D02*
X138785714Y-143278571D01*
X138928572Y-143350000D01*
X139071429Y-143492857D01*
X139142857Y-143778571D01*
X139142857Y-144278571D01*
X139071429Y-144564286D01*
X138928572Y-144707143D01*
X138785714Y-144778571D01*
X138500000Y-144778571D01*
X138357143Y-144707143D01*
X138214286Y-144564286D01*
X138142857Y-144278571D01*
X138142857Y-143778571D01*
X138214286Y-143492857D01*
X138357143Y-143350000D01*
X138500000Y-143278571D01*
X140928572Y-144778571D02*
X140928572Y-143278571D01*
X141428572Y-144350000D01*
X141928572Y-143278571D01*
X141928572Y-144778571D01*
X142571429Y-144350000D02*
X143285715Y-144350000D01*
X142428572Y-144778571D02*
X142928572Y-143278571D01*
X143428572Y-144778571D01*
X144785715Y-144778571D02*
X144285715Y-144064286D01*
X143928572Y-144778571D02*
X143928572Y-143278571D01*
X144500000Y-143278571D01*
X144642858Y-143350000D01*
X144714286Y-143421429D01*
X144785715Y-143564286D01*
X144785715Y-143778571D01*
X144714286Y-143921429D01*
X144642858Y-143992857D01*
X144500000Y-144064286D01*
X143928572Y-144064286D01*
X145428572Y-144778571D02*
X145428572Y-143278571D01*
X146285715Y-144778571D02*
X145642858Y-143921429D01*
X146285715Y-143278571D02*
X145428572Y-144135714D01*
X146857143Y-144707143D02*
X147071429Y-144778571D01*
X147428572Y-144778571D01*
X147571429Y-144707143D01*
X147642858Y-144635714D01*
X147714286Y-144492857D01*
X147714286Y-144350000D01*
X147642858Y-144207143D01*
X147571429Y-144135714D01*
X147428572Y-144064286D01*
X147142858Y-143992857D01*
X147000000Y-143921429D01*
X146928572Y-143850000D01*
X146857143Y-143707143D01*
X146857143Y-143564286D01*
X146928572Y-143421429D01*
X147000000Y-143350000D01*
X147142858Y-143278571D01*
X147500000Y-143278571D01*
X147714286Y-143350000D01*
X149928571Y-145350000D02*
X149857143Y-145278571D01*
X149714286Y-145064286D01*
X149642857Y-144921429D01*
X149571428Y-144707143D01*
X149500000Y-144350000D01*
X149500000Y-144064286D01*
X149571428Y-143707143D01*
X149642857Y-143492857D01*
X149714286Y-143350000D01*
X149857143Y-143135714D01*
X149928571Y-143064286D01*
X150500000Y-143992857D02*
X151000000Y-143992857D01*
X151214286Y-144778571D02*
X150500000Y-144778571D01*
X150500000Y-143278571D01*
X151214286Y-143278571D01*
X151857143Y-144207143D02*
X153000000Y-144207143D01*
X153500000Y-143278571D02*
X154357143Y-143278571D01*
X153928572Y-144778571D02*
X153928572Y-143278571D01*
X154857143Y-143992857D02*
X155357143Y-143992857D01*
X155571429Y-144778571D02*
X154857143Y-144778571D01*
X154857143Y-143278571D01*
X155571429Y-143278571D01*
X156142857Y-144707143D02*
X156357143Y-144778571D01*
X156714286Y-144778571D01*
X156857143Y-144707143D01*
X156928572Y-144635714D01*
X157000000Y-144492857D01*
X157000000Y-144350000D01*
X156928572Y-144207143D01*
X156857143Y-144135714D01*
X156714286Y-144064286D01*
X156428572Y-143992857D01*
X156285714Y-143921429D01*
X156214286Y-143850000D01*
X156142857Y-143707143D01*
X156142857Y-143564286D01*
X156214286Y-143421429D01*
X156285714Y-143350000D01*
X156428572Y-143278571D01*
X156785714Y-143278571D01*
X157000000Y-143350000D01*
X157428571Y-143278571D02*
X158285714Y-143278571D01*
X157857143Y-144778571D02*
X157857143Y-143278571D01*
X158857142Y-144707143D02*
X158857142Y-144778571D01*
X158785714Y-144921429D01*
X158714285Y-144992857D01*
X161642857Y-144921429D02*
X161500000Y-144850000D01*
X161357143Y-144707143D01*
X161142857Y-144492857D01*
X161000000Y-144421429D01*
X160857143Y-144421429D01*
X160928571Y-144778571D02*
X160785714Y-144707143D01*
X160642857Y-144564286D01*
X160571428Y-144278571D01*
X160571428Y-143778571D01*
X160642857Y-143492857D01*
X160785714Y-143350000D01*
X160928571Y-143278571D01*
X161214285Y-143278571D01*
X161357143Y-143350000D01*
X161500000Y-143492857D01*
X161571428Y-143778571D01*
X161571428Y-144278571D01*
X161500000Y-144564286D01*
X161357143Y-144707143D01*
X161214285Y-144778571D01*
X160928571Y-144778571D01*
X162142857Y-144350000D02*
X162857143Y-144350000D01*
X162000000Y-144778571D02*
X162500000Y-143278571D01*
X163000000Y-144778571D01*
X163571428Y-144707143D02*
X163571428Y-144778571D01*
X163500000Y-144921429D01*
X163428571Y-144992857D01*
X165285714Y-144707143D02*
X165500000Y-144778571D01*
X165857143Y-144778571D01*
X166000000Y-144707143D01*
X166071429Y-144635714D01*
X166142857Y-144492857D01*
X166142857Y-144350000D01*
X166071429Y-144207143D01*
X166000000Y-144135714D01*
X165857143Y-144064286D01*
X165571429Y-143992857D01*
X165428571Y-143921429D01*
X165357143Y-143850000D01*
X165285714Y-143707143D01*
X165285714Y-143564286D01*
X165357143Y-143421429D01*
X165428571Y-143350000D01*
X165571429Y-143278571D01*
X165928571Y-143278571D01*
X166142857Y-143350000D01*
X166785714Y-143992857D02*
X167285714Y-143992857D01*
X167500000Y-144778571D02*
X166785714Y-144778571D01*
X166785714Y-143278571D01*
X167500000Y-143278571D01*
X169000000Y-144778571D02*
X168500000Y-144064286D01*
X168142857Y-144778571D02*
X168142857Y-143278571D01*
X168714285Y-143278571D01*
X168857143Y-143350000D01*
X168928571Y-143421429D01*
X169000000Y-143564286D01*
X169000000Y-143778571D01*
X168928571Y-143921429D01*
X168857143Y-143992857D01*
X168714285Y-144064286D01*
X168142857Y-144064286D01*
X169642857Y-144778571D02*
X169642857Y-143278571D01*
X170285714Y-144350000D02*
X171000000Y-144350000D01*
X170142857Y-144778571D02*
X170642857Y-143278571D01*
X171142857Y-144778571D01*
X172357143Y-144778571D02*
X171642857Y-144778571D01*
X171642857Y-143278571D01*
X174000000Y-144778571D02*
X174000000Y-143278571D01*
X174857143Y-144778571D01*
X174857143Y-143278571D01*
X175571429Y-143278571D02*
X175571429Y-144492857D01*
X175642857Y-144635714D01*
X175714286Y-144707143D01*
X175857143Y-144778571D01*
X176142857Y-144778571D01*
X176285715Y-144707143D01*
X176357143Y-144635714D01*
X176428572Y-144492857D01*
X176428572Y-143278571D01*
X177142858Y-144778571D02*
X177142858Y-143278571D01*
X177642858Y-144350000D01*
X178142858Y-143278571D01*
X178142858Y-144778571D01*
X179357144Y-143992857D02*
X179571430Y-144064286D01*
X179642858Y-144135714D01*
X179714287Y-144278571D01*
X179714287Y-144492857D01*
X179642858Y-144635714D01*
X179571430Y-144707143D01*
X179428572Y-144778571D01*
X178857144Y-144778571D01*
X178857144Y-143278571D01*
X179357144Y-143278571D01*
X179500001Y-143350000D01*
X179571430Y-143421429D01*
X179642858Y-143564286D01*
X179642858Y-143707143D01*
X179571430Y-143850000D01*
X179500001Y-143921429D01*
X179357144Y-143992857D01*
X178857144Y-143992857D01*
X180357144Y-143992857D02*
X180857144Y-143992857D01*
X181071430Y-144778571D02*
X180357144Y-144778571D01*
X180357144Y-143278571D01*
X181071430Y-143278571D01*
X182571430Y-144778571D02*
X182071430Y-144064286D01*
X181714287Y-144778571D02*
X181714287Y-143278571D01*
X182285715Y-143278571D01*
X182428573Y-143350000D01*
X182500001Y-143421429D01*
X182571430Y-143564286D01*
X182571430Y-143778571D01*
X182500001Y-143921429D01*
X182428573Y-143992857D01*
X182285715Y-144064286D01*
X181714287Y-144064286D01*
X183285715Y-144707143D02*
X183285715Y-144778571D01*
X183214287Y-144921429D01*
X183142858Y-144992857D01*
X185071430Y-143992857D02*
X185571430Y-143992857D01*
X185785716Y-144778571D02*
X185071430Y-144778571D01*
X185071430Y-143278571D01*
X185785716Y-143278571D01*
X186214287Y-143278571D02*
X187071430Y-143278571D01*
X186642859Y-144778571D02*
X186642859Y-143278571D01*
X188428573Y-144635714D02*
X188357144Y-144707143D01*
X188142858Y-144778571D01*
X188000001Y-144778571D01*
X187785716Y-144707143D01*
X187642858Y-144564286D01*
X187571430Y-144421429D01*
X187500001Y-144135714D01*
X187500001Y-143921429D01*
X187571430Y-143635714D01*
X187642858Y-143492857D01*
X187785716Y-143350000D01*
X188000001Y-143278571D01*
X188142858Y-143278571D01*
X188357144Y-143350000D01*
X188428573Y-143421429D01*
X188928573Y-145350000D02*
X189000001Y-145278571D01*
X189142858Y-145064286D01*
X189214287Y-144921429D01*
X189285716Y-144707143D01*
X189357144Y-144350000D01*
X189357144Y-144064286D01*
X189285716Y-143707143D01*
X189214287Y-143492857D01*
X189142858Y-143350000D01*
X189000001Y-143135714D01*
X188928573Y-143064286D01*
X191500001Y-143278571D02*
X191785715Y-143278571D01*
X191928573Y-143350000D01*
X192071430Y-143492857D01*
X192142858Y-143778571D01*
X192142858Y-144278571D01*
X192071430Y-144564286D01*
X191928573Y-144707143D01*
X191785715Y-144778571D01*
X191500001Y-144778571D01*
X191357144Y-144707143D01*
X191214287Y-144564286D01*
X191142858Y-144278571D01*
X191142858Y-143778571D01*
X191214287Y-143492857D01*
X191357144Y-143350000D01*
X191500001Y-143278571D01*
X192785716Y-144778571D02*
X192785716Y-143278571D01*
X193642859Y-144778571D01*
X193642859Y-143278571D01*
X196000002Y-143992857D02*
X195500002Y-143992857D01*
X195500002Y-144778571D02*
X195500002Y-143278571D01*
X196214288Y-143278571D01*
X197642859Y-144778571D02*
X197142859Y-144064286D01*
X196785716Y-144778571D02*
X196785716Y-143278571D01*
X197357144Y-143278571D01*
X197500002Y-143350000D01*
X197571430Y-143421429D01*
X197642859Y-143564286D01*
X197642859Y-143778571D01*
X197571430Y-143921429D01*
X197500002Y-143992857D01*
X197357144Y-144064286D01*
X196785716Y-144064286D01*
X198571430Y-143278571D02*
X198857144Y-143278571D01*
X199000002Y-143350000D01*
X199142859Y-143492857D01*
X199214287Y-143778571D01*
X199214287Y-144278571D01*
X199142859Y-144564286D01*
X199000002Y-144707143D01*
X198857144Y-144778571D01*
X198571430Y-144778571D01*
X198428573Y-144707143D01*
X198285716Y-144564286D01*
X198214287Y-144278571D01*
X198214287Y-143778571D01*
X198285716Y-143492857D01*
X198428573Y-143350000D01*
X198571430Y-143278571D01*
X199857145Y-144778571D02*
X199857145Y-143278571D01*
X200714288Y-144778571D01*
X200714288Y-143278571D01*
X201214288Y-143278571D02*
X202071431Y-143278571D01*
X201642860Y-144778571D02*
X201642860Y-143278571D01*
X204142859Y-145350000D02*
X204071431Y-145278571D01*
X203928574Y-145064286D01*
X203857145Y-144921429D01*
X203785716Y-144707143D01*
X203714288Y-144350000D01*
X203714288Y-144064286D01*
X203785716Y-143707143D01*
X203857145Y-143492857D01*
X203928574Y-143350000D01*
X204071431Y-143135714D01*
X204142859Y-143064286D01*
X205428574Y-144778571D02*
X204714288Y-144778571D01*
X204714288Y-143278571D01*
X206214288Y-143278571D02*
X206500002Y-143278571D01*
X206642860Y-143350000D01*
X206785717Y-143492857D01*
X206857145Y-143778571D01*
X206857145Y-144278571D01*
X206785717Y-144564286D01*
X206642860Y-144707143D01*
X206500002Y-144778571D01*
X206214288Y-144778571D01*
X206071431Y-144707143D01*
X205928574Y-144564286D01*
X205857145Y-144278571D01*
X205857145Y-143778571D01*
X205928574Y-143492857D01*
X206071431Y-143350000D01*
X206214288Y-143278571D01*
X208285717Y-143350000D02*
X208142860Y-143278571D01*
X207928574Y-143278571D01*
X207714289Y-143350000D01*
X207571431Y-143492857D01*
X207500003Y-143635714D01*
X207428574Y-143921429D01*
X207428574Y-144135714D01*
X207500003Y-144421429D01*
X207571431Y-144564286D01*
X207714289Y-144707143D01*
X207928574Y-144778571D01*
X208071431Y-144778571D01*
X208285717Y-144707143D01*
X208357146Y-144635714D01*
X208357146Y-144135714D01*
X208071431Y-144135714D01*
X209285717Y-143278571D02*
X209571431Y-143278571D01*
X209714289Y-143350000D01*
X209857146Y-143492857D01*
X209928574Y-143778571D01*
X209928574Y-144278571D01*
X209857146Y-144564286D01*
X209714289Y-144707143D01*
X209571431Y-144778571D01*
X209285717Y-144778571D01*
X209142860Y-144707143D01*
X209000003Y-144564286D01*
X208928574Y-144278571D01*
X208928574Y-143778571D01*
X209000003Y-143492857D01*
X209142860Y-143350000D01*
X209285717Y-143278571D01*
X211642860Y-144707143D02*
X211857146Y-144778571D01*
X212214289Y-144778571D01*
X212357146Y-144707143D01*
X212428575Y-144635714D01*
X212500003Y-144492857D01*
X212500003Y-144350000D01*
X212428575Y-144207143D01*
X212357146Y-144135714D01*
X212214289Y-144064286D01*
X211928575Y-143992857D01*
X211785717Y-143921429D01*
X211714289Y-143850000D01*
X211642860Y-143707143D01*
X211642860Y-143564286D01*
X211714289Y-143421429D01*
X211785717Y-143350000D01*
X211928575Y-143278571D01*
X212285717Y-143278571D01*
X212500003Y-143350000D01*
X213142860Y-144778571D02*
X213142860Y-143278571D01*
X213857146Y-144778571D02*
X213857146Y-143278571D01*
X214214289Y-143278571D01*
X214428574Y-143350000D01*
X214571432Y-143492857D01*
X214642860Y-143635714D01*
X214714289Y-143921429D01*
X214714289Y-144135714D01*
X214642860Y-144421429D01*
X214571432Y-144564286D01*
X214428574Y-144707143D01*
X214214289Y-144778571D01*
X213857146Y-144778571D01*
X215357146Y-143992857D02*
X215857146Y-143992857D01*
X216071432Y-144778571D02*
X215357146Y-144778571D01*
X215357146Y-143278571D01*
X216071432Y-143278571D01*
X216571432Y-145350000D02*
X216642860Y-145278571D01*
X216785717Y-145064286D01*
X216857146Y-144921429D01*
X216928575Y-144707143D01*
X217000003Y-144350000D01*
X217000003Y-144064286D01*
X216928575Y-143707143D01*
X216857146Y-143492857D01*
X216785717Y-143350000D01*
X216642860Y-143135714D01*
X216571432Y-143064286D01*
X219142860Y-143278571D02*
X219428574Y-143278571D01*
X219571432Y-143350000D01*
X219714289Y-143492857D01*
X219785717Y-143778571D01*
X219785717Y-144278571D01*
X219714289Y-144564286D01*
X219571432Y-144707143D01*
X219428574Y-144778571D01*
X219142860Y-144778571D01*
X219000003Y-144707143D01*
X218857146Y-144564286D01*
X218785717Y-144278571D01*
X218785717Y-143778571D01*
X218857146Y-143492857D01*
X219000003Y-143350000D01*
X219142860Y-143278571D01*
X220928575Y-143992857D02*
X220428575Y-143992857D01*
X220428575Y-144778571D02*
X220428575Y-143278571D01*
X221142861Y-143278571D01*
X223357146Y-143992857D02*
X223571432Y-144064286D01*
X223642860Y-144135714D01*
X223714289Y-144278571D01*
X223714289Y-144492857D01*
X223642860Y-144635714D01*
X223571432Y-144707143D01*
X223428574Y-144778571D01*
X222857146Y-144778571D01*
X222857146Y-143278571D01*
X223357146Y-143278571D01*
X223500003Y-143350000D01*
X223571432Y-143421429D01*
X223642860Y-143564286D01*
X223642860Y-143707143D01*
X223571432Y-143850000D01*
X223500003Y-143921429D01*
X223357146Y-143992857D01*
X222857146Y-143992857D01*
X224642860Y-143278571D02*
X224928574Y-143278571D01*
X225071432Y-143350000D01*
X225214289Y-143492857D01*
X225285717Y-143778571D01*
X225285717Y-144278571D01*
X225214289Y-144564286D01*
X225071432Y-144707143D01*
X224928574Y-144778571D01*
X224642860Y-144778571D01*
X224500003Y-144707143D01*
X224357146Y-144564286D01*
X224285717Y-144278571D01*
X224285717Y-143778571D01*
X224357146Y-143492857D01*
X224500003Y-143350000D01*
X224642860Y-143278571D01*
X225857146Y-144350000D02*
X226571432Y-144350000D01*
X225714289Y-144778571D02*
X226214289Y-143278571D01*
X226714289Y-144778571D01*
X228071432Y-144778571D02*
X227571432Y-144064286D01*
X227214289Y-144778571D02*
X227214289Y-143278571D01*
X227785717Y-143278571D01*
X227928575Y-143350000D01*
X228000003Y-143421429D01*
X228071432Y-143564286D01*
X228071432Y-143778571D01*
X228000003Y-143921429D01*
X227928575Y-143992857D01*
X227785717Y-144064286D01*
X227214289Y-144064286D01*
X228714289Y-144778571D02*
X228714289Y-143278571D01*
X229071432Y-143278571D01*
X229285717Y-143350000D01*
X229428575Y-143492857D01*
X229500003Y-143635714D01*
X229571432Y-143921429D01*
X229571432Y-144135714D01*
X229500003Y-144421429D01*
X229428575Y-144564286D01*
X229285717Y-144707143D01*
X229071432Y-144778571D01*
X228714289Y-144778571D01*
X133571429Y-146471429D02*
X133428571Y-146400000D01*
X133357143Y-146328571D01*
X133285714Y-146185714D01*
X133285714Y-146114286D01*
X133357143Y-145971429D01*
X133428571Y-145900000D01*
X133571429Y-145828571D01*
X133857143Y-145828571D01*
X134000000Y-145900000D01*
X134071429Y-145971429D01*
X134142857Y-146114286D01*
X134142857Y-146185714D01*
X134071429Y-146328571D01*
X134000000Y-146400000D01*
X133857143Y-146471429D01*
X133571429Y-146471429D01*
X133428571Y-146542857D01*
X133357143Y-146614286D01*
X133285714Y-146757143D01*
X133285714Y-147042857D01*
X133357143Y-147185714D01*
X133428571Y-147257143D01*
X133571429Y-147328571D01*
X133857143Y-147328571D01*
X134000000Y-147257143D01*
X134071429Y-147185714D01*
X134142857Y-147042857D01*
X134142857Y-146757143D01*
X134071429Y-146614286D01*
X134000000Y-146542857D01*
X133857143Y-146471429D01*
X134785714Y-147185714D02*
X134857142Y-147257143D01*
X134785714Y-147328571D01*
X134714285Y-147257143D01*
X134785714Y-147185714D01*
X134785714Y-147328571D01*
X137142857Y-146542857D02*
X137357143Y-146614286D01*
X137428571Y-146685714D01*
X137500000Y-146828571D01*
X137500000Y-147042857D01*
X137428571Y-147185714D01*
X137357143Y-147257143D01*
X137214285Y-147328571D01*
X136642857Y-147328571D01*
X136642857Y-145828571D01*
X137142857Y-145828571D01*
X137285714Y-145900000D01*
X137357143Y-145971429D01*
X137428571Y-146114286D01*
X137428571Y-146257143D01*
X137357143Y-146400000D01*
X137285714Y-146471429D01*
X137142857Y-146542857D01*
X136642857Y-146542857D01*
X138428571Y-145828571D02*
X138714285Y-145828571D01*
X138857143Y-145900000D01*
X139000000Y-146042857D01*
X139071428Y-146328571D01*
X139071428Y-146828571D01*
X139000000Y-147114286D01*
X138857143Y-147257143D01*
X138714285Y-147328571D01*
X138428571Y-147328571D01*
X138285714Y-147257143D01*
X138142857Y-147114286D01*
X138071428Y-146828571D01*
X138071428Y-146328571D01*
X138142857Y-146042857D01*
X138285714Y-145900000D01*
X138428571Y-145828571D01*
X139642857Y-146900000D02*
X140357143Y-146900000D01*
X139500000Y-147328571D02*
X140000000Y-145828571D01*
X140500000Y-147328571D01*
X141857143Y-147328571D02*
X141357143Y-146614286D01*
X141000000Y-147328571D02*
X141000000Y-145828571D01*
X141571428Y-145828571D01*
X141714286Y-145900000D01*
X141785714Y-145971429D01*
X141857143Y-146114286D01*
X141857143Y-146328571D01*
X141785714Y-146471429D01*
X141714286Y-146542857D01*
X141571428Y-146614286D01*
X141000000Y-146614286D01*
X142500000Y-147328571D02*
X142500000Y-145828571D01*
X142857143Y-145828571D01*
X143071428Y-145900000D01*
X143214286Y-146042857D01*
X143285714Y-146185714D01*
X143357143Y-146471429D01*
X143357143Y-146685714D01*
X143285714Y-146971429D01*
X143214286Y-147114286D01*
X143071428Y-147257143D01*
X142857143Y-147328571D01*
X142500000Y-147328571D01*
X143928571Y-147257143D02*
X144142857Y-147328571D01*
X144500000Y-147328571D01*
X144642857Y-147257143D01*
X144714286Y-147185714D01*
X144785714Y-147042857D01*
X144785714Y-146900000D01*
X144714286Y-146757143D01*
X144642857Y-146685714D01*
X144500000Y-146614286D01*
X144214286Y-146542857D01*
X144071428Y-146471429D01*
X144000000Y-146400000D01*
X143928571Y-146257143D01*
X143928571Y-146114286D01*
X144000000Y-145971429D01*
X144071428Y-145900000D01*
X144214286Y-145828571D01*
X144571428Y-145828571D01*
X144785714Y-145900000D01*
X146357142Y-145828571D02*
X147214285Y-145828571D01*
X146785714Y-147328571D02*
X146785714Y-145828571D01*
X147999999Y-145828571D02*
X148285713Y-145828571D01*
X148428571Y-145900000D01*
X148571428Y-146042857D01*
X148642856Y-146328571D01*
X148642856Y-146828571D01*
X148571428Y-147114286D01*
X148428571Y-147257143D01*
X148285713Y-147328571D01*
X147999999Y-147328571D01*
X147857142Y-147257143D01*
X147714285Y-147114286D01*
X147642856Y-146828571D01*
X147642856Y-146328571D01*
X147714285Y-146042857D01*
X147857142Y-145900000D01*
X147999999Y-145828571D01*
X150928571Y-146542857D02*
X151142857Y-146614286D01*
X151214285Y-146685714D01*
X151285714Y-146828571D01*
X151285714Y-147042857D01*
X151214285Y-147185714D01*
X151142857Y-147257143D01*
X150999999Y-147328571D01*
X150428571Y-147328571D01*
X150428571Y-145828571D01*
X150928571Y-145828571D01*
X151071428Y-145900000D01*
X151142857Y-145971429D01*
X151214285Y-146114286D01*
X151214285Y-146257143D01*
X151142857Y-146400000D01*
X151071428Y-146471429D01*
X150928571Y-146542857D01*
X150428571Y-146542857D01*
X151928571Y-146542857D02*
X152428571Y-146542857D01*
X152642857Y-147328571D02*
X151928571Y-147328571D01*
X151928571Y-145828571D01*
X152642857Y-145828571D01*
X154357142Y-147257143D02*
X154571428Y-147328571D01*
X154928571Y-147328571D01*
X155071428Y-147257143D01*
X155142857Y-147185714D01*
X155214285Y-147042857D01*
X155214285Y-146900000D01*
X155142857Y-146757143D01*
X155071428Y-146685714D01*
X154928571Y-146614286D01*
X154642857Y-146542857D01*
X154499999Y-146471429D01*
X154428571Y-146400000D01*
X154357142Y-146257143D01*
X154357142Y-146114286D01*
X154428571Y-145971429D01*
X154499999Y-145900000D01*
X154642857Y-145828571D01*
X154999999Y-145828571D01*
X155214285Y-145900000D01*
X155857142Y-147328571D02*
X155857142Y-145828571D01*
X155857142Y-146542857D02*
X156714285Y-146542857D01*
X156714285Y-147328571D02*
X156714285Y-145828571D01*
X157428571Y-147328571D02*
X157428571Y-145828571D01*
X158142857Y-147328571D02*
X158142857Y-145828571D01*
X158714285Y-145828571D01*
X158857143Y-145900000D01*
X158928571Y-145971429D01*
X159000000Y-146114286D01*
X159000000Y-146328571D01*
X158928571Y-146471429D01*
X158857143Y-146542857D01*
X158714285Y-146614286D01*
X158142857Y-146614286D01*
X159642857Y-147328571D02*
X159642857Y-145828571D01*
X160214285Y-145828571D01*
X160357143Y-145900000D01*
X160428571Y-145971429D01*
X160500000Y-146114286D01*
X160500000Y-146328571D01*
X160428571Y-146471429D01*
X160357143Y-146542857D01*
X160214285Y-146614286D01*
X159642857Y-146614286D01*
X161142857Y-146542857D02*
X161642857Y-146542857D01*
X161857143Y-147328571D02*
X161142857Y-147328571D01*
X161142857Y-145828571D01*
X161857143Y-145828571D01*
X162500000Y-147328571D02*
X162500000Y-145828571D01*
X162857143Y-145828571D01*
X163071428Y-145900000D01*
X163214286Y-146042857D01*
X163285714Y-146185714D01*
X163357143Y-146471429D01*
X163357143Y-146685714D01*
X163285714Y-146971429D01*
X163214286Y-147114286D01*
X163071428Y-147257143D01*
X162857143Y-147328571D01*
X162500000Y-147328571D01*
X165142857Y-147328571D02*
X165142857Y-145828571D01*
X165857143Y-147328571D02*
X165857143Y-145828571D01*
X166714286Y-147328571D01*
X166714286Y-145828571D01*
X169071429Y-146542857D02*
X169285715Y-146614286D01*
X169357143Y-146685714D01*
X169428572Y-146828571D01*
X169428572Y-147042857D01*
X169357143Y-147185714D01*
X169285715Y-147257143D01*
X169142857Y-147328571D01*
X168571429Y-147328571D01*
X168571429Y-145828571D01*
X169071429Y-145828571D01*
X169214286Y-145900000D01*
X169285715Y-145971429D01*
X169357143Y-146114286D01*
X169357143Y-146257143D01*
X169285715Y-146400000D01*
X169214286Y-146471429D01*
X169071429Y-146542857D01*
X168571429Y-146542857D01*
X170000000Y-146900000D02*
X170714286Y-146900000D01*
X169857143Y-147328571D02*
X170357143Y-145828571D01*
X170857143Y-147328571D01*
X172142857Y-145900000D02*
X172000000Y-145828571D01*
X171785714Y-145828571D01*
X171571429Y-145900000D01*
X171428571Y-146042857D01*
X171357143Y-146185714D01*
X171285714Y-146471429D01*
X171285714Y-146685714D01*
X171357143Y-146971429D01*
X171428571Y-147114286D01*
X171571429Y-147257143D01*
X171785714Y-147328571D01*
X171928571Y-147328571D01*
X172142857Y-147257143D01*
X172214286Y-147185714D01*
X172214286Y-146685714D01*
X171928571Y-146685714D01*
X172785714Y-147257143D02*
X173000000Y-147328571D01*
X173357143Y-147328571D01*
X173500000Y-147257143D01*
X173571429Y-147185714D01*
X173642857Y-147042857D01*
X173642857Y-146900000D01*
X173571429Y-146757143D01*
X173500000Y-146685714D01*
X173357143Y-146614286D01*
X173071429Y-146542857D01*
X172928571Y-146471429D01*
X172857143Y-146400000D01*
X172785714Y-146257143D01*
X172785714Y-146114286D01*
X172857143Y-145971429D01*
X172928571Y-145900000D01*
X173071429Y-145828571D01*
X173428571Y-145828571D01*
X173642857Y-145900000D01*
X175428571Y-147328571D02*
X175428571Y-145828571D01*
X175999999Y-145828571D01*
X176142857Y-145900000D01*
X176214285Y-145971429D01*
X176285714Y-146114286D01*
X176285714Y-146328571D01*
X176214285Y-146471429D01*
X176142857Y-146542857D01*
X175999999Y-146614286D01*
X175428571Y-146614286D01*
X176928571Y-146542857D02*
X177428571Y-146542857D01*
X177642857Y-147328571D02*
X176928571Y-147328571D01*
X176928571Y-145828571D01*
X177642857Y-145828571D01*
X179142857Y-147328571D02*
X178642857Y-146614286D01*
X178285714Y-147328571D02*
X178285714Y-145828571D01*
X178857142Y-145828571D01*
X179000000Y-145900000D01*
X179071428Y-145971429D01*
X179142857Y-146114286D01*
X179142857Y-146328571D01*
X179071428Y-146471429D01*
X179000000Y-146542857D01*
X178857142Y-146614286D01*
X178285714Y-146614286D01*
X180928571Y-147328571D02*
X180928571Y-145828571D01*
X181785714Y-147328571D01*
X181785714Y-145828571D01*
X182500000Y-146542857D02*
X183000000Y-146542857D01*
X183214286Y-147328571D02*
X182500000Y-147328571D01*
X182500000Y-145828571D01*
X183214286Y-145828571D01*
X183857143Y-145828571D02*
X183857143Y-147042857D01*
X183928571Y-147185714D01*
X184000000Y-147257143D01*
X184142857Y-147328571D01*
X184428571Y-147328571D01*
X184571429Y-147257143D01*
X184642857Y-147185714D01*
X184714286Y-147042857D01*
X184714286Y-145828571D01*
X186285715Y-147328571D02*
X185785715Y-146614286D01*
X185428572Y-147328571D02*
X185428572Y-145828571D01*
X186000000Y-145828571D01*
X186142858Y-145900000D01*
X186214286Y-145971429D01*
X186285715Y-146114286D01*
X186285715Y-146328571D01*
X186214286Y-146471429D01*
X186142858Y-146542857D01*
X186000000Y-146614286D01*
X185428572Y-146614286D01*
X187214286Y-145828571D02*
X187500000Y-145828571D01*
X187642858Y-145900000D01*
X187785715Y-146042857D01*
X187857143Y-146328571D01*
X187857143Y-146828571D01*
X187785715Y-147114286D01*
X187642858Y-147257143D01*
X187500000Y-147328571D01*
X187214286Y-147328571D01*
X187071429Y-147257143D01*
X186928572Y-147114286D01*
X186857143Y-146828571D01*
X186857143Y-146328571D01*
X186928572Y-146042857D01*
X187071429Y-145900000D01*
X187214286Y-145828571D01*
X189000001Y-146542857D02*
X189214287Y-146614286D01*
X189285715Y-146685714D01*
X189357144Y-146828571D01*
X189357144Y-147042857D01*
X189285715Y-147185714D01*
X189214287Y-147257143D01*
X189071429Y-147328571D01*
X188500001Y-147328571D01*
X188500001Y-145828571D01*
X189000001Y-145828571D01*
X189142858Y-145900000D01*
X189214287Y-145971429D01*
X189285715Y-146114286D01*
X189285715Y-146257143D01*
X189214287Y-146400000D01*
X189142858Y-146471429D01*
X189000001Y-146542857D01*
X188500001Y-146542857D01*
X190285715Y-146614286D02*
X190285715Y-147328571D01*
X189785715Y-145828571D02*
X190285715Y-146614286D01*
X190785715Y-145828571D01*
X191071429Y-145828571D02*
X191928572Y-145828571D01*
X191500001Y-147328571D02*
X191500001Y-145828571D01*
X192428572Y-146542857D02*
X192928572Y-146542857D01*
X193142858Y-147328571D02*
X192428572Y-147328571D01*
X192428572Y-145828571D01*
X193142858Y-145828571D01*
X193714286Y-147257143D02*
X193928572Y-147328571D01*
X194285715Y-147328571D01*
X194428572Y-147257143D01*
X194500001Y-147185714D01*
X194571429Y-147042857D01*
X194571429Y-146900000D01*
X194500001Y-146757143D01*
X194428572Y-146685714D01*
X194285715Y-146614286D01*
X194000001Y-146542857D01*
X193857143Y-146471429D01*
X193785715Y-146400000D01*
X193714286Y-146257143D01*
X193714286Y-146114286D01*
X193785715Y-145971429D01*
X193857143Y-145900000D01*
X194000001Y-145828571D01*
X194357143Y-145828571D01*
X194571429Y-145900000D01*
X196357143Y-147328571D02*
X196357143Y-145828571D01*
X197214286Y-147328571D02*
X196571429Y-146471429D01*
X197214286Y-145828571D02*
X196357143Y-146685714D01*
X197857143Y-147328571D02*
X197857143Y-145828571D01*
X198357143Y-145828571D02*
X199214286Y-145828571D01*
X198785715Y-147328571D02*
X198785715Y-145828571D01*
X200857143Y-147328571D02*
X200857143Y-145828571D01*
X201214286Y-145828571D01*
X201428571Y-145900000D01*
X201571429Y-146042857D01*
X201642857Y-146185714D01*
X201714286Y-146471429D01*
X201714286Y-146685714D01*
X201642857Y-146971429D01*
X201571429Y-147114286D01*
X201428571Y-147257143D01*
X201214286Y-147328571D01*
X200857143Y-147328571D01*
X203214286Y-147328571D02*
X202714286Y-146614286D01*
X202357143Y-147328571D02*
X202357143Y-145828571D01*
X202928571Y-145828571D01*
X203071429Y-145900000D01*
X203142857Y-145971429D01*
X203214286Y-146114286D01*
X203214286Y-146328571D01*
X203142857Y-146471429D01*
X203071429Y-146542857D01*
X202928571Y-146614286D01*
X202357143Y-146614286D01*
X203785714Y-146900000D02*
X204500000Y-146900000D01*
X203642857Y-147328571D02*
X204142857Y-145828571D01*
X204642857Y-147328571D01*
X205000000Y-145828571D02*
X205357143Y-147328571D01*
X205642857Y-146257143D01*
X205928571Y-147328571D01*
X206285714Y-145828571D01*
X206857143Y-147328571D02*
X206857143Y-145828571D01*
X207571429Y-147328571D02*
X207571429Y-145828571D01*
X208428572Y-147328571D01*
X208428572Y-145828571D01*
X209928572Y-145900000D02*
X209785715Y-145828571D01*
X209571429Y-145828571D01*
X209357144Y-145900000D01*
X209214286Y-146042857D01*
X209142858Y-146185714D01*
X209071429Y-146471429D01*
X209071429Y-146685714D01*
X209142858Y-146971429D01*
X209214286Y-147114286D01*
X209357144Y-147257143D01*
X209571429Y-147328571D01*
X209714286Y-147328571D01*
X209928572Y-147257143D01*
X210000001Y-147185714D01*
X210000001Y-146685714D01*
X209714286Y-146685714D01*
X210571429Y-147257143D02*
X210785715Y-147328571D01*
X211142858Y-147328571D01*
X211285715Y-147257143D01*
X211357144Y-147185714D01*
X211428572Y-147042857D01*
X211428572Y-146900000D01*
X211357144Y-146757143D01*
X211285715Y-146685714D01*
X211142858Y-146614286D01*
X210857144Y-146542857D01*
X210714286Y-146471429D01*
X210642858Y-146400000D01*
X210571429Y-146257143D01*
X210571429Y-146114286D01*
X210642858Y-145971429D01*
X210714286Y-145900000D01*
X210857144Y-145828571D01*
X211214286Y-145828571D01*
X211428572Y-145900000D01*
X133428571Y-149878571D02*
X133714286Y-149878571D01*
X133857143Y-149807143D01*
X133928571Y-149735714D01*
X134071429Y-149521429D01*
X134142857Y-149235714D01*
X134142857Y-148664286D01*
X134071429Y-148521429D01*
X134000000Y-148450000D01*
X133857143Y-148378571D01*
X133571429Y-148378571D01*
X133428571Y-148450000D01*
X133357143Y-148521429D01*
X133285714Y-148664286D01*
X133285714Y-149021429D01*
X133357143Y-149164286D01*
X133428571Y-149235714D01*
X133571429Y-149307143D01*
X133857143Y-149307143D01*
X134000000Y-149235714D01*
X134071429Y-149164286D01*
X134142857Y-149021429D01*
X134785714Y-149735714D02*
X134857142Y-149807143D01*
X134785714Y-149878571D01*
X134714285Y-149807143D01*
X134785714Y-149735714D01*
X134785714Y-149878571D01*
X137142857Y-149092857D02*
X137357143Y-149164286D01*
X137428571Y-149235714D01*
X137500000Y-149378571D01*
X137500000Y-149592857D01*
X137428571Y-149735714D01*
X137357143Y-149807143D01*
X137214285Y-149878571D01*
X136642857Y-149878571D01*
X136642857Y-148378571D01*
X137142857Y-148378571D01*
X137285714Y-148450000D01*
X137357143Y-148521429D01*
X137428571Y-148664286D01*
X137428571Y-148807143D01*
X137357143Y-148950000D01*
X137285714Y-149021429D01*
X137142857Y-149092857D01*
X136642857Y-149092857D01*
X138071428Y-149450000D02*
X138785714Y-149450000D01*
X137928571Y-149878571D02*
X138428571Y-148378571D01*
X138928571Y-149878571D01*
X139214285Y-148378571D02*
X140071428Y-148378571D01*
X139642857Y-149878571D02*
X139642857Y-148378571D01*
X140357142Y-148378571D02*
X141214285Y-148378571D01*
X140785714Y-149878571D02*
X140785714Y-148378571D01*
X141714285Y-149092857D02*
X142214285Y-149092857D01*
X142428571Y-149878571D02*
X141714285Y-149878571D01*
X141714285Y-148378571D01*
X142428571Y-148378571D01*
X143928571Y-149878571D02*
X143428571Y-149164286D01*
X143071428Y-149878571D02*
X143071428Y-148378571D01*
X143642856Y-148378571D01*
X143785714Y-148450000D01*
X143857142Y-148521429D01*
X143928571Y-148664286D01*
X143928571Y-148878571D01*
X143857142Y-149021429D01*
X143785714Y-149092857D01*
X143642856Y-149164286D01*
X143071428Y-149164286D01*
X144857142Y-149164286D02*
X144857142Y-149878571D01*
X144357142Y-148378571D02*
X144857142Y-149164286D01*
X145357142Y-148378571D01*
X146999999Y-149878571D02*
X146999999Y-148378571D01*
X147571427Y-148378571D01*
X147714285Y-148450000D01*
X147785713Y-148521429D01*
X147857142Y-148664286D01*
X147857142Y-148878571D01*
X147785713Y-149021429D01*
X147714285Y-149092857D01*
X147571427Y-149164286D01*
X146999999Y-149164286D01*
X148428570Y-149450000D02*
X149142856Y-149450000D01*
X148285713Y-149878571D02*
X148785713Y-148378571D01*
X149285713Y-149878571D01*
X150642856Y-149735714D02*
X150571427Y-149807143D01*
X150357141Y-149878571D01*
X150214284Y-149878571D01*
X149999999Y-149807143D01*
X149857141Y-149664286D01*
X149785713Y-149521429D01*
X149714284Y-149235714D01*
X149714284Y-149021429D01*
X149785713Y-148735714D01*
X149857141Y-148592857D01*
X149999999Y-148450000D01*
X150214284Y-148378571D01*
X150357141Y-148378571D01*
X150571427Y-148450000D01*
X150642856Y-148521429D01*
X151285713Y-149878571D02*
X151285713Y-148378571D01*
X152142856Y-149878571D02*
X151499999Y-149021429D01*
X152142856Y-148378571D02*
X151285713Y-149235714D01*
X153928570Y-149878571D02*
X153928570Y-148378571D01*
X154428570Y-149450000D01*
X154928570Y-148378571D01*
X154928570Y-149878571D01*
X155642856Y-148378571D02*
X155642856Y-149592857D01*
X155714284Y-149735714D01*
X155785713Y-149807143D01*
X155928570Y-149878571D01*
X156214284Y-149878571D01*
X156357142Y-149807143D01*
X156428570Y-149735714D01*
X156499999Y-149592857D01*
X156499999Y-148378571D01*
X157142856Y-149807143D02*
X157357142Y-149878571D01*
X157714285Y-149878571D01*
X157857142Y-149807143D01*
X157928571Y-149735714D01*
X157999999Y-149592857D01*
X157999999Y-149450000D01*
X157928571Y-149307143D01*
X157857142Y-149235714D01*
X157714285Y-149164286D01*
X157428571Y-149092857D01*
X157285713Y-149021429D01*
X157214285Y-148950000D01*
X157142856Y-148807143D01*
X157142856Y-148664286D01*
X157214285Y-148521429D01*
X157285713Y-148450000D01*
X157428571Y-148378571D01*
X157785713Y-148378571D01*
X157999999Y-148450000D01*
X158428570Y-148378571D02*
X159285713Y-148378571D01*
X158857142Y-149878571D02*
X158857142Y-148378571D01*
X161428570Y-149092857D02*
X161642856Y-149164286D01*
X161714284Y-149235714D01*
X161785713Y-149378571D01*
X161785713Y-149592857D01*
X161714284Y-149735714D01*
X161642856Y-149807143D01*
X161499998Y-149878571D01*
X160928570Y-149878571D01*
X160928570Y-148378571D01*
X161428570Y-148378571D01*
X161571427Y-148450000D01*
X161642856Y-148521429D01*
X161714284Y-148664286D01*
X161714284Y-148807143D01*
X161642856Y-148950000D01*
X161571427Y-149021429D01*
X161428570Y-149092857D01*
X160928570Y-149092857D01*
X162428570Y-149092857D02*
X162928570Y-149092857D01*
X163142856Y-149878571D02*
X162428570Y-149878571D01*
X162428570Y-148378571D01*
X163142856Y-148378571D01*
X164928570Y-149878571D02*
X164928570Y-148378571D01*
X164928570Y-149092857D02*
X165785713Y-149092857D01*
X165785713Y-149878571D02*
X165785713Y-148378571D01*
X166428570Y-149450000D02*
X167142856Y-149450000D01*
X166285713Y-149878571D02*
X166785713Y-148378571D01*
X167285713Y-149878571D01*
X167785713Y-149878571D02*
X167785713Y-148378571D01*
X168642856Y-149878571D01*
X168642856Y-148378571D01*
X169357142Y-149878571D02*
X169357142Y-148378571D01*
X169714285Y-148378571D01*
X169928570Y-148450000D01*
X170071428Y-148592857D01*
X170142856Y-148735714D01*
X170214285Y-149021429D01*
X170214285Y-149235714D01*
X170142856Y-149521429D01*
X170071428Y-149664286D01*
X169928570Y-149807143D01*
X169714285Y-149878571D01*
X169357142Y-149878571D01*
X171928570Y-149807143D02*
X172142856Y-149878571D01*
X172499999Y-149878571D01*
X172642856Y-149807143D01*
X172714285Y-149735714D01*
X172785713Y-149592857D01*
X172785713Y-149450000D01*
X172714285Y-149307143D01*
X172642856Y-149235714D01*
X172499999Y-149164286D01*
X172214285Y-149092857D01*
X172071427Y-149021429D01*
X171999999Y-148950000D01*
X171928570Y-148807143D01*
X171928570Y-148664286D01*
X171999999Y-148521429D01*
X172071427Y-148450000D01*
X172214285Y-148378571D01*
X172571427Y-148378571D01*
X172785713Y-148450000D01*
X173714284Y-148378571D02*
X173999998Y-148378571D01*
X174142856Y-148450000D01*
X174285713Y-148592857D01*
X174357141Y-148878571D01*
X174357141Y-149378571D01*
X174285713Y-149664286D01*
X174142856Y-149807143D01*
X173999998Y-149878571D01*
X173714284Y-149878571D01*
X173571427Y-149807143D01*
X173428570Y-149664286D01*
X173357141Y-149378571D01*
X173357141Y-148878571D01*
X173428570Y-148592857D01*
X173571427Y-148450000D01*
X173714284Y-148378571D01*
X175714285Y-149878571D02*
X174999999Y-149878571D01*
X174999999Y-148378571D01*
X176214285Y-149878571D02*
X176214285Y-148378571D01*
X176571428Y-148378571D01*
X176785713Y-148450000D01*
X176928571Y-148592857D01*
X176999999Y-148735714D01*
X177071428Y-149021429D01*
X177071428Y-149235714D01*
X176999999Y-149521429D01*
X176928571Y-149664286D01*
X176785713Y-149807143D01*
X176571428Y-149878571D01*
X176214285Y-149878571D01*
X177714285Y-149092857D02*
X178214285Y-149092857D01*
X178428571Y-149878571D02*
X177714285Y-149878571D01*
X177714285Y-148378571D01*
X178428571Y-148378571D01*
X179928571Y-149878571D02*
X179428571Y-149164286D01*
X179071428Y-149878571D02*
X179071428Y-148378571D01*
X179642856Y-148378571D01*
X179785714Y-148450000D01*
X179857142Y-148521429D01*
X179928571Y-148664286D01*
X179928571Y-148878571D01*
X179857142Y-149021429D01*
X179785714Y-149092857D01*
X179642856Y-149164286D01*
X179071428Y-149164286D01*
X180571428Y-149092857D02*
X181071428Y-149092857D01*
X181285714Y-149878571D02*
X180571428Y-149878571D01*
X180571428Y-148378571D01*
X181285714Y-148378571D01*
X181928571Y-149878571D02*
X181928571Y-148378571D01*
X182285714Y-148378571D01*
X182499999Y-148450000D01*
X182642857Y-148592857D01*
X182714285Y-148735714D01*
X182785714Y-149021429D01*
X182785714Y-149235714D01*
X182714285Y-149521429D01*
X182642857Y-149664286D01*
X182499999Y-149807143D01*
X182285714Y-149878571D01*
X181928571Y-149878571D01*
X184499999Y-149450000D02*
X185214285Y-149450000D01*
X184357142Y-149878571D02*
X184857142Y-148378571D01*
X185357142Y-149878571D01*
X186357142Y-149092857D02*
X185857142Y-149092857D01*
X185857142Y-149878571D02*
X185857142Y-148378571D01*
X186571428Y-148378571D01*
X186928570Y-148378571D02*
X187785713Y-148378571D01*
X187357142Y-149878571D02*
X187357142Y-148378571D01*
X188285713Y-149092857D02*
X188785713Y-149092857D01*
X188999999Y-149878571D02*
X188285713Y-149878571D01*
X188285713Y-148378571D01*
X188999999Y-148378571D01*
X190499999Y-149878571D02*
X189999999Y-149164286D01*
X189642856Y-149878571D02*
X189642856Y-148378571D01*
X190214284Y-148378571D01*
X190357142Y-148450000D01*
X190428570Y-148521429D01*
X190499999Y-148664286D01*
X190499999Y-148878571D01*
X190428570Y-149021429D01*
X190357142Y-149092857D01*
X190214284Y-149164286D01*
X189642856Y-149164286D01*
X192285713Y-149878571D02*
X192285713Y-148378571D01*
X192999999Y-149878571D02*
X192999999Y-148378571D01*
X193857142Y-149878571D01*
X193857142Y-148378571D01*
X194499999Y-149807143D02*
X194714285Y-149878571D01*
X195071428Y-149878571D01*
X195214285Y-149807143D01*
X195285714Y-149735714D01*
X195357142Y-149592857D01*
X195357142Y-149450000D01*
X195285714Y-149307143D01*
X195214285Y-149235714D01*
X195071428Y-149164286D01*
X194785714Y-149092857D01*
X194642856Y-149021429D01*
X194571428Y-148950000D01*
X194499999Y-148807143D01*
X194499999Y-148664286D01*
X194571428Y-148521429D01*
X194642856Y-148450000D01*
X194785714Y-148378571D01*
X195142856Y-148378571D01*
X195357142Y-148450000D01*
X195785713Y-148378571D02*
X196642856Y-148378571D01*
X196214285Y-149878571D02*
X196214285Y-148378571D01*
X197071427Y-149450000D02*
X197785713Y-149450000D01*
X196928570Y-149878571D02*
X197428570Y-148378571D01*
X197928570Y-149878571D01*
X199142856Y-149878571D02*
X198428570Y-149878571D01*
X198428570Y-148378571D01*
X200357142Y-149878571D02*
X199642856Y-149878571D01*
X199642856Y-148378571D01*
X200785713Y-149450000D02*
X201499999Y-149450000D01*
X200642856Y-149878571D02*
X201142856Y-148378571D01*
X201642856Y-149878571D01*
X201928570Y-148378571D02*
X202785713Y-148378571D01*
X202357142Y-149878571D02*
X202357142Y-148378571D01*
X203285713Y-149878571D02*
X203285713Y-148378571D01*
X204285713Y-148378571D02*
X204571427Y-148378571D01*
X204714285Y-148450000D01*
X204857142Y-148592857D01*
X204928570Y-148878571D01*
X204928570Y-149378571D01*
X204857142Y-149664286D01*
X204714285Y-149807143D01*
X204571427Y-149878571D01*
X204285713Y-149878571D01*
X204142856Y-149807143D01*
X203999999Y-149664286D01*
X203928570Y-149378571D01*
X203928570Y-148878571D01*
X203999999Y-148592857D01*
X204142856Y-148450000D01*
X204285713Y-148378571D01*
X205571428Y-149878571D02*
X205571428Y-148378571D01*
X206428571Y-149878571D01*
X206428571Y-148378571D01*
X208571428Y-148378571D02*
X208857142Y-148378571D01*
X209000000Y-148450000D01*
X209142857Y-148592857D01*
X209214285Y-148878571D01*
X209214285Y-149378571D01*
X209142857Y-149664286D01*
X209000000Y-149807143D01*
X208857142Y-149878571D01*
X208571428Y-149878571D01*
X208428571Y-149807143D01*
X208285714Y-149664286D01*
X208214285Y-149378571D01*
X208214285Y-148878571D01*
X208285714Y-148592857D01*
X208428571Y-148450000D01*
X208571428Y-148378571D01*
X210357143Y-149092857D02*
X209857143Y-149092857D01*
X209857143Y-149878571D02*
X209857143Y-148378571D01*
X210571429Y-148378571D01*
X212071428Y-148378571D02*
X212928571Y-148378571D01*
X212500000Y-149878571D02*
X212500000Y-148378571D01*
X213285714Y-148378571D02*
X213642857Y-149878571D01*
X213928571Y-148807143D01*
X214214285Y-149878571D01*
X214571428Y-148378571D01*
X215428571Y-148378571D02*
X215714285Y-148378571D01*
X215857143Y-148450000D01*
X216000000Y-148592857D01*
X216071428Y-148878571D01*
X216071428Y-149378571D01*
X216000000Y-149664286D01*
X215857143Y-149807143D01*
X215714285Y-149878571D01*
X215428571Y-149878571D01*
X215285714Y-149807143D01*
X215142857Y-149664286D01*
X215071428Y-149378571D01*
X215071428Y-148878571D01*
X215142857Y-148592857D01*
X215285714Y-148450000D01*
X215428571Y-148378571D01*
X217857143Y-149878571D02*
X217857143Y-148378571D01*
X218714286Y-149878571D01*
X218714286Y-148378571D01*
X219714286Y-149164286D02*
X219714286Y-149878571D01*
X219214286Y-148378571D02*
X219714286Y-149164286D01*
X220214286Y-148378571D01*
X221428572Y-149878571D02*
X220714286Y-149878571D01*
X220714286Y-148378571D01*
X222214286Y-148378571D02*
X222500000Y-148378571D01*
X222642858Y-148450000D01*
X222785715Y-148592857D01*
X222857143Y-148878571D01*
X222857143Y-149378571D01*
X222785715Y-149664286D01*
X222642858Y-149807143D01*
X222500000Y-149878571D01*
X222214286Y-149878571D01*
X222071429Y-149807143D01*
X221928572Y-149664286D01*
X221857143Y-149378571D01*
X221857143Y-148878571D01*
X221928572Y-148592857D01*
X222071429Y-148450000D01*
X222214286Y-148378571D01*
X223500001Y-149878571D02*
X223500001Y-148378571D01*
X224357144Y-149878571D01*
X224357144Y-148378571D01*
X227071430Y-149878571D02*
X226571430Y-149164286D01*
X226214287Y-149878571D02*
X226214287Y-148378571D01*
X226785715Y-148378571D01*
X226928573Y-148450000D01*
X227000001Y-148521429D01*
X227071430Y-148664286D01*
X227071430Y-148878571D01*
X227000001Y-149021429D01*
X226928573Y-149092857D01*
X226785715Y-149164286D01*
X226214287Y-149164286D01*
X227714287Y-149878571D02*
X227714287Y-148378571D01*
X228214287Y-148378571D02*
X228714287Y-149878571D01*
X229214287Y-148378571D01*
X229714287Y-149092857D02*
X230214287Y-149092857D01*
X230428573Y-149878571D02*
X229714287Y-149878571D01*
X229714287Y-148378571D01*
X230428573Y-148378571D01*
X230857144Y-148378571D02*
X231714287Y-148378571D01*
X231285716Y-149878571D02*
X231285716Y-148378571D01*
X232142858Y-149807143D02*
X232357144Y-149878571D01*
X232714287Y-149878571D01*
X232857144Y-149807143D01*
X232928573Y-149735714D01*
X233000001Y-149592857D01*
X233000001Y-149450000D01*
X232928573Y-149307143D01*
X232857144Y-149235714D01*
X232714287Y-149164286D01*
X232428573Y-149092857D01*
X232285715Y-149021429D01*
X232214287Y-148950000D01*
X232142858Y-148807143D01*
X232142858Y-148664286D01*
X232214287Y-148521429D01*
X232285715Y-148450000D01*
X232428573Y-148378571D01*
X232785715Y-148378571D01*
X233000001Y-148450000D01*
X234714286Y-149450000D02*
X235428572Y-149450000D01*
X234571429Y-149878571D02*
X235071429Y-148378571D01*
X235571429Y-149878571D01*
X236000000Y-149807143D02*
X236214286Y-149878571D01*
X236571429Y-149878571D01*
X236714286Y-149807143D01*
X236785715Y-149735714D01*
X236857143Y-149592857D01*
X236857143Y-149450000D01*
X236785715Y-149307143D01*
X236714286Y-149235714D01*
X236571429Y-149164286D01*
X236285715Y-149092857D01*
X236142857Y-149021429D01*
X236071429Y-148950000D01*
X236000000Y-148807143D01*
X236000000Y-148664286D01*
X236071429Y-148521429D01*
X236142857Y-148450000D01*
X236285715Y-148378571D01*
X236642857Y-148378571D01*
X236857143Y-148450000D01*
X238571428Y-149807143D02*
X238785714Y-149878571D01*
X239142857Y-149878571D01*
X239285714Y-149807143D01*
X239357143Y-149735714D01*
X239428571Y-149592857D01*
X239428571Y-149450000D01*
X239357143Y-149307143D01*
X239285714Y-149235714D01*
X239142857Y-149164286D01*
X238857143Y-149092857D01*
X238714285Y-149021429D01*
X238642857Y-148950000D01*
X238571428Y-148807143D01*
X238571428Y-148664286D01*
X238642857Y-148521429D01*
X238714285Y-148450000D01*
X238857143Y-148378571D01*
X239214285Y-148378571D01*
X239428571Y-148450000D01*
X240071428Y-149878571D02*
X240071428Y-148378571D01*
X240071428Y-149092857D02*
X240928571Y-149092857D01*
X240928571Y-149878571D02*
X240928571Y-148378571D01*
X241928571Y-148378571D02*
X242214285Y-148378571D01*
X242357143Y-148450000D01*
X242500000Y-148592857D01*
X242571428Y-148878571D01*
X242571428Y-149378571D01*
X242500000Y-149664286D01*
X242357143Y-149807143D01*
X242214285Y-149878571D01*
X241928571Y-149878571D01*
X241785714Y-149807143D01*
X241642857Y-149664286D01*
X241571428Y-149378571D01*
X241571428Y-148878571D01*
X241642857Y-148592857D01*
X241785714Y-148450000D01*
X241928571Y-148378571D01*
X243071429Y-148378571D02*
X243428572Y-149878571D01*
X243714286Y-148807143D01*
X244000000Y-149878571D01*
X244357143Y-148378571D01*
X244928572Y-149878571D02*
X244928572Y-148378571D01*
X245785715Y-149878571D01*
X245785715Y-148378571D01*
X134142857Y-152428571D02*
X133285714Y-152428571D01*
X133714286Y-152428571D02*
X133714286Y-150928571D01*
X133571429Y-151142857D01*
X133428571Y-151285714D01*
X133285714Y-151357143D01*
X135071428Y-150928571D02*
X135214285Y-150928571D01*
X135357142Y-151000000D01*
X135428571Y-151071429D01*
X135500000Y-151214286D01*
X135571428Y-151500000D01*
X135571428Y-151857143D01*
X135500000Y-152142857D01*
X135428571Y-152285714D01*
X135357142Y-152357143D01*
X135214285Y-152428571D01*
X135071428Y-152428571D01*
X134928571Y-152357143D01*
X134857142Y-152285714D01*
X134785714Y-152142857D01*
X134714285Y-151857143D01*
X134714285Y-151500000D01*
X134785714Y-151214286D01*
X134857142Y-151071429D01*
X134928571Y-151000000D01*
X135071428Y-150928571D01*
X136214285Y-152285714D02*
X136285713Y-152357143D01*
X136214285Y-152428571D01*
X136142856Y-152357143D01*
X136214285Y-152285714D01*
X136214285Y-152428571D01*
X138571428Y-151642857D02*
X138071428Y-151642857D01*
X138071428Y-152428571D02*
X138071428Y-150928571D01*
X138785714Y-150928571D01*
X139642856Y-150928571D02*
X139928570Y-150928571D01*
X140071428Y-151000000D01*
X140214285Y-151142857D01*
X140285713Y-151428571D01*
X140285713Y-151928571D01*
X140214285Y-152214286D01*
X140071428Y-152357143D01*
X139928570Y-152428571D01*
X139642856Y-152428571D01*
X139499999Y-152357143D01*
X139357142Y-152214286D01*
X139285713Y-151928571D01*
X139285713Y-151428571D01*
X139357142Y-151142857D01*
X139499999Y-151000000D01*
X139642856Y-150928571D01*
X140928571Y-150928571D02*
X140928571Y-152142857D01*
X140999999Y-152285714D01*
X141071428Y-152357143D01*
X141214285Y-152428571D01*
X141499999Y-152428571D01*
X141642857Y-152357143D01*
X141714285Y-152285714D01*
X141785714Y-152142857D01*
X141785714Y-150928571D01*
X143357143Y-152428571D02*
X142857143Y-151714286D01*
X142500000Y-152428571D02*
X142500000Y-150928571D01*
X143071428Y-150928571D01*
X143214286Y-151000000D01*
X143285714Y-151071429D01*
X143357143Y-151214286D01*
X143357143Y-151428571D01*
X143285714Y-151571429D01*
X143214286Y-151642857D01*
X143071428Y-151714286D01*
X142500000Y-151714286D01*
X145071428Y-152357143D02*
X145285714Y-152428571D01*
X145642857Y-152428571D01*
X145785714Y-152357143D01*
X145857143Y-152285714D01*
X145928571Y-152142857D01*
X145928571Y-152000000D01*
X145857143Y-151857143D01*
X145785714Y-151785714D01*
X145642857Y-151714286D01*
X145357143Y-151642857D01*
X145214285Y-151571429D01*
X145142857Y-151500000D01*
X145071428Y-151357143D01*
X145071428Y-151214286D01*
X145142857Y-151071429D01*
X145214285Y-151000000D01*
X145357143Y-150928571D01*
X145714285Y-150928571D01*
X145928571Y-151000000D01*
X146571428Y-151642857D02*
X147071428Y-151642857D01*
X147285714Y-152428571D02*
X146571428Y-152428571D01*
X146571428Y-150928571D01*
X147285714Y-150928571D01*
X148642857Y-152428571D02*
X147928571Y-152428571D01*
X147928571Y-150928571D01*
X149642857Y-151642857D02*
X149142857Y-151642857D01*
X149142857Y-152428571D02*
X149142857Y-150928571D01*
X149857143Y-150928571D01*
X150428571Y-151857143D02*
X151571428Y-151857143D01*
X152214285Y-152000000D02*
X152928571Y-152000000D01*
X152071428Y-152428571D02*
X152571428Y-150928571D01*
X153071428Y-152428571D01*
X153571428Y-152428571D02*
X153571428Y-150928571D01*
X153928571Y-150928571D01*
X154142856Y-151000000D01*
X154285714Y-151142857D01*
X154357142Y-151285714D01*
X154428571Y-151571429D01*
X154428571Y-151785714D01*
X154357142Y-152071429D01*
X154285714Y-152214286D01*
X154142856Y-152357143D01*
X153928571Y-152428571D01*
X153571428Y-152428571D01*
X155071428Y-152428571D02*
X155071428Y-150928571D01*
X155071428Y-151642857D02*
X155928571Y-151642857D01*
X155928571Y-152428571D02*
X155928571Y-150928571D01*
X156642857Y-151642857D02*
X157142857Y-151642857D01*
X157357143Y-152428571D02*
X156642857Y-152428571D01*
X156642857Y-150928571D01*
X157357143Y-150928571D01*
X157928571Y-152357143D02*
X158142857Y-152428571D01*
X158500000Y-152428571D01*
X158642857Y-152357143D01*
X158714286Y-152285714D01*
X158785714Y-152142857D01*
X158785714Y-152000000D01*
X158714286Y-151857143D01*
X158642857Y-151785714D01*
X158500000Y-151714286D01*
X158214286Y-151642857D01*
X158071428Y-151571429D01*
X158000000Y-151500000D01*
X157928571Y-151357143D01*
X157928571Y-151214286D01*
X158000000Y-151071429D01*
X158071428Y-151000000D01*
X158214286Y-150928571D01*
X158571428Y-150928571D01*
X158785714Y-151000000D01*
X159428571Y-152428571D02*
X159428571Y-150928571D01*
X159928571Y-150928571D02*
X160428571Y-152428571D01*
X160928571Y-150928571D01*
X161428571Y-151642857D02*
X161928571Y-151642857D01*
X162142857Y-152428571D02*
X161428571Y-152428571D01*
X161428571Y-150928571D01*
X162142857Y-150928571D01*
X163928571Y-152428571D02*
X163928571Y-150928571D01*
X164499999Y-150928571D01*
X164642857Y-151000000D01*
X164714285Y-151071429D01*
X164785714Y-151214286D01*
X164785714Y-151428571D01*
X164714285Y-151571429D01*
X164642857Y-151642857D01*
X164499999Y-151714286D01*
X163928571Y-151714286D01*
X165714285Y-150928571D02*
X165999999Y-150928571D01*
X166142857Y-151000000D01*
X166285714Y-151142857D01*
X166357142Y-151428571D01*
X166357142Y-151928571D01*
X166285714Y-152214286D01*
X166142857Y-152357143D01*
X165999999Y-152428571D01*
X165714285Y-152428571D01*
X165571428Y-152357143D01*
X165428571Y-152214286D01*
X165357142Y-151928571D01*
X165357142Y-151428571D01*
X165428571Y-151142857D01*
X165571428Y-151000000D01*
X165714285Y-150928571D01*
X167714286Y-152428571D02*
X167000000Y-152428571D01*
X167000000Y-150928571D01*
X168500000Y-151714286D02*
X168500000Y-152428571D01*
X168000000Y-150928571D02*
X168500000Y-151714286D01*
X169000000Y-150928571D01*
X169500000Y-150928571D02*
X169500000Y-152142857D01*
X169571428Y-152285714D01*
X169642857Y-152357143D01*
X169785714Y-152428571D01*
X170071428Y-152428571D01*
X170214286Y-152357143D01*
X170285714Y-152285714D01*
X170357143Y-152142857D01*
X170357143Y-150928571D01*
X171928572Y-152428571D02*
X171428572Y-151714286D01*
X171071429Y-152428571D02*
X171071429Y-150928571D01*
X171642857Y-150928571D01*
X171785715Y-151000000D01*
X171857143Y-151071429D01*
X171928572Y-151214286D01*
X171928572Y-151428571D01*
X171857143Y-151571429D01*
X171785715Y-151642857D01*
X171642857Y-151714286D01*
X171071429Y-151714286D01*
X172571429Y-151642857D02*
X173071429Y-151642857D01*
X173285715Y-152428571D02*
X172571429Y-152428571D01*
X172571429Y-150928571D01*
X173285715Y-150928571D01*
X173714286Y-150928571D02*
X174571429Y-150928571D01*
X174142858Y-152428571D02*
X174142858Y-150928571D01*
X175071429Y-152428571D02*
X175071429Y-150928571D01*
X175071429Y-151642857D02*
X175928572Y-151642857D01*
X175928572Y-152428571D02*
X175928572Y-150928571D01*
X176571429Y-152000000D02*
X177285715Y-152000000D01*
X176428572Y-152428571D02*
X176928572Y-150928571D01*
X177428572Y-152428571D01*
X177928572Y-152428571D02*
X177928572Y-150928571D01*
X178785715Y-152428571D01*
X178785715Y-150928571D01*
X179500001Y-151642857D02*
X180000001Y-151642857D01*
X180214287Y-152428571D02*
X179500001Y-152428571D01*
X179500001Y-150928571D01*
X180214287Y-150928571D01*
X182500001Y-151642857D02*
X182714287Y-151714286D01*
X182785715Y-151785714D01*
X182857144Y-151928571D01*
X182857144Y-152142857D01*
X182785715Y-152285714D01*
X182714287Y-152357143D01*
X182571429Y-152428571D01*
X182000001Y-152428571D01*
X182000001Y-150928571D01*
X182500001Y-150928571D01*
X182642858Y-151000000D01*
X182714287Y-151071429D01*
X182785715Y-151214286D01*
X182785715Y-151357143D01*
X182714287Y-151500000D01*
X182642858Y-151571429D01*
X182500001Y-151642857D01*
X182000001Y-151642857D01*
X183500001Y-150928571D02*
X183500001Y-152142857D01*
X183571429Y-152285714D01*
X183642858Y-152357143D01*
X183785715Y-152428571D01*
X184071429Y-152428571D01*
X184214287Y-152357143D01*
X184285715Y-152285714D01*
X184357144Y-152142857D01*
X184357144Y-150928571D01*
X185071430Y-152428571D02*
X185071430Y-150928571D01*
X185571430Y-152000000D01*
X186071430Y-150928571D01*
X186071430Y-152428571D01*
X186785716Y-152428571D02*
X186785716Y-150928571D01*
X187357144Y-150928571D01*
X187500002Y-151000000D01*
X187571430Y-151071429D01*
X187642859Y-151214286D01*
X187642859Y-151428571D01*
X187571430Y-151571429D01*
X187500002Y-151642857D01*
X187357144Y-151714286D01*
X186785716Y-151714286D01*
X188285716Y-151642857D02*
X188785716Y-151642857D01*
X189000002Y-152428571D02*
X188285716Y-152428571D01*
X188285716Y-150928571D01*
X189000002Y-150928571D01*
X190500002Y-152428571D02*
X190000002Y-151714286D01*
X189642859Y-152428571D02*
X189642859Y-150928571D01*
X190214287Y-150928571D01*
X190357145Y-151000000D01*
X190428573Y-151071429D01*
X190500002Y-151214286D01*
X190500002Y-151428571D01*
X190428573Y-151571429D01*
X190357145Y-151642857D01*
X190214287Y-151714286D01*
X189642859Y-151714286D01*
X191071430Y-152357143D02*
X191285716Y-152428571D01*
X191642859Y-152428571D01*
X191785716Y-152357143D01*
X191857145Y-152285714D01*
X191928573Y-152142857D01*
X191928573Y-152000000D01*
X191857145Y-151857143D01*
X191785716Y-151785714D01*
X191642859Y-151714286D01*
X191357145Y-151642857D01*
X191214287Y-151571429D01*
X191142859Y-151500000D01*
X191071430Y-151357143D01*
X191071430Y-151214286D01*
X191142859Y-151071429D01*
X191214287Y-151000000D01*
X191357145Y-150928571D01*
X191714287Y-150928571D01*
X191928573Y-151000000D01*
X193500001Y-150928571D02*
X194357144Y-150928571D01*
X193928573Y-152428571D02*
X193928573Y-150928571D01*
X195142858Y-150928571D02*
X195428572Y-150928571D01*
X195571430Y-151000000D01*
X195714287Y-151142857D01*
X195785715Y-151428571D01*
X195785715Y-151928571D01*
X195714287Y-152214286D01*
X195571430Y-152357143D01*
X195428572Y-152428571D01*
X195142858Y-152428571D01*
X195000001Y-152357143D01*
X194857144Y-152214286D01*
X194785715Y-151928571D01*
X194785715Y-151428571D01*
X194857144Y-151142857D01*
X195000001Y-151000000D01*
X195142858Y-150928571D01*
X198071430Y-151642857D02*
X198285716Y-151714286D01*
X198357144Y-151785714D01*
X198428573Y-151928571D01*
X198428573Y-152142857D01*
X198357144Y-152285714D01*
X198285716Y-152357143D01*
X198142858Y-152428571D01*
X197571430Y-152428571D01*
X197571430Y-150928571D01*
X198071430Y-150928571D01*
X198214287Y-151000000D01*
X198285716Y-151071429D01*
X198357144Y-151214286D01*
X198357144Y-151357143D01*
X198285716Y-151500000D01*
X198214287Y-151571429D01*
X198071430Y-151642857D01*
X197571430Y-151642857D01*
X199071430Y-151642857D02*
X199571430Y-151642857D01*
X199785716Y-152428571D02*
X199071430Y-152428571D01*
X199071430Y-150928571D01*
X199785716Y-150928571D01*
X201500001Y-152000000D02*
X202214287Y-152000000D01*
X201357144Y-152428571D02*
X201857144Y-150928571D01*
X202357144Y-152428571D01*
X202857144Y-152428571D02*
X202857144Y-150928571D01*
X203428572Y-150928571D01*
X203571430Y-151000000D01*
X203642858Y-151071429D01*
X203714287Y-151214286D01*
X203714287Y-151428571D01*
X203642858Y-151571429D01*
X203571430Y-151642857D01*
X203428572Y-151714286D01*
X202857144Y-151714286D01*
X204357144Y-152428571D02*
X204357144Y-150928571D01*
X204928572Y-150928571D01*
X205071430Y-151000000D01*
X205142858Y-151071429D01*
X205214287Y-151214286D01*
X205214287Y-151428571D01*
X205142858Y-151571429D01*
X205071430Y-151642857D01*
X204928572Y-151714286D01*
X204357144Y-151714286D01*
X206571430Y-152428571D02*
X205857144Y-152428571D01*
X205857144Y-150928571D01*
X207071430Y-152428571D02*
X207071430Y-150928571D01*
X207785716Y-151642857D02*
X208285716Y-151642857D01*
X208500002Y-152428571D02*
X207785716Y-152428571D01*
X207785716Y-150928571D01*
X208500002Y-150928571D01*
X209142859Y-152428571D02*
X209142859Y-150928571D01*
X209500002Y-150928571D01*
X209714287Y-151000000D01*
X209857145Y-151142857D01*
X209928573Y-151285714D01*
X210000002Y-151571429D01*
X210000002Y-151785714D01*
X209928573Y-152071429D01*
X209857145Y-152214286D01*
X209714287Y-152357143D01*
X209500002Y-152428571D01*
X209142859Y-152428571D01*
X211714287Y-152000000D02*
X212428573Y-152000000D01*
X211571430Y-152428571D02*
X212071430Y-150928571D01*
X212571430Y-152428571D01*
X213000001Y-152357143D02*
X213214287Y-152428571D01*
X213571430Y-152428571D01*
X213714287Y-152357143D01*
X213785716Y-152285714D01*
X213857144Y-152142857D01*
X213857144Y-152000000D01*
X213785716Y-151857143D01*
X213714287Y-151785714D01*
X213571430Y-151714286D01*
X213285716Y-151642857D01*
X213142858Y-151571429D01*
X213071430Y-151500000D01*
X213000001Y-151357143D01*
X213000001Y-151214286D01*
X213071430Y-151071429D01*
X213142858Y-151000000D01*
X213285716Y-150928571D01*
X213642858Y-150928571D01*
X213857144Y-151000000D01*
X215571429Y-152357143D02*
X215785715Y-152428571D01*
X216142858Y-152428571D01*
X216285715Y-152357143D01*
X216357144Y-152285714D01*
X216428572Y-152142857D01*
X216428572Y-152000000D01*
X216357144Y-151857143D01*
X216285715Y-151785714D01*
X216142858Y-151714286D01*
X215857144Y-151642857D01*
X215714286Y-151571429D01*
X215642858Y-151500000D01*
X215571429Y-151357143D01*
X215571429Y-151214286D01*
X215642858Y-151071429D01*
X215714286Y-151000000D01*
X215857144Y-150928571D01*
X216214286Y-150928571D01*
X216428572Y-151000000D01*
X217071429Y-152428571D02*
X217071429Y-150928571D01*
X217071429Y-151642857D02*
X217928572Y-151642857D01*
X217928572Y-152428571D02*
X217928572Y-150928571D01*
X218928572Y-150928571D02*
X219214286Y-150928571D01*
X219357144Y-151000000D01*
X219500001Y-151142857D01*
X219571429Y-151428571D01*
X219571429Y-151928571D01*
X219500001Y-152214286D01*
X219357144Y-152357143D01*
X219214286Y-152428571D01*
X218928572Y-152428571D01*
X218785715Y-152357143D01*
X218642858Y-152214286D01*
X218571429Y-151928571D01*
X218571429Y-151428571D01*
X218642858Y-151142857D01*
X218785715Y-151000000D01*
X218928572Y-150928571D01*
X220071430Y-150928571D02*
X220428573Y-152428571D01*
X220714287Y-151357143D01*
X221000001Y-152428571D01*
X221357144Y-150928571D01*
X221928573Y-152428571D02*
X221928573Y-150928571D01*
X222785716Y-152428571D01*
X222785716Y-150928571D01*
X224428573Y-150928571D02*
X225285716Y-150928571D01*
X224857145Y-152428571D02*
X224857145Y-150928571D01*
X226071430Y-150928571D02*
X226357144Y-150928571D01*
X226500002Y-151000000D01*
X226642859Y-151142857D01*
X226714287Y-151428571D01*
X226714287Y-151928571D01*
X226642859Y-152214286D01*
X226500002Y-152357143D01*
X226357144Y-152428571D01*
X226071430Y-152428571D01*
X225928573Y-152357143D01*
X225785716Y-152214286D01*
X225714287Y-151928571D01*
X225714287Y-151428571D01*
X225785716Y-151142857D01*
X225928573Y-151000000D01*
X226071430Y-150928571D01*
X229000002Y-151642857D02*
X228500002Y-151642857D01*
X228500002Y-152428571D02*
X228500002Y-150928571D01*
X229214288Y-150928571D01*
X230642859Y-152428571D02*
X230142859Y-151714286D01*
X229785716Y-152428571D02*
X229785716Y-150928571D01*
X230357144Y-150928571D01*
X230500002Y-151000000D01*
X230571430Y-151071429D01*
X230642859Y-151214286D01*
X230642859Y-151428571D01*
X230571430Y-151571429D01*
X230500002Y-151642857D01*
X230357144Y-151714286D01*
X229785716Y-151714286D01*
X231571430Y-150928571D02*
X231857144Y-150928571D01*
X232000002Y-151000000D01*
X232142859Y-151142857D01*
X232214287Y-151428571D01*
X232214287Y-151928571D01*
X232142859Y-152214286D01*
X232000002Y-152357143D01*
X231857144Y-152428571D01*
X231571430Y-152428571D01*
X231428573Y-152357143D01*
X231285716Y-152214286D01*
X231214287Y-151928571D01*
X231214287Y-151428571D01*
X231285716Y-151142857D01*
X231428573Y-151000000D01*
X231571430Y-150928571D01*
X232857145Y-152428571D02*
X232857145Y-150928571D01*
X233714288Y-152428571D01*
X233714288Y-150928571D01*
X234214288Y-150928571D02*
X235071431Y-150928571D01*
X234642860Y-152428571D02*
X234642860Y-150928571D01*
X236642859Y-152000000D02*
X237357145Y-152000000D01*
X236500002Y-152428571D02*
X237000002Y-150928571D01*
X237500002Y-152428571D01*
X238500002Y-151642857D02*
X238000002Y-151642857D01*
X238000002Y-152428571D02*
X238000002Y-150928571D01*
X238714288Y-150928571D01*
X239071430Y-150928571D02*
X239928573Y-150928571D01*
X239500002Y-152428571D02*
X239500002Y-150928571D01*
X240428573Y-151642857D02*
X240928573Y-151642857D01*
X241142859Y-152428571D02*
X240428573Y-152428571D01*
X240428573Y-150928571D01*
X241142859Y-150928571D01*
X242642859Y-152428571D02*
X242142859Y-151714286D01*
X241785716Y-152428571D02*
X241785716Y-150928571D01*
X242357144Y-150928571D01*
X242500002Y-151000000D01*
X242571430Y-151071429D01*
X242642859Y-151214286D01*
X242642859Y-151428571D01*
X242571430Y-151571429D01*
X242500002Y-151642857D01*
X242357144Y-151714286D01*
X241785716Y-151714286D01*
X244357144Y-152000000D02*
X245071430Y-152000000D01*
X244214287Y-152428571D02*
X244714287Y-150928571D01*
X245214287Y-152428571D01*
X245642858Y-152357143D02*
X245857144Y-152428571D01*
X246214287Y-152428571D01*
X246357144Y-152357143D01*
X246428573Y-152285714D01*
X246500001Y-152142857D01*
X246500001Y-152000000D01*
X246428573Y-151857143D01*
X246357144Y-151785714D01*
X246214287Y-151714286D01*
X245928573Y-151642857D01*
X245785715Y-151571429D01*
X245714287Y-151500000D01*
X245642858Y-151357143D01*
X245642858Y-151214286D01*
X245714287Y-151071429D01*
X245785715Y-151000000D01*
X245928573Y-150928571D01*
X246285715Y-150928571D01*
X246500001Y-151000000D01*
X247071429Y-152357143D02*
X247285715Y-152428571D01*
X247642858Y-152428571D01*
X247785715Y-152357143D01*
X247857144Y-152285714D01*
X247928572Y-152142857D01*
X247928572Y-152000000D01*
X247857144Y-151857143D01*
X247785715Y-151785714D01*
X247642858Y-151714286D01*
X247357144Y-151642857D01*
X247214286Y-151571429D01*
X247142858Y-151500000D01*
X247071429Y-151357143D01*
X247071429Y-151214286D01*
X247142858Y-151071429D01*
X247214286Y-151000000D01*
X247357144Y-150928571D01*
X247714286Y-150928571D01*
X247928572Y-151000000D01*
X248571429Y-151642857D02*
X249071429Y-151642857D01*
X249285715Y-152428571D02*
X248571429Y-152428571D01*
X248571429Y-150928571D01*
X249285715Y-150928571D01*
X249928572Y-152428571D02*
X249928572Y-150928571D01*
X250428572Y-152000000D01*
X250928572Y-150928571D01*
X250928572Y-152428571D01*
X252142858Y-151642857D02*
X252357144Y-151714286D01*
X252428572Y-151785714D01*
X252500001Y-151928571D01*
X252500001Y-152142857D01*
X252428572Y-152285714D01*
X252357144Y-152357143D01*
X252214286Y-152428571D01*
X251642858Y-152428571D01*
X251642858Y-150928571D01*
X252142858Y-150928571D01*
X252285715Y-151000000D01*
X252357144Y-151071429D01*
X252428572Y-151214286D01*
X252428572Y-151357143D01*
X252357144Y-151500000D01*
X252285715Y-151571429D01*
X252142858Y-151642857D01*
X251642858Y-151642857D01*
X253857144Y-152428571D02*
X253142858Y-152428571D01*
X253142858Y-150928571D01*
X254642858Y-151714286D02*
X254642858Y-152428571D01*
X254142858Y-150928571D02*
X254642858Y-151714286D01*
X255142858Y-150928571D01*
X256714286Y-152000000D02*
X257428572Y-152000000D01*
X256571429Y-152428571D02*
X257071429Y-150928571D01*
X257571429Y-152428571D01*
X258071429Y-152428571D02*
X258071429Y-150928571D01*
X258928572Y-152428571D01*
X258928572Y-150928571D01*
X259642858Y-152428571D02*
X259642858Y-150928571D01*
X260000001Y-150928571D01*
X260214286Y-151000000D01*
X260357144Y-151142857D01*
X260428572Y-151285714D01*
X260500001Y-151571429D01*
X260500001Y-151785714D01*
X260428572Y-152071429D01*
X260357144Y-152214286D01*
X260214286Y-152357143D01*
X260000001Y-152428571D01*
X259642858Y-152428571D01*
X263142858Y-152285714D02*
X263071429Y-152357143D01*
X262857143Y-152428571D01*
X262714286Y-152428571D01*
X262500001Y-152357143D01*
X262357143Y-152214286D01*
X262285715Y-152071429D01*
X262214286Y-151785714D01*
X262214286Y-151571429D01*
X262285715Y-151285714D01*
X262357143Y-151142857D01*
X262500001Y-151000000D01*
X262714286Y-150928571D01*
X262857143Y-150928571D01*
X263071429Y-151000000D01*
X263142858Y-151071429D01*
X264500001Y-152428571D02*
X263785715Y-152428571D01*
X263785715Y-150928571D01*
X265000001Y-151642857D02*
X265500001Y-151642857D01*
X265714287Y-152428571D02*
X265000001Y-152428571D01*
X265000001Y-150928571D01*
X265714287Y-150928571D01*
X266285715Y-152000000D02*
X267000001Y-152000000D01*
X266142858Y-152428571D02*
X266642858Y-150928571D01*
X267142858Y-152428571D01*
X267642858Y-152428571D02*
X267642858Y-150928571D01*
X268500001Y-152428571D01*
X268500001Y-150928571D01*
X269214287Y-152428571D02*
X269214287Y-150928571D01*
X269928573Y-152428571D02*
X269928573Y-150928571D01*
X270785716Y-152428571D01*
X270785716Y-150928571D01*
X272285716Y-151000000D02*
X272142859Y-150928571D01*
X271928573Y-150928571D01*
X271714288Y-151000000D01*
X271571430Y-151142857D01*
X271500002Y-151285714D01*
X271428573Y-151571429D01*
X271428573Y-151785714D01*
X271500002Y-152071429D01*
X271571430Y-152214286D01*
X271714288Y-152357143D01*
X271928573Y-152428571D01*
X272071430Y-152428571D01*
X272285716Y-152357143D01*
X272357145Y-152285714D01*
X272357145Y-151785714D01*
X272071430Y-151785714D01*
D13*
X173952381Y-47166666D02*
X173476190Y-47500000D01*
X173952381Y-47738095D02*
X172952381Y-47738095D01*
X172952381Y-47357142D01*
X173000000Y-47261904D01*
X173047619Y-47214285D01*
X173142857Y-47166666D01*
X173285714Y-47166666D01*
X173380952Y-47214285D01*
X173428571Y-47261904D01*
X173476190Y-47357142D01*
X173476190Y-47738095D01*
X173047619Y-46785714D02*
X173000000Y-46738095D01*
X172952381Y-46642857D01*
X172952381Y-46404761D01*
X173000000Y-46309523D01*
X173047619Y-46261904D01*
X173142857Y-46214285D01*
X173238095Y-46214285D01*
X173380952Y-46261904D01*
X173952381Y-46833333D01*
X173952381Y-46214285D01*
X192828571Y-71133333D02*
X192828571Y-71466667D01*
X193352381Y-71466667D02*
X192352381Y-71466667D01*
X192352381Y-70990476D01*
X193352381Y-70085714D02*
X193352381Y-70657143D01*
X193352381Y-70371429D02*
X192352381Y-70371429D01*
X192495238Y-70466667D01*
X192590476Y-70561905D01*
X192638095Y-70657143D01*
X193833334Y-56857143D02*
X193785715Y-56904762D01*
X193642858Y-56952381D01*
X193547620Y-56952381D01*
X193404762Y-56904762D01*
X193309524Y-56809524D01*
X193261905Y-56714286D01*
X193214286Y-56523810D01*
X193214286Y-56380952D01*
X193261905Y-56190476D01*
X193309524Y-56095238D01*
X193404762Y-56000000D01*
X193547620Y-55952381D01*
X193642858Y-55952381D01*
X193785715Y-56000000D01*
X193833334Y-56047619D01*
X194785715Y-56952381D02*
X194214286Y-56952381D01*
X194500000Y-56952381D02*
X194500000Y-55952381D01*
X194404762Y-56095238D01*
X194309524Y-56190476D01*
X194214286Y-56238095D01*
X191857143Y-55566666D02*
X191904762Y-55614285D01*
X191952381Y-55757142D01*
X191952381Y-55852380D01*
X191904762Y-55995238D01*
X191809524Y-56090476D01*
X191714286Y-56138095D01*
X191523810Y-56185714D01*
X191380952Y-56185714D01*
X191190476Y-56138095D01*
X191095238Y-56090476D01*
X191000000Y-55995238D01*
X190952381Y-55852380D01*
X190952381Y-55757142D01*
X191000000Y-55614285D01*
X191047619Y-55566666D01*
X191047619Y-55185714D02*
X191000000Y-55138095D01*
X190952381Y-55042857D01*
X190952381Y-54804761D01*
X191000000Y-54709523D01*
X191047619Y-54661904D01*
X191142857Y-54614285D01*
X191238095Y-54614285D01*
X191380952Y-54661904D01*
X191952381Y-55233333D01*
X191952381Y-54614285D01*
X188752381Y-56161905D02*
X189561905Y-56161905D01*
X189657143Y-56114286D01*
X189704762Y-56066667D01*
X189752381Y-55971429D01*
X189752381Y-55780952D01*
X189704762Y-55685714D01*
X189657143Y-55638095D01*
X189561905Y-55590476D01*
X188752381Y-55590476D01*
X189752381Y-54590476D02*
X189752381Y-55161905D01*
X189752381Y-54876191D02*
X188752381Y-54876191D01*
X188895238Y-54971429D01*
X188990476Y-55066667D01*
X189038095Y-55161905D01*
X166452381Y-46738095D02*
X165452381Y-46738095D01*
X165452381Y-46357142D01*
X165500000Y-46261904D01*
X165547619Y-46214285D01*
X165642857Y-46166666D01*
X165785714Y-46166666D01*
X165880952Y-46214285D01*
X165928571Y-46261904D01*
X165976190Y-46357142D01*
X165976190Y-46738095D01*
X166452381Y-45214285D02*
X166452381Y-45785714D01*
X166452381Y-45500000D02*
X165452381Y-45500000D01*
X165595238Y-45595238D01*
X165690476Y-45690476D01*
X165738095Y-45785714D01*
X172833334Y-48952381D02*
X172500000Y-48476190D01*
X172261905Y-48952381D02*
X172261905Y-47952381D01*
X172642858Y-47952381D01*
X172738096Y-48000000D01*
X172785715Y-48047619D01*
X172833334Y-48142857D01*
X172833334Y-48285714D01*
X172785715Y-48380952D01*
X172738096Y-48428571D01*
X172642858Y-48476190D01*
X172261905Y-48476190D01*
X173690477Y-48285714D02*
X173690477Y-48952381D01*
X173452381Y-47904762D02*
X173214286Y-48619048D01*
X173833334Y-48619048D01*
X172833334Y-50952381D02*
X172500000Y-50476190D01*
X172261905Y-50952381D02*
X172261905Y-49952381D01*
X172642858Y-49952381D01*
X172738096Y-50000000D01*
X172785715Y-50047619D01*
X172833334Y-50142857D01*
X172833334Y-50285714D01*
X172785715Y-50380952D01*
X172738096Y-50428571D01*
X172642858Y-50476190D01*
X172261905Y-50476190D01*
X173738096Y-49952381D02*
X173261905Y-49952381D01*
X173214286Y-50428571D01*
X173261905Y-50380952D01*
X173357143Y-50333333D01*
X173595239Y-50333333D01*
X173690477Y-50380952D01*
X173738096Y-50428571D01*
X173785715Y-50523810D01*
X173785715Y-50761905D01*
X173738096Y-50857143D01*
X173690477Y-50904762D01*
X173595239Y-50952381D01*
X173357143Y-50952381D01*
X173261905Y-50904762D01*
X173214286Y-50857143D01*
X172833334Y-49952381D02*
X172500000Y-49476190D01*
X172261905Y-49952381D02*
X172261905Y-48952381D01*
X172642858Y-48952381D01*
X172738096Y-49000000D01*
X172785715Y-49047619D01*
X172833334Y-49142857D01*
X172833334Y-49285714D01*
X172785715Y-49380952D01*
X172738096Y-49428571D01*
X172642858Y-49476190D01*
X172261905Y-49476190D01*
X173690477Y-48952381D02*
X173500000Y-48952381D01*
X173404762Y-49000000D01*
X173357143Y-49047619D01*
X173261905Y-49190476D01*
X173214286Y-49380952D01*
X173214286Y-49761905D01*
X173261905Y-49857143D01*
X173309524Y-49904762D01*
X173404762Y-49952381D01*
X173595239Y-49952381D01*
X173690477Y-49904762D01*
X173738096Y-49857143D01*
X173785715Y-49761905D01*
X173785715Y-49523810D01*
X173738096Y-49428571D01*
X173690477Y-49380952D01*
X173595239Y-49333333D01*
X173404762Y-49333333D01*
X173309524Y-49380952D01*
X173261905Y-49428571D01*
X173214286Y-49523810D01*
X184452381Y-46738095D02*
X183452381Y-46738095D01*
X183452381Y-46357142D01*
X183500000Y-46261904D01*
X183547619Y-46214285D01*
X183642857Y-46166666D01*
X183785714Y-46166666D01*
X183880952Y-46214285D01*
X183928571Y-46261904D01*
X183976190Y-46357142D01*
X183976190Y-46738095D01*
X183547619Y-45785714D02*
X183500000Y-45738095D01*
X183452381Y-45642857D01*
X183452381Y-45404761D01*
X183500000Y-45309523D01*
X183547619Y-45261904D01*
X183642857Y-45214285D01*
X183738095Y-45214285D01*
X183880952Y-45261904D01*
X184452381Y-45833333D01*
X184452381Y-45214285D01*
X176833334Y-45952381D02*
X176500000Y-45476190D01*
X176261905Y-45952381D02*
X176261905Y-44952381D01*
X176642858Y-44952381D01*
X176738096Y-45000000D01*
X176785715Y-45047619D01*
X176833334Y-45142857D01*
X176833334Y-45285714D01*
X176785715Y-45380952D01*
X176738096Y-45428571D01*
X176642858Y-45476190D01*
X176261905Y-45476190D01*
X177785715Y-45952381D02*
X177214286Y-45952381D01*
X177500000Y-45952381D02*
X177500000Y-44952381D01*
X177404762Y-45095238D01*
X177309524Y-45190476D01*
X177214286Y-45238095D01*
X176833334Y-46952381D02*
X176500000Y-46476190D01*
X176261905Y-46952381D02*
X176261905Y-45952381D01*
X176642858Y-45952381D01*
X176738096Y-46000000D01*
X176785715Y-46047619D01*
X176833334Y-46142857D01*
X176833334Y-46285714D01*
X176785715Y-46380952D01*
X176738096Y-46428571D01*
X176642858Y-46476190D01*
X176261905Y-46476190D01*
X177166667Y-45952381D02*
X177785715Y-45952381D01*
X177452381Y-46333333D01*
X177595239Y-46333333D01*
X177690477Y-46380952D01*
X177738096Y-46428571D01*
X177785715Y-46523810D01*
X177785715Y-46761905D01*
X177738096Y-46857143D01*
X177690477Y-46904762D01*
X177595239Y-46952381D01*
X177309524Y-46952381D01*
X177214286Y-46904762D01*
X177166667Y-46857143D01*
X176833334Y-47952381D02*
X176500000Y-47476190D01*
X176261905Y-47952381D02*
X176261905Y-46952381D01*
X176642858Y-46952381D01*
X176738096Y-47000000D01*
X176785715Y-47047619D01*
X176833334Y-47142857D01*
X176833334Y-47285714D01*
X176785715Y-47380952D01*
X176738096Y-47428571D01*
X176642858Y-47476190D01*
X176261905Y-47476190D01*
X177166667Y-46952381D02*
X177833334Y-46952381D01*
X177404762Y-47952381D01*
M02*
