G04 #@! TF.FileFunction,Soldermask,Bot*
%FSLAX46Y46*%
G04 Gerber Fmt 4.6, Leading zero omitted, Abs format (unit mm)*
G04 Created by KiCad (PCBNEW 4.0.7-e2-6376~58~ubuntu14.04.1) date Wed Aug  8 15:23:53 2018*
%MOMM*%
%LPD*%
G01*
G04 APERTURE LIST*
%ADD10C,0.100000*%
%ADD11C,0.010000*%
%ADD12C,0.900000*%
%ADD13O,2.000000X3.000000*%
%ADD14C,3.600000*%
G04 APERTURE END LIST*
D10*
D11*
G36*
X171639553Y-56351144D02*
X171646280Y-56386192D01*
X171679173Y-56431767D01*
X171770008Y-56551904D01*
X171914395Y-56740933D01*
X172107944Y-56993186D01*
X172346262Y-57302993D01*
X172624959Y-57664686D01*
X172939644Y-58072594D01*
X173285926Y-58521049D01*
X173659414Y-59004381D01*
X174055717Y-59516922D01*
X174470444Y-60053002D01*
X174899204Y-60606951D01*
X175337606Y-61173101D01*
X175781259Y-61745783D01*
X176225772Y-62319327D01*
X176666754Y-62888064D01*
X177099814Y-63446324D01*
X177520561Y-63988439D01*
X177924604Y-64508740D01*
X178307552Y-65001556D01*
X178665014Y-65461220D01*
X178992599Y-65882061D01*
X179285916Y-66258411D01*
X179540574Y-66584600D01*
X179752182Y-66854959D01*
X179916349Y-67063819D01*
X179922250Y-67071300D01*
X180035270Y-67218473D01*
X180114573Y-67329419D01*
X180147023Y-67385475D01*
X180145748Y-67388799D01*
X180106924Y-67352443D01*
X180007126Y-67248571D01*
X179853577Y-67084978D01*
X179653499Y-66869462D01*
X179414115Y-66609816D01*
X179142648Y-66313837D01*
X178846318Y-65989321D01*
X178686725Y-65813999D01*
X178379861Y-65477657D01*
X178093449Y-65165880D01*
X177834808Y-64886478D01*
X177611258Y-64647260D01*
X177430118Y-64456037D01*
X177298707Y-64320617D01*
X177224346Y-64248811D01*
X177210752Y-64239199D01*
X177167222Y-64276063D01*
X177166800Y-64281975D01*
X177200081Y-64326318D01*
X177295900Y-64438877D01*
X177448225Y-64612896D01*
X177651023Y-64841623D01*
X177898262Y-65118302D01*
X178183909Y-65436178D01*
X178501931Y-65788497D01*
X178846297Y-66168506D01*
X179151787Y-66504475D01*
X179514577Y-66903446D01*
X179856911Y-67281063D01*
X180172648Y-67630473D01*
X180455644Y-67944824D01*
X180699759Y-68217265D01*
X180898848Y-68440943D01*
X181046770Y-68609008D01*
X181137384Y-68714607D01*
X181164663Y-68749890D01*
X181176379Y-68823708D01*
X181169420Y-68838714D01*
X181117545Y-68830928D01*
X180974395Y-68801285D01*
X180747518Y-68751517D01*
X180444461Y-68683360D01*
X180072773Y-68598547D01*
X179640000Y-68498810D01*
X179153692Y-68385885D01*
X178621395Y-68261504D01*
X178050658Y-68127402D01*
X177449028Y-67985312D01*
X177289644Y-67947551D01*
X176678533Y-67802684D01*
X176094447Y-67664242D01*
X175545167Y-67534068D01*
X175038478Y-67414005D01*
X174582160Y-67305897D01*
X174183997Y-67211588D01*
X173851772Y-67132921D01*
X173593266Y-67071740D01*
X173416263Y-67029888D01*
X173328544Y-67009209D01*
X173321814Y-67007641D01*
X173224780Y-67006480D01*
X173177502Y-67040315D01*
X173199633Y-67085394D01*
X173241763Y-67104389D01*
X173304350Y-67120265D01*
X173458072Y-67157734D01*
X173695207Y-67214949D01*
X174008030Y-67290063D01*
X174388819Y-67381229D01*
X174829850Y-67486602D01*
X175323399Y-67604334D01*
X175861742Y-67732579D01*
X176437157Y-67869489D01*
X177041920Y-68013220D01*
X177190266Y-68048452D01*
X177799693Y-68193603D01*
X178380636Y-68332807D01*
X178925482Y-68464189D01*
X179426620Y-68585876D01*
X179876440Y-68695992D01*
X180267330Y-68792664D01*
X180591678Y-68874015D01*
X180841875Y-68938173D01*
X181010308Y-68983262D01*
X181089366Y-69007408D01*
X181094280Y-69009959D01*
X181093808Y-69057938D01*
X181045414Y-69083047D01*
X180943019Y-69113255D01*
X180748629Y-69170372D01*
X180467762Y-69252782D01*
X180105937Y-69358870D01*
X179668672Y-69487019D01*
X179161486Y-69635613D01*
X178589896Y-69803036D01*
X177959422Y-69987672D01*
X177275581Y-70187905D01*
X176543892Y-70402119D01*
X175769873Y-70628697D01*
X174959043Y-70866023D01*
X174116920Y-71112483D01*
X173249022Y-71366458D01*
X172518600Y-71580183D01*
X171829707Y-71782017D01*
X171168234Y-71976341D01*
X170540717Y-72161207D01*
X169953694Y-72334665D01*
X169413700Y-72494766D01*
X168927274Y-72639562D01*
X168500951Y-72767103D01*
X168141269Y-72875440D01*
X167854765Y-72962624D01*
X167647974Y-73026706D01*
X167527435Y-73065737D01*
X167497674Y-73077278D01*
X167485447Y-73131281D01*
X167497674Y-73142643D01*
X167550697Y-73131641D01*
X167695476Y-73093587D01*
X167926301Y-73030122D01*
X168237464Y-72942886D01*
X168623255Y-72833520D01*
X169077967Y-72703664D01*
X169595891Y-72554959D01*
X170171316Y-72389046D01*
X170798536Y-72207565D01*
X171471839Y-72012156D01*
X172185519Y-71804461D01*
X172933866Y-71586120D01*
X173711171Y-71358773D01*
X174017200Y-71269115D01*
X174810603Y-71036584D01*
X175581278Y-70810751D01*
X176323154Y-70593392D01*
X177030159Y-70386286D01*
X177696220Y-70191210D01*
X178315265Y-70009942D01*
X178881221Y-69844259D01*
X179388018Y-69695939D01*
X179829581Y-69566759D01*
X180199839Y-69458497D01*
X180492720Y-69372931D01*
X180702151Y-69311838D01*
X180822060Y-69276996D01*
X180840243Y-69271763D01*
X181025954Y-69222753D01*
X181131023Y-69206838D01*
X181170365Y-69222597D01*
X181170443Y-69240327D01*
X181133790Y-69289365D01*
X181034227Y-69405637D01*
X180878148Y-69582082D01*
X180671942Y-69811637D01*
X180422003Y-70087240D01*
X180134721Y-70401829D01*
X179816490Y-70748342D01*
X179473699Y-71119717D01*
X179287700Y-71320491D01*
X178935268Y-71701353D01*
X178604555Y-72060499D01*
X178301882Y-72390945D01*
X178033570Y-72685707D01*
X177805938Y-72937801D01*
X177625306Y-73140242D01*
X177497995Y-73286046D01*
X177430324Y-73368229D01*
X177420800Y-73383589D01*
X177451279Y-73432670D01*
X177460276Y-73434000D01*
X177501578Y-73397828D01*
X177604942Y-73294079D01*
X177763591Y-73129904D01*
X177970753Y-72912451D01*
X178219650Y-72648872D01*
X178503509Y-72346316D01*
X178815555Y-72011933D01*
X179149011Y-71652874D01*
X179193169Y-71605200D01*
X179528296Y-71243694D01*
X179842172Y-70905912D01*
X180128113Y-70598989D01*
X180379434Y-70330063D01*
X180589452Y-70106271D01*
X180751481Y-69934749D01*
X180858838Y-69822634D01*
X180904839Y-69777064D01*
X180905979Y-69776400D01*
X180907701Y-69779307D01*
X180903549Y-69790620D01*
X180890979Y-69814228D01*
X180867444Y-69854019D01*
X180830397Y-69913881D01*
X180777294Y-69997703D01*
X180705588Y-70109372D01*
X180612734Y-70252777D01*
X180496185Y-70431807D01*
X180353395Y-70650349D01*
X180181819Y-70912292D01*
X179978911Y-71221523D01*
X179742124Y-71581932D01*
X179468913Y-71997407D01*
X179156732Y-72471836D01*
X178803035Y-73009106D01*
X178405275Y-73613108D01*
X177960908Y-74287727D01*
X177467387Y-75036854D01*
X176922167Y-75864376D01*
X176535747Y-76450845D01*
X176088519Y-77129814D01*
X175656647Y-77785895D01*
X175243445Y-78414033D01*
X174852226Y-79009175D01*
X174486302Y-79566267D01*
X174148987Y-80080254D01*
X173843593Y-80546082D01*
X173573434Y-80958698D01*
X173341822Y-81313048D01*
X173152070Y-81604076D01*
X173007491Y-81826731D01*
X172911398Y-81975956D01*
X172867104Y-82046699D01*
X172864506Y-82051545D01*
X172871204Y-82112404D01*
X172895258Y-82120800D01*
X172937978Y-82080038D01*
X173027431Y-81965520D01*
X173155317Y-81788893D01*
X173313339Y-81561804D01*
X173493196Y-81295904D01*
X173628181Y-81092100D01*
X174006954Y-80515520D01*
X174406282Y-79907953D01*
X174822663Y-79274711D01*
X175252594Y-78621105D01*
X175692574Y-77952447D01*
X176139100Y-77274050D01*
X176588670Y-76591226D01*
X177037782Y-75909286D01*
X177482934Y-75233542D01*
X177920623Y-74569306D01*
X178347347Y-73921891D01*
X178759605Y-73296609D01*
X179153894Y-72698770D01*
X179526712Y-72133689D01*
X179874556Y-71606675D01*
X180193925Y-71123042D01*
X180481316Y-70688101D01*
X180733228Y-70307164D01*
X180946157Y-69985544D01*
X181116603Y-69728552D01*
X181241062Y-69541500D01*
X181316033Y-69429700D01*
X181338090Y-69397940D01*
X181407088Y-69381040D01*
X181433649Y-69400128D01*
X181445190Y-69457157D01*
X181464150Y-69608166D01*
X181489855Y-69845859D01*
X181521632Y-70162939D01*
X181558807Y-70552110D01*
X181600706Y-71006076D01*
X181646653Y-71517539D01*
X181695977Y-72079203D01*
X181748002Y-72683771D01*
X181802054Y-73323947D01*
X181854321Y-73954226D01*
X181909495Y-74620921D01*
X181962988Y-75258627D01*
X182014148Y-75860078D01*
X182062326Y-76418007D01*
X182106868Y-76925149D01*
X182147126Y-77374237D01*
X182182447Y-77758006D01*
X182212181Y-78069188D01*
X182235676Y-78300517D01*
X182252282Y-78444728D01*
X182261072Y-78494404D01*
X182315961Y-78510393D01*
X182323264Y-78505269D01*
X182323079Y-78451935D01*
X182315019Y-78304731D01*
X182299639Y-78071035D01*
X182277498Y-77758226D01*
X182249152Y-77373683D01*
X182215159Y-76924785D01*
X182176075Y-76418911D01*
X182132458Y-75863439D01*
X182084866Y-75265750D01*
X182033854Y-74633220D01*
X181993712Y-74140703D01*
X181927985Y-73338470D01*
X181870016Y-72631513D01*
X181819398Y-72013836D01*
X181775727Y-71479443D01*
X181738597Y-71022339D01*
X181707602Y-70636526D01*
X181682337Y-70316011D01*
X181662398Y-70054796D01*
X181647377Y-69846886D01*
X181636870Y-69686286D01*
X181630472Y-69566999D01*
X181627777Y-69483029D01*
X181628380Y-69428381D01*
X181631874Y-69397059D01*
X181637856Y-69383067D01*
X181645919Y-69380409D01*
X181655657Y-69383090D01*
X181666667Y-69385113D01*
X181672088Y-69384158D01*
X181715580Y-69417761D01*
X181818595Y-69521838D01*
X181974891Y-69689420D01*
X182178228Y-69913534D01*
X182422368Y-70187209D01*
X182701068Y-70503474D01*
X183008091Y-70855357D01*
X183337195Y-71235887D01*
X183520873Y-71449637D01*
X183859022Y-71843116D01*
X184177868Y-72212371D01*
X184471223Y-72550357D01*
X184732900Y-72850030D01*
X184956712Y-73104345D01*
X185136473Y-73306258D01*
X185265995Y-73448724D01*
X185339091Y-73524699D01*
X185352886Y-73535600D01*
X185395534Y-73497117D01*
X185396400Y-73487592D01*
X185364210Y-73441034D01*
X185271688Y-73324816D01*
X185124909Y-73146172D01*
X184929947Y-72912338D01*
X184692879Y-72630547D01*
X184419777Y-72308034D01*
X184116717Y-71952034D01*
X183789773Y-71569781D01*
X183618400Y-71370091D01*
X183281815Y-70977573D01*
X182966052Y-70607883D01*
X182677181Y-70268229D01*
X182421275Y-69965819D01*
X182204403Y-69707861D01*
X182032637Y-69501563D01*
X181912048Y-69354133D01*
X181848707Y-69272779D01*
X181840400Y-69259098D01*
X181880345Y-69219969D01*
X181900226Y-69217600D01*
X181942990Y-69226861D01*
X182045103Y-69255416D01*
X182210270Y-69304417D01*
X182442193Y-69375019D01*
X182744575Y-69468374D01*
X183121119Y-69585636D01*
X183575528Y-69727959D01*
X184111505Y-69896496D01*
X184732753Y-70092402D01*
X185442975Y-70316829D01*
X186245874Y-70570931D01*
X186336200Y-70599537D01*
X186759869Y-70733366D01*
X187096915Y-70838805D01*
X187357402Y-70918669D01*
X187551396Y-70975773D01*
X187688964Y-71012932D01*
X187780171Y-71032960D01*
X187835082Y-71038672D01*
X187863763Y-71032884D01*
X187869748Y-71028386D01*
X187883711Y-70977710D01*
X187880468Y-70973533D01*
X187829312Y-70954621D01*
X187689882Y-70908008D01*
X187470824Y-70836468D01*
X187180784Y-70742779D01*
X186828408Y-70629715D01*
X186422343Y-70500053D01*
X185971235Y-70356569D01*
X185483731Y-70202038D01*
X185071775Y-70071833D01*
X184565473Y-69911253D01*
X184092075Y-69759630D01*
X183659753Y-69619682D01*
X183276678Y-69494127D01*
X182951024Y-69385682D01*
X182690961Y-69297065D01*
X182504664Y-69230993D01*
X182400302Y-69190183D01*
X182381968Y-69177409D01*
X182446537Y-69179749D01*
X182604508Y-69190987D01*
X182848136Y-69210444D01*
X183169675Y-69237440D01*
X183561381Y-69271295D01*
X184015507Y-69311330D01*
X184524308Y-69356865D01*
X185080040Y-69407221D01*
X185674955Y-69461718D01*
X186301310Y-69519678D01*
X186591894Y-69546757D01*
X187254208Y-69608599D01*
X187906348Y-69669463D01*
X188538444Y-69728429D01*
X189140627Y-69784579D01*
X189703028Y-69836992D01*
X190215778Y-69884750D01*
X190669009Y-69926933D01*
X191052849Y-69962621D01*
X191357431Y-69990895D01*
X191572886Y-70010836D01*
X191607214Y-70014001D01*
X191966336Y-70045073D01*
X192233189Y-70063048D01*
X192416271Y-70067835D01*
X192524079Y-70059342D01*
X192565108Y-70037478D01*
X192549577Y-70003842D01*
X192495898Y-69994921D01*
X192349062Y-69977543D01*
X192117088Y-69952506D01*
X191807998Y-69920606D01*
X191429811Y-69882641D01*
X190990548Y-69839410D01*
X190498229Y-69791708D01*
X189960874Y-69740334D01*
X189386503Y-69686085D01*
X188845410Y-69635542D01*
X188248658Y-69579763D01*
X187684735Y-69526416D01*
X187161290Y-69476266D01*
X186685968Y-69430075D01*
X186266418Y-69388606D01*
X185910286Y-69352623D01*
X185625220Y-69322888D01*
X185418868Y-69300164D01*
X185298877Y-69285215D01*
X185271619Y-69278940D01*
X185340293Y-69278840D01*
X185501034Y-69283839D01*
X185744461Y-69293501D01*
X186061191Y-69307394D01*
X186441842Y-69325084D01*
X186877033Y-69346137D01*
X187357381Y-69370119D01*
X187873504Y-69396596D01*
X188294219Y-69418667D01*
X188947888Y-69453267D01*
X189507418Y-69482746D01*
X189980129Y-69507349D01*
X190373340Y-69527323D01*
X190694370Y-69542912D01*
X190950538Y-69554363D01*
X191149165Y-69561920D01*
X191297569Y-69565830D01*
X191403070Y-69566338D01*
X191472987Y-69563690D01*
X191514639Y-69558131D01*
X191535346Y-69549908D01*
X191542428Y-69539264D01*
X191543200Y-69527687D01*
X191538012Y-69515615D01*
X191518479Y-69504224D01*
X191478653Y-69493131D01*
X191412585Y-69481952D01*
X191314326Y-69470305D01*
X191177927Y-69457808D01*
X190997438Y-69444078D01*
X190766911Y-69428732D01*
X190480396Y-69411387D01*
X190131944Y-69391662D01*
X189715607Y-69369173D01*
X189225434Y-69343537D01*
X188655478Y-69314373D01*
X187999788Y-69281297D01*
X187252416Y-69243926D01*
X186717200Y-69217279D01*
X185909229Y-69177045D01*
X185196741Y-69141388D01*
X184573745Y-69109909D01*
X184034246Y-69082206D01*
X183572252Y-69057880D01*
X183181768Y-69036530D01*
X182856802Y-69017755D01*
X182591359Y-69001155D01*
X182379447Y-68986329D01*
X182215072Y-68972877D01*
X182092240Y-68960399D01*
X182004959Y-68948494D01*
X181947234Y-68936761D01*
X181913073Y-68924800D01*
X181896481Y-68912210D01*
X181891466Y-68898592D01*
X181891318Y-68894812D01*
X181932846Y-68857959D01*
X182052755Y-68770620D01*
X182244095Y-68637460D01*
X182499918Y-68463139D01*
X182813274Y-68252322D01*
X183177214Y-68009670D01*
X183584787Y-67739845D01*
X184029046Y-67447512D01*
X184503039Y-67137331D01*
X184774218Y-66960602D01*
X185261873Y-66643215D01*
X185724222Y-66342220D01*
X186154265Y-66062178D01*
X186545004Y-65807650D01*
X186889438Y-65583200D01*
X187180568Y-65393387D01*
X187411396Y-65242775D01*
X187574920Y-65135925D01*
X187664142Y-65077399D01*
X187679014Y-65067455D01*
X187670185Y-65024002D01*
X187653614Y-65005322D01*
X187602782Y-65024038D01*
X187472408Y-65095876D01*
X187267536Y-65217676D01*
X186993209Y-65386275D01*
X186654470Y-65598513D01*
X186256364Y-65851229D01*
X185803935Y-66141263D01*
X185302225Y-66465452D01*
X184756278Y-66820636D01*
X184736000Y-66833871D01*
X184249004Y-67151285D01*
X183786543Y-67451787D01*
X183355701Y-67730832D01*
X182963564Y-67983875D01*
X182617219Y-68206371D01*
X182323750Y-68393773D01*
X182090244Y-68541536D01*
X181923785Y-68645115D01*
X181831459Y-68699965D01*
X181815000Y-68707724D01*
X181781733Y-68706328D01*
X181753930Y-68697545D01*
X181732410Y-68675151D01*
X181717994Y-68632924D01*
X181711499Y-68564644D01*
X181713744Y-68464088D01*
X181725550Y-68325034D01*
X181747734Y-68141260D01*
X181781115Y-67906545D01*
X181826514Y-67614666D01*
X181884748Y-67259403D01*
X181956637Y-66834532D01*
X182042999Y-66333833D01*
X182144654Y-65751083D01*
X182262421Y-65080060D01*
X182381929Y-64400835D01*
X182494405Y-63759289D01*
X182600948Y-63146583D01*
X182700328Y-62570077D01*
X182791317Y-62037130D01*
X182872687Y-61555103D01*
X182943211Y-61131354D01*
X183001661Y-60773245D01*
X183046807Y-60488133D01*
X183077422Y-60283380D01*
X183092279Y-60166345D01*
X183092792Y-60140658D01*
X183038165Y-60129987D01*
X183032794Y-60134272D01*
X183020113Y-60187249D01*
X182991290Y-60332922D01*
X182947663Y-60563903D01*
X182890572Y-60872804D01*
X182821352Y-61252235D01*
X182741343Y-61694809D01*
X182651881Y-62193136D01*
X182554305Y-62739828D01*
X182449952Y-63327497D01*
X182340161Y-63948753D01*
X182270142Y-64346439D01*
X182157533Y-64986023D01*
X182049557Y-65597517D01*
X181947555Y-66173426D01*
X181852870Y-66706256D01*
X181766843Y-67188513D01*
X181690815Y-67612703D01*
X181626129Y-67971332D01*
X181574127Y-68256907D01*
X181536150Y-68461932D01*
X181513540Y-68578915D01*
X181507883Y-68603794D01*
X181465293Y-68643852D01*
X181441049Y-68629194D01*
X181416003Y-68574567D01*
X181357952Y-68433451D01*
X181270191Y-68214249D01*
X181156015Y-67925366D01*
X181018720Y-67575207D01*
X180861602Y-67172175D01*
X180687957Y-66724674D01*
X180501080Y-66241109D01*
X180312414Y-65751086D01*
X180065394Y-65111328D01*
X179845391Y-64547719D01*
X179653526Y-64063007D01*
X179490923Y-63659937D01*
X179358702Y-63341256D01*
X179257987Y-63109709D01*
X179189899Y-62968043D01*
X179155559Y-62919003D01*
X179155265Y-62918986D01*
X179107489Y-62953202D01*
X179111252Y-62981900D01*
X179255471Y-63350622D01*
X179414724Y-63759986D01*
X179585405Y-64200548D01*
X179763910Y-64662864D01*
X179946632Y-65137490D01*
X180129967Y-65614983D01*
X180310309Y-66085899D01*
X180484054Y-66540795D01*
X180647595Y-66970227D01*
X180797329Y-67364752D01*
X180929649Y-67714926D01*
X181040950Y-68011305D01*
X181127628Y-68244446D01*
X181186076Y-68404905D01*
X181212690Y-68483239D01*
X181213853Y-68489480D01*
X181181113Y-68452236D01*
X181089507Y-68339048D01*
X180942434Y-68154260D01*
X180743290Y-67902213D01*
X180495474Y-67587251D01*
X180456745Y-67537892D01*
X180253145Y-67537892D01*
X180246197Y-67541200D01*
X180199837Y-67505437D01*
X180189400Y-67490400D01*
X180176456Y-67442907D01*
X180183404Y-67439600D01*
X180229764Y-67475362D01*
X180240200Y-67490400D01*
X180253145Y-67537892D01*
X180456745Y-67537892D01*
X180202381Y-67213717D01*
X179867410Y-66785955D01*
X179493957Y-66308306D01*
X179085420Y-65785114D01*
X178645195Y-65220722D01*
X178176682Y-64619473D01*
X177683275Y-63985710D01*
X177168374Y-63323775D01*
X176635374Y-62638013D01*
X176459324Y-62411383D01*
X175920700Y-61718359D01*
X175398673Y-61047546D01*
X174896671Y-60403307D01*
X174418120Y-59790004D01*
X173966445Y-59212002D01*
X173545075Y-58673663D01*
X173157435Y-58179350D01*
X172806951Y-57733427D01*
X172497051Y-57340256D01*
X172231160Y-57004202D01*
X172012706Y-56729626D01*
X171845114Y-56520893D01*
X171731812Y-56382365D01*
X171676225Y-56318405D01*
X171671206Y-56314399D01*
X171639553Y-56351144D01*
X171639553Y-56351144D01*
G37*
X171639553Y-56351144D02*
X171646280Y-56386192D01*
X171679173Y-56431767D01*
X171770008Y-56551904D01*
X171914395Y-56740933D01*
X172107944Y-56993186D01*
X172346262Y-57302993D01*
X172624959Y-57664686D01*
X172939644Y-58072594D01*
X173285926Y-58521049D01*
X173659414Y-59004381D01*
X174055717Y-59516922D01*
X174470444Y-60053002D01*
X174899204Y-60606951D01*
X175337606Y-61173101D01*
X175781259Y-61745783D01*
X176225772Y-62319327D01*
X176666754Y-62888064D01*
X177099814Y-63446324D01*
X177520561Y-63988439D01*
X177924604Y-64508740D01*
X178307552Y-65001556D01*
X178665014Y-65461220D01*
X178992599Y-65882061D01*
X179285916Y-66258411D01*
X179540574Y-66584600D01*
X179752182Y-66854959D01*
X179916349Y-67063819D01*
X179922250Y-67071300D01*
X180035270Y-67218473D01*
X180114573Y-67329419D01*
X180147023Y-67385475D01*
X180145748Y-67388799D01*
X180106924Y-67352443D01*
X180007126Y-67248571D01*
X179853577Y-67084978D01*
X179653499Y-66869462D01*
X179414115Y-66609816D01*
X179142648Y-66313837D01*
X178846318Y-65989321D01*
X178686725Y-65813999D01*
X178379861Y-65477657D01*
X178093449Y-65165880D01*
X177834808Y-64886478D01*
X177611258Y-64647260D01*
X177430118Y-64456037D01*
X177298707Y-64320617D01*
X177224346Y-64248811D01*
X177210752Y-64239199D01*
X177167222Y-64276063D01*
X177166800Y-64281975D01*
X177200081Y-64326318D01*
X177295900Y-64438877D01*
X177448225Y-64612896D01*
X177651023Y-64841623D01*
X177898262Y-65118302D01*
X178183909Y-65436178D01*
X178501931Y-65788497D01*
X178846297Y-66168506D01*
X179151787Y-66504475D01*
X179514577Y-66903446D01*
X179856911Y-67281063D01*
X180172648Y-67630473D01*
X180455644Y-67944824D01*
X180699759Y-68217265D01*
X180898848Y-68440943D01*
X181046770Y-68609008D01*
X181137384Y-68714607D01*
X181164663Y-68749890D01*
X181176379Y-68823708D01*
X181169420Y-68838714D01*
X181117545Y-68830928D01*
X180974395Y-68801285D01*
X180747518Y-68751517D01*
X180444461Y-68683360D01*
X180072773Y-68598547D01*
X179640000Y-68498810D01*
X179153692Y-68385885D01*
X178621395Y-68261504D01*
X178050658Y-68127402D01*
X177449028Y-67985312D01*
X177289644Y-67947551D01*
X176678533Y-67802684D01*
X176094447Y-67664242D01*
X175545167Y-67534068D01*
X175038478Y-67414005D01*
X174582160Y-67305897D01*
X174183997Y-67211588D01*
X173851772Y-67132921D01*
X173593266Y-67071740D01*
X173416263Y-67029888D01*
X173328544Y-67009209D01*
X173321814Y-67007641D01*
X173224780Y-67006480D01*
X173177502Y-67040315D01*
X173199633Y-67085394D01*
X173241763Y-67104389D01*
X173304350Y-67120265D01*
X173458072Y-67157734D01*
X173695207Y-67214949D01*
X174008030Y-67290063D01*
X174388819Y-67381229D01*
X174829850Y-67486602D01*
X175323399Y-67604334D01*
X175861742Y-67732579D01*
X176437157Y-67869489D01*
X177041920Y-68013220D01*
X177190266Y-68048452D01*
X177799693Y-68193603D01*
X178380636Y-68332807D01*
X178925482Y-68464189D01*
X179426620Y-68585876D01*
X179876440Y-68695992D01*
X180267330Y-68792664D01*
X180591678Y-68874015D01*
X180841875Y-68938173D01*
X181010308Y-68983262D01*
X181089366Y-69007408D01*
X181094280Y-69009959D01*
X181093808Y-69057938D01*
X181045414Y-69083047D01*
X180943019Y-69113255D01*
X180748629Y-69170372D01*
X180467762Y-69252782D01*
X180105937Y-69358870D01*
X179668672Y-69487019D01*
X179161486Y-69635613D01*
X178589896Y-69803036D01*
X177959422Y-69987672D01*
X177275581Y-70187905D01*
X176543892Y-70402119D01*
X175769873Y-70628697D01*
X174959043Y-70866023D01*
X174116920Y-71112483D01*
X173249022Y-71366458D01*
X172518600Y-71580183D01*
X171829707Y-71782017D01*
X171168234Y-71976341D01*
X170540717Y-72161207D01*
X169953694Y-72334665D01*
X169413700Y-72494766D01*
X168927274Y-72639562D01*
X168500951Y-72767103D01*
X168141269Y-72875440D01*
X167854765Y-72962624D01*
X167647974Y-73026706D01*
X167527435Y-73065737D01*
X167497674Y-73077278D01*
X167485447Y-73131281D01*
X167497674Y-73142643D01*
X167550697Y-73131641D01*
X167695476Y-73093587D01*
X167926301Y-73030122D01*
X168237464Y-72942886D01*
X168623255Y-72833520D01*
X169077967Y-72703664D01*
X169595891Y-72554959D01*
X170171316Y-72389046D01*
X170798536Y-72207565D01*
X171471839Y-72012156D01*
X172185519Y-71804461D01*
X172933866Y-71586120D01*
X173711171Y-71358773D01*
X174017200Y-71269115D01*
X174810603Y-71036584D01*
X175581278Y-70810751D01*
X176323154Y-70593392D01*
X177030159Y-70386286D01*
X177696220Y-70191210D01*
X178315265Y-70009942D01*
X178881221Y-69844259D01*
X179388018Y-69695939D01*
X179829581Y-69566759D01*
X180199839Y-69458497D01*
X180492720Y-69372931D01*
X180702151Y-69311838D01*
X180822060Y-69276996D01*
X180840243Y-69271763D01*
X181025954Y-69222753D01*
X181131023Y-69206838D01*
X181170365Y-69222597D01*
X181170443Y-69240327D01*
X181133790Y-69289365D01*
X181034227Y-69405637D01*
X180878148Y-69582082D01*
X180671942Y-69811637D01*
X180422003Y-70087240D01*
X180134721Y-70401829D01*
X179816490Y-70748342D01*
X179473699Y-71119717D01*
X179287700Y-71320491D01*
X178935268Y-71701353D01*
X178604555Y-72060499D01*
X178301882Y-72390945D01*
X178033570Y-72685707D01*
X177805938Y-72937801D01*
X177625306Y-73140242D01*
X177497995Y-73286046D01*
X177430324Y-73368229D01*
X177420800Y-73383589D01*
X177451279Y-73432670D01*
X177460276Y-73434000D01*
X177501578Y-73397828D01*
X177604942Y-73294079D01*
X177763591Y-73129904D01*
X177970753Y-72912451D01*
X178219650Y-72648872D01*
X178503509Y-72346316D01*
X178815555Y-72011933D01*
X179149011Y-71652874D01*
X179193169Y-71605200D01*
X179528296Y-71243694D01*
X179842172Y-70905912D01*
X180128113Y-70598989D01*
X180379434Y-70330063D01*
X180589452Y-70106271D01*
X180751481Y-69934749D01*
X180858838Y-69822634D01*
X180904839Y-69777064D01*
X180905979Y-69776400D01*
X180907701Y-69779307D01*
X180903549Y-69790620D01*
X180890979Y-69814228D01*
X180867444Y-69854019D01*
X180830397Y-69913881D01*
X180777294Y-69997703D01*
X180705588Y-70109372D01*
X180612734Y-70252777D01*
X180496185Y-70431807D01*
X180353395Y-70650349D01*
X180181819Y-70912292D01*
X179978911Y-71221523D01*
X179742124Y-71581932D01*
X179468913Y-71997407D01*
X179156732Y-72471836D01*
X178803035Y-73009106D01*
X178405275Y-73613108D01*
X177960908Y-74287727D01*
X177467387Y-75036854D01*
X176922167Y-75864376D01*
X176535747Y-76450845D01*
X176088519Y-77129814D01*
X175656647Y-77785895D01*
X175243445Y-78414033D01*
X174852226Y-79009175D01*
X174486302Y-79566267D01*
X174148987Y-80080254D01*
X173843593Y-80546082D01*
X173573434Y-80958698D01*
X173341822Y-81313048D01*
X173152070Y-81604076D01*
X173007491Y-81826731D01*
X172911398Y-81975956D01*
X172867104Y-82046699D01*
X172864506Y-82051545D01*
X172871204Y-82112404D01*
X172895258Y-82120800D01*
X172937978Y-82080038D01*
X173027431Y-81965520D01*
X173155317Y-81788893D01*
X173313339Y-81561804D01*
X173493196Y-81295904D01*
X173628181Y-81092100D01*
X174006954Y-80515520D01*
X174406282Y-79907953D01*
X174822663Y-79274711D01*
X175252594Y-78621105D01*
X175692574Y-77952447D01*
X176139100Y-77274050D01*
X176588670Y-76591226D01*
X177037782Y-75909286D01*
X177482934Y-75233542D01*
X177920623Y-74569306D01*
X178347347Y-73921891D01*
X178759605Y-73296609D01*
X179153894Y-72698770D01*
X179526712Y-72133689D01*
X179874556Y-71606675D01*
X180193925Y-71123042D01*
X180481316Y-70688101D01*
X180733228Y-70307164D01*
X180946157Y-69985544D01*
X181116603Y-69728552D01*
X181241062Y-69541500D01*
X181316033Y-69429700D01*
X181338090Y-69397940D01*
X181407088Y-69381040D01*
X181433649Y-69400128D01*
X181445190Y-69457157D01*
X181464150Y-69608166D01*
X181489855Y-69845859D01*
X181521632Y-70162939D01*
X181558807Y-70552110D01*
X181600706Y-71006076D01*
X181646653Y-71517539D01*
X181695977Y-72079203D01*
X181748002Y-72683771D01*
X181802054Y-73323947D01*
X181854321Y-73954226D01*
X181909495Y-74620921D01*
X181962988Y-75258627D01*
X182014148Y-75860078D01*
X182062326Y-76418007D01*
X182106868Y-76925149D01*
X182147126Y-77374237D01*
X182182447Y-77758006D01*
X182212181Y-78069188D01*
X182235676Y-78300517D01*
X182252282Y-78444728D01*
X182261072Y-78494404D01*
X182315961Y-78510393D01*
X182323264Y-78505269D01*
X182323079Y-78451935D01*
X182315019Y-78304731D01*
X182299639Y-78071035D01*
X182277498Y-77758226D01*
X182249152Y-77373683D01*
X182215159Y-76924785D01*
X182176075Y-76418911D01*
X182132458Y-75863439D01*
X182084866Y-75265750D01*
X182033854Y-74633220D01*
X181993712Y-74140703D01*
X181927985Y-73338470D01*
X181870016Y-72631513D01*
X181819398Y-72013836D01*
X181775727Y-71479443D01*
X181738597Y-71022339D01*
X181707602Y-70636526D01*
X181682337Y-70316011D01*
X181662398Y-70054796D01*
X181647377Y-69846886D01*
X181636870Y-69686286D01*
X181630472Y-69566999D01*
X181627777Y-69483029D01*
X181628380Y-69428381D01*
X181631874Y-69397059D01*
X181637856Y-69383067D01*
X181645919Y-69380409D01*
X181655657Y-69383090D01*
X181666667Y-69385113D01*
X181672088Y-69384158D01*
X181715580Y-69417761D01*
X181818595Y-69521838D01*
X181974891Y-69689420D01*
X182178228Y-69913534D01*
X182422368Y-70187209D01*
X182701068Y-70503474D01*
X183008091Y-70855357D01*
X183337195Y-71235887D01*
X183520873Y-71449637D01*
X183859022Y-71843116D01*
X184177868Y-72212371D01*
X184471223Y-72550357D01*
X184732900Y-72850030D01*
X184956712Y-73104345D01*
X185136473Y-73306258D01*
X185265995Y-73448724D01*
X185339091Y-73524699D01*
X185352886Y-73535600D01*
X185395534Y-73497117D01*
X185396400Y-73487592D01*
X185364210Y-73441034D01*
X185271688Y-73324816D01*
X185124909Y-73146172D01*
X184929947Y-72912338D01*
X184692879Y-72630547D01*
X184419777Y-72308034D01*
X184116717Y-71952034D01*
X183789773Y-71569781D01*
X183618400Y-71370091D01*
X183281815Y-70977573D01*
X182966052Y-70607883D01*
X182677181Y-70268229D01*
X182421275Y-69965819D01*
X182204403Y-69707861D01*
X182032637Y-69501563D01*
X181912048Y-69354133D01*
X181848707Y-69272779D01*
X181840400Y-69259098D01*
X181880345Y-69219969D01*
X181900226Y-69217600D01*
X181942990Y-69226861D01*
X182045103Y-69255416D01*
X182210270Y-69304417D01*
X182442193Y-69375019D01*
X182744575Y-69468374D01*
X183121119Y-69585636D01*
X183575528Y-69727959D01*
X184111505Y-69896496D01*
X184732753Y-70092402D01*
X185442975Y-70316829D01*
X186245874Y-70570931D01*
X186336200Y-70599537D01*
X186759869Y-70733366D01*
X187096915Y-70838805D01*
X187357402Y-70918669D01*
X187551396Y-70975773D01*
X187688964Y-71012932D01*
X187780171Y-71032960D01*
X187835082Y-71038672D01*
X187863763Y-71032884D01*
X187869748Y-71028386D01*
X187883711Y-70977710D01*
X187880468Y-70973533D01*
X187829312Y-70954621D01*
X187689882Y-70908008D01*
X187470824Y-70836468D01*
X187180784Y-70742779D01*
X186828408Y-70629715D01*
X186422343Y-70500053D01*
X185971235Y-70356569D01*
X185483731Y-70202038D01*
X185071775Y-70071833D01*
X184565473Y-69911253D01*
X184092075Y-69759630D01*
X183659753Y-69619682D01*
X183276678Y-69494127D01*
X182951024Y-69385682D01*
X182690961Y-69297065D01*
X182504664Y-69230993D01*
X182400302Y-69190183D01*
X182381968Y-69177409D01*
X182446537Y-69179749D01*
X182604508Y-69190987D01*
X182848136Y-69210444D01*
X183169675Y-69237440D01*
X183561381Y-69271295D01*
X184015507Y-69311330D01*
X184524308Y-69356865D01*
X185080040Y-69407221D01*
X185674955Y-69461718D01*
X186301310Y-69519678D01*
X186591894Y-69546757D01*
X187254208Y-69608599D01*
X187906348Y-69669463D01*
X188538444Y-69728429D01*
X189140627Y-69784579D01*
X189703028Y-69836992D01*
X190215778Y-69884750D01*
X190669009Y-69926933D01*
X191052849Y-69962621D01*
X191357431Y-69990895D01*
X191572886Y-70010836D01*
X191607214Y-70014001D01*
X191966336Y-70045073D01*
X192233189Y-70063048D01*
X192416271Y-70067835D01*
X192524079Y-70059342D01*
X192565108Y-70037478D01*
X192549577Y-70003842D01*
X192495898Y-69994921D01*
X192349062Y-69977543D01*
X192117088Y-69952506D01*
X191807998Y-69920606D01*
X191429811Y-69882641D01*
X190990548Y-69839410D01*
X190498229Y-69791708D01*
X189960874Y-69740334D01*
X189386503Y-69686085D01*
X188845410Y-69635542D01*
X188248658Y-69579763D01*
X187684735Y-69526416D01*
X187161290Y-69476266D01*
X186685968Y-69430075D01*
X186266418Y-69388606D01*
X185910286Y-69352623D01*
X185625220Y-69322888D01*
X185418868Y-69300164D01*
X185298877Y-69285215D01*
X185271619Y-69278940D01*
X185340293Y-69278840D01*
X185501034Y-69283839D01*
X185744461Y-69293501D01*
X186061191Y-69307394D01*
X186441842Y-69325084D01*
X186877033Y-69346137D01*
X187357381Y-69370119D01*
X187873504Y-69396596D01*
X188294219Y-69418667D01*
X188947888Y-69453267D01*
X189507418Y-69482746D01*
X189980129Y-69507349D01*
X190373340Y-69527323D01*
X190694370Y-69542912D01*
X190950538Y-69554363D01*
X191149165Y-69561920D01*
X191297569Y-69565830D01*
X191403070Y-69566338D01*
X191472987Y-69563690D01*
X191514639Y-69558131D01*
X191535346Y-69549908D01*
X191542428Y-69539264D01*
X191543200Y-69527687D01*
X191538012Y-69515615D01*
X191518479Y-69504224D01*
X191478653Y-69493131D01*
X191412585Y-69481952D01*
X191314326Y-69470305D01*
X191177927Y-69457808D01*
X190997438Y-69444078D01*
X190766911Y-69428732D01*
X190480396Y-69411387D01*
X190131944Y-69391662D01*
X189715607Y-69369173D01*
X189225434Y-69343537D01*
X188655478Y-69314373D01*
X187999788Y-69281297D01*
X187252416Y-69243926D01*
X186717200Y-69217279D01*
X185909229Y-69177045D01*
X185196741Y-69141388D01*
X184573745Y-69109909D01*
X184034246Y-69082206D01*
X183572252Y-69057880D01*
X183181768Y-69036530D01*
X182856802Y-69017755D01*
X182591359Y-69001155D01*
X182379447Y-68986329D01*
X182215072Y-68972877D01*
X182092240Y-68960399D01*
X182004959Y-68948494D01*
X181947234Y-68936761D01*
X181913073Y-68924800D01*
X181896481Y-68912210D01*
X181891466Y-68898592D01*
X181891318Y-68894812D01*
X181932846Y-68857959D01*
X182052755Y-68770620D01*
X182244095Y-68637460D01*
X182499918Y-68463139D01*
X182813274Y-68252322D01*
X183177214Y-68009670D01*
X183584787Y-67739845D01*
X184029046Y-67447512D01*
X184503039Y-67137331D01*
X184774218Y-66960602D01*
X185261873Y-66643215D01*
X185724222Y-66342220D01*
X186154265Y-66062178D01*
X186545004Y-65807650D01*
X186889438Y-65583200D01*
X187180568Y-65393387D01*
X187411396Y-65242775D01*
X187574920Y-65135925D01*
X187664142Y-65077399D01*
X187679014Y-65067455D01*
X187670185Y-65024002D01*
X187653614Y-65005322D01*
X187602782Y-65024038D01*
X187472408Y-65095876D01*
X187267536Y-65217676D01*
X186993209Y-65386275D01*
X186654470Y-65598513D01*
X186256364Y-65851229D01*
X185803935Y-66141263D01*
X185302225Y-66465452D01*
X184756278Y-66820636D01*
X184736000Y-66833871D01*
X184249004Y-67151285D01*
X183786543Y-67451787D01*
X183355701Y-67730832D01*
X182963564Y-67983875D01*
X182617219Y-68206371D01*
X182323750Y-68393773D01*
X182090244Y-68541536D01*
X181923785Y-68645115D01*
X181831459Y-68699965D01*
X181815000Y-68707724D01*
X181781733Y-68706328D01*
X181753930Y-68697545D01*
X181732410Y-68675151D01*
X181717994Y-68632924D01*
X181711499Y-68564644D01*
X181713744Y-68464088D01*
X181725550Y-68325034D01*
X181747734Y-68141260D01*
X181781115Y-67906545D01*
X181826514Y-67614666D01*
X181884748Y-67259403D01*
X181956637Y-66834532D01*
X182042999Y-66333833D01*
X182144654Y-65751083D01*
X182262421Y-65080060D01*
X182381929Y-64400835D01*
X182494405Y-63759289D01*
X182600948Y-63146583D01*
X182700328Y-62570077D01*
X182791317Y-62037130D01*
X182872687Y-61555103D01*
X182943211Y-61131354D01*
X183001661Y-60773245D01*
X183046807Y-60488133D01*
X183077422Y-60283380D01*
X183092279Y-60166345D01*
X183092792Y-60140658D01*
X183038165Y-60129987D01*
X183032794Y-60134272D01*
X183020113Y-60187249D01*
X182991290Y-60332922D01*
X182947663Y-60563903D01*
X182890572Y-60872804D01*
X182821352Y-61252235D01*
X182741343Y-61694809D01*
X182651881Y-62193136D01*
X182554305Y-62739828D01*
X182449952Y-63327497D01*
X182340161Y-63948753D01*
X182270142Y-64346439D01*
X182157533Y-64986023D01*
X182049557Y-65597517D01*
X181947555Y-66173426D01*
X181852870Y-66706256D01*
X181766843Y-67188513D01*
X181690815Y-67612703D01*
X181626129Y-67971332D01*
X181574127Y-68256907D01*
X181536150Y-68461932D01*
X181513540Y-68578915D01*
X181507883Y-68603794D01*
X181465293Y-68643852D01*
X181441049Y-68629194D01*
X181416003Y-68574567D01*
X181357952Y-68433451D01*
X181270191Y-68214249D01*
X181156015Y-67925366D01*
X181018720Y-67575207D01*
X180861602Y-67172175D01*
X180687957Y-66724674D01*
X180501080Y-66241109D01*
X180312414Y-65751086D01*
X180065394Y-65111328D01*
X179845391Y-64547719D01*
X179653526Y-64063007D01*
X179490923Y-63659937D01*
X179358702Y-63341256D01*
X179257987Y-63109709D01*
X179189899Y-62968043D01*
X179155559Y-62919003D01*
X179155265Y-62918986D01*
X179107489Y-62953202D01*
X179111252Y-62981900D01*
X179255471Y-63350622D01*
X179414724Y-63759986D01*
X179585405Y-64200548D01*
X179763910Y-64662864D01*
X179946632Y-65137490D01*
X180129967Y-65614983D01*
X180310309Y-66085899D01*
X180484054Y-66540795D01*
X180647595Y-66970227D01*
X180797329Y-67364752D01*
X180929649Y-67714926D01*
X181040950Y-68011305D01*
X181127628Y-68244446D01*
X181186076Y-68404905D01*
X181212690Y-68483239D01*
X181213853Y-68489480D01*
X181181113Y-68452236D01*
X181089507Y-68339048D01*
X180942434Y-68154260D01*
X180743290Y-67902213D01*
X180495474Y-67587251D01*
X180456745Y-67537892D01*
X180253145Y-67537892D01*
X180246197Y-67541200D01*
X180199837Y-67505437D01*
X180189400Y-67490400D01*
X180176456Y-67442907D01*
X180183404Y-67439600D01*
X180229764Y-67475362D01*
X180240200Y-67490400D01*
X180253145Y-67537892D01*
X180456745Y-67537892D01*
X180202381Y-67213717D01*
X179867410Y-66785955D01*
X179493957Y-66308306D01*
X179085420Y-65785114D01*
X178645195Y-65220722D01*
X178176682Y-64619473D01*
X177683275Y-63985710D01*
X177168374Y-63323775D01*
X176635374Y-62638013D01*
X176459324Y-62411383D01*
X175920700Y-61718359D01*
X175398673Y-61047546D01*
X174896671Y-60403307D01*
X174418120Y-59790004D01*
X173966445Y-59212002D01*
X173545075Y-58673663D01*
X173157435Y-58179350D01*
X172806951Y-57733427D01*
X172497051Y-57340256D01*
X172231160Y-57004202D01*
X172012706Y-56729626D01*
X171845114Y-56520893D01*
X171731812Y-56382365D01*
X171676225Y-56318405D01*
X171671206Y-56314399D01*
X171639553Y-56351144D01*
G36*
X179956297Y-68929323D02*
X179910322Y-68982060D01*
X179910000Y-68989000D01*
X179948556Y-69045358D01*
X180071607Y-69065062D01*
X180087800Y-69065200D01*
X180219304Y-69048676D01*
X180265279Y-68995939D01*
X180265600Y-68989000D01*
X180227045Y-68932641D01*
X180103994Y-68912937D01*
X180087800Y-68912800D01*
X179956297Y-68929323D01*
X179956297Y-68929323D01*
G37*
X179956297Y-68929323D02*
X179910322Y-68982060D01*
X179910000Y-68989000D01*
X179948556Y-69045358D01*
X180071607Y-69065062D01*
X180087800Y-69065200D01*
X180219304Y-69048676D01*
X180265279Y-68995939D01*
X180265600Y-68989000D01*
X180227045Y-68932641D01*
X180103994Y-68912937D01*
X180087800Y-68912800D01*
X179956297Y-68929323D01*
G36*
X178752709Y-68925382D02*
X178694488Y-68967093D01*
X178690800Y-68989000D01*
X178724354Y-69041984D01*
X178835582Y-69063817D01*
X178894000Y-69065200D01*
X179035292Y-69052617D01*
X179093513Y-69010906D01*
X179097200Y-68989000D01*
X179063647Y-68936015D01*
X178952419Y-68914182D01*
X178894000Y-68912800D01*
X178752709Y-68925382D01*
X178752709Y-68925382D01*
G37*
X178752709Y-68925382D02*
X178694488Y-68967093D01*
X178690800Y-68989000D01*
X178724354Y-69041984D01*
X178835582Y-69063817D01*
X178894000Y-69065200D01*
X179035292Y-69052617D01*
X179093513Y-69010906D01*
X179097200Y-68989000D01*
X179063647Y-68936015D01*
X178952419Y-68914182D01*
X178894000Y-68912800D01*
X178752709Y-68925382D01*
G36*
X177568697Y-68929323D02*
X177522722Y-68982060D01*
X177522400Y-68989000D01*
X177560956Y-69045358D01*
X177684007Y-69065062D01*
X177700200Y-69065200D01*
X177831704Y-69048676D01*
X177877679Y-68995939D01*
X177878000Y-68989000D01*
X177839445Y-68932641D01*
X177716394Y-68912937D01*
X177700200Y-68912800D01*
X177568697Y-68929323D01*
X177568697Y-68929323D01*
G37*
X177568697Y-68929323D02*
X177522722Y-68982060D01*
X177522400Y-68989000D01*
X177560956Y-69045358D01*
X177684007Y-69065062D01*
X177700200Y-69065200D01*
X177831704Y-69048676D01*
X177877679Y-68995939D01*
X177878000Y-68989000D01*
X177839445Y-68932641D01*
X177716394Y-68912937D01*
X177700200Y-68912800D01*
X177568697Y-68929323D01*
G36*
X176349497Y-68929323D02*
X176303522Y-68982060D01*
X176303200Y-68989000D01*
X176341756Y-69045358D01*
X176464807Y-69065062D01*
X176481000Y-69065200D01*
X176612504Y-69048676D01*
X176658479Y-68995939D01*
X176658800Y-68989000D01*
X176620245Y-68932641D01*
X176497194Y-68912937D01*
X176481000Y-68912800D01*
X176349497Y-68929323D01*
X176349497Y-68929323D01*
G37*
X176349497Y-68929323D02*
X176303522Y-68982060D01*
X176303200Y-68989000D01*
X176341756Y-69045358D01*
X176464807Y-69065062D01*
X176481000Y-69065200D01*
X176612504Y-69048676D01*
X176658479Y-68995939D01*
X176658800Y-68989000D01*
X176620245Y-68932641D01*
X176497194Y-68912937D01*
X176481000Y-68912800D01*
X176349497Y-68929323D01*
G36*
X175181097Y-68929323D02*
X175135122Y-68982060D01*
X175134800Y-68989000D01*
X175173356Y-69045358D01*
X175296407Y-69065062D01*
X175312600Y-69065200D01*
X175444104Y-69048676D01*
X175490079Y-68995939D01*
X175490400Y-68989000D01*
X175451845Y-68932641D01*
X175328794Y-68912937D01*
X175312600Y-68912800D01*
X175181097Y-68929323D01*
X175181097Y-68929323D01*
G37*
X175181097Y-68929323D02*
X175135122Y-68982060D01*
X175134800Y-68989000D01*
X175173356Y-69045358D01*
X175296407Y-69065062D01*
X175312600Y-69065200D01*
X175444104Y-69048676D01*
X175490079Y-68995939D01*
X175490400Y-68989000D01*
X175451845Y-68932641D01*
X175328794Y-68912937D01*
X175312600Y-68912800D01*
X175181097Y-68929323D01*
G36*
X173961897Y-68929323D02*
X173915922Y-68982060D01*
X173915600Y-68989000D01*
X173954156Y-69045358D01*
X174077207Y-69065062D01*
X174093400Y-69065200D01*
X174224904Y-69048676D01*
X174270879Y-68995939D01*
X174271200Y-68989000D01*
X174232645Y-68932641D01*
X174109594Y-68912937D01*
X174093400Y-68912800D01*
X173961897Y-68929323D01*
X173961897Y-68929323D01*
G37*
X173961897Y-68929323D02*
X173915922Y-68982060D01*
X173915600Y-68989000D01*
X173954156Y-69045358D01*
X174077207Y-69065062D01*
X174093400Y-69065200D01*
X174224904Y-69048676D01*
X174270879Y-68995939D01*
X174271200Y-68989000D01*
X174232645Y-68932641D01*
X174109594Y-68912937D01*
X174093400Y-68912800D01*
X173961897Y-68929323D01*
G36*
X172758309Y-68925382D02*
X172700088Y-68967093D01*
X172696400Y-68989000D01*
X172729954Y-69041984D01*
X172841182Y-69063817D01*
X172899600Y-69065200D01*
X173040892Y-69052617D01*
X173099113Y-69010906D01*
X173102800Y-68989000D01*
X173069247Y-68936015D01*
X172958019Y-68914182D01*
X172899600Y-68912800D01*
X172758309Y-68925382D01*
X172758309Y-68925382D01*
G37*
X172758309Y-68925382D02*
X172700088Y-68967093D01*
X172696400Y-68989000D01*
X172729954Y-69041984D01*
X172841182Y-69063817D01*
X172899600Y-69065200D01*
X173040892Y-69052617D01*
X173099113Y-69010906D01*
X173102800Y-68989000D01*
X173069247Y-68936015D01*
X172958019Y-68914182D01*
X172899600Y-68912800D01*
X172758309Y-68925382D01*
G36*
X171574297Y-68929323D02*
X171528322Y-68982060D01*
X171528000Y-68989000D01*
X171566556Y-69045358D01*
X171689607Y-69065062D01*
X171705800Y-69065200D01*
X171837304Y-69048676D01*
X171883279Y-68995939D01*
X171883600Y-68989000D01*
X171845045Y-68932641D01*
X171721994Y-68912937D01*
X171705800Y-68912800D01*
X171574297Y-68929323D01*
X171574297Y-68929323D01*
G37*
X171574297Y-68929323D02*
X171528322Y-68982060D01*
X171528000Y-68989000D01*
X171566556Y-69045358D01*
X171689607Y-69065062D01*
X171705800Y-69065200D01*
X171837304Y-69048676D01*
X171883279Y-68995939D01*
X171883600Y-68989000D01*
X171845045Y-68932641D01*
X171721994Y-68912937D01*
X171705800Y-68912800D01*
X171574297Y-68929323D01*
G36*
X170355097Y-68929323D02*
X170309122Y-68982060D01*
X170308800Y-68989000D01*
X170347356Y-69045358D01*
X170470407Y-69065062D01*
X170486600Y-69065200D01*
X170618104Y-69048676D01*
X170664079Y-68995939D01*
X170664400Y-68989000D01*
X170625845Y-68932641D01*
X170502794Y-68912937D01*
X170486600Y-68912800D01*
X170355097Y-68929323D01*
X170355097Y-68929323D01*
G37*
X170355097Y-68929323D02*
X170309122Y-68982060D01*
X170308800Y-68989000D01*
X170347356Y-69045358D01*
X170470407Y-69065062D01*
X170486600Y-69065200D01*
X170618104Y-69048676D01*
X170664079Y-68995939D01*
X170664400Y-68989000D01*
X170625845Y-68932641D01*
X170502794Y-68912937D01*
X170486600Y-68912800D01*
X170355097Y-68929323D01*
G36*
X169151509Y-68925382D02*
X169093288Y-68967093D01*
X169089600Y-68989000D01*
X169123154Y-69041984D01*
X169234382Y-69063817D01*
X169292800Y-69065200D01*
X169434092Y-69052617D01*
X169492313Y-69010906D01*
X169496000Y-68989000D01*
X169462447Y-68936015D01*
X169351219Y-68914182D01*
X169292800Y-68912800D01*
X169151509Y-68925382D01*
X169151509Y-68925382D01*
G37*
X169151509Y-68925382D02*
X169093288Y-68967093D01*
X169089600Y-68989000D01*
X169123154Y-69041984D01*
X169234382Y-69063817D01*
X169292800Y-69065200D01*
X169434092Y-69052617D01*
X169492313Y-69010906D01*
X169496000Y-68989000D01*
X169462447Y-68936015D01*
X169351219Y-68914182D01*
X169292800Y-68912800D01*
X169151509Y-68925382D01*
G36*
X167967497Y-68929323D02*
X167921522Y-68982060D01*
X167921200Y-68989000D01*
X167959756Y-69045358D01*
X168082807Y-69065062D01*
X168099000Y-69065200D01*
X168230504Y-69048676D01*
X168276479Y-68995939D01*
X168276800Y-68989000D01*
X168238245Y-68932641D01*
X168115194Y-68912937D01*
X168099000Y-68912800D01*
X167967497Y-68929323D01*
X167967497Y-68929323D01*
G37*
X167967497Y-68929323D02*
X167921522Y-68982060D01*
X167921200Y-68989000D01*
X167959756Y-69045358D01*
X168082807Y-69065062D01*
X168099000Y-69065200D01*
X168230504Y-69048676D01*
X168276479Y-68995939D01*
X168276800Y-68989000D01*
X168238245Y-68932641D01*
X168115194Y-68912937D01*
X168099000Y-68912800D01*
X167967497Y-68929323D01*
G36*
X166748297Y-68929323D02*
X166702322Y-68982060D01*
X166702000Y-68989000D01*
X166740556Y-69045358D01*
X166863607Y-69065062D01*
X166879800Y-69065200D01*
X167011304Y-69048676D01*
X167057279Y-68995939D01*
X167057600Y-68989000D01*
X167019045Y-68932641D01*
X166895994Y-68912937D01*
X166879800Y-68912800D01*
X166748297Y-68929323D01*
X166748297Y-68929323D01*
G37*
X166748297Y-68929323D02*
X166702322Y-68982060D01*
X166702000Y-68989000D01*
X166740556Y-69045358D01*
X166863607Y-69065062D01*
X166879800Y-69065200D01*
X167011304Y-69048676D01*
X167057279Y-68995939D01*
X167057600Y-68989000D01*
X167019045Y-68932641D01*
X166895994Y-68912937D01*
X166879800Y-68912800D01*
X166748297Y-68929323D01*
G36*
X165544709Y-68925382D02*
X165486488Y-68967093D01*
X165482800Y-68989000D01*
X165516354Y-69041984D01*
X165627582Y-69063817D01*
X165686000Y-69065200D01*
X165827292Y-69052617D01*
X165885513Y-69010906D01*
X165889200Y-68989000D01*
X165855647Y-68936015D01*
X165744419Y-68914182D01*
X165686000Y-68912800D01*
X165544709Y-68925382D01*
X165544709Y-68925382D01*
G37*
X165544709Y-68925382D02*
X165486488Y-68967093D01*
X165482800Y-68989000D01*
X165516354Y-69041984D01*
X165627582Y-69063817D01*
X165686000Y-69065200D01*
X165827292Y-69052617D01*
X165885513Y-69010906D01*
X165889200Y-68989000D01*
X165855647Y-68936015D01*
X165744419Y-68914182D01*
X165686000Y-68912800D01*
X165544709Y-68925382D01*
G36*
X164360697Y-68929323D02*
X164314722Y-68982060D01*
X164314400Y-68989000D01*
X164352956Y-69045358D01*
X164476007Y-69065062D01*
X164492200Y-69065200D01*
X164623704Y-69048676D01*
X164669679Y-68995939D01*
X164670000Y-68989000D01*
X164631445Y-68932641D01*
X164508394Y-68912937D01*
X164492200Y-68912800D01*
X164360697Y-68929323D01*
X164360697Y-68929323D01*
G37*
X164360697Y-68929323D02*
X164314722Y-68982060D01*
X164314400Y-68989000D01*
X164352956Y-69045358D01*
X164476007Y-69065062D01*
X164492200Y-69065200D01*
X164623704Y-69048676D01*
X164669679Y-68995939D01*
X164670000Y-68989000D01*
X164631445Y-68932641D01*
X164508394Y-68912937D01*
X164492200Y-68912800D01*
X164360697Y-68929323D01*
G36*
X163157109Y-68925382D02*
X163098888Y-68967093D01*
X163095200Y-68989000D01*
X163128754Y-69041984D01*
X163239982Y-69063817D01*
X163298400Y-69065200D01*
X163439692Y-69052617D01*
X163497913Y-69010906D01*
X163501600Y-68989000D01*
X163468047Y-68936015D01*
X163356819Y-68914182D01*
X163298400Y-68912800D01*
X163157109Y-68925382D01*
X163157109Y-68925382D01*
G37*
X163157109Y-68925382D02*
X163098888Y-68967093D01*
X163095200Y-68989000D01*
X163128754Y-69041984D01*
X163239982Y-69063817D01*
X163298400Y-69065200D01*
X163439692Y-69052617D01*
X163497913Y-69010906D01*
X163501600Y-68989000D01*
X163468047Y-68936015D01*
X163356819Y-68914182D01*
X163298400Y-68912800D01*
X163157109Y-68925382D01*
G36*
X161973097Y-68929323D02*
X161927122Y-68982060D01*
X161926800Y-68989000D01*
X161965356Y-69045358D01*
X162088407Y-69065062D01*
X162104600Y-69065200D01*
X162236104Y-69048676D01*
X162282079Y-68995939D01*
X162282400Y-68989000D01*
X162243845Y-68932641D01*
X162120794Y-68912937D01*
X162104600Y-68912800D01*
X161973097Y-68929323D01*
X161973097Y-68929323D01*
G37*
X161973097Y-68929323D02*
X161927122Y-68982060D01*
X161926800Y-68989000D01*
X161965356Y-69045358D01*
X162088407Y-69065062D01*
X162104600Y-69065200D01*
X162236104Y-69048676D01*
X162282079Y-68995939D01*
X162282400Y-68989000D01*
X162243845Y-68932641D01*
X162120794Y-68912937D01*
X162104600Y-68912800D01*
X161973097Y-68929323D01*
G36*
X160753897Y-68929323D02*
X160707922Y-68982060D01*
X160707600Y-68989000D01*
X160746156Y-69045358D01*
X160869207Y-69065062D01*
X160885400Y-69065200D01*
X161016904Y-69048676D01*
X161062879Y-68995939D01*
X161063200Y-68989000D01*
X161024645Y-68932641D01*
X160901594Y-68912937D01*
X160885400Y-68912800D01*
X160753897Y-68929323D01*
X160753897Y-68929323D01*
G37*
X160753897Y-68929323D02*
X160707922Y-68982060D01*
X160707600Y-68989000D01*
X160746156Y-69045358D01*
X160869207Y-69065062D01*
X160885400Y-69065200D01*
X161016904Y-69048676D01*
X161062879Y-68995939D01*
X161063200Y-68989000D01*
X161024645Y-68932641D01*
X160901594Y-68912937D01*
X160885400Y-68912800D01*
X160753897Y-68929323D01*
G36*
X159550309Y-68925382D02*
X159492088Y-68967093D01*
X159488400Y-68989000D01*
X159521954Y-69041984D01*
X159633182Y-69063817D01*
X159691600Y-69065200D01*
X159832892Y-69052617D01*
X159891113Y-69010906D01*
X159894800Y-68989000D01*
X159861247Y-68936015D01*
X159750019Y-68914182D01*
X159691600Y-68912800D01*
X159550309Y-68925382D01*
X159550309Y-68925382D01*
G37*
X159550309Y-68925382D02*
X159492088Y-68967093D01*
X159488400Y-68989000D01*
X159521954Y-69041984D01*
X159633182Y-69063817D01*
X159691600Y-69065200D01*
X159832892Y-69052617D01*
X159891113Y-69010906D01*
X159894800Y-68989000D01*
X159861247Y-68936015D01*
X159750019Y-68914182D01*
X159691600Y-68912800D01*
X159550309Y-68925382D01*
G36*
X158366297Y-68929323D02*
X158320322Y-68982060D01*
X158320000Y-68989000D01*
X158358556Y-69045358D01*
X158481607Y-69065062D01*
X158497800Y-69065200D01*
X158629304Y-69048676D01*
X158675279Y-68995939D01*
X158675600Y-68989000D01*
X158637045Y-68932641D01*
X158513994Y-68912937D01*
X158497800Y-68912800D01*
X158366297Y-68929323D01*
X158366297Y-68929323D01*
G37*
X158366297Y-68929323D02*
X158320322Y-68982060D01*
X158320000Y-68989000D01*
X158358556Y-69045358D01*
X158481607Y-69065062D01*
X158497800Y-69065200D01*
X158629304Y-69048676D01*
X158675279Y-68995939D01*
X158675600Y-68989000D01*
X158637045Y-68932641D01*
X158513994Y-68912937D01*
X158497800Y-68912800D01*
X158366297Y-68929323D01*
G36*
X157147097Y-68929323D02*
X157101122Y-68982060D01*
X157100800Y-68989000D01*
X157139356Y-69045358D01*
X157262407Y-69065062D01*
X157278600Y-69065200D01*
X157410104Y-69048676D01*
X157456079Y-68995939D01*
X157456400Y-68989000D01*
X157417845Y-68932641D01*
X157294794Y-68912937D01*
X157278600Y-68912800D01*
X157147097Y-68929323D01*
X157147097Y-68929323D01*
G37*
X157147097Y-68929323D02*
X157101122Y-68982060D01*
X157100800Y-68989000D01*
X157139356Y-69045358D01*
X157262407Y-69065062D01*
X157278600Y-69065200D01*
X157410104Y-69048676D01*
X157456079Y-68995939D01*
X157456400Y-68989000D01*
X157417845Y-68932641D01*
X157294794Y-68912937D01*
X157278600Y-68912800D01*
X157147097Y-68929323D01*
G36*
X155943509Y-68925382D02*
X155885288Y-68967093D01*
X155881600Y-68989000D01*
X155915154Y-69041984D01*
X156026382Y-69063817D01*
X156084800Y-69065200D01*
X156226092Y-69052617D01*
X156284313Y-69010906D01*
X156288000Y-68989000D01*
X156254447Y-68936015D01*
X156143219Y-68914182D01*
X156084800Y-68912800D01*
X155943509Y-68925382D01*
X155943509Y-68925382D01*
G37*
X155943509Y-68925382D02*
X155885288Y-68967093D01*
X155881600Y-68989000D01*
X155915154Y-69041984D01*
X156026382Y-69063817D01*
X156084800Y-69065200D01*
X156226092Y-69052617D01*
X156284313Y-69010906D01*
X156288000Y-68989000D01*
X156254447Y-68936015D01*
X156143219Y-68914182D01*
X156084800Y-68912800D01*
X155943509Y-68925382D01*
G36*
X154759497Y-68929323D02*
X154713522Y-68982060D01*
X154713200Y-68989000D01*
X154751756Y-69045358D01*
X154874807Y-69065062D01*
X154891000Y-69065200D01*
X155022504Y-69048676D01*
X155068479Y-68995939D01*
X155068800Y-68989000D01*
X155030245Y-68932641D01*
X154907194Y-68912937D01*
X154891000Y-68912800D01*
X154759497Y-68929323D01*
X154759497Y-68929323D01*
G37*
X154759497Y-68929323D02*
X154713522Y-68982060D01*
X154713200Y-68989000D01*
X154751756Y-69045358D01*
X154874807Y-69065062D01*
X154891000Y-69065200D01*
X155022504Y-69048676D01*
X155068479Y-68995939D01*
X155068800Y-68989000D01*
X155030245Y-68932641D01*
X154907194Y-68912937D01*
X154891000Y-68912800D01*
X154759497Y-68929323D01*
G36*
X153540297Y-68929323D02*
X153494322Y-68982060D01*
X153494000Y-68989000D01*
X153532556Y-69045358D01*
X153655607Y-69065062D01*
X153671800Y-69065200D01*
X153803304Y-69048676D01*
X153849279Y-68995939D01*
X153849600Y-68989000D01*
X153811045Y-68932641D01*
X153687994Y-68912937D01*
X153671800Y-68912800D01*
X153540297Y-68929323D01*
X153540297Y-68929323D01*
G37*
X153540297Y-68929323D02*
X153494322Y-68982060D01*
X153494000Y-68989000D01*
X153532556Y-69045358D01*
X153655607Y-69065062D01*
X153671800Y-69065200D01*
X153803304Y-69048676D01*
X153849279Y-68995939D01*
X153849600Y-68989000D01*
X153811045Y-68932641D01*
X153687994Y-68912937D01*
X153671800Y-68912800D01*
X153540297Y-68929323D01*
G36*
X195941788Y-40543285D02*
X195930357Y-40548434D01*
X195915430Y-40555905D01*
X195906524Y-40560627D01*
X195870902Y-40579888D01*
X195834210Y-40569093D01*
X195817279Y-40564281D01*
X195803144Y-40560573D01*
X195793980Y-40558528D01*
X195792084Y-40558299D01*
X195786658Y-40560550D01*
X195775796Y-40566692D01*
X195761033Y-40575809D01*
X195743903Y-40586983D01*
X195742484Y-40587933D01*
X195723170Y-40600311D01*
X195706482Y-40609894D01*
X195693894Y-40615887D01*
X195687592Y-40617567D01*
X195680244Y-40618124D01*
X195677422Y-40621194D01*
X195678389Y-40628877D01*
X195680679Y-40637262D01*
X195681543Y-40643797D01*
X195681221Y-40654095D01*
X195679592Y-40669034D01*
X195676540Y-40689490D01*
X195671946Y-40716342D01*
X195665691Y-40750467D01*
X195664673Y-40755892D01*
X195658322Y-40789223D01*
X195653123Y-40815294D01*
X195648796Y-40835187D01*
X195645060Y-40849985D01*
X195641634Y-40860772D01*
X195638237Y-40868630D01*
X195634587Y-40874643D01*
X195633487Y-40876138D01*
X195629709Y-40881947D01*
X195626101Y-40889681D01*
X195622382Y-40900367D01*
X195618268Y-40915033D01*
X195613476Y-40934705D01*
X195607724Y-40960410D01*
X195600730Y-40993175D01*
X195598971Y-41001558D01*
X195588142Y-41055921D01*
X195579949Y-41102980D01*
X195574403Y-41142610D01*
X195571516Y-41174688D01*
X195571301Y-41199087D01*
X195573770Y-41215685D01*
X195577508Y-41223071D01*
X195581253Y-41227827D01*
X195582968Y-41232998D01*
X195582684Y-41240756D01*
X195580435Y-41253272D01*
X195578124Y-41264114D01*
X195571745Y-41286193D01*
X195562432Y-41304180D01*
X195548922Y-41319411D01*
X195529953Y-41333220D01*
X195504261Y-41346943D01*
X195496276Y-41350684D01*
X195479485Y-41358924D01*
X195465772Y-41366667D01*
X195456895Y-41372860D01*
X195454514Y-41375657D01*
X195451365Y-41379203D01*
X195443583Y-41382042D01*
X195429852Y-41384510D01*
X195411152Y-41386709D01*
X195392205Y-41388575D01*
X195379823Y-41389324D01*
X195372151Y-41388739D01*
X195367336Y-41386607D01*
X195363523Y-41382711D01*
X195362189Y-41381026D01*
X195358167Y-41376603D01*
X195353220Y-41373726D01*
X195345575Y-41372062D01*
X195333459Y-41371273D01*
X195315097Y-41371024D01*
X195309272Y-41371007D01*
X195288924Y-41371093D01*
X195274475Y-41371811D01*
X195263362Y-41373698D01*
X195253017Y-41377293D01*
X195240875Y-41383135D01*
X195233704Y-41386869D01*
X195217938Y-41395563D01*
X195207594Y-41402907D01*
X195200393Y-41411070D01*
X195194059Y-41422224D01*
X195191877Y-41426706D01*
X195180463Y-41450587D01*
X195131273Y-41453431D01*
X195111181Y-41454640D01*
X195084974Y-41456287D01*
X195054981Y-41458221D01*
X195023533Y-41460292D01*
X194993184Y-41462334D01*
X194966306Y-41464148D01*
X194942062Y-41465747D01*
X194921808Y-41467048D01*
X194906900Y-41467962D01*
X194898694Y-41468403D01*
X194897766Y-41468430D01*
X194892672Y-41472010D01*
X194885204Y-41481627D01*
X194876591Y-41495656D01*
X194874966Y-41498613D01*
X194858683Y-41528760D01*
X194863158Y-41560647D01*
X194865282Y-41576997D01*
X194865821Y-41587202D01*
X194864512Y-41593476D01*
X194861092Y-41598036D01*
X194858441Y-41600424D01*
X194852271Y-41604520D01*
X194844361Y-41606578D01*
X194832367Y-41606927D01*
X194817500Y-41606145D01*
X194801789Y-41605073D01*
X194780076Y-41603594D01*
X194754808Y-41601875D01*
X194728430Y-41600081D01*
X194718017Y-41599374D01*
X194686525Y-41596881D01*
X194661543Y-41594016D01*
X194641115Y-41590483D01*
X194623286Y-41585988D01*
X194617611Y-41584233D01*
X194601636Y-41578876D01*
X194591264Y-41573924D01*
X194585141Y-41567450D01*
X194581913Y-41557527D01*
X194580227Y-41542227D01*
X194579403Y-41529850D01*
X194578257Y-41519796D01*
X194575030Y-41513803D01*
X194567567Y-41509547D01*
X194557150Y-41505848D01*
X194540266Y-41501482D01*
X194522623Y-41498797D01*
X194516555Y-41498439D01*
X194503736Y-41497414D01*
X194496568Y-41494148D01*
X194492717Y-41488422D01*
X194488426Y-41482927D01*
X194479958Y-41477792D01*
X194465831Y-41472284D01*
X194449928Y-41467255D01*
X194421452Y-41459700D01*
X194399400Y-41456196D01*
X194382766Y-41456729D01*
X194370547Y-41461284D01*
X194364841Y-41466023D01*
X194355206Y-41476279D01*
X194260703Y-41473843D01*
X194166200Y-41471408D01*
X194164825Y-41484955D01*
X194164152Y-41489390D01*
X194162497Y-41493275D01*
X194158914Y-41497170D01*
X194152458Y-41501635D01*
X194142182Y-41507230D01*
X194127142Y-41514513D01*
X194106392Y-41524044D01*
X194078987Y-41536383D01*
X194074551Y-41538373D01*
X193985651Y-41578243D01*
X193948859Y-41578388D01*
X193932099Y-41578795D01*
X193918849Y-41579757D01*
X193911169Y-41581097D01*
X193910113Y-41581708D01*
X193908368Y-41587491D01*
X193906191Y-41598496D01*
X193905197Y-41604667D01*
X193902236Y-41624451D01*
X193922777Y-41627225D01*
X193941802Y-41630178D01*
X193954230Y-41633571D01*
X193961904Y-41638496D01*
X193966667Y-41646047D01*
X193969720Y-41655054D01*
X193972717Y-41667351D01*
X193972464Y-41675274D01*
X193968704Y-41682372D01*
X193967630Y-41683842D01*
X193958958Y-41691685D01*
X193946394Y-41699082D01*
X193942097Y-41700949D01*
X193934300Y-41703714D01*
X193926760Y-41705354D01*
X193917724Y-41705865D01*
X193905438Y-41705245D01*
X193888151Y-41703490D01*
X193865963Y-41700828D01*
X193807851Y-41693661D01*
X193766215Y-41734569D01*
X193781201Y-41789929D01*
X193739991Y-41875789D01*
X193727957Y-41900735D01*
X193717035Y-41923136D01*
X193707788Y-41941855D01*
X193700781Y-41955753D01*
X193696579Y-41963694D01*
X193695721Y-41965058D01*
X193691143Y-41964687D01*
X193680843Y-41961809D01*
X193666906Y-41957187D01*
X193651421Y-41951583D01*
X193636474Y-41945761D01*
X193624153Y-41940482D01*
X193616543Y-41936511D01*
X193615570Y-41935764D01*
X193616812Y-41931874D01*
X193622278Y-41924795D01*
X193622462Y-41924591D01*
X193627881Y-41915360D01*
X193633486Y-41900377D01*
X193638241Y-41882497D01*
X193645346Y-41849912D01*
X193629231Y-41828764D01*
X193618925Y-41816167D01*
X193610365Y-41809607D01*
X193600703Y-41808178D01*
X193587093Y-41810975D01*
X193579915Y-41813071D01*
X193568676Y-41816108D01*
X193560371Y-41816583D01*
X193551745Y-41813991D01*
X193539546Y-41807829D01*
X193536909Y-41806403D01*
X193524948Y-41800576D01*
X193516549Y-41797729D01*
X193513634Y-41798349D01*
X193509524Y-41800744D01*
X193497617Y-41802284D01*
X193478547Y-41802893D01*
X193475906Y-41802900D01*
X193438178Y-41802900D01*
X193435396Y-41819365D01*
X193432882Y-41829791D01*
X193428183Y-41835684D01*
X193418687Y-41839677D01*
X193413857Y-41841082D01*
X193404835Y-41843824D01*
X193399095Y-41847084D01*
X193396165Y-41852508D01*
X193395574Y-41861737D01*
X193396847Y-41876416D01*
X193398889Y-41893157D01*
X193400358Y-41907208D01*
X193399814Y-41915797D01*
X193396470Y-41921839D01*
X193389541Y-41928250D01*
X193389395Y-41928373D01*
X193377178Y-41935941D01*
X193366914Y-41936460D01*
X193359448Y-41935938D01*
X193357089Y-41940987D01*
X193357008Y-41943578D01*
X193356386Y-41948952D01*
X193353165Y-41951654D01*
X193345332Y-41952369D01*
X193332667Y-41951882D01*
X193308317Y-41950580D01*
X193284545Y-41988710D01*
X193263483Y-41986215D01*
X193249770Y-41985266D01*
X193240879Y-41987014D01*
X193233389Y-41992220D01*
X193232420Y-41993115D01*
X193224377Y-41999187D01*
X193216221Y-42000278D01*
X193207255Y-41998322D01*
X193193932Y-41996459D01*
X193180940Y-41997509D01*
X193170482Y-42000867D01*
X193164761Y-42005925D01*
X193164703Y-42010035D01*
X193169219Y-42022704D01*
X193169430Y-42029416D01*
X193165351Y-42031494D01*
X193164958Y-42031500D01*
X193159005Y-42035272D01*
X193155644Y-42043142D01*
X193153138Y-42053784D01*
X193151369Y-42060320D01*
X193152130Y-42067195D01*
X193156062Y-42078075D01*
X193158467Y-42083149D01*
X193163547Y-42093530D01*
X193164736Y-42098035D01*
X193162147Y-42098245D01*
X193159486Y-42097240D01*
X193146714Y-42092539D01*
X193139811Y-42091842D01*
X193137134Y-42095250D01*
X193136867Y-42098635D01*
X193135835Y-42104630D01*
X193131097Y-42105087D01*
X193126008Y-42103362D01*
X193114948Y-42099852D01*
X193109276Y-42100738D01*
X193106814Y-42106620D01*
X193106470Y-42108758D01*
X193104808Y-42114387D01*
X193100408Y-42116990D01*
X193090984Y-42117411D01*
X193083950Y-42117083D01*
X193067483Y-42115836D01*
X193051448Y-42114143D01*
X193046789Y-42113515D01*
X193030794Y-42111148D01*
X193041318Y-42134945D01*
X193046615Y-42148558D01*
X193049657Y-42159679D01*
X193049904Y-42164971D01*
X193046821Y-42174824D01*
X193045871Y-42177844D01*
X193043639Y-42180657D01*
X193038601Y-42180349D01*
X193029237Y-42176501D01*
X193015317Y-42169377D01*
X192991633Y-42158840D01*
X192971397Y-42153961D01*
X192955417Y-42154788D01*
X192944503Y-42161372D01*
X192942134Y-42164850D01*
X192936856Y-42172540D01*
X192932778Y-42175433D01*
X192927327Y-42173645D01*
X192916776Y-42168985D01*
X192904919Y-42163211D01*
X192880250Y-42153619D01*
X192847514Y-42145677D01*
X192834476Y-42143346D01*
X192788202Y-42135702D01*
X192727440Y-42081487D01*
X192704237Y-42060839D01*
X192686248Y-42045089D01*
X192672388Y-42033471D01*
X192661572Y-42025224D01*
X192652718Y-42019585D01*
X192644741Y-42015789D01*
X192636558Y-42013075D01*
X192627083Y-42010678D01*
X192626750Y-42010599D01*
X192608222Y-42003712D01*
X192591025Y-41991378D01*
X192586534Y-41987212D01*
X192573910Y-41976913D01*
X192558104Y-41966712D01*
X192540771Y-41957346D01*
X192523564Y-41949548D01*
X192508139Y-41944056D01*
X192496151Y-41941604D01*
X192489253Y-41942927D01*
X192488638Y-41943697D01*
X192484172Y-41947990D01*
X192476298Y-41947835D01*
X192471165Y-41946527D01*
X192461616Y-41943871D01*
X192456535Y-41942615D01*
X192456387Y-41942600D01*
X192455910Y-41946519D01*
X192455540Y-41957023D01*
X192455329Y-41972230D01*
X192455300Y-41980985D01*
X192455166Y-41999094D01*
X192454547Y-42010223D01*
X192453123Y-42015858D01*
X192450573Y-42017484D01*
X192447534Y-42016906D01*
X192441012Y-42017403D01*
X192434703Y-42024290D01*
X192431659Y-42029530D01*
X192424308Y-42040038D01*
X192417342Y-42042906D01*
X192416142Y-42042689D01*
X192410846Y-42041621D01*
X192409310Y-42043327D01*
X192411499Y-42049551D01*
X192415810Y-42058751D01*
X192420079Y-42068598D01*
X192420054Y-42074378D01*
X192415167Y-42079626D01*
X192412068Y-42082099D01*
X192403468Y-42091635D01*
X192395789Y-42104538D01*
X192394443Y-42107621D01*
X192389466Y-42118347D01*
X192383978Y-42123256D01*
X192374880Y-42124593D01*
X192370945Y-42124633D01*
X192360647Y-42123220D01*
X192344549Y-42119361D01*
X192324761Y-42113626D01*
X192303395Y-42106585D01*
X192300950Y-42105724D01*
X192278536Y-42097951D01*
X192262525Y-42092938D01*
X192251441Y-42090356D01*
X192243804Y-42089878D01*
X192238134Y-42091174D01*
X192237207Y-42091572D01*
X192230239Y-42096053D01*
X192230549Y-42100767D01*
X192231485Y-42102014D01*
X192234411Y-42109628D01*
X192229507Y-42115409D01*
X192217266Y-42119089D01*
X192198180Y-42120400D01*
X192197880Y-42120400D01*
X192181401Y-42119849D01*
X192170640Y-42117752D01*
X192162895Y-42113441D01*
X192160194Y-42111097D01*
X192150291Y-42101794D01*
X192141339Y-42110747D01*
X192134847Y-42116372D01*
X192129041Y-42117290D01*
X192120140Y-42113854D01*
X192118150Y-42112911D01*
X192108203Y-42108806D01*
X192101289Y-42109104D01*
X192092976Y-42114216D01*
X192091395Y-42115378D01*
X192082639Y-42121436D01*
X192075742Y-42123893D01*
X192067792Y-42122808D01*
X192055877Y-42118240D01*
X192051094Y-42116199D01*
X192038815Y-42111376D01*
X192030713Y-42110067D01*
X192023361Y-42112067D01*
X192018852Y-42114265D01*
X192013053Y-42116820D01*
X192006749Y-42118111D01*
X191998280Y-42118042D01*
X191985985Y-42116516D01*
X191968203Y-42113435D01*
X191951904Y-42110360D01*
X191897524Y-42099956D01*
X191844841Y-42116589D01*
X191823199Y-42123527D01*
X191808120Y-42128829D01*
X191798068Y-42133315D01*
X191791503Y-42137805D01*
X191786887Y-42143120D01*
X191782946Y-42149612D01*
X191775729Y-42168690D01*
X191773734Y-42184507D01*
X191773132Y-42195925D01*
X191770038Y-42203260D01*
X191762517Y-42209629D01*
X191755359Y-42214110D01*
X191742166Y-42220918D01*
X191733319Y-42222390D01*
X191729865Y-42221225D01*
X191724355Y-42220041D01*
X191719856Y-42224854D01*
X191716921Y-42231096D01*
X191707620Y-42244010D01*
X191696910Y-42249727D01*
X191690313Y-42251507D01*
X191683887Y-42251610D01*
X191675938Y-42249496D01*
X191664772Y-42244628D01*
X191648694Y-42236466D01*
X191638793Y-42231251D01*
X191594861Y-42207999D01*
X191539306Y-42221012D01*
X191483750Y-42234024D01*
X191472208Y-42223082D01*
X191460666Y-42212139D01*
X191451441Y-42223866D01*
X191446858Y-42229249D01*
X191442185Y-42232487D01*
X191435784Y-42233600D01*
X191426019Y-42232608D01*
X191411252Y-42229532D01*
X191390747Y-42224611D01*
X191377045Y-42221344D01*
X191370448Y-42220235D01*
X191369838Y-42221424D01*
X191374098Y-42225050D01*
X191375931Y-42226459D01*
X191385249Y-42231819D01*
X191399590Y-42238100D01*
X191416723Y-42244551D01*
X191434420Y-42250418D01*
X191450451Y-42254950D01*
X191462586Y-42257395D01*
X191467714Y-42257426D01*
X191477128Y-42258179D01*
X191482719Y-42260955D01*
X191487583Y-42266711D01*
X191487507Y-42275127D01*
X191486337Y-42279696D01*
X191484293Y-42288581D01*
X191485901Y-42291506D01*
X191490609Y-42290827D01*
X191498464Y-42287339D01*
X191501000Y-42284989D01*
X191506676Y-42281869D01*
X191511517Y-42281266D01*
X191517243Y-42283062D01*
X191519511Y-42289904D01*
X191519734Y-42295827D01*
X191520169Y-42302235D01*
X191522243Y-42307784D01*
X191527111Y-42313665D01*
X191535929Y-42321071D01*
X191549851Y-42331194D01*
X191562659Y-42340124D01*
X191585496Y-42355267D01*
X191605347Y-42366556D01*
X191625610Y-42375702D01*
X191649682Y-42384415D01*
X191652618Y-42385390D01*
X191680954Y-42395173D01*
X191701587Y-42403318D01*
X191715064Y-42410084D01*
X191721934Y-42415730D01*
X191723112Y-42418704D01*
X191727126Y-42423350D01*
X191738203Y-42430068D01*
X191755317Y-42438425D01*
X191777445Y-42447986D01*
X191803561Y-42458318D01*
X191832641Y-42468989D01*
X191863659Y-42479563D01*
X191877453Y-42484009D01*
X191903203Y-42492344D01*
X191934923Y-42502903D01*
X191970628Y-42515010D01*
X192008335Y-42527985D01*
X192046059Y-42541152D01*
X192081816Y-42553832D01*
X192081960Y-42553884D01*
X192118257Y-42566954D01*
X192147832Y-42577836D01*
X192171977Y-42587087D01*
X192191979Y-42595264D01*
X192209127Y-42602925D01*
X192224710Y-42610626D01*
X192240017Y-42618926D01*
X192256337Y-42628380D01*
X192261875Y-42631676D01*
X192284746Y-42645227D01*
X192308334Y-42659000D01*
X192330188Y-42671576D01*
X192347856Y-42681536D01*
X192351292Y-42683429D01*
X192367366Y-42693166D01*
X192387485Y-42706748D01*
X192409271Y-42722500D01*
X192430347Y-42738747D01*
X192433842Y-42741563D01*
X192456634Y-42760028D01*
X192482855Y-42781210D01*
X192509319Y-42802541D01*
X192532843Y-42821450D01*
X192533617Y-42822072D01*
X192568182Y-42850137D01*
X192596648Y-42874047D01*
X192619825Y-42894543D01*
X192638520Y-42912366D01*
X192653544Y-42928256D01*
X192665705Y-42942954D01*
X192665922Y-42943236D01*
X192675554Y-42955298D01*
X192689407Y-42971928D01*
X192706027Y-42991414D01*
X192723956Y-43012041D01*
X192735626Y-43025254D01*
X192751772Y-43043724D01*
X192765740Y-43060309D01*
X192776616Y-43073876D01*
X192783488Y-43083290D01*
X192785500Y-43087203D01*
X192788453Y-43093075D01*
X192796072Y-43102060D01*
X192803492Y-43109258D01*
X192814148Y-43119593D01*
X192828035Y-43134103D01*
X192842957Y-43150462D01*
X192851117Y-43159759D01*
X192867724Y-43178281D01*
X192886640Y-43198285D01*
X192904667Y-43216423D01*
X192910893Y-43222385D01*
X192925279Y-43236429D01*
X192938353Y-43250137D01*
X192948088Y-43261345D01*
X192950894Y-43265077D01*
X192961306Y-43276321D01*
X192974718Y-43286106D01*
X192977902Y-43287805D01*
X192991462Y-43295628D01*
X193006558Y-43306090D01*
X193013443Y-43311522D01*
X193024894Y-43320037D01*
X193034835Y-43325621D01*
X193039362Y-43326900D01*
X193046172Y-43330004D01*
X193056270Y-43338160D01*
X193067883Y-43349631D01*
X193079235Y-43362684D01*
X193087576Y-43374061D01*
X193094895Y-43382573D01*
X193106127Y-43392915D01*
X193113528Y-43398824D01*
X193123995Y-43407407D01*
X193130939Y-43414519D01*
X193132642Y-43417645D01*
X193136014Y-43422082D01*
X193146086Y-43431582D01*
X193162808Y-43446102D01*
X193186126Y-43465597D01*
X193215989Y-43490026D01*
X193252344Y-43519344D01*
X193295139Y-43553507D01*
X193314667Y-43569010D01*
X193355761Y-43601901D01*
X193390567Y-43630516D01*
X193419711Y-43655465D01*
X193443819Y-43677360D01*
X193463516Y-43696813D01*
X193479427Y-43714435D01*
X193492178Y-43730838D01*
X193502395Y-43746633D01*
X193509106Y-43759127D01*
X193515282Y-43767930D01*
X193524163Y-43771159D01*
X193529695Y-43771400D01*
X193539383Y-43771957D01*
X193542812Y-43775275D01*
X193542184Y-43783823D01*
X193541967Y-43785158D01*
X193542602Y-43797433D01*
X193546994Y-43812204D01*
X193553874Y-43826819D01*
X193561974Y-43838627D01*
X193570024Y-43844974D01*
X193570687Y-43845183D01*
X193579409Y-43846424D01*
X193593241Y-43847282D01*
X193605709Y-43847542D01*
X193632167Y-43847600D01*
X193632167Y-44520174D01*
X193650824Y-44533572D01*
X193663531Y-44544311D01*
X193670863Y-44555534D01*
X193674212Y-44565758D01*
X193679001Y-44579677D01*
X193685700Y-44586342D01*
X193696366Y-44586963D01*
X193706402Y-44584698D01*
X193717383Y-44582527D01*
X193725731Y-44584210D01*
X193735683Y-44590687D01*
X193736629Y-44591406D01*
X193747845Y-44602133D01*
X193758733Y-44615894D01*
X193761938Y-44620918D01*
X193772756Y-44639378D01*
X193799463Y-44636642D01*
X193826170Y-44633905D01*
X193834894Y-44651005D01*
X193840741Y-44660825D01*
X193847689Y-44667370D01*
X193858344Y-44672530D01*
X193870184Y-44676578D01*
X193885927Y-44681430D01*
X193900004Y-44685480D01*
X193908025Y-44687531D01*
X193917266Y-44691770D01*
X193929207Y-44700082D01*
X193937658Y-44707356D01*
X193950419Y-44719017D01*
X193963116Y-44729999D01*
X193969336Y-44735051D01*
X193981544Y-44749354D01*
X193985526Y-44761108D01*
X193991314Y-44776109D01*
X194002064Y-44790934D01*
X194002866Y-44791777D01*
X194011466Y-44801394D01*
X194014947Y-44808533D01*
X194014444Y-44816422D01*
X194013202Y-44821146D01*
X194011390Y-44830331D01*
X194012579Y-44838599D01*
X194017538Y-44848969D01*
X194022352Y-44856985D01*
X194035629Y-44878051D01*
X194046004Y-44893351D01*
X194054795Y-44904461D01*
X194063319Y-44912954D01*
X194072896Y-44920406D01*
X194078871Y-44924485D01*
X194092425Y-44934402D01*
X194100074Y-44942820D01*
X194103599Y-44951798D01*
X194103905Y-44953462D01*
X194105899Y-44965477D01*
X194108608Y-44981539D01*
X194110465Y-44992436D01*
X194112658Y-45010113D01*
X194114120Y-45031357D01*
X194114523Y-45049586D01*
X194112811Y-45074351D01*
X194107604Y-45092316D01*
X194098145Y-45104691D01*
X194083675Y-45112687D01*
X194073142Y-45115694D01*
X194052921Y-45118467D01*
X194035555Y-45116457D01*
X194034622Y-45116214D01*
X194024090Y-45114221D01*
X194015745Y-45115372D01*
X194008375Y-45120726D01*
X194000767Y-45131346D01*
X193991708Y-45148292D01*
X193987050Y-45157817D01*
X193977402Y-45176141D01*
X193966602Y-45194080D01*
X193956688Y-45208294D01*
X193954901Y-45210503D01*
X193940402Y-45228008D01*
X193930587Y-45240865D01*
X193924552Y-45250782D01*
X193921388Y-45259469D01*
X193920189Y-45268635D01*
X193920034Y-45276230D01*
X193920514Y-45287882D01*
X193922597Y-45297683D01*
X193927245Y-45307582D01*
X193935421Y-45319527D01*
X193948087Y-45335467D01*
X193951108Y-45339142D01*
X193963286Y-45356597D01*
X193969909Y-45373738D01*
X193971387Y-45381178D01*
X193975135Y-45396457D01*
X193982091Y-45408972D01*
X193992414Y-45420705D01*
X194010031Y-45438655D01*
X194007882Y-45476036D01*
X194007398Y-45495969D01*
X194008039Y-45515413D01*
X194009662Y-45530833D01*
X194010195Y-45533605D01*
X194012488Y-45547882D01*
X194011379Y-45558788D01*
X194007093Y-45569589D01*
X194002364Y-45583051D01*
X193998583Y-45600124D01*
X193997267Y-45610014D01*
X193996257Y-45624043D01*
X193997194Y-45632723D01*
X194001140Y-45639122D01*
X194009160Y-45646310D01*
X194010121Y-45647103D01*
X194025198Y-45661915D01*
X194035919Y-45677284D01*
X194041208Y-45691387D01*
X194041111Y-45699488D01*
X194036673Y-45709517D01*
X194029144Y-45720774D01*
X194027985Y-45722193D01*
X194019430Y-45737211D01*
X194017401Y-45752074D01*
X194016653Y-45765569D01*
X194014711Y-45783163D01*
X194012479Y-45798075D01*
X194010001Y-45816636D01*
X194010054Y-45832322D01*
X194012774Y-45849829D01*
X194014181Y-45856362D01*
X194018800Y-45889832D01*
X194018783Y-45924050D01*
X194018132Y-45945238D01*
X194019126Y-45962080D01*
X194022250Y-45978616D01*
X194027665Y-45997821D01*
X194032721Y-46016171D01*
X194036532Y-46033439D01*
X194038454Y-46046598D01*
X194038567Y-46049224D01*
X194038290Y-46055287D01*
X194036808Y-46060582D01*
X194033144Y-46066118D01*
X194026321Y-46072906D01*
X194015362Y-46081954D01*
X193999290Y-46094272D01*
X193983523Y-46106091D01*
X193955649Y-46127550D01*
X193934260Y-46145580D01*
X193918532Y-46161035D01*
X193907646Y-46174768D01*
X193900781Y-46187631D01*
X193898482Y-46194422D01*
X193894805Y-46203885D01*
X193888697Y-46208782D01*
X193877154Y-46211513D01*
X193877050Y-46211529D01*
X193860984Y-46216882D01*
X193843982Y-46228494D01*
X193839178Y-46232659D01*
X193828353Y-46241813D01*
X193818689Y-46247919D01*
X193807461Y-46252159D01*
X193791944Y-46255713D01*
X193781568Y-46257631D01*
X193759952Y-46261189D01*
X193737011Y-46264498D01*
X193717216Y-46266917D01*
X193714717Y-46267172D01*
X193690679Y-46270361D01*
X193673856Y-46274818D01*
X193663022Y-46281119D01*
X193656953Y-46289840D01*
X193655356Y-46295132D01*
X193649181Y-46314481D01*
X193638560Y-46333944D01*
X193622523Y-46355027D01*
X193603606Y-46375661D01*
X193588406Y-46390853D01*
X193577054Y-46400838D01*
X193567871Y-46406823D01*
X193559176Y-46410014D01*
X193554464Y-46410942D01*
X193541119Y-46414215D01*
X193521990Y-46420434D01*
X193498914Y-46428857D01*
X193473728Y-46438742D01*
X193448269Y-46449348D01*
X193424374Y-46459933D01*
X193403881Y-46469756D01*
X193389544Y-46477521D01*
X193373600Y-46487709D01*
X193362871Y-46496811D01*
X193354890Y-46507302D01*
X193348794Y-46518421D01*
X193341745Y-46533842D01*
X193336069Y-46548738D01*
X193333703Y-46556933D01*
X193328630Y-46570241D01*
X193320417Y-46583250D01*
X193319251Y-46584641D01*
X193310557Y-46598765D01*
X193303083Y-46620144D01*
X193300066Y-46632189D01*
X193296330Y-46647833D01*
X193292686Y-46659134D01*
X193287768Y-46668323D01*
X193280204Y-46677634D01*
X193268628Y-46689300D01*
X193259966Y-46697614D01*
X193243242Y-46713159D01*
X193221467Y-46732733D01*
X193196155Y-46755018D01*
X193168822Y-46778697D01*
X193140981Y-46802453D01*
X193114149Y-46824969D01*
X193101651Y-46835295D01*
X193075891Y-46852315D01*
X193042738Y-46867037D01*
X193001795Y-46879633D01*
X192995050Y-46881327D01*
X192972556Y-46887187D01*
X192956348Y-46892736D01*
X192944396Y-46899244D01*
X192934667Y-46907980D01*
X192925131Y-46920214D01*
X192919432Y-46928592D01*
X192909793Y-46942502D01*
X192896429Y-46960984D01*
X192880865Y-46981966D01*
X192864627Y-47003379D01*
X192858709Y-47011053D01*
X192839832Y-47036088D01*
X192825544Y-47056818D01*
X192814663Y-47075135D01*
X192806012Y-47092931D01*
X192802664Y-47100942D01*
X192788077Y-47137348D01*
X192793318Y-47178399D01*
X192795638Y-47199582D01*
X192797929Y-47225694D01*
X192799906Y-47253199D01*
X192801139Y-47275309D01*
X192803719Y-47331169D01*
X192789860Y-47346953D01*
X192782631Y-47355667D01*
X192778671Y-47362969D01*
X192777242Y-47371729D01*
X192777606Y-47384816D01*
X192778133Y-47392525D01*
X192778193Y-47419616D01*
X192774370Y-47439016D01*
X192771257Y-47449908D01*
X192770539Y-47457117D01*
X192770964Y-47458208D01*
X192775417Y-47458462D01*
X192788096Y-47458704D01*
X192808762Y-47458936D01*
X192837174Y-47459155D01*
X192873093Y-47459363D01*
X192916277Y-47459559D01*
X192966487Y-47459743D01*
X193023482Y-47459915D01*
X193087023Y-47460074D01*
X193156870Y-47460221D01*
X193232781Y-47460356D01*
X193314518Y-47460478D01*
X193401839Y-47460587D01*
X193494506Y-47460683D01*
X193592277Y-47460766D01*
X193694912Y-47460836D01*
X193802172Y-47460893D01*
X193913816Y-47460936D01*
X194029604Y-47460965D01*
X194149296Y-47460981D01*
X194272651Y-47460983D01*
X194399430Y-47460971D01*
X194529393Y-47460944D01*
X194662299Y-47460904D01*
X194797908Y-47460849D01*
X194935980Y-47460780D01*
X195076275Y-47460696D01*
X195218553Y-47460597D01*
X195362573Y-47460483D01*
X195508096Y-47460354D01*
X195654881Y-47460210D01*
X195802688Y-47460051D01*
X195907609Y-47459929D01*
X197004068Y-47458617D01*
X197004043Y-46437333D01*
X197004017Y-45416050D01*
X197022489Y-45381753D01*
X197040961Y-45347457D01*
X197085989Y-45323837D01*
X197108880Y-45312337D01*
X197126922Y-45304628D01*
X197142360Y-45299881D01*
X197157441Y-45297267D01*
X197158221Y-45297178D01*
X197171772Y-45295173D01*
X197182489Y-45291828D01*
X197191428Y-45286008D01*
X197199642Y-45276580D01*
X197208187Y-45262409D01*
X197218117Y-45242361D01*
X197226816Y-45223433D01*
X197248335Y-45181402D01*
X197272013Y-45145087D01*
X197275798Y-45140107D01*
X197297017Y-45109563D01*
X197310752Y-45081969D01*
X197317223Y-45056769D01*
X197317143Y-45036543D01*
X197314492Y-45016869D01*
X197251779Y-44973743D01*
X197230731Y-44959044D01*
X197211461Y-44945169D01*
X197195345Y-44933140D01*
X197183757Y-44923979D01*
X197178605Y-44919333D01*
X197167686Y-44906228D01*
X197154900Y-44888846D01*
X197141457Y-44869077D01*
X197128565Y-44848809D01*
X197117435Y-44829933D01*
X197109275Y-44814336D01*
X197105661Y-44805366D01*
X197102230Y-44789680D01*
X197099158Y-44768595D01*
X197096607Y-44744371D01*
X197094744Y-44719269D01*
X197093733Y-44695547D01*
X197093738Y-44675465D01*
X197094925Y-44661283D01*
X197095090Y-44660400D01*
X197098489Y-44631449D01*
X197098520Y-44597920D01*
X197095295Y-44562954D01*
X197090637Y-44536897D01*
X197082006Y-44498150D01*
X197091299Y-44453333D01*
X197095667Y-44434475D01*
X197100213Y-44418514D01*
X197104326Y-44407417D01*
X197106795Y-44403440D01*
X197110358Y-44398088D01*
X197111284Y-44388697D01*
X197110105Y-44375224D01*
X197109300Y-44355038D01*
X197111481Y-44336434D01*
X197112044Y-44334148D01*
X197114123Y-44322370D01*
X197115903Y-44304811D01*
X197117155Y-44284156D01*
X197117595Y-44269231D01*
X197118317Y-44222250D01*
X197137562Y-44209550D01*
X197151828Y-44197977D01*
X197162012Y-44183635D01*
X197166818Y-44173566D01*
X197175001Y-44157612D01*
X197184942Y-44142363D01*
X197190552Y-44135466D01*
X197201448Y-44119971D01*
X197208472Y-44100141D01*
X197209572Y-44095250D01*
X197213818Y-44078975D01*
X197219125Y-44064036D01*
X197222685Y-44056650D01*
X197228585Y-44040413D01*
X197230500Y-44021447D01*
X197231308Y-44007139D01*
X197233365Y-43995362D01*
X197234802Y-43991406D01*
X197237558Y-43983519D01*
X197240954Y-43969931D01*
X197244337Y-43953307D01*
X197244948Y-43949892D01*
X197249352Y-43929251D01*
X197254884Y-43910007D01*
X197260909Y-43893828D01*
X197266794Y-43882381D01*
X197271902Y-43877335D01*
X197272594Y-43877233D01*
X197274684Y-43873451D01*
X197275547Y-43863691D01*
X197275297Y-43850338D01*
X197274050Y-43835774D01*
X197271922Y-43822382D01*
X197269519Y-43813733D01*
X197267393Y-43802157D01*
X197266870Y-43783761D01*
X197267874Y-43760021D01*
X197270329Y-43732417D01*
X197274161Y-43702427D01*
X197275747Y-43692051D01*
X197278771Y-43672495D01*
X197280354Y-43659475D01*
X197280462Y-43651177D01*
X197279064Y-43645790D01*
X197276127Y-43641501D01*
X197274826Y-43640029D01*
X197270468Y-43632700D01*
X197267284Y-43620841D01*
X197264911Y-43602846D01*
X197264015Y-43592378D01*
X197262156Y-43573101D01*
X197259766Y-43555318D01*
X197257262Y-43541956D01*
X197256372Y-43538664D01*
X197253507Y-43523194D01*
X197257036Y-43511522D01*
X197267802Y-43501046D01*
X197268851Y-43500288D01*
X197277212Y-43492099D01*
X197281236Y-43483764D01*
X197281300Y-43482849D01*
X197284878Y-43474723D01*
X197289468Y-43472138D01*
X197293501Y-43470089D01*
X197296110Y-43465357D01*
X197297720Y-43456225D01*
X197298756Y-43440981D01*
X197299083Y-43433376D01*
X197299535Y-43416357D01*
X197299493Y-43402541D01*
X197298980Y-43394137D01*
X197298668Y-43392823D01*
X197298015Y-43387243D01*
X197297650Y-43375053D01*
X197297600Y-43358106D01*
X197297853Y-43340144D01*
X197298667Y-43316697D01*
X197300127Y-43299732D01*
X197302520Y-43287268D01*
X197306132Y-43277328D01*
X197307325Y-43274875D01*
X197312314Y-43264204D01*
X197313304Y-43257811D01*
X197310498Y-43252623D01*
X197308928Y-43250822D01*
X197302130Y-43237751D01*
X197299656Y-43220381D01*
X197301337Y-43201591D01*
X197307007Y-43184257D01*
X197313372Y-43174403D01*
X197316587Y-43165859D01*
X197315069Y-43161703D01*
X197313273Y-43154069D01*
X197313051Y-43141597D01*
X197313667Y-43133924D01*
X197314200Y-43116236D01*
X197312600Y-43097005D01*
X197311403Y-43090178D01*
X197309261Y-43076796D01*
X197308924Y-43066522D01*
X197309739Y-43063021D01*
X197311947Y-43054572D01*
X197311783Y-43051637D01*
X197312538Y-43044401D01*
X197315568Y-43032144D01*
X197319316Y-43020230D01*
X197323883Y-43006039D01*
X197325525Y-42997084D01*
X197324411Y-42990723D01*
X197321535Y-42985550D01*
X197315684Y-42970987D01*
X197315586Y-42956082D01*
X197320972Y-42943650D01*
X197325968Y-42939018D01*
X197333090Y-42932658D01*
X197332466Y-42927643D01*
X197332318Y-42927491D01*
X197330321Y-42921477D01*
X197328787Y-42909215D01*
X197327953Y-42892919D01*
X197327867Y-42885508D01*
X197327363Y-42867531D01*
X197326019Y-42852022D01*
X197324087Y-42841510D01*
X197323271Y-42839389D01*
X197321147Y-42831713D01*
X197324986Y-42824236D01*
X197327504Y-42821403D01*
X197334776Y-42810424D01*
X197335723Y-42800797D01*
X197331514Y-42795254D01*
X197328755Y-42789221D01*
X197327719Y-42777167D01*
X197328189Y-42761313D01*
X197329951Y-42743878D01*
X197332786Y-42727084D01*
X197336480Y-42713151D01*
X197340308Y-42704964D01*
X197345379Y-42694825D01*
X197350679Y-42679417D01*
X197355163Y-42661841D01*
X197355647Y-42659477D01*
X197360216Y-42639626D01*
X197365883Y-42619385D01*
X197371430Y-42603110D01*
X197371474Y-42603000D01*
X197376733Y-42586795D01*
X197380150Y-42570620D01*
X197380863Y-42562649D01*
X197385094Y-42542094D01*
X197393598Y-42525235D01*
X197402531Y-42510585D01*
X197411132Y-42496153D01*
X197414651Y-42490100D01*
X197422039Y-42479430D01*
X197429512Y-42471897D01*
X197430835Y-42471039D01*
X197436052Y-42467003D01*
X197434357Y-42462253D01*
X197432143Y-42459685D01*
X197428630Y-42454576D01*
X197428023Y-42448362D01*
X197430354Y-42438276D01*
X197432446Y-42431493D01*
X197438816Y-42416250D01*
X197447114Y-42402246D01*
X197450741Y-42397683D01*
X197458203Y-42387288D01*
X197462705Y-42374448D01*
X197465160Y-42358484D01*
X197467825Y-42340163D01*
X197471613Y-42321639D01*
X197474211Y-42311917D01*
X197477790Y-42298815D01*
X197482200Y-42280432D01*
X197486729Y-42259811D01*
X197488833Y-42249516D01*
X197495051Y-42219911D01*
X197500896Y-42196632D01*
X197507094Y-42177609D01*
X197514371Y-42160771D01*
X197523450Y-42144051D01*
X197528968Y-42134968D01*
X197539067Y-42117772D01*
X197544944Y-42104699D01*
X197547572Y-42093190D01*
X197548000Y-42084899D01*
X197548851Y-42073372D01*
X197551007Y-42066358D01*
X197552383Y-42065367D01*
X197554594Y-42062759D01*
X197552368Y-42057150D01*
X197550494Y-42049790D01*
X197555418Y-42043751D01*
X197556784Y-42042761D01*
X197560501Y-42039679D01*
X197562862Y-42035599D01*
X197564033Y-42028923D01*
X197564178Y-42018055D01*
X197563463Y-42001394D01*
X197562598Y-41986419D01*
X197560675Y-41962585D01*
X197558101Y-41942775D01*
X197555130Y-41928727D01*
X197553400Y-41924046D01*
X197549723Y-41914593D01*
X197551163Y-41909531D01*
X197552234Y-41908733D01*
X197554684Y-41904369D01*
X197552171Y-41895974D01*
X197550225Y-41892009D01*
X197545713Y-41880005D01*
X197546555Y-41869056D01*
X197547659Y-41865561D01*
X197550086Y-41855493D01*
X197549766Y-41848906D01*
X197549702Y-41848795D01*
X197549780Y-41842463D01*
X197551346Y-41839756D01*
X197554725Y-41833037D01*
X197559095Y-41821168D01*
X197562086Y-41811550D01*
X197565731Y-41796530D01*
X197566042Y-41787273D01*
X197563978Y-41782698D01*
X197561700Y-41776272D01*
X197565038Y-41767138D01*
X197566257Y-41765003D01*
X197570653Y-41756301D01*
X197570243Y-41751182D01*
X197567006Y-41747829D01*
X197561932Y-41739613D01*
X197560700Y-41732781D01*
X197558865Y-41723887D01*
X197555988Y-41720054D01*
X197553092Y-41713928D01*
X197552508Y-41702573D01*
X197553900Y-41688801D01*
X197556931Y-41675424D01*
X197561267Y-41665255D01*
X197562774Y-41663248D01*
X197567589Y-41656231D01*
X197568134Y-41648345D01*
X197565815Y-41638841D01*
X197560757Y-41620608D01*
X197558517Y-41608813D01*
X197558992Y-41601950D01*
X197562079Y-41598509D01*
X197563030Y-41598087D01*
X197567248Y-41594336D01*
X197565116Y-41587341D01*
X197560965Y-41573164D01*
X197565000Y-41560444D01*
X197569110Y-41555310D01*
X197573388Y-41550347D01*
X197575294Y-41545554D01*
X197574837Y-41538620D01*
X197572025Y-41527232D01*
X197569248Y-41517433D01*
X197563254Y-41500108D01*
X197556809Y-41487509D01*
X197552372Y-41482480D01*
X197545709Y-41475559D01*
X197543767Y-41470343D01*
X197540524Y-41464881D01*
X197537905Y-41464233D01*
X197533606Y-41460309D01*
X197530272Y-41448356D01*
X197529010Y-41439891D01*
X197526710Y-41425283D01*
X197523995Y-41413419D01*
X197522230Y-41408528D01*
X197521651Y-41402456D01*
X197525605Y-41393225D01*
X197534713Y-41379472D01*
X197536677Y-41376778D01*
X197555263Y-41346008D01*
X197566850Y-41312949D01*
X197571507Y-41285143D01*
X197573547Y-41270656D01*
X197576512Y-41262349D01*
X197581404Y-41257935D01*
X197583906Y-41256829D01*
X197594599Y-41250578D01*
X197596950Y-41243068D01*
X197592865Y-41236091D01*
X197588295Y-41226660D01*
X197586325Y-41213645D01*
X197587032Y-41200590D01*
X197590492Y-41191036D01*
X197591865Y-41189553D01*
X197595662Y-41182799D01*
X197598951Y-41170884D01*
X197600195Y-41163099D01*
X197603197Y-41148170D01*
X197607865Y-41135133D01*
X197610306Y-41130826D01*
X197623530Y-41110302D01*
X197631572Y-41091933D01*
X197635569Y-41072243D01*
X197636651Y-41050425D01*
X197636900Y-41015500D01*
X195948076Y-41015500D01*
X195950743Y-40778433D01*
X195951299Y-40726441D01*
X195951699Y-40682322D01*
X195951934Y-40645482D01*
X195951999Y-40615329D01*
X195951885Y-40591269D01*
X195951585Y-40572710D01*
X195951091Y-40559059D01*
X195950397Y-40549722D01*
X195949495Y-40544108D01*
X195948376Y-40541622D01*
X195947779Y-40541367D01*
X195941788Y-40543285D01*
X195941788Y-40543285D01*
G37*
X195941788Y-40543285D02*
X195930357Y-40548434D01*
X195915430Y-40555905D01*
X195906524Y-40560627D01*
X195870902Y-40579888D01*
X195834210Y-40569093D01*
X195817279Y-40564281D01*
X195803144Y-40560573D01*
X195793980Y-40558528D01*
X195792084Y-40558299D01*
X195786658Y-40560550D01*
X195775796Y-40566692D01*
X195761033Y-40575809D01*
X195743903Y-40586983D01*
X195742484Y-40587933D01*
X195723170Y-40600311D01*
X195706482Y-40609894D01*
X195693894Y-40615887D01*
X195687592Y-40617567D01*
X195680244Y-40618124D01*
X195677422Y-40621194D01*
X195678389Y-40628877D01*
X195680679Y-40637262D01*
X195681543Y-40643797D01*
X195681221Y-40654095D01*
X195679592Y-40669034D01*
X195676540Y-40689490D01*
X195671946Y-40716342D01*
X195665691Y-40750467D01*
X195664673Y-40755892D01*
X195658322Y-40789223D01*
X195653123Y-40815294D01*
X195648796Y-40835187D01*
X195645060Y-40849985D01*
X195641634Y-40860772D01*
X195638237Y-40868630D01*
X195634587Y-40874643D01*
X195633487Y-40876138D01*
X195629709Y-40881947D01*
X195626101Y-40889681D01*
X195622382Y-40900367D01*
X195618268Y-40915033D01*
X195613476Y-40934705D01*
X195607724Y-40960410D01*
X195600730Y-40993175D01*
X195598971Y-41001558D01*
X195588142Y-41055921D01*
X195579949Y-41102980D01*
X195574403Y-41142610D01*
X195571516Y-41174688D01*
X195571301Y-41199087D01*
X195573770Y-41215685D01*
X195577508Y-41223071D01*
X195581253Y-41227827D01*
X195582968Y-41232998D01*
X195582684Y-41240756D01*
X195580435Y-41253272D01*
X195578124Y-41264114D01*
X195571745Y-41286193D01*
X195562432Y-41304180D01*
X195548922Y-41319411D01*
X195529953Y-41333220D01*
X195504261Y-41346943D01*
X195496276Y-41350684D01*
X195479485Y-41358924D01*
X195465772Y-41366667D01*
X195456895Y-41372860D01*
X195454514Y-41375657D01*
X195451365Y-41379203D01*
X195443583Y-41382042D01*
X195429852Y-41384510D01*
X195411152Y-41386709D01*
X195392205Y-41388575D01*
X195379823Y-41389324D01*
X195372151Y-41388739D01*
X195367336Y-41386607D01*
X195363523Y-41382711D01*
X195362189Y-41381026D01*
X195358167Y-41376603D01*
X195353220Y-41373726D01*
X195345575Y-41372062D01*
X195333459Y-41371273D01*
X195315097Y-41371024D01*
X195309272Y-41371007D01*
X195288924Y-41371093D01*
X195274475Y-41371811D01*
X195263362Y-41373698D01*
X195253017Y-41377293D01*
X195240875Y-41383135D01*
X195233704Y-41386869D01*
X195217938Y-41395563D01*
X195207594Y-41402907D01*
X195200393Y-41411070D01*
X195194059Y-41422224D01*
X195191877Y-41426706D01*
X195180463Y-41450587D01*
X195131273Y-41453431D01*
X195111181Y-41454640D01*
X195084974Y-41456287D01*
X195054981Y-41458221D01*
X195023533Y-41460292D01*
X194993184Y-41462334D01*
X194966306Y-41464148D01*
X194942062Y-41465747D01*
X194921808Y-41467048D01*
X194906900Y-41467962D01*
X194898694Y-41468403D01*
X194897766Y-41468430D01*
X194892672Y-41472010D01*
X194885204Y-41481627D01*
X194876591Y-41495656D01*
X194874966Y-41498613D01*
X194858683Y-41528760D01*
X194863158Y-41560647D01*
X194865282Y-41576997D01*
X194865821Y-41587202D01*
X194864512Y-41593476D01*
X194861092Y-41598036D01*
X194858441Y-41600424D01*
X194852271Y-41604520D01*
X194844361Y-41606578D01*
X194832367Y-41606927D01*
X194817500Y-41606145D01*
X194801789Y-41605073D01*
X194780076Y-41603594D01*
X194754808Y-41601875D01*
X194728430Y-41600081D01*
X194718017Y-41599374D01*
X194686525Y-41596881D01*
X194661543Y-41594016D01*
X194641115Y-41590483D01*
X194623286Y-41585988D01*
X194617611Y-41584233D01*
X194601636Y-41578876D01*
X194591264Y-41573924D01*
X194585141Y-41567450D01*
X194581913Y-41557527D01*
X194580227Y-41542227D01*
X194579403Y-41529850D01*
X194578257Y-41519796D01*
X194575030Y-41513803D01*
X194567567Y-41509547D01*
X194557150Y-41505848D01*
X194540266Y-41501482D01*
X194522623Y-41498797D01*
X194516555Y-41498439D01*
X194503736Y-41497414D01*
X194496568Y-41494148D01*
X194492717Y-41488422D01*
X194488426Y-41482927D01*
X194479958Y-41477792D01*
X194465831Y-41472284D01*
X194449928Y-41467255D01*
X194421452Y-41459700D01*
X194399400Y-41456196D01*
X194382766Y-41456729D01*
X194370547Y-41461284D01*
X194364841Y-41466023D01*
X194355206Y-41476279D01*
X194260703Y-41473843D01*
X194166200Y-41471408D01*
X194164825Y-41484955D01*
X194164152Y-41489390D01*
X194162497Y-41493275D01*
X194158914Y-41497170D01*
X194152458Y-41501635D01*
X194142182Y-41507230D01*
X194127142Y-41514513D01*
X194106392Y-41524044D01*
X194078987Y-41536383D01*
X194074551Y-41538373D01*
X193985651Y-41578243D01*
X193948859Y-41578388D01*
X193932099Y-41578795D01*
X193918849Y-41579757D01*
X193911169Y-41581097D01*
X193910113Y-41581708D01*
X193908368Y-41587491D01*
X193906191Y-41598496D01*
X193905197Y-41604667D01*
X193902236Y-41624451D01*
X193922777Y-41627225D01*
X193941802Y-41630178D01*
X193954230Y-41633571D01*
X193961904Y-41638496D01*
X193966667Y-41646047D01*
X193969720Y-41655054D01*
X193972717Y-41667351D01*
X193972464Y-41675274D01*
X193968704Y-41682372D01*
X193967630Y-41683842D01*
X193958958Y-41691685D01*
X193946394Y-41699082D01*
X193942097Y-41700949D01*
X193934300Y-41703714D01*
X193926760Y-41705354D01*
X193917724Y-41705865D01*
X193905438Y-41705245D01*
X193888151Y-41703490D01*
X193865963Y-41700828D01*
X193807851Y-41693661D01*
X193766215Y-41734569D01*
X193781201Y-41789929D01*
X193739991Y-41875789D01*
X193727957Y-41900735D01*
X193717035Y-41923136D01*
X193707788Y-41941855D01*
X193700781Y-41955753D01*
X193696579Y-41963694D01*
X193695721Y-41965058D01*
X193691143Y-41964687D01*
X193680843Y-41961809D01*
X193666906Y-41957187D01*
X193651421Y-41951583D01*
X193636474Y-41945761D01*
X193624153Y-41940482D01*
X193616543Y-41936511D01*
X193615570Y-41935764D01*
X193616812Y-41931874D01*
X193622278Y-41924795D01*
X193622462Y-41924591D01*
X193627881Y-41915360D01*
X193633486Y-41900377D01*
X193638241Y-41882497D01*
X193645346Y-41849912D01*
X193629231Y-41828764D01*
X193618925Y-41816167D01*
X193610365Y-41809607D01*
X193600703Y-41808178D01*
X193587093Y-41810975D01*
X193579915Y-41813071D01*
X193568676Y-41816108D01*
X193560371Y-41816583D01*
X193551745Y-41813991D01*
X193539546Y-41807829D01*
X193536909Y-41806403D01*
X193524948Y-41800576D01*
X193516549Y-41797729D01*
X193513634Y-41798349D01*
X193509524Y-41800744D01*
X193497617Y-41802284D01*
X193478547Y-41802893D01*
X193475906Y-41802900D01*
X193438178Y-41802900D01*
X193435396Y-41819365D01*
X193432882Y-41829791D01*
X193428183Y-41835684D01*
X193418687Y-41839677D01*
X193413857Y-41841082D01*
X193404835Y-41843824D01*
X193399095Y-41847084D01*
X193396165Y-41852508D01*
X193395574Y-41861737D01*
X193396847Y-41876416D01*
X193398889Y-41893157D01*
X193400358Y-41907208D01*
X193399814Y-41915797D01*
X193396470Y-41921839D01*
X193389541Y-41928250D01*
X193389395Y-41928373D01*
X193377178Y-41935941D01*
X193366914Y-41936460D01*
X193359448Y-41935938D01*
X193357089Y-41940987D01*
X193357008Y-41943578D01*
X193356386Y-41948952D01*
X193353165Y-41951654D01*
X193345332Y-41952369D01*
X193332667Y-41951882D01*
X193308317Y-41950580D01*
X193284545Y-41988710D01*
X193263483Y-41986215D01*
X193249770Y-41985266D01*
X193240879Y-41987014D01*
X193233389Y-41992220D01*
X193232420Y-41993115D01*
X193224377Y-41999187D01*
X193216221Y-42000278D01*
X193207255Y-41998322D01*
X193193932Y-41996459D01*
X193180940Y-41997509D01*
X193170482Y-42000867D01*
X193164761Y-42005925D01*
X193164703Y-42010035D01*
X193169219Y-42022704D01*
X193169430Y-42029416D01*
X193165351Y-42031494D01*
X193164958Y-42031500D01*
X193159005Y-42035272D01*
X193155644Y-42043142D01*
X193153138Y-42053784D01*
X193151369Y-42060320D01*
X193152130Y-42067195D01*
X193156062Y-42078075D01*
X193158467Y-42083149D01*
X193163547Y-42093530D01*
X193164736Y-42098035D01*
X193162147Y-42098245D01*
X193159486Y-42097240D01*
X193146714Y-42092539D01*
X193139811Y-42091842D01*
X193137134Y-42095250D01*
X193136867Y-42098635D01*
X193135835Y-42104630D01*
X193131097Y-42105087D01*
X193126008Y-42103362D01*
X193114948Y-42099852D01*
X193109276Y-42100738D01*
X193106814Y-42106620D01*
X193106470Y-42108758D01*
X193104808Y-42114387D01*
X193100408Y-42116990D01*
X193090984Y-42117411D01*
X193083950Y-42117083D01*
X193067483Y-42115836D01*
X193051448Y-42114143D01*
X193046789Y-42113515D01*
X193030794Y-42111148D01*
X193041318Y-42134945D01*
X193046615Y-42148558D01*
X193049657Y-42159679D01*
X193049904Y-42164971D01*
X193046821Y-42174824D01*
X193045871Y-42177844D01*
X193043639Y-42180657D01*
X193038601Y-42180349D01*
X193029237Y-42176501D01*
X193015317Y-42169377D01*
X192991633Y-42158840D01*
X192971397Y-42153961D01*
X192955417Y-42154788D01*
X192944503Y-42161372D01*
X192942134Y-42164850D01*
X192936856Y-42172540D01*
X192932778Y-42175433D01*
X192927327Y-42173645D01*
X192916776Y-42168985D01*
X192904919Y-42163211D01*
X192880250Y-42153619D01*
X192847514Y-42145677D01*
X192834476Y-42143346D01*
X192788202Y-42135702D01*
X192727440Y-42081487D01*
X192704237Y-42060839D01*
X192686248Y-42045089D01*
X192672388Y-42033471D01*
X192661572Y-42025224D01*
X192652718Y-42019585D01*
X192644741Y-42015789D01*
X192636558Y-42013075D01*
X192627083Y-42010678D01*
X192626750Y-42010599D01*
X192608222Y-42003712D01*
X192591025Y-41991378D01*
X192586534Y-41987212D01*
X192573910Y-41976913D01*
X192558104Y-41966712D01*
X192540771Y-41957346D01*
X192523564Y-41949548D01*
X192508139Y-41944056D01*
X192496151Y-41941604D01*
X192489253Y-41942927D01*
X192488638Y-41943697D01*
X192484172Y-41947990D01*
X192476298Y-41947835D01*
X192471165Y-41946527D01*
X192461616Y-41943871D01*
X192456535Y-41942615D01*
X192456387Y-41942600D01*
X192455910Y-41946519D01*
X192455540Y-41957023D01*
X192455329Y-41972230D01*
X192455300Y-41980985D01*
X192455166Y-41999094D01*
X192454547Y-42010223D01*
X192453123Y-42015858D01*
X192450573Y-42017484D01*
X192447534Y-42016906D01*
X192441012Y-42017403D01*
X192434703Y-42024290D01*
X192431659Y-42029530D01*
X192424308Y-42040038D01*
X192417342Y-42042906D01*
X192416142Y-42042689D01*
X192410846Y-42041621D01*
X192409310Y-42043327D01*
X192411499Y-42049551D01*
X192415810Y-42058751D01*
X192420079Y-42068598D01*
X192420054Y-42074378D01*
X192415167Y-42079626D01*
X192412068Y-42082099D01*
X192403468Y-42091635D01*
X192395789Y-42104538D01*
X192394443Y-42107621D01*
X192389466Y-42118347D01*
X192383978Y-42123256D01*
X192374880Y-42124593D01*
X192370945Y-42124633D01*
X192360647Y-42123220D01*
X192344549Y-42119361D01*
X192324761Y-42113626D01*
X192303395Y-42106585D01*
X192300950Y-42105724D01*
X192278536Y-42097951D01*
X192262525Y-42092938D01*
X192251441Y-42090356D01*
X192243804Y-42089878D01*
X192238134Y-42091174D01*
X192237207Y-42091572D01*
X192230239Y-42096053D01*
X192230549Y-42100767D01*
X192231485Y-42102014D01*
X192234411Y-42109628D01*
X192229507Y-42115409D01*
X192217266Y-42119089D01*
X192198180Y-42120400D01*
X192197880Y-42120400D01*
X192181401Y-42119849D01*
X192170640Y-42117752D01*
X192162895Y-42113441D01*
X192160194Y-42111097D01*
X192150291Y-42101794D01*
X192141339Y-42110747D01*
X192134847Y-42116372D01*
X192129041Y-42117290D01*
X192120140Y-42113854D01*
X192118150Y-42112911D01*
X192108203Y-42108806D01*
X192101289Y-42109104D01*
X192092976Y-42114216D01*
X192091395Y-42115378D01*
X192082639Y-42121436D01*
X192075742Y-42123893D01*
X192067792Y-42122808D01*
X192055877Y-42118240D01*
X192051094Y-42116199D01*
X192038815Y-42111376D01*
X192030713Y-42110067D01*
X192023361Y-42112067D01*
X192018852Y-42114265D01*
X192013053Y-42116820D01*
X192006749Y-42118111D01*
X191998280Y-42118042D01*
X191985985Y-42116516D01*
X191968203Y-42113435D01*
X191951904Y-42110360D01*
X191897524Y-42099956D01*
X191844841Y-42116589D01*
X191823199Y-42123527D01*
X191808120Y-42128829D01*
X191798068Y-42133315D01*
X191791503Y-42137805D01*
X191786887Y-42143120D01*
X191782946Y-42149612D01*
X191775729Y-42168690D01*
X191773734Y-42184507D01*
X191773132Y-42195925D01*
X191770038Y-42203260D01*
X191762517Y-42209629D01*
X191755359Y-42214110D01*
X191742166Y-42220918D01*
X191733319Y-42222390D01*
X191729865Y-42221225D01*
X191724355Y-42220041D01*
X191719856Y-42224854D01*
X191716921Y-42231096D01*
X191707620Y-42244010D01*
X191696910Y-42249727D01*
X191690313Y-42251507D01*
X191683887Y-42251610D01*
X191675938Y-42249496D01*
X191664772Y-42244628D01*
X191648694Y-42236466D01*
X191638793Y-42231251D01*
X191594861Y-42207999D01*
X191539306Y-42221012D01*
X191483750Y-42234024D01*
X191472208Y-42223082D01*
X191460666Y-42212139D01*
X191451441Y-42223866D01*
X191446858Y-42229249D01*
X191442185Y-42232487D01*
X191435784Y-42233600D01*
X191426019Y-42232608D01*
X191411252Y-42229532D01*
X191390747Y-42224611D01*
X191377045Y-42221344D01*
X191370448Y-42220235D01*
X191369838Y-42221424D01*
X191374098Y-42225050D01*
X191375931Y-42226459D01*
X191385249Y-42231819D01*
X191399590Y-42238100D01*
X191416723Y-42244551D01*
X191434420Y-42250418D01*
X191450451Y-42254950D01*
X191462586Y-42257395D01*
X191467714Y-42257426D01*
X191477128Y-42258179D01*
X191482719Y-42260955D01*
X191487583Y-42266711D01*
X191487507Y-42275127D01*
X191486337Y-42279696D01*
X191484293Y-42288581D01*
X191485901Y-42291506D01*
X191490609Y-42290827D01*
X191498464Y-42287339D01*
X191501000Y-42284989D01*
X191506676Y-42281869D01*
X191511517Y-42281266D01*
X191517243Y-42283062D01*
X191519511Y-42289904D01*
X191519734Y-42295827D01*
X191520169Y-42302235D01*
X191522243Y-42307784D01*
X191527111Y-42313665D01*
X191535929Y-42321071D01*
X191549851Y-42331194D01*
X191562659Y-42340124D01*
X191585496Y-42355267D01*
X191605347Y-42366556D01*
X191625610Y-42375702D01*
X191649682Y-42384415D01*
X191652618Y-42385390D01*
X191680954Y-42395173D01*
X191701587Y-42403318D01*
X191715064Y-42410084D01*
X191721934Y-42415730D01*
X191723112Y-42418704D01*
X191727126Y-42423350D01*
X191738203Y-42430068D01*
X191755317Y-42438425D01*
X191777445Y-42447986D01*
X191803561Y-42458318D01*
X191832641Y-42468989D01*
X191863659Y-42479563D01*
X191877453Y-42484009D01*
X191903203Y-42492344D01*
X191934923Y-42502903D01*
X191970628Y-42515010D01*
X192008335Y-42527985D01*
X192046059Y-42541152D01*
X192081816Y-42553832D01*
X192081960Y-42553884D01*
X192118257Y-42566954D01*
X192147832Y-42577836D01*
X192171977Y-42587087D01*
X192191979Y-42595264D01*
X192209127Y-42602925D01*
X192224710Y-42610626D01*
X192240017Y-42618926D01*
X192256337Y-42628380D01*
X192261875Y-42631676D01*
X192284746Y-42645227D01*
X192308334Y-42659000D01*
X192330188Y-42671576D01*
X192347856Y-42681536D01*
X192351292Y-42683429D01*
X192367366Y-42693166D01*
X192387485Y-42706748D01*
X192409271Y-42722500D01*
X192430347Y-42738747D01*
X192433842Y-42741563D01*
X192456634Y-42760028D01*
X192482855Y-42781210D01*
X192509319Y-42802541D01*
X192532843Y-42821450D01*
X192533617Y-42822072D01*
X192568182Y-42850137D01*
X192596648Y-42874047D01*
X192619825Y-42894543D01*
X192638520Y-42912366D01*
X192653544Y-42928256D01*
X192665705Y-42942954D01*
X192665922Y-42943236D01*
X192675554Y-42955298D01*
X192689407Y-42971928D01*
X192706027Y-42991414D01*
X192723956Y-43012041D01*
X192735626Y-43025254D01*
X192751772Y-43043724D01*
X192765740Y-43060309D01*
X192776616Y-43073876D01*
X192783488Y-43083290D01*
X192785500Y-43087203D01*
X192788453Y-43093075D01*
X192796072Y-43102060D01*
X192803492Y-43109258D01*
X192814148Y-43119593D01*
X192828035Y-43134103D01*
X192842957Y-43150462D01*
X192851117Y-43159759D01*
X192867724Y-43178281D01*
X192886640Y-43198285D01*
X192904667Y-43216423D01*
X192910893Y-43222385D01*
X192925279Y-43236429D01*
X192938353Y-43250137D01*
X192948088Y-43261345D01*
X192950894Y-43265077D01*
X192961306Y-43276321D01*
X192974718Y-43286106D01*
X192977902Y-43287805D01*
X192991462Y-43295628D01*
X193006558Y-43306090D01*
X193013443Y-43311522D01*
X193024894Y-43320037D01*
X193034835Y-43325621D01*
X193039362Y-43326900D01*
X193046172Y-43330004D01*
X193056270Y-43338160D01*
X193067883Y-43349631D01*
X193079235Y-43362684D01*
X193087576Y-43374061D01*
X193094895Y-43382573D01*
X193106127Y-43392915D01*
X193113528Y-43398824D01*
X193123995Y-43407407D01*
X193130939Y-43414519D01*
X193132642Y-43417645D01*
X193136014Y-43422082D01*
X193146086Y-43431582D01*
X193162808Y-43446102D01*
X193186126Y-43465597D01*
X193215989Y-43490026D01*
X193252344Y-43519344D01*
X193295139Y-43553507D01*
X193314667Y-43569010D01*
X193355761Y-43601901D01*
X193390567Y-43630516D01*
X193419711Y-43655465D01*
X193443819Y-43677360D01*
X193463516Y-43696813D01*
X193479427Y-43714435D01*
X193492178Y-43730838D01*
X193502395Y-43746633D01*
X193509106Y-43759127D01*
X193515282Y-43767930D01*
X193524163Y-43771159D01*
X193529695Y-43771400D01*
X193539383Y-43771957D01*
X193542812Y-43775275D01*
X193542184Y-43783823D01*
X193541967Y-43785158D01*
X193542602Y-43797433D01*
X193546994Y-43812204D01*
X193553874Y-43826819D01*
X193561974Y-43838627D01*
X193570024Y-43844974D01*
X193570687Y-43845183D01*
X193579409Y-43846424D01*
X193593241Y-43847282D01*
X193605709Y-43847542D01*
X193632167Y-43847600D01*
X193632167Y-44520174D01*
X193650824Y-44533572D01*
X193663531Y-44544311D01*
X193670863Y-44555534D01*
X193674212Y-44565758D01*
X193679001Y-44579677D01*
X193685700Y-44586342D01*
X193696366Y-44586963D01*
X193706402Y-44584698D01*
X193717383Y-44582527D01*
X193725731Y-44584210D01*
X193735683Y-44590687D01*
X193736629Y-44591406D01*
X193747845Y-44602133D01*
X193758733Y-44615894D01*
X193761938Y-44620918D01*
X193772756Y-44639378D01*
X193799463Y-44636642D01*
X193826170Y-44633905D01*
X193834894Y-44651005D01*
X193840741Y-44660825D01*
X193847689Y-44667370D01*
X193858344Y-44672530D01*
X193870184Y-44676578D01*
X193885927Y-44681430D01*
X193900004Y-44685480D01*
X193908025Y-44687531D01*
X193917266Y-44691770D01*
X193929207Y-44700082D01*
X193937658Y-44707356D01*
X193950419Y-44719017D01*
X193963116Y-44729999D01*
X193969336Y-44735051D01*
X193981544Y-44749354D01*
X193985526Y-44761108D01*
X193991314Y-44776109D01*
X194002064Y-44790934D01*
X194002866Y-44791777D01*
X194011466Y-44801394D01*
X194014947Y-44808533D01*
X194014444Y-44816422D01*
X194013202Y-44821146D01*
X194011390Y-44830331D01*
X194012579Y-44838599D01*
X194017538Y-44848969D01*
X194022352Y-44856985D01*
X194035629Y-44878051D01*
X194046004Y-44893351D01*
X194054795Y-44904461D01*
X194063319Y-44912954D01*
X194072896Y-44920406D01*
X194078871Y-44924485D01*
X194092425Y-44934402D01*
X194100074Y-44942820D01*
X194103599Y-44951798D01*
X194103905Y-44953462D01*
X194105899Y-44965477D01*
X194108608Y-44981539D01*
X194110465Y-44992436D01*
X194112658Y-45010113D01*
X194114120Y-45031357D01*
X194114523Y-45049586D01*
X194112811Y-45074351D01*
X194107604Y-45092316D01*
X194098145Y-45104691D01*
X194083675Y-45112687D01*
X194073142Y-45115694D01*
X194052921Y-45118467D01*
X194035555Y-45116457D01*
X194034622Y-45116214D01*
X194024090Y-45114221D01*
X194015745Y-45115372D01*
X194008375Y-45120726D01*
X194000767Y-45131346D01*
X193991708Y-45148292D01*
X193987050Y-45157817D01*
X193977402Y-45176141D01*
X193966602Y-45194080D01*
X193956688Y-45208294D01*
X193954901Y-45210503D01*
X193940402Y-45228008D01*
X193930587Y-45240865D01*
X193924552Y-45250782D01*
X193921388Y-45259469D01*
X193920189Y-45268635D01*
X193920034Y-45276230D01*
X193920514Y-45287882D01*
X193922597Y-45297683D01*
X193927245Y-45307582D01*
X193935421Y-45319527D01*
X193948087Y-45335467D01*
X193951108Y-45339142D01*
X193963286Y-45356597D01*
X193969909Y-45373738D01*
X193971387Y-45381178D01*
X193975135Y-45396457D01*
X193982091Y-45408972D01*
X193992414Y-45420705D01*
X194010031Y-45438655D01*
X194007882Y-45476036D01*
X194007398Y-45495969D01*
X194008039Y-45515413D01*
X194009662Y-45530833D01*
X194010195Y-45533605D01*
X194012488Y-45547882D01*
X194011379Y-45558788D01*
X194007093Y-45569589D01*
X194002364Y-45583051D01*
X193998583Y-45600124D01*
X193997267Y-45610014D01*
X193996257Y-45624043D01*
X193997194Y-45632723D01*
X194001140Y-45639122D01*
X194009160Y-45646310D01*
X194010121Y-45647103D01*
X194025198Y-45661915D01*
X194035919Y-45677284D01*
X194041208Y-45691387D01*
X194041111Y-45699488D01*
X194036673Y-45709517D01*
X194029144Y-45720774D01*
X194027985Y-45722193D01*
X194019430Y-45737211D01*
X194017401Y-45752074D01*
X194016653Y-45765569D01*
X194014711Y-45783163D01*
X194012479Y-45798075D01*
X194010001Y-45816636D01*
X194010054Y-45832322D01*
X194012774Y-45849829D01*
X194014181Y-45856362D01*
X194018800Y-45889832D01*
X194018783Y-45924050D01*
X194018132Y-45945238D01*
X194019126Y-45962080D01*
X194022250Y-45978616D01*
X194027665Y-45997821D01*
X194032721Y-46016171D01*
X194036532Y-46033439D01*
X194038454Y-46046598D01*
X194038567Y-46049224D01*
X194038290Y-46055287D01*
X194036808Y-46060582D01*
X194033144Y-46066118D01*
X194026321Y-46072906D01*
X194015362Y-46081954D01*
X193999290Y-46094272D01*
X193983523Y-46106091D01*
X193955649Y-46127550D01*
X193934260Y-46145580D01*
X193918532Y-46161035D01*
X193907646Y-46174768D01*
X193900781Y-46187631D01*
X193898482Y-46194422D01*
X193894805Y-46203885D01*
X193888697Y-46208782D01*
X193877154Y-46211513D01*
X193877050Y-46211529D01*
X193860984Y-46216882D01*
X193843982Y-46228494D01*
X193839178Y-46232659D01*
X193828353Y-46241813D01*
X193818689Y-46247919D01*
X193807461Y-46252159D01*
X193791944Y-46255713D01*
X193781568Y-46257631D01*
X193759952Y-46261189D01*
X193737011Y-46264498D01*
X193717216Y-46266917D01*
X193714717Y-46267172D01*
X193690679Y-46270361D01*
X193673856Y-46274818D01*
X193663022Y-46281119D01*
X193656953Y-46289840D01*
X193655356Y-46295132D01*
X193649181Y-46314481D01*
X193638560Y-46333944D01*
X193622523Y-46355027D01*
X193603606Y-46375661D01*
X193588406Y-46390853D01*
X193577054Y-46400838D01*
X193567871Y-46406823D01*
X193559176Y-46410014D01*
X193554464Y-46410942D01*
X193541119Y-46414215D01*
X193521990Y-46420434D01*
X193498914Y-46428857D01*
X193473728Y-46438742D01*
X193448269Y-46449348D01*
X193424374Y-46459933D01*
X193403881Y-46469756D01*
X193389544Y-46477521D01*
X193373600Y-46487709D01*
X193362871Y-46496811D01*
X193354890Y-46507302D01*
X193348794Y-46518421D01*
X193341745Y-46533842D01*
X193336069Y-46548738D01*
X193333703Y-46556933D01*
X193328630Y-46570241D01*
X193320417Y-46583250D01*
X193319251Y-46584641D01*
X193310557Y-46598765D01*
X193303083Y-46620144D01*
X193300066Y-46632189D01*
X193296330Y-46647833D01*
X193292686Y-46659134D01*
X193287768Y-46668323D01*
X193280204Y-46677634D01*
X193268628Y-46689300D01*
X193259966Y-46697614D01*
X193243242Y-46713159D01*
X193221467Y-46732733D01*
X193196155Y-46755018D01*
X193168822Y-46778697D01*
X193140981Y-46802453D01*
X193114149Y-46824969D01*
X193101651Y-46835295D01*
X193075891Y-46852315D01*
X193042738Y-46867037D01*
X193001795Y-46879633D01*
X192995050Y-46881327D01*
X192972556Y-46887187D01*
X192956348Y-46892736D01*
X192944396Y-46899244D01*
X192934667Y-46907980D01*
X192925131Y-46920214D01*
X192919432Y-46928592D01*
X192909793Y-46942502D01*
X192896429Y-46960984D01*
X192880865Y-46981966D01*
X192864627Y-47003379D01*
X192858709Y-47011053D01*
X192839832Y-47036088D01*
X192825544Y-47056818D01*
X192814663Y-47075135D01*
X192806012Y-47092931D01*
X192802664Y-47100942D01*
X192788077Y-47137348D01*
X192793318Y-47178399D01*
X192795638Y-47199582D01*
X192797929Y-47225694D01*
X192799906Y-47253199D01*
X192801139Y-47275309D01*
X192803719Y-47331169D01*
X192789860Y-47346953D01*
X192782631Y-47355667D01*
X192778671Y-47362969D01*
X192777242Y-47371729D01*
X192777606Y-47384816D01*
X192778133Y-47392525D01*
X192778193Y-47419616D01*
X192774370Y-47439016D01*
X192771257Y-47449908D01*
X192770539Y-47457117D01*
X192770964Y-47458208D01*
X192775417Y-47458462D01*
X192788096Y-47458704D01*
X192808762Y-47458936D01*
X192837174Y-47459155D01*
X192873093Y-47459363D01*
X192916277Y-47459559D01*
X192966487Y-47459743D01*
X193023482Y-47459915D01*
X193087023Y-47460074D01*
X193156870Y-47460221D01*
X193232781Y-47460356D01*
X193314518Y-47460478D01*
X193401839Y-47460587D01*
X193494506Y-47460683D01*
X193592277Y-47460766D01*
X193694912Y-47460836D01*
X193802172Y-47460893D01*
X193913816Y-47460936D01*
X194029604Y-47460965D01*
X194149296Y-47460981D01*
X194272651Y-47460983D01*
X194399430Y-47460971D01*
X194529393Y-47460944D01*
X194662299Y-47460904D01*
X194797908Y-47460849D01*
X194935980Y-47460780D01*
X195076275Y-47460696D01*
X195218553Y-47460597D01*
X195362573Y-47460483D01*
X195508096Y-47460354D01*
X195654881Y-47460210D01*
X195802688Y-47460051D01*
X195907609Y-47459929D01*
X197004068Y-47458617D01*
X197004043Y-46437333D01*
X197004017Y-45416050D01*
X197022489Y-45381753D01*
X197040961Y-45347457D01*
X197085989Y-45323837D01*
X197108880Y-45312337D01*
X197126922Y-45304628D01*
X197142360Y-45299881D01*
X197157441Y-45297267D01*
X197158221Y-45297178D01*
X197171772Y-45295173D01*
X197182489Y-45291828D01*
X197191428Y-45286008D01*
X197199642Y-45276580D01*
X197208187Y-45262409D01*
X197218117Y-45242361D01*
X197226816Y-45223433D01*
X197248335Y-45181402D01*
X197272013Y-45145087D01*
X197275798Y-45140107D01*
X197297017Y-45109563D01*
X197310752Y-45081969D01*
X197317223Y-45056769D01*
X197317143Y-45036543D01*
X197314492Y-45016869D01*
X197251779Y-44973743D01*
X197230731Y-44959044D01*
X197211461Y-44945169D01*
X197195345Y-44933140D01*
X197183757Y-44923979D01*
X197178605Y-44919333D01*
X197167686Y-44906228D01*
X197154900Y-44888846D01*
X197141457Y-44869077D01*
X197128565Y-44848809D01*
X197117435Y-44829933D01*
X197109275Y-44814336D01*
X197105661Y-44805366D01*
X197102230Y-44789680D01*
X197099158Y-44768595D01*
X197096607Y-44744371D01*
X197094744Y-44719269D01*
X197093733Y-44695547D01*
X197093738Y-44675465D01*
X197094925Y-44661283D01*
X197095090Y-44660400D01*
X197098489Y-44631449D01*
X197098520Y-44597920D01*
X197095295Y-44562954D01*
X197090637Y-44536897D01*
X197082006Y-44498150D01*
X197091299Y-44453333D01*
X197095667Y-44434475D01*
X197100213Y-44418514D01*
X197104326Y-44407417D01*
X197106795Y-44403440D01*
X197110358Y-44398088D01*
X197111284Y-44388697D01*
X197110105Y-44375224D01*
X197109300Y-44355038D01*
X197111481Y-44336434D01*
X197112044Y-44334148D01*
X197114123Y-44322370D01*
X197115903Y-44304811D01*
X197117155Y-44284156D01*
X197117595Y-44269231D01*
X197118317Y-44222250D01*
X197137562Y-44209550D01*
X197151828Y-44197977D01*
X197162012Y-44183635D01*
X197166818Y-44173566D01*
X197175001Y-44157612D01*
X197184942Y-44142363D01*
X197190552Y-44135466D01*
X197201448Y-44119971D01*
X197208472Y-44100141D01*
X197209572Y-44095250D01*
X197213818Y-44078975D01*
X197219125Y-44064036D01*
X197222685Y-44056650D01*
X197228585Y-44040413D01*
X197230500Y-44021447D01*
X197231308Y-44007139D01*
X197233365Y-43995362D01*
X197234802Y-43991406D01*
X197237558Y-43983519D01*
X197240954Y-43969931D01*
X197244337Y-43953307D01*
X197244948Y-43949892D01*
X197249352Y-43929251D01*
X197254884Y-43910007D01*
X197260909Y-43893828D01*
X197266794Y-43882381D01*
X197271902Y-43877335D01*
X197272594Y-43877233D01*
X197274684Y-43873451D01*
X197275547Y-43863691D01*
X197275297Y-43850338D01*
X197274050Y-43835774D01*
X197271922Y-43822382D01*
X197269519Y-43813733D01*
X197267393Y-43802157D01*
X197266870Y-43783761D01*
X197267874Y-43760021D01*
X197270329Y-43732417D01*
X197274161Y-43702427D01*
X197275747Y-43692051D01*
X197278771Y-43672495D01*
X197280354Y-43659475D01*
X197280462Y-43651177D01*
X197279064Y-43645790D01*
X197276127Y-43641501D01*
X197274826Y-43640029D01*
X197270468Y-43632700D01*
X197267284Y-43620841D01*
X197264911Y-43602846D01*
X197264015Y-43592378D01*
X197262156Y-43573101D01*
X197259766Y-43555318D01*
X197257262Y-43541956D01*
X197256372Y-43538664D01*
X197253507Y-43523194D01*
X197257036Y-43511522D01*
X197267802Y-43501046D01*
X197268851Y-43500288D01*
X197277212Y-43492099D01*
X197281236Y-43483764D01*
X197281300Y-43482849D01*
X197284878Y-43474723D01*
X197289468Y-43472138D01*
X197293501Y-43470089D01*
X197296110Y-43465357D01*
X197297720Y-43456225D01*
X197298756Y-43440981D01*
X197299083Y-43433376D01*
X197299535Y-43416357D01*
X197299493Y-43402541D01*
X197298980Y-43394137D01*
X197298668Y-43392823D01*
X197298015Y-43387243D01*
X197297650Y-43375053D01*
X197297600Y-43358106D01*
X197297853Y-43340144D01*
X197298667Y-43316697D01*
X197300127Y-43299732D01*
X197302520Y-43287268D01*
X197306132Y-43277328D01*
X197307325Y-43274875D01*
X197312314Y-43264204D01*
X197313304Y-43257811D01*
X197310498Y-43252623D01*
X197308928Y-43250822D01*
X197302130Y-43237751D01*
X197299656Y-43220381D01*
X197301337Y-43201591D01*
X197307007Y-43184257D01*
X197313372Y-43174403D01*
X197316587Y-43165859D01*
X197315069Y-43161703D01*
X197313273Y-43154069D01*
X197313051Y-43141597D01*
X197313667Y-43133924D01*
X197314200Y-43116236D01*
X197312600Y-43097005D01*
X197311403Y-43090178D01*
X197309261Y-43076796D01*
X197308924Y-43066522D01*
X197309739Y-43063021D01*
X197311947Y-43054572D01*
X197311783Y-43051637D01*
X197312538Y-43044401D01*
X197315568Y-43032144D01*
X197319316Y-43020230D01*
X197323883Y-43006039D01*
X197325525Y-42997084D01*
X197324411Y-42990723D01*
X197321535Y-42985550D01*
X197315684Y-42970987D01*
X197315586Y-42956082D01*
X197320972Y-42943650D01*
X197325968Y-42939018D01*
X197333090Y-42932658D01*
X197332466Y-42927643D01*
X197332318Y-42927491D01*
X197330321Y-42921477D01*
X197328787Y-42909215D01*
X197327953Y-42892919D01*
X197327867Y-42885508D01*
X197327363Y-42867531D01*
X197326019Y-42852022D01*
X197324087Y-42841510D01*
X197323271Y-42839389D01*
X197321147Y-42831713D01*
X197324986Y-42824236D01*
X197327504Y-42821403D01*
X197334776Y-42810424D01*
X197335723Y-42800797D01*
X197331514Y-42795254D01*
X197328755Y-42789221D01*
X197327719Y-42777167D01*
X197328189Y-42761313D01*
X197329951Y-42743878D01*
X197332786Y-42727084D01*
X197336480Y-42713151D01*
X197340308Y-42704964D01*
X197345379Y-42694825D01*
X197350679Y-42679417D01*
X197355163Y-42661841D01*
X197355647Y-42659477D01*
X197360216Y-42639626D01*
X197365883Y-42619385D01*
X197371430Y-42603110D01*
X197371474Y-42603000D01*
X197376733Y-42586795D01*
X197380150Y-42570620D01*
X197380863Y-42562649D01*
X197385094Y-42542094D01*
X197393598Y-42525235D01*
X197402531Y-42510585D01*
X197411132Y-42496153D01*
X197414651Y-42490100D01*
X197422039Y-42479430D01*
X197429512Y-42471897D01*
X197430835Y-42471039D01*
X197436052Y-42467003D01*
X197434357Y-42462253D01*
X197432143Y-42459685D01*
X197428630Y-42454576D01*
X197428023Y-42448362D01*
X197430354Y-42438276D01*
X197432446Y-42431493D01*
X197438816Y-42416250D01*
X197447114Y-42402246D01*
X197450741Y-42397683D01*
X197458203Y-42387288D01*
X197462705Y-42374448D01*
X197465160Y-42358484D01*
X197467825Y-42340163D01*
X197471613Y-42321639D01*
X197474211Y-42311917D01*
X197477790Y-42298815D01*
X197482200Y-42280432D01*
X197486729Y-42259811D01*
X197488833Y-42249516D01*
X197495051Y-42219911D01*
X197500896Y-42196632D01*
X197507094Y-42177609D01*
X197514371Y-42160771D01*
X197523450Y-42144051D01*
X197528968Y-42134968D01*
X197539067Y-42117772D01*
X197544944Y-42104699D01*
X197547572Y-42093190D01*
X197548000Y-42084899D01*
X197548851Y-42073372D01*
X197551007Y-42066358D01*
X197552383Y-42065367D01*
X197554594Y-42062759D01*
X197552368Y-42057150D01*
X197550494Y-42049790D01*
X197555418Y-42043751D01*
X197556784Y-42042761D01*
X197560501Y-42039679D01*
X197562862Y-42035599D01*
X197564033Y-42028923D01*
X197564178Y-42018055D01*
X197563463Y-42001394D01*
X197562598Y-41986419D01*
X197560675Y-41962585D01*
X197558101Y-41942775D01*
X197555130Y-41928727D01*
X197553400Y-41924046D01*
X197549723Y-41914593D01*
X197551163Y-41909531D01*
X197552234Y-41908733D01*
X197554684Y-41904369D01*
X197552171Y-41895974D01*
X197550225Y-41892009D01*
X197545713Y-41880005D01*
X197546555Y-41869056D01*
X197547659Y-41865561D01*
X197550086Y-41855493D01*
X197549766Y-41848906D01*
X197549702Y-41848795D01*
X197549780Y-41842463D01*
X197551346Y-41839756D01*
X197554725Y-41833037D01*
X197559095Y-41821168D01*
X197562086Y-41811550D01*
X197565731Y-41796530D01*
X197566042Y-41787273D01*
X197563978Y-41782698D01*
X197561700Y-41776272D01*
X197565038Y-41767138D01*
X197566257Y-41765003D01*
X197570653Y-41756301D01*
X197570243Y-41751182D01*
X197567006Y-41747829D01*
X197561932Y-41739613D01*
X197560700Y-41732781D01*
X197558865Y-41723887D01*
X197555988Y-41720054D01*
X197553092Y-41713928D01*
X197552508Y-41702573D01*
X197553900Y-41688801D01*
X197556931Y-41675424D01*
X197561267Y-41665255D01*
X197562774Y-41663248D01*
X197567589Y-41656231D01*
X197568134Y-41648345D01*
X197565815Y-41638841D01*
X197560757Y-41620608D01*
X197558517Y-41608813D01*
X197558992Y-41601950D01*
X197562079Y-41598509D01*
X197563030Y-41598087D01*
X197567248Y-41594336D01*
X197565116Y-41587341D01*
X197560965Y-41573164D01*
X197565000Y-41560444D01*
X197569110Y-41555310D01*
X197573388Y-41550347D01*
X197575294Y-41545554D01*
X197574837Y-41538620D01*
X197572025Y-41527232D01*
X197569248Y-41517433D01*
X197563254Y-41500108D01*
X197556809Y-41487509D01*
X197552372Y-41482480D01*
X197545709Y-41475559D01*
X197543767Y-41470343D01*
X197540524Y-41464881D01*
X197537905Y-41464233D01*
X197533606Y-41460309D01*
X197530272Y-41448356D01*
X197529010Y-41439891D01*
X197526710Y-41425283D01*
X197523995Y-41413419D01*
X197522230Y-41408528D01*
X197521651Y-41402456D01*
X197525605Y-41393225D01*
X197534713Y-41379472D01*
X197536677Y-41376778D01*
X197555263Y-41346008D01*
X197566850Y-41312949D01*
X197571507Y-41285143D01*
X197573547Y-41270656D01*
X197576512Y-41262349D01*
X197581404Y-41257935D01*
X197583906Y-41256829D01*
X197594599Y-41250578D01*
X197596950Y-41243068D01*
X197592865Y-41236091D01*
X197588295Y-41226660D01*
X197586325Y-41213645D01*
X197587032Y-41200590D01*
X197590492Y-41191036D01*
X197591865Y-41189553D01*
X197595662Y-41182799D01*
X197598951Y-41170884D01*
X197600195Y-41163099D01*
X197603197Y-41148170D01*
X197607865Y-41135133D01*
X197610306Y-41130826D01*
X197623530Y-41110302D01*
X197631572Y-41091933D01*
X197635569Y-41072243D01*
X197636651Y-41050425D01*
X197636900Y-41015500D01*
X195948076Y-41015500D01*
X195950743Y-40778433D01*
X195951299Y-40726441D01*
X195951699Y-40682322D01*
X195951934Y-40645482D01*
X195951999Y-40615329D01*
X195951885Y-40591269D01*
X195951585Y-40572710D01*
X195951091Y-40559059D01*
X195950397Y-40549722D01*
X195949495Y-40544108D01*
X195948376Y-40541622D01*
X195947779Y-40541367D01*
X195941788Y-40543285D01*
G36*
X157625321Y-85796193D02*
X157534787Y-85843900D01*
X157477072Y-85913147D01*
X157455300Y-85988609D01*
X157443238Y-86109844D01*
X157440841Y-86215844D01*
X157441487Y-86325935D01*
X157445908Y-86398619D01*
X157457826Y-86447340D01*
X157480966Y-86485541D01*
X157519050Y-86526666D01*
X157529947Y-86537584D01*
X157590932Y-86592237D01*
X157641413Y-86615686D01*
X157702263Y-86616744D01*
X157714281Y-86615433D01*
X157789858Y-86602772D01*
X157849022Y-86586660D01*
X157854004Y-86584628D01*
X157873675Y-86579939D01*
X157886528Y-86591984D01*
X157893994Y-86628887D01*
X157897502Y-86698769D01*
X157898480Y-86809755D01*
X157898498Y-86837487D01*
X157897846Y-86957668D01*
X157894935Y-87035154D01*
X157888337Y-87078092D01*
X157876623Y-87094632D01*
X157858364Y-87092922D01*
X157854004Y-87091192D01*
X157724911Y-87057349D01*
X157612285Y-87071500D01*
X157515515Y-87133743D01*
X157502237Y-87147333D01*
X157477406Y-87176779D01*
X157460359Y-87208535D01*
X157449638Y-87252277D01*
X157443783Y-87317685D01*
X157441337Y-87414435D01*
X157440841Y-87552206D01*
X157440841Y-87895864D01*
X157523473Y-87887897D01*
X157606106Y-87879930D01*
X157613377Y-87601241D01*
X157620537Y-87452730D01*
X157634718Y-87348220D01*
X157658496Y-87281059D01*
X157694444Y-87244593D01*
X157745138Y-87232166D01*
X157756243Y-87231971D01*
X157807635Y-87236481D01*
X157843788Y-87254354D01*
X157867900Y-87293419D01*
X157883169Y-87361506D01*
X157892796Y-87466447D01*
X157898498Y-87580177D01*
X157911211Y-87879930D01*
X157994019Y-87887910D01*
X158060649Y-87884061D01*
X158089661Y-87862442D01*
X158092309Y-87830417D01*
X158094445Y-87753163D01*
X158096036Y-87636302D01*
X158097048Y-87485453D01*
X158097450Y-87306238D01*
X158097208Y-87104276D01*
X158096288Y-86885188D01*
X158095843Y-86812020D01*
X158092073Y-86235704D01*
X157898897Y-86235704D01*
X157886879Y-86325330D01*
X157862295Y-86389388D01*
X157856420Y-86396897D01*
X157789802Y-86438076D01*
X157715104Y-86432657D01*
X157665315Y-86401314D01*
X157635243Y-86346463D01*
X157619188Y-86261350D01*
X157617357Y-86164653D01*
X157629961Y-86075050D01*
X157657209Y-86011220D01*
X157660898Y-86006807D01*
X157726966Y-85966777D01*
X157802520Y-85967418D01*
X157858544Y-86000264D01*
X157884829Y-86054487D01*
X157898247Y-86139195D01*
X157898897Y-86235704D01*
X158092073Y-86235704D01*
X158089189Y-85795045D01*
X158017732Y-85786851D01*
X157952768Y-85790468D01*
X157911299Y-85807685D01*
X157864552Y-85823406D01*
X157825519Y-85809522D01*
X157727866Y-85783058D01*
X157625321Y-85796193D01*
X157625321Y-85796193D01*
G37*
X157625321Y-85796193D02*
X157534787Y-85843900D01*
X157477072Y-85913147D01*
X157455300Y-85988609D01*
X157443238Y-86109844D01*
X157440841Y-86215844D01*
X157441487Y-86325935D01*
X157445908Y-86398619D01*
X157457826Y-86447340D01*
X157480966Y-86485541D01*
X157519050Y-86526666D01*
X157529947Y-86537584D01*
X157590932Y-86592237D01*
X157641413Y-86615686D01*
X157702263Y-86616744D01*
X157714281Y-86615433D01*
X157789858Y-86602772D01*
X157849022Y-86586660D01*
X157854004Y-86584628D01*
X157873675Y-86579939D01*
X157886528Y-86591984D01*
X157893994Y-86628887D01*
X157897502Y-86698769D01*
X157898480Y-86809755D01*
X157898498Y-86837487D01*
X157897846Y-86957668D01*
X157894935Y-87035154D01*
X157888337Y-87078092D01*
X157876623Y-87094632D01*
X157858364Y-87092922D01*
X157854004Y-87091192D01*
X157724911Y-87057349D01*
X157612285Y-87071500D01*
X157515515Y-87133743D01*
X157502237Y-87147333D01*
X157477406Y-87176779D01*
X157460359Y-87208535D01*
X157449638Y-87252277D01*
X157443783Y-87317685D01*
X157441337Y-87414435D01*
X157440841Y-87552206D01*
X157440841Y-87895864D01*
X157523473Y-87887897D01*
X157606106Y-87879930D01*
X157613377Y-87601241D01*
X157620537Y-87452730D01*
X157634718Y-87348220D01*
X157658496Y-87281059D01*
X157694444Y-87244593D01*
X157745138Y-87232166D01*
X157756243Y-87231971D01*
X157807635Y-87236481D01*
X157843788Y-87254354D01*
X157867900Y-87293419D01*
X157883169Y-87361506D01*
X157892796Y-87466447D01*
X157898498Y-87580177D01*
X157911211Y-87879930D01*
X157994019Y-87887910D01*
X158060649Y-87884061D01*
X158089661Y-87862442D01*
X158092309Y-87830417D01*
X158094445Y-87753163D01*
X158096036Y-87636302D01*
X158097048Y-87485453D01*
X158097450Y-87306238D01*
X158097208Y-87104276D01*
X158096288Y-86885188D01*
X158095843Y-86812020D01*
X158092073Y-86235704D01*
X157898897Y-86235704D01*
X157886879Y-86325330D01*
X157862295Y-86389388D01*
X157856420Y-86396897D01*
X157789802Y-86438076D01*
X157715104Y-86432657D01*
X157665315Y-86401314D01*
X157635243Y-86346463D01*
X157619188Y-86261350D01*
X157617357Y-86164653D01*
X157629961Y-86075050D01*
X157657209Y-86011220D01*
X157660898Y-86006807D01*
X157726966Y-85966777D01*
X157802520Y-85967418D01*
X157858544Y-86000264D01*
X157884829Y-86054487D01*
X157898247Y-86139195D01*
X157898897Y-86235704D01*
X158092073Y-86235704D01*
X158089189Y-85795045D01*
X158017732Y-85786851D01*
X157952768Y-85790468D01*
X157911299Y-85807685D01*
X157864552Y-85823406D01*
X157825519Y-85809522D01*
X157727866Y-85783058D01*
X157625321Y-85796193D01*
G36*
X156925958Y-87059504D02*
X156824030Y-87088760D01*
X156742474Y-87136052D01*
X156694560Y-87198745D01*
X156690466Y-87211724D01*
X156685394Y-87259341D01*
X156682401Y-87345312D01*
X156681728Y-87457172D01*
X156683428Y-87574825D01*
X156686946Y-87703515D01*
X156691352Y-87790067D01*
X156698480Y-87843183D01*
X156710159Y-87871566D01*
X156728224Y-87883920D01*
X156749397Y-87888238D01*
X156808835Y-87884468D01*
X156839239Y-87870623D01*
X156887555Y-87859468D01*
X156907760Y-87868282D01*
X156966709Y-87885744D01*
X157050750Y-87889533D01*
X157136009Y-87879696D01*
X157176719Y-87867724D01*
X157244487Y-87820911D01*
X157302545Y-87748756D01*
X157335986Y-87671676D01*
X157339139Y-87645239D01*
X157332488Y-87616497D01*
X157159606Y-87616497D01*
X157145730Y-87666517D01*
X157130651Y-87684154D01*
X157082227Y-87705714D01*
X157007574Y-87714321D01*
X156930006Y-87708475D01*
X156896274Y-87699232D01*
X156865215Y-87662903D01*
X156856056Y-87610243D01*
X156860228Y-87563321D01*
X156882367Y-87542269D01*
X156936904Y-87536816D01*
X156959429Y-87536687D01*
X157061207Y-87547061D01*
X157129682Y-87575171D01*
X157159606Y-87616497D01*
X157332488Y-87616497D01*
X157317779Y-87552944D01*
X157262751Y-87469315D01*
X157187635Y-87414121D01*
X157177739Y-87410285D01*
X157105845Y-87394332D01*
X157013550Y-87385073D01*
X156977700Y-87384134D01*
X156903474Y-87382468D01*
X156867759Y-87372555D01*
X156858227Y-87347025D01*
X156860724Y-87314214D01*
X156871416Y-87269753D01*
X156899951Y-87247559D01*
X156961344Y-87237726D01*
X156978706Y-87236384D01*
X157054871Y-87237831D01*
X157112517Y-87251012D01*
X157123686Y-87257557D01*
X157160727Y-87271154D01*
X157209802Y-87249109D01*
X157222710Y-87240042D01*
X157272885Y-87198133D01*
X157281001Y-87165660D01*
X157246892Y-87127035D01*
X157221296Y-87106300D01*
X157137859Y-87065639D01*
X157034990Y-87050918D01*
X156925958Y-87059504D01*
X156925958Y-87059504D01*
G37*
X156925958Y-87059504D02*
X156824030Y-87088760D01*
X156742474Y-87136052D01*
X156694560Y-87198745D01*
X156690466Y-87211724D01*
X156685394Y-87259341D01*
X156682401Y-87345312D01*
X156681728Y-87457172D01*
X156683428Y-87574825D01*
X156686946Y-87703515D01*
X156691352Y-87790067D01*
X156698480Y-87843183D01*
X156710159Y-87871566D01*
X156728224Y-87883920D01*
X156749397Y-87888238D01*
X156808835Y-87884468D01*
X156839239Y-87870623D01*
X156887555Y-87859468D01*
X156907760Y-87868282D01*
X156966709Y-87885744D01*
X157050750Y-87889533D01*
X157136009Y-87879696D01*
X157176719Y-87867724D01*
X157244487Y-87820911D01*
X157302545Y-87748756D01*
X157335986Y-87671676D01*
X157339139Y-87645239D01*
X157332488Y-87616497D01*
X157159606Y-87616497D01*
X157145730Y-87666517D01*
X157130651Y-87684154D01*
X157082227Y-87705714D01*
X157007574Y-87714321D01*
X156930006Y-87708475D01*
X156896274Y-87699232D01*
X156865215Y-87662903D01*
X156856056Y-87610243D01*
X156860228Y-87563321D01*
X156882367Y-87542269D01*
X156936904Y-87536816D01*
X156959429Y-87536687D01*
X157061207Y-87547061D01*
X157129682Y-87575171D01*
X157159606Y-87616497D01*
X157332488Y-87616497D01*
X157317779Y-87552944D01*
X157262751Y-87469315D01*
X157187635Y-87414121D01*
X157177739Y-87410285D01*
X157105845Y-87394332D01*
X157013550Y-87385073D01*
X156977700Y-87384134D01*
X156903474Y-87382468D01*
X156867759Y-87372555D01*
X156858227Y-87347025D01*
X156860724Y-87314214D01*
X156871416Y-87269753D01*
X156899951Y-87247559D01*
X156961344Y-87237726D01*
X156978706Y-87236384D01*
X157054871Y-87237831D01*
X157112517Y-87251012D01*
X157123686Y-87257557D01*
X157160727Y-87271154D01*
X157209802Y-87249109D01*
X157222710Y-87240042D01*
X157272885Y-87198133D01*
X157281001Y-87165660D01*
X157246892Y-87127035D01*
X157221296Y-87106300D01*
X157137859Y-87065639D01*
X157034990Y-87050918D01*
X156925958Y-87059504D01*
G36*
X156352149Y-87061241D02*
X156317985Y-87079907D01*
X156316669Y-87082675D01*
X156296814Y-87099031D01*
X156252658Y-87082675D01*
X156166132Y-87056994D01*
X156073741Y-87060059D01*
X156005801Y-87087503D01*
X155975916Y-87114307D01*
X155976186Y-87142515D01*
X156003766Y-87189054D01*
X156041800Y-87234111D01*
X156087826Y-87247833D01*
X156140613Y-87243256D01*
X156206100Y-87237107D01*
X156252332Y-87245628D01*
X156283157Y-87275962D01*
X156302421Y-87335248D01*
X156313971Y-87430628D01*
X156321654Y-87569242D01*
X156322122Y-87580177D01*
X156334835Y-87879930D01*
X156417467Y-87887897D01*
X156500100Y-87895864D01*
X156500100Y-87053603D01*
X156413230Y-87053603D01*
X156352149Y-87061241D01*
X156352149Y-87061241D01*
G37*
X156352149Y-87061241D02*
X156317985Y-87079907D01*
X156316669Y-87082675D01*
X156296814Y-87099031D01*
X156252658Y-87082675D01*
X156166132Y-87056994D01*
X156073741Y-87060059D01*
X156005801Y-87087503D01*
X155975916Y-87114307D01*
X155976186Y-87142515D01*
X156003766Y-87189054D01*
X156041800Y-87234111D01*
X156087826Y-87247833D01*
X156140613Y-87243256D01*
X156206100Y-87237107D01*
X156252332Y-87245628D01*
X156283157Y-87275962D01*
X156302421Y-87335248D01*
X156313971Y-87430628D01*
X156321654Y-87569242D01*
X156322122Y-87580177D01*
X156334835Y-87879930D01*
X156417467Y-87887897D01*
X156500100Y-87895864D01*
X156500100Y-87053603D01*
X156413230Y-87053603D01*
X156352149Y-87061241D01*
G36*
X155310984Y-87301501D02*
X155317818Y-87879930D01*
X155400450Y-87887897D01*
X155460961Y-87886461D01*
X155482629Y-87864024D01*
X155483083Y-87857623D01*
X155488802Y-87833985D01*
X155514948Y-87837381D01*
X155553003Y-87855856D01*
X155668751Y-87888814D01*
X155789444Y-87873008D01*
X155807097Y-87866484D01*
X155858335Y-87829956D01*
X155909677Y-87770223D01*
X155916352Y-87760038D01*
X155941577Y-87712216D01*
X155956365Y-87659065D01*
X155962616Y-87586933D01*
X155962231Y-87482167D01*
X155962135Y-87478780D01*
X155788188Y-87478780D01*
X155773686Y-87589833D01*
X155734144Y-87668626D01*
X155675508Y-87710181D01*
X155603723Y-87709517D01*
X155547558Y-87680337D01*
X155513434Y-87632558D01*
X155494212Y-87545921D01*
X155490772Y-87508715D01*
X155493281Y-87381136D01*
X155522996Y-87294800D01*
X155581165Y-87247224D01*
X155627417Y-87236509D01*
X155705115Y-87248333D01*
X155757026Y-87302268D01*
X155783848Y-87399367D01*
X155788188Y-87478780D01*
X155962135Y-87478780D01*
X155961008Y-87439225D01*
X155956693Y-87327463D01*
X155949879Y-87253799D01*
X155936861Y-87205494D01*
X155913932Y-87169809D01*
X155877388Y-87134006D01*
X155870420Y-87127763D01*
X155774434Y-87070339D01*
X155668643Y-87052591D01*
X155568594Y-87076143D01*
X155539591Y-87093183D01*
X155483083Y-87132763D01*
X155483083Y-86723073D01*
X155304150Y-86723073D01*
X155310984Y-87301501D01*
X155310984Y-87301501D01*
G37*
X155310984Y-87301501D02*
X155317818Y-87879930D01*
X155400450Y-87887897D01*
X155460961Y-87886461D01*
X155482629Y-87864024D01*
X155483083Y-87857623D01*
X155488802Y-87833985D01*
X155514948Y-87837381D01*
X155553003Y-87855856D01*
X155668751Y-87888814D01*
X155789444Y-87873008D01*
X155807097Y-87866484D01*
X155858335Y-87829956D01*
X155909677Y-87770223D01*
X155916352Y-87760038D01*
X155941577Y-87712216D01*
X155956365Y-87659065D01*
X155962616Y-87586933D01*
X155962231Y-87482167D01*
X155962135Y-87478780D01*
X155788188Y-87478780D01*
X155773686Y-87589833D01*
X155734144Y-87668626D01*
X155675508Y-87710181D01*
X155603723Y-87709517D01*
X155547558Y-87680337D01*
X155513434Y-87632558D01*
X155494212Y-87545921D01*
X155490772Y-87508715D01*
X155493281Y-87381136D01*
X155522996Y-87294800D01*
X155581165Y-87247224D01*
X155627417Y-87236509D01*
X155705115Y-87248333D01*
X155757026Y-87302268D01*
X155783848Y-87399367D01*
X155788188Y-87478780D01*
X155962135Y-87478780D01*
X155961008Y-87439225D01*
X155956693Y-87327463D01*
X155949879Y-87253799D01*
X155936861Y-87205494D01*
X155913932Y-87169809D01*
X155877388Y-87134006D01*
X155870420Y-87127763D01*
X155774434Y-87070339D01*
X155668643Y-87052591D01*
X155568594Y-87076143D01*
X155539591Y-87093183D01*
X155483083Y-87132763D01*
X155483083Y-86723073D01*
X155304150Y-86723073D01*
X155310984Y-87301501D01*
G36*
X155104324Y-87055668D02*
X155075427Y-87066661D01*
X155051353Y-87093778D01*
X155028502Y-87144216D01*
X155003274Y-87225173D01*
X154972068Y-87343844D01*
X154947687Y-87441341D01*
X154927403Y-87510980D01*
X154909006Y-87554399D01*
X154901636Y-87561666D01*
X154887881Y-87538807D01*
X154863495Y-87477468D01*
X154832335Y-87387915D01*
X154808505Y-87313768D01*
X154772301Y-87201043D01*
X154744815Y-87128197D01*
X154720935Y-87086174D01*
X154695552Y-87065918D01*
X154664450Y-87058478D01*
X154633754Y-87057672D01*
X154609896Y-87069184D01*
X154587803Y-87101341D01*
X154562402Y-87162465D01*
X154528622Y-87260882D01*
X154513940Y-87305495D01*
X154478601Y-87408433D01*
X154447901Y-87488894D01*
X154425613Y-87537522D01*
X154416453Y-87547302D01*
X154404150Y-87518575D01*
X154382573Y-87452140D01*
X154355327Y-87359482D01*
X154338900Y-87300285D01*
X154275297Y-87066316D01*
X154177748Y-87058291D01*
X154115429Y-87055635D01*
X154091725Y-87066759D01*
X154094787Y-87099185D01*
X154097643Y-87109142D01*
X154145506Y-87267775D01*
X154193864Y-87422904D01*
X154240044Y-87566442D01*
X154281367Y-87690302D01*
X154315158Y-87786397D01*
X154338741Y-87846640D01*
X154346826Y-87862146D01*
X154389913Y-87884855D01*
X154436040Y-87887572D01*
X154465619Y-87879624D01*
X154489675Y-87858088D01*
X154512782Y-87814166D01*
X154539513Y-87739059D01*
X154574442Y-87623968D01*
X154576233Y-87617867D01*
X154610603Y-87508763D01*
X154640029Y-87430793D01*
X154661757Y-87390587D01*
X154671259Y-87389038D01*
X154686201Y-87427969D01*
X154709828Y-87501976D01*
X154737716Y-87597004D01*
X154745744Y-87625676D01*
X154780590Y-87744608D01*
X154809838Y-87822325D01*
X154838841Y-87867273D01*
X154872949Y-87887894D01*
X154914922Y-87892642D01*
X154966399Y-87880981D01*
X154987495Y-87860861D01*
X155005925Y-87805917D01*
X155033684Y-87719281D01*
X155067672Y-87611058D01*
X155104789Y-87491349D01*
X155141934Y-87370258D01*
X155176008Y-87257888D01*
X155203911Y-87164342D01*
X155222541Y-87099723D01*
X155228829Y-87074399D01*
X155206496Y-87060537D01*
X155151728Y-87053743D01*
X155141644Y-87053603D01*
X155104324Y-87055668D01*
X155104324Y-87055668D01*
G37*
X155104324Y-87055668D02*
X155075427Y-87066661D01*
X155051353Y-87093778D01*
X155028502Y-87144216D01*
X155003274Y-87225173D01*
X154972068Y-87343844D01*
X154947687Y-87441341D01*
X154927403Y-87510980D01*
X154909006Y-87554399D01*
X154901636Y-87561666D01*
X154887881Y-87538807D01*
X154863495Y-87477468D01*
X154832335Y-87387915D01*
X154808505Y-87313768D01*
X154772301Y-87201043D01*
X154744815Y-87128197D01*
X154720935Y-87086174D01*
X154695552Y-87065918D01*
X154664450Y-87058478D01*
X154633754Y-87057672D01*
X154609896Y-87069184D01*
X154587803Y-87101341D01*
X154562402Y-87162465D01*
X154528622Y-87260882D01*
X154513940Y-87305495D01*
X154478601Y-87408433D01*
X154447901Y-87488894D01*
X154425613Y-87537522D01*
X154416453Y-87547302D01*
X154404150Y-87518575D01*
X154382573Y-87452140D01*
X154355327Y-87359482D01*
X154338900Y-87300285D01*
X154275297Y-87066316D01*
X154177748Y-87058291D01*
X154115429Y-87055635D01*
X154091725Y-87066759D01*
X154094787Y-87099185D01*
X154097643Y-87109142D01*
X154145506Y-87267775D01*
X154193864Y-87422904D01*
X154240044Y-87566442D01*
X154281367Y-87690302D01*
X154315158Y-87786397D01*
X154338741Y-87846640D01*
X154346826Y-87862146D01*
X154389913Y-87884855D01*
X154436040Y-87887572D01*
X154465619Y-87879624D01*
X154489675Y-87858088D01*
X154512782Y-87814166D01*
X154539513Y-87739059D01*
X154574442Y-87623968D01*
X154576233Y-87617867D01*
X154610603Y-87508763D01*
X154640029Y-87430793D01*
X154661757Y-87390587D01*
X154671259Y-87389038D01*
X154686201Y-87427969D01*
X154709828Y-87501976D01*
X154737716Y-87597004D01*
X154745744Y-87625676D01*
X154780590Y-87744608D01*
X154809838Y-87822325D01*
X154838841Y-87867273D01*
X154872949Y-87887894D01*
X154914922Y-87892642D01*
X154966399Y-87880981D01*
X154987495Y-87860861D01*
X155005925Y-87805917D01*
X155033684Y-87719281D01*
X155067672Y-87611058D01*
X155104789Y-87491349D01*
X155141934Y-87370258D01*
X155176008Y-87257888D01*
X155203911Y-87164342D01*
X155222541Y-87099723D01*
X155228829Y-87074399D01*
X155206496Y-87060537D01*
X155151728Y-87053743D01*
X155141644Y-87053603D01*
X155104324Y-87055668D01*
G36*
X153658860Y-87063632D02*
X153567027Y-87088614D01*
X153510934Y-87119970D01*
X153471176Y-87164974D01*
X153445521Y-87231508D01*
X153431738Y-87327457D01*
X153427596Y-87460704D01*
X153429126Y-87575795D01*
X153432586Y-87704246D01*
X153436962Y-87790572D01*
X153444091Y-87843492D01*
X153455809Y-87871723D01*
X153473953Y-87883983D01*
X153494943Y-87888238D01*
X153553995Y-87885157D01*
X153583932Y-87872311D01*
X153630520Y-87861128D01*
X153665165Y-87868572D01*
X153760434Y-87887534D01*
X153868965Y-87881553D01*
X153932132Y-87864478D01*
X154015807Y-87806765D01*
X154068786Y-87719797D01*
X154082552Y-87638208D01*
X153905771Y-87638208D01*
X153891541Y-87684621D01*
X153874925Y-87697826D01*
X153811560Y-87710770D01*
X153734124Y-87711150D01*
X153665474Y-87700254D01*
X153632112Y-87684154D01*
X153607481Y-87635450D01*
X153601602Y-87595165D01*
X153607330Y-87558713D01*
X153633552Y-87541608D01*
X153693823Y-87536796D01*
X153713937Y-87536687D01*
X153792623Y-87540060D01*
X153853923Y-87548502D01*
X153866489Y-87552119D01*
X153896935Y-87585656D01*
X153905771Y-87638208D01*
X154082552Y-87638208D01*
X154085914Y-87618289D01*
X154062035Y-87516958D01*
X154057213Y-87507437D01*
X154001073Y-87451094D01*
X153907286Y-87409362D01*
X153788055Y-87386810D01*
X153727857Y-87384134D01*
X153651869Y-87382612D01*
X153614577Y-87373388D01*
X153603826Y-87349473D01*
X153606269Y-87314214D01*
X153615725Y-87271926D01*
X153640795Y-87249825D01*
X153695564Y-87239630D01*
X153738632Y-87236400D01*
X153816306Y-87236605D01*
X153873323Y-87246041D01*
X153888255Y-87253810D01*
X153925183Y-87260199D01*
X153974819Y-87239220D01*
X154017531Y-87202747D01*
X154033834Y-87165747D01*
X154010735Y-87121674D01*
X153949538Y-87087418D01*
X153862394Y-87064988D01*
X153761451Y-87056390D01*
X153658860Y-87063632D01*
X153658860Y-87063632D01*
G37*
X153658860Y-87063632D02*
X153567027Y-87088614D01*
X153510934Y-87119970D01*
X153471176Y-87164974D01*
X153445521Y-87231508D01*
X153431738Y-87327457D01*
X153427596Y-87460704D01*
X153429126Y-87575795D01*
X153432586Y-87704246D01*
X153436962Y-87790572D01*
X153444091Y-87843492D01*
X153455809Y-87871723D01*
X153473953Y-87883983D01*
X153494943Y-87888238D01*
X153553995Y-87885157D01*
X153583932Y-87872311D01*
X153630520Y-87861128D01*
X153665165Y-87868572D01*
X153760434Y-87887534D01*
X153868965Y-87881553D01*
X153932132Y-87864478D01*
X154015807Y-87806765D01*
X154068786Y-87719797D01*
X154082552Y-87638208D01*
X153905771Y-87638208D01*
X153891541Y-87684621D01*
X153874925Y-87697826D01*
X153811560Y-87710770D01*
X153734124Y-87711150D01*
X153665474Y-87700254D01*
X153632112Y-87684154D01*
X153607481Y-87635450D01*
X153601602Y-87595165D01*
X153607330Y-87558713D01*
X153633552Y-87541608D01*
X153693823Y-87536796D01*
X153713937Y-87536687D01*
X153792623Y-87540060D01*
X153853923Y-87548502D01*
X153866489Y-87552119D01*
X153896935Y-87585656D01*
X153905771Y-87638208D01*
X154082552Y-87638208D01*
X154085914Y-87618289D01*
X154062035Y-87516958D01*
X154057213Y-87507437D01*
X154001073Y-87451094D01*
X153907286Y-87409362D01*
X153788055Y-87386810D01*
X153727857Y-87384134D01*
X153651869Y-87382612D01*
X153614577Y-87373388D01*
X153603826Y-87349473D01*
X153606269Y-87314214D01*
X153615725Y-87271926D01*
X153640795Y-87249825D01*
X153695564Y-87239630D01*
X153738632Y-87236400D01*
X153816306Y-87236605D01*
X153873323Y-87246041D01*
X153888255Y-87253810D01*
X153925183Y-87260199D01*
X153974819Y-87239220D01*
X154017531Y-87202747D01*
X154033834Y-87165747D01*
X154010735Y-87121674D01*
X153949538Y-87087418D01*
X153862394Y-87064988D01*
X153761451Y-87056390D01*
X153658860Y-87063632D01*
G36*
X153115041Y-87062515D02*
X153093094Y-87089981D01*
X153093093Y-87090234D01*
X153087046Y-87112615D01*
X153060011Y-87108336D01*
X153023173Y-87090390D01*
X152925513Y-87059105D01*
X152826485Y-87059197D01*
X152748353Y-87089693D01*
X152717255Y-87116287D01*
X152717436Y-87140666D01*
X152750776Y-87180876D01*
X152758749Y-87189383D01*
X152816692Y-87234747D01*
X152881615Y-87242665D01*
X152898589Y-87240469D01*
X152983567Y-87244544D01*
X153029530Y-87265807D01*
X153051848Y-87287825D01*
X153067174Y-87321053D01*
X153077243Y-87375188D01*
X153083786Y-87459930D01*
X153088537Y-87584975D01*
X153088925Y-87598151D01*
X153097469Y-87892642D01*
X153167320Y-87892642D01*
X153224736Y-87887032D01*
X153254121Y-87875692D01*
X153259897Y-87845697D01*
X153264829Y-87773894D01*
X153268549Y-87669324D01*
X153270693Y-87541028D01*
X153271071Y-87456173D01*
X153271071Y-87053603D01*
X153182082Y-87053603D01*
X153115041Y-87062515D01*
X153115041Y-87062515D01*
G37*
X153115041Y-87062515D02*
X153093094Y-87089981D01*
X153093093Y-87090234D01*
X153087046Y-87112615D01*
X153060011Y-87108336D01*
X153023173Y-87090390D01*
X152925513Y-87059105D01*
X152826485Y-87059197D01*
X152748353Y-87089693D01*
X152717255Y-87116287D01*
X152717436Y-87140666D01*
X152750776Y-87180876D01*
X152758749Y-87189383D01*
X152816692Y-87234747D01*
X152881615Y-87242665D01*
X152898589Y-87240469D01*
X152983567Y-87244544D01*
X153029530Y-87265807D01*
X153051848Y-87287825D01*
X153067174Y-87321053D01*
X153077243Y-87375188D01*
X153083786Y-87459930D01*
X153088537Y-87584975D01*
X153088925Y-87598151D01*
X153097469Y-87892642D01*
X153167320Y-87892642D01*
X153224736Y-87887032D01*
X153254121Y-87875692D01*
X153259897Y-87845697D01*
X153264829Y-87773894D01*
X153268549Y-87669324D01*
X153270693Y-87541028D01*
X153271071Y-87456173D01*
X153271071Y-87053603D01*
X153182082Y-87053603D01*
X153115041Y-87062515D01*
G36*
X152221104Y-87095022D02*
X152126099Y-87168909D01*
X152063589Y-87279238D01*
X152042188Y-87369179D01*
X152035073Y-87445238D01*
X152035945Y-87500203D01*
X152039564Y-87513892D01*
X152069544Y-87523773D01*
X152138405Y-87531495D01*
X152234190Y-87535984D01*
X152293693Y-87536687D01*
X152419625Y-87539616D01*
X152498775Y-87550116D01*
X152534964Y-87570756D01*
X152532013Y-87604102D01*
X152493745Y-87652723D01*
X152482883Y-87663814D01*
X152407889Y-87706013D01*
X152318144Y-87709937D01*
X152237069Y-87677034D01*
X152195542Y-87654741D01*
X152158836Y-87662056D01*
X152116041Y-87692345D01*
X152072743Y-87732632D01*
X152067398Y-87762946D01*
X152081475Y-87784765D01*
X152163360Y-87847104D01*
X152273048Y-87881663D01*
X152394353Y-87886176D01*
X152511091Y-87858376D01*
X152533734Y-87848108D01*
X152626791Y-87774228D01*
X152685980Y-87662956D01*
X152710851Y-87515231D01*
X152711672Y-87478663D01*
X152695961Y-87324099D01*
X152530648Y-87324099D01*
X152529197Y-87358249D01*
X152481337Y-87377721D01*
X152385522Y-87384127D01*
X152381181Y-87384134D01*
X152291364Y-87380914D01*
X152243408Y-87369877D01*
X152228651Y-87348963D01*
X152228629Y-87347812D01*
X152250216Y-87288418D01*
X152304555Y-87249145D01*
X152376011Y-87234475D01*
X152448948Y-87248893D01*
X152487237Y-87273660D01*
X152530648Y-87324099D01*
X152695961Y-87324099D01*
X152695322Y-87317818D01*
X152646993Y-87194535D01*
X152567913Y-87110209D01*
X152459307Y-87066233D01*
X152344620Y-87061628D01*
X152221104Y-87095022D01*
X152221104Y-87095022D01*
G37*
X152221104Y-87095022D02*
X152126099Y-87168909D01*
X152063589Y-87279238D01*
X152042188Y-87369179D01*
X152035073Y-87445238D01*
X152035945Y-87500203D01*
X152039564Y-87513892D01*
X152069544Y-87523773D01*
X152138405Y-87531495D01*
X152234190Y-87535984D01*
X152293693Y-87536687D01*
X152419625Y-87539616D01*
X152498775Y-87550116D01*
X152534964Y-87570756D01*
X152532013Y-87604102D01*
X152493745Y-87652723D01*
X152482883Y-87663814D01*
X152407889Y-87706013D01*
X152318144Y-87709937D01*
X152237069Y-87677034D01*
X152195542Y-87654741D01*
X152158836Y-87662056D01*
X152116041Y-87692345D01*
X152072743Y-87732632D01*
X152067398Y-87762946D01*
X152081475Y-87784765D01*
X152163360Y-87847104D01*
X152273048Y-87881663D01*
X152394353Y-87886176D01*
X152511091Y-87858376D01*
X152533734Y-87848108D01*
X152626791Y-87774228D01*
X152685980Y-87662956D01*
X152710851Y-87515231D01*
X152711672Y-87478663D01*
X152695961Y-87324099D01*
X152530648Y-87324099D01*
X152529197Y-87358249D01*
X152481337Y-87377721D01*
X152385522Y-87384127D01*
X152381181Y-87384134D01*
X152291364Y-87380914D01*
X152243408Y-87369877D01*
X152228651Y-87348963D01*
X152228629Y-87347812D01*
X152250216Y-87288418D01*
X152304555Y-87249145D01*
X152376011Y-87234475D01*
X152448948Y-87248893D01*
X152487237Y-87273660D01*
X152530648Y-87324099D01*
X152695961Y-87324099D01*
X152695322Y-87317818D01*
X152646993Y-87194535D01*
X152567913Y-87110209D01*
X152459307Y-87066233D01*
X152344620Y-87061628D01*
X152221104Y-87095022D01*
G36*
X158474394Y-85790692D02*
X158368447Y-85829936D01*
X158281935Y-85905037D01*
X158267688Y-85924945D01*
X158227938Y-86021255D01*
X158209096Y-86144686D01*
X158211943Y-86275660D01*
X158237257Y-86394601D01*
X158247894Y-86421771D01*
X158319410Y-86527943D01*
X158417719Y-86594732D01*
X158534217Y-86619265D01*
X158660299Y-86598667D01*
X158712112Y-86576837D01*
X158790170Y-86517876D01*
X158845556Y-86443393D01*
X158876648Y-86342622D01*
X158888965Y-86216701D01*
X158886670Y-86173399D01*
X158709635Y-86173399D01*
X158706736Y-86220831D01*
X158685382Y-86338836D01*
X158643067Y-86414104D01*
X158582306Y-86444730D01*
X158505613Y-86428806D01*
X158464530Y-86404524D01*
X158416060Y-86342792D01*
X158390404Y-86252919D01*
X158388234Y-86152542D01*
X158410223Y-86059297D01*
X158449039Y-85998187D01*
X158515201Y-85964303D01*
X158593157Y-85970275D01*
X158664111Y-86014011D01*
X158694488Y-86052605D01*
X158708511Y-86100149D01*
X158709635Y-86173399D01*
X158886670Y-86173399D01*
X158882135Y-86087888D01*
X158855781Y-85978441D01*
X158853482Y-85972763D01*
X158789319Y-85878339D01*
X158696781Y-85815869D01*
X158587822Y-85786328D01*
X158474394Y-85790692D01*
X158474394Y-85790692D01*
G37*
X158474394Y-85790692D02*
X158368447Y-85829936D01*
X158281935Y-85905037D01*
X158267688Y-85924945D01*
X158227938Y-86021255D01*
X158209096Y-86144686D01*
X158211943Y-86275660D01*
X158237257Y-86394601D01*
X158247894Y-86421771D01*
X158319410Y-86527943D01*
X158417719Y-86594732D01*
X158534217Y-86619265D01*
X158660299Y-86598667D01*
X158712112Y-86576837D01*
X158790170Y-86517876D01*
X158845556Y-86443393D01*
X158876648Y-86342622D01*
X158888965Y-86216701D01*
X158886670Y-86173399D01*
X158709635Y-86173399D01*
X158706736Y-86220831D01*
X158685382Y-86338836D01*
X158643067Y-86414104D01*
X158582306Y-86444730D01*
X158505613Y-86428806D01*
X158464530Y-86404524D01*
X158416060Y-86342792D01*
X158390404Y-86252919D01*
X158388234Y-86152542D01*
X158410223Y-86059297D01*
X158449039Y-85998187D01*
X158515201Y-85964303D01*
X158593157Y-85970275D01*
X158664111Y-86014011D01*
X158694488Y-86052605D01*
X158708511Y-86100149D01*
X158709635Y-86173399D01*
X158886670Y-86173399D01*
X158882135Y-86087888D01*
X158855781Y-85978441D01*
X158853482Y-85972763D01*
X158789319Y-85878339D01*
X158696781Y-85815869D01*
X158587822Y-85786328D01*
X158474394Y-85790692D01*
G36*
X156876602Y-85808442D02*
X156837604Y-85824898D01*
X156754751Y-85890070D01*
X156692218Y-85990203D01*
X156657636Y-86111017D01*
X156653211Y-86170070D01*
X156652653Y-86265415D01*
X156906907Y-86265415D01*
X157036735Y-86268050D01*
X157119896Y-86277615D01*
X157160379Y-86296606D01*
X157162173Y-86327514D01*
X157129268Y-86372833D01*
X157110310Y-86392542D01*
X157036412Y-86433734D01*
X156944745Y-86440060D01*
X156855448Y-86410549D01*
X156846893Y-86405243D01*
X156802951Y-86382446D01*
X156769506Y-86391455D01*
X156732978Y-86426370D01*
X156696779Y-86469307D01*
X156694658Y-86496612D01*
X156722225Y-86526315D01*
X156829840Y-86591460D01*
X156957065Y-86617997D01*
X157088391Y-86604093D01*
X157158208Y-86577830D01*
X157240386Y-86510779D01*
X157299038Y-86409221D01*
X157331614Y-86284972D01*
X157335563Y-86149848D01*
X157324047Y-86093095D01*
X157161161Y-86093095D01*
X157138061Y-86103521D01*
X157078019Y-86110684D01*
X157008609Y-86112863D01*
X156922678Y-86110698D01*
X156876251Y-86101954D01*
X156858080Y-86083257D01*
X156856056Y-86067097D01*
X156877055Y-86007628D01*
X156929722Y-85970103D01*
X156998560Y-85957458D01*
X157068074Y-85972626D01*
X157121581Y-86016818D01*
X157151060Y-86065517D01*
X157161161Y-86093095D01*
X157324047Y-86093095D01*
X157308335Y-86015664D01*
X157289728Y-85968353D01*
X157218584Y-85865588D01*
X157121023Y-85803097D01*
X157004533Y-85783257D01*
X156876602Y-85808442D01*
X156876602Y-85808442D01*
G37*
X156876602Y-85808442D02*
X156837604Y-85824898D01*
X156754751Y-85890070D01*
X156692218Y-85990203D01*
X156657636Y-86111017D01*
X156653211Y-86170070D01*
X156652653Y-86265415D01*
X156906907Y-86265415D01*
X157036735Y-86268050D01*
X157119896Y-86277615D01*
X157160379Y-86296606D01*
X157162173Y-86327514D01*
X157129268Y-86372833D01*
X157110310Y-86392542D01*
X157036412Y-86433734D01*
X156944745Y-86440060D01*
X156855448Y-86410549D01*
X156846893Y-86405243D01*
X156802951Y-86382446D01*
X156769506Y-86391455D01*
X156732978Y-86426370D01*
X156696779Y-86469307D01*
X156694658Y-86496612D01*
X156722225Y-86526315D01*
X156829840Y-86591460D01*
X156957065Y-86617997D01*
X157088391Y-86604093D01*
X157158208Y-86577830D01*
X157240386Y-86510779D01*
X157299038Y-86409221D01*
X157331614Y-86284972D01*
X157335563Y-86149848D01*
X157324047Y-86093095D01*
X157161161Y-86093095D01*
X157138061Y-86103521D01*
X157078019Y-86110684D01*
X157008609Y-86112863D01*
X156922678Y-86110698D01*
X156876251Y-86101954D01*
X156858080Y-86083257D01*
X156856056Y-86067097D01*
X156877055Y-86007628D01*
X156929722Y-85970103D01*
X156998560Y-85957458D01*
X157068074Y-85972626D01*
X157121581Y-86016818D01*
X157151060Y-86065517D01*
X157161161Y-86093095D01*
X157324047Y-86093095D01*
X157308335Y-86015664D01*
X157289728Y-85968353D01*
X157218584Y-85865588D01*
X157121023Y-85803097D01*
X157004533Y-85783257D01*
X156876602Y-85808442D01*
G36*
X156067998Y-85798734D02*
X155971843Y-85855172D01*
X155934950Y-85893366D01*
X155916491Y-85924030D01*
X155903846Y-85968493D01*
X155895984Y-86035872D01*
X155891872Y-86135280D01*
X155890476Y-86275834D01*
X155890455Y-86286095D01*
X155889890Y-86624593D01*
X155972523Y-86616626D01*
X156055155Y-86608659D01*
X156062426Y-86329970D01*
X156069586Y-86181459D01*
X156083767Y-86076949D01*
X156107545Y-86009788D01*
X156143493Y-85973321D01*
X156194187Y-85960895D01*
X156205292Y-85960699D01*
X156256685Y-85965210D01*
X156292837Y-85983082D01*
X156316949Y-86022147D01*
X156332219Y-86090235D01*
X156341845Y-86195176D01*
X156347548Y-86308906D01*
X156360260Y-86608659D01*
X156443068Y-86616639D01*
X156511034Y-86612419D01*
X156539123Y-86590096D01*
X156543329Y-86553525D01*
X156546022Y-86476014D01*
X156547054Y-86367459D01*
X156546279Y-86237752D01*
X156545304Y-86175309D01*
X156538238Y-85795045D01*
X156466781Y-85786851D01*
X156401817Y-85790468D01*
X156360348Y-85807685D01*
X156313601Y-85823406D01*
X156274568Y-85809522D01*
X156173683Y-85782339D01*
X156067998Y-85798734D01*
X156067998Y-85798734D01*
G37*
X156067998Y-85798734D02*
X155971843Y-85855172D01*
X155934950Y-85893366D01*
X155916491Y-85924030D01*
X155903846Y-85968493D01*
X155895984Y-86035872D01*
X155891872Y-86135280D01*
X155890476Y-86275834D01*
X155890455Y-86286095D01*
X155889890Y-86624593D01*
X155972523Y-86616626D01*
X156055155Y-86608659D01*
X156062426Y-86329970D01*
X156069586Y-86181459D01*
X156083767Y-86076949D01*
X156107545Y-86009788D01*
X156143493Y-85973321D01*
X156194187Y-85960895D01*
X156205292Y-85960699D01*
X156256685Y-85965210D01*
X156292837Y-85983082D01*
X156316949Y-86022147D01*
X156332219Y-86090235D01*
X156341845Y-86195176D01*
X156347548Y-86308906D01*
X156360260Y-86608659D01*
X156443068Y-86616639D01*
X156511034Y-86612419D01*
X156539123Y-86590096D01*
X156543329Y-86553525D01*
X156546022Y-86476014D01*
X156547054Y-86367459D01*
X156546279Y-86237752D01*
X156545304Y-86175309D01*
X156538238Y-85795045D01*
X156466781Y-85786851D01*
X156401817Y-85790468D01*
X156360348Y-85807685D01*
X156313601Y-85823406D01*
X156274568Y-85809522D01*
X156173683Y-85782339D01*
X156067998Y-85798734D01*
G36*
X154929433Y-85809716D02*
X154871284Y-85833993D01*
X154770020Y-85885655D01*
X154815090Y-85948509D01*
X154862714Y-85993682D01*
X154911011Y-85995278D01*
X154966864Y-85983049D01*
X155047787Y-85971146D01*
X155082493Y-85967308D01*
X155159524Y-85963441D01*
X155200911Y-85973660D01*
X155220107Y-85999681D01*
X155216685Y-86049257D01*
X155171468Y-86087876D01*
X155093237Y-86109870D01*
X155044729Y-86112863D01*
X154922471Y-86131678D01*
X154830601Y-86183642D01*
X154774289Y-86262031D01*
X154758708Y-86360119D01*
X154781717Y-86454841D01*
X154842705Y-86538659D01*
X154938438Y-86594324D01*
X155059668Y-86619191D01*
X155197150Y-86610616D01*
X155266967Y-86593612D01*
X155345938Y-86559389D01*
X155406479Y-86521329D01*
X155469715Y-86472218D01*
X155410238Y-86408908D01*
X155350762Y-86345598D01*
X155270726Y-86394400D01*
X155187384Y-86430340D01*
X155101860Y-86443765D01*
X155026121Y-86436246D01*
X154972132Y-86409360D01*
X154951857Y-86364678D01*
X154953107Y-86352632D01*
X154973645Y-86321693D01*
X155027599Y-86297204D01*
X155114517Y-86276711D01*
X155224684Y-86253586D01*
X155295986Y-86231659D01*
X155339899Y-86204931D01*
X155367897Y-86167402D01*
X155381963Y-86136885D01*
X155403055Y-86030719D01*
X155382310Y-85930748D01*
X155323636Y-85851056D01*
X155297369Y-85832065D01*
X155188242Y-85791851D01*
X155059278Y-85784430D01*
X154929433Y-85809716D01*
X154929433Y-85809716D01*
G37*
X154929433Y-85809716D02*
X154871284Y-85833993D01*
X154770020Y-85885655D01*
X154815090Y-85948509D01*
X154862714Y-85993682D01*
X154911011Y-85995278D01*
X154966864Y-85983049D01*
X155047787Y-85971146D01*
X155082493Y-85967308D01*
X155159524Y-85963441D01*
X155200911Y-85973660D01*
X155220107Y-85999681D01*
X155216685Y-86049257D01*
X155171468Y-86087876D01*
X155093237Y-86109870D01*
X155044729Y-86112863D01*
X154922471Y-86131678D01*
X154830601Y-86183642D01*
X154774289Y-86262031D01*
X154758708Y-86360119D01*
X154781717Y-86454841D01*
X154842705Y-86538659D01*
X154938438Y-86594324D01*
X155059668Y-86619191D01*
X155197150Y-86610616D01*
X155266967Y-86593612D01*
X155345938Y-86559389D01*
X155406479Y-86521329D01*
X155469715Y-86472218D01*
X155410238Y-86408908D01*
X155350762Y-86345598D01*
X155270726Y-86394400D01*
X155187384Y-86430340D01*
X155101860Y-86443765D01*
X155026121Y-86436246D01*
X154972132Y-86409360D01*
X154951857Y-86364678D01*
X154953107Y-86352632D01*
X154973645Y-86321693D01*
X155027599Y-86297204D01*
X155114517Y-86276711D01*
X155224684Y-86253586D01*
X155295986Y-86231659D01*
X155339899Y-86204931D01*
X155367897Y-86167402D01*
X155381963Y-86136885D01*
X155403055Y-86030719D01*
X155382310Y-85930748D01*
X155323636Y-85851056D01*
X155297369Y-85832065D01*
X155188242Y-85791851D01*
X155059278Y-85784430D01*
X154929433Y-85809716D01*
G36*
X154221849Y-85806642D02*
X154120856Y-85863295D01*
X154100835Y-85881574D01*
X154060222Y-85926281D01*
X154035541Y-85970217D01*
X154021934Y-86028697D01*
X154014544Y-86117039D01*
X154012411Y-86160403D01*
X154014095Y-86309401D01*
X154037159Y-86420450D01*
X154085298Y-86503279D01*
X154162207Y-86567616D01*
X154168552Y-86571550D01*
X154272931Y-86610484D01*
X154390392Y-86617364D01*
X154478779Y-86597115D01*
X154531264Y-86563998D01*
X154588452Y-86512740D01*
X154590790Y-86510247D01*
X154643517Y-86421498D01*
X154674058Y-86302867D01*
X154679619Y-86204351D01*
X154491491Y-86204351D01*
X154488826Y-86296411D01*
X154478028Y-86352608D01*
X154454895Y-86387774D01*
X154434983Y-86403813D01*
X154354164Y-86439909D01*
X154281476Y-86426643D01*
X154237237Y-86392542D01*
X154204354Y-86343546D01*
X154189007Y-86271952D01*
X154186386Y-86201852D01*
X154200790Y-86083091D01*
X154242755Y-86002751D01*
X154310407Y-85963716D01*
X154343293Y-85960310D01*
X154416494Y-85976843D01*
X154463677Y-86029264D01*
X154487415Y-86121809D01*
X154491491Y-86204351D01*
X154679619Y-86204351D01*
X154681522Y-86170650D01*
X154665013Y-86041142D01*
X154623639Y-85930642D01*
X154622668Y-85928939D01*
X154549454Y-85848435D01*
X154449407Y-85800415D01*
X154335786Y-85786083D01*
X154221849Y-85806642D01*
X154221849Y-85806642D01*
G37*
X154221849Y-85806642D02*
X154120856Y-85863295D01*
X154100835Y-85881574D01*
X154060222Y-85926281D01*
X154035541Y-85970217D01*
X154021934Y-86028697D01*
X154014544Y-86117039D01*
X154012411Y-86160403D01*
X154014095Y-86309401D01*
X154037159Y-86420450D01*
X154085298Y-86503279D01*
X154162207Y-86567616D01*
X154168552Y-86571550D01*
X154272931Y-86610484D01*
X154390392Y-86617364D01*
X154478779Y-86597115D01*
X154531264Y-86563998D01*
X154588452Y-86512740D01*
X154590790Y-86510247D01*
X154643517Y-86421498D01*
X154674058Y-86302867D01*
X154679619Y-86204351D01*
X154491491Y-86204351D01*
X154488826Y-86296411D01*
X154478028Y-86352608D01*
X154454895Y-86387774D01*
X154434983Y-86403813D01*
X154354164Y-86439909D01*
X154281476Y-86426643D01*
X154237237Y-86392542D01*
X154204354Y-86343546D01*
X154189007Y-86271952D01*
X154186386Y-86201852D01*
X154200790Y-86083091D01*
X154242755Y-86002751D01*
X154310407Y-85963716D01*
X154343293Y-85960310D01*
X154416494Y-85976843D01*
X154463677Y-86029264D01*
X154487415Y-86121809D01*
X154491491Y-86204351D01*
X154679619Y-86204351D01*
X154681522Y-86170650D01*
X154665013Y-86041142D01*
X154623639Y-85930642D01*
X154622668Y-85928939D01*
X154549454Y-85848435D01*
X154449407Y-85800415D01*
X154335786Y-85786083D01*
X154221849Y-85806642D01*
G36*
X153703303Y-86062012D02*
X153702271Y-86187982D01*
X153698094Y-86273671D01*
X153689149Y-86329624D01*
X153673813Y-86366388D01*
X153652452Y-86392542D01*
X153597103Y-86430636D01*
X153550751Y-86443393D01*
X153495401Y-86426137D01*
X153449049Y-86392542D01*
X153426333Y-86364151D01*
X153411513Y-86326355D01*
X153402966Y-86268610D01*
X153399070Y-86180367D01*
X153398198Y-86062012D01*
X153398198Y-85782332D01*
X153218961Y-85782332D01*
X153225947Y-86195495D01*
X153232933Y-86608659D01*
X153315566Y-86616626D01*
X153375220Y-86615597D01*
X153397308Y-86593949D01*
X153398198Y-86584191D01*
X153403031Y-86559224D01*
X153426519Y-86560329D01*
X153473212Y-86582580D01*
X153589491Y-86617547D01*
X153704237Y-86601875D01*
X153716016Y-86597335D01*
X153771015Y-86562865D01*
X153817718Y-86520083D01*
X153838813Y-86491098D01*
X153853714Y-86452626D01*
X153863817Y-86395287D01*
X153870520Y-86309701D01*
X153875223Y-86186485D01*
X153876895Y-86122988D01*
X153885221Y-85782332D01*
X153703303Y-85782332D01*
X153703303Y-86062012D01*
X153703303Y-86062012D01*
G37*
X153703303Y-86062012D02*
X153702271Y-86187982D01*
X153698094Y-86273671D01*
X153689149Y-86329624D01*
X153673813Y-86366388D01*
X153652452Y-86392542D01*
X153597103Y-86430636D01*
X153550751Y-86443393D01*
X153495401Y-86426137D01*
X153449049Y-86392542D01*
X153426333Y-86364151D01*
X153411513Y-86326355D01*
X153402966Y-86268610D01*
X153399070Y-86180367D01*
X153398198Y-86062012D01*
X153398198Y-85782332D01*
X153218961Y-85782332D01*
X153225947Y-86195495D01*
X153232933Y-86608659D01*
X153315566Y-86616626D01*
X153375220Y-86615597D01*
X153397308Y-86593949D01*
X153398198Y-86584191D01*
X153403031Y-86559224D01*
X153426519Y-86560329D01*
X153473212Y-86582580D01*
X153589491Y-86617547D01*
X153704237Y-86601875D01*
X153716016Y-86597335D01*
X153771015Y-86562865D01*
X153817718Y-86520083D01*
X153838813Y-86491098D01*
X153853714Y-86452626D01*
X153863817Y-86395287D01*
X153870520Y-86309701D01*
X153875223Y-86186485D01*
X153876895Y-86122988D01*
X153885221Y-85782332D01*
X153703303Y-85782332D01*
X153703303Y-86062012D01*
G36*
X152913802Y-85790102D02*
X152890152Y-85815645D01*
X152889690Y-85821912D01*
X152885094Y-85847279D01*
X152862306Y-85841308D01*
X152833182Y-85821912D01*
X152754986Y-85790903D01*
X152660204Y-85784362D01*
X152573763Y-85802591D01*
X152544950Y-85818421D01*
X152514233Y-85844730D01*
X152514123Y-85869070D01*
X152546772Y-85908944D01*
X152557491Y-85920396D01*
X152612013Y-85965652D01*
X152669024Y-85975397D01*
X152701304Y-85970913D01*
X152774021Y-85969295D01*
X152830462Y-86002954D01*
X152836456Y-86008778D01*
X152860136Y-86037475D01*
X152875593Y-86073958D01*
X152884532Y-86128903D01*
X152888662Y-86212985D01*
X152889689Y-86336879D01*
X152889690Y-86341692D01*
X152889690Y-86621371D01*
X153067668Y-86621371D01*
X153067668Y-85782332D01*
X152978679Y-85782332D01*
X152913802Y-85790102D01*
X152913802Y-85790102D01*
G37*
X152913802Y-85790102D02*
X152890152Y-85815645D01*
X152889690Y-85821912D01*
X152885094Y-85847279D01*
X152862306Y-85841308D01*
X152833182Y-85821912D01*
X152754986Y-85790903D01*
X152660204Y-85784362D01*
X152573763Y-85802591D01*
X152544950Y-85818421D01*
X152514233Y-85844730D01*
X152514123Y-85869070D01*
X152546772Y-85908944D01*
X152557491Y-85920396D01*
X152612013Y-85965652D01*
X152669024Y-85975397D01*
X152701304Y-85970913D01*
X152774021Y-85969295D01*
X152830462Y-86002954D01*
X152836456Y-86008778D01*
X152860136Y-86037475D01*
X152875593Y-86073958D01*
X152884532Y-86128903D01*
X152888662Y-86212985D01*
X152889689Y-86336879D01*
X152889690Y-86341692D01*
X152889690Y-86621371D01*
X153067668Y-86621371D01*
X153067668Y-85782332D01*
X152978679Y-85782332D01*
X152913802Y-85790102D01*
G36*
X152065512Y-85796893D02*
X151973738Y-85839539D01*
X151907684Y-85890298D01*
X151885193Y-85929090D01*
X151903917Y-85965816D01*
X151937274Y-85993411D01*
X151985939Y-86023053D01*
X152022735Y-86020552D01*
X152056483Y-85999767D01*
X152143318Y-85963634D01*
X152225269Y-85972397D01*
X152293721Y-86020240D01*
X152340058Y-86101345D01*
X152355756Y-86201852D01*
X152337810Y-86308739D01*
X152289714Y-86387789D01*
X152220084Y-86433186D01*
X152137535Y-86439112D01*
X152056483Y-86403936D01*
X152011986Y-86379262D01*
X151974502Y-86385723D01*
X151937274Y-86410292D01*
X151891807Y-86452130D01*
X151888520Y-86489150D01*
X151928790Y-86533087D01*
X151954004Y-86552700D01*
X152053663Y-86599186D01*
X152172431Y-86613950D01*
X152288539Y-86595509D01*
X152329824Y-86578264D01*
X152436458Y-86499116D01*
X152503314Y-86391300D01*
X152532200Y-86251495D01*
X152533734Y-86204051D01*
X152520466Y-86058610D01*
X152487275Y-85961878D01*
X152410874Y-85869221D01*
X152306127Y-85808697D01*
X152186513Y-85783517D01*
X152065512Y-85796893D01*
X152065512Y-85796893D01*
G37*
X152065512Y-85796893D02*
X151973738Y-85839539D01*
X151907684Y-85890298D01*
X151885193Y-85929090D01*
X151903917Y-85965816D01*
X151937274Y-85993411D01*
X151985939Y-86023053D01*
X152022735Y-86020552D01*
X152056483Y-85999767D01*
X152143318Y-85963634D01*
X152225269Y-85972397D01*
X152293721Y-86020240D01*
X152340058Y-86101345D01*
X152355756Y-86201852D01*
X152337810Y-86308739D01*
X152289714Y-86387789D01*
X152220084Y-86433186D01*
X152137535Y-86439112D01*
X152056483Y-86403936D01*
X152011986Y-86379262D01*
X151974502Y-86385723D01*
X151937274Y-86410292D01*
X151891807Y-86452130D01*
X151888520Y-86489150D01*
X151928790Y-86533087D01*
X151954004Y-86552700D01*
X152053663Y-86599186D01*
X152172431Y-86613950D01*
X152288539Y-86595509D01*
X152329824Y-86578264D01*
X152436458Y-86499116D01*
X152503314Y-86391300D01*
X152532200Y-86251495D01*
X152533734Y-86204051D01*
X152520466Y-86058610D01*
X152487275Y-85961878D01*
X152410874Y-85869221D01*
X152306127Y-85808697D01*
X152186513Y-85783517D01*
X152065512Y-85796893D01*
G36*
X151385968Y-85807606D02*
X151350427Y-85822661D01*
X151265712Y-85878983D01*
X151210280Y-85958793D01*
X151177706Y-86072845D01*
X151170372Y-86124072D01*
X151153760Y-86265415D01*
X151411514Y-86265415D01*
X151542281Y-86267983D01*
X151626407Y-86277336D01*
X151667917Y-86295949D01*
X151670837Y-86326294D01*
X151639195Y-86370845D01*
X151618418Y-86392542D01*
X151544520Y-86433734D01*
X151452854Y-86440060D01*
X151363556Y-86410549D01*
X151355001Y-86405243D01*
X151311059Y-86382446D01*
X151277614Y-86391455D01*
X151241086Y-86426370D01*
X151204887Y-86469307D01*
X151202766Y-86496612D01*
X151230333Y-86526315D01*
X151337948Y-86591460D01*
X151465173Y-86617997D01*
X151596499Y-86604093D01*
X151666316Y-86577830D01*
X151748495Y-86510779D01*
X151807147Y-86409221D01*
X151839722Y-86284972D01*
X151843671Y-86149848D01*
X151832156Y-86093095D01*
X151669269Y-86093095D01*
X151646169Y-86103521D01*
X151586127Y-86110684D01*
X151516717Y-86112863D01*
X151430786Y-86110698D01*
X151384359Y-86101954D01*
X151366189Y-86083257D01*
X151364164Y-86067097D01*
X151385163Y-86007628D01*
X151437830Y-85970103D01*
X151506668Y-85957458D01*
X151576182Y-85972626D01*
X151629689Y-86016818D01*
X151659168Y-86065517D01*
X151669269Y-86093095D01*
X151832156Y-86093095D01*
X151816444Y-86015664D01*
X151797836Y-85968353D01*
X151726664Y-85865898D01*
X151628856Y-85803184D01*
X151512572Y-85782868D01*
X151385968Y-85807606D01*
X151385968Y-85807606D01*
G37*
X151385968Y-85807606D02*
X151350427Y-85822661D01*
X151265712Y-85878983D01*
X151210280Y-85958793D01*
X151177706Y-86072845D01*
X151170372Y-86124072D01*
X151153760Y-86265415D01*
X151411514Y-86265415D01*
X151542281Y-86267983D01*
X151626407Y-86277336D01*
X151667917Y-86295949D01*
X151670837Y-86326294D01*
X151639195Y-86370845D01*
X151618418Y-86392542D01*
X151544520Y-86433734D01*
X151452854Y-86440060D01*
X151363556Y-86410549D01*
X151355001Y-86405243D01*
X151311059Y-86382446D01*
X151277614Y-86391455D01*
X151241086Y-86426370D01*
X151204887Y-86469307D01*
X151202766Y-86496612D01*
X151230333Y-86526315D01*
X151337948Y-86591460D01*
X151465173Y-86617997D01*
X151596499Y-86604093D01*
X151666316Y-86577830D01*
X151748495Y-86510779D01*
X151807147Y-86409221D01*
X151839722Y-86284972D01*
X151843671Y-86149848D01*
X151832156Y-86093095D01*
X151669269Y-86093095D01*
X151646169Y-86103521D01*
X151586127Y-86110684D01*
X151516717Y-86112863D01*
X151430786Y-86110698D01*
X151384359Y-86101954D01*
X151366189Y-86083257D01*
X151364164Y-86067097D01*
X151385163Y-86007628D01*
X151437830Y-85970103D01*
X151506668Y-85957458D01*
X151576182Y-85972626D01*
X151629689Y-86016818D01*
X151659168Y-86065517D01*
X151669269Y-86093095D01*
X151832156Y-86093095D01*
X151816444Y-86015664D01*
X151797836Y-85968353D01*
X151726664Y-85865898D01*
X151628856Y-85803184D01*
X151512572Y-85782868D01*
X151385968Y-85807606D01*
G36*
X154952769Y-79757442D02*
X154833407Y-79761821D01*
X154731495Y-79768509D01*
X154658108Y-79777338D01*
X154624322Y-79788138D01*
X154624194Y-79788288D01*
X154610514Y-79823595D01*
X154590501Y-79899236D01*
X154566455Y-80005433D01*
X154540675Y-80132405D01*
X154530038Y-80188739D01*
X154504002Y-80321059D01*
X154478328Y-80436238D01*
X154455397Y-80524622D01*
X154437591Y-80576560D01*
X154432231Y-80585168D01*
X154398614Y-80607539D01*
X154333661Y-80639552D01*
X154232518Y-80683368D01*
X154090331Y-80741153D01*
X154018037Y-80769781D01*
X153887826Y-80821052D01*
X153561074Y-80593884D01*
X153447345Y-80515942D01*
X153347352Y-80449532D01*
X153268876Y-80399656D01*
X153219698Y-80371316D01*
X153207769Y-80366717D01*
X153179302Y-80384202D01*
X153124223Y-80431472D01*
X153050194Y-80500743D01*
X152964874Y-80584235D01*
X152875927Y-80674166D01*
X152791012Y-80762753D01*
X152717791Y-80842217D01*
X152663926Y-80904775D01*
X152637077Y-80942645D01*
X152635435Y-80948042D01*
X152649249Y-80979963D01*
X152687279Y-81045199D01*
X152744411Y-81135529D01*
X152815530Y-81242730D01*
X152851552Y-81295469D01*
X152927039Y-81405843D01*
X152991032Y-81501021D01*
X153038494Y-81573381D01*
X153064383Y-81615300D01*
X153067668Y-81622381D01*
X153057758Y-81655478D01*
X153031399Y-81722311D01*
X152993645Y-81811570D01*
X152949554Y-81911945D01*
X152904179Y-82012126D01*
X152862576Y-82100804D01*
X152829801Y-82166669D01*
X152810908Y-82198410D01*
X152809724Y-82199447D01*
X152776028Y-82209731D01*
X152703896Y-82225723D01*
X152605080Y-82244951D01*
X152526407Y-82259000D01*
X152401610Y-82280941D01*
X152281227Y-82302857D01*
X152183262Y-82321439D01*
X152145996Y-82328927D01*
X152025225Y-82354113D01*
X152025225Y-82769813D01*
X152025695Y-82925139D01*
X152027614Y-83036983D01*
X152031746Y-83112709D01*
X152038857Y-83159681D01*
X152049710Y-83185263D01*
X152065071Y-83196819D01*
X152069720Y-83198384D01*
X152113767Y-83208517D01*
X152193739Y-83224675D01*
X152295484Y-83244041D01*
X152343043Y-83252770D01*
X152462406Y-83274852D01*
X152578387Y-83297029D01*
X152670716Y-83315405D01*
X152690974Y-83319637D01*
X152810075Y-83344989D01*
X152930865Y-83648979D01*
X153051654Y-83952970D01*
X152843545Y-84256046D01*
X152769288Y-84366413D01*
X152706733Y-84463626D01*
X152661076Y-84539279D01*
X152637515Y-84584964D01*
X152635435Y-84592733D01*
X152652721Y-84621611D01*
X152699449Y-84677420D01*
X152767926Y-84752404D01*
X152850459Y-84838803D01*
X152939353Y-84928859D01*
X153026917Y-85014814D01*
X153105455Y-85088910D01*
X153167276Y-85143388D01*
X153204685Y-85170490D01*
X153209977Y-85172122D01*
X153239649Y-85158443D01*
X153302815Y-85120845D01*
X153391249Y-85064486D01*
X153496728Y-84994523D01*
X153540092Y-84965086D01*
X153843143Y-84758049D01*
X153991970Y-84840413D01*
X154069911Y-84879034D01*
X154130738Y-84900872D01*
X154161101Y-84901253D01*
X154175826Y-84872937D01*
X154207174Y-84803852D01*
X154252440Y-84700261D01*
X154308918Y-84568431D01*
X154373903Y-84414625D01*
X154444690Y-84245108D01*
X154450387Y-84231381D01*
X154719370Y-83583033D01*
X154662638Y-83537516D01*
X154535043Y-83431862D01*
X154441060Y-83345223D01*
X154371931Y-83268493D01*
X154318901Y-83192568D01*
X154300606Y-83161054D01*
X154264308Y-83090980D01*
X154241793Y-83029882D01*
X154229824Y-82961646D01*
X154225167Y-82870158D01*
X154224525Y-82782132D01*
X154232476Y-82613368D01*
X154260046Y-82478794D01*
X154312803Y-82363727D01*
X154396319Y-82253486D01*
X154444418Y-82202551D01*
X154601561Y-82074070D01*
X154773009Y-81993505D01*
X154963603Y-81958810D01*
X155025279Y-81957040D01*
X155233209Y-81980597D01*
X155417939Y-82048775D01*
X155576563Y-82159773D01*
X155706175Y-82311789D01*
X155765909Y-82416000D01*
X155831453Y-82605298D01*
X155849144Y-82804916D01*
X155818497Y-83006679D01*
X155803833Y-83054699D01*
X155746788Y-83172619D01*
X155658409Y-83296666D01*
X155552630Y-83409806D01*
X155443838Y-83494728D01*
X155388247Y-83537171D01*
X155357874Y-83576084D01*
X155355956Y-83584666D01*
X155365279Y-83616282D01*
X155391195Y-83687218D01*
X155430630Y-83789903D01*
X155480505Y-83916766D01*
X155537746Y-84060234D01*
X155599274Y-84212736D01*
X155662014Y-84366701D01*
X155722890Y-84514556D01*
X155778824Y-84648730D01*
X155826740Y-84761652D01*
X155863562Y-84845750D01*
X155886213Y-84893451D01*
X155890705Y-84900748D01*
X155920767Y-84900646D01*
X155982325Y-84880416D01*
X156062296Y-84844397D01*
X156065667Y-84842703D01*
X156222290Y-84763639D01*
X156521243Y-84967881D01*
X156631198Y-85041044D01*
X156728353Y-85102048D01*
X156804116Y-85145766D01*
X156849896Y-85167072D01*
X156857195Y-85168292D01*
X156887252Y-85149510D01*
X156945062Y-85100410D01*
X157023398Y-85027578D01*
X157115033Y-84937603D01*
X157157033Y-84894968D01*
X157250392Y-84798985D01*
X157330875Y-84715750D01*
X157391892Y-84652116D01*
X157426854Y-84614935D01*
X157432300Y-84608699D01*
X157422984Y-84583055D01*
X157389088Y-84523450D01*
X157335304Y-84437508D01*
X157266323Y-84332849D01*
X157226015Y-84273576D01*
X157007301Y-83955228D01*
X157126431Y-83654716D01*
X157171736Y-83540900D01*
X157209995Y-83445664D01*
X157237497Y-83378183D01*
X157250532Y-83347633D01*
X157250971Y-83346852D01*
X157276496Y-83339882D01*
X157343268Y-83325541D01*
X157442509Y-83305612D01*
X157565447Y-83281880D01*
X157634646Y-83268848D01*
X158012913Y-83198197D01*
X158016354Y-82989578D01*
X157844772Y-82989578D01*
X157843410Y-83046430D01*
X157841075Y-83061812D01*
X157814442Y-83066336D01*
X157747412Y-83078720D01*
X157649514Y-83097176D01*
X157530279Y-83119921D01*
X157504551Y-83124858D01*
X157339006Y-83159836D01*
X157219509Y-83192202D01*
X157147970Y-83221403D01*
X157132362Y-83232916D01*
X157100800Y-83280136D01*
X157059426Y-83362741D01*
X157012417Y-83469753D01*
X156963953Y-83590195D01*
X156918212Y-83713088D01*
X156879374Y-83827455D01*
X156851616Y-83922319D01*
X156839117Y-83986701D01*
X156839485Y-84002331D01*
X156858423Y-84047854D01*
X156900533Y-84124396D01*
X156959663Y-84221429D01*
X157029662Y-84328430D01*
X157032562Y-84332710D01*
X157212661Y-84598201D01*
X157028261Y-84783840D01*
X156948796Y-84860094D01*
X156880402Y-84918841D01*
X156831890Y-84952899D01*
X156814379Y-84958166D01*
X156782686Y-84939838D01*
X156718930Y-84898630D01*
X156632687Y-84840850D01*
X156543634Y-84779808D01*
X156415047Y-84694996D01*
X156315103Y-84641141D01*
X156234236Y-84615648D01*
X156162877Y-84615920D01*
X156091458Y-84639364D01*
X156068048Y-84650808D01*
X156014153Y-84670645D01*
X155981753Y-84667841D01*
X155980531Y-84666286D01*
X155967042Y-84636919D01*
X155937365Y-84567834D01*
X155894586Y-84466364D01*
X155841793Y-84339848D01*
X155782074Y-84195620D01*
X155764984Y-84154159D01*
X155563384Y-83664598D01*
X155700323Y-83539444D01*
X155844201Y-83376241D01*
X155949878Y-83188679D01*
X156014271Y-82985788D01*
X156034298Y-82776596D01*
X156016692Y-82612654D01*
X155949469Y-82399194D01*
X155843643Y-82212160D01*
X155705038Y-82055038D01*
X155539475Y-81931316D01*
X155352778Y-81844481D01*
X155150769Y-81798022D01*
X154939271Y-81795424D01*
X154725940Y-81839584D01*
X154519256Y-81931118D01*
X154344247Y-82060087D01*
X154204486Y-82221545D01*
X154103548Y-82410548D01*
X154045008Y-82622147D01*
X154031083Y-82801100D01*
X154056033Y-83028357D01*
X154127558Y-83237170D01*
X154243953Y-83423822D01*
X154382225Y-83566861D01*
X154495670Y-83663830D01*
X154287083Y-84170078D01*
X154225426Y-84319307D01*
X154170324Y-84451876D01*
X154124689Y-84560847D01*
X154091431Y-84639286D01*
X154073458Y-84680255D01*
X154071241Y-84684557D01*
X154046406Y-84679730D01*
X153995098Y-84657094D01*
X153986608Y-84652776D01*
X153919643Y-84624287D01*
X153856202Y-84614784D01*
X153787191Y-84626885D01*
X153703517Y-84663210D01*
X153596088Y-84726378D01*
X153490314Y-84795724D01*
X153217885Y-84978686D01*
X153029560Y-84789368D01*
X152841234Y-84600050D01*
X153030727Y-84321787D01*
X153124878Y-84177244D01*
X153187434Y-84066751D01*
X153217495Y-83991966D01*
X153220220Y-83972316D01*
X153209936Y-83913725D01*
X153182316Y-83821498D01*
X153142207Y-83707758D01*
X153094457Y-83584627D01*
X153043914Y-83464224D01*
X152995424Y-83358674D01*
X152953836Y-83280096D01*
X152929624Y-83245659D01*
X152893984Y-83218140D01*
X152838000Y-83193407D01*
X152753181Y-83168786D01*
X152631035Y-83141599D01*
X152546458Y-83124889D01*
X152424144Y-83101497D01*
X152321341Y-83082031D01*
X152247544Y-83068273D01*
X152212250Y-83062009D01*
X152210636Y-83061812D01*
X152207576Y-83038143D01*
X152205127Y-82974163D01*
X152203586Y-82880410D01*
X152203203Y-82796558D01*
X152204210Y-82675946D01*
X152208216Y-82596905D01*
X152216701Y-82550175D01*
X152231144Y-82526499D01*
X152247698Y-82518019D01*
X152289363Y-82508356D01*
X152369362Y-82492021D01*
X152475984Y-82471339D01*
X152591087Y-82449818D01*
X152732442Y-82421750D01*
X152831874Y-82396440D01*
X152898016Y-82371171D01*
X152939502Y-82343229D01*
X152943943Y-82338837D01*
X152977337Y-82290204D01*
X153022128Y-82206268D01*
X153073214Y-82098948D01*
X153125489Y-81980166D01*
X153173851Y-81861840D01*
X153213194Y-81755893D01*
X153238415Y-81674243D01*
X153244998Y-81635723D01*
X153229705Y-81583684D01*
X153184949Y-81496985D01*
X153113392Y-81380385D01*
X153044338Y-81277049D01*
X152843030Y-80984203D01*
X153025867Y-80802587D01*
X153104402Y-80726395D01*
X153170204Y-80665936D01*
X153214716Y-80628883D01*
X153228430Y-80620971D01*
X153255690Y-80634479D01*
X153316494Y-80671475D01*
X153402464Y-80726668D01*
X153505222Y-80794763D01*
X153530303Y-80811662D01*
X153662945Y-80898546D01*
X153762641Y-80956958D01*
X153836016Y-80990360D01*
X153889697Y-81002213D01*
X153895349Y-81002352D01*
X153960254Y-80991501D01*
X154056265Y-80962431D01*
X154170952Y-80920373D01*
X154291883Y-80870552D01*
X154406627Y-80818198D01*
X154502754Y-80768538D01*
X154567833Y-80726800D01*
X154582502Y-80713364D01*
X154609280Y-80669543D01*
X154634998Y-80596672D01*
X154661557Y-80487940D01*
X154690860Y-80336540D01*
X154696128Y-80306775D01*
X154756882Y-79959910D01*
X155030993Y-79959910D01*
X155142161Y-79961814D01*
X155231665Y-79966971D01*
X155289142Y-79974548D01*
X155305105Y-79981938D01*
X155309589Y-80013806D01*
X155321877Y-80085762D01*
X155340224Y-80187947D01*
X155362887Y-80310501D01*
X155369192Y-80344067D01*
X155403337Y-80509627D01*
X155434967Y-80631456D01*
X155463319Y-80706840D01*
X155477250Y-80727532D01*
X155526609Y-80761091D01*
X155611961Y-80804806D01*
X155720768Y-80853655D01*
X155840489Y-80902616D01*
X155958587Y-80946665D01*
X156062521Y-80980782D01*
X156139753Y-80999942D01*
X156163374Y-81002352D01*
X156212857Y-80995080D01*
X156274701Y-80970481D01*
X156356869Y-80924381D01*
X156467326Y-80852606D01*
X156527162Y-80811662D01*
X156631119Y-80740819D01*
X156720435Y-80681900D01*
X156786674Y-80640327D01*
X156821401Y-80621523D01*
X156823786Y-80620971D01*
X156849316Y-80638011D01*
X156901578Y-80683973D01*
X156972065Y-80751118D01*
X157026437Y-80805305D01*
X157208259Y-80989639D01*
X157006732Y-81289432D01*
X156933974Y-81400892D01*
X156872902Y-81500594D01*
X156828743Y-81579529D01*
X156806723Y-81628689D01*
X156805205Y-81636777D01*
X156815972Y-81686117D01*
X156844900Y-81769291D01*
X156886927Y-81874892D01*
X156936993Y-81991516D01*
X156990038Y-82107755D01*
X157041000Y-82212205D01*
X157084819Y-82293460D01*
X157116434Y-82340114D01*
X157117985Y-82341715D01*
X157156344Y-82368826D01*
X157218186Y-82393706D01*
X157311540Y-82418764D01*
X157444440Y-82446410D01*
X157504404Y-82457623D01*
X157834935Y-82518152D01*
X157842151Y-82789982D01*
X157844367Y-82900627D01*
X157844772Y-82989578D01*
X158016354Y-82989578D01*
X158026835Y-82354373D01*
X157905459Y-82329477D01*
X157826255Y-82313953D01*
X157715353Y-82293141D01*
X157591152Y-82270467D01*
X157529830Y-82259506D01*
X157419558Y-82237857D01*
X157326951Y-82215782D01*
X157264309Y-82196427D01*
X157245516Y-82186820D01*
X157223051Y-82152361D01*
X157187402Y-82083061D01*
X157144084Y-81991367D01*
X157098614Y-81889724D01*
X157056509Y-81790578D01*
X157023285Y-81706376D01*
X157004460Y-81649563D01*
X157002249Y-81637988D01*
X157014906Y-81604761D01*
X157052015Y-81538167D01*
X157108643Y-81446342D01*
X157179858Y-81337421D01*
X157223401Y-81273255D01*
X157447897Y-80946661D01*
X157158748Y-80656689D01*
X157059791Y-80558710D01*
X156972728Y-80474877D01*
X156904065Y-80411272D01*
X156860312Y-80373974D01*
X156848357Y-80366717D01*
X156821071Y-80380455D01*
X156759864Y-80418332D01*
X156672485Y-80475338D01*
X156566681Y-80546466D01*
X156506216Y-80587879D01*
X156392284Y-80664433D01*
X156290810Y-80728947D01*
X156210049Y-80776452D01*
X156158257Y-80801978D01*
X156145661Y-80804933D01*
X156096405Y-80792122D01*
X156018074Y-80763603D01*
X155922689Y-80724701D01*
X155822270Y-80680739D01*
X155728835Y-80637042D01*
X155654405Y-80598935D01*
X155611000Y-80571743D01*
X155605216Y-80565527D01*
X155594556Y-80529575D01*
X155577204Y-80453367D01*
X155555233Y-80346737D01*
X155530720Y-80219517D01*
X155520373Y-80163447D01*
X155494740Y-80032039D01*
X155469428Y-79918681D01*
X155446775Y-79832741D01*
X155429121Y-79783584D01*
X155423665Y-79776099D01*
X155383194Y-79766398D01*
X155304793Y-79759851D01*
X155199538Y-79756288D01*
X155078504Y-79755542D01*
X154952769Y-79757442D01*
X154952769Y-79757442D01*
G37*
X154952769Y-79757442D02*
X154833407Y-79761821D01*
X154731495Y-79768509D01*
X154658108Y-79777338D01*
X154624322Y-79788138D01*
X154624194Y-79788288D01*
X154610514Y-79823595D01*
X154590501Y-79899236D01*
X154566455Y-80005433D01*
X154540675Y-80132405D01*
X154530038Y-80188739D01*
X154504002Y-80321059D01*
X154478328Y-80436238D01*
X154455397Y-80524622D01*
X154437591Y-80576560D01*
X154432231Y-80585168D01*
X154398614Y-80607539D01*
X154333661Y-80639552D01*
X154232518Y-80683368D01*
X154090331Y-80741153D01*
X154018037Y-80769781D01*
X153887826Y-80821052D01*
X153561074Y-80593884D01*
X153447345Y-80515942D01*
X153347352Y-80449532D01*
X153268876Y-80399656D01*
X153219698Y-80371316D01*
X153207769Y-80366717D01*
X153179302Y-80384202D01*
X153124223Y-80431472D01*
X153050194Y-80500743D01*
X152964874Y-80584235D01*
X152875927Y-80674166D01*
X152791012Y-80762753D01*
X152717791Y-80842217D01*
X152663926Y-80904775D01*
X152637077Y-80942645D01*
X152635435Y-80948042D01*
X152649249Y-80979963D01*
X152687279Y-81045199D01*
X152744411Y-81135529D01*
X152815530Y-81242730D01*
X152851552Y-81295469D01*
X152927039Y-81405843D01*
X152991032Y-81501021D01*
X153038494Y-81573381D01*
X153064383Y-81615300D01*
X153067668Y-81622381D01*
X153057758Y-81655478D01*
X153031399Y-81722311D01*
X152993645Y-81811570D01*
X152949554Y-81911945D01*
X152904179Y-82012126D01*
X152862576Y-82100804D01*
X152829801Y-82166669D01*
X152810908Y-82198410D01*
X152809724Y-82199447D01*
X152776028Y-82209731D01*
X152703896Y-82225723D01*
X152605080Y-82244951D01*
X152526407Y-82259000D01*
X152401610Y-82280941D01*
X152281227Y-82302857D01*
X152183262Y-82321439D01*
X152145996Y-82328927D01*
X152025225Y-82354113D01*
X152025225Y-82769813D01*
X152025695Y-82925139D01*
X152027614Y-83036983D01*
X152031746Y-83112709D01*
X152038857Y-83159681D01*
X152049710Y-83185263D01*
X152065071Y-83196819D01*
X152069720Y-83198384D01*
X152113767Y-83208517D01*
X152193739Y-83224675D01*
X152295484Y-83244041D01*
X152343043Y-83252770D01*
X152462406Y-83274852D01*
X152578387Y-83297029D01*
X152670716Y-83315405D01*
X152690974Y-83319637D01*
X152810075Y-83344989D01*
X152930865Y-83648979D01*
X153051654Y-83952970D01*
X152843545Y-84256046D01*
X152769288Y-84366413D01*
X152706733Y-84463626D01*
X152661076Y-84539279D01*
X152637515Y-84584964D01*
X152635435Y-84592733D01*
X152652721Y-84621611D01*
X152699449Y-84677420D01*
X152767926Y-84752404D01*
X152850459Y-84838803D01*
X152939353Y-84928859D01*
X153026917Y-85014814D01*
X153105455Y-85088910D01*
X153167276Y-85143388D01*
X153204685Y-85170490D01*
X153209977Y-85172122D01*
X153239649Y-85158443D01*
X153302815Y-85120845D01*
X153391249Y-85064486D01*
X153496728Y-84994523D01*
X153540092Y-84965086D01*
X153843143Y-84758049D01*
X153991970Y-84840413D01*
X154069911Y-84879034D01*
X154130738Y-84900872D01*
X154161101Y-84901253D01*
X154175826Y-84872937D01*
X154207174Y-84803852D01*
X154252440Y-84700261D01*
X154308918Y-84568431D01*
X154373903Y-84414625D01*
X154444690Y-84245108D01*
X154450387Y-84231381D01*
X154719370Y-83583033D01*
X154662638Y-83537516D01*
X154535043Y-83431862D01*
X154441060Y-83345223D01*
X154371931Y-83268493D01*
X154318901Y-83192568D01*
X154300606Y-83161054D01*
X154264308Y-83090980D01*
X154241793Y-83029882D01*
X154229824Y-82961646D01*
X154225167Y-82870158D01*
X154224525Y-82782132D01*
X154232476Y-82613368D01*
X154260046Y-82478794D01*
X154312803Y-82363727D01*
X154396319Y-82253486D01*
X154444418Y-82202551D01*
X154601561Y-82074070D01*
X154773009Y-81993505D01*
X154963603Y-81958810D01*
X155025279Y-81957040D01*
X155233209Y-81980597D01*
X155417939Y-82048775D01*
X155576563Y-82159773D01*
X155706175Y-82311789D01*
X155765909Y-82416000D01*
X155831453Y-82605298D01*
X155849144Y-82804916D01*
X155818497Y-83006679D01*
X155803833Y-83054699D01*
X155746788Y-83172619D01*
X155658409Y-83296666D01*
X155552630Y-83409806D01*
X155443838Y-83494728D01*
X155388247Y-83537171D01*
X155357874Y-83576084D01*
X155355956Y-83584666D01*
X155365279Y-83616282D01*
X155391195Y-83687218D01*
X155430630Y-83789903D01*
X155480505Y-83916766D01*
X155537746Y-84060234D01*
X155599274Y-84212736D01*
X155662014Y-84366701D01*
X155722890Y-84514556D01*
X155778824Y-84648730D01*
X155826740Y-84761652D01*
X155863562Y-84845750D01*
X155886213Y-84893451D01*
X155890705Y-84900748D01*
X155920767Y-84900646D01*
X155982325Y-84880416D01*
X156062296Y-84844397D01*
X156065667Y-84842703D01*
X156222290Y-84763639D01*
X156521243Y-84967881D01*
X156631198Y-85041044D01*
X156728353Y-85102048D01*
X156804116Y-85145766D01*
X156849896Y-85167072D01*
X156857195Y-85168292D01*
X156887252Y-85149510D01*
X156945062Y-85100410D01*
X157023398Y-85027578D01*
X157115033Y-84937603D01*
X157157033Y-84894968D01*
X157250392Y-84798985D01*
X157330875Y-84715750D01*
X157391892Y-84652116D01*
X157426854Y-84614935D01*
X157432300Y-84608699D01*
X157422984Y-84583055D01*
X157389088Y-84523450D01*
X157335304Y-84437508D01*
X157266323Y-84332849D01*
X157226015Y-84273576D01*
X157007301Y-83955228D01*
X157126431Y-83654716D01*
X157171736Y-83540900D01*
X157209995Y-83445664D01*
X157237497Y-83378183D01*
X157250532Y-83347633D01*
X157250971Y-83346852D01*
X157276496Y-83339882D01*
X157343268Y-83325541D01*
X157442509Y-83305612D01*
X157565447Y-83281880D01*
X157634646Y-83268848D01*
X158012913Y-83198197D01*
X158016354Y-82989578D01*
X157844772Y-82989578D01*
X157843410Y-83046430D01*
X157841075Y-83061812D01*
X157814442Y-83066336D01*
X157747412Y-83078720D01*
X157649514Y-83097176D01*
X157530279Y-83119921D01*
X157504551Y-83124858D01*
X157339006Y-83159836D01*
X157219509Y-83192202D01*
X157147970Y-83221403D01*
X157132362Y-83232916D01*
X157100800Y-83280136D01*
X157059426Y-83362741D01*
X157012417Y-83469753D01*
X156963953Y-83590195D01*
X156918212Y-83713088D01*
X156879374Y-83827455D01*
X156851616Y-83922319D01*
X156839117Y-83986701D01*
X156839485Y-84002331D01*
X156858423Y-84047854D01*
X156900533Y-84124396D01*
X156959663Y-84221429D01*
X157029662Y-84328430D01*
X157032562Y-84332710D01*
X157212661Y-84598201D01*
X157028261Y-84783840D01*
X156948796Y-84860094D01*
X156880402Y-84918841D01*
X156831890Y-84952899D01*
X156814379Y-84958166D01*
X156782686Y-84939838D01*
X156718930Y-84898630D01*
X156632687Y-84840850D01*
X156543634Y-84779808D01*
X156415047Y-84694996D01*
X156315103Y-84641141D01*
X156234236Y-84615648D01*
X156162877Y-84615920D01*
X156091458Y-84639364D01*
X156068048Y-84650808D01*
X156014153Y-84670645D01*
X155981753Y-84667841D01*
X155980531Y-84666286D01*
X155967042Y-84636919D01*
X155937365Y-84567834D01*
X155894586Y-84466364D01*
X155841793Y-84339848D01*
X155782074Y-84195620D01*
X155764984Y-84154159D01*
X155563384Y-83664598D01*
X155700323Y-83539444D01*
X155844201Y-83376241D01*
X155949878Y-83188679D01*
X156014271Y-82985788D01*
X156034298Y-82776596D01*
X156016692Y-82612654D01*
X155949469Y-82399194D01*
X155843643Y-82212160D01*
X155705038Y-82055038D01*
X155539475Y-81931316D01*
X155352778Y-81844481D01*
X155150769Y-81798022D01*
X154939271Y-81795424D01*
X154725940Y-81839584D01*
X154519256Y-81931118D01*
X154344247Y-82060087D01*
X154204486Y-82221545D01*
X154103548Y-82410548D01*
X154045008Y-82622147D01*
X154031083Y-82801100D01*
X154056033Y-83028357D01*
X154127558Y-83237170D01*
X154243953Y-83423822D01*
X154382225Y-83566861D01*
X154495670Y-83663830D01*
X154287083Y-84170078D01*
X154225426Y-84319307D01*
X154170324Y-84451876D01*
X154124689Y-84560847D01*
X154091431Y-84639286D01*
X154073458Y-84680255D01*
X154071241Y-84684557D01*
X154046406Y-84679730D01*
X153995098Y-84657094D01*
X153986608Y-84652776D01*
X153919643Y-84624287D01*
X153856202Y-84614784D01*
X153787191Y-84626885D01*
X153703517Y-84663210D01*
X153596088Y-84726378D01*
X153490314Y-84795724D01*
X153217885Y-84978686D01*
X153029560Y-84789368D01*
X152841234Y-84600050D01*
X153030727Y-84321787D01*
X153124878Y-84177244D01*
X153187434Y-84066751D01*
X153217495Y-83991966D01*
X153220220Y-83972316D01*
X153209936Y-83913725D01*
X153182316Y-83821498D01*
X153142207Y-83707758D01*
X153094457Y-83584627D01*
X153043914Y-83464224D01*
X152995424Y-83358674D01*
X152953836Y-83280096D01*
X152929624Y-83245659D01*
X152893984Y-83218140D01*
X152838000Y-83193407D01*
X152753181Y-83168786D01*
X152631035Y-83141599D01*
X152546458Y-83124889D01*
X152424144Y-83101497D01*
X152321341Y-83082031D01*
X152247544Y-83068273D01*
X152212250Y-83062009D01*
X152210636Y-83061812D01*
X152207576Y-83038143D01*
X152205127Y-82974163D01*
X152203586Y-82880410D01*
X152203203Y-82796558D01*
X152204210Y-82675946D01*
X152208216Y-82596905D01*
X152216701Y-82550175D01*
X152231144Y-82526499D01*
X152247698Y-82518019D01*
X152289363Y-82508356D01*
X152369362Y-82492021D01*
X152475984Y-82471339D01*
X152591087Y-82449818D01*
X152732442Y-82421750D01*
X152831874Y-82396440D01*
X152898016Y-82371171D01*
X152939502Y-82343229D01*
X152943943Y-82338837D01*
X152977337Y-82290204D01*
X153022128Y-82206268D01*
X153073214Y-82098948D01*
X153125489Y-81980166D01*
X153173851Y-81861840D01*
X153213194Y-81755893D01*
X153238415Y-81674243D01*
X153244998Y-81635723D01*
X153229705Y-81583684D01*
X153184949Y-81496985D01*
X153113392Y-81380385D01*
X153044338Y-81277049D01*
X152843030Y-80984203D01*
X153025867Y-80802587D01*
X153104402Y-80726395D01*
X153170204Y-80665936D01*
X153214716Y-80628883D01*
X153228430Y-80620971D01*
X153255690Y-80634479D01*
X153316494Y-80671475D01*
X153402464Y-80726668D01*
X153505222Y-80794763D01*
X153530303Y-80811662D01*
X153662945Y-80898546D01*
X153762641Y-80956958D01*
X153836016Y-80990360D01*
X153889697Y-81002213D01*
X153895349Y-81002352D01*
X153960254Y-80991501D01*
X154056265Y-80962431D01*
X154170952Y-80920373D01*
X154291883Y-80870552D01*
X154406627Y-80818198D01*
X154502754Y-80768538D01*
X154567833Y-80726800D01*
X154582502Y-80713364D01*
X154609280Y-80669543D01*
X154634998Y-80596672D01*
X154661557Y-80487940D01*
X154690860Y-80336540D01*
X154696128Y-80306775D01*
X154756882Y-79959910D01*
X155030993Y-79959910D01*
X155142161Y-79961814D01*
X155231665Y-79966971D01*
X155289142Y-79974548D01*
X155305105Y-79981938D01*
X155309589Y-80013806D01*
X155321877Y-80085762D01*
X155340224Y-80187947D01*
X155362887Y-80310501D01*
X155369192Y-80344067D01*
X155403337Y-80509627D01*
X155434967Y-80631456D01*
X155463319Y-80706840D01*
X155477250Y-80727532D01*
X155526609Y-80761091D01*
X155611961Y-80804806D01*
X155720768Y-80853655D01*
X155840489Y-80902616D01*
X155958587Y-80946665D01*
X156062521Y-80980782D01*
X156139753Y-80999942D01*
X156163374Y-81002352D01*
X156212857Y-80995080D01*
X156274701Y-80970481D01*
X156356869Y-80924381D01*
X156467326Y-80852606D01*
X156527162Y-80811662D01*
X156631119Y-80740819D01*
X156720435Y-80681900D01*
X156786674Y-80640327D01*
X156821401Y-80621523D01*
X156823786Y-80620971D01*
X156849316Y-80638011D01*
X156901578Y-80683973D01*
X156972065Y-80751118D01*
X157026437Y-80805305D01*
X157208259Y-80989639D01*
X157006732Y-81289432D01*
X156933974Y-81400892D01*
X156872902Y-81500594D01*
X156828743Y-81579529D01*
X156806723Y-81628689D01*
X156805205Y-81636777D01*
X156815972Y-81686117D01*
X156844900Y-81769291D01*
X156886927Y-81874892D01*
X156936993Y-81991516D01*
X156990038Y-82107755D01*
X157041000Y-82212205D01*
X157084819Y-82293460D01*
X157116434Y-82340114D01*
X157117985Y-82341715D01*
X157156344Y-82368826D01*
X157218186Y-82393706D01*
X157311540Y-82418764D01*
X157444440Y-82446410D01*
X157504404Y-82457623D01*
X157834935Y-82518152D01*
X157842151Y-82789982D01*
X157844367Y-82900627D01*
X157844772Y-82989578D01*
X158016354Y-82989578D01*
X158026835Y-82354373D01*
X157905459Y-82329477D01*
X157826255Y-82313953D01*
X157715353Y-82293141D01*
X157591152Y-82270467D01*
X157529830Y-82259506D01*
X157419558Y-82237857D01*
X157326951Y-82215782D01*
X157264309Y-82196427D01*
X157245516Y-82186820D01*
X157223051Y-82152361D01*
X157187402Y-82083061D01*
X157144084Y-81991367D01*
X157098614Y-81889724D01*
X157056509Y-81790578D01*
X157023285Y-81706376D01*
X157004460Y-81649563D01*
X157002249Y-81637988D01*
X157014906Y-81604761D01*
X157052015Y-81538167D01*
X157108643Y-81446342D01*
X157179858Y-81337421D01*
X157223401Y-81273255D01*
X157447897Y-80946661D01*
X157158748Y-80656689D01*
X157059791Y-80558710D01*
X156972728Y-80474877D01*
X156904065Y-80411272D01*
X156860312Y-80373974D01*
X156848357Y-80366717D01*
X156821071Y-80380455D01*
X156759864Y-80418332D01*
X156672485Y-80475338D01*
X156566681Y-80546466D01*
X156506216Y-80587879D01*
X156392284Y-80664433D01*
X156290810Y-80728947D01*
X156210049Y-80776452D01*
X156158257Y-80801978D01*
X156145661Y-80804933D01*
X156096405Y-80792122D01*
X156018074Y-80763603D01*
X155922689Y-80724701D01*
X155822270Y-80680739D01*
X155728835Y-80637042D01*
X155654405Y-80598935D01*
X155611000Y-80571743D01*
X155605216Y-80565527D01*
X155594556Y-80529575D01*
X155577204Y-80453367D01*
X155555233Y-80346737D01*
X155530720Y-80219517D01*
X155520373Y-80163447D01*
X155494740Y-80032039D01*
X155469428Y-79918681D01*
X155446775Y-79832741D01*
X155429121Y-79783584D01*
X155423665Y-79776099D01*
X155383194Y-79766398D01*
X155304793Y-79759851D01*
X155199538Y-79756288D01*
X155078504Y-79755542D01*
X154952769Y-79757442D01*
D12*
X147800000Y-55400000D03*
X147800000Y-52400000D03*
D13*
X181275000Y-90225000D03*
X197875000Y-90225000D03*
D14*
X202675000Y-64125000D03*
X147675000Y-64125000D03*
M02*
