M48
;DRILL file {KiCad 4.0.7-e2-6376~58~ubuntu14.04.1} date Wed May 23 13:57:17 2018
;FORMAT={-:-/ absolute / metric / decimal}
FMAT,2
METRIC,TZ
T1C0.400
T2C0.900
T3C1.200
T4C3.250
%
G90
G05
M71
T1
X151.5Y-56.1
X162.6Y-48.6
X169.4Y-48.6
X173.6Y-46.1
X175.Y-43.2
X175.Y-48.6
X175.Y-50.
X178.3Y-56.4
X180.6Y-48.6
X187.4Y-48.6
X188.8Y-54.4
X193.Y-59.
X194.Y-55.4
X197.Y-76.25
T2
X147.8Y-52.4
X147.8Y-55.4
T3
X181.275Y-90.225
X197.875Y-90.225
T4
X147.675Y-64.125
X202.675Y-64.125
T0
M30
