<?xml version="1.0" standalone="no"?>
 <!DOCTYPE svg PUBLIC "-//W3C//DTD SVG 1.1//EN" 
 "http://www.w3.org/Graphics/SVG/1.1/DTD/svg11.dtd"> 
<svg xmlns="http://www.w3.org/2000/svg" version="1.1" 
    width="7.09422cm" height="7.0485cm" viewBox="0 0 27930 27750 ">
<title>SVG Picture created as NeuroBytes_Battery_Pack-brd.svg date 2017/09/20 16:08:14 </title>
  <desc>Picture generated by PCBNEW </desc>
<g style="fill:#000000; fill-opacity:1;stroke:#000000; stroke-opacity:1;
stroke-linecap:round; stroke-linejoin:round; "
 transform="translate(0 0) scale(1 1)">
</g>
<g style="fill:#000000; fill-opacity:0.0; 
stroke:#000000; stroke-width:-0.000393701; stroke-opacity:1; 
stroke-linecap:round; stroke-linejoin:round;">
</g>
<g style="fill:#000000; fill-opacity:0.0; 
stroke:#000000; stroke-width:74.8031; stroke-opacity:1; 
stroke-linecap:round; stroke-linejoin:round;">
<path d="M9626 3065
L9750 2916
" />
<path d="M9850 3065
L9850 2716
L9700 2716
L9651 2741
L9626 2791
L9626 2841
L9651 2891
L9700 2916
L9850 2916
" />
<path d="M9750 2541
L9875 2566
L10000 2641
L10075 2766
L10099 2891
L10075 3015
L10000 3140
L9875 3215
L9750 3240
L9626 3215
L9501 3140
L9426 3015
L9401 2891
L9426 2766
L9501 2641
L9626 2566
L9750 2541
" />
</g>
<g style="fill:#000000; fill-opacity:0.0; 
stroke:#000000; stroke-width:110.236; stroke-opacity:1; 
stroke-linecap:round; stroke-linejoin:round;">
<path d="M16387 3850
L16387 3062
L15937 3850
L15937 3062
" />
<path d="M15262 3812
L15337 3850
L15487 3850
L15562 3812
L15600 3737
L15600 3437
L15562 3362
L15487 3325
L15337 3325
L15262 3362
L15225 3437
L15225 3512
L15600 3587
" />
<path d="M14550 3325
L14550 3850
" />
<path d="M14887 3325
L14887 3737
L14850 3812
L14775 3850
L14662 3850
L14587 3812
L14550 3775
" />
<path d="M14175 3850
L14175 3325
" />
<path d="M14175 3475
L14137 3400
L14100 3362
L14025 3325
L13950 3325
" />
<path d="M13575 3850
L13650 3812
L13687 3775
L13725 3700
L13725 3475
L13687 3400
L13650 3362
L13575 3325
L13462 3325
L13387 3362
L13350 3400
L13312 3475
L13312 3700
L13350 3775
L13387 3812
L13462 3850
L13575 3850
" />
<path d="M12712 3437
L12600 3475
L12563 3512
L12525 3587
L12525 3700
L12563 3775
L12600 3812
L12675 3850
L12975 3850
L12975 3062
L12712 3062
L12638 3100
L12600 3137
L12563 3212
L12563 3287
L12600 3362
L12638 3400
L12712 3437
L12975 3437
" />
<path d="M12263 3325
L12075 3850
" />
<path d="M11888 3325
L12075 3850
L12150 4037
L12188 4075
L12263 4112
" />
<path d="M11700 3325
L11400 3325
" />
<path d="M11588 3062
L11588 3737
L11550 3812
L11475 3850
L11400 3850
" />
<path d="M10838 3812
L10913 3850
L11063 3850
L11138 3812
L11175 3737
L11175 3437
L11138 3362
L11063 3325
L10913 3325
L10838 3362
L10800 3437
L10800 3512
L11175 3587
" />
<path d="M10500 3812
L10425 3850
L10275 3850
L10200 3812
L10163 3737
L10163 3700
L10200 3625
L10275 3587
L10388 3587
L10463 3550
L10500 3475
L10500 3437
L10463 3362
L10388 3325
L10275 3325
L10200 3362
" />
</g>
<g style="fill:#000000; fill-opacity:1.0; 
stroke:#000000; stroke-width:3.93701; stroke-opacity:1; 
stroke-linecap:round; stroke-linejoin:round;">
<polyline style="fill-rule:evenodd;"
points="14842,10396
14815,10397
14662,10425
14511,10483
14373,10567
14254,10672
14163,10793
14139,10838
14123,10876
14111,10911
14102,10951
14096,11003
14093,11072
14091,11166
14091,11290
14091,11348
14090,11470
14089,11578
14087,11664
14085,11724
14082,11752
14082,11753
14063,11742
14018,11712
13955,11669
13887,11621
13773,11542
13685,11485
13614,11447
13556,11425
13502,11414
13466,11413
13406,11417
13351,11433
13299,11463
13247,11511
13190,11582
13125,11679
13048,11805
12981,11922
12918,12032
12866,12122
12826,12198
12795,12265
12773,12329
12757,12396
12747,12473
12741,12564
12738,12677
12736,12816
12735,12989
12734,13025
12728,13667
12488,13729
12236,13807
12021,13901
11842,14011
11699,14137
11592,14280
11566,14329
11501,14462
11488,15614
11248,15388
11140,15288
11055,15212
10988,15159
10935,15124
10889,15105
10847,15099
10804,15102
10801,15102
10706,15128
10589,15178
10453,15248
10306,15335
10151,15434
9995,15543
9842,15657
9699,15772
9570,15885
9462,15992
9378,16089
9348,16132
9291,16220
9291,16797
9290,16944
9289,17077
9288,17191
9286,17282
9284,17344
9282,17372
9281,17373
9260,17364
9213,17342
9150,17311
9146,17309
9013,17255
8891,17234
8784,17245
8695,17289
8627,17363
8614,17387
8563,17500
8510,17638
8461,17787
8419,17932
8393,18044
8381,18108
8371,18171
8362,18236
8356,18308
8351,18390
8347,18488
8345,18605
8344,18745
8344,18914
8345,19114
8346,19320
8351,20037
8496,20187
8673,20357
8859,20511
9062,20654
9289,20792
9548,20929
9551,20930
9896,21085
10249,21211
10607,21307
10962,21373
11310,21406
11645,21406
11741,21399
12101,21354
12462,21281
12823,21179
13187,21046
13556,20883
13932,20687
13956,20673
11106,20673
11077,20668
11017,20654
10936,20633
10841,20607
10829,20604
10472,20495
10141,20371
9837,20235
9563,20087
9322,19928
9115,19760
8944,19584
8916,19549
8766,19335
8654,19115
8578,18887
8551,18751
8540,18662
8541,18581
8555,18498
8584,18404
8630,18289
8662,18217
8706,18126
8743,18067
8780,18032
8823,18016
8874,18013
8934,18018
9002,18034
9079,18063
9169,18107
9274,18167
9397,18245
9541,18343
9709,18462
9903,18603
10013,18684
10142,18780
10264,18870
10373,18949
10466,19016
10537,19066
10584,19098
10598,19106
10655,19136
10604,19189
10563,19242
10533,19297
10532,19299
10522,19346
10515,19424
10511,19524
10510,19638
10511,19756
10514,19870
10520,19971
10528,20050
10538,20099
10539,20102
10575,20161
10641,20239
10732,20332
10843,20434
10968,20539
11033,20593
11080,20636
11106,20664
11106,20673
13956,20673
14316,20458
14711,20196
14820,20116
13381,20116
13377,20165
13335,20218
13258,20271
13251,20275
13152,20308
13045,20304
12928,20263
12836,20209
12770,20161
12685,20094
12591,20016
12499,19935
12483,19921
12325,19776
12191,19656
12079,19558
11984,19478
11902,19414
11829,19363
11760,19323
11692,19290
11620,19261
11541,19235
11450,19207
11430,19202
11170,19126
11171,18610
11171,18452
11171,18328
11169,18234
11167,18162
11162,18109
11155,18068
11145,18034
11133,18002
11129,17995
11067,17892
10974,17792
10859,17703
10778,17656
10701,17613
10612,17557
10531,17501
10452,17439
10355,17353
10245,17252
10131,17141
10018,17028
9915,16920
9828,16823
9786,16773
9665,16624
9820,16478
9931,16381
10059,16282
10197,16185
10338,16095
10476,16016
10603,15951
10713,15906
10783,15886
10805,15884
10827,15886
10853,15896
10886,15916
10929,15948
10985,15995
11056,16059
11146,16142
11258,16248
11394,16378
11448,16430
11558,16535
11663,16636
11760,16728
11842,16807
11905,16867
11941,16901
11992,16950
12016,16974
12013,16977
11985,16960
11961,16945
11830,16877
11708,16845
11592,16850
11475,16891
11471,16893
11413,16925
11368,16959
11334,17001
11310,17056
11294,17128
11286,17223
11283,17345
11284,17500
11286,17583
11296,18023
12332,19049
12502,19217
12663,19378
12814,19529
12951,19668
13074,19792
13179,19900
13265,19988
13329,20055
13368,20099
13381,20116
14820,20116
15117,19899
15538,19566
15611,19506
15728,19405
15865,19281
16016,19140
16175,18987
16336,18828
16495,18668
16645,18513
16781,18369
16897,18241
16973,18153
17001,18117
16057,18117
16056,18118
15863,18363
15679,18569
15503,18737
15335,18867
15174,18960
15062,19005
14973,19022
14861,19030
14741,19028
14627,19017
14549,19000
14479,18978
14411,18952
14342,18920
14270,18881
14191,18832
14105,18771
14007,18697
13895,18608
13767,18501
13621,18376
13453,18228
13261,18058
13043,17863
13018,17841
12874,17711
12757,17606
12666,17524
12601,17464
12558,17423
12537,17400
12535,17393
12551,17400
12584,17420
12631,17451
12677,17481
12898,17610
13121,17710
13342,17779
13553,17814
13631,17818
13763,17812
13865,17789
13942,17747
13980,17710
13997,17688
14010,17666
14019,17639
14025,17599
14028,17540
14030,17458
14030,17345
14031,17260
14030,17111
14027,16994
14018,16902
14003,16829
13978,16767
13942,16710
13891,16649
13825,16578
13813,16566
13754,16507
13689,16447
13616,16385
13530,16318
13429,16243
13308,16157
13165,16059
12996,15945
12798,15814
12729,15768
12587,15674
12453,15585
12331,15502
12226,15429
12142,15370
12082,15326
12057,15306
12010,15256
11954,15184
11896,15101
11870,15059
11763,14886
11845,14813
11977,14717
12144,14631
12344,14555
12573,14491
12657,14472
12790,14449
12916,14438
13040,14441
13165,14459
13297,14494
13440,14547
13598,14619
13777,14712
13981,14826
14110,14902
14225,14970
14342,15039
14451,15101
14543,15153
14588,15178
14755,15268
14428,15276
14302,15279
14209,15283
14140,15289
14090,15298
14049,15310
14011,15327
13964,15352
13928,15376
13902,15406
13884,15447
13874,15505
13868,15585
13867,15693
13867,15835
13868,15863
13872,16263
13936,16320
13967,16345
14026,16391
14108,16455
14210,16533
14327,16622
14455,16719
14561,16798
14743,16935
14898,17052
15029,17152
15141,17239
15239,17316
15326,17386
15408,17454
15488,17522
15571,17593
15645,17658
15771,17772
15877,17875
15961,17963
16021,18035
16053,18087
16057,18117
17001,18117
17354,17668
17704,17171
18027,16653
18329,16109
18422,15927
18611,15551
18611,15538
17496,15538
17471,15681
17423,15896
17361,16099
17288,16284
17205,16444
17115,16571
17099,16590
17045,16647
17003,16676
16962,16680
16908,16661
16867,16641
16811,16606
16734,16549
16635,16467
16513,16361
16366,16228
16206,16080
16096,15978
15985,15876
15880,15782
15787,15700
15713,15637
15689,15617
15526,15484
15653,15460
15813,15421
15949,15368
16059,15304
16136,15231
16160,15194
16171,15163
16179,15114
16185,15042
16189,14943
16191,14810
16192,14747
16192,14624
16191,14515
16188,14425
16184,14361
16179,14330
16179,14329
16184,14326
16212,14346
16252,14378
16332,14445
16419,14513
16520,14589
16640,14675
16781,14775
16946,14898
17097,15026
17229,15153
17337,15275
17414,15385
17429,15411
17496,15538
18611,15538
18610,14447
18610,14233
18609,14027
18607,13831
18605,13650
18602,13490
18602,13476
18355,13476
18339,13567
18298,13646
18245,13709
18137,13796
18019,13846
17894,13858
17768,13832
17710,13806
17617,13752
17513,13680
17396,13588
17263,13474
17111,13334
16935,13167
16931,13163
16790,13027
16673,12918
16576,12831
16495,12765
16426,12717
16366,12682
16310,12659
16282,12650
16162,12637
16046,12663
15939,12725
15843,12822
15818,12857
15755,12951
15764,13367
15767,13506
15771,13612
15775,13691
15780,13748
15788,13791
15800,13826
15815,13859
15828,13883
15882,13984
15721,13886
15628,13832
15518,13771
15409,13713
15371,13693
15250,13634
15127,13576
14999,13518
14859,13458
14704,13394
14529,13324
14329,13246
14099,13158
13911,13087
13726,13016
13553,12946
13396,12878
13261,12816
13152,12762
13077,12718
13073,12716
13064,12701
13069,12672
13090,12624
13129,12551
13151,12512
13224,12390
13284,12301
13335,12241
13381,12206
13424,12193
13434,12193
13464,12194
13496,12202
13533,12217
13581,12243
13644,12282
13727,12338
13835,12412
13923,12474
14052,12564
14162,12637
14261,12698
14358,12753
14461,12804
14578,12857
14717,12915
14864,12974
15028,13038
15160,13085
15266,13115
15348,13130
15412,13129
15461,13115
15491,13097
15541,13056
15547,12632
15549,12501
15549,12380
15548,12276
15546,12196
15542,12147
15541,12140
15521,12077
15481,12019
15418,11960
15327,11899
15204,11831
15142,11799
14978,11715
14843,11643
14730,11577
14631,11514
14540,11449
14523,11436
14406,11347
14453,11310
14517,11273
14605,11236
14702,11203
14794,11180
14860,11173
14929,11177
14990,11189
15001,11193
15027,11211
15077,11254
15150,11319
15241,11403
15348,11503
15467,11617
15595,11740
15668,11810
15865,12002
16036,12167
16184,12310
16312,12431
16423,12535
16518,12623
16602,12697
16675,12761
16742,12816
16805,12866
16808,12868
16879,12922
16930,12955
16971,12973
17015,12980
17070,12981
17207,12964
17337,12920
17447,12855
17475,12831
17551,12759
17551,12414
17552,12291
17554,12192
17559,12121
17565,12082
17569,12076
17602,12095
17656,12136
17725,12190
17801,12253
17875,12318
17942,12379
17993,12429
18003,12440
18108,12583
18198,12760
18270,12967
18324,13200
18349,13363
18355,13476
18602,13476
18599,13354
18596,13248
18592,13174
18590,13153
18564,12951
18527,12743
18482,12536
18430,12339
18374,12160
18316,12008
18285,11943
18224,11846
18132,11734
18013,11610
17873,11479
17716,11344
17547,11209
17370,11076
17190,10951
17012,10835
16840,10734
16679,10650
16546,10592
16412,10549
16295,10531
16201,10536
16132,10565
16112,10585
16097,10607
16086,10633
16079,10669
16074,10722
16072,10798
16071,10904
16071,10985
16070,11098
16068,11196
16064,11271
16060,11319
16056,11333
16039,11319
15997,11281
15934,11220
15853,11142
15757,11049
15651,10944
15591,10884
15458,10752
15349,10645
15259,10561
15186,10498
15124,10452
15070,10421
15018,10403
14966,10394
14909,10393
14842,10396
" /> 
</g>
<g style="fill:#000000; fill-opacity:1.0; 
stroke:#000000; stroke-width:0; stroke-opacity:1; 
stroke-linecap:round; stroke-linejoin:round;">
<polyline style="fill-rule:evenodd;"
points="13687,5718
13687,5521
13372,5521
13372,5718
13687,5718
" /> 
<polyline style="fill-rule:evenodd;"
points="13215,5718
13215,5521
12900,5521
12900,5718
13215,5718
" /> 
<polyline style="fill-rule:evenodd;"
points="13392,6210
13195,6210
13195,6525
13392,6525
13392,6210
" /> 
<polyline style="fill-rule:evenodd;"
points="13392,6683
13195,6683
13195,6998
13392,6998
13392,6683
" /> 
<polyline style="fill-rule:evenodd;"
points="5872,14990
4967,14990
4967,15580
5872,15580
5872,14990
" /> 
<polyline style="fill-rule:evenodd;"
points="5872,16368
4967,16368
4967,16958
5872,16958
5872,16368
" /> 
<polyline style="fill-rule:evenodd;"
points="5223,10698
5223,11171
5617,11171
5617,10698
5223,10698
" /> 
<polyline style="fill-rule:evenodd;"
points="6010,10698
6010,11171
6404,11171
6404,10698
6010,10698
" /> 
<polyline style="fill-rule:evenodd;"
points="7152,10501
7624,10501
7624,10108
7152,10108
7152,10501
" /> 
<polyline style="fill-rule:evenodd;"
points="7152,9714
7624,9714
7624,9320
7152,9320
7152,9714
" /> 
<polyline style="fill-rule:evenodd;"
points="6817,9448
6227,9448
6227,9625
6817,9625
6817,9448
" /> 
<polyline style="fill-rule:evenodd;"
points="6817,9822
6227,9822
6227,10000
6817,10000
6817,9822
" /> 
<polyline style="fill-rule:evenodd;"
points="6817,10196
6227,10196
6227,10374
6817,10374
6817,10196
" /> 
<polyline style="fill-rule:evenodd;"
points="5400,10196
4809,10196
4809,10374
5400,10374
5400,10196
" /> 
<polyline style="fill-rule:evenodd;"
points="5400,9822
4809,9822
4809,10000
5400,10000
5400,9822
" /> 
<polyline style="fill-rule:evenodd;"
points="5400,9448
4809,9448
4809,9625
5400,9625
5400,9448
" /> 
<polyline style="fill-rule:evenodd;"
points="6158,9419
5469,9419
5469,10403
6158,10403
6158,9419
" /> 
<polyline style="fill-rule:evenodd;"
points="16719,6899
16719,7568
16955,7568
16955,6899
16719,6899
" /> 
<polyline style="fill-rule:evenodd;"
points="17211,6899
17211,7568
17447,7568
17447,6899
17211,6899
" /> 
<polyline style="fill-rule:evenodd;"
points="16227,6899
16227,7568
16463,7568
16463,6899
16227,6899
" /> 
<polyline style="fill-rule:evenodd;"
points="15735,6899
15735,7568
15971,7568
15971,6899
15735,6899
" /> 
<polyline style="fill-rule:evenodd;"
points="18412,5501
18412,6564
18805,6564
18805,5501
18412,5501
" /> 
<polyline style="fill-rule:evenodd;"
points="14868,5501
14868,6564
15262,6564
15262,5501
14868,5501
" /> 
<polyline style="fill-rule:evenodd;"
points="17703,7568
17939,7568
17939,6899
17703,6899
17703,7568
" /> 
<polyline style="fill-rule:evenodd;"
points="14475,6702
14475,6505
14160,6505
14160,6702
14475,6702
" /> 
<polyline style="fill-rule:evenodd;"
points="14002,6702
14002,6505
13687,6505
13687,6702
14002,6702
" /> 
<polyline style="fill-rule:evenodd;"
points="14475,7490
14475,7293
14160,7293
14160,7490
14475,7490
" /> 
<polyline style="fill-rule:evenodd;"
points="14002,7490
14002,7293
13687,7293
13687,7490
14002,7490
" /> 
<polyline style="fill-rule:evenodd;"
points="14475,7096
14475,6899
14160,6899
14160,7096
14475,7096
" /> 
<polyline style="fill-rule:evenodd;"
points="14002,7096
14002,6899
13687,6899
13687,7096
14002,7096
" /> 
<polyline style="fill-rule:evenodd;"
points="9632,6899
9632,7568
9868,7568
9868,6899
9632,6899
" /> 
<polyline style="fill-rule:evenodd;"
points="10124,6899
10124,7568
10361,7568
10361,6899
10124,6899
" /> 
<polyline style="fill-rule:evenodd;"
points="9140,6899
9140,7568
9376,7568
9376,6899
9140,6899
" /> 
<polyline style="fill-rule:evenodd;"
points="8648,6899
8648,7568
8884,7568
8884,6899
8648,6899
" /> 
<polyline style="fill-rule:evenodd;"
points="11325,5501
11325,6564
11719,6564
11719,5501
11325,5501
" /> 
<polyline style="fill-rule:evenodd;"
points="7782,5501
7782,6564
8176,6564
8176,5501
7782,5501
" /> 
<polyline style="fill-rule:evenodd;"
points="10617,7568
10853,7568
10853,6899
10617,6899
10617,7568
" /> 
<polyline style="fill-rule:evenodd;"
points="12113,6505
12113,6702
12428,6702
12428,6505
12113,6505
" /> 
<polyline style="fill-rule:evenodd;"
points="12585,6505
12585,6702
12900,6702
12900,6505
12585,6505
" /> 
<polyline style="fill-rule:evenodd;"
points="12113,6899
12113,7096
12428,7096
12428,6899
12113,6899
" /> 
<polyline style="fill-rule:evenodd;"
points="12585,6899
12585,7096
12900,7096
12900,6899
12585,6899
" /> 
<polyline style="fill-rule:evenodd;"
points="12113,7293
12113,7490
12428,7490
12428,7293
12113,7293
" /> 
<polyline style="fill-rule:evenodd;"
points="12585,7293
12585,7490
12900,7490
12900,7293
12585,7293
" /> 
</g>
<g style="fill:#000000; fill-opacity:1.0; 
stroke:#000000; stroke-width:787.402; stroke-opacity:1; 
stroke-linecap:round; stroke-linejoin:round;">
</g>
<g style="fill:#000000; fill-opacity:0.0; 
stroke:#000000; stroke-width:787.402; stroke-opacity:1; 
stroke-linecap:round; stroke-linejoin:round;">
<path d="M10823 23425
L10823 23818
" />
<path d="M4288 23425
L4288 23818
" />
</g>
<g style="fill:#000000; fill-opacity:1.0; 
stroke:#000000; stroke-width:0; stroke-opacity:1; 
stroke-linecap:round; stroke-linejoin:round;">
<circle cx="2398.5" cy="13346.5" r="708.661" /> 
</g>
<g style="fill:#000000; fill-opacity:1.0; 
stroke:#000000; stroke-width:39.3701; stroke-opacity:1; 
stroke-linecap:round; stroke-linejoin:round;">
</g>
<g style="fill:#000000; fill-opacity:1.0; 
stroke:#000000; stroke-width:0; stroke-opacity:1; 
stroke-linecap:round; stroke-linejoin:round;">
<circle cx="24052" cy="13346.5" r="708.661" /> 
</g>
<g style="fill:#000000; fill-opacity:1.0; 
stroke:#000000; stroke-width:39.3701; stroke-opacity:1; 
stroke-linecap:round; stroke-linejoin:round;">
</g>
<g style="fill:#000000; fill-opacity:1.0; 
stroke:#000000; stroke-width:0; stroke-opacity:1; 
stroke-linecap:round; stroke-linejoin:round;">
<polyline style="fill-rule:evenodd;"
points="23609,9478
22821,9478
22821,9753
23609,9753
23609,9478
" /> 
<polyline style="fill-rule:evenodd;"
points="23609,10068
22821,10068
22821,10344
23609,10344
23609,10068
" /> 
<polyline style="fill-rule:evenodd;"
points="23609,8297
22821,8297
22821,8572
23609,8572
23609,8297
" /> 
<polyline style="fill-rule:evenodd;"
points="23766,7627
23451,7627
23451,8100
23766,8100
23766,7627
" /> 
<polyline style="fill-rule:evenodd;"
points="24554,7627
24239,7627
24239,8100
24554,8100
24554,7627
" /> 
<polyline style="fill-rule:evenodd;"
points="23766,10541
23451,10541
23451,11013
23766,11013
23766,10541
" /> 
<polyline style="fill-rule:evenodd;"
points="24554,10541
24239,10541
24239,11013
24554,11013
24554,10541
" /> 
<circle cx="24002.8" cy="9911.42" r="177.165" /> 
</g>
<g style="fill:#000000; fill-opacity:1.0; 
stroke:#000000; stroke-width:39.3701; stroke-opacity:1; 
stroke-linecap:round; stroke-linejoin:round;">
</g>
<g style="fill:#000000; fill-opacity:1.0; 
stroke:#000000; stroke-width:0; stroke-opacity:1; 
stroke-linecap:round; stroke-linejoin:round;">
<circle cx="24002.8" cy="8730.32" r="177.165" /> 
</g>
<g style="fill:#000000; fill-opacity:1.0; 
stroke:#000000; stroke-width:39.3701; stroke-opacity:1; 
stroke-linecap:round; stroke-linejoin:round;">
</g>
<g style="fill:#000000; fill-opacity:1.0; 
stroke:#000000; stroke-width:0; stroke-opacity:1; 
stroke-linecap:round; stroke-linejoin:round;">
<circle cx="4632.76" cy="18120.1" r="118.11" /> 
</g>
<g style="fill:#000000; fill-opacity:1.0; 
stroke:#000000; stroke-width:39.3701; stroke-opacity:1; 
stroke-linecap:round; stroke-linejoin:round;">
</g>
<g style="fill:#000000; fill-opacity:1.0; 
stroke:#000000; stroke-width:0; stroke-opacity:1; 
stroke-linecap:round; stroke-linejoin:round;">
<circle cx="13294.2" cy="7785.43" r="118.11" /> 
</g>
<g style="fill:#000000; fill-opacity:1.0; 
stroke:#000000; stroke-width:39.3701; stroke-opacity:1; 
stroke-linecap:round; stroke-linejoin:round;">
</g>
<g style="fill:#000000; fill-opacity:1.0; 
stroke:#000000; stroke-width:0; stroke-opacity:1; 
stroke-linecap:round; stroke-linejoin:round;">
<circle cx="13845.4" cy="6250" r="118.11" /> 
</g>
<g style="fill:#000000; fill-opacity:1.0; 
stroke:#000000; stroke-width:39.3701; stroke-opacity:1; 
stroke-linecap:round; stroke-linejoin:round;">
</g>
<g style="fill:#000000; fill-opacity:1.0; 
stroke:#000000; stroke-width:0; stroke-opacity:1; 
stroke-linecap:round; stroke-linejoin:round;">
<circle cx="22546.1" cy="10187" r="118.11" /> 
</g>
<g style="fill:#000000; fill-opacity:1.0; 
stroke:#000000; stroke-width:39.3701; stroke-opacity:1; 
stroke-linecap:round; stroke-linejoin:round;">
</g>
<g style="fill:#000000; fill-opacity:1.0; 
stroke:#000000; stroke-width:0; stroke-opacity:1; 
stroke-linecap:round; stroke-linejoin:round;">
<circle cx="7861.1" cy="9517.72" r="118.11" /> 
</g>
<g style="fill:#000000; fill-opacity:1.0; 
stroke:#000000; stroke-width:39.3701; stroke-opacity:1; 
stroke-linecap:round; stroke-linejoin:round;">
</g>
<g style="fill:#000000; fill-opacity:1.0; 
stroke:#000000; stroke-width:0; stroke-opacity:1; 
stroke-linecap:round; stroke-linejoin:round;">
<circle cx="8412.28" cy="7234.25" r="118.11" /> 
</g>
<g style="fill:#000000; fill-opacity:1.0; 
stroke:#000000; stroke-width:39.3701; stroke-opacity:1; 
stroke-linecap:round; stroke-linejoin:round;">
</g>
<g style="fill:#000000; fill-opacity:1.0; 
stroke:#000000; stroke-width:0; stroke-opacity:1; 
stroke-linecap:round; stroke-linejoin:round;">
<circle cx="15498.9" cy="7234.25" r="118.11" /> 
</g>
<g style="fill:#000000; fill-opacity:1.0; 
stroke:#000000; stroke-width:39.3701; stroke-opacity:1; 
stroke-linecap:round; stroke-linejoin:round;">
</g>
<g style="fill:#000000; fill-opacity:1.0; 
stroke:#000000; stroke-width:0; stroke-opacity:1; 
stroke-linecap:round; stroke-linejoin:round;">
<circle cx="6207.56" cy="11328.7" r="118.11" /> 
</g>
<g style="fill:#000000; fill-opacity:1.0; 
stroke:#000000; stroke-width:39.3701; stroke-opacity:1; 
stroke-linecap:round; stroke-linejoin:round;">
</g>
<g style="fill:#000000; fill-opacity:1.0; 
stroke:#000000; stroke-width:0; stroke-opacity:1; 
stroke-linecap:round; stroke-linejoin:round;">
<circle cx="5813.86" cy="9911.42" r="118.11" /> 
</g>
<g style="fill:#000000; fill-opacity:1.0; 
stroke:#000000; stroke-width:39.3701; stroke-opacity:1; 
stroke-linecap:round; stroke-linejoin:round;">
</g>
<g style="fill:#000000; fill-opacity:1.0; 
stroke:#000000; stroke-width:0; stroke-opacity:1; 
stroke-linecap:round; stroke-linejoin:round;">
<circle cx="13294.2" cy="5108.27" r="118.11" /> 
</g>
<g style="fill:#000000; fill-opacity:1.0; 
stroke:#000000; stroke-width:39.3701; stroke-opacity:1; 
stroke-linecap:round; stroke-linejoin:round;">
</g>
<g style="fill:#000000; fill-opacity:1.0; 
stroke:#000000; stroke-width:0; stroke-opacity:1; 
stroke-linecap:round; stroke-linejoin:round;">
<circle cx="13294.2" cy="7234.25" r="118.11" /> 
</g>
<g style="fill:#000000; fill-opacity:1.0; 
stroke:#000000; stroke-width:39.3701; stroke-opacity:1; 
stroke-linecap:round; stroke-linejoin:round;">
</g>
<g style="fill:#000000; fill-opacity:1.0; 
stroke:#000000; stroke-width:0; stroke-opacity:1; 
stroke-linecap:round; stroke-linejoin:round;">
<circle cx="18176.1" cy="7234.25" r="118.11" /> 
</g>
<g style="fill:#000000; fill-opacity:1.0; 
stroke:#000000; stroke-width:39.3701; stroke-opacity:1; 
stroke-linecap:round; stroke-linejoin:round;">
</g>
<g style="fill:#000000; fill-opacity:1.0; 
stroke:#000000; stroke-width:0; stroke-opacity:1; 
stroke-linecap:round; stroke-linejoin:round;">
<circle cx="11089.4" cy="7234.25" r="118.11" /> 
</g>
<g style="fill:#000000; fill-opacity:1.0; 
stroke:#000000; stroke-width:39.3701; stroke-opacity:1; 
stroke-linecap:round; stroke-linejoin:round;">
</g>
<g style="fill:#000000; fill-opacity:1.0; 
stroke:#000000; stroke-width:0; stroke-opacity:1; 
stroke-linecap:round; stroke-linejoin:round;">
<circle cx="11995" cy="10305.1" r="118.11" /> 
</g>
<g style="fill:#000000; fill-opacity:1.0; 
stroke:#000000; stroke-width:39.3701; stroke-opacity:1; 
stroke-linecap:round; stroke-linejoin:round;">
</g>
<g style="fill:#000000; fill-opacity:1.0; 
stroke:#000000; stroke-width:393.701; stroke-opacity:1; 
stroke-linecap:round; stroke-linejoin:round;">
</g>
<g style="fill:#000000; fill-opacity:0.0; 
stroke:#000000; stroke-width:393.701; stroke-opacity:1; 
stroke-linecap:round; stroke-linejoin:round;">
<path d="M5420 16663
L5420 17332
" />
<path d="M5420 17332
L5026 17726
" />
<path d="M5026 17726
L4632 18120
" />
</g>
<g style="fill:#000000; fill-opacity:0.0; 
stroke:#000000; stroke-width:78.7402; stroke-opacity:1; 
stroke-linecap:round; stroke-linejoin:round;">
<path d="M13294 7627
L13294 7785
" />
<path d="M12742 6604
L12742 6998
" />
<path d="M13294 6840
L12900 6840
" />
<path d="M12900 6840
L12742 6998
" />
<path d="M13845 6604
L13845 6250
" />
<path d="M13845 7391
L13530 7391
" />
<path d="M13530 7391
L13294 7627
" />
<path d="M13845 6604
L13530 6604
" />
<path d="M13530 6604
L13294 6840
" />
<path d="M23215 10206
L22565 10206
" />
<path d="M22565 10206
L22546 10187
" />
</g>
<g style="fill:#000000; fill-opacity:0.0; 
stroke:#000000; stroke-width:393.701; stroke-opacity:1; 
stroke-linecap:round; stroke-linejoin:round;">
<path d="M7388 9517
L7861 9517
" />
<path d="M8766 7234
L8412 7234
" />
<path d="M15853 7234
L15498 7234
" />
<path d="M6207 10935
L6207 11328
" />
<path d="M5813 9911
L5813 9740
" />
<path d="M5813 9740
L6115 9438
" />
<path d="M6115 9438
L6718 9438
" />
<path d="M6718 9438
L6796 9517
" />
<path d="M6796 9517
L7388 9517
" />
<path d="M6207 10935
L5951 10679
" />
<path d="M5951 10679
L5951 10049
" />
<path d="M5951 10049
L5813 9911
" />
</g>
<g style="fill:#000000; fill-opacity:0.0; 
stroke:#000000; stroke-width:78.7402; stroke-opacity:1; 
stroke-linecap:round; stroke-linejoin:round;">
<path d="M13294 5816
L13294 6368
" />
<path d="M13510 5816
L13294 5816
" />
<path d="M13530 5620
L13530 5797
" />
<path d="M13530 5797
L13510 5816
" />
<path d="M14849 7864
L16424 7864
" />
<path d="M16424 7864
L16837 7450
" />
<path d="M16837 7450
L16837 7234
" />
<path d="M14317 7391
L14376 7391
" />
<path d="M14376 7391
L14849 7864
" />
<path d="M16837 7061
L16837 7234
" />
<path d="M14711 6761
L17073 6761
" />
<path d="M17073 6761
L17329 7017
" />
<path d="M17329 7017
L17329 7234
" />
<path d="M14317 6604
L14554 6604
" />
<path d="M14554 6604
L14711 6761
" />
<path d="M16345 7450
L16345 7234
" />
<path d="M14317 6998
L14376 6998
" />
<path d="M14376 6998
L15065 7687
" />
<path d="M15065 7687
L16109 7687
" />
<path d="M16109 7687
L16345 7450
" />
<path d="M13294 5423
L13294 5108
" />
<path d="M13077 5423
L13294 5423
" />
<path d="M13057 5620
L13057 5442
" />
<path d="M13057 5442
L13077 5423
" />
<path d="M12742 7391
L13136 7391
" />
<path d="M13136 7391
L13294 7234
" />
<path d="M13845 6998
L13786 6998
" />
<path d="M13786 6998
L13550 7234
" />
<path d="M13550 7234
L13294 7234
" />
</g>
<g style="fill:#000000; fill-opacity:0.0; 
stroke:#000000; stroke-width:393.701; stroke-opacity:1; 
stroke-linecap:round; stroke-linejoin:round;">
<path d="M18176 7234
L17821 7234
" />
<path d="M10735 7234
L11089 7234
" />
<path d="M7388 10305
L11994 10305
" />
<path d="M6522 10285
L6522 9911
" />
<path d="M7388 10305
L6542 10305
" />
<path d="M6542 10305
L6522 10285
" />
<path d="M7428 10305
L7388 10305
" />
</g>
<g style="fill:#000000; fill-opacity:0.0; 
stroke:#000000; stroke-width:78.7402; stroke-opacity:1; 
stroke-linecap:round; stroke-linejoin:round;">
<path d="M5430 9045
L22664 9045
" />
<path d="M22664 9045
L23215 9596
" />
<path d="M23215 9596
L23215 9616
" />
<path d="M5430 9045
L5105 9370
" />
<path d="M5105 9370
L5105 9537
" />
<path d="M5105 9537
L5105 9438
" />
<path d="M5105 10285
L4898 10285
" />
<path d="M4898 10285
L4672 10059
" />
<path d="M4672 10059
L4672 9374
" />
<path d="M4672 9374
L5158 8887
" />
<path d="M5158 8887
L22664 8887
" />
<path d="M22664 8887
L23117 8435
" />
<path d="M23117 8435
L23215 8435
" />
<path d="M22959 8435
L23215 8435
" />
</g>
<g style="fill:#000000; fill-opacity:0.0; 
stroke:#000000; stroke-width:393.701; stroke-opacity:1; 
stroke-linecap:round; stroke-linejoin:round;">
<path d="M5420 12194
L5420 15108
" />
<path d="M5420 10935
L5420 12194
" />
<path d="M5105 10285
L5105 10620
" />
<path d="M5105 10620
L5420 10935
" />
</g>
<g style="fill:#000000; fill-opacity:0.0; 
stroke:#000000; stroke-width:78.7402; stroke-opacity:1; 
stroke-linecap:round; stroke-linejoin:round;">
<path d="M11168 7706
L10006 7706
" />
<path d="M10006 7706
L9750 7450
" />
<path d="M9750 7450
L9750 7234
" />
<path d="M11876 6998
L11168 7706
" />
<path d="M12270 6998
L11876 6998
" />
<path d="M11876 6761
L10498 6761
" />
<path d="M10498 6761
L10242 7017
" />
<path d="M10242 7017
L10242 7234
" />
<path d="M12270 6604
L12034 6604
" />
<path d="M12034 6604
L11876 6761
" />
<path d="M11561 7864
L9672 7864
" />
<path d="M9672 7864
L9258 7450
" />
<path d="M9258 7450
L9258 7234
" />
<path d="M12270 7391
L12034 7391
" />
<path d="M12034 7391
L11561 7864
" />
</g>
<g style="fill:#FFFFFF; fill-opacity:0.0; 
stroke:#FFFFFF; stroke-width:78.7402; stroke-opacity:1; 
stroke-linecap:round; stroke-linejoin:round;">
</g>
<g style="fill:#FFFFFF; fill-opacity:1.0; 
stroke:#FFFFFF; stroke-width:0; stroke-opacity:1; 
stroke-linecap:round; stroke-linejoin:round;">
<circle cx="4632.76" cy="18120.1" r="78.7402" /> 
</g>
<g style="fill:#FFFFFF; fill-opacity:1.0; 
stroke:#FFFFFF; stroke-width:39.3701; stroke-opacity:1; 
stroke-linecap:round; stroke-linejoin:round;">
</g>
<g style="fill:#FFFFFF; fill-opacity:1.0; 
stroke:#FFFFFF; stroke-width:0; stroke-opacity:1; 
stroke-linecap:round; stroke-linejoin:round;">
<circle cx="13294.2" cy="7785.43" r="78.7402" /> 
</g>
<g style="fill:#FFFFFF; fill-opacity:1.0; 
stroke:#FFFFFF; stroke-width:39.3701; stroke-opacity:1; 
stroke-linecap:round; stroke-linejoin:round;">
</g>
<g style="fill:#FFFFFF; fill-opacity:1.0; 
stroke:#FFFFFF; stroke-width:0; stroke-opacity:1; 
stroke-linecap:round; stroke-linejoin:round;">
<circle cx="13845.4" cy="6250" r="78.7402" /> 
</g>
<g style="fill:#FFFFFF; fill-opacity:1.0; 
stroke:#FFFFFF; stroke-width:39.3701; stroke-opacity:1; 
stroke-linecap:round; stroke-linejoin:round;">
</g>
<g style="fill:#FFFFFF; fill-opacity:1.0; 
stroke:#FFFFFF; stroke-width:0; stroke-opacity:1; 
stroke-linecap:round; stroke-linejoin:round;">
<circle cx="22546.1" cy="10187" r="78.7402" /> 
</g>
<g style="fill:#FFFFFF; fill-opacity:1.0; 
stroke:#FFFFFF; stroke-width:39.3701; stroke-opacity:1; 
stroke-linecap:round; stroke-linejoin:round;">
</g>
<g style="fill:#FFFFFF; fill-opacity:1.0; 
stroke:#FFFFFF; stroke-width:0; stroke-opacity:1; 
stroke-linecap:round; stroke-linejoin:round;">
<circle cx="7861.1" cy="9517.72" r="78.7402" /> 
</g>
<g style="fill:#FFFFFF; fill-opacity:1.0; 
stroke:#FFFFFF; stroke-width:39.3701; stroke-opacity:1; 
stroke-linecap:round; stroke-linejoin:round;">
</g>
<g style="fill:#FFFFFF; fill-opacity:1.0; 
stroke:#FFFFFF; stroke-width:0; stroke-opacity:1; 
stroke-linecap:round; stroke-linejoin:round;">
<circle cx="8412.28" cy="7234.25" r="78.7402" /> 
</g>
<g style="fill:#FFFFFF; fill-opacity:1.0; 
stroke:#FFFFFF; stroke-width:39.3701; stroke-opacity:1; 
stroke-linecap:round; stroke-linejoin:round;">
</g>
<g style="fill:#FFFFFF; fill-opacity:1.0; 
stroke:#FFFFFF; stroke-width:0; stroke-opacity:1; 
stroke-linecap:round; stroke-linejoin:round;">
<circle cx="15498.9" cy="7234.25" r="78.7402" /> 
</g>
<g style="fill:#FFFFFF; fill-opacity:1.0; 
stroke:#FFFFFF; stroke-width:39.3701; stroke-opacity:1; 
stroke-linecap:round; stroke-linejoin:round;">
</g>
<g style="fill:#FFFFFF; fill-opacity:1.0; 
stroke:#FFFFFF; stroke-width:0; stroke-opacity:1; 
stroke-linecap:round; stroke-linejoin:round;">
<circle cx="6207.56" cy="11328.7" r="78.7402" /> 
</g>
<g style="fill:#FFFFFF; fill-opacity:1.0; 
stroke:#FFFFFF; stroke-width:39.3701; stroke-opacity:1; 
stroke-linecap:round; stroke-linejoin:round;">
</g>
<g style="fill:#FFFFFF; fill-opacity:1.0; 
stroke:#FFFFFF; stroke-width:0; stroke-opacity:1; 
stroke-linecap:round; stroke-linejoin:round;">
<circle cx="5813.86" cy="9911.42" r="78.7402" /> 
</g>
<g style="fill:#FFFFFF; fill-opacity:1.0; 
stroke:#FFFFFF; stroke-width:39.3701; stroke-opacity:1; 
stroke-linecap:round; stroke-linejoin:round;">
</g>
<g style="fill:#FFFFFF; fill-opacity:1.0; 
stroke:#FFFFFF; stroke-width:0; stroke-opacity:1; 
stroke-linecap:round; stroke-linejoin:round;">
<circle cx="13294.2" cy="5108.27" r="78.7402" /> 
</g>
<g style="fill:#FFFFFF; fill-opacity:1.0; 
stroke:#FFFFFF; stroke-width:39.3701; stroke-opacity:1; 
stroke-linecap:round; stroke-linejoin:round;">
</g>
<g style="fill:#FFFFFF; fill-opacity:1.0; 
stroke:#FFFFFF; stroke-width:0; stroke-opacity:1; 
stroke-linecap:round; stroke-linejoin:round;">
<circle cx="13294.2" cy="7234.25" r="78.7402" /> 
</g>
<g style="fill:#FFFFFF; fill-opacity:1.0; 
stroke:#FFFFFF; stroke-width:39.3701; stroke-opacity:1; 
stroke-linecap:round; stroke-linejoin:round;">
</g>
<g style="fill:#FFFFFF; fill-opacity:1.0; 
stroke:#FFFFFF; stroke-width:0; stroke-opacity:1; 
stroke-linecap:round; stroke-linejoin:round;">
<circle cx="18176.1" cy="7234.25" r="78.7402" /> 
</g>
<g style="fill:#FFFFFF; fill-opacity:1.0; 
stroke:#FFFFFF; stroke-width:39.3701; stroke-opacity:1; 
stroke-linecap:round; stroke-linejoin:round;">
</g>
<g style="fill:#FFFFFF; fill-opacity:1.0; 
stroke:#FFFFFF; stroke-width:0; stroke-opacity:1; 
stroke-linecap:round; stroke-linejoin:round;">
<circle cx="11089.4" cy="7234.25" r="78.7402" /> 
</g>
<g style="fill:#FFFFFF; fill-opacity:1.0; 
stroke:#FFFFFF; stroke-width:39.3701; stroke-opacity:1; 
stroke-linecap:round; stroke-linejoin:round;">
</g>
<g style="fill:#FFFFFF; fill-opacity:1.0; 
stroke:#FFFFFF; stroke-width:0; stroke-opacity:1; 
stroke-linecap:round; stroke-linejoin:round;">
<circle cx="11995" cy="10305.1" r="78.7402" /> 
</g>
<g style="fill:#FFFFFF; fill-opacity:1.0; 
stroke:#FFFFFF; stroke-width:39.3701; stroke-opacity:1; 
stroke-linecap:round; stroke-linejoin:round;">
</g>
<g style="fill:#FFFFFF; fill-opacity:1.0; 
stroke:#FFFFFF; stroke-width:0; stroke-opacity:1; 
stroke-linecap:round; stroke-linejoin:round;">
<circle cx="10823.7" cy="23622" r="236.22" /> 
</g>
<g style="fill:#FFFFFF; fill-opacity:1.0; 
stroke:#FFFFFF; stroke-width:39.3701; stroke-opacity:1; 
stroke-linecap:round; stroke-linejoin:round;">
</g>
<g style="fill:#FFFFFF; fill-opacity:1.0; 
stroke:#FFFFFF; stroke-width:0; stroke-opacity:1; 
stroke-linecap:round; stroke-linejoin:round;">
<circle cx="4288.27" cy="23622" r="236.22" /> 
</g>
<g style="fill:#FFFFFF; fill-opacity:1.0; 
stroke:#FFFFFF; stroke-width:39.3701; stroke-opacity:1; 
stroke-linecap:round; stroke-linejoin:round;">
</g>
<g style="fill:#FFFFFF; fill-opacity:1.0; 
stroke:#FFFFFF; stroke-width:0; stroke-opacity:1; 
stroke-linecap:round; stroke-linejoin:round;">
<circle cx="2398.5" cy="13346.5" r="639.764" /> 
</g>
<g style="fill:#FFFFFF; fill-opacity:1.0; 
stroke:#FFFFFF; stroke-width:39.3701; stroke-opacity:1; 
stroke-linecap:round; stroke-linejoin:round;">
</g>
<g style="fill:#FFFFFF; fill-opacity:1.0; 
stroke:#FFFFFF; stroke-width:0; stroke-opacity:1; 
stroke-linecap:round; stroke-linejoin:round;">
<circle cx="24052" cy="13346.5" r="639.764" /> 
</g>
<g style="fill:#FFFFFF; fill-opacity:1.0; 
stroke:#FFFFFF; stroke-width:39.3701; stroke-opacity:1; 
stroke-linecap:round; stroke-linejoin:round;">
</g>
<g style="fill:#FFFFFF; fill-opacity:1.0; 
stroke:#FFFFFF; stroke-width:0; stroke-opacity:1; 
stroke-linecap:round; stroke-linejoin:round;">
<circle cx="24002.8" cy="9911.42" r="177.165" /> 
</g>
<g style="fill:#FFFFFF; fill-opacity:1.0; 
stroke:#FFFFFF; stroke-width:39.3701; stroke-opacity:1; 
stroke-linecap:round; stroke-linejoin:round;">
</g>
<g style="fill:#FFFFFF; fill-opacity:1.0; 
stroke:#FFFFFF; stroke-width:0; stroke-opacity:1; 
stroke-linecap:round; stroke-linejoin:round;">
<circle cx="24002.8" cy="8730.32" r="177.165" /> 
</g>
<g style="fill:#FFFFFF; fill-opacity:1.0; 
stroke:#FFFFFF; stroke-width:39.3701; stroke-opacity:1; 
stroke-linecap:round; stroke-linejoin:round;">
</g>
<g style="fill:#000000; fill-opacity:1.0; 
stroke:#000000; stroke-width:39.3701; stroke-opacity:1; 
stroke-linecap:round; stroke-linejoin:round;">
</g>
<g style="fill:#000000; fill-opacity:0.0; 
stroke:#000000; stroke-width:39.3701; stroke-opacity:1; 
stroke-linecap:round; stroke-linejoin:round;">
</g>
<g style="fill:#000000; fill-opacity:0.0; 
stroke:#000000; stroke-width:74.8031; stroke-opacity:1; 
stroke-linecap:round; stroke-linejoin:round;">
<path d="M9626 3065
L9750 2916
" />
<path d="M9850 3065
L9850 2716
L9700 2716
L9651 2741
L9626 2791
L9626 2841
L9651 2891
L9700 2916
L9850 2916
" />
<path d="M9750 2541
L9875 2566
L10000 2641
L10075 2766
L10099 2891
L10075 3015
L10000 3140
L9875 3215
L9750 3240
L9626 3215
L9501 3140
L9426 3015
L9401 2891
L9426 2766
L9501 2641
L9626 2566
L9750 2541
" />
</g>
<g style="fill:#000000; fill-opacity:0.0; 
stroke:#000000; stroke-width:110.236; stroke-opacity:1; 
stroke-linecap:round; stroke-linejoin:round;">
<path d="M16387 3850
L16387 3062
L15937 3850
L15937 3062
" />
<path d="M15262 3812
L15337 3850
L15487 3850
L15562 3812
L15600 3737
L15600 3437
L15562 3362
L15487 3325
L15337 3325
L15262 3362
L15225 3437
L15225 3512
L15600 3587
" />
<path d="M14550 3325
L14550 3850
" />
<path d="M14887 3325
L14887 3737
L14850 3812
L14775 3850
L14662 3850
L14587 3812
L14550 3775
" />
<path d="M14175 3850
L14175 3325
" />
<path d="M14175 3475
L14137 3400
L14100 3362
L14025 3325
L13950 3325
" />
<path d="M13575 3850
L13650 3812
L13687 3775
L13725 3700
L13725 3475
L13687 3400
L13650 3362
L13575 3325
L13462 3325
L13387 3362
L13350 3400
L13312 3475
L13312 3700
L13350 3775
L13387 3812
L13462 3850
L13575 3850
" />
<path d="M12712 3437
L12600 3475
L12563 3512
L12525 3587
L12525 3700
L12563 3775
L12600 3812
L12675 3850
L12975 3850
L12975 3062
L12712 3062
L12638 3100
L12600 3137
L12563 3212
L12563 3287
L12600 3362
L12638 3400
L12712 3437
L12975 3437
" />
<path d="M12263 3325
L12075 3850
" />
<path d="M11888 3325
L12075 3850
L12150 4037
L12188 4075
L12263 4112
" />
<path d="M11700 3325
L11400 3325
" />
<path d="M11588 3062
L11588 3737
L11550 3812
L11475 3850
L11400 3850
" />
<path d="M10838 3812
L10913 3850
L11063 3850
L11138 3812
L11175 3737
L11175 3437
L11138 3362
L11063 3325
L10913 3325
L10838 3362
L10800 3437
L10800 3512
L11175 3587
" />
<path d="M10500 3812
L10425 3850
L10275 3850
L10200 3812
L10163 3737
L10163 3700
L10200 3625
L10275 3587
L10388 3587
L10463 3550
L10500 3475
L10500 3437
L10463 3362
L10388 3325
L10275 3325
L10200 3362
" />
</g>
<g style="fill:#000000; fill-opacity:1.0; 
stroke:#000000; stroke-width:3.93701; stroke-opacity:1; 
stroke-linecap:round; stroke-linejoin:round;">
<polyline style="fill-rule:evenodd;"
points="14842,10396
14815,10397
14662,10425
14511,10483
14373,10567
14254,10672
14163,10793
14139,10838
14123,10876
14111,10911
14102,10951
14096,11003
14093,11072
14091,11166
14091,11290
14091,11348
14090,11470
14089,11578
14087,11664
14085,11724
14082,11752
14082,11753
14063,11742
14018,11712
13955,11669
13887,11621
13773,11542
13685,11485
13614,11447
13556,11425
13502,11414
13466,11413
13406,11417
13351,11433
13299,11463
13247,11511
13190,11582
13125,11679
13048,11805
12981,11922
12918,12032
12866,12122
12826,12198
12795,12265
12773,12329
12757,12396
12747,12473
12741,12564
12738,12677
12736,12816
12735,12989
12734,13025
12728,13667
12488,13729
12236,13807
12021,13901
11842,14011
11699,14137
11592,14280
11566,14329
11501,14462
11488,15614
11248,15388
11140,15288
11055,15212
10988,15159
10935,15124
10889,15105
10847,15099
10804,15102
10801,15102
10706,15128
10589,15178
10453,15248
10306,15335
10151,15434
9995,15543
9842,15657
9699,15772
9570,15885
9462,15992
9378,16089
9348,16132
9291,16220
9291,16797
9290,16944
9289,17077
9288,17191
9286,17282
9284,17344
9282,17372
9281,17373
9260,17364
9213,17342
9150,17311
9146,17309
9013,17255
8891,17234
8784,17245
8695,17289
8627,17363
8614,17387
8563,17499
8510,17638
8460,17788
8417,17937
8390,18054
8379,18106
8371,18155
8364,18206
8358,18264
8354,18331
8351,18413
8350,18515
8349,18640
8348,18793
8349,18978
8349,19141
8351,19372
8352,19565
8355,19722
8358,19847
8362,19941
8366,20007
8372,20047
8376,20061
8384,20067
8390,20053
8395,20018
8400,19956
8403,19865
8407,19741
8410,19581
8411,19563
8414,19403
8417,19279
8420,19188
8423,19126
8427,19090
8432,19075
8438,19078
8446,19097
8448,19103
8548,19331
8686,19552
8859,19762
9066,19959
9304,20142
9572,20308
9634,20342
9944,20491
10290,20628
10671,20752
11083,20861
11315,20914
11383,20927
11427,20928
11461,20916
11479,20906
11518,20882
11540,20873
11544,20891
11547,20943
11549,21020
11550,21115
11551,21143
11551,21253
11553,21330
11558,21378
11566,21403
11577,21412
11581,21413
11591,21407
11599,21389
11605,21351
11609,21290
11612,21200
11614,21076
11615,21038
11616,20873
11617,20742
11615,20639
11613,20585
11431,20585
11425,20669
11406,20718
11370,20732
11314,20712
11253,20673
11106,20673
11077,20668
11017,20654
10936,20633
10841,20607
10829,20604
10472,20495
10141,20371
9837,20235
9563,20087
9322,19928
9115,19760
8944,19584
8916,19549
8766,19335
8654,19115
8578,18887
8551,18751
8540,18662
8541,18581
8555,18498
8584,18404
8630,18289
8662,18217
8706,18126
8743,18067
8780,18032
8823,18016
8874,18013
8934,18018
9002,18034
9079,18063
9169,18107
9274,18167
9397,18245
9541,18343
9709,18462
9903,18603
10013,18684
10142,18780
10264,18870
10373,18949
10466,19016
10537,19066
10584,19098
10598,19106
10655,19136
10604,19189
10563,19242
10533,19297
10532,19299
10522,19346
10515,19424
10511,19524
10510,19638
10511,19756
10514,19870
10520,19971
10528,20050
10538,20099
10539,20102
10575,20161
10641,20239
10732,20332
10843,20434
10968,20539
11033,20593
11080,20636
11106,20664
11106,20673
11253,20673
11249,20669
11151,20596
11046,20513
10940,20425
10842,20339
10757,20261
10693,20196
10669,20169
10591,20069
10591,19588
10714,19702
10779,19761
10866,19833
10961,19911
11046,19978
11130,20046
11209,20113
11272,20173
11312,20217
11313,20219
11373,20328
11415,20456
11431,20581
11431,20585
11613,20585
11612,20559
11607,20495
11599,20441
11589,20392
11578,20353
11553,20275
11523,20205
11485,20140
11434,20075
11366,20004
11277,19924
11164,19830
11033,19726
10903,19619
10806,19531
10743,19458
10712,19400
10712,19355
10743,19320
10802,19295
10810,19293
10893,19282
11002,19290
11140,19316
11309,19361
11391,19385
11488,19416
11569,19444
11639,19472
11703,19504
11767,19543
11836,19594
11914,19658
12008,19741
12123,19844
12216,19930
12382,20080
12524,20202
12645,20300
12750,20375
12841,20430
12923,20468
12999,20490
13072,20499
13091,20499
13234,20480
13364,20424
13482,20330
13553,20245
13611,20167
13611,20511
13611,20642
13613,20736
13617,20799
13623,20835
13632,20848
13636,20848
13643,20836
13649,20804
13654,20749
13657,20667
13659,20555
13660,20410
13661,20251
13661,20116
13381,20116
13377,20165
13335,20218
13258,20271
13251,20275
13152,20308
13045,20304
12928,20263
12836,20209
12770,20161
12685,20094
12591,20016
12499,19935
12483,19921
12325,19776
12191,19656
12079,19558
11984,19478
11902,19414
11829,19363
11760,19323
11692,19290
11620,19261
11541,19235
11450,19207
11430,19202
11170,19126
11171,18610
11171,18480
11111,18480
11111,19105
10911,19102
10711,19099
10566,19002
10508,18962
10425,18903
10323,18829
10209,18746
10090,18657
10025,18608
9799,18441
9600,18299
9427,18183
9276,18090
9146,18020
9035,17973
8940,17946
8860,17939
8791,17952
8732,17982
8695,18014
8650,18051
8618,18056
8610,18053
8596,18038
8592,18013
8599,17968
8616,17900
8641,17817
8677,17716
8717,17617
8726,17594
8765,17510
8795,17457
8820,17428
8846,17416
8850,17416
8901,17415
8959,17426
9028,17452
9108,17495
9204,17554
9316,17633
9449,17733
9604,17856
9783,18002
9961,18150
10130,18290
10273,18405
10394,18498
10496,18570
10582,18622
10656,18659
10721,18681
10780,18691
10806,18692
10854,18689
10893,18676
10935,18647
10992,18595
11001,18587
11111,18480
11171,18480
11171,18452
11171,18328
11169,18234
11168,18198
10990,18198
10979,18267
10951,18343
10910,18414
10863,18473
10816,18507
10794,18513
10760,18503
10708,18479
10672,18459
10619,18427
10561,18387
10492,18337
10410,18274
10310,18195
10190,18096
10044,17976
9980,17923
9870,17831
9761,17743
9662,17662
9577,17595
9514,17546
9496,17533
9372,17443
9372,16983
9373,16832
9374,16718
9377,16637
9381,16586
9386,16560
9393,16556
9397,16561
9507,16721
9640,16890
9788,17061
9948,17229
10113,17389
10277,17534
10436,17661
10584,17762
10683,17819
10811,17898
10906,17988
10967,18087
10990,18191
10990,18198
11168,18198
11167,18162
11162,18109
11155,18068
11145,18034
11133,18002
11129,17995
11067,17892
10974,17792
10859,17703
10778,17656
10701,17613
10612,17557
10531,17501
10452,17439
10355,17353
10245,17252
10131,17141
10018,17028
9915,16920
9828,16823
9786,16773
9665,16624
9820,16478
9931,16381
10059,16282
10197,16185
10338,16095
10476,16016
10603,15951
10713,15906
10783,15886
10805,15884
10827,15886
10853,15896
10886,15916
10929,15948
10985,15995
11056,16059
11146,16142
11258,16248
11394,16378
11448,16430
11558,16535
11663,16636
11760,16728
11842,16807
11905,16867
11941,16901
11992,16950
12016,16974
12013,16977
11985,16960
11961,16945
11830,16877
11708,16845
11592,16850
11475,16891
11471,16893
11413,16925
11368,16959
11334,17001
11310,17056
11294,17128
11286,17223
11283,17345
11284,17500
11286,17583
11296,18023
12332,19049
12502,19217
12663,19378
12814,19529
12951,19668
13074,19792
13179,19900
13265,19988
13329,20055
13368,20099
13381,20116
13661,20116
13661,19911
13481,19911
13472,19968
13457,20019
13447,20049
13445,20052
13430,20038
13389,19998
13325,19935
13238,19850
13132,19745
13009,19624
12871,19487
12720,19338
12558,19178
12396,19017
11350,17983
11351,17728
11351,17474
11526,17657
11581,17714
11661,17794
11760,17893
11873,18007
11997,18129
12126,18257
12241,18369
12478,18603
12688,18810
12869,18992
13024,19148
13152,19280
13255,19388
13332,19473
13386,19536
13416,19578
13421,19587
13459,19691
13479,19805
13481,19911
13661,19911
13661,19663
13595,19523
13580,19495
13564,19466
13543,19435
13516,19399
13480,19357
13434,19305
13375,19241
13301,19165
13210,19072
13100,18961
12969,18830
12815,18677
12636,18499
12530,18393
12326,18192
12150,18016
11998,17864
11870,17734
11763,17624
11675,17531
11605,17454
11551,17390
11511,17338
11483,17295
11466,17260
11458,17229
11456,17202
11459,17176
11463,17162
11494,17108
11553,17064
11626,17037
11666,17033
11704,17036
11745,17046
11791,17065
11845,17095
11910,17137
11988,17194
12080,17267
12190,17359
12320,17470
12473,17604
12650,17761
12831,17922
13058,18124
13257,18301
13432,18456
13585,18588
13719,18702
13835,18798
13937,18878
14026,18944
14106,18999
14179,19044
14247,19081
14313,19112
14379,19138
14448,19163
14460,19167
14615,19204
14781,19220
14944,19216
15091,19190
15139,19175
15281,19115
15420,19035
15559,18934
15702,18808
15852,18653
16014,18468
16114,18345
16296,18117
16057,18117
16056,18118
15863,18363
15679,18569
15503,18737
15335,18867
15174,18960
15062,19005
14973,19022
14861,19030
14741,19028
14627,19017
14549,19000
14479,18978
14411,18952
14342,18920
14270,18881
14191,18832
14105,18771
14007,18697
13895,18608
13767,18501
13621,18376
13453,18228
13261,18058
13043,17863
13018,17841
12874,17711
12757,17606
12666,17524
12601,17464
12558,17423
12537,17400
12535,17393
12551,17400
12584,17420
12631,17451
12677,17481
12898,17610
13121,17710
13342,17779
13553,17814
13631,17818
13763,17812
13865,17789
13942,17747
13980,17710
13997,17688
14010,17666
14019,17639
14025,17599
14028,17540
14030,17458
14030,17348
13970,17348
13968,17469
13961,17558
13946,17621
13921,17666
13884,17699
13850,17719
13776,17741
13673,17750
13552,17744
13420,17725
13286,17694
13251,17683
13122,17637
12992,17579
12858,17509
12718,17423
12568,17320
12408,17198
12233,17055
12041,16889
11830,16698
11598,16481
11411,16302
11272,16169
11159,16062
11069,15979
10997,15915
10941,15869
10898,15839
10864,15821
10837,15814
10825,15813
10744,15825
10640,15861
10517,15917
10381,15989
10238,16075
10095,16170
9955,16272
9826,16376
9744,16451
9682,16508
9640,16537
9609,16535
9580,16502
9543,16435
9532,16413
9498,16344
9483,16294
9490,16252
9519,16205
9574,16143
9582,16134
9673,16044
9783,15946
9907,15844
10041,15742
10179,15643
10317,15549
10449,15465
10571,15395
10678,15340
10764,15305
10824,15293
10837,15293
10850,15295
10865,15302
10886,15315
10915,15338
10955,15373
11008,15421
11078,15487
11166,15571
11277,15677
11412,15807
11499,15890
11770,16146
12020,16370
12249,16563
12458,16727
12649,16863
12824,16971
12982,17052
13027,17071
13223,17142
13406,17188
13571,17209
13716,17205
13836,17175
13862,17163
13917,17135
13955,17117
13966,17113
13967,17131
13969,17182
13970,17257
13970,17348
14030,17348
14030,17345
14031,17260
14030,17111
14027,16994
14022,16936
13838,16936
13827,16966
13767,17009
13676,17029
13558,17027
13416,17003
13415,17003
13273,16963
13132,16912
12990,16846
12843,16763
12688,16662
12521,16540
12339,16395
12138,16224
11916,16025
11866,15979
11571,15708
11571,14924
11692,15123
11739,15200
11783,15267
11827,15326
11874,15382
11928,15436
11994,15492
12074,15554
12172,15624
12293,15705
12439,15802
12615,15916
12643,15935
12780,16024
12917,16115
13047,16202
13163,16281
13259,16347
13328,16397
13477,16513
13604,16621
13705,16720
13779,16807
13824,16880
13838,16936
14022,16936
14018,16902
14003,16829
13978,16767
13942,16710
13891,16649
13825,16578
13813,16566
13754,16507
13689,16447
13616,16385
13530,16318
13429,16243
13308,16157
13165,16059
12996,15945
12798,15814
12729,15768
12587,15674
12453,15585
12331,15502
12226,15429
12142,15370
12082,15326
12057,15306
12010,15256
11954,15184
11896,15101
11870,15059
11763,14886
11845,14813
11977,14717
12144,14631
12344,14555
12573,14491
12657,14472
12790,14449
12916,14438
13040,14441
13165,14459
13297,14494
13440,14547
13598,14619
13777,14712
13981,14826
14110,14902
14225,14970
14342,15039
14451,15101
14543,15153
14588,15178
14755,15268
14428,15276
14302,15279
14209,15283
14140,15289
14090,15298
14049,15310
14011,15327
13964,15352
13928,15376
13902,15406
13884,15447
13874,15505
13868,15585
13867,15693
13867,15835
13868,15863
13872,16263
13936,16320
13967,16345
14026,16391
14108,16455
14210,16533
14327,16622
14455,16719
14561,16798
14743,16935
14898,17052
15029,17152
15141,17239
15239,17316
15326,17386
15408,17454
15488,17522
15571,17593
15645,17658
15771,17772
15877,17875
15961,17963
16021,18035
16053,18087
16057,18117
16296,18117
16351,18048
16351,18819
16392,18781
16405,18768
16415,18752
16422,18728
16427,18690
16429,18635
16430,18556
16430,18450
16428,18310
16427,18243
16422,17847
16225,17847
16207,17919
16169,17980
16126,18034
15929,17835
15838,17745
15727,17642
15612,17538
15504,17444
15489,17432
15410,17368
15305,17285
15181,17188
15045,17083
14903,16974
14761,16866
14723,16838
14589,16738
14460,16640
14339,16548
14233,16467
14146,16401
14084,16352
14066,16337
13931,16228
13931,15712
14066,15826
14116,15867
14194,15928
14293,16005
14407,16093
14533,16188
14664,16286
14701,16313
14967,16514
15201,16695
15406,16858
15582,17005
15733,17137
15859,17257
15963,17366
16047,17466
16111,17555
16178,17671
16216,17766
16225,17847
16422,17847
16421,17743
16359,17613
16309,17519
16249,17424
16176,17327
16087,17224
15980,17114
15854,16995
15706,16865
15533,16722
15334,16563
15107,16386
14849,16191
14799,16154
14615,16015
14461,15898
14335,15800
14235,15721
14159,15658
14105,15609
14071,15573
14053,15548
14051,15536
14058,15512
14084,15493
14131,15479
14205,15470
14309,15465
14448,15463
14501,15463
14727,15467
14917,15478
15073,15498
15197,15527
15292,15564
15354,15599
15427,15649
15514,15716
15617,15801
15740,15908
15885,16039
16055,16196
16061,16202
16246,16372
16407,16514
16545,16630
16664,16721
16766,16789
16853,16835
16928,16862
16993,16870
17043,16864
17085,16843
17143,16798
17208,16738
17222,16724
17340,16576
17444,16393
17531,16178
17561,16083
17586,15999
17609,15926
17626,15876
17631,15863
17635,15872
17639,15918
17642,15996
17645,16105
17648,16239
17649,16397
17650,16533
17650,16720
17651,16871
17653,16989
17655,17078
17657,17141
17661,17182
17666,17204
17672,17211
17680,17206
17682,17203
17690,17173
17696,17108
17701,17012
17705,16890
17708,16746
17709,16585
17710,16412
17710,16230
17708,16046
17706,15862
17703,15685
17699,15538
17496,15538
17471,15681
17423,15896
17361,16099
17288,16284
17205,16444
17115,16571
17099,16590
17045,16647
17003,16676
16962,16680
16908,16661
16867,16641
16811,16606
16734,16549
16635,16467
16513,16361
16366,16228
16206,16080
16096,15978
15985,15876
15880,15782
15787,15700
15713,15637
15689,15617
15526,15484
15653,15460
15813,15421
15949,15368
16059,15304
16136,15231
16160,15194
16171,15163
16179,15114
16185,15042
16189,14943
16191,14810
16192,14747
16192,14629
16131,14629
16131,14879
16130,14984
16128,15057
16123,15106
16113,15140
16097,15168
16078,15192
16004,15257
15900,15316
15778,15363
15702,15383
15583,15404
15487,15409
15403,15397
15334,15374
15258,15349
15167,15325
15108,15313
15007,15286
14882,15239
14731,15169
14553,15076
14346,14960
14230,14892
14019,14769
13837,14666
13678,14583
13539,14517
13415,14466
13301,14428
13193,14402
13087,14386
12989,14378
12901,14375
12827,14376
12754,14385
12670,14401
12562,14427
12547,14430
12358,14481
12202,14532
12070,14587
11955,14649
11849,14721
11816,14747
11731,14815
11709,14759
11692,14678
11689,14580
11701,14485
11721,14424
11798,14305
11909,14193
12050,14094
12214,14011
12251,13996
12378,13952
12522,13911
12669,13875
12804,13850
12891,13840
13004,13838
13123,13851
13250,13881
13391,13929
13548,13997
13727,14085
13929,14196
14101,14296
14304,14415
14479,14515
14631,14597
14764,14663
14884,14718
14994,14761
15101,14797
15209,14826
15235,14833
15431,14865
15617,14865
15787,14835
15938,14775
16057,14693
16131,14629
16192,14629
16192,14624
16191,14515
16188,14428
16011,14428
15991,14493
15935,14554
15845,14609
15756,14645
15646,14677
15544,14689
15436,14684
15309,14661
15281,14654
15067,14589
14835,14491
14583,14360
14536,14333
14432,14273
14306,14200
14173,14124
14046,14050
14005,14027
13783,13904
13586,13808
13408,13737
13245,13688
13092,13661
12957,13653
12811,13653
12811,12737
12882,12803
12957,12859
13068,12925
13212,12998
13385,13077
13584,13161
13806,13247
13821,13253
14141,13374
14426,13485
14680,13588
14905,13683
15104,13773
15282,13859
15440,13941
15583,14023
15642,14058
15764,14140
15866,14223
15943,14301
15993,14371
16011,14428
16188,14428
16188,14425
16184,14361
16179,14330
16179,14329
16184,14326
16212,14346
16252,14378
16332,14445
16419,14513
16520,14589
16640,14675
16781,14775
16946,14898
17097,15026
17229,15153
17337,15275
17414,15385
17429,15411
17496,15538
17699,15538
17699,15518
17694,15366
17690,15269
17511,15269
17511,15399
17412,15259
17346,15173
17265,15082
17188,15006
17187,15005
17130,14957
17048,14892
16948,14816
16839,14735
16734,14659
16512,14494
16323,14341
16166,14196
16035,14056
15991,14003
15923,13913
15877,13837
15849,13762
15835,13677
15831,13567
15831,13530
15831,13327
15899,13416
15958,13484
16042,13569
16146,13665
16261,13766
16381,13866
16499,13958
16576,14015
16666,14079
16755,14144
16832,14202
16881,14240
17084,14419
17248,14600
17373,14782
17457,14965
17502,15149
17511,15269
17690,15269
17688,15233
17682,15125
17674,15046
17666,15000
17666,14999
17606,14833
17527,14676
17426,14525
17300,14377
17146,14226
16961,14070
16759,13918
16546,13759
16364,13610
16213,13474
16094,13351
16009,13242
15957,13148
15941,13074
15960,12990
16008,12913
16077,12853
16121,12832
16167,12823
16214,12825
16267,12842
16328,12876
16402,12929
16491,13003
16599,13101
16729,13225
16799,13293
16977,13464
17133,13607
17271,13725
17393,13821
17503,13897
17604,13957
17651,13981
17799,14031
17950,14044
18097,14020
18165,13995
18245,13947
18334,13874
18421,13787
18493,13695
18495,13693
18502,13683
18509,13681
18514,13690
18518,13712
18521,13750
18524,13808
18526,13889
18528,13995
18529,14130
18530,14297
18531,14498
18531,14673
18532,14902
18532,15094
18533,15252
18534,15379
18536,15477
18538,15551
18540,15602
18544,15634
18548,15650
18554,15653
18560,15645
18568,15630
18572,15623
18580,15604
18587,15581
18593,15553
18597,15515
18601,15464
18604,15396
18606,15309
18608,15198
18609,15062
18609,14895
18610,14695
18610,14459
18610,14443
18609,14230
18608,14023
18607,13828
18605,13648
18602,13488
18602,13476
18355,13476
18339,13567
18298,13646
18245,13709
18137,13796
18019,13846
17894,13858
17768,13832
17710,13806
17617,13752
17513,13680
17396,13588
17263,13474
17111,13334
16935,13167
16931,13163
16790,13027
16673,12918
16576,12831
16495,12765
16426,12717
16366,12682
16310,12659
16282,12650
16162,12637
16046,12663
15939,12725
15843,12822
15818,12857
15755,12951
15764,13367
15767,13506
15771,13612
15775,13691
15780,13748
15788,13791
15800,13826
15815,13859
15828,13883
15882,13984
15721,13886
15628,13832
15518,13771
15409,13713
15371,13693
15250,13634
15127,13576
14999,13518
14859,13458
14704,13394
14529,13324
14329,13246
14099,13158
13911,13087
13726,13016
13553,12946
13396,12878
13261,12816
13152,12762
13077,12718
13073,12716
13064,12701
13069,12672
13090,12624
13129,12551
13151,12512
13224,12390
13284,12301
13335,12241
13381,12206
13424,12193
13434,12193
13464,12194
13496,12202
13533,12217
13581,12243
13644,12282
13727,12338
13835,12412
13923,12474
14052,12564
14162,12637
14261,12698
14358,12753
14461,12804
14578,12857
14717,12915
14864,12974
15028,13038
15160,13085
15266,13115
15348,13130
15412,13129
15461,13115
15491,13097
15541,13056
15546,12737
15471,12737
15469,12866
15465,12960
15457,13019
15447,13049
15446,13050
15418,13065
15374,13068
15309,13057
15221,13033
15105,12993
14958,12938
14863,12901
14704,12838
14574,12783
14465,12733
14366,12682
14270,12626
14168,12560
14051,12480
13941,12402
13806,12307
13699,12235
13614,12182
13547,12147
13494,12128
13449,12121
13408,12126
13392,12130
13337,12153
13287,12190
13235,12248
13178,12332
13110,12446
13110,12448
13065,12523
13028,12584
13002,12623
12992,12633
12961,12615
12940,12569
12931,12504
12935,12433
12953,12364
12955,12359
12978,12310
13017,12238
13067,12149
13123,12050
13182,11948
13240,11850
13293,11763
13337,11693
13367,11648
13375,11638
13414,11606
13457,11596
13511,11609
13582,11646
13664,11699
13744,11753
13844,11821
13950,11894
14045,11958
14175,12045
14289,12115
14398,12174
14513,12228
14646,12283
14785,12335
14947,12393
15078,12436
15184,12464
15268,12479
15338,12482
15398,12474
15439,12461
15451,12460
15460,12472
15466,12503
15469,12558
15470,12643
15471,12737
15546,12737
15547,12632
15549,12501
15549,12380
15548,12276
15546,12219
15351,12219
15351,12298
15254,12287
15201,12276
15121,12253
15022,12221
14914,12183
14869,12167
14708,12105
14576,12050
14466,11999
14368,11948
14274,11892
14256,11880
14151,11813
14151,11329
14250,11438
14336,11523
14443,11608
14573,11696
14731,11791
14922,11894
14964,11916
15069,11970
15163,12021
15240,12063
15294,12094
15316,12109
15343,12157
15351,12219
15546,12219
15546,12196
15542,12147
15541,12140
15521,12077
15481,12019
15418,11960
15327,11899
15204,11831
15142,11799
14978,11715
14843,11643
14730,11577
14631,11514
14540,11449
14523,11436
14406,11347
14453,11310
14517,11273
14605,11236
14702,11203
14794,11180
14860,11173
14929,11177
14990,11189
15001,11193
15027,11211
15077,11254
15150,11319
15241,11403
15348,11503
15467,11617
15595,11740
15668,11810
15865,12002
16036,12167
16184,12310
16312,12431
16423,12535
16518,12623
16602,12697
16675,12761
16742,12816
16805,12866
16808,12868
16879,12922
16930,12955
16971,12973
17015,12980
17070,12981
17207,12964
17337,12920
17447,12855
17475,12831
17551,12759
17551,12414
17552,12291
17554,12211
17471,12211
17471,12478
17470,12587
17468,12663
17464,12714
17456,12747
17443,12770
17424,12790
17423,12790
17350,12840
17252,12880
17146,12906
17077,12912
17025,12910
16984,12902
16942,12882
16889,12845
16827,12796
16741,12726
16648,12647
16548,12558
16435,12456
16309,12338
16166,12201
16004,12045
15820,11865
15612,11660
15537,11586
15094,11147
14974,11122
14867,11108
14762,11116
14651,11145
14520,11200
14513,11203
14430,11240
14374,11255
14337,11248
14312,11216
14289,11159
14275,11056
14297,10949
14351,10846
14434,10754
14495,10707
14630,10633
14762,10587
14886,10573
14994,10590
15003,10594
15029,10612
15080,10655
15152,10721
15243,10805
15348,10905
15465,11018
15590,11140
15630,11179
15863,11408
16071,11610
16255,11785
16415,11934
16554,12059
16673,12162
16774,12243
16857,12303
16924,12345
16977,12368
16987,12371
17089,12380
17203,12360
17317,12315
17405,12260
17471,12211
17554,12211
17554,12192
17559,12121
17565,12082
17569,12076
17602,12095
17656,12136
17725,12190
17801,12253
17875,12318
17942,12379
17993,12429
18003,12440
18108,12583
18198,12760
18270,12967
18324,13200
18349,13363
18355,13476
18602,13476
18599,13353
18596,13246
18592,13173
18590,13153
18564,12951
18555,12902
18361,12902
18358,12916
18351,12927
18343,12927
18332,12910
18315,12870
18288,12801
18271,12758
18209,12621
18130,12494
18030,12371
17903,12249
17746,12120
17654,12051
17632,12035
17351,12035
17332,12077
17285,12119
17217,12156
17141,12182
17071,12191
17037,12188
17000,12175
16954,12147
16893,12101
16809,12032
16801,12025
16711,11948
16605,11854
16494,11752
16390,11654
16365,11630
16130,11403
16130,11136
16131,11039
16135,10958
16140,10902
16146,10877
16148,10876
16168,10893
16207,10933
16256,10988
16269,11003
16347,11087
16454,11194
16589,11322
16749,11469
16933,11633
17075,11759
17169,11843
17248,11917
17307,11976
17342,12018
17351,12035
17632,12035
17593,12004
17545,11961
17521,11930
17520,11928
17502,11906
17458,11861
17392,11798
17309,11719
17210,11630
17102,11532
17094,11525
16953,11398
16817,11274
16690,11155
16575,11044
16476,10946
16395,10862
16335,10796
16299,10751
16291,10732
16307,10718
16353,10723
16423,10745
16513,10781
16619,10830
16735,10890
16856,10958
16931,11003
17075,11097
17228,11204
17382,11318
17534,11437
17677,11555
17808,11669
17920,11774
18009,11866
18068,11940
18106,12004
18147,12085
18177,12155
18208,12240
18240,12342
18271,12454
18301,12568
18326,12677
18346,12774
18358,12851
18361,12902
18555,12902
18527,12743
18482,12536
18430,12339
18374,12160
18316,12008
18285,11943
18224,11846
18132,11734
18013,11610
17873,11479
17716,11344
17547,11209
17370,11076
17190,10951
17012,10835
16840,10734
16679,10650
16546,10592
16412,10549
16295,10531
16201,10536
16132,10565
16112,10585
16097,10607
16086,10633
16079,10669
16074,10722
16072,10798
16071,10904
16071,10985
16070,11098
16068,11196
16064,11271
16060,11319
16056,11333
16039,11319
15997,11281
15934,11220
15853,11142
15757,11049
15651,10944
15591,10884
15458,10752
15349,10645
15259,10561
15186,10498
15124,10452
15070,10421
15018,10403
14966,10394
14909,10393
14842,10396
" /> 
</g>
<g style="fill:#000000; fill-opacity:1.0; 
stroke:#000000; stroke-width:0; stroke-opacity:1; 
stroke-linecap:round; stroke-linejoin:round;">
<polyline style="fill-rule:evenodd;"
points="13687,5718
13687,5521
13372,5521
13372,5718
13687,5718
" /> 
<polyline style="fill-rule:evenodd;"
points="13215,5718
13215,5521
12900,5521
12900,5718
13215,5718
" /> 
<polyline style="fill-rule:evenodd;"
points="13392,6210
13195,6210
13195,6525
13392,6525
13392,6210
" /> 
<polyline style="fill-rule:evenodd;"
points="13392,6683
13195,6683
13195,6998
13392,6998
13392,6683
" /> 
<polyline style="fill-rule:evenodd;"
points="5872,14990
4967,14990
4967,15580
5872,15580
5872,14990
" /> 
<polyline style="fill-rule:evenodd;"
points="5872,16368
4967,16368
4967,16958
5872,16958
5872,16368
" /> 
<polyline style="fill-rule:evenodd;"
points="5223,10698
5223,11171
5617,11171
5617,10698
5223,10698
" /> 
<polyline style="fill-rule:evenodd;"
points="6010,10698
6010,11171
6404,11171
6404,10698
6010,10698
" /> 
<polyline style="fill-rule:evenodd;"
points="7152,10501
7624,10501
7624,10108
7152,10108
7152,10501
" /> 
<polyline style="fill-rule:evenodd;"
points="7152,9714
7624,9714
7624,9320
7152,9320
7152,9714
" /> 
<polyline style="fill-rule:evenodd;"
points="6817,9448
6227,9448
6227,9625
6817,9625
6817,9448
" /> 
<polyline style="fill-rule:evenodd;"
points="6817,9822
6227,9822
6227,10000
6817,10000
6817,9822
" /> 
<polyline style="fill-rule:evenodd;"
points="6817,10196
6227,10196
6227,10374
6817,10374
6817,10196
" /> 
<polyline style="fill-rule:evenodd;"
points="5400,10196
4809,10196
4809,10374
5400,10374
5400,10196
" /> 
<polyline style="fill-rule:evenodd;"
points="5400,9822
4809,9822
4809,10000
5400,10000
5400,9822
" /> 
<polyline style="fill-rule:evenodd;"
points="5400,9448
4809,9448
4809,9625
5400,9625
5400,9448
" /> 
<polyline style="fill-rule:evenodd;"
points="6158,9419
5469,9419
5469,10403
6158,10403
6158,9419
" /> 
<polyline style="fill-rule:evenodd;"
points="16719,6899
16719,7568
16955,7568
16955,6899
16719,6899
" /> 
<polyline style="fill-rule:evenodd;"
points="17211,6899
17211,7568
17447,7568
17447,6899
17211,6899
" /> 
<polyline style="fill-rule:evenodd;"
points="16227,6899
16227,7568
16463,7568
16463,6899
16227,6899
" /> 
<polyline style="fill-rule:evenodd;"
points="15735,6899
15735,7568
15971,7568
15971,6899
15735,6899
" /> 
<polyline style="fill-rule:evenodd;"
points="18412,5501
18412,6564
18805,6564
18805,5501
18412,5501
" /> 
<polyline style="fill-rule:evenodd;"
points="14868,5501
14868,6564
15262,6564
15262,5501
14868,5501
" /> 
<polyline style="fill-rule:evenodd;"
points="17703,7568
17939,7568
17939,6899
17703,6899
17703,7568
" /> 
<polyline style="fill-rule:evenodd;"
points="14475,6702
14475,6505
14160,6505
14160,6702
14475,6702
" /> 
<polyline style="fill-rule:evenodd;"
points="14002,6702
14002,6505
13687,6505
13687,6702
14002,6702
" /> 
<polyline style="fill-rule:evenodd;"
points="14475,7490
14475,7293
14160,7293
14160,7490
14475,7490
" /> 
<polyline style="fill-rule:evenodd;"
points="14002,7490
14002,7293
13687,7293
13687,7490
14002,7490
" /> 
<polyline style="fill-rule:evenodd;"
points="14475,7096
14475,6899
14160,6899
14160,7096
14475,7096
" /> 
<polyline style="fill-rule:evenodd;"
points="14002,7096
14002,6899
13687,6899
13687,7096
14002,7096
" /> 
<polyline style="fill-rule:evenodd;"
points="9632,6899
9632,7568
9868,7568
9868,6899
9632,6899
" /> 
<polyline style="fill-rule:evenodd;"
points="10124,6899
10124,7568
10361,7568
10361,6899
10124,6899
" /> 
<polyline style="fill-rule:evenodd;"
points="9140,6899
9140,7568
9376,7568
9376,6899
9140,6899
" /> 
<polyline style="fill-rule:evenodd;"
points="8648,6899
8648,7568
8884,7568
8884,6899
8648,6899
" /> 
<polyline style="fill-rule:evenodd;"
points="11325,5501
11325,6564
11719,6564
11719,5501
11325,5501
" /> 
<polyline style="fill-rule:evenodd;"
points="7782,5501
7782,6564
8176,6564
8176,5501
7782,5501
" /> 
<polyline style="fill-rule:evenodd;"
points="10617,7568
10853,7568
10853,6899
10617,6899
10617,7568
" /> 
<polyline style="fill-rule:evenodd;"
points="12113,6505
12113,6702
12428,6702
12428,6505
12113,6505
" /> 
<polyline style="fill-rule:evenodd;"
points="12585,6505
12585,6702
12900,6702
12900,6505
12585,6505
" /> 
<polyline style="fill-rule:evenodd;"
points="12113,6899
12113,7096
12428,7096
12428,6899
12113,6899
" /> 
<polyline style="fill-rule:evenodd;"
points="12585,6899
12585,7096
12900,7096
12900,6899
12585,6899
" /> 
<polyline style="fill-rule:evenodd;"
points="12113,7293
12113,7490
12428,7490
12428,7293
12113,7293
" /> 
<polyline style="fill-rule:evenodd;"
points="12585,7293
12585,7490
12900,7490
12900,7293
12585,7293
" /> 
</g>
<g style="fill:#000000; fill-opacity:1.0; 
stroke:#000000; stroke-width:787.402; stroke-opacity:1; 
stroke-linecap:round; stroke-linejoin:round;">
</g>
<g style="fill:#000000; fill-opacity:0.0; 
stroke:#000000; stroke-width:787.402; stroke-opacity:1; 
stroke-linecap:round; stroke-linejoin:round;">
<path d="M10823 23425
L10823 23818
" />
<path d="M4288 23425
L4288 23818
" />
</g>
<g style="fill:#000000; fill-opacity:1.0; 
stroke:#000000; stroke-width:0; stroke-opacity:1; 
stroke-linecap:round; stroke-linejoin:round;">
<circle cx="2398.5" cy="13346.5" r="708.661" /> 
</g>
<g style="fill:#000000; fill-opacity:1.0; 
stroke:#000000; stroke-width:39.3701; stroke-opacity:1; 
stroke-linecap:round; stroke-linejoin:round;">
</g>
<g style="fill:#000000; fill-opacity:1.0; 
stroke:#000000; stroke-width:0; stroke-opacity:1; 
stroke-linecap:round; stroke-linejoin:round;">
<circle cx="24052" cy="13346.5" r="708.661" /> 
</g>
<g style="fill:#000000; fill-opacity:1.0; 
stroke:#000000; stroke-width:39.3701; stroke-opacity:1; 
stroke-linecap:round; stroke-linejoin:round;">
</g>
<g style="fill:#000000; fill-opacity:1.0; 
stroke:#000000; stroke-width:0; stroke-opacity:1; 
stroke-linecap:round; stroke-linejoin:round;">
<polyline style="fill-rule:evenodd;"
points="23609,9478
22821,9478
22821,9753
23609,9753
23609,9478
" /> 
<polyline style="fill-rule:evenodd;"
points="23609,10068
22821,10068
22821,10344
23609,10344
23609,10068
" /> 
<polyline style="fill-rule:evenodd;"
points="23609,8297
22821,8297
22821,8572
23609,8572
23609,8297
" /> 
<polyline style="fill-rule:evenodd;"
points="23766,7627
23451,7627
23451,8100
23766,8100
23766,7627
" /> 
<polyline style="fill-rule:evenodd;"
points="24554,7627
24239,7627
24239,8100
24554,8100
24554,7627
" /> 
<polyline style="fill-rule:evenodd;"
points="23766,10541
23451,10541
23451,11013
23766,11013
23766,10541
" /> 
<polyline style="fill-rule:evenodd;"
points="24554,10541
24239,10541
24239,11013
24554,11013
24554,10541
" /> 
<circle cx="24002.8" cy="9911.42" r="177.165" /> 
</g>
<g style="fill:#000000; fill-opacity:1.0; 
stroke:#000000; stroke-width:39.3701; stroke-opacity:1; 
stroke-linecap:round; stroke-linejoin:round;">
</g>
<g style="fill:#000000; fill-opacity:1.0; 
stroke:#000000; stroke-width:0; stroke-opacity:1; 
stroke-linecap:round; stroke-linejoin:round;">
<circle cx="24002.8" cy="8730.32" r="177.165" /> 
</g>
<g style="fill:#000000; fill-opacity:1.0; 
stroke:#000000; stroke-width:39.3701; stroke-opacity:1; 
stroke-linecap:round; stroke-linejoin:round;">
</g>
<g style="fill:#000000; fill-opacity:1.0; 
stroke:#000000; stroke-width:78.7402; stroke-opacity:1; 
stroke-linecap:round; stroke-linejoin:round;">
</g>
<g style="fill:#000000; fill-opacity:0.0; 
stroke:#000000; stroke-width:78.7402; stroke-opacity:1; 
stroke-linecap:round; stroke-linejoin:round;">
<path d="M13884 5620
L14947 5620
" />
<path d="M12703 5620
L11640 5620
" />
<path d="M13884 5915
L13884 5324
" />
<path d="M12703 5915
L13884 5915
" />
<path d="M12703 5324
L12703 5915
" />
<path d="M13884 5324
L12703 5324
" />
</g>
<g style="fill:#000000; fill-opacity:0.0; 
stroke:#000000; stroke-width:74.8031; stroke-opacity:1; 
stroke-linecap:round; stroke-linejoin:round;">
<path d="M16311 8263
L16311 8612
" />
<path d="M16311 8313
L16286 8288
L16236 8263
L16161 8263
L16111 8288
L16086 8338
L16086 8612
" />
<path d="M15638 8587
L15687 8612
L15787 8612
L15837 8587
L15862 8538
L15862 8338
L15837 8288
L15787 8263
L15687 8263
L15638 8288
L15613 8338
L15613 8388
L15862 8438
" />
<path d="M15164 8263
L15164 8612
" />
<path d="M15388 8263
L15388 8538
L15363 8587
L15313 8612
L15239 8612
L15189 8587
L15164 8562
" />
<path d="M14914 8612
L14914 8263
" />
<path d="M14914 8363
L14889 8313
L14865 8288
L14815 8263
L14765 8263
" />
<path d="M14515 8612
L14565 8587
L14590 8562
L14615 8513
L14615 8363
L14590 8313
L14565 8288
L14515 8263
L14441 8263
L14391 8288
L14366 8313
L14341 8363
L14341 8513
L14366 8562
L14391 8587
L14441 8612
L14515 8612
" />
<path d="M14191 8263
L13992 8263
" />
<path d="M14117 8089
L14117 8538
L14092 8587
L14042 8612
L13992 8612
" />
<path d="M13817 8612
L13817 8263
" />
<path d="M13817 8089
L13842 8114
L13817 8139
L13792 8114
L13817 8089
L13817 8139
" />
<path d="M13568 8263
L13568 8612
" />
<path d="M13568 8313
L13543 8288
L13493 8263
L13418 8263
L13368 8288
L13344 8338
L13344 8612
" />
<path d="M13094 8612
L13094 8089
" />
<path d="M13044 8413
L12895 8612
" />
<path d="M12895 8263
L13094 8463
" />
<path d="M12471 8587
L12521 8612
L12620 8612
L12670 8587
L12695 8538
L12695 8338
L12670 8288
L12620 8263
L12521 8263
L12471 8288
L12446 8338
L12446 8388
L12695 8438
" />
<path d="M12221 8612
L12221 8263
" />
<path d="M12221 8363
L12197 8313
L12172 8288
L12122 8263
L12072 8263
" />
<path d="M11897 8562
L11872 8587
L11897 8612
L11922 8587
L11897 8562
L11897 8612
" />
<path d="M11424 8587
L11473 8612
L11573 8612
L11623 8587
L11648 8562
L11673 8513
L11673 8363
L11648 8313
L11623 8288
L11573 8263
L11473 8263
L11424 8288
" />
<path d="M11124 8612
L11174 8587
L11199 8562
L11224 8513
L11224 8363
L11199 8313
L11174 8288
L11124 8263
L11050 8263
L11000 8288
L10975 8313
L10950 8363
L10950 8513
L10975 8562
L11000 8587
L11050 8612
L11124 8612
" />
<path d="M10725 8612
L10725 8263
" />
<path d="M10725 8313
L10700 8288
L10651 8263
L10576 8263
L10526 8288
L10501 8338
L10501 8612
" />
<path d="M10501 8338
L10476 8288
L10426 8263
L10351 8263
L10302 8288
L10277 8338
L10277 8612
" />
</g>
<g style="fill:#000000; fill-opacity:0.0; 
stroke:#000000; stroke-width:78.7402; stroke-opacity:1; 
stroke-linecap:round; stroke-linejoin:round;">
<path d="M24908 8021
L24711 8218
" />
<path d="M24908 8021
L25105 8218
" />
<path d="M24908 10620
L24711 10423
" />
<path d="M24908 10620
L25105 10423
" />
<path d="M24908 8021
L24908 10620
" />
<circle cx="21193.4" cy="21260.6" r="1968.5" /> 
<circle cx="21193.4" cy="5512.62" r="1968.5" /> 
<circle cx="5445.41" cy="21260.6" r="1968.5" /> 
<circle cx="5445.41" cy="5512.62" r="1968.5" /> 
</g>
<g style="fill:#000000; fill-opacity:0.0; 
stroke:#000000; stroke-width:55.1181; stroke-opacity:1; 
stroke-linecap:round; stroke-linejoin:round;">
<path d="M3005 11577
L2687 11616
L2649 11602
L2630 11586
L2612 11551
L2612 11476
L2630 11436
L2649 11415
L2687 11392
L3005 11352
" />
<path d="M2630 11230
L2612 11176
L2612 11082
L2630 11042
L2649 11021
L2687 10998
L2724 10993
L2762 11007
L2780 11024
L2799 11059
L2818 11131
L2837 11167
L2855 11183
L2893 11197
L2930 11192
L2968 11169
L2987 11148
L3005 11108
L3005 11014
L2987 10960
" />
<path d="M2818 10813
L2818 10681
" />
<path d="M2612 10651
L2612 10838
L3005 10789
L3005 10602
" />
<path d="M2724 10187
L2724 10000
" />
<path d="M2612 10239
L3005 10058
L2612 9976
" />
<path d="M2612 9657
L2612 9845
L3005 9796
" />
<path d="M2612 9526
L3005 9477
" />
<path d="M2612 9301
L2837 9442
" />
<path d="M3005 9252
L2780 9505
" />
<path d="M2724 9137
L2724 8950
" />
<path d="M2612 9189
L3005 9008
L2612 8926
" />
<path d="M2612 8607
L2612 8795
L3005 8746
" />
<path d="M2612 8476
L3005 8427
" />
<path d="M2612 8289
L3005 8240
L2612 8064
L3005 8015
" />
<path d="M2818 7851
L2818 7719
" />
<path d="M2612 7689
L2612 7876
L3005 7827
L3005 7640
" />
<path d="M2078 11631
L2078 11443
" />
<path d="M1966 11682
L2360 11502
L1966 11420
" />
<path d="M2078 11293
L2078 11106
" />
<path d="M1966 11345
L2360 11164
L1966 11082
" />
<path d="M2003 10421
L1985 10442
L1966 10501
L1966 10538
L1985 10592
L2022 10625
L2060 10639
L2135 10649
L2191 10642
L2266 10613
L2303 10590
L2341 10548
L2360 10489
L2360 10452
L2341 10398
L2322 10381
" />
<path d="M2172 10232
L2172 10100
" />
<path d="M1966 10070
L1966 10257
L2360 10208
L2360 10021
" />
<path d="M1966 9714
L1966 9901
L2360 9852
" />
<path d="M1966 9395
L1966 9582
L2360 9533
" />
<path d="M1985 9280
L1966 9226
L1966 9132
L1985 9093
L2003 9071
L2041 9048
L2078 9043
L2116 9057
L2135 9074
L2153 9109
L2172 9182
L2191 9217
L2210 9233
L2247 9247
L2285 9243
L2322 9219
L2341 9198
L2360 9158
L2360 9064
L2341 9011
" />
<path d="M2360 8465
L2360 8390
L2341 8354
L2303 8322
L2228 8312
L2097 8329
L2022 8357
L1985 8399
L1966 8439
L1966 8514
L1985 8549
L2022 8582
L2097 8591
L2228 8575
L2303 8547
L2341 8504
L2360 8465
" />
<path d="M1966 8176
L2360 8127
L1966 7951
L2360 7902
" />
<path d="M1966 7576
L1966 7764
L2360 7715
" />
<path d="M2153 7347
L1966 7370
" />
<path d="M2360 7452
L2153 7347
L2360 7190
" />
<path d="M2612 20205
L2799 20313
" />
<path d="M2612 20430
L3005 20381
L3005 20231
L2987 20196
L2968 20179
L2930 20165
L2874 20172
L2837 20196
L2818 20217
L2799 20257
L2799 20407
" />
<path d="M2818 20011
L2818 19880
" />
<path d="M2612 19849
L2612 20037
L3005 19987
L3005 19800
" />
<path d="M2612 19680
L3005 19631
L2724 19535
L3005 19369
L2612 19418
" />
<path d="M3005 19106
L3005 19031
L2987 18996
L2949 18963
L2874 18954
L2743 18970
L2668 18998
L2630 19041
L2612 19080
L2612 19155
L2630 19191
L2668 19223
L2743 19233
L2874 19216
L2949 19188
L2987 19146
L3005 19106
" />
<path d="M3005 18825
L2612 18743
L3005 18562
" />
<path d="M2818 18455
L2818 18323
" />
<path d="M2612 18293
L2612 18480
L3005 18431
L3005 18244
" />
<path d="M2818 17667
L2799 17613
L2780 17597
L2743 17583
L2687 17590
L2649 17613
L2630 17634
L2612 17674
L2612 17824
L3005 17775
L3005 17644
L2987 17609
L2968 17592
L2930 17578
L2893 17583
L2855 17606
L2837 17627
L2818 17667
L2818 17799
" />
<path d="M2724 17435
L2724 17248
" />
<path d="M2612 17487
L3005 17306
L2612 17224
" />
<path d="M3005 17100
L3005 16875
" />
<path d="M2612 17037
L3005 16988
" />
<path d="M3005 16800
L3005 16575
" />
<path d="M2612 16737
L3005 16688
" />
<path d="M2818 16467
L2818 16336
" />
<path d="M2612 16306
L2612 16493
L3005 16444
L3005 16257
" />
<path d="M2612 15912
L2799 16020
" />
<path d="M2612 16137
L3005 16088
L3005 15938
L2987 15903
L2968 15886
L2930 15872
L2874 15879
L2837 15903
L2818 15924
L2799 15964
L2799 16114
" />
<path d="M2612 15743
L3005 15694
" />
<path d="M2818 15530
L2818 15399
" />
<path d="M2612 15368
L2612 15556
L3005 15507
L3005 15319
" />
<path d="M2630 15216
L2612 15162
L2612 15068
L2630 15029
L2649 15007
L2687 14984
L2724 14979
L2762 14993
L2780 15010
L2799 15045
L2818 15118
L2837 15153
L2855 15169
L2893 15183
L2930 15179
L2968 15155
L2987 15134
L3005 15094
L3005 15000
L2987 14947
" />
<path d="M1966 20486
L2360 20437
L2360 20287
L2341 20252
L2322 20236
L2285 20222
L2228 20229
L2191 20252
L2172 20273
L2153 20313
L2153 20463
" />
<path d="M1966 19868
L2153 19976
" />
<path d="M1966 20093
L2360 20044
L2360 19894
L2341 19858
L2322 19842
L2285 19828
L2228 19835
L2191 19858
L2172 19880
L2153 19919
L2153 20069
" />
<path d="M1966 19699
L2360 19650
" />
<path d="M2360 19387
L2360 19312
L2341 19277
L2303 19244
L2228 19235
L2097 19251
L2022 19280
L1985 19322
L1966 19362
L1966 19437
L1985 19472
L2022 19505
L2097 19514
L2228 19498
L2303 19469
L2341 19427
L2360 19387
" />
<path d="M1966 18874
L2153 18982
" />
<path d="M1966 19099
L2360 19050
L2360 18900
L2341 18865
L2322 18848
L2285 18834
L2228 18841
L2191 18865
L2172 18886
L2153 18926
L2153 19076
" />
<path d="M2360 18413
L2360 18188
" />
<path d="M1966 18349
L2360 18300
" />
<path d="M2360 17981
L2360 17906
L2341 17871
L2303 17838
L2228 17829
L2097 17845
L2022 17874
L1985 17916
L1966 17956
L1966 18031
L1985 18066
L2022 18098
L2097 18108
L2228 18091
L2303 18063
L2341 18021
L2360 17981
" />
<path d="M1985 17410
L1966 17356
L1966 17262
L1985 17222
L2003 17201
L2041 17178
L2078 17173
L2116 17187
L2135 17203
L2153 17238
L2172 17311
L2191 17346
L2210 17363
L2247 17377
L2285 17372
L2322 17349
L2341 17327
L2360 17288
L2360 17194
L2341 17140
" />
<path d="M2360 17025
L2360 16800
" />
<path d="M1966 16962
L2360 16913
" />
<path d="M2360 16594
L2360 16519
L2341 16484
L2303 16451
L2228 16442
L2097 16458
L2022 16486
L1985 16528
L1966 16568
L1966 16643
L1985 16678
L2022 16711
L2097 16721
L2228 16704
L2303 16676
L2341 16634
L2360 16594
" />
<path d="M1966 16081
L2153 16189
" />
<path d="M1966 16306
L2360 16257
L2360 16107
L2341 16071
L2322 16055
L2285 16041
L2228 16048
L2191 16071
L2172 16092
L2153 16132
L2153 16282
" />
<path d="M2078 15917
L2078 15729
" />
<path d="M1966 15968
L2360 15788
L1966 15706
" />
<path d="M2341 15321
L2360 15357
L2360 15413
L2341 15471
L2303 15514
L2266 15537
L2191 15565
L2135 15572
L2060 15563
L2022 15549
L1985 15516
L1966 15462
L1966 15425
L1985 15366
L2003 15345
L2135 15329
L2135 15404
" />
<path d="M2172 15155
L2172 15024
" />
<path d="M1966 14993
L1966 15181
L2360 15132
L2360 14944
" />
</g>
<g style="fill:#000000; fill-opacity:0.0; 
stroke:#000000; stroke-width:74.8031; stroke-opacity:1; 
stroke-linecap:round; stroke-linejoin:round;">
<path d="M17018 4523
L17061 4872
" />
<path d="M17118 4324
L17289 4698
L16965 4698
" />
<path d="M16837 4872
L16519 4523
" />
<path d="M16793 4523
L16563 4872
" />
<path d="M16370 4723
L16120 4723
" />
<path d="M16438 4872
L16198 4349
L16089 4872
" />
<path d="M15921 4723
L15671 4723
" />
<path d="M15989 4872
L15749 4349
L15640 4872
" />
<path d="M15067 4872
L15001 4349
L14802 4349
L14755 4374
L14733 4398
L14715 4448
L14724 4523
L14755 4573
L14783 4598
L14836 4623
L15036 4623
" />
<path d="M14378 4349
L14278 4349
L14231 4374
L14188 4423
L14175 4523
L14197 4698
L14235 4797
L14291 4847
L14344 4872
L14443 4872
L14490 4847
L14534 4797
L14546 4698
L14524 4523
L14487 4423
L14431 4374
L14378 4349
" />
<path d="M13979 4349
L13920 4872
L13773 4498
L13720 4872
L13530 4349
" />
<path d="M13362 4598
L13187 4598
" />
<path d="M13147 4872
L13396 4872
L13331 4349
L13081 4349
" />
<path d="M12623 4872
L12767 4623
" />
<path d="M12922 4872
L12857 4349
L12657 4349
L12611 4374
L12589 4398
L12570 4448
L12580 4523
L12611 4573
L12639 4598
L12692 4623
L12891 4623
" />
<path d="M12022 4847
L11950 4872
L11825 4872
L11772 4847
L11744 4822
L11713 4772
L11707 4723
L11726 4673
L11747 4648
L11794 4623
L11891 4598
L11937 4573
L11959 4548
L11978 4498
L11972 4448
L11941 4398
L11913 4374
L11860 4349
L11735 4349
L11663 4374
" />
<path d="M11436 4349
L11489 4772
L11470 4822
L11448 4847
L11401 4872
L11302 4872
L11249 4847
L11221 4822
L11189 4772
L11136 4349
" />
<path d="M10953 4872
L10887 4349
L10688 4349
L10641 4374
L10619 4398
L10600 4448
L10610 4523
L10641 4573
L10669 4598
L10722 4623
L10921 4623
" />
<path d="M10429 4872
L10363 4349
L10164 4349
L10117 4374
L10095 4398
L10077 4448
L10086 4523
L10117 4573
L10145 4598
L10198 4623
L10398 4623
" />
<path d="M9656 4872
L9905 4872
L9840 4349
" />
<path d="M9351 4623
L9382 4872
" />
<path d="M9491 4349
L9351 4623
L9142 4349
" />
</g>
<g style="fill:#000000; fill-opacity:0.0; 
stroke:#000000; stroke-width:55.1181; stroke-opacity:1; 
stroke-linecap:round; stroke-linejoin:round;">
<path d="M25123 11743
L25123 11668
L25105 11630
L25067 11593
L24992 11574
L24861 11574
L24786 11593
L24748 11630
L24730 11668
L24730 11743
L24748 11780
L24786 11818
L24861 11836
L24992 11836
L25067 11818
L25105 11780
L25123 11743
" />
<path d="M24936 11274
L24936 11405
" />
<path d="M24730 11405
L25123 11405
L25123 11218
" />
<path d="M24936 10936
L24936 11068
" />
<path d="M24730 11068
L25123 11068
L25123 10880
" />
<path d="M25123 7674
L25123 7599
L25105 7562
L25067 7524
L24992 7506
L24861 7506
L24786 7524
L24748 7562
L24730 7599
L24730 7674
L24748 7712
L24786 7749
L24861 7768
L24992 7768
L25067 7749
L25105 7712
L25123 7674
" />
<path d="M24730 7337
L25123 7337
L24730 7112
L25123 7112
" />
</g>
<g style="fill:#000000; fill-opacity:1.0; 
stroke:#000000; stroke-width:3.93701; stroke-opacity:1; 
stroke-linecap:round; stroke-linejoin:round;">
<polyline style="fill-rule:evenodd;"
points="15146,9537
14976,9543
14821,9552
14690,9566
14601,9582
14373,9644
14137,9728
13903,9828
13685,9938
13508,10046
13329,10175
13165,10315
13011,10468
12866,10640
12727,10833
12591,11051
12456,11299
12318,11578
12202,11833
12083,12099
11974,12333
11872,12538
11775,12719
11680,12880
11584,13027
11483,13164
11377,13296
11260,13426
11152,13540
11007,13686
10866,13822
10725,13954
10579,14083
10424,14215
10255,14352
10068,14499
9859,14658
9624,14835
9491,14933
9302,15073
9141,15192
9005,15296
8888,15387
8786,15468
8696,15544
8613,15618
8532,15692
8449,15772
8369,15851
8189,16041
8039,16221
7913,16402
7804,16593
7708,16804
7620,17038
7502,17428
7423,17810
7383,18182
7382,18546
7419,18902
7443,19028
7515,19301
7619,19575
7750,19841
7902,20087
8017,20239
8114,20353
8232,20485
8366,20631
8513,20786
8666,20945
8822,21103
8976,21256
9123,21399
9259,21527
9378,21636
9476,21720
9491,21731
9811,21970
10132,22175
10451,22345
10766,22480
11075,22576
11191,22604
11345,22631
11527,22656
11725,22676
11930,22692
12130,22703
12317,22707
12479,22704
12541,22701
12852,22674
13132,22643
13386,22604
13623,22558
13850,22503
14074,22437
14155,22410
14307,22356
14455,22295
14606,22225
14766,22142
14940,22043
15135,21926
15311,21816
15343,21794
15209,21794
15208,21801
15158,21834
15081,21882
14987,21939
14884,21999
14781,22057
14686,22109
14608,22150
14601,22153
14433,22231
14270,22297
14098,22357
13907,22414
13761,22454
13657,22480
13569,22503
13501,22520
13463,22530
13456,22532
13453,22514
13451,22468
13451,22427
13451,22423
13388,22423
13387,22478
13372,22521
13366,22528
13332,22541
13263,22556
13167,22573
13047,22590
12910,22606
12861,22611
12783,22617
12674,22621
12544,22624
12400,22627
12250,22627
12102,22627
11966,22626
11848,22623
11757,22618
11721,22615
11654,22607
11617,22596
11600,22577
11598,22569
11530,22569
11526,22583
11510,22589
11476,22587
11418,22578
11329,22561
11277,22551
11165,22527
11044,22497
10934,22466
10891,22453
10810,22425
10733,22395
10664,22368
10611,22344
10578,22328
10572,22320
10591,22323
10626,22330
10693,22343
10785,22361
10895,22382
11011,22404
11132,22427
11245,22449
11341,22467
11413,22481
11451,22489
11503,22507
11525,22538
11527,22548
11530,22569
11598,22569
11594,22551
11588,22498
12094,22487
12341,22479
12556,22467
12748,22451
12926,22429
13099,22400
13198,22381
13279,22366
13330,22360
13358,22364
13373,22376
13388,22423
13451,22423
13451,22322
13586,22275
13823,22185
14079,22077
14343,21954
14603,21824
14846,21691
14929,21643
15012,21594
15083,21553
15133,21525
15157,21513
15157,21513
15165,21530
15176,21576
15188,21637
15198,21702
15206,21758
15209,21794
15343,21794
15907,21420
16463,21017
16739,20798
16641,20798
16381,20996
16286,21066
16167,21152
16033,21247
15892,21345
15755,21440
15701,21476
15281,21759
15257,21641
15243,21572
15234,21516
15231,21492
15247,21468
15291,21429
15321,21407
15125,21407
15121,21428
15105,21449
15071,21476
15014,21511
14930,21561
14887,21585
14748,21665
14636,21729
14544,21780
14464,21823
14388,21861
14309,21900
14220,21941
14173,21962
14071,22008
13959,22056
13842,22104
13728,22149
13624,22189
13536,22222
13471,22243
13436,22252
13436,22252
13425,22245
13344,22245
13343,22263
13319,22278
13260,22297
13171,22317
13057,22339
12923,22361
12841,22373
12612,22399
12348,22417
12054,22428
11906,22430
11571,22433
11561,22413
11494,22413
11446,22413
11407,22409
11339,22400
11252,22386
11169,22372
11001,22340
10831,22304
10666,22266
10512,22227
10375,22189
10262,22153
10179,22122
10151,22108
9988,22010
9806,21884
9613,21737
9414,21573
9215,21397
9022,21214
8961,21153
8721,20909
8911,21029
9199,21195
9505,21346
9822,21479
10141,21592
10455,21681
10755,21743
10901,21764
10970,21775
11025,21789
11049,21800
11088,21840
11144,21905
11210,21990
11280,22086
11351,22187
11415,22284
11449,22338
11494,22413
11561,22413
11528,22348
11488,22278
11430,22185
11359,22081
11283,21973
11219,21888
11147,21793
11484,21792
11798,21783
12092,21755
12380,21706
12679,21633
12728,21620
12916,21567
12983,21645
13053,21730
13122,21827
13189,21928
13248,22026
13296,22116
13329,22191
13344,22245
13425,22245
13413,22237
13411,22224
13400,22183
13371,22118
13328,22035
13276,21943
13219,21850
13162,21764
13109,21694
12990,21545
13065,21516
13373,21395
13652,21273
13914,21146
14168,21008
14426,20854
14497,20810
14580,20758
14651,20715
14703,20686
14729,20673
14731,20673
14754,20690
14790,20737
14837,20806
14889,20893
14943,20990
14996,21090
15044,21187
15084,21275
15112,21346
15122,21383
15125,21407
15321,21407
15357,21381
15410,21345
15524,21269
15661,21173
15813,21063
15973,20944
16131,20823
16282,20705
16355,20647
16433,20584
16500,20531
16549,20493
16575,20474
16578,20473
16588,20490
16602,20536
16616,20597
16628,20662
16635,20719
16635,20720
16641,20798
16739,20798
16981,20606
17460,20188
17899,19762
17950,19707
17873,19707
17597,19966
17475,20080
17376,20173
17293,20249
17220,20315
17150,20377
17076,20440
16992,20511
16931,20561
16722,20735
16687,20593
16668,20521
16652,20465
16642,20436
16642,20435
16653,20417
16690,20377
16703,20363
16537,20363
16536,20391
16527,20407
16490,20444
16427,20499
16343,20569
16241,20650
16126,20740
16002,20834
15874,20931
15746,21026
15622,21117
15506,21200
15403,21272
15317,21330
15253,21371
15214,21390
15208,21392
15194,21375
15181,21338
15158,21269
15118,21177
15066,21070
15006,20958
14944,20850
14903,20785
14794,20616
14877,20562
14946,20514
15040,20446
15153,20363
15277,20270
15406,20172
15534,20072
15655,19978
15761,19892
15819,19845
16058,19646
16154,19754
16276,19906
16392,20077
16489,20249
16489,20249
16522,20319
16537,20363
16703,20363
16748,20317
16823,20243
16912,20159
16959,20116
17074,20007
17198,19886
17320,19764
17432,19650
17522,19554
17599,19470
17667,19399
17722,19345
17758,19311
17772,19303
17784,19327
17802,19379
17822,19449
17841,19526
17856,19600
17860,19625
17873,19707
17950,19707
18300,19328
18662,18886
18986,18436
18999,18415
18915,18415
18840,18529
18755,18651
18648,18794
18526,18950
18394,19112
18260,19271
18129,19421
18055,19502
17941,19626
17923,19564
17908,19512
17887,19439
17868,19378
17849,19311
17835,19258
17831,19233
17841,19214
17726,19214
17725,19218
17705,19248
17660,19301
17595,19373
17514,19461
17420,19559
17316,19665
17208,19775
17098,19885
16991,19991
16889,20089
16798,20176
16721,20247
16661,20299
16623,20328
16612,20333
16597,20316
16578,20275
16575,20268
16543,20198
16491,20107
16427,20003
16354,19898
16281,19799
16235,19743
16117,19603
16489,19240
16601,19129
16715,19016
16822,18905
16918,18806
16996,18723
17030,18685
17199,18493
17296,18588
17367,18663
17441,18751
17515,18846
17583,18942
17643,19033
17689,19112
17718,19175
17726,19214
17841,19214
17843,19211
17876,19164
17926,19099
17987,19023
18008,18997
18100,18883
18202,18752
18309,18611
18414,18469
18512,18332
18597,18209
18665,18108
18677,18088
18718,18025
18752,17977
18772,17954
18775,17953
18788,17971
18807,18020
18831,18093
18857,18181
18882,18277
18890,18309
18915,18415
18999,18415
19271,17977
19518,17510
19727,17034
19791,16852
19708,16852
19702,16895
19686,16949
19657,17025
19641,17066
19598,17170
19544,17289
19482,17419
19414,17556
19343,17694
19272,17829
19202,17957
19137,18072
19079,18169
19030,18245
18994,18295
18972,18313
18972,18313
18957,18295
18944,18253
18943,18248
18931,18198
18910,18124
18884,18041
18877,18020
18825,17857
18731,17857
18719,17889
18686,17946
18636,18026
18570,18124
18494,18235
18408,18356
18318,18480
18226,18606
18134,18727
18048,18841
17968,18941
17900,19025
17845,19087
17808,19124
17793,19133
17776,19117
17747,19075
17724,19035
17638,18897
17527,18747
17399,18596
17372,18568
17248,18435
17416,18229
17623,17967
17816,17705
18009,17425
18042,17375
18218,17106
18304,17201
18384,17295
18465,17398
18541,17506
18610,17610
18667,17705
18708,17785
18729,17843
18731,17857
18825,17857
18825,17856
18948,17645
19024,17510
19108,17351
19196,17179
19281,17004
19359,16837
19425,16687
19460,16603
19493,16519
19522,16450
19543,16403
19551,16387
19564,16395
19585,16433
19611,16494
19639,16567
19665,16646
19686,16722
19695,16758
19705,16810
19708,16852
19791,16852
19897,16549
20030,16055
20108,15653
20169,15182
20188,14814
20129,14814
20126,14889
20122,14952
20077,15412
20003,15863
19901,16298
19827,16552
19766,16741
19721,16602
19691,16516
19658,16431
19631,16371
19592,16292
19512,16292
19410,16547
19364,16657
19309,16781
19248,16915
19182,17053
19114,17192
19046,17327
18982,17452
18922,17563
18871,17655
18829,17723
18800,17764
18789,17772
18773,17756
18752,17718
18715,17648
18658,17557
18588,17454
18513,17349
18438,17252
18385,17189
18256,17041
18404,16792
18458,16697
18526,16575
18600,16438
18676,16295
18748,16155
18762,16127
18973,15711
19091,15813
19221,15934
19340,16063
19439,16186
19453,16207
19512,16292
19592,16292
19586,16280
19656,16091
19725,15888
19791,15655
19852,15401
19907,15136
19952,14870
19977,14693
20003,14483
20069,14612
20099,14671
20117,14716
20127,14760
20129,14814
20188,14814
20192,14728
20187,14563
20133,14563
20072,14463
20064,14448
19930,14448
19924,14571
19907,14725
19880,14903
19845,15095
19804,15296
19758,15498
19709,15693
19658,15873
19607,16032
19588,16086
19544,16201
19474,16112
19433,16064
19371,15997
19295,15919
19215,15839
19205,15830
19006,15637
19106,15390
19238,15038
19341,14703
19419,14379
19460,14145
19473,14060
19486,13991
19497,13946
19502,13935
19519,13944
19559,13978
19616,14031
19685,14100
19722,14138
19802,14221
19859,14281
19896,14326
19917,14361
19927,14391
19930,14425
19930,14448
20064,14448
20044,14414
20026,14371
20016,14323
20013,14270
19956,14270
19724,14042
19493,13814
19504,13678
19507,13573
19503,13442
19120,13442
19117,13756
19085,14077
19021,14409
18927,14752
18802,15111
18645,15487
18468,15859
18160,16441
17833,16989
17484,17506
17112,17996
16714,18462
16286,18907
15827,19333
15335,19744
15043,19968
14621,20270
14210,20536
13809,20765
13417,20959
13031,21119
12650,21245
12272,21338
12011,21383
11896,21395
11752,21402
11588,21406
11414,21405
11239,21400
11073,21392
10926,21381
10807,21366
10791,21363
10438,21282
10081,21170
9728,21028
9389,20862
9073,20675
8871,20535
8755,20442
8629,20328
8501,20202
8382,20076
8283,19958
8256,19923
8108,19696
7981,19442
7879,19174
7808,18902
7798,18852
7766,18583
7762,18296
7785,17999
7833,17699
7905,17402
7998,17115
8111,16846
8243,16602
8358,16433
8442,16327
8534,16222
8638,16114
8757,16002
8893,15882
9051,15751
9232,15607
9441,15448
9680,15269
9691,15262
9956,15065
10191,14887
10402,14724
10590,14573
10762,14432
10920,14296
11068,14162
11211,14028
11331,13911
11474,13765
11602,13628
11718,13493
11824,13357
11924,13214
12021,13061
12117,12891
12217,12700
12323,12484
12438,12238
12500,12103
12593,11899
12673,11726
12742,11581
12804,11456
12861,11348
12915,11251
12970,11160
13028,11070
13054,11031
13233,10798
13443,10587
13681,10398
13940,10236
14219,10103
14511,10001
14778,9940
14914,9924
15080,9915
15266,9915
15464,9921
15664,9935
15857,9956
16011,9979
16360,10053
16693,10146
17006,10258
17292,10387
17549,10530
17718,10646
17854,10763
17998,10911
18146,11087
18294,11283
18438,11495
18575,11715
18700,11939
18809,12160
18900,12373
18949,12513
19035,12823
19092,13131
19120,13442
19503,13442
19503,13439
19492,13288
19476,13130
19455,12975
19430,12836
19428,12826
19337,12475
19207,12120
19040,11762
18837,11405
18599,11050
18363,10743
18281,10643
18391,10735
18505,10840
18634,10974
18770,11129
18908,11299
19043,11476
19169,11655
19254,11786
19348,11942
19446,12116
19540,12297
19626,12471
19695,12627
19702,12643
19747,12772
19790,12936
19831,13126
19868,13336
19899,13560
19924,13790
19942,14022
19943,14036
19956,14270
20013,14270
20012,14258
20011,14165
20011,14163
20008,14047
20002,13918
19993,13799
19990,13773
19976,13637
19966,13538
19961,13474
19960,13442
19963,13439
19972,13463
19985,13511
19999,13564
20033,13716
20065,13894
20092,14084
20113,14274
20122,14383
20133,14563
20187,14563
20179,14288
20130,13863
20078,13596
20013,13353
19951,13353
19943,13369
19937,13366
19935,13342
19937,13339
19949,13342
19951,13353
20013,13353
19962,13162
19809,12731
19622,12309
19404,11903
19158,11518
19048,11366
18855,11121
18665,10908
18472,10719
18266,10547
18042,10385
17911,10300
17574,10104
17234,9940
16885,9805
16519,9697
16131,9613
15791,9562
15652,9548
15492,9540
15321,9536
15146,9537
" /> 
</g>
<g style="fill:#000000; fill-opacity:0.0; 
stroke:#000000; stroke-width:59.0551; stroke-opacity:1; 
stroke-linecap:round; stroke-linejoin:round;">
<circle cx="6522.52" cy="9202.76" r="118.11" /> 
<path d="M6404 9320
L5223 9320
" />
<path d="M6404 10501
L6404 9320
" />
<path d="M5223 10501
L6404 10501
" />
<path d="M5223 9320
L5223 10501
" />
<path d="M18717 5541
L18717 7037
" />
<path d="M18717 7037
L14957 7037
" />
<path d="M14957 7037
L14957 5541
" />
<path d="M14957 5541
L18717 5541
" />
<path d="M11630 5541
L11630 7037
" />
<path d="M11630 7037
L7870 7037
" />
<path d="M7870 7037
L7870 5541
" />
<path d="M7870 5541
L11630 5541
" />
</g>
<g style="fill:#000000; fill-opacity:0.0; 
stroke:#000000; stroke-width:39.3701; stroke-opacity:1; 
stroke-linecap:round; stroke-linejoin:round;">
<path d="M24514 8021
L23491 8021
" />
<path d="M24514 10620
L24514 8021
" />
<path d="M23491 10620
L24514 10620
" />
<path d="M23491 8021
L23491 10620
" />
</g>
<g style="fill:#000000; fill-opacity:0.0; 
stroke:#000000; stroke-width:59.0551; stroke-opacity:1; 
stroke-linecap:round; stroke-linejoin:round;">
<path d="M25310 24525
L25310 2202
" />
<path d="M1294 24525
L25310 24525
" />
<path d="M1294 2202
L1294 24525
" />
<path d="M25310 2202
L1294 2202
" />
</g> 
</svg>
