G04 #@! TF.FileFunction,Paste,Top*
%FSLAX46Y46*%
G04 Gerber Fmt 4.6, Leading zero omitted, Abs format (unit mm)*
G04 Created by KiCad (PCBNEW 4.0.5-e0-6337~49~ubuntu14.04.1) date Sat Jun 17 20:19:58 2017*
%MOMM*%
%LPD*%
G01*
G04 APERTURE LIST*
%ADD10C,0.100000*%
%ADD11R,2.500000X1.200000*%
%ADD12R,0.800000X0.500000*%
%ADD13R,0.600000X1.700000*%
%ADD14R,1.000000X2.700000*%
%ADD15R,2.300000X1.500000*%
%ADD16R,1.000000X1.200000*%
%ADD17R,1.200000X1.000000*%
%ADD18R,0.500000X0.800000*%
%ADD19R,1.500000X0.450000*%
%ADD20R,1.750000X2.500000*%
G04 APERTURE END LIST*
D10*
D11*
X147250000Y-58000000D03*
X147250000Y-55500000D03*
X147250000Y-53000000D03*
X152750000Y-53000000D03*
X152750000Y-55500000D03*
X152750000Y-58000000D03*
D12*
X155551891Y-54258927D03*
X156751891Y-54258927D03*
D13*
X176250000Y-40400000D03*
X175000000Y-40400000D03*
X177500000Y-40400000D03*
X178750000Y-40400000D03*
D14*
X169325000Y-37350000D03*
X180675000Y-37350000D03*
D13*
X173750000Y-40400000D03*
X172500000Y-40400000D03*
X171250000Y-40400000D03*
D12*
X155551892Y-55058927D03*
X156751892Y-55058927D03*
D15*
X195000000Y-69050000D03*
X195000000Y-72550000D03*
D16*
X195000000Y-58000000D03*
X193000000Y-58000000D03*
D17*
X190000000Y-56400000D03*
X190000000Y-54400000D03*
D18*
X171250000Y-42000000D03*
X171250000Y-43200000D03*
X173100000Y-42000000D03*
X173100000Y-43200000D03*
X175000000Y-42000000D03*
X175000000Y-43200000D03*
X176900000Y-42000000D03*
X176900000Y-43200000D03*
X178750000Y-42000000D03*
X178750000Y-43200000D03*
D19*
X192200000Y-54450000D03*
X192200000Y-55400000D03*
X192200000Y-56350000D03*
X195800000Y-56350000D03*
X195800000Y-55400000D03*
X195800000Y-54450000D03*
D20*
X194000000Y-55400000D03*
M02*
